<svg xmlns="http://www.w3.org/2000/svg" xmlns:xlink="http://www.w3.org/1999/xlink" width="152" height="152" viewBox="0 0 152 152"><defs><clipPath id="b"><rect width="152" height="152"/></clipPath></defs><g id="a" clip-path="url(#b)"><path d="M-4018.6,159.378H-4167V31h152V159.378Zm-144.3-4.108h143.783V35.108h-143.783Zm78.336-12.581h-2.826l-11.862-7.7h2.83l11.858,7.7h0Zm-6.327,0h-2.825l-11.861-7.7h2.828l11.858,7.7h0Zm-6.325,0h-2.827l-11.861-7.7h2.829l11.859,7.7h0Zm-6.326,0h-2.827l-11.86-7.7h2.828l11.859,7.7h0Zm-6.326,0h-2.826l-11.861-7.7h2.83l11.858,7.7h0Zm16.036-8.291v-1.837l12.324,8V142.4h0Zm12.323,3.893-12.323-8v-1.838l12.324,8v1.835h0Zm0-4.108-12.323-8v-1.839l12.324,8v1.837h0Zm-27.471-1h-20.541V119.324h10.014v-57h-16.175v9.243H-4148V48.46h70.865V71.568h-12.325V62.324h-16.176v57h10.014v13.865Zm17.971-9.283-2.823-1.832v-1.837l2.824,1.834v1.834h0Zm0-4.106-2.824-1.834v-.438h-.675l-8.311-5.4v-1.838l11.81,7.67V119.8h0Zm-7-2.273h-2.829l-1.985-1.289V114.4l4.814,3.126h0Zm7-1.837-11.809-7.668v-1.839l11.81,7.67v1.836h0Zm0-4.108-11.809-7.669v-1.838l11.81,7.67v1.837h0Zm0-4.107-11.81-7.671V97.968l11.81,7.669v1.839Zm0-4.11-11.809-7.67V93.86l11.81,7.67v1.836h0Zm0-4.109-11.809-7.669V89.754l11.81,7.668v1.835h0Zm0-4.108-11.809-7.669V85.644l11.81,7.67v1.835h0Zm41.339-4.068v-1.54h21.567v1.54Zm-41.339-.04-11.809-7.669V81.536l11.81,7.67v1.834h0Zm0-4.108-11.809-7.669V77.428L-4091,85.1v1.835h0Zm59.568-1.5h-.229l-4.745-3.082h.353v-.535l4.622,3v.615h0Zm-1.425,0h-1.177l-4.746-3.082h1.179l4.744,3.081h0Zm-2.372,0h-1.178l-4.744-3.081h1.179l4.742,3.08h0Zm-2.373,0h-1.177l-4.744-3.081h1.178l4.742,3.08h0Zm-2.372,0h-1.177l-4.744-3.081h1.178l4.743,3.08h0Zm-2.373,0h-1.176l-4.744-3.081h1.179l4.743,3.08h0Zm-2.372,0h-1.177l-4.332-2.813.174-.268h.592l4.743,3.08h0Zm-2.373,0h-1.177l-1.959-1.272.35-.538,2.786,1.809h0Zm-2.372,0h-.59l.176-.27.415.269h0Zm18.029-1.391-4.621-3v-.766l4.622,3v.765h0ZM-4091,82.826l-11.809-7.669V73.319l11.81,7.67v1.836h0Zm59.568-.325-4.621-3v-.765l4.622,3V82.5h0Zm-18.229-.663V76.7h3.337V54.108h-3.337V48.973h12.324v5.135h-3.338V76.7h3.338v5.135Zm-72.849-.769h-2.827l-11.071-7.19h2.53v-.194l11.368,7.383h0Zm-6.326,0h-2.827l-11.07-7.19h2.828l11.07,7.189h0Zm97.4-.108-4.621-3v-.765l4.622,3v.764h0Zm-34.541-.149h-2.826l-10.278-6.673h2.829l10.275,6.672h0Zm-6.324,0h-2.827l-10.279-6.673h2.829l10.277,6.672h0Zm-2.783-8.187V70.788l11.811,7.669v1.836h0Zm-46.987,6.46-11.81-7.67V69.577l11.81,7.67v0h0v1.836h0Zm31.067-.367-11.809-7.668V69.211l11.81,7.67v1.836h0Zm55.973-1.633-1.026-.666v-.743h-1.144l-2.45-1.592v-.765l4.622,3v.764h0Zm-28.243-.9-11.811-7.668V66.68l11.811,7.671v1.832h0Zm24.877-.507h-1.177l-.078-.051V74.86l1.255.815h0Zm3.365-.132-4.621-3v-.765l4.622,3v.764h0Zm-87.039-.569-11.811-7.669V65.468l11.811,7.67v1.837h0Zm31.066-.366-.729-.472h.73v.472h0Zm55.973-.605-4.621-3v-.766l4.622,3V74h0Zm-57-.061-10.783-7V65.1l10.784,7v1.837h0Zm57-1.48-4.621-3V68.7l4.622,3v.765h0Zm-40.053-8.055V62.57l11.811,7.672v1.836Zm40.053,6.515-4.621-3v-.766l4.622,3v.764h0Zm-87.039-.055-9.6-6.232h2.831l6.767,4.395v1.837h0Zm30.039-1.032-7.609-4.942h2.83l4.781,3.105v1.836h0Zm57-.453-4.621-3v-.765l4.622,3v.765h0Zm-40.053-9.082V58.463l11.811,7.671v1.836h0Zm40.053,7.541-4.621-3v-.766l4.622,3v.764h0Zm-87.039-1.082-3.271-2.125h2.829l.442.287V66.76h0Zm87.039-.459-4.621-3v-.766l4.622,3V66.3h0Zm-57-.575-1.282-.833h1.285v.833h0Zm57-.966-4.621-3v-.766l4.622,3v.764h0Zm-40.053-8.568V54.355l11.811,7.67v1.837h0Zm40.053,7.027-4.621-3v-.765l4.622,3v.764h0Zm0-1.541-4.621-3v-.765l4.622,3v.764h0Zm0-1.54-4.621-3v-.766l4.622,3v.764h0Zm-28.243-.386-11.811-7.669V50.246l11.811,7.67v1.837h0Zm28.243-1.155-4.621-3v-.462h.467l4.155,2.7V58.6h0Zm3.6-.9h-.23l-4.392-2.852v-.765l4.622,3V57.7h0Zm-1.426,0h-1.177l-3.954-2.567h1.179l3.952,2.566h0Zm1.425-1.391-4.621-3v-.765l4.622,3v.764h0Zm0-1.54-4.621-3v-.765l4.622,3v.765h0Zm0-1.541-4.621-3v-.765l4.622,3v.764h0Z" transform="translate(4167 -19)" fill="#fff"/></g></svg>