<svg xmlns="http://www.w3.org/2000/svg" xmlns:xlink="http://www.w3.org/1999/xlink" width="152" height="152" viewBox="0 0 152 152"><defs><clipPath id="a"><rect width="35" height="35" transform="translate(-0.4 -0.4)" fill="#fff"/></clipPath><clipPath id="c"><rect width="152" height="152"/></clipPath></defs><g id="b" clip-path="url(#c)"><g fill="none"><path d="M0,0H152V152H0Z" stroke="none"/><path d="M 10 10 L 10 142 L 142 142 L 142 10 L 10 10 M 0 0 L 152 0 L 152 152 L 0 152 L 0 0 Z" stroke="none" fill="#fff"/></g><rect width="3.04" height="136.8" transform="translate(123.292 26.559) rotate(45)" fill="#fff"/><g transform="translate(30.4 30.4)" clip-path="url(#a)"><path d="M-1012.077-514.924h0l-.007,0,0,0,0,0-.008,0h0a.437.437,0,0,1-.088-.065l0,0,0,0,0-.005,0,0a.428.428,0,0,1-.071-.1h0s0-.006,0-.008v0l0-.006,0-.006a.026.026,0,0,1,0,0s0-.006,0-.01a.455.455,0,0,1-.034-.2h0v-.006s0-.005,0-.008h0a.484.484,0,0,1,.021-.1l2.032-6.909a.508.508,0,0,1,.148-.234l.019-.02.977-.977,20.369-20.369A.539.539,0,0,1-988-544l4.8,4.8a.539.539,0,0,1-.023.761l-18.3,18.283-.014.015-3.008,3.008-.036.034c-.012.011-.022.025-.034.036a.51.51,0,0,1-.216.128l-6.919,2.035a.481.481,0,0,1-.138.02A.457.457,0,0,1-1012.077-514.924Zm1.666-3.677,1.805,1.806,3.552-1.045-.506-1.77-1.794-.243-.243-1.794-1.77-.506Zm21.513-22.808-14.13,14.131a.788.788,0,0,0-.034,1.113.788.788,0,0,0,1.113-.034l14.131-14.13a.789.789,0,0,0,.034-1.113.738.738,0,0,0-.525-.214.833.833,0,0,0-.588.247Zm4.346,26.171-9.821-9.821,3.081-3.081.322.322a.341.341,0,0,0,.243.1.344.344,0,0,0,.243-.1l2.277-2.277,2.678,2.678-2.276,2.276a.344.344,0,0,0,0,.487l.732.731a.342.342,0,0,0,.244.1.344.344,0,0,0,.243-.1l2.276-2.277,2.678,2.678-2.276,2.276a.341.341,0,0,0-.1.243.342.342,0,0,0,.1.243l.73.73a.341.341,0,0,0,.243.1.344.344,0,0,0,.243-.1l2.276-2.276,1.461,1.461a1.026,1.026,0,0,1,.3.73,1.027,1.027,0,0,1-.3.73l-4.139,4.139a1.027,1.027,0,0,1-.731.3,1.026,1.026,0,0,1-.731-.3Zm-17.149-17.151-10.121-10.121a1.025,1.025,0,0,1-.3-.73,1.024,1.024,0,0,1,.3-.73l4.139-4.139a1.025,1.025,0,0,1,.73-.3,1.025,1.025,0,0,1,.73.3l1.217,1.217-2.276,2.277a.344.344,0,0,0,0,.487l.73.73a.342.342,0,0,0,.243.1.344.344,0,0,0,.243-.1l2.276-2.276,2.678,2.678-2.276,2.277a.342.342,0,0,0-.1.244.342.342,0,0,0,.1.243l.73.73a.342.342,0,0,0,.243.1.344.344,0,0,0,.243-.1l2.276-2.276,2.678,2.678-2.276,2.277a.345.345,0,0,0-.1.244.345.345,0,0,0,.1.244l.73.73a.345.345,0,0,0,.182.1l-3.124,3.124h0Zm19.693-8.01-4.8-4.8a.539.539,0,0,1,.023-.761l1.958-1.958a2.694,2.694,0,0,1,3.8-.114l1.845,1.845a2.693,2.693,0,0,1-.113,3.8l-1.958,1.959a.569.569,0,0,1-.4.169.5.5,0,0,1-.363-.149Z" transform="translate(1012.667 548.953)" fill="#fff"/></g><path d="M18.514-39.412V-66.173h9.4v-5.581H2.344v5.581h9.378v26.761Zm11.694,0h6.567V-63.438H30.208Zm3.283-26.671A3.413,3.413,0,0,0,37-69.467a3.4,3.4,0,0,0-3.508-3.384,3.4,3.4,0,0,0-3.508,3.384A3.413,3.413,0,0,0,33.491-66.083Z" transform="translate(84.6 161.012)" fill="#fff"/></g></svg>