<?xml version="1.0" standalone="no"?>
<!DOCTYPE svg PUBLIC "-//W3C//DTD SVG 1.1//EN" "http://www.w3.org/Graphics/SVG/1.1/DTD/svg11.dtd" >
<svg xmlns="http://www.w3.org/2000/svg">
<metadata>Generated by IcoMoon</metadata>
<defs>
<font id="Timos-Icons" horiz-adv-x="1024">
<font-face units-per-em="1024" ascent="960" descent="-64" />
<missing-glyph horiz-adv-x="1024" />
<glyph unicode="&#x20;" horiz-adv-x="512" d="" />
<glyph unicode="&#xe900;" d="M757.76-53.76c-33.932 0-61.44 27.508-61.44 61.44v0 409.6c0 33.932 27.508 61.44 61.44 61.44v0h61.44c33.932 0 61.44-27.508 61.44-61.44v0-409.6c0-33.932-27.508-61.44-61.44-61.44v0zM491.52-53.76c-33.932 0-61.44 27.508-61.44 61.44v0 849.92c0 33.932 27.508 61.44 61.44 61.44v0h61.44c33.932 0 61.44-27.508 61.44-61.44v0-849.92c0-33.932-27.508-61.44-61.44-61.44v0zM225.28-53.76c-33.932 0-61.44 27.508-61.44 61.44v0 583.68c0 33.932 27.508 61.44 61.44 61.44v0h61.44c33.932 0 61.44-27.508 61.44-61.44v0-583.68c0-33.932-27.508-61.44-61.44-61.44v0z" />
<glyph unicode="&#xe901;" d="M40.96-64c-22.622 0-40.96 18.338-40.96 40.96v0 942.080c0 22.622 18.338 40.96 40.96 40.96v0c22.622 0 40.96-18.338 40.96-40.96v0-901.12h901.12c22.622 0 40.96-18.338 40.96-40.96v0c0-22.622-18.338-40.96-40.96-40.96v0z" />
<glyph unicode="&#xe902;" d="M512-64c-0.299-0.001-0.652-0.001-1.005-0.001-71.618 0-139.78 14.798-201.595 41.502l3.299-1.268c-6.871 2.908-13.752 6.001-20.48 9.216l103.014 178.422c34.372-14.591 74.347-23.071 116.303-23.071 0.163 0 0.326 0 0.489 0h-0.025c0.214-0.001 0.468-0.001 0.723-0.001 98.426 0 185.977 46.56 241.83 118.856l0.525 0.707 178.493-103.055c-18.531-26.591-38.1-49.904-59.544-71.34l-0.002-0.002c-45.459-45.578-99.473-82.598-159.432-108.451l-3.312-1.271c-58.521-25.443-126.69-40.244-198.316-40.244-0.339 0-0.678 0-1.017 0.001h0.052zM221.297 26.419v0c-26.588 18.53-49.897 38.098-71.329 59.543l-0.003 0.003c-45.577 45.46-82.597 99.474-108.451 159.432l-1.271 3.312c-20.197 46.377-33.963 100.152-38.528 156.527l-0.118 1.804h205.916c11.291-82.762 54.293-153.778 116.144-201.593l0.705-0.524-103.055-178.493zM974.561 228.239v0l-178.412 103.025c14.578 34.359 23.051 74.319 23.051 116.257 0 0.168 0 0.337 0 0.505v-0.026c-0.39 155.078-115.298 283.199-264.607 304.287l-1.633 0.189v205.916c58.176-4.67 111.953-18.43 161.623-39.892l-3.293 1.266c63.271-27.123 117.285-64.143 162.733-109.71l0.011-0.011c45.577-45.46 82.596-99.474 108.451-159.432l1.271-3.312c25.443-58.522 40.244-126.692 40.244-198.318 0-0.346 0-0.692-0.001-1.038v0.054c0.001-0.295 0.001-0.644 0.001-0.993 0-71.622-14.798-139.788-41.503-201.608l1.269 3.299c-2.908-6.861-5.99-13.752-9.216-20.48zM207.514 488.96h-205.916c4.675 58.181 18.438 111.96 39.902 161.634l-1.267-3.293c2.898 6.851 5.99 13.742 9.216 20.48l178.422-103.014c-9.35-21.982-16.47-47.533-20.146-74.183l-0.18-1.593zM268.954 635.638v0l-178.493 103.055c18.53 26.592 38.098 49.905 59.543 71.34l0.002 0.002c45.449 45.577 99.448 82.599 159.392 108.46l3.311 1.271c46.378 20.195 100.155 33.955 156.532 38.508l1.799 0.117v-205.916c-82.759-11.285-153.775-54.281-201.593-116.124l-0.524-0.705z" />
<glyph unicode="&#xe903;" d="M221.297 26.409v0c-26.589 18.524-49.899 38.089-71.329 59.533l-0.002 0.002c-45.578 45.46-82.598 99.474-108.451 159.433l-1.271 3.311c-20.199 46.38-33.969 100.158-38.538 156.536l-0.118 1.805h205.916c11.287-82.763 54.291-153.78 116.143-201.593l0.706-0.524-103.055-178.493zM974.561 228.229v0l-178.412 103.004c14.578 34.36 23.051 74.32 23.051 116.259 0 0.168 0 0.335 0 0.503v-0.026c-0.39 155.078-115.298 283.199-264.607 304.287l-1.633 0.189v205.947c58.176-4.667 111.952-18.427 161.622-39.891l-3.291 1.266c63.271-27.128 117.285-64.151 162.733-109.721l0.011-0.011c45.579-45.459 82.599-99.473 108.451-159.432l1.271-3.312c25.436-58.514 40.234-126.674 40.234-198.29 0-0.352 0-0.704-0.001-1.055v0.054c0.001-0.296 0.001-0.646 0.001-0.997 0-71.621-14.798-139.785-41.502-201.603l1.268 3.299c-2.918-6.912-6.011-13.793-9.216-20.48zM268.913 635.638v0l-178.493 103.055c18.532 26.591 38.1 49.904 59.544 71.34l0.002 0.002c45.459 45.578 99.473 82.598 159.433 108.451l3.312 1.271c46.375 20.197 100.147 33.961 156.521 38.518l1.8 0.117v-205.916c-82.759-11.286-153.774-54.282-201.593-116.124l-0.524-0.705z" />
<glyph unicode="&#xe904;" glyph-name="chart-empty" d="M40.96-64c-22.622 0-40.96 18.338-40.96 40.96v0 942.080c0 22.622 18.338 40.96 40.96 40.96v0c22.622 0 40.96-18.338 40.96-40.96v0-901.12h901.12c22.622 0 40.96-18.338 40.96-40.96v0c0-22.622-18.338-40.96-40.96-40.96v0z" />
<glyph unicode="&#xe905;" d="M639.314 306.309c-2.59 4.408-4.119 9.708-4.119 15.366 0 11.32 6.123 21.21 15.238 26.539l0.145 0.079 97.546 56.32c4.408 2.59 9.708 4.119 15.366 4.119 11.32 0 21.21-6.123 26.539-15.238l0.079-0.145c2.59-4.408 4.119-9.708 4.119-15.366 0-11.32-6.123-21.21-15.238-26.539l-0.145-0.079-97.556-56.32c-4.386-2.575-9.661-4.096-15.29-4.096-0.024 0-0.049 0-0.073 0h0.004c-0.003 0-0.006 0-0.009 0-11.311 0-21.194 6.113-26.526 15.215l-0.078 0.145zM478.546 315.197l-114.207 131.379c-4.669 5.359-7.516 12.413-7.516 20.132 0 9.247 4.086 17.541 10.551 23.172l0.037 0.031c5.36 4.672 12.416 7.521 20.138 7.521 9.25 0 17.545-4.088 23.177-10.556l0.032-0.037 114.207-131.369c4.672-5.36 7.521-12.416 7.521-20.138 0-9.25-4.088-17.545-10.556-23.177l-0.037-0.032c-5.345-4.681-12.392-7.537-20.106-7.537-0.009 0-0.018 0-0.027 0h0.001c-9.248 0.012-17.537 4.108-23.162 10.581l-0.032 0.038zM27.433 376.269c-2.59 4.408-4.119 9.708-4.119 15.366 0 11.32 6.123 21.21 15.238 26.539l0.145 0.079 177.367 102.4c4.408 2.59 9.708 4.119 15.366 4.119 11.32 0 21.21-6.123 26.539-15.238l0.079-0.145c2.59-4.408 4.119-9.708 4.119-15.366 0-11.32-6.123-21.21-15.238-26.539l-0.145-0.079-177.357-102.4c-4.385-2.575-9.659-4.096-15.288-4.096-0.025 0-0.051 0-0.076 0h0.004c-0.009 0-0.019 0-0.030 0-11.311 0-21.194 6.113-26.526 15.215l-0.078 0.145zM878.828 485.652c-13.216 3.628-22.765 15.535-22.765 29.672 0 2.827 0.382 5.565 1.097 8.165l-0.051-0.216 90.112 336.302c3.609 13.244 15.53 22.821 29.687 22.821 2.833 0 5.576-0.383 8.181-1.101l-0.216 0.051c13.217-3.627 22.768-15.535 22.768-29.673 0-2.831-0.383-5.572-1.1-8.175l0.051 0.216-90.112-336.292c-3.625-13.22-15.534-22.774-29.674-22.774-0.008 0-0.015 0-0.023 0h0.001c-2.831 0.003-5.571 0.388-8.173 1.106l0.216-0.051z" />
<glyph unicode="&#xe906;" d="M40.96-64c-22.622 0-40.96 18.338-40.96 40.96v0 942.080c0 22.622 18.338 40.96 40.96 40.96v0c22.622 0 40.96-18.338 40.96-40.96v0-901.12h901.12c22.622 0 40.96-18.338 40.96-40.96v0c0-22.622-18.338-40.96-40.96-40.96v0zM532.48 263.68c0 22.622 18.338 40.96 40.96 40.96v0c22.622 0 40.96-18.338 40.96-40.96v0c0-22.622-18.338-40.96-40.96-40.96v0c-22.622 0-40.96 18.338-40.96 40.96v0zM808.96 427.52c0 22.622 18.338 40.96 40.96 40.96v0c22.622 0 40.96-18.338 40.96-40.96v0c0-22.622-18.338-40.96-40.96-40.96v0c-22.622 0-40.96 18.338-40.96 40.96v0zM276.48 540.16c0 22.622 18.338 40.96 40.96 40.96v0c22.622 0 40.96-18.338 40.96-40.96v0c0-22.622-18.338-40.96-40.96-40.96v0c-22.622 0-40.96 18.338-40.96 40.96v0z" />
<glyph unicode="&#xe907;" d="M221.297 26.399v0c-26.582 18.532-49.888 38.097-71.32 59.534l-0.001 0.001c-45.579 45.459-82.599 99.473-108.451 159.432l-1.271 3.312c-20.205 46.383-33.975 100.165-38.539 156.549l-0.117 1.803h439.46l-219.75-380.621zM974.572 228.229l-421.612 243.415v486.748c58.176-4.667 111.953-18.427 161.622-39.891l-3.291 1.266c63.276-27.124 117.293-64.148 162.743-109.72l0.011-0.011c45.578-45.46 82.598-99.473 108.451-159.432l1.271-3.312c25.436-58.517 40.234-126.681 40.234-198.3 0-0.348 0-0.697-0.001-1.045v0.054c0.001-0.294 0.001-0.641 0.001-0.989 0-71.624-14.798-139.791-41.502-201.612l1.269 3.299c-2.826-6.687-5.908-13.568-9.216-20.48z" />
<glyph unicode="&#xe908;" d="M312.709-23.767c-6.861 2.898-13.752 5.99-20.48 9.216l234.772 406.63 406.579-234.752c-18.527-26.593-38.096-49.906-59.543-71.34l-0.003-0.003c-45.458-45.581-99.472-82.602-159.433-108.451l-3.311-1.27c-58.516-25.436-126.678-40.234-198.296-40.234-0.35 0-0.699 0-1.049 0.001h0.054c-0.316-0.001-0.691-0.001-1.065-0.001-71.591 0-139.729 14.786-201.525 41.472l3.3-1.268zM471.040 488.96h-469.432c4.673 58.181 18.436 111.96 39.902 161.634l-1.267-3.293c27.123 63.272 64.143 117.286 109.711 162.734l0.011 0.011c45.459 45.578 99.473 82.598 159.432 108.451l3.312 1.271c46.378 20.195 100.155 33.955 156.532 38.508l1.799 0.117v-469.443z" />
<glyph unicode="&#xe909;" d="M512-64c-0.294-0.001-0.643-0.001-0.991-0.001-71.619 0-139.782 14.798-201.599 41.502l3.299-1.268c-63.271 27.125-117.284 64.145-162.734 109.711l-0.011 0.011c-45.576 45.46-82.596 99.474-108.45 159.432l-1.271 3.313c-25.443 58.526-40.244 126.7-40.244 198.33 0 0.342 0 0.683 0.001 1.025v-0.054c-0.001 0.293-0.001 0.641-0.001 0.989 0 71.62 14.798 139.783 41.502 201.6l-1.268-3.298c27.125 63.27 64.145 117.284 109.711 162.733l0.011 0.011c45.463 45.582 99.48 82.605 159.443 108.461l3.312 1.271c58.518 25.436 126.682 40.234 198.302 40.234 0.348 0 0.695 0 1.042-0.001h-0.053c0.295 0.001 0.644 0.001 0.993 0.001 71.619 0 139.781-14.798 201.597-41.503l-3.299 1.269c63.271-27.125 117.285-64.145 162.734-109.711l0.010-0.010c45.577-45.46 82.597-99.474 108.451-159.433l1.271-3.312c25.443-58.525 40.244-126.697 40.244-198.326 0-0.343 0-0.686-0.001-1.028v0.053c0.001-0.296 0.001-0.645 0.001-0.995 0-71.621-14.798-139.787-41.502-201.605l1.269 3.299c-27.125-63.271-64.145-117.284-109.711-162.734l-0.011-0.011c-45.46-45.577-99.474-82.597-159.432-108.451l-3.312-1.271c-58.517-25.436-126.679-40.234-198.298-40.234-0.353 0-0.706 0-1.058 0.001h0.055zM512 755.2c-169.582-0.198-307.002-137.618-307.2-307.181v-0.019c0.204-169.58 137.62-306.996 307.18-307.2h0.020c169.582 0.198 307.002 137.618 307.2 307.181v0.019c-0.198 169.582-137.618 307.002-307.181 307.2h-0.019z" />
<glyph unicode="&#xe90a;" d="M312.699-23.767c-63.269 27.128-117.283 64.147-162.734 109.711l-0.010 0.010c-45.575 45.462-82.594 99.475-108.451 159.432l-1.271 3.312c-1.772 4.178-3.512 8.335-4.936 12.626-0.44 1.024-0.87 2.109-1.28 3.174-4.307 10.889-6.803 23.504-6.803 36.702 0 43.358 26.948 80.423 65.008 95.358l0.696 0.24c10.887 4.304 23.499 6.8 36.693 6.8 43.357 0 80.42-26.946 95.357-65.005l0.24-0.696q1.608-4.178 2.826-8.407l0.492 0.133c47.461-111.829 156.342-188.836 283.209-188.836 0.097 0 0.194 0 0.291 0h-0.015c169.582 0.198 307.002 137.618 307.2 307.181v0.019c-0.385 155.080-115.296 283.204-264.608 304.287l-1.632 0.189v205.937c58.18-4.671 111.96-18.434 161.632-39.902l-3.291 1.266c63.271-27.123 117.285-64.143 162.733-109.71l0.011-0.011c45.576-45.461 82.596-99.474 108.451-159.433l1.271-3.312c25.43-58.51 40.224-126.664 40.224-198.274 0-0.357 0-0.715-0.001-1.072v0.055c0.001-0.303 0.001-0.661 0.001-1.019 0-71.612-14.794-139.769-41.492-201.582l1.269 3.3c-27.131-63.275-64.157-117.292-109.731-162.744l-0.011-0.011c-45.462-45.577-99.475-82.599-159.432-108.46l-3.313-1.272c-58.53-25.436-126.707-40.234-198.339-40.234-0.338 0-0.676 0-1.015 0.001h0.053c-0.279-0.001-0.61-0.001-0.94-0.001-71.638 0-139.818 14.801-201.651 41.513l3.3-1.269z" />
<glyph unicode="&#xe90b;" d="M261.632 556.452l-76.186-274.145h-79.237l-106.209 401.213h87.040l63.109-290.55h2.222l75.069 290.55h70.902l75.069-290.55h2.222l63.396 290.55h87.040l-106.496-401.203h-79.258l-76.186 274.145zM655.053 282.307h-83.968v401.213h83.968zM721.777 683.51h163.205c1.717 0.077 3.731 0.121 5.755 0.121 36.765 0 70.156-14.449 94.804-37.978l-0.054 0.051c23.879-24.074 38.635-57.228 38.635-93.828 0-2.006-0.044-4.002-0.132-5.987l0.010 0.282c0.067-1.566 0.105-3.402 0.105-5.248 0-36.926-15.263-70.288-39.824-94.12l-0.033-0.032c-25.511-23.6-59.763-38.076-97.397-38.076-2.12 0-4.229 0.046-6.327 0.137l0.299-0.010h-75.080v-126.505h-83.968zM805.745 617.062v-142.623h56.719c1.47-0.097 3.188-0.153 4.918-0.153 19.591 0 37.523 7.102 51.361 18.873l-0.113-0.094c12.449 12.421 20.151 29.596 20.151 48.57 0 1.498-0.048 2.985-0.143 4.459l0.010-0.201c0.086 1.284 0.135 2.784 0.135 4.295 0 18.909-7.671 36.026-20.072 48.409l-0.001 0.001c-13.671 11.562-31.499 18.59-50.969 18.59-1.76 0-3.507-0.057-5.239-0.171l0.236 0.012z" />
<glyph unicode="&#xe90c;" d="M15.36 243.2h993.28c8.483 0 15.36-6.877 15.36-15.36s-6.877-15.36-15.36-15.36v0h-993.28c-8.483 0-15.36 6.877-15.36 15.36s6.877 15.36 15.36 15.36v0z" />
<glyph unicode="&#xe90d;" glyph-name="chart-radar" d="M512.010-64h-5.12c-70.247 0.582-136.9 15.315-197.458 41.481l3.297-1.268c-63.272 27.121-117.287 64.141-162.733 109.711l-0.011 0.011c-45.573 45.465-82.595 99.477-108.46 159.431l-1.272 3.313c-25.443 58.533-40.244 126.713-40.244 198.351 0 0.341 0 0.683 0.001 1.024v-0.053c-0.001 0.304-0.001 0.663-0.001 1.022 0 71.61 14.79 139.766 41.482 201.58l-1.269-3.301c27.137 63.267 64.159 117.28 109.722 162.734l0.010 0.010c45.46 45.577 99.473 82.597 159.432 108.45l3.313 1.271c57.269 24.908 123.932 39.648 193.971 40.232l0.221 0.001h10.24c70.247-0.583 136.899-15.316 197.458-41.48l-3.297 1.268c63.274-27.124 117.292-64.144 162.744-109.711l0.010-0.010c45.573-45.465 82.595-99.477 108.46-159.431l1.272-3.313c25.436-58.538 40.234-126.724 40.234-198.366 0-0.336 0-0.672-0.001-1.007v0.052c0.001-0.283 0.001-0.618 0.001-0.953 0-71.635-14.794-139.815-41.493-201.651l1.269 3.303c-27.137-63.267-64.159-117.28-109.722-162.734l-0.010-0.010c-45.461-45.58-99.479-82.601-159.443-108.451l-3.312-1.27c-57.263-24.904-123.919-39.644-193.949-40.232l-0.221-0.001zM801.628 158.372c-36.367-36.459-79.572-66.077-127.531-86.77l-2.65-1.018c-45.501-19.792-98.453-31.569-154.085-32.182l-0.232-0.002v-92.16c180.924 2.012 338.656 99.417 425.475 244.208l1.267 2.279-79.657 45.988c-18.328-30.478-39.032-56.832-62.581-80.337l-0.006-0.006zM80.138 192.758c88.074-147.090 245.816-244.512 426.464-246.515l0.288-0.003v92.16c-55.86 0.597-108.814 12.365-156.952 33.167l2.636-1.014c-50.612 21.701-93.819 51.32-130.171 87.777l-0.010 0.010c-23.564 23.515-44.272 49.876-61.569 78.527l-1.028 1.836zM729.221 230.779c-27.276-27.345-59.68-49.56-95.65-65.080l-1.988-0.763c-33.734-14.682-72.981-23.497-114.212-24.133l-0.241-0.003v-92.16c143.232 1.975 268.039 79.014 337.069 193.481l1.004 1.795-79.688 46.008c-13.613-22.415-28.92-41.81-46.289-59.14l-0.006-0.006zM168.796 243.948c70.030-116.283 194.849-193.335 337.811-195.304l0.283-0.003v92.16c-41.472 0.631-80.723 9.435-116.442 24.866l1.979-0.761c-37.956 16.28-70.358 38.495-97.621 65.836l-0.007 0.007c-17.378 17.343-32.686 36.748-45.528 57.822l-0.767 1.355zM517.12 243.261v-92.16c105.531 1.944 197.406 58.615 248.643 142.754l0.742 1.312-0.317 0.184-160.768-29.696c-25.656-13.436-55.933-21.626-88.049-22.38l-0.241-0.004zM257.475 295.148c51.981-85.47 143.868-142.157 249.136-144.103l0.28-0.004v92.16c-54.701 1.259-103.874 23.926-139.664 59.915l-0.009 0.009c-11.188 11.17-21.098 23.613-29.496 37.096l-0.507 0.874zM869.335 648.428c6.339-10.977 13.058-24.434 19.041-38.283l1.029-2.677c20.361-46.822 32.206-101.364 32.206-158.672 0-0.28 0-0.559-0.001-0.839v0.043c0-0.225 0.001-0.492 0.001-0.759 0-57.31-11.845-111.854-33.22-161.316l1.015 2.638c-7.020-16.531-13.743-29.987-21.151-43.003l1.070 2.043 79.667-45.988c40.743 70.671 64.779 155.423 64.779 245.789 0 0.209 0 0.419 0 0.628v-0.032c0 0.18 0 0.394 0 0.608 0 90.364-24.032 175.116-66.053 248.212l1.285-2.424zM10.25 448c0-0.191 0-0.416 0-0.642 0-90.352 24.028-175.091 66.043-248.178l-1.285 2.424 79.647 45.988c-6.355 10.998-13.072 24.455-19.043 38.309l-1.017 2.651c-20.348 46.813-32.185 101.341-32.185 158.634 0 0.286 0 0.572 0.001 0.858v-0.045c-0.001 0.243-0.001 0.53-0.001 0.817 0 57.288 11.837 111.812 33.2 161.258l-1.015-2.638c6.984 16.5 13.701 29.958 21.113 42.967l-1.053-2.007-79.657 45.988c-40.724-70.664-64.748-155.403-64.748-245.754 0-0.222 0-0.443 0-0.665v0.034zM819.21 448c0-0.15 0-0.327 0-0.505 0-43.003-8.885-83.931-24.918-121.049l0.762 1.981c-5.090-12.006-9.921-21.733-15.231-31.153l0.803 1.549 79.708-46.019c32.104 56.026 51.036 123.158 51.036 194.711 0 0.17 0 0.34 0 0.51v-0.026c0 0.14 0 0.306 0 0.472 0 71.186-18.738 137.996-51.551 195.766l1.027-1.965-42.66-168.96q1.024-12.585 1.024-25.313zM112.65 448c0-0.147 0-0.322 0-0.496 0-71.548 18.929-138.675 52.051-196.646l-1.025 1.947 79.698 46.019c-4.521 7.893-9.345 17.62-13.65 27.623l-0.758 1.98c-15.272 35.125-24.157 76.040-24.157 119.030 0 0.191 0 0.381 0.001 0.572v-0.030c0 0.164 0 0.358 0 0.552 0 42.99 8.885 83.906 24.918 121.010l-0.761-1.979c5.058 11.979 9.883 21.706 15.195 31.122l-0.787-1.518-79.698 46.019c-32.098-56.024-51.026-123.151-51.026-194.698 0-0.178 0-0.356 0-0.534v0.027zM346.122 346.348c33.912-54.648 92.871-90.955 160.438-92.83l0.269-0.006v4.69l-64.512 114.79c-6.154 5.715-11.56 12.096-16.143 19.066l-0.241 0.39zM215.050 448c0-0.106 0-0.232 0-0.358 0-52.742 13.829-102.254 38.059-145.107l-0.765 1.471 79.698 46.019c-15.631 28.156-24.833 61.748-24.833 97.488 0 0.172 0 0.343 0.001 0.515v-0.027c0 0.101 0 0.22 0 0.339 0 25.978 4.835 50.826 13.654 73.694l-0.475-1.4c-23.685 26.778-45.517 51.415-58.296 65.741l-9.748 5.622c-23.465-41.377-37.294-90.882-37.294-143.618 0-0.133 0-0.265 0-0.398v0.021zM779.018 318.147c17.135 34.285 27.902 74.462 29.676 116.962l0.020 0.594zM317.45 448c0-0.1 0-0.219 0-0.338 0-33.896 8.727-65.753 24.056-93.449l-0.504 0.992 79.872 46.080c-1.596 2.996-3.254 6.676-4.693 10.463l-0.233 0.698c-17.951 20.337-53.934 61.092-87.777 99.328-6.794-18.942-10.721-40.797-10.721-63.568 0-0.073 0-0.145 0-0.218v0.012zM168.806 652.063l79.688-46.008c13.608 22.425 28.916 41.827 46.289 59.161l0.006 0.006q6.318 6.328 12.954 12.288l117.76 160.461c-109.786-25.163-200.48-92.719-255.7-184.112l-1.006-1.795zM671.457 825.416c50.608-21.708 93.813-51.323 130.173-87.769l0.008-0.008c23.555-23.517 44.259-49.877 61.557-78.525l1.030-1.838 79.647 45.988c-87.846 146.692-244.966 243.973-424.997 246.493l-0.362 0.004 134.656-117.094q9.206-3.41 18.278-7.25zM80.148 703.252l79.636-45.978c18.323 30.489 39.031 56.85 62.59 80.356l0.008 0.008c36.362 36.463 79.569 66.080 127.532 86.761l2.649 1.016c23.426 10.252 50.896 18.863 79.44 24.482l2.572 0.422 72.305 98.54v0.901c-180.932-2.001-338.671-99.42-425.475-244.228l-1.267-2.279zM848.65 662.671c-41.824 64.671-99.901 115.591-168.54 147.689l-2.468 1.037zM250.419 297.124l261.448-151.255 172.933 202.988 89.283 250.399-261.97 150.948-350.669-99.84z" />
<glyph unicode="&#xe90e;" d="M267.53 200.253h594.483c-8.001-21.034-13.206-45.356-14.467-70.717l-0.022-0.564c0.45-22.194 5.748-43.046 14.873-61.683l-0.384 0.867h-594.483z" />
<glyph unicode="&#xe90f;" d="M897.352-64.010h-692.552c-56.528 0.064-102.336 45.872-102.4 102.394v756.435c0 0.133-0.001 0.291-0.001 0.449 0 45.465 18.489 86.612 48.357 116.332l0.007 0.007c29.717 29.881 70.858 48.374 116.319 48.374 0.147 0 0.293 0 0.44-0.001h610.977c27.35-0.035 49.512-22.2 49.541-49.549v-660.647c-0.029-27.349-22.192-49.512-49.538-49.541h-571.303c-21.971-0.921-39.455-18.871-39.629-40.943v-50.193c0-22.622 18.338-40.96 40.96-40.96v0h619.581v-101.376c0-0.018 0-0.040 0-0.061 0-16.966-13.754-30.72-30.72-30.72-0.014 0-0.029 0-0.043 0h0.002zM475.709 718.418c0.059 0.001 0.128 0.001 0.197 0.001 4.004 0 7.632-1.612 10.27-4.221l-0.001 0.001c2.659-2.376 4.338-5.8 4.383-9.618v-0.008c-0.513-7.324-1.711-14.128-3.541-20.668l0.172 0.721-50.964-202.424c-7.619-30.505-17.623-51.077-29.696-61.164-13.608-8.977-29.954-14.929-47.557-16.528l-0.407-0.030-4.096-17.92c20.146 4.837 43.305 7.667 67.107 7.782h0.078c15.763-0.286 30.953-1.505 45.858-3.607l-1.97 0.228c14.962-1.961 32.731-3.299 50.729-3.707l0.583-0.010c16.062 0.498 31.332 3.056 45.818 7.421l-1.254-0.324 4.096 18.924c-15.733-5.694-33.894-9.134-52.813-9.46l-0.148-0.002c-16.461 0.37-32.215 2.682-47.265 6.717l1.389-0.317c5.581 17.203 10.691 34.918 15.176 52.664l27.177 105.175c11.561-0.676 19.825-1.024 25.252-1.024 0.861-0.012 1.878-0.018 2.896-0.018 33.513 0 65.34 7.224 94.007 20.199l-1.435-0.581c26.5 11.38 48.457 29.014 64.702 51.108l0.302 0.43c13.338 18.003 21.535 40.523 22.055 64.932l0.002 0.123c-0.030 18.163-5.916 34.946-15.871 48.567l0.163-0.234c-11.97 15.811-28.023 27.946-46.602 34.918l-0.717 0.236c-22.033 8.202-47.489 12.948-74.053 12.948-2.406 0-4.804-0.039-7.191-0.116l0.348 0.009c-86.108 0-155.648-27.976-206.848-83.139-35.786-35.909-58.131-85.232-58.838-139.774l-0.001-0.135c-0.056-1.372-0.088-2.982-0.088-4.599 0-23.995 6.994-46.356 19.055-65.156l-0.289 0.482c12.38-18.166 25.405-27.382 38.697-27.382 0.066-0.001 0.143-0.001 0.22-0.001 4.917 0 9.382 1.931 12.679 5.077l-0.007-0.007c3.346 3.033 5.439 7.395 5.439 12.247 0 0.090-0.001 0.18-0.002 0.27v-0.014c0 7.629-5.571 15.585-16.558 23.654-11.433 8.121-20.748 18.459-27.469 30.448l-0.24 0.466c-4.926 10.292-7.804 22.372-7.804 35.123 0 0.662 0.008 1.323 0.023 1.982l-0.002-0.098c1.022 33.057 12.072 63.346 30.191 88.141l-0.311-0.446c21.769 30.942 50.329 55.686 83.616 72.402l1.294 0.589c32.545 17.71 71.22 28.247 112.329 28.559l0.096 0.001c33.382 0 58.542-6.707 74.752-19.937 15.014-12.26 24.524-30.772 24.524-51.504 0-0.905-0.018-1.806-0.054-2.702l0.004 0.129c-0.024-24.021-7.547-46.28-20.353-64.568l0.241 0.364c-11.247-17.737-26.697-31.88-44.992-41.262l-0.648-0.302c-12.742-6.458-27.717-10.431-43.573-10.892l-0.152-0.003c-1.137 0-2.294 0-3.43 0.082l-31.099 1.69 25.549 95.171c6.441 25.436 12.503 46.305 18.033 62.013-23.866-6.003-52.463-10.797-81.69-13.4l-2.196-0.158-4.096-15.206c2.004 0.367 4.354 0.613 6.749 0.684l0.071 0.002z" />
<glyph unicode="&#xe910;" d="M267.53 200.253h594.483c-8.001-21.034-13.206-45.356-14.467-70.717l-0.022-0.564c0.45-22.194 5.748-43.046 14.873-61.683l-0.384 0.867h-594.483z" />
<glyph unicode="&#xe911;" d="M897.352-64h-692.562c-56.528 0.064-102.336 45.872-102.4 102.394v756.445c0 0.003 0 0.007 0 0.010 0 91.207 73.935 165.145 165.14 165.151h611.052c27.35-0.035 49.512-22.2 49.541-49.549v-660.647c-0.029-27.349-22.192-49.512-49.538-49.541h-571.395c-21.975-0.916-39.465-18.867-39.639-40.943v-50.193c0-22.622 18.338-40.96 40.96-40.96v0h619.561v-101.448c0-16.966-13.754-30.72-30.72-30.72v0zM502.774 417.454c0.145 0.001 0.317 0.001 0.489 0.001 14.351 0 28.182-2.224 41.167-6.347l-0.963 0.264c9.537-3.064 17.471-6.274 25.122-9.974l-1.15 0.502c8.438-3.942 20.982-10.947 37.294-20.808 12.615-7.968 27.227-15.521 42.49-21.819l1.941-0.709c8.277-3.127 17.845-4.937 27.836-4.937 0.654 0 1.306 0.008 1.957 0.023l-0.097-0.002c0.12-0.001 0.263-0.002 0.405-0.002 12.196 0 23.387 4.306 32.134 11.48l-0.089-0.071c4.243 3.639 7.762 7.978 10.408 12.858l0.118 0.238c2.287 3.862 3.731 8.466 3.97 13.387l0.003 0.068c0.017 0.329 0.027 0.715 0.027 1.103 0 2.837-0.524 5.552-1.482 8.053l0.052-0.154c-1.654 5.892-6.831 10.198-13.062 10.525l-0.035 0.001c-2.543-6.287-6.739-11.462-12.054-15.134l-0.111-0.073c0.614 3.165 0.965 6.804 0.965 10.526 0 0.577-0.008 1.151-0.025 1.724l0.002-0.084c-0.694 5.716-3.437 10.688-7.461 14.243l-0.024 0.021c-3.047 2.96-6.961 5.041-11.326 5.827l-0.133 0.020c-1.249-4.978-3.756-9.257-7.165-12.623l-0.003-0.003c-3.733-3.71-8.581-6.301-13.997-7.228l-0.155-0.022c0.446 1.883 0.701 4.046 0.701 6.268 0 0.18-0.002 0.359-0.005 0.538v-0.027c-0.252 3.23-1.831 6.049-4.187 7.939l-0.022 0.017c-2.632 2.513-5.844 4.442-9.413 5.565l-0.171 0.046c-6.031-8.17-15.623-13.411-26.44-13.411-0.897 0-1.786 0.036-2.665 0.107l0.116-0.007c-6.257 1.987-13.179 4.424-20.582 7.25l-14.971 5.386c-5.007 1.72-9.81 3.215-14.264 4.444 28.131 9.58 51.159 27.992 66.349 51.877l0.303 0.511c7.859 12.078 14.525 25.982 19.293 40.739l0.348 1.245c4.877 15.036 8.662 32.72 10.645 50.944l0.107 1.208c0.394 16.718 9.729 31.168 23.392 38.793l0.231 0.119c-14.003 7.076-23.511 21.215-23.848 37.608l-0.001 0.045c-4.813 44.698-21.176 79.944-48.64 104.776-25.318 22.411-58.811 36.096-95.501 36.096-1.706 0-3.405-0.030-5.097-0.088l0.245 0.007c-0.765 0.015-1.668 0.023-2.572 0.023-38.024 0-72.594-14.786-98.274-38.923l0.075 0.070c-13.257-12.467-24.236-27.173-32.368-43.542l-0.4-0.89c-8.162-16.209-13.976-35.056-16.394-54.951l-0.082-0.827c-2.406-19.794-10.465-33.055-23.972-39.404 6.847-3.313 12.388-8.407 16.156-14.687l0.095-0.171c4.461-8.895 7.363-19.294 8.057-30.293l0.012-0.233c1.943-16.048 5.387-30.594 10.257-44.47l-0.447 1.462c14.899-45.312 41.882-76.708 80.21-93.317-22.651-6.984-34.14-20.818-34.14-41.155 0.031-8.146 3.529-15.468 9.093-20.574l0.021-0.019c5.857-5.892 13.957-9.55 22.911-9.585h0.007c1.083 15.102 6.769 28.699 15.646 39.593l-0.101-0.128c7.838 8.146 18.832 13.206 31.009 13.206 0.785 0 1.564-0.021 2.338-0.062l-0.108 0.005zM515.635 455.813c-0.17-0.002-0.371-0.003-0.572-0.003-7.079 0-13.878 1.197-20.206 3.4l0.431-0.131c-20.941 7.168-31.57 23.552-31.57 48.886v69.448c-0.021 0.499-0.033 1.084-0.033 1.673 0 17.349 10.495 32.247 25.482 38.691l0.274 0.105c-15.129 5.499-25.74 19.753-25.74 36.485 0 0.41 0.006 0.82 0.019 1.227l-0.001-0.060v55.89c-0.010 0.416-0.015 0.907-0.015 1.399 0 8.062 1.462 15.782 4.136 22.91l-0.148-0.45c6.844 17.75 23.765 30.114 43.574 30.114 1.452 0 2.888-0.066 4.306-0.196l-0.182 0.013c0.401 0.012 0.873 0.018 1.347 0.018 13.135 0 25.085-5.070 34.002-13.359l-0.031 0.028c9.45-9.642 15.281-22.859 15.281-37.439 0-1.062-0.031-2.117-0.092-3.163l0.007 0.145v-55.89c0.008-0.297 0.013-0.646 0.013-0.996 0-16.647-10.361-30.875-24.987-36.585l-0.267-0.092c15.012-6.673 25.292-21.455 25.292-38.637 0-0.644-0.014-1.285-0.043-1.922l0.003 0.090v-69.448c0.070-1.014 0.111-2.198 0.111-3.39 0-13.815-5.382-26.373-14.164-35.691l0.024 0.026c-4.433-4.261-9.777-7.611-15.708-9.724l-0.308-0.096c-5.857-2.079-12.611-3.28-19.646-3.28-0.221 0-0.442 0.001-0.662 0.004h0.034zM418.806 493.455v0c-3.646 4.564-6.984 9.694-9.801 15.137l-0.245 0.52c-8.694 16.138-15.933 48.712-21.504 96.819-0.461 4.035-5.12 8.059-13.793 11.93 8.694 3.564 13.312 7.414 13.793 11.459 2.551 24.926 7.414 47.697 14.454 69.49l-0.661-2.367c3.902 10.497 9.202 19.561 15.793 27.517l-0.126-0.156c1.769-0.372 3.077-1.919 3.077-3.772 0-0.071-0.002-0.141-0.006-0.211v0.010c-0.189-3.238-0.774-6.27-1.71-9.144l0.072 0.255c-8.347-25.885-13.159-55.666-13.159-86.57 0-2.286 0.026-4.566 0.079-6.839l-0.006 0.338c0-49.818 4.168-84.603 12.39-103.424 2.491-4.679 4.232-10.139 4.895-15.926l0.020-0.212c0.001-0.042 0.002-0.090 0.002-0.139 0-2.223-1.451-4.107-3.458-4.756l-0.035-0.010zM588.339 493.455v0c2.276 7.832 3.934 16.994 4.642 26.421l0.028 0.459c0.625 5.775 1.096 12.114 1.403 18.821s0.471 15.8 0.471 26.9-0.788 24.484-2.345 39.639c-0.461 3.881-5.417 7.967-14.725 12.165 3.48 1.169 6.498 2.675 9.261 4.531l-0.137-0.087c1.75 1.262 3.28 2.646 4.645 4.18l0.025 0.029c1.722 6.508 2.71 13.979 2.71 21.681 0 2.822-0.133 5.613-0.392 8.367l0.027-0.352c0.152 3.201 0.238 6.952 0.238 10.724 0 20.181-2.476 39.784-7.142 58.522l0.35-1.661c3.121-0.507 5.846-1.928 7.96-3.977l-0.004 0.004c6.958-9.544 11.272-21.41 11.661-34.262l0.002-0.093c0.922-7.168 1.638-16.384 2.099-27.474s0.696-27.863 0.696-50.053-0.389-42.527-1.167-60.416c-1.393-32.102-8.192-50.278-20.316-54.016z" />
<glyph unicode="&#xe912;" d="M102.4 652.8h819.2c56.554 0 102.4-45.846 102.4-102.4v0-204.8c0-56.554-45.846-102.4-102.4-102.4v0h-819.2c-56.554 0-102.4 45.846-102.4 102.4v0 204.8c0 56.554 45.846 102.4 102.4 102.4v0z" />
<glyph unicode="&#xe913;" d="M102.4 243.2c-56.528 0.064-102.336 45.872-102.4 102.394v204.806c0.070 56.526 45.874 102.33 102.393 102.4h819.207c56.526-0.070 102.33-45.874 102.4-102.393v-204.807c-0.064-56.528-45.872-102.336-102.394-102.4h-0.006zM51.2 540.16v-184.32c0.041-33.916 27.524-61.399 61.436-61.44h798.724c33.918 0.035 61.405 27.522 61.44 61.437v184.323c-0.041 33.916-27.524 61.399-61.436 61.44h-798.724c-33.916-0.041-61.399-27.524-61.44-61.436v-0.004zM258.724 326.697c-5.745 14.203 0 46.305 0 46.305-92.897 1.024-166.564 19.681-166.564 107.715-3.072 40.284-0.164 71.127 22.118 89.088s57.59-4.659 54.682-13.967c-26.225-83.866 0.072-102.912 89.764-104.202 0 0-5.745 35.512 0 50.842 2.973 6.747 9.602 11.371 17.311 11.371 2.016 0 3.959-0.316 5.781-0.902l-0.134 0.037 101.786-87.9c2.951-2.56 4.807-6.317 4.807-10.506s-1.855-7.946-4.789-10.492l-0.017-0.015-101.786-87.9c-1.41-0.274-3.032-0.431-4.691-0.431-0.075 0-0.151 0-0.226 0.001h0.012c-0.409-0.033-0.886-0.052-1.367-0.052-7.446 0-13.846 4.48-16.651 10.891l-0.046 0.117z" />
<glyph unicode="&#xe914;" d="M921.6-64h-819.2c-56.528 0.064-102.336 45.872-102.4 102.394v819.206c0.064 56.528 45.872 102.336 102.394 102.4h819.206c56.528-0.064 102.336-45.872 102.4-102.394v-819.206c-0.064-56.528-45.872-102.336-102.394-102.4h-0.006zM153.6 847.36c-22.622 0-40.96-18.338-40.96-40.96v0-716.8c0-22.622 18.338-40.96 40.96-40.96v0h716.8c22.622 0 40.96 18.338 40.96 40.96v0 716.8c-0.029 22.61-18.35 40.931-40.957 40.96h-0.003z" />
<glyph unicode="&#xe915;" d="M390.399 222.194l-181.019 181.019c-19.995 19.995-19.995 52.413 0 72.408v0c19.995 19.995 52.413 19.995 72.408 0v0l144.815-144.815 325.835 325.835c19.995 19.995 52.413 19.995 72.408 0v0c19.995-19.995 19.995-52.413 0-72.408v0l-362.039-362.039c-19.995-19.995-52.413-19.995-72.408 0v0z" />
<glyph unicode="&#xe916;" glyph-name="double-arrow-down" d="M41.144 505.129c17.212 17.208 40.989 27.851 67.251 27.851s50.039-10.643 67.251-27.852l336.24-336.251 336.241 336.251c17.211 17.208 40.986 27.851 67.246 27.851s50.035-10.643 67.246-27.851v0c17.211-17.211 27.856-40.988 27.856-67.251s-10.645-50.040-27.856-67.251l-403.456-403.456c-17.211-17.211-40.988-27.856-67.251-27.856s-50.040 10.645-67.251 27.856l-403.456 403.456c-17.207 17.164-27.853 40.899-27.853 67.121 0 0.044 0 0.088 0 0.132v-0.007c0 0.058 0 0.127 0 0.197 0 26.191 10.621 49.902 27.791 67.059l0.001 0.001zM41.144 935.209c17.212 17.208 40.989 27.851 67.251 27.851s50.039-10.643 67.251-27.852l336.24-336.251 336.241 336.251c17.211 17.208 40.986 27.851 67.246 27.851s50.035-10.643 67.246-27.851v0c17.211-17.211 27.856-40.988 27.856-67.251s-10.645-50.040-27.856-67.251l-403.456-403.456c-17.211-17.211-40.988-27.856-67.251-27.856s-50.040 10.645-67.251 27.856l-403.456 403.456c-17.207 17.164-27.853 40.899-27.853 67.121 0 0.044 0 0.088 0 0.132v-0.007c0 0.058 0 0.127 0 0.197 0 26.191 10.621 49.902 27.791 67.059l0.001 0.001z" />
<glyph unicode="&#xe917;" glyph-name="double-arrow-left" d="M565.842 921.907c17.208-17.212 27.851-40.989 27.851-67.251s-10.643-50.039-27.852-67.251l-336.251-336.24 336.251-336.241c17.208-17.211 27.851-40.986 27.851-67.246s-10.643-50.035-27.851-67.246v0c-17.211-17.211-40.988-27.856-67.251-27.856s-50.040 10.645-67.251 27.856l-403.456 403.456c-17.211 17.211-27.856 40.988-27.856 67.251s10.645 50.040 27.856 67.251l403.456 403.456c17.164 17.207 40.899 27.853 67.121 27.853 0.044 0 0.088 0 0.132 0h-0.007c0.058 0 0.127 0 0.197 0 26.191 0 49.902-10.621 67.059-27.791l0.001-0.001zM995.922 921.907c17.208-17.212 27.851-40.989 27.851-67.251s-10.643-50.039-27.852-67.251l-336.251-336.24 336.251-336.241c17.208-17.211 27.851-40.986 27.851-67.246s-10.643-50.035-27.851-67.246v0c-17.211-17.211-40.988-27.856-67.251-27.856s-50.040 10.645-67.251 27.856l-403.456 403.456c-17.211 17.211-27.856 40.988-27.856 67.251s10.645 50.040 27.856 67.251l403.456 403.456c17.164 17.207 40.899 27.853 67.121 27.853 0.044 0 0.088 0 0.132 0h-0.007c0.058 0 0.127 0 0.197 0 26.191 0 49.902-10.621 67.059-27.791l0.001-0.001z" />
<glyph unicode="&#xe918;" glyph-name="double-arrow-right" d="M457.933-19.569c-17.208 17.212-27.851 40.989-27.851 67.251s10.643 50.039 27.852 67.251l336.251 336.24-336.251 336.241c-17.208 17.211-27.851 40.986-27.851 67.246s10.643 50.035 27.851 67.246v0c17.211 17.211 40.988 27.856 67.251 27.856s50.040-10.645 67.251-27.856l403.456-403.456c17.211-17.211 27.856-40.988 27.856-67.251s-10.645-50.040-27.856-67.251l-403.456-403.456c-17.164-17.207-40.899-27.853-67.121-27.853-0.044 0-0.088 0-0.132 0h0.007c-0.058 0-0.127 0-0.197 0-26.191 0-49.902 10.621-67.059 27.791l-0.001 0.001zM27.853-19.569c-17.208 17.212-27.851 40.989-27.851 67.251s10.643 50.039 27.852 67.251l336.251 336.24-336.251 336.241c-17.208 17.211-27.851 40.986-27.851 67.246s10.643 50.035 27.851 67.246v0c17.211 17.211 40.988 27.856 67.251 27.856s50.040-10.645 67.251-27.856l403.456-403.456c17.211-17.211 27.856-40.988 27.856-67.251s-10.645-50.040-27.856-67.251l-403.456-403.456c-17.164-17.207-40.899-27.853-67.121-27.853-0.044 0-0.088 0-0.132 0h0.007c-0.058 0-0.127 0-0.197 0-26.191 0-49.902 10.621-67.059 27.791l-0.001 0.001z" />
<glyph unicode="&#xe919;" glyph-name="double-arrow-up" d="M982.63 397.22c-17.212-17.208-40.989-27.851-67.251-27.851s-50.039 10.643-67.251 27.852l-336.24 336.251-336.241-336.251c-17.211-17.208-40.986-27.851-67.246-27.851s-50.035 10.643-67.246 27.851v0c-17.211 17.211-27.856 40.988-27.856 67.251s10.645 50.040 27.856 67.251l403.456 403.456c17.211 17.211 40.988 27.856 67.251 27.856s50.040-10.645 67.251-27.856l403.456-403.456c17.207-17.164 27.853-40.899 27.853-67.121 0-0.044 0-0.088 0-0.132v0.007c0-0.058 0-0.127 0-0.197 0-26.191-10.621-49.902-27.791-67.059l-0.001-0.001zM982.63-32.86c-17.212-17.208-40.989-27.851-67.251-27.851s-50.039 10.643-67.251 27.852l-336.24 336.251-336.241-336.251c-17.211-17.208-40.986-27.851-67.246-27.851s-50.035 10.643-67.246 27.851v0c-17.211 17.211-27.856 40.988-27.856 67.251s10.645 50.040 27.856 67.251l403.456 403.456c17.211 17.211 40.988 27.856 67.251 27.856s50.040-10.645 67.251-27.856l403.456-403.456c17.207-17.164 27.853-40.899 27.853-67.121 0-0.044 0-0.088 0-0.132v0.007c0-0.058 0-0.127 0-0.197 0-26.191-10.621-49.902-27.791-67.059l-0.001-0.001z" />
<glyph unicode="&#xe91a;" glyph-name="github" d="M342.508 145.828c0-4.096-4.751-7.434-10.732-7.434-6.81-0.614-11.561 2.683-11.561 7.434 0 4.096 4.751 7.434 10.732 7.434 6.185 0.625 11.561-2.683 11.561-7.434zM278.303 155.116c-1.444-4.096 2.683-8.878 8.878-10.117 1.247-0.627 2.717-0.994 4.273-0.994 3.666 0 6.856 2.036 8.501 5.039l0.025 0.050c1.239 4.096-2.683 8.878-8.878 10.732-1.074 0.402-2.316 0.634-3.611 0.634-3.917 0-7.337-2.124-9.172-5.284l-0.027-0.051zM369.551 158.628c-5.99-1.444-10.117-5.366-9.492-10.117 0.614-4.096 5.99-6.81 12.186-5.366 5.99 1.444 10.117 5.366 9.492 9.492-0.625 3.932-6.205 6.615-12.186 5.99zM505.395 949.75c-286.351 0-505.395-217.385-505.395-503.736-0.011-1.231-0.017-2.687-0.017-4.144 0-225.833 144.631-417.885 346.32-488.582l3.628-1.108c26.429-4.751 35.717 11.561 35.717 24.986 0 12.8-0.614 83.405-0.614 126.761 0 0-144.517-30.966-174.868 61.522 0 0-23.552 60.078-57.344 75.561 0 0-47.278 32.41 3.308 31.744 34.179-4.725 62.887-24.711 79.41-52.739l0.278-0.509c45.21-79.688 120.986-56.771 150.528-43.151 2.851 27.366 14.935 51.477 33.034 69.57v0c-115.405 12.8-231.844 29.522-231.844 228.127 0 56.771 15.688 85.268 48.722 121.6-6.654 18.822-10.499 40.528-10.499 63.131 0 27.851 5.837 54.339 16.355 78.307l-0.49-1.253c43.049 13.455 142.377-55.706 142.377-55.706 38.87 11.142 83.513 17.549 129.654 17.549s90.785-6.407 133.091-18.381l-3.437 0.831s99.328 69.366 142.449 55.747c28.283-71.68 10.732-126.761 5.366-140.186 33.034-36.547 53.248-65.034 53.248-121.6 0-199.229-121.6-215.122-237.005-228.127 18.995-16.312 35.092-47.278 35.092-95.795 0-69.571-0.614-155.648-0.614-172.595 0-13.414 9.492-29.696 35.717-24.986 206.469 68.547 346.44 264.468 346.44 493.425 0 286.351-232.253 503.736-518.605 503.736zM200.704 237.691c-2.683-2.048-2.048-6.81 1.444-10.732 3.308-3.308 8.049-4.751 10.732-2.048 2.683 2.048 2.048 6.81-1.444 10.732-3.328 3.297-8.079 4.741-10.732 2.048zM178.412 254.413c-1.444-2.683 0.614-5.99 4.751-8.049 1.029-0.805 2.341-1.29 3.767-1.29 2.122 0 3.993 1.076 5.097 2.712l0.014 0.022c1.444 2.683-0.614 5.99-4.751 8.049-4.168 1.29-7.475 0.635-8.919-1.434zM245.299 180.92c-3.308-2.683-2.048-8.878 2.683-12.8 4.751-4.751 10.732-5.366 13.414-2.048 2.683 2.683 1.444 8.878-2.683 12.8-4.567 4.741-10.762 5.356-13.445 2.058zM221.747 211.272c-3.308-2.048-3.308-7.434 0-12.186s8.878-6.81 11.561-4.751c1.554 1.675 2.508 3.926 2.508 6.4s-0.954 4.725-2.513 6.406l0.005-0.006c-2.908 4.762-8.274 6.83-11.581 4.147z" />
<glyph unicode="&#xe91b;" d="M20.48 785.92h983.040c11.311 0 20.48-9.169 20.48-20.48v0-634.88c0-11.311-9.169-20.48-20.48-20.48v0h-983.040c-11.311 0-20.48 9.169-20.48 20.48v0 634.88c0 11.311 9.169 20.48 20.48 20.48v0z" />
<glyph unicode="&#xe91c;" d="M107.52 294.4c-8.483 0-15.36 6.877-15.36 15.36v0c0 8.483 6.877 15.36 15.36 15.36v0h512c8.483 0 15.36-6.877 15.36-15.36v0c0-8.483-6.877-15.36-15.36-15.36v0zM486.4 427.52c-8.483 0-15.36 6.877-15.36 15.36v0c0 8.483 6.877 15.36 15.36 15.36v0h440.32c8.483 0 15.36-6.877 15.36-15.36v0c0-8.483-6.877-15.36-15.36-15.36v0zM107.52 427.52c-8.483 0-15.36 6.877-15.36 15.36v0c0 8.483 6.877 15.36 15.36 15.36v0h225.28c8.483 0 15.36-6.877 15.36-15.36v0c0-8.483-6.877-15.36-15.36-15.36v0zM107.52 560.64c-8.483 0-15.36 6.877-15.36 15.36v0c0 8.483 6.877 15.36 15.36 15.36v0h737.28c8.483 0 15.36-6.877 15.36-15.36v0c0-8.483-6.877-15.36-15.36-15.36v0zM1004.042 734.259l-14.336 14.336-14.336-14.336c-0.396-0.386-0.938-0.624-1.536-0.624s-1.14 0.238-1.536 0.625v0l-2.949 2.949c-0.389 0.395-0.628 0.938-0.628 1.536s0.24 1.141 0.629 1.536v0l14.336 14.336-14.336 14.336c-0.389 0.395-0.628 0.938-0.628 1.536s0.24 1.141 0.629 1.536v0l2.949 2.949c0.396 0.386 0.938 0.624 1.536 0.624s1.14-0.238 1.536-0.625v0l14.336-14.336 14.336 14.336c0.395 0.389 0.938 0.628 1.536 0.628s1.141-0.24 1.536-0.629v0l2.949-2.949c0.389-0.395 0.628-0.938 0.628-1.536s-0.24-1.141-0.629-1.536v0l-14.336-14.336 14.336-14.336c0.389-0.395 0.628-0.938 0.628-1.536s-0.24-1.141-0.629-1.536v0l-2.949-2.949c-0.394-0.398-0.94-0.645-1.544-0.645-0.004 0-0.009 0-0.013 0h0.001c-0.59 0.012-1.12 0.257-1.505 0.645v0z" />
<glyph unicode="&#xe91d;" d="M317.44-64c-33.916 0.041-61.399 27.524-61.44 61.436v901.124c0.041 33.916 27.524 61.399 61.436 61.44h389.124c33.916-0.041 61.399-27.524 61.44-61.436v-901.124c-0.041-33.916-27.524-61.399-61.436-61.44h-0.004zM276.48 898.56v-901.12c0-22.622 18.338-40.96 40.96-40.96v0h389.12c22.622 0 40.96 18.338 40.96 40.96v0 901.12c0 22.622-18.338 40.96-40.96 40.96v0h-61.44v-10.24c0-11.311-9.169-20.48-20.48-20.48v0h-225.28c-11.311 0-20.48 9.169-20.48 20.48v0 10.24h-61.44c-22.61-0.029-40.931-18.35-40.96-40.957v-0.003z" />
<glyph unicode="&#xe91e;" d="M248.32 570.88v61.44c0 2.828 2.292 5.12 5.12 5.12v0c2.828 0 5.12-2.292 5.12-5.12v0-61.44c0-2.828-2.292-5.12-5.12-5.12v0c-2.828 0-5.12 2.292-5.12 5.12v0zM765.44 586.24v112.64c0 2.828 2.292 5.12 5.12 5.12v0c2.828 0 5.12-2.292 5.12-5.12v0-112.64c0-2.828-2.292-5.12-5.12-5.12v0c-2.828 0-5.12 2.292-5.12 5.12v0zM248.32 668.16v61.44c0 2.828 2.292 5.12 5.12 5.12v0c2.828 0 5.12-2.292 5.12-5.12v0-61.44c0-2.828-2.292-5.12-5.12-5.12v0c-2.828 0-5.12 2.292-5.12 5.12v0zM248.32 780.8v20.48c0 2.828 2.292 5.12 5.12 5.12v0c2.828 0 5.12-2.292 5.12-5.12v0-20.48c0-2.828-2.292-5.12-5.12-5.12v0c-2.828 0-5.12 2.292-5.12 5.12v0z" />
<glyph unicode="&#xe91f;" d="M337.93-64c-39.567 0.052-71.628 32.113-71.68 71.675v61.445h491.52v-61.44c-0.052-39.567-32.113-71.628-71.675-71.68h-0.005zM693.883 2.417l11.663-11.653c0.956-0.955 2.276-1.546 3.735-1.546 0.008 0 0.016 0 0.024 0h-0.001c0.010 0 0.021 0 0.032 0 1.449 0 2.76 0.591 3.705 1.546v0c0.959 0.961 1.552 2.288 1.552 3.753s-0.593 2.792-1.552 3.753v0l-11.776 11.766c0.703 1.098 1.368 2.367 1.924 3.693l0.062 0.167c1.153 2.791 1.823 6.032 1.823 9.43 0 0.008 0 0.015 0 0.023v-0.001c0 0.002 0 0.005 0 0.008 0 3.402-0.67 6.648-1.884 9.613l0.061-0.169c-1.336 3.234-3.203 5.994-5.519 8.304v0c-2.314 2.321-5.082 4.189-8.159 5.459l-0.166 0.061c-2.788 1.166-6.027 1.843-9.425 1.843-0.009 0-0.019 0-0.028 0h0.001c-0.009 0-0.019 0-0.029 0-3.393 0-6.629-0.677-9.578-1.904l0.165 0.061c-3.243-1.33-6.011-3.198-8.324-5.519l-0.001-0.001c-2.316-2.311-4.182-5.071-5.458-8.138l-0.061-0.166c-1.162-2.796-1.839-6.044-1.843-9.45v-0.002c0.003-3.407 0.68-6.655 1.905-9.619l-0.061 0.168c1.332-3.239 3.199-6.003 5.519-8.314l0.001-0.001c2.315-2.32 5.083-4.187 8.159-5.459l0.166-0.061c2.779-1.16 6.008-1.833 9.393-1.833 0.017 0 0.034 0 0.050 0h-0.003c0.014 0 0.031 0 0.048 0 3.389 0 6.621 0.673 9.57 1.894l-0.166-0.061c1.715 0.692 3.188 1.482 4.561 2.41l-0.086-0.055zM451.021-0.123h13.844v-10.394h13.865c0 0.113 0.502 19.128 0 24.248-0.392 3.877-1.628 7.397-3.522 10.469l0.061-0.106c-1.968 2.69-4.26 4.989-6.856 6.902l-0.087 0.061c-1.335 0.772-2.896 1.497-4.523 2.085l-0.208 0.066c-1.658 0.691-3.579 1.161-5.588 1.317l-0.065 0.004c-3.885-0.517-7.396-1.738-10.534-3.535l0.14 0.074c-2.58-2.076-4.854-4.346-6.866-6.837l-0.066-0.085c-1.394-1.994-2.566-4.289-3.404-6.739l-0.058-0.194v-27.709h13.865v10.383zM422.072 41.277c-1.385-1.383-2.243-3.295-2.243-5.407v0-46.387h15.135s0 0.389 0 1.024c-0.205 17.879-0.195 27.556 0 27.976l0.092 0.164 0.184 0.358 0.143 0.266c0.522 1.024 1.29 2.447 1.71 3.482 0.155 1.911 0.244 4.138 0.244 6.385s-0.089 4.473-0.263 6.676l0.018-0.291v0.256c0 2.112-0.857 4.024-2.242 5.407v0c-1.38 1.391-3.293 2.252-5.407 2.253h-2.048c-2.069-0.006-3.944-0.833-5.316-2.172l0.002 0.001zM313.19 39.834c-3.504-3.001-5.768-7.361-5.969-12.254l-0.001-0.034c-0.014-0.256-0.021-0.556-0.021-0.857 0-4.636 1.826-8.846 4.799-11.949l-0.006 0.006 23.337-24.095c0.691-0.711 1.656-1.153 2.723-1.157h0.001c0.002 0 0.005 0 0.008 0 1.070 0 2.036 0.443 2.725 1.156l0.001 0.001 23.327 24.095c2.984 3.1 4.822 7.322 4.822 11.973 0 0.291-0.007 0.58-0.021 0.867l0.002-0.040c-0.203 4.928-2.472 9.29-5.957 12.268l-0.023 0.020c-2.669 2.298-6.169 3.697-9.995 3.697-0.039 0-0.078 0-0.118 0h0.006c-4.868-0.044-9.253-2.079-12.385-5.33l-0.005-0.005-2.365-2.447-2.376 2.447c-3.137 3.256-7.522 5.291-12.382 5.335h-0.008c-0.025 0-0.054 0-0.084 0-3.84 0-7.353-1.403-10.054-3.724l0.020 0.017zM587.407-10.342h1.782v8.305h-1.782zM585.052-10.342h1.761v8.305h-1.761zM582.676-10.342h1.772v8.305h-1.772zM580.301-10.342h1.792v8.305h-1.792zM577.946-10.342h1.772v8.305h-1.772zM575.57-10.342h1.772v8.305h-1.772zM563.354 1.055l4.25-9.984c0.361-0.843 1.184-1.424 2.143-1.424 0.010 0 0.020 0 0.030 0h5.2v8.305h-1.28l-5.837 13.711zM549.018-10.342h5.202c0.008 0 0.018 0 0.028 0 0.958 0 1.781 0.58 2.137 1.408l0.006 0.015 19.569 46.080-7.639 3.246-18.012-42.414h-1.29zM546.662-10.342h1.772v8.305h-1.772zM544.287-10.342h1.792v8.305h-1.792zM541.932-10.342h1.772v8.305h-1.772zM539.556-10.342h1.772v8.305h-1.772zM537.19-10.342h1.782v8.305h-1.782zM534.825-10.342h1.772v8.305h-1.772zM589.752-10.271c1.032 0.269 1.782 1.193 1.782 2.292 0 0.001 0 0.001 0 0.002v0 3.553c-0.002 1.101-0.75 2.027-1.765 2.3l-0.017 0.004zM532.408-4.424v-3.543c0.002-1.101 0.75-2.027 1.765-2.3l0.017-0.004v8.192c-0.998-0.304-1.712-1.217-1.712-2.296 0-0.035 0.001-0.070 0.002-0.105v0.005zM547.983 37.12l8.192-19.384 4.495 10.619-5.12 12.012zM568.75 41.452l7.629-3.246 0.696 1.638-7.639 3.246zM546.826 39.844l0.696-1.638 7.639 3.246-0.696 1.638zM571.208 47.237l-1.29-3.072 7.639-3.246 1.29 3.072c0.115 0.268 0.182 0.579 0.182 0.906s-0.067 0.639-0.188 0.922l0.006-0.015c-0.24 0.587-0.69 1.048-1.254 1.295l-0.015 0.006-3.267 1.382c-0.274 0.123-0.595 0.194-0.932 0.195v0c-0.953-0.049-1.756-0.645-2.104-1.479l-0.006-0.016zM549.591 48.486l-3.267-1.382c-0.58-0.253-1.030-0.713-1.264-1.285l-0.006-0.016c-0.113-0.268-0.179-0.579-0.179-0.906s0.066-0.638 0.185-0.922l-0.006 0.016 1.3-3.072 7.639 3.246-1.3 3.072c-0.366 0.855-1.2 1.444-2.172 1.444-0.003 0-0.007 0-0.010 0h0.001c-0.317-0.023-0.61-0.108-0.873-0.242l0.013 0.006zM668.631 12.124c-2.872 2.888-4.647 6.868-4.647 11.264s1.775 8.376 4.648 11.265l-0.001-0.001c2.872 2.878 6.843 4.659 11.229 4.659 0.012 0 0.024 0 0.037 0h-0.002c0.009 0 0.020 0 0.030 0 4.388 0 8.36-1.781 11.233-4.659v0c2.872-2.888 4.647-6.868 4.647-11.264s-1.775-8.376-4.648-11.265l0.001 0.001c-2.873-2.878-6.846-4.659-11.234-4.659-0.011 0-0.021 0-0.032 0h0.002c-0.007 0-0.016 0-0.025 0-4.361 0-8.311 1.76-11.179 4.609l0.001-0.001zM463.34 10.138h-10.588v10.609h10.609v-10.598zM248.32 570.88v61.44c0 2.828 2.292 5.12 5.12 5.12v0c2.828 0 5.12-2.292 5.12-5.12v0-61.44c0-2.828-2.292-5.12-5.12-5.12v0c-2.828 0-5.12 2.292-5.12 5.12v0zM765.44 586.24v112.64c0 2.828 2.292 5.12 5.12 5.12v0c2.828 0 5.12-2.292 5.12-5.12v0-112.64c0-2.828-2.292-5.12-5.12-5.12v0c-2.828 0-5.12 2.292-5.12 5.12v0zM248.32 668.16v61.44c0 2.828 2.292 5.12 5.12 5.12v0c2.828 0 5.12-2.292 5.12-5.12v0-61.44c0-2.828-2.292-5.12-5.12-5.12v0c-2.828 0-5.12 2.292-5.12 5.12v0zM248.32 780.8v20.48c0 2.828 2.292 5.12 5.12 5.12v0c2.828 0 5.12-2.292 5.12-5.12v0-20.48c0-2.828-2.292-5.12-5.12-5.12v0c-2.828 0-5.12 2.292-5.12 5.12v0z" />
<glyph unicode="&#xe920;" d="M317.44-64c-33.916 0.041-61.399 27.524-61.44 61.436v901.124c0.041 33.916 27.524 61.399 61.436 61.44h389.124c33.916-0.041 61.399-27.524 61.44-61.436v-901.124c-0.041-33.916-27.524-61.399-61.436-61.44h-0.004zM276.48 898.56v-901.12c0-22.622 18.338-40.96 40.96-40.96v0h389.12c22.622 0 40.96 18.338 40.96 40.96v0 901.12c0 22.622-18.338 40.96-40.96 40.96v0h-61.44v-10.24c0-11.311-9.169-20.48-20.48-20.48v0h-225.28c-11.311 0-20.48 9.169-20.48 20.48v0 10.24h-61.44c-22.61-0.029-40.931-18.35-40.96-40.957v-0.003z" />
<glyph unicode="&#xe921;" d="M1024 171.52h-1024v102.4h1024v-102.4zM1024 376.32h-1024v102.4h1024v-102.4zM1024 581.12h-1024v174.080c0 16.966 13.754 30.72 30.72 30.72v0h962.56c16.966 0 30.72-13.754 30.72-30.72v0-174.080z" />
<glyph unicode="&#xe922;" d="M962.56 110.080h-901.12c-33.916 0.041-61.399 27.524-61.44 61.436v0.004h245.76v102.4h-245.76v102.4h245.76v102.4h-245.76v102.4h245.76v102.4h-245.76v71.68c0 16.966 13.754 30.72 30.72 30.72v0h962.56c16.966 0 30.72-13.754 30.72-30.72v0-71.68h-235.52v-102.4h235.52v-102.4h-235.52v-102.4h235.52v-102.4h-235.52v-102.4h235.52c-0.041-33.916-27.524-61.399-61.436-61.44h-0.004zM522.24 273.92v-102.4h256v102.4zM256 273.92v-102.4h256v102.4zM522.24 478.72v-102.4h256v102.4zM256 478.72v-102.4h256v102.4zM522.24 683.52v-102.4h256v102.4zM256 683.52v-102.4h256v102.4z" />
<glyph unicode="&#xe923;" glyph-name="todo" d="M747.52-63.99h-491.52c-33.916 0.041-61.399 27.524-61.44 61.436v778.244c0.041 33.916 27.524 61.399 61.436 61.44h114.098c5.199 35.129 22.491 65.497 47.431 87.349l0.165 0.141c25.044 21.98 58.082 35.389 94.253 35.389 0.020 0 0.041 0 0.061 0h-0.003c0.015 0 0.032 0 0.050 0 36.175 0 69.217-13.414 94.423-35.539l-0.162 0.14c25.108-21.992 42.4-52.361 47.5-86.708l0.096-0.783h93.614c33.916-0.041 61.399-27.524 61.44-61.436v-778.244c-0.047-33.912-27.528-61.389-61.436-61.43h-0.004zM510.044 239.575c-0.066 0-0.145 0-0.223 0-16.957 0-33.097-3.503-47.734-9.824l0.781 0.3c-14.981-6.423-27.769-15.188-38.531-25.976l-0.002-0.002c-10.793-10.763-19.558-23.552-25.678-37.749l-0.301-0.784c-6.027-13.861-9.534-30.007-9.534-46.972 0-0.075 0-0.15 0-0.225v0.012c0-0.063 0-0.138 0-0.214 0-16.965 3.506-33.111 9.834-47.753l-0.3 0.781c6.418-14.979 15.184-27.765 25.975-38.519l0.003-0.003c10.76-10.797 23.55-19.563 37.75-25.679l0.783-0.3c13.855-6.027 29.995-9.534 46.954-9.534 0.078 0 0.156 0 0.234 0h-0.012c0.068 0 0.148 0 0.228 0 16.96 0 33.101 3.506 47.738 9.834l-0.78-0.3c14.982 6.417 27.772 15.183 38.53 25.976l0.003 0.003c10.79 10.761 19.555 23.546 25.678 37.739l0.301 0.784c6.021 13.854 9.523 29.991 9.523 46.946 0 0.084 0 0.169 0 0.253v-0.013c0 0.071 0 0.155 0 0.24 0 16.955-3.503 33.092-9.824 47.727l0.3-0.781c-6.425 14.98-15.19 27.768-25.977 38.531l-0.002 0.002c-10.765 10.789-23.553 19.554-37.749 25.678l-0.785 0.301c-13.857 6.021-29.998 9.523-46.957 9.523-0.081 0-0.161 0-0.242 0h0.012zM299.469 345.426c-0.008 0-0.017 0-0.027 0-3.512 0-6.689-1.429-8.984-3.737l-0.001-0.001c-2.303-2.292-3.727-5.465-3.727-8.97 0-0.015 0-0.029 0-0.044v0.002c0-0.012 0-0.027 0-0.042 0-3.498 1.425-6.664 3.727-8.948l18.023-18.023c2.287-2.308 5.458-3.738 8.963-3.738 0.013 0 0.027 0 0.040 0h-0.002c0.011 0 0.025 0 0.038 0 3.505 0 6.676 1.429 8.962 3.737l36.025 36.025c2.302 2.288 3.727 5.456 3.727 8.957 0 0.015 0 0.031 0 0.046v-0.002c0 0.012 0 0.027 0 0.041 0 3.505-1.425 6.678-3.727 8.969v0c-2.293 2.309-5.47 3.738-8.98 3.738-0.007 0-0.015 0-0.022 0h0.001c-0.008 0-0.017 0-0.027 0-3.512 0-6.689-1.429-8.984-3.737l-27.014-27.014-9.001 9.001c-2.293 2.315-5.472 3.748-8.986 3.748-0.009 0-0.018 0-0.027 0h0.001zM404.101 355.983c-13.837-0.017-25.050-11.23-25.068-25.066v-0.002c0.017-13.837 11.23-25.050 25.066-25.068h300.853c13.837 0.017 25.050 11.23 25.068 25.066v0.002c-0.017 13.837-11.23 25.050-25.066 25.068h-0.002zM299.459 459.407c-0.007 0-0.015 0-0.023 0-3.508 0-6.683-1.425-8.978-3.727v0c-2.303-2.292-3.727-5.465-3.727-8.97 0-0.015 0-0.029 0-0.044v0.002c0-0.014 0-0.031 0-0.048 0-3.5 1.425-6.667 3.727-8.952l18.023-18.023c2.293-2.309 5.47-3.738 8.98-3.738 0.007 0 0.015 0 0.022 0h-0.001c0.006 0 0.014 0 0.021 0 3.51 0 6.687 1.429 8.979 3.737l36.025 36.025c2.309 2.292 3.738 5.467 3.738 8.976 0 0.009 0 0.018 0 0.027v-0.001c0 0.009 0 0.020 0 0.031 0 3.51-1.429 6.687-3.737 8.979l-0.001 0.001c-2.292 2.309-5.467 3.738-8.976 3.738-0.009 0-0.018 0-0.027 0h0.001c-0.009 0-0.020 0-0.031 0-3.51 0-6.687-1.429-8.979-3.737l-27.014-27.024-9.001 9.001c-2.294 2.303-5.468 3.727-8.974 3.727-0.017 0-0.033 0-0.050 0h0.003zM404.101 469.965c-13.841-0.017-25.056-11.236-25.068-25.077v-0.001c0.017-13.837 11.23-25.050 25.066-25.068h300.853c13.837 0.017 25.050 11.23 25.068 25.066v0.002c-0.012 13.842-11.227 25.060-25.066 25.078h-0.002zM325.468 591.37c-18.873-0.017-34.168-15.309-34.191-34.179v-0.002c0.023-18.874 15.317-34.168 34.189-34.191h0.002c18.872 0.023 34.164 15.319 34.181 34.19v0.002c-0.023 18.868-15.313 34.158-34.179 34.181h-0.002zM404.091 583.916c-13.837-0.017-25.050-11.23-25.068-25.066v-0.002c0.012-13.842 11.227-25.060 25.066-25.078h300.853c13.841 0.017 25.056 11.236 25.068 25.077v0.001c-0.017 13.837-11.23 25.050-25.066 25.068h-0.002zM512 898.57c-45.222-0.052-81.868-36.698-81.92-81.915v-0.005c0.052-45.222 36.698-81.868 81.915-81.92h0.005c45.222 0.052 81.868 36.698 81.92 81.915v0.005c-0.052 45.222-36.698 81.868-81.915 81.92h-0.005zM510.034 11.684c-58.884 0.070-106.6 47.786-106.67 106.663v0.007c0.070 58.884 47.786 106.6 106.663 106.67h0.007c58.884-0.070 106.6-47.786 106.67-106.663v-0.007c-0.070-58.881-47.78-106.594-106.653-106.67h-0.007zM458.752 144.804c-0.013 0-0.029 0-0.044 0-3.332 0-6.348-1.354-8.526-3.543v0l-5.12-5.12c-2.195-2.183-3.553-5.206-3.553-8.546 0-0.012 0-0.025 0-0.037v0.002c0-0.009 0-0.019 0-0.030 0-3.338 1.358-6.36 3.553-8.541l39.302-39.302c0.4-0.55 0.814-1.035 1.261-1.486l5.119-5.119c2.185-2.189 5.207-3.543 8.544-3.543 0.010 0 0.019 0 0.029 0h-0.001c0.008 0 0.018 0 0.027 0 3.337 0 6.358 1.354 8.544 3.543v0l68.608 68.608c2.185 2.197 3.536 5.226 3.536 8.571s-1.351 6.374-3.537 8.571l-5.119 5.119c-2.182 2.195-5.203 3.553-8.541 3.553-0.010 0-0.021 0-0.031 0h0.002c-0.011 0-0.025 0-0.038 0-3.336 0-6.354-1.359-8.532-3.553l-54.754-54.744-32.102 32.102c-2.178 2.153-5.173 3.482-8.479 3.482-0.050 0-0.101 0-0.151-0.001h0.008z" />
<glyph unicode="&#xe924;" glyph-name="arrow-down" d="M38.093 717.107c17.211 17.211 40.988 27.856 67.251 27.856s50.040-10.645 67.251-27.856l336.241-336.251 336.241 336.251c17.211 17.208 40.986 27.851 67.246 27.851s50.035-10.643 67.246-27.851v0c17.211-17.211 27.856-40.988 27.856-67.251s-10.645-50.040-27.856-67.251l-403.456-403.456c-17.211-17.211-40.988-27.856-67.251-27.856s-50.040 10.645-67.251 27.856l-403.456 403.456c-17.207 17.163-27.853 40.897-27.853 67.117 0 0.045 0 0.091 0 0.136v-0.007c0 0.057 0 0.125 0 0.192 0 26.192 10.621 49.904 27.791 67.064v0z" />
<glyph unicode="&#xe925;" glyph-name="arrow-left" d="M780.882 921.907c17.211-17.211 27.856-40.988 27.856-67.251s-10.645-50.040-27.856-67.251l-336.251-336.241 336.251-336.241c17.208-17.211 27.851-40.986 27.851-67.246s-10.643-50.035-27.851-67.246v0c-17.211-17.211-40.988-27.856-67.251-27.856s-50.040 10.645-67.251 27.856l-403.456 403.456c-17.211 17.211-27.856 40.988-27.856 67.251s10.645 50.040 27.856 67.251l403.456 403.456c17.163 17.207 40.897 27.853 67.117 27.853 0.045 0 0.091 0 0.136 0h-0.007c0.057 0 0.125 0 0.192 0 26.192 0 49.904-10.621 67.064-27.791v0z" />
<glyph unicode="&#xe926;" d="M267.53 200.253h594.483c-8.001-21.034-13.206-45.356-14.467-70.717l-0.022-0.564c0.45-22.194 5.748-43.046 14.873-61.683l-0.384 0.867h-594.483z" />
<glyph unicode="&#xe927;" d="M897.362-63.99h-692.562c-56.528 0.064-102.336 45.872-102.4 102.394v756.435c0 0.122-0.001 0.266-0.001 0.41 0 45.461 18.489 86.604 48.357 116.319l0.007 0.007c29.712 29.887 70.852 48.385 116.312 48.385 0.149 0 0.298 0 0.447-0.001h610.977c27.346-0.041 49.502-22.204 49.531-49.549v-660.647c-0.029-27.345-22.186-49.506-49.527-49.541h-571.303c-21.975-0.916-39.465-18.867-39.639-40.943v-50.193c0-22.622 18.338-40.96 40.96-40.96v0h619.581v-101.376c0-0.006 0-0.013 0-0.020 0-16.966-13.754-30.72-30.72-30.72-0.007 0-0.014 0-0.022 0h0.001zM319.232 488.643c-17.92 0-32.502-11.407-32.502-25.436s14.582-25.436 32.502-25.436h451.584c17.92 0 32.502 11.407 32.502 25.436s-14.582 25.436-32.502 25.436zM319.232 604.283c-17.92 0-32.502-11.407-32.502-25.436s14.582-25.446 32.502-25.446h349.184c17.92 0 32.502 11.418 32.502 25.446s-14.582 25.436-32.502 25.436zM319.232 719.923c-17.92 0-32.502-11.418-32.502-25.446s14.582-25.436 32.502-25.436h390.144c17.93 0 32.512 11.407 32.512 25.436s-14.582 25.446-32.512 25.446z" />
<glyph unicode="&#xe928;" d="M583.68-64c-39.588 0-71.68 32.092-71.68 71.68v0 337.92c0 39.588 32.092 71.68 71.68 71.68v0h368.64c39.588 0 71.68-32.092 71.68-71.68v0-337.92c0-39.588-32.092-71.68-71.68-71.68v0zM71.68 478.72c-39.588 0-71.68 32.092-71.68 71.68v0 337.92c0 39.588 32.092 71.68 71.68 71.68v0h573.44c39.588 0 71.68-32.092 71.68-71.68v0-337.92c0-39.588-32.092-71.68-71.68-71.68v0z" />
<glyph unicode="&#xe929;" d="M71.68-64c-39.588 0-71.68 32.092-71.68 71.68v0 337.92c0 39.588 32.092 71.68 71.68 71.68v0h307.2c39.588 0 71.68-32.092 71.68-71.68v0-337.92c0-39.588-32.092-71.68-71.68-71.68v0zM849.92 478.72c-39.588 0-71.68 32.092-71.68 71.68v0 337.92c0 39.588 32.092 71.68 71.68 71.68v0h102.4c39.588 0 71.68-32.092 71.68-71.68v0-337.92c0-39.588-32.092-71.68-71.68-71.68v0z" />
<glyph unicode="&#xe92a;" d="M983.040 407.040h-324.966l-46.981 81.92h371.948c22.622 0 40.96-18.338 40.96-40.96v0c0-22.622-18.338-40.96-40.96-40.96v0zM376.166 407.040h-335.206c-22.622 0-40.96 18.338-40.96 40.96v0c0 22.622 18.338 40.96 40.96 40.96v0h382.188l-46.981-81.92z" />
<glyph unicode="&#xe92b;" d="M499.364 540.006c3.602 6.184 10.202 10.275 17.756 10.275s14.154-4.090 17.704-10.177l0.052-0.097 82.36-143.206c1.725-2.937 2.744-6.47 2.744-10.24 0-11.311-9.169-20.48-20.48-20.48-0.007 0-0.014 0-0.021 0h-164.72c-0.006 0-0.013 0-0.020 0-11.311 0-20.48 9.169-20.48 20.48 0 3.77 1.019 7.303 2.796 10.337l-0.052-0.097z" />
<glyph unicode="&#xe92c;" d="M814.889 60.15h124.119c-0.006-68.553-55.569-124.126-124.117-124.15h-0.002zM216.32-64c-68.568 0-124.154 55.583-124.16 124.149v0.001h722.729v-124.16zM814.889 60.16v598.569h-163.973c-12.295 0-22.262 9.967-22.262 22.262 0 0.004 0 0.007 0 0.011v-0.001 79.626c0 12.295 9.967 22.262 22.262 22.262v0h163.973c68.554-0.023 124.119-55.603 124.119-124.16 0-0.004 0-0.007 0-0.011v0-598.569zM92.16 60.16v598.569c0.006 68.567 55.592 124.15 124.16 124.15 0 0 0 0 0 0h163.963c0.003 0 0.007 0 0.010 0 12.295 0 22.262-9.967 22.262-22.262v0-79.626c0-0.003 0-0.007 0-0.010 0-12.295-9.967-22.262-22.262-22.262-0.004 0-0.007 0-0.011 0h-163.962v-598.569z" />
<glyph unicode="&#xe92d;" d="M371.005 602.624c7.239 7.236 17.238 11.711 28.283 11.711s21.044-4.475 28.283-11.711l46.551-46.561v363.94c0 22.090 17.907 39.997 39.997 39.997s39.997-17.907 39.997-39.997v-360.561l43.162 43.182c7.238 7.238 17.238 11.715 28.283 11.715 22.090 0 39.998-17.908 39.998-39.998 0-11.045-4.477-21.045-11.715-28.283l-113.132-113.162c-7.239-7.236-17.238-11.711-28.283-11.711s-21.044 4.475-28.283 11.711l-113.142 113.131c-7.236 7.239-11.711 17.238-11.711 28.283s4.475 21.044 11.711 28.283v0z" />
<glyph unicode="&#xe92e;" glyph-name="hockey-stick" d="M489.114-59.791h-89.754v143.36h22.2l310.979 732.621 131.963-56.013-337.654-795.505c-6.433-14.52-20.717-24.465-37.325-24.465-0.144 0-0.288 0.001-0.432 0.002h0.022zM389.12-59.791h-30.72v143.36h30.72v-143.36zM348.16-59.791h-30.72v143.36h30.72v-143.36zM307.2-59.791h-30.72v143.36h30.72v-143.36zM266.24-59.791h-30.72v143.36h30.72v-143.36zM225.28-59.791h-30.72v143.36h30.72v-143.36zM184.32-59.791h-30.72v143.36h30.72v-143.36zM143.36-58.491v0c-17.807 4.71-30.72 20.677-30.72 39.659 0 0.004 0 0.007 0 0.011v-0.001 61.44c0 0.003 0 0.007 0 0.010 0 18.983 12.913 34.949 30.434 39.595l0.286 0.064v-140.759zM872.509 779.039v0l-131.953 56.013 12.012 28.283 131.953-56.013-12.001-28.273zM892.518 826.143v0l-131.953 56.003 22.426 52.849c6.392 14.803 20.864 24.975 37.712 24.975 0.008 0 0.016 0 0.023 0h-0.001c5.777-0.003 11.271-1.208 16.247-3.379l-0.263 0.102 56.556-24.003c10.038-4.304 17.835-12.225 21.877-22.083l0.098-0.271c1.901-4.539 3.005-9.814 3.005-15.346 0-5.785-1.207-11.288-3.384-16.27l0.102 0.262-22.426-52.838z" />
<glyph unicode="&#xe92f;" d="M376.474-64h-89.754v143.36h22.2l310.979 732.621 131.963-56.013-337.654-795.505c-6.433-14.52-20.717-24.465-37.325-24.465-0.144 0-0.288 0.001-0.432 0.002h0.022zM276.48-64h-30.72v143.36h30.72v-143.36zM235.52-64h-30.72v143.36h30.72v-143.36zM194.56-64h-30.72v143.36h30.72v-143.36zM153.6-64h-30.72v143.36h30.72v-143.36zM112.64-64h-30.72v143.36h30.72v-143.36zM71.68-64h-30.72v143.36h30.72v-143.36zM30.72-62.7v0c-17.807 4.71-30.72 20.677-30.72 39.659 0 0.004 0 0.007 0 0.011v-0.001 61.44c0 0.003 0 0.007 0 0.010 0 18.983 12.913 34.949 30.434 39.595l0.286 0.064v-140.759zM759.869 774.83v0l-131.953 56.013 12.012 28.283 131.953-56.013-12.001-28.273zM779.878 821.934v0l-131.953 56.003 22.426 52.849c6.392 14.803 20.864 24.975 37.712 24.975 0.008 0 0.016 0 0.023 0h-0.001c5.777-0.003 11.271-1.208 16.247-3.379l-0.263 0.102 56.556-24.003c10.038-4.304 17.835-12.225 21.877-22.083l0.098-0.271c1.901-4.539 3.005-9.814 3.005-15.346 0-5.785-1.207-11.288-3.384-16.27l0.102 0.262-22.426-52.838z" />
<glyph unicode="&#xe930;" d="M979.671-64h-30.72v143.36h30.72v-143.36zM938.711-64h-30.72v143.36h30.72v-143.36zM897.751-64h-30.72v143.36h30.72v-143.36zM856.791-64h-30.72v143.36h30.72v-143.36zM815.831-64h-30.72v143.36h30.72v-143.36zM774.871-64h-30.72v143.36h30.72v-143.36zM733.911-64h-89.754c-0.122-0.001-0.267-0.002-0.412-0.002-16.609 0-30.895 9.951-37.22 24.216l-0.103 0.26-73.165 172.37 77.824 183.46 100.577-236.943h22.2v-143.36zM989.911-62.71v0 140.769c17.807-4.71 30.72-20.677 30.72-39.659 0-0.007 0-0.015 0-0.022v0.001-61.44c0-0.003 0-0.007 0-0.010 0-18.983-12.913-34.949-30.434-39.595l-0.286-0.064zM410.88 421.13v0l-142.121 334.848 131.963 56.013 88.064-207.401-77.824-183.429zM260.751 774.81v0l-12.001 28.293 131.953 56.003 12.012-28.273-131.953-56.023zM240.742 821.914v0 0l-22.436 52.818c-2.074 4.722-3.282 10.227-3.282 16.014 0 5.534 1.104 10.811 3.104 15.621l-0.099-0.269c4.144 10.127 11.94 18.046 21.71 22.253l0.265 0.101 56.556 24.003c4.714 2.065 10.208 3.27 15.982 3.277h0.002c0.007 0 0.014 0 0.022 0 16.848 0 31.32-10.172 37.61-24.71l0.102-0.265 22.436-52.849z" />
<glyph unicode="&#xe931;" glyph-name="user" d="M73.441 23.91c-84.767 28.252-72.858 87.603-72.858 87.603s28.109 148.48 72.858 204.442c73.021 91.259 262.851 58.368 262.851 58.368s102.226-58.368 175.237-58.368 175.227 58.368 175.227 58.368 189.829 32.86 262.851-58.368c45.261-56.596 74.097-204.442 74.097-204.442s9.134-59.863-74.097-87.603c-109.568-36.506-273.807-54.764-438.088-54.764s-328.561 18.258-438.077 54.764zM277.883 695.654c0.006 129.029 104.606 233.626 233.636 233.626 0.004 0 0.007 0 0.011 0h-0.001c129.034 0 233.636-104.602 233.636-233.636v0c0-0.003 0-0.007 0-0.010 0-129.034-104.602-233.636-233.636-233.636v0c-0.003 0-0.007 0-0.010 0-129.034 0-233.636 104.602-233.636 233.636 0 0.004 0 0.007 0 0.011v-0.001z" />
<glyph unicode="&#xe932;" d="M56.32 123.986c-65.004 21.658-55.88 67.195-55.88 67.195s21.555 113.9 55.88 156.815c56.013 70.031 201.626 44.79 201.626 44.79s78.397-44.8 134.4-44.8 134.4 44.8 134.4 44.8 145.613 25.201 201.615-44.8c34.724-43.407 56.832-156.815 56.832-156.815s7.014-45.916-56.832-67.195c-83.968-28.006-210.012-41.984-336.015-41.984s-252.058 13.988-336.026 41.994zM213.135 639.212c0 98.969 80.231 179.2 179.2 179.2s179.2-80.231 179.2-179.2c0-98.966-80.225-179.194-179.189-179.2h-0.001c-0.003 0-0.007 0-0.010 0-98.969 0-179.2 80.231-179.2 179.2v0z" />
<glyph unicode="&#xe933;" d="M759.896 518.419l-102.949 102.949c-13.121 13.121-13.121 34.393 0 47.514s34.393 13.121 47.514 0l79.2-79.2 182.156 182.156c13.121 13.121 34.393 13.121 47.514 0s13.121-34.393 0-47.514l-205.92-205.92c-13.122-13.113-34.389-13.111-47.507 0.007-0.003 0.003-0.005 0.005-0.008 0.008v0z" />
<glyph unicode="&#xe934;" d="M62.464 79.196c-72.11 24.044-61.972 74.557-61.972 74.557s23.921 126.382 61.972 173.998c62.177 77.67 223.744 49.715 223.744 49.715s87.040-49.705 149.146-49.705 149.135 49.705 149.135 49.705 161.577 27.965 223.713-49.705c38.533-48.128 63.068-173.998 63.068-173.998s7.772-50.954-63.068-74.557c-93.184-31.068-233.032-46.612-372.849-46.612s-279.644 15.524-372.89 46.602zM236.544 650.895c0.006 109.818 89.032 198.84 198.851 198.84 109.822 0 198.851-89.028 198.851-198.851s-89.028-198.851-198.851-198.851c-0.015 0-0.029 0-0.044 0h0.003c-109.803 0.018-198.81 89.035-198.81 198.84 0 0.007 0 0.015 0 0.022v-0.001z" />
<glyph unicode="&#xe935;" d="M730.115 539.673l87.903 87.903-87.881 87.881c-14.562 14.562-14.562 38.172 0 52.735s38.172 14.562 52.735 0v0l87.881-87.881 87.874 87.874c14.617 14.125 37.88 13.973 52.287-0.433s14.559-37.67 0.456-52.263l-87.904-87.904 87.903-87.903c14.562-14.562 14.562-38.172 0-52.735s-38.172-14.562-52.735 0v0l-87.903 87.903-87.896-87.896c-0.128-0.132-0.28-0.287-0.433-0.441-14.56-14.56-38.167-14.56-52.727 0s-14.56 38.167 0 52.727c0.154 0.154 0.308 0.306 0.464 0.456l-0.023-0.023z" />
<glyph unicode="&#xe936;" d="M177.582 145.244c-64.87 21.627-55.767 67.052-55.767 67.052s21.504 113.664 55.767 156.447c55.869 69.837 201.144 44.698 201.144 44.698s78.223-44.698 134.093-44.698 134.144 44.698 134.144 44.698 145.224 25.139 201.093-44.698c34.642-43.315 56.678-156.447 56.678-156.447s6.984-45.824-56.709-67.052c-83.804-27.935-209.521-41.912-335.237-41.912s-251.402 13.967-335.206 41.912zM356.782 639.713c0 86.403 70.044 156.447 156.447 156.447s156.447-70.044 156.447-156.447c0-86.403-70.044-156.447-156.447-156.447-0.018 0-0.036 0-0.054 0h0.003c-86.403 0-156.447 70.044-156.447 156.447v0z" />
<glyph unicode="&#xe937;" d="M874.742 394.148c-40.96 51.2-110.5 61.993-161.567 61.993-0.736 0.006-1.606 0.009-2.477 0.009-30.358 0-59.749-4.141-87.638-11.89l2.296 0.545c-5.325-1.608-10.24-3.256-14.961-5.038 0 0.081 0 0.177 0 0.273 0 17.566 5.074 33.948 13.835 47.758l-0.216-0.364c18.606 23.265 54.518 28.14 81.367 28.14 0.119 0 0.259 0 0.4 0 11.821 0 23.428-0.92 34.752-2.692l-1.257 0.162c0.44-0.246 45.199-25.6 76.8-25.6s76.39 25.354 76.8 25.6c10.039 1.61 21.613 2.53 33.402 2.53 0.173 0 0.346 0 0.52-0.001h-0.027c26.849 0 62.761-4.884 81.367-28.14 19.364-24.207 15.514-88.156 15.36-90.87 0.088-0.148 0.14-0.327 0.14-0.517 0-0.142-0.029-0.278-0.081-0.401l0.003 0.007c-0.502-1.741-4.669-6.799-32.553-16.087-28.66-6.922-62.42-11.97-96.973-14.089l-1.689-0.083c-5.228 10.967-11.095 20.404-17.865 29.104l0.262-0.35zM32.922 379.566c-27.884 9.288-32.051 14.336-32.553 16.087-0.050 0.116-0.079 0.252-0.079 0.394 0 0.191 0.052 0.369 0.143 0.522l-0.003-0.005c-0.174 2.703-4.024 66.652 15.36 90.87 18.606 23.255 54.518 28.14 81.367 28.14 0.147 0 0.32 0.001 0.494 0.001 11.788 0 23.362-0.92 34.653-2.692l-1.252 0.162c0.451-0.256 45.056-25.6 76.8-25.6s76.401 25.364 76.8 25.6c10.067 1.61 21.673 2.53 33.493 2.53 0.141 0 0.282 0 0.423 0h-0.022c26.849 0 62.761-4.874 81.367-28.14 8.546-13.447 13.62-29.828 13.62-47.394 0-0.096 0-0.192 0-0.288v0.015c-4.741 1.782-9.626 3.43-14.961 5.038-25.593 7.204-54.984 11.345-85.341 11.345-0.871 0-1.741-0.003-2.61-0.010l0.133 0.001c-51.067 0-120.566-10.752-161.567-61.993-6.535-8.352-12.425-17.788-17.269-27.824l-0.405-0.93c-36.22 2.207-69.955 7.254-102.655 14.982l4.064-0.81zM733.44 620.657c0 0.003 0 0.007 0 0.010 0 47.556 38.552 86.108 86.108 86.108 0.004 0 0.007 0 0.011 0h-0.001c47.556 0 86.108-38.552 86.108-86.108 0-0.004 0-0.007 0-0.011v0.001c0-0.003 0-0.007 0-0.010 0-47.556-38.552-86.108-86.108-86.108v0c-47.562 0-86.118 38.557-86.118 86.118v0zM118.333 620.657c0 0.003 0 0.007 0 0.010 0 47.556 38.552 86.108 86.108 86.108v0c0.003 0 0.007 0 0.010 0 47.556 0 86.108-38.552 86.108-86.108 0-0.004 0-0.007 0-0.011v0.001c0-47.562-38.557-86.118-86.118-86.118v0c-47.557 0.006-86.108 38.56-86.108 86.118v0z" />
<glyph unicode="&#xe938;" glyph-name="arrow-right" d="M242.893-19.569c-17.211 17.211-27.856 40.988-27.856 67.251s10.645 50.040 27.856 67.251l336.251 336.241-336.251 336.241c-17.208 17.211-27.851 40.986-27.851 67.246s10.643 50.035 27.851 67.246v0c17.211 17.211 40.988 27.856 67.251 27.856s50.040-10.645 67.251-27.856l403.456-403.456c17.211-17.211 27.856-40.988 27.856-67.251s-10.645-50.040-27.856-67.251l-403.456-403.456c-17.163-17.207-40.897-27.853-67.117-27.853-0.045 0-0.091 0-0.136 0h0.007c-0.057 0-0.125 0-0.192 0-26.192 0-49.904 10.621-67.064 27.791v0z" />
<glyph unicode="&#xe939;" glyph-name="arrow-up" d="M979.569 179.118c-17.211-17.211-40.988-27.856-67.251-27.856s-50.040 10.645-67.251 27.856l-336.241 336.251-336.241-336.251c-17.211-17.208-40.986-27.851-67.246-27.851s-50.035 10.643-67.246 27.851v0c-17.211 17.211-27.856 40.988-27.856 67.251s10.645 50.040 27.856 67.251l403.456 403.456c17.211 17.211 40.988 27.856 67.251 27.856s50.040-10.645 67.251-27.856l403.456-403.456c17.207-17.163 27.853-40.897 27.853-67.117 0-0.045 0-0.091 0-0.136v0.007c0-0.057 0-0.125 0-0.192 0-26.192-10.621-49.904-27.791-67.064v0z" />
<glyph unicode="&#xe93a;" glyph-name="at" d="M504.228 586.742c65.69 0 106.824-54.641 106.824-143.043s-41.134-143.053-107.438-143.053c-64.461 0-103.137 54.026-103.137 143.043 0 89.641 38.676 143.053 103.752 143.053zM524.483 960c-306.34 0-519.393-207.503-519.393-512 0-317.44 218.552-512 529.193-512 1.978-0.022 4.314-0.034 6.653-0.034 60.534 0 119.129 8.304 174.708 23.834l-4.557-1.087v98.222c-34.97-12.892-101.837-21.504-167.567-21.504-252.928 0-425.441 151.020-425.441 409.477 0 246.784 165.755 417.454 402.115 417.454 232.673 0 386.765-144.271 386.765-367.729 0-130.765-41.748-207.503-101.908-207.503-38.676 0-58.368 27.013-58.368 69.376v328.458h-124.59v-73.667h-8.591c-23.941 54.026-79.196 87.173-145.5 87.173-122.778 0-206.848-101.908-206.848-251.085 0-155.935 85.33-259.686 212.992-259.686 71.209 0 122.778 33.147 147.948 94.546h8.591c13.507-59.546 71.823-96.379 147.948-96.379 149.791 0 241.265 124.621 241.265 318.003-0.020 273.183-204.421 456.131-495.411 456.131z" />
<glyph unicode="&#xe93b;" d="M719.247 380.14l275.577-275.577c35.123-35.123 35.123-92.068 0-127.191s-92.068-35.123-127.191 0v0l-275.577 275.577z" />
<glyph unicode="&#xe93c;" d="M734.945 228.745c-166.447-166.136-436.034-166.040-602.347 0.273-123.967 123.967-155.585 305.314-94.852 458.55l1.201 2.704c19.59 49.628 51.162 98.674 93.512 141.024 166.411 166.411 436.216 166.411 602.626 0 124.061-124.061 155.633-305.587 94.717-458.896l-1.205-2.706c-19.462-49.364-50.848-98.147-92.964-140.263-0.242-0.242-0.483-0.483-0.725-0.724l0.037 0.037zM242.695 720.994c-105.482-105.499-105.477-276.531 0.014-382.023 105.497-105.497 276.541-105.497 382.038 0 105.492 105.492 105.497 276.524 0.015 382.022l-0.001 0.001c-105.577 105.321-276.479 105.314-382.034-0.011l-0.011-0.011z" />
<glyph unicode="&#xe93d;" d="M291.84 130.56c-31.105 0-56.32 25.215-56.32 56.32v0c0 31.105 25.215 56.32 56.32 56.32v0h675.84c31.105 0 56.32-25.215 56.32-56.32v0c0-31.105-25.215-56.32-56.32-56.32v0zM291.84 386.56c-31.105 0-56.32 25.215-56.32 56.32v0c0 31.105 25.215 56.32 56.32 56.32v0h675.84c31.105 0 56.32-25.215 56.32-56.32v0c0-31.105-25.215-56.32-56.32-56.32v0zM291.84 642.56c-31.105 0-56.32 25.215-56.32 56.32v0c0 31.105 25.215 56.32 56.32 56.32v0h675.84c31.105 0 56.32-25.215 56.32-56.32v0c0-31.105-25.215-56.32-56.32-56.32v0z" />
<glyph unicode="&#xe93e;" d="M0 186.88c0 42.415 34.385 76.8 76.8 76.8v0c42.415 0 76.8-34.385 76.8-76.8v0c0-42.415-34.385-76.8-76.8-76.8v0c-42.415 0-76.8 34.385-76.8 76.8v0zM0 442.88c0 42.415 34.385 76.8 76.8 76.8v0c42.415 0 76.8-34.385 76.8-76.8v0c0-42.415-34.385-76.8-76.8-76.8v0c-42.415 0-76.8 34.385-76.8 76.8v0zM0 698.88c0 42.415 34.385 76.8 76.8 76.8v0c42.415 0 76.8-34.385 76.8-76.8v0c0-42.415-34.385-76.8-76.8-76.8v0c-42.415 0-76.8 34.385-76.8 76.8v0z" />
<glyph unicode="&#xe93f;" glyph-name="pencil" d="M919.172 532.275c-0.098-0.060-0.214-0.13-0.331-0.197-6.349-3.665-14.432-1.604-18.269 4.581l-0.011 0.018-85.217 147.601c-3.441 6.433-1.184 14.458 5.162 18.121 0.117 0.068 0.235 0.134 0.354 0.197l-0.017-0.009 60.259 34.79c0.506 0.314 1.107 0.674 1.716 1.025 31.724 18.316 72.116 8.023 91.299-22.873l0.056-0.091 32.768-56.756c17.217-32.156 5.935-72.282-25.789-90.598-0.609-0.351-1.221-0.692-1.835-1.023l0.090 0.049zM202.63 118.579c-0.006-0.003-0.013-0.008-0.020-0.012-0.371-0.214-0.748-0.406-1.131-0.577l0.047 0.022c-0.355-0.205-0.688-0.468-1.042-0.673-0.007-0.004-0.015-0.009-0.023-0.013-1.942-1.121-4.056-1.676-6.15-1.715l0.074 0.004-181.13-4.39c-2.885-0.078-5.669 0.875-7.856 2.702l-0.063 0.057s0 0 0 0c-0.053 0.054-0.102 0.096-0.153 0.135l0.008-0.007s-0.041 0.071-0.067 0.115l-0.046 0.080c-0.036 0.062-0.067 0.115-0.156 0.147s0 0 0 0c-0.609 0.581-1.203 1.313-1.704 2.133l-0.007 0.012-0.046 0.080c-0.015 0.021-0.031 0.047-0.047 0.074s-0.029 0.053-0.042 0.081l0.002-0.003c-0.015 0.021-0.031 0.047-0.046 0.074s-0.029 0.053-0.042 0.081l0.002-0.004-0.041 0.071c-0.519 0.946-0.879 1.926-1.094 2.921l0.020-0.077c-0.009 0.063-0.025 0.14-0.046 0.217l-0.004 0.014-0.036 0.062-0.038 0.167-0.027 0.15-0.041 0.071-0.029 0.255c-0.229 1.774-0.057 3.485 0.469 5.084l0.005 0.014 0.046 0.145 0.066 0.192c0.291 0.805 0.681 1.6 1.158 2.347l0.042 0.060 94.224 154.444c1.049 1.832 2.633 3.471 4.658 4.64 0.158 0.091 0.316 0.178 0.476 0.262l-0.023-0.012 657.375 379.535c0.095 0.059 0.208 0.126 0.322 0.192 6.35 3.666 14.435 1.607 18.277-4.576l0.011-0.018 85.217-147.601c3.441-6.433 1.184-14.458-5.162-18.121-0.117-0.068-0.235-0.134-0.354-0.197l0.017 0.009-655.867-378.665zM194.723 139.093l-0.766 46.239-41.958 17.562 5.77 45.118-39.656 23.774-48.447-79.394 32.077-55.559zM297.193 328.202c5.642-9.064 17.466-12.072 26.753-6.709 0.168 0.097 0.335 0.197 0.499 0.298l-0.024-0.015 434.776 251.018c0.145 0.078 0.314 0.173 0.483 0.27 9.288 5.362 12.595 17.105 7.582 26.495l-0.015 0.028c-5.645 9.058-17.463 12.061-26.748 6.701-0.168-0.097-0.335-0.197-0.5-0.298l0.024 0.015-434.812-251.039c-0.15-0.081-0.325-0.178-0.499-0.279-9.302-5.37-12.602-17.144-7.547-26.539l0.014-0.026z" />
<glyph unicode="&#xe940;" d="M787.794 50.217h114.217c0-63.086-51.141-114.227-114.227-114.227v0zM237.107-64c-63.082 0-114.221 51.135-114.227 114.216v0h664.914v-114.227zM787.794 50.217v550.687h-150.866c-11.311 0-20.48 9.169-20.48 20.48v0 73.257c0 11.311 9.169 20.48 20.48 20.48v0h150.866c63.086 0 114.227-51.141 114.227-114.227v0-550.687zM122.89 50.217v550.687c0 63.082 51.135 114.221 114.216 114.227h150.846c11.311 0 20.48-9.169 20.48-20.48v0-73.257c0-11.311-9.169-20.48-20.48-20.48v0h-150.845v-550.687z" />
<glyph unicode="&#xe941;" d="M639.631 793.098c-6.66-6.658-15.859-10.776-26.020-10.776s-19.36 4.118-26.020 10.776l-42.824 42.834v-334.838c0-20.325-16.477-36.803-36.803-36.803v0c-0.003 0-0.007 0-0.010 0-20.32 0-36.792 16.472-36.792 36.792 0 0.004 0 0.007 0 0.011v331.704l-39.7-39.7c-6.66-6.658-15.859-10.776-26.020-10.776s-19.36 4.118-26.020 10.776v0c-6.658 6.66-10.776 15.859-10.776 26.020s4.118 19.36 10.776 26.020l104.090 104.090c6.66 6.658 15.859 10.776 26.020 10.776s19.36-4.118 26.020-10.776l104.079-104.079c6.655-6.641 10.773-15.822 10.773-25.966 0-0.019 0-0.038 0-0.057v0.003c0-0.017 0-0.036 0-0.056 0-10.146-4.117-19.33-10.772-25.974l-0.001-0.001z" />
<glyph unicode="&#xe942;" glyph-name="tools" d="M14.213-48.64v0l-0.215 0.102-0.246 0.123c-0.086 0.037-0.16 0.078-0.23 0.126l0.004-0.003c-0.992 0.561-1.849 1.199-2.617 1.93l-0.077 0.077c-0.053 0.041-0.1 0.084-0.142 0.132l-0.001 0.001-0.143 0.154-0.061 0.061c-0.81 0.84-1.508 1.797-2.066 2.84l-0.033 0.068c0 0.082-0.082 0.174-0.133 0.246-0.001 0.012-0.001 0.027-0.001 0.041s0 0.029 0.001 0.043v-0.002l-0.092 0.184-0.082 0.174c-0.001 0.014-0.001 0.030-0.001 0.046s0 0.032 0.001 0.048v-0.002c0 0.102-0.082 0.184-0.123 0.287-0.661 1.538-1.045 3.328-1.045 5.208 0 0.268 0.008 0.534 0.023 0.798l-0.002-0.036c0 0.051 0 0.113 0 0.174-0.002 0.035-0.003 0.076-0.003 0.118s0.001 0.083 0.004 0.123v-0.006c0.105 1.135 0.326 2.178 0.653 3.173l-0.029-0.101 60.416 205.445c0.839 2.781 2.372 5.141 4.399 6.961l0.014 0.012c0.174 0.195 0.358 0.399 0.563 0.594l634.767 634.767c2.928 3.094 7.064 5.020 11.649 5.020 4.249 0 8.111-1.653 10.979-4.352l142.645-142.635c2.685-2.86 4.335-6.72 4.335-10.966 0-4.587-1.926-8.725-5.014-11.648l-633.924-633.566c-0.379-0.369-0.737-0.696-1.085-1.024s-0.645-0.737-1.024-1.085c-1.738-1.741-3.898-3.061-6.313-3.792l-0.107-0.028-205.752-60.508c-1.218-0.377-2.618-0.594-4.069-0.594-0.010 0-0.019 0-0.029 0h0.001c-0.018 0-0.039 0-0.060 0-2.082 0-4.055 0.468-5.818 1.305l0.082-0.035zM63.744 60.713l53.688-53.699 105.615 31.068-15.043 52.634-53.35 7.229-7.229 53.35-52.634 15.043zM703.468 738.959l-420.198-420.198c-4.535-4.285-7.358-10.341-7.358-17.057 0-6.205 2.41-11.847 6.345-16.041l-0.012 0.013c4.182-3.926 9.827-6.339 16.034-6.339 6.718 0 12.776 2.825 17.051 7.351l420.209 420.209c4.533 4.288 7.354 10.346 7.354 17.062 0 6.206-2.409 11.849-6.342 16.046l0.012-0.013c-3.96 3.925-9.412 6.35-15.43 6.35-0.069 0-0.138 0-0.206-0.001h0.011c-6.826-0.040-12.992-2.835-17.447-7.33l-0.002-0.002zM832.696-39.281l-292.024 292.045 91.617 91.607 9.574-9.585c1.841-1.847 4.388-2.99 7.202-2.99 0.013 0 0.027 0 0.040 0h-0.002c0.002 0 0.005 0 0.008 0 2.823 0 5.379 1.142 7.232 2.99v0l67.697 67.697 79.647-79.647-67.686-67.697c-1.852-1.853-2.998-4.413-2.998-7.24s1.146-5.387 2.998-7.24v0l21.76-21.729c1.841-1.847 4.388-2.99 7.202-2.99 0.013 0 0.027 0 0.040 0h-0.002c0.002 0 0.005 0 0.008 0 2.823 0 5.379 1.142 7.232 2.99v0l67.697 67.697 79.647-79.647-67.686-67.686c-1.853-1.841-3-4.39-3-7.208 0-0.011 0-0.022 0-0.033v0.002c0-0.007 0-0.015 0-0.023 0-2.82 1.147-5.373 3-7.216v0l21.719-21.719c1.84-1.847 4.385-2.99 7.198-2.99 0.015 0 0.029 0 0.044 0h-0.002c0.002 0 0.005 0 0.008 0 2.823 0 5.379 1.142 7.232 2.99v0l67.697 67.686 43.459-43.459c5.554-5.527 8.991-13.178 8.991-21.631 0-0.031 0-0.062 0-0.093v0.005c0-0.023 0-0.049 0-0.076 0-8.457-3.437-16.111-8.99-21.642l-123.086-123.086c-5.531-5.554-13.183-8.991-21.639-8.991-0.035 0-0.071 0-0.106 0h0.005c-0.046 0-0.1 0-0.154 0-8.431 0-16.064 3.421-21.585 8.95v0zM322.744 470.723l-300.974 300.964c-5.548 5.519-8.981 13.158-8.981 21.599 0 0.042 0 0.084 0 0.126v-0.007c0 0.031 0 0.068 0 0.105 0 8.448 3.437 16.092 8.989 21.612l123.096 123.096c5.521 5.554 13.166 8.991 21.614 8.991 0.034 0 0.067 0 0.1 0h-0.005c0.031 0 0.068 0 0.105 0 8.448 0 16.092-3.437 21.612-8.989l36.189-36.189-67.697-67.697c-1.852-1.853-2.998-4.413-2.998-7.24s1.146-5.387 2.998-7.24l21.719-21.719c1.84-1.847 4.385-2.99 7.198-2.99 0.015 0 0.029 0 0.044 0h-0.002c0.002 0 0.005 0 0.008 0 2.823 0 5.379 1.142 7.232 2.99v0l67.697 67.686 79.647-79.647-67.686-67.697c-1.853-1.844-3-4.396-3-7.216 0-0.012 0-0.024 0-0.035v0.002c0-0.005 0-0.011 0-0.017 0-2.819 1.147-5.37 3-7.212l21.72-21.72c1.84-1.847 4.385-2.99 7.198-2.99 0.015 0 0.029 0 0.044 0h-0.002c0.002 0 0.005 0 0.008 0 2.823 0 5.379 1.142 7.232 2.99v0l67.697 67.686 79.647-79.647-67.686-67.697c-1.855-1.853-3.003-4.415-3.003-7.245s1.148-5.391 3.003-7.245v0l21.719-21.719c1.429-1.425 3.277-2.431 5.343-2.816l0.063-0.010-92.887-92.887zM908.339 708.915l-142.653 142.643c-2.696 2.86-4.354 6.725-4.354 10.977 0 4.588 1.93 8.726 5.022 11.646l0.008 0.007 58.235 58.235c14.638 15.483 35.321 25.119 58.254 25.119 21.251 0 40.569-8.275 54.908-21.778l-0.041 0.038 54.866-54.876c13.47-14.297 21.748-33.616 21.748-54.868 0-22.929-9.636-43.608-25.079-58.207l-0.038-0.035-58.235-58.245c-3.044-3.081-7.26-4.998-11.924-5.028h-0.006c-0.036 0-0.078 0-0.12 0-4.159 0-7.923 1.691-10.642 4.424l-0.001 0.001z" />
<glyph unicode="&#xe943;" d="M206.612 852.623h611.082v-865.423c0-28.277-22.923-51.2-51.2-51.2v0h-508.682c-28.277 0-51.2 22.923-51.2 51.2v0z" />
<glyph unicode="&#xe944;" d="M645.12 53.76v686.080c0 8.483 6.877 15.36 15.36 15.36v0c8.483 0 15.36-6.877 15.36-15.36v0-686.080c0-8.483-6.877-15.36-15.36-15.36v0c-8.483 0-15.36 6.877-15.36 15.36v0zM496.64 53.76v686.080c0 8.483 6.877 15.36 15.36 15.36v0c8.483 0 15.36-6.877 15.36-15.36v0-686.080c0-8.483-6.877-15.36-15.36-15.36v0c-8.483 0-15.36 6.877-15.36 15.36v0zM348.16 53.76v686.080c0 8.483 6.877 15.36 15.36 15.36v0c8.483 0 15.36-6.877 15.36-15.36v0-686.080c0-8.483-6.877-15.36-15.36-15.36v0c-8.483 0-15.36 6.877-15.36 15.36v0zM184.32 852.623c-11.311 0-20.48 9.169-20.48 20.48v0 44.585c0 11.311 9.169 20.48 20.48 20.48v0h210.094c15.853 7.962 34.636 15.387 54.119 21.188l2.518 0.644h122.225c22.001-6.441 40.784-13.863 58.711-22.752l-2.074 0.93h210.094c11.311 0 20.48-9.169 20.48-20.48v0-44.585c0-11.311-9.169-20.48-20.48-20.48v0z" />
<glyph unicode="&#xe945;" d="M972.8 120.32h-921.6c-28.263 0.035-51.165 22.937-51.2 51.197v542.723c0.035 28.263 22.937 51.165 51.197 51.2h921.603c28.263-0.035 51.165-22.937 51.2-51.197v-542.723c-0.029-28.265-22.935-51.171-51.197-51.2h-0.003zM180.224 329.953c-20.818 0-48.65-2.355-63.078-13.548-15.053-11.674-24.689-42.844-24.781-43.162-0.117-0.528-0.183-1.134-0.183-1.756 0-1.715 0.508-3.311 1.381-4.646l-0.020 0.032c2.191-3.758 8.059-8.909 23.552-12.124 40.976-7.413 88.137-11.651 136.288-11.651 4.467 0 8.925 0.036 13.375 0.109l-0.671-0.009c3.737-0.063 8.146-0.098 12.564-0.098 48.183 0 95.375 4.245 141.222 12.382l-4.845-0.713c9.496 0.759 17.813 5.258 23.574 12.005l0.040 0.048c1.038 1.453 1.659 3.266 1.659 5.224 0 0.429-0.030 0.852-0.088 1.265l0.005-0.048c-0.102 0.307-10.004 31.365-25.201 43.162-14.418 11.203-42.26 13.548-63.078 13.548-14.899 0-26.184-1.208-26.286-1.219-17.505-6.364-37.779-10.741-58.848-12.246l-0.728-0.042c-21.795 1.54-42.070 5.918-61.157 12.784l1.581-0.496c-0.102 0-11.571 1.208-26.276 1.208zM624.64 355.84c-5.655 0-10.24-4.585-10.24-10.24v0-20.48c0-5.655 4.585-10.24 10.24-10.24v0h307.2c5.655 0 10.24 4.585 10.24 10.24v0 20.48c0 5.655-4.585 10.24-10.24 10.24v0zM266.004 591.36c-61.387-0.076-111.131-49.819-111.206-111.199v-0.007c0.070-61.392 49.816-111.141 111.199-111.217h0.007c61.393 0.076 111.141 49.824 111.217 111.209v0.007c-0.076 61.391-49.825 111.137-111.21 111.206h-0.007zM624.64 448c-5.655 0-10.24-4.585-10.24-10.24v0-20.48c0-5.655 4.585-10.24 10.24-10.24v0h307.2c5.655 0 10.24 4.585 10.24 10.24v0 20.48c0 5.655-4.585 10.24-10.24 10.24v0zM624.64 540.16c-5.655 0-10.24-4.585-10.24-10.24v0-20.48c0-5.655 4.585-10.24 10.24-10.24v0h307.2c5.655 0 10.24 4.585 10.24 10.24v0 20.48c0 5.655-4.585 10.24-10.24 10.24v0z" />
<glyph unicode="&#xe946;" d="M51.2 765.44h921.6c28.277 0 51.2-22.923 51.2-51.2v0-51.2h-1024v51.2c0 28.277 22.923 51.2 51.2 51.2v0z" />
<glyph unicode="&#xe947;" d="M853.33 1.864h-341.33l341.156 590.858h-682.301l341.146-590.868h-341.32l-170.68 295.619 170.67 295.598 0.092-0.154 170.578 295.424 170.66-295.619-170.67 295.598h341.32l170.588-295.444 0.092 0.174 170.67-295.578-170.66-295.598z" />
<glyph unicode="&#xe948;" d="M512.020 1.905v0l-170.568 295.424-0.092-0.174-170.691 295.598h0.246l-0.266 0.451h340.992l0.358 0.614 0.41-0.727h340.9l-341.289-591.217zM341.535 297.503h341.135l-0.399 0.727h-0.328l-169.912 294.308-169.923-294.308h-0.133z" />
<glyph unicode="&#xe949;" glyph-name="arrow-down-left" d="M296.202 58.071l-267.090 267.090c-17.092 17.088-27.664 40.697-27.664 66.775s10.572 49.687 27.664 66.775l267.090 267.1c17.090 17.087 40.698 27.655 66.775 27.655s49.685-10.568 66.775-27.655v0c17.087-17.090 27.655-40.698 27.655-66.775s-10.568-49.685-27.655-66.775l-105.892-105.881h511.273v283.31c0.006 52.155 42.287 94.433 94.444 94.433v0c52.15-0.006 94.423-42.283 94.423-94.433v-377.733c0-0.003 0-0.007 0-0.010 0-52.15-42.273-94.427-94.423-94.433h-605.737l105.912-105.912c17.085-17.085 27.653-40.688 27.653-66.76s-10.567-49.674-27.653-66.76v0c-17.054-17.081-40.628-27.648-66.67-27.648-0.044 0-0.088 0-0.132 0h0.007c-0.046 0-0.1 0-0.154 0-26.018 0-49.57 10.564-66.599 27.636l-0.002 0.002z" />
<glyph unicode="&#xe94a;" glyph-name="arrow-down-right" d="M729.242 58.071l267.090 267.090c17.092 17.088 27.664 40.697 27.664 66.775s-10.572 49.687-27.664 66.775l-267.090 267.1c-17.090 17.087-40.698 27.655-66.775 27.655s-49.685-10.568-66.775-27.655v0c-17.087-17.090-27.655-40.698-27.655-66.775s10.568-49.685 27.655-66.775l105.892-105.881h-511.273v283.31c-0.006 52.155-42.287 94.433-94.444 94.433v0c-52.15-0.006-94.423-42.283-94.423-94.433v-377.733c0-0.003 0-0.007 0-0.010 0-52.15 42.273-94.427 94.423-94.433h605.737l-105.912-105.912c-17.085-17.085-27.653-40.688-27.653-66.76s10.567-49.674 27.653-66.76v0c17.054-17.081 40.628-27.648 66.67-27.648 0.044 0 0.088 0 0.132 0h-0.007c0.046 0 0.1 0 0.154 0 26.018 0 49.57 10.564 66.599 27.636l0.002 0.002z" />
<glyph unicode="&#xe94b;" glyph-name="arrow-up-left" d="M296.202 836.475l-267.090-267.090c-17.092-17.088-27.664-40.697-27.664-66.775s10.572-49.687 27.664-66.775l267.090-267.1c17.090-17.087 40.698-27.655 66.775-27.655s49.685 10.568 66.775 27.655v0c17.087 17.090 27.655 40.698 27.655 66.775s-10.568 49.685-27.655 66.775l-105.892 105.881h511.273v-283.31c0.006-52.155 42.287-94.433 94.444-94.433v0c52.15 0.006 94.423 42.283 94.423 94.433v377.733c0 0.003 0 0.007 0 0.010 0 52.15-42.273 94.427-94.423 94.433h-605.737l105.912 105.912c17.085 17.085 27.653 40.688 27.653 66.76s-10.567 49.674-27.653 66.76v0c-17.054 17.081-40.628 27.648-66.67 27.648-0.044 0-0.088 0-0.132 0h0.007c-0.046 0-0.1 0-0.154 0-26.018 0-49.57-10.564-66.599-27.636l-0.002-0.002z" />
<glyph unicode="&#xe94c;" glyph-name="arrow-up-right" d="M729.242 836.475l267.090-267.090c17.092-17.088 27.664-40.697 27.664-66.775s-10.572-49.687-27.664-66.775l-267.090-267.1c-17.090-17.087-40.698-27.655-66.775-27.655s-49.685 10.568-66.775 27.655v0c-17.087 17.090-27.655 40.698-27.655 66.775s10.568 49.685 27.655 66.775l105.892 105.881h-511.273v-283.31c-0.006-52.155-42.287-94.433-94.444-94.433v0c-52.15 0.006-94.423 42.283-94.423 94.433v377.733c0 0.003 0 0.007 0 0.010 0 52.15 42.273 94.427 94.423 94.433h605.737l-105.912 105.912c-17.085 17.085-27.653 40.688-27.653 66.76s10.567 49.674 27.653 66.76v0c17.054 17.081 40.628 27.648 66.67 27.648 0.044 0 0.088 0 0.132 0h-0.007c0.046 0 0.1 0 0.154 0 26.018 0 49.57-10.564 66.599-27.636l0.002-0.002z" />
<glyph unicode="&#xe94d;" d="M261.632 556.452l-76.186-274.145h-79.237l-106.209 401.213h87.040l63.109-290.55h2.222l75.069 290.55h70.902l75.069-290.55h2.222l63.396 290.55h87.040l-106.496-401.203h-79.258l-76.186 274.145zM655.053 282.307h-83.968v401.213h83.968zM721.777 683.51h163.205c1.717 0.077 3.731 0.121 5.755 0.121 36.765 0 70.156-14.449 94.804-37.978l-0.054 0.051c23.879-24.074 38.635-57.228 38.635-93.828 0-2.006-0.044-4.002-0.132-5.987l0.010 0.282c0.067-1.566 0.105-3.402 0.105-5.248 0-36.926-15.263-70.288-39.824-94.12l-0.033-0.032c-25.511-23.6-59.763-38.076-97.397-38.076-2.12 0-4.229 0.046-6.327 0.137l0.299-0.010h-75.080v-126.505h-83.968zM805.745 617.062v-142.623h56.719c1.47-0.097 3.188-0.153 4.918-0.153 19.591 0 37.523 7.102 51.361 18.873l-0.113-0.094c12.449 12.421 20.151 29.596 20.151 48.57 0 1.498-0.048 2.985-0.143 4.459l0.010-0.201c0.086 1.284 0.135 2.784 0.135 4.295 0 18.909-7.671 36.026-20.072 48.409l-0.001 0.001c-13.671 11.562-31.499 18.59-50.969 18.59-1.76 0-3.507-0.057-5.239-0.171l0.236 0.012z" />
<glyph unicode="&#xe94e;" d="M15.36 243.2h993.28c8.483 0 15.36-6.877 15.36-15.36s-6.877-15.36-15.36-15.36v0h-993.28c-8.483 0-15.36 6.877-15.36 15.36s6.877 15.36 15.36 15.36v0z" />
<glyph unicode="&#xe94f;" glyph-name="checkmark" d="M301.171 164.527l-264.962 264.962c-19.995 19.995-19.995 52.413 0 72.408v0l27.986 27.986c19.995 19.995 52.413 19.995 72.408 0v0l264.962-264.962 490.845 490.845c19.995 19.995 52.413 19.995 72.408 0v0l27.986-27.986c19.995-19.995 19.995-52.413 0-72.408v0l-555.027-555.027c-19.995-19.995-52.413-19.995-72.408 0v0z" />
<glyph unicode="&#xe950;" glyph-name="code" d="M134.472 438.948q68.301-8.192 104.059-45.271t35.748-100.178v-119.757q0-61.921 21.074-87.91t71.772-25.999h23.48v-123.843h-39.485q-118.467 0-171.827 52.572t-53.361 168.243v91.136q0 64.256-28.815 91.423t-97.116 27.73v162.386q68.301 0.584 97.116 27.75t28.815 91.423v93.46q0 114.493 53.361 166.185t171.827 51.692h39.485v-123.832h-23.48q-50.688 0-71.772-25.999t-21.074-87.9v-119.173q0-63.089-35.748-100.178t-104.059-45.271zM889.528 438.948v18.688q-68.301 8.192-104.059 45.271t-35.748 100.178v119.173q0 61.921-21.074 87.91t-71.772 25.989h-23.45v123.843h39.485q118.999 0 172.36-51.692t53.371-166.195v-93.46q0-64.256 28.549-91.423t96.85-27.75v-162.386q-68.833-0.584-97.116-27.453t-28.283-91.136v-89.375q0-116.828-53.627-169.984t-172.093-53.156h-39.496v123.843h23.45q50.176 0 71.506 25.999t21.34 87.327v119.747q0 63.672 36.014 100.762t103.793 45.281z" />
<glyph unicode="&#xe951;" glyph-name="components" d="M311.48 106.445l-291.369 291.359c-12.425 12.428-20.11 29.596-20.11 48.558s7.685 36.13 20.11 48.558l291.379 291.359c12.39 12.43 29.529 20.122 48.464 20.122 0.030 0 0.059 0 0.089 0h-0.005c0.027 0 0.060 0 0.092 0 18.934 0 36.072-7.687 48.465-20.11l0.001-0.001c12.426-12.43 20.111-29.599 20.111-48.563s-7.685-36.134-20.111-48.563l-242.801-242.801 242.801-242.801c12.422-12.428 20.105-29.593 20.105-48.553s-7.683-36.126-20.105-48.553v0c-12.393-12.431-29.535-20.122-48.472-20.122-0.030 0-0.060 0-0.091 0h0.005c-0.030 0-0.065 0-0.1 0-18.931 0-36.067 7.687-48.456 20.11l-0.002 0.002zM615.404 106.445c-12.425 12.428-20.11 29.596-20.11 48.558s7.685 36.13 20.11 48.558l242.801 242.801-242.801 242.801c-12.423 12.429-20.106 29.596-20.106 48.558s7.683 36.129 20.106 48.558v0c12.429 12.428 29.598 20.115 48.563 20.115s36.135-7.687 48.563-20.115l291.359-291.359c12.426-12.43 20.111-29.599 20.111-48.563s-7.685-36.134-20.111-48.563l-291.359-291.359c-12.396-12.431-29.54-20.122-48.481-20.122-0.027 0-0.055 0-0.082 0h0.004c-0.016 0-0.034 0-0.053 0-18.947 0-36.096 7.695-48.493 20.13l-0.002 0.002z" />
<glyph unicode="&#xe952;" glyph-name="dot" d="M389.12 448c0 67.865 55.015 122.88 122.88 122.88v0c67.865 0 122.88-55.015 122.88-122.88v0c0-67.865-55.015-122.88-122.88-122.88v0c-67.865 0-122.88 55.015-122.88 122.88v0z" />
<glyph unicode="&#xe953;" glyph-name="dots" d="M778.24 448c0 67.865 55.015 122.88 122.88 122.88v0c67.865 0 122.88-55.015 122.88-122.88v0c0-67.865-55.015-122.88-122.88-122.88v0c-67.865 0-122.88 55.015-122.88 122.88v0zM389.12 448c0 67.865 55.015 122.88 122.88 122.88v0c67.865 0 122.88-55.015 122.88-122.88v0c0-67.865-55.015-122.88-122.88-122.88v0c-67.865 0-122.88 55.015-122.88 122.88v0zM0 448c0 67.865 55.015 122.88 122.88 122.88v0c67.865 0 122.88-55.015 122.88-122.88v0c0-67.865-55.015-122.88-122.88-122.88v0c-67.865 0-122.88 55.015-122.88 122.88v0z" />
<glyph unicode="&#xe954;" glyph-name="farm" d="M542.126-20.644h-240.947v481.874c0 16.384 42.301 96.563 60.232 120.474 18.432 24.576 91.75 103.229 120.474 120.474 30.034 18.012 127.724 60.232 180.695 60.232 29.839 0 70.001-12.442 98.427-22.876 32.030-11.547 59.173-24.139 85.007-38.772l-2.718 1.416c33.239-19.948 103.311-91.863 120.474-120.474 32.024-51.697 53.561-113.106 60.090-178.929l0.142-1.766c8.888-88.945 0.092-418.314 0-421.632h-240.947v180.705h-240.927v-180.705zM573.44 522.076v-184.32h184.32v184.32zM263.168-20.644h-263.168v806.564c0 0.112-0.001 0.244-0.001 0.376 0 36.645 14.907 69.807 38.988 93.755l0.006 0.006c23.955 24.081 57.117 38.984 93.759 38.984 0.129 0 0.258 0 0.387-0.001h34.919c0.108 0 0.235 0 0.363 0 36.649 0 69.815-14.907 93.767-38.989l0.006-0.006c24.081-23.957 38.984-57.12 38.984-93.763 0-0.128 0-0.255-0.001-0.383v0.020c0.102-2.048 10.076-201.8 0-226.437-8.192-20.081-23.552-48.804-32.686-65.966v-0.092c-2.15-4.024-3.994-7.496-5.263-9.933-6.441-12.421-0.061-499.2 0-504.115z" />
<glyph unicode="&#xe955;" d="M921.6 243.2h-819.2c-56.528 0.064-102.336 45.872-102.4 102.394v204.806c0.070 56.526 45.874 102.33 102.393 102.4h819.207c56.526-0.070 102.33-45.874 102.4-102.393v-204.807c-0.064-56.528-45.872-102.336-102.394-102.4h-0.006zM112.64 601.6c-33.916-0.041-61.399-27.524-61.44-61.436v-184.324c0.041-33.916 27.524-61.399 61.436-61.44h798.724c33.916 0.041 61.399 27.524 61.44 61.436v184.324c-0.041 33.916-27.524 61.399-61.436 61.44h-0.004z" />
<glyph unicode="&#xe956;" d="M273.316 391.311c-0.246-0.004-0.536-0.006-0.827-0.006-15.885 0-30.217 6.646-40.368 17.309l-0.022 0.023c-10.536 10.354-17.065 24.756-17.065 40.683 0 0.277 0.002 0.554 0.006 0.831v-0.042c-0.003 0.205-0.004 0.446-0.004 0.689 0 16.042 6.523 30.56 17.062 41.047l0.002 0.002c10.122 10.841 24.499 17.598 40.453 17.598 0.268 0 0.536-0.002 0.803-0.006h-0.040c0.265 0.004 0.579 0.007 0.892 0.007 16.154 0 30.733-6.747 41.071-17.577l0.021-0.022c10.696-10.444 17.329-25.009 17.329-41.123 0-0.216-0.001-0.433-0.004-0.649v0.033c0.003-0.213 0.005-0.465 0.005-0.717 0-15.999-6.64-30.447-17.313-40.739l-0.017-0.016c-10.404-10.697-24.934-17.334-41.015-17.334-0.341 0-0.681 0.003-1.020 0.009l0.051-0.001zM506.419 391.311c-0.246-0.004-0.536-0.006-0.827-0.006-15.885 0-30.217 6.646-40.368 17.309l-0.022 0.023c-10.536 10.354-17.065 24.756-17.065 40.683 0 0.277 0.002 0.554 0.006 0.831v-0.042c-0.003 0.205-0.004 0.446-0.004 0.689 0 16.042 6.523 30.56 17.062 41.047l0.002 0.002c10.122 10.841 24.499 17.598 40.454 17.598 0.279 0 0.557-0.002 0.835-0.006h-0.042c0.265 0.004 0.579 0.007 0.892 0.007 16.154 0 30.733-6.747 41.071-17.577l0.021-0.022c10.684-10.443 17.309-24.999 17.309-41.103 0-0.223-0.001-0.447-0.004-0.669v0.034c0.003-0.219 0.005-0.477 0.005-0.736 0-15.989-6.631-30.429-17.294-40.72l-0.017-0.016c-10.404-10.697-24.934-17.334-41.015-17.334-0.341 0-0.681 0.003-1.020 0.009l0.051-0.001zM739.523 391.311c-0.246-0.004-0.536-0.006-0.827-0.006-15.885 0-30.217 6.646-40.368 17.309l-0.022 0.023c-10.536 10.354-17.065 24.756-17.065 40.683 0 0.277 0.002 0.554 0.006 0.831v-0.042c-0.003 0.205-0.004 0.446-0.004 0.689 0 16.042 6.523 30.56 17.062 41.047l0.002 0.002c10.122 10.841 24.499 17.598 40.453 17.598 0.268 0 0.536-0.002 0.803-0.006h-0.040c0.265 0.004 0.579 0.007 0.892 0.007 16.154 0 30.733-6.747 41.071-17.577l0.021-0.022c10.696-10.444 17.329-25.009 17.329-41.123 0-0.216-0.001-0.433-0.004-0.649v0.033c0.003-0.213 0.005-0.465 0.005-0.717 0-15.999-6.64-30.447-17.313-40.739l-0.017-0.016c-10.404-10.697-24.934-17.334-41.015-17.334-0.344 0-0.688 0.003-1.031 0.009l0.052-0.001z" />
<glyph unicode="&#xe957;" d="M30.72 57.764c-16.966 0-30.72 13.754-30.72 30.72v0 552.96c0 16.966 13.754 30.72 30.72 30.72v0h962.56c16.966 0 30.72-13.754 30.72-30.72v0-552.96c0-16.966-13.754-30.72-30.72-30.72v0zM51.2 610.724v-491.52c0-5.655 4.585-10.24 10.24-10.24v0h901.12c5.655 0 10.24 4.585 10.24 10.24v0 491.52c0 5.655-4.585 10.24-10.24 10.24v0h-901.12c-5.655 0-10.24-4.585-10.24-10.24v0zM469.924 805.284c0 0.003 0 0.007 0 0.010 0 23.232 18.834 42.066 42.066 42.066 0.004 0 0.007 0 0.011 0h-0.001c23.232 0 42.066-18.834 42.066-42.066 0-0.004 0-0.007 0-0.011v0.001c0-0.003 0-0.007 0-0.010 0-23.227-18.829-42.056-42.056-42.056-0.004 0-0.007 0-0.011 0h0.001c-0.003 0-0.007 0-0.010 0-23.232 0-42.066 18.834-42.066 42.066 0 0.004 0 0.007 0 0.011v-0.001z" />
<glyph unicode="&#xe958;" d="M61.43 108.964c-5.655 0-10.24 4.585-10.24 10.24v0 491.52c0 5.655 4.585 10.24 10.24 10.24v0h901.12c5.655 0 10.24-4.585 10.24-10.24v0-491.52c0-5.655-4.585-10.24-10.24-10.24v0zM854.569 635.832l-287.744 134.144c-5.283 2.505-8.871 7.794-8.871 13.922 0 2.354 0.53 4.585 1.477 6.579l-0.040-0.093c2.506 5.28 7.794 8.866 13.92 8.866 2.359 0 4.594-0.532 6.592-1.482l-0.093 0.040 287.744-134.144c5.274-2.508 8.854-7.793 8.854-13.914 0-2.357-0.531-4.591-1.48-6.587l0.040 0.093c-2.503-5.287-7.795-8.878-13.925-8.878 0 0-0.001 0-0.001 0v0c-2.352 0.008-4.576 0.544-6.564 1.494l0.093-0.040zM149.842 643.267c-0.908 1.902-1.439 4.134-1.439 6.49 0 6.124 3.584 11.412 8.77 13.878l0.093 0.040 287.744 134.144c1.902 0.908 4.134 1.439 6.49 1.439 6.124 0 11.412-3.584 13.878-8.77l0.040-0.093c0.908-1.902 1.439-4.134 1.439-6.49 0-6.124-3.584-11.412-8.77-13.878l-0.093-0.040-287.744-134.144c-1.899-0.905-4.128-1.434-6.48-1.434-0.004 0-0.009 0-0.013 0h0.001c0 0 0 0 0 0-6.122 0-11.408 3.582-13.876 8.765l-0.040 0.093z" />
<glyph unicode="&#xe959;" d="M867.625-22.63l-275.579 275.579 127.181 127.191 275.589-275.579c16.271-16.278 26.334-38.761 26.334-63.596s-10.063-47.318-26.334-63.596v0c-16.235-16.271-38.682-26.337-63.481-26.337-0.042 0-0.085 0-0.127 0h0.007c-0.035 0-0.077 0-0.118 0-24.796 0-47.24 10.066-63.47 26.335l-0.002 0.002zM460.411 509.85h-161.71c-6.786 0-12.288 5.502-12.288 12.288v0 23.388c0 6.786 5.502 12.288 12.288 12.288h275.456c6.786 0 12.288-5.502 12.288-12.288v0-23.398c0-6.786-5.502-12.288-12.288-12.288v0z" />
<glyph unicode="&#xe95a;" d="M734.945 228.745c-166.447-166.136-436.034-166.040-602.347 0.273-123.967 123.967-155.585 305.314-94.852 458.55l1.201 2.704c19.59 49.628 51.162 98.674 93.512 141.024 166.411 166.411 436.216 166.411 602.626 0 124.061-124.061 155.633-305.587 94.717-458.896l-1.205-2.706c-19.462-49.364-50.848-98.147-92.964-140.263-0.242-0.242-0.483-0.483-0.725-0.724l0.037 0.037zM242.695 720.994c-105.482-105.499-105.477-276.531 0.014-382.023 105.497-105.497 276.541-105.497 382.038 0 105.492 105.492 105.497 276.524 0.015 382.022l-0.001 0.001c-105.577 105.321-276.479 105.314-382.034-0.011l-0.011-0.011z" />
<glyph unicode="&#xe95b;" d="M235.52 960h256c56.554 0 102.4-45.846 102.4-102.4v0-819.2c0-56.554-45.846-102.4-102.4-102.4v0h-256z" />
<glyph unicode="&#xe95c;" d="M681.4 100.864c-3.436 3.437-5.562 8.185-5.562 13.43s2.125 9.992 5.562 13.43l67.144 67.144-67.144 67.144c-3.439 3.436-5.566 8.185-5.566 13.43s2.127 9.994 5.566 13.43v0c3.436 3.439 8.185 5.566 13.43 5.566s9.994-2.127 13.43-5.566v0l80.589-80.579c3.439-3.436 5.566-8.185 5.566-13.43s-2.127-9.994-5.566-13.43l-80.589-80.589c-3.426-3.435-8.164-5.56-13.399-5.56-0.009 0-0.018 0-0.027 0h0.001c-0.003 0-0.007 0-0.012 0-5.246 0-9.994 2.133-13.423 5.58l-0.001 0.001zM681.4 612.864c-3.439 3.436-5.566 8.185-5.566 13.43s2.127 9.994 5.566 13.43v0l67.144 67.154-67.144 67.144c-3.439 3.436-5.566 8.185-5.566 13.43s2.127 9.994 5.566 13.43v0c3.436 3.439 8.185 5.566 13.43 5.566s9.994-2.127 13.43-5.566v0l80.589-80.579c3.439-3.438 5.567-8.188 5.567-13.435s-2.127-9.997-5.567-13.435l-80.589-80.579c-3.423-3.441-8.161-5.571-13.396-5.571-0.010 0-0.020 0-0.030 0h0.002c-0.006 0-0.013 0-0.020 0-5.243 0-9.988 2.134-13.414 5.58l-0.001 0.001z" />
<glyph unicode="&#xe95d;" d="M749.711 175.903h-475.433c-0.22-0.001-0.48-0.001-0.74-0.001-75.504 0-143.836 30.711-193.184 80.322l-0.012 0.012c-49.629 49.366-80.344 117.705-80.344 193.219 0 0.259 0 0.518 0.001 0.777v-0.040c-0.001 0.222-0.001 0.485-0.001 0.747 0 75.508 30.71 143.844 80.322 193.197l0.011 0.011c49.36 49.623 117.692 80.334 193.196 80.334 0.264 0 0.527 0 0.791-0.001h475.392c0.22 0.001 0.48 0.001 0.74 0.001 75.509 0 143.845-30.715 193.194-80.332l0.012-0.012c49.629-49.363 80.344-117.7 80.344-193.21 0-0.259 0-0.517-0.001-0.775v0.040c0.001-0.221 0.001-0.484 0.001-0.746 0-75.511-30.715-143.847-80.332-193.198l-0.012-0.012c-49.36-49.623-117.692-80.334-193.196-80.334-0.264 0-0.527 0-0.791 0.001h0.041zM274.278 669.614c-121.128-0.14-219.283-98.295-219.423-219.41v-0.013c0.146-121.125 98.297-219.277 219.408-219.423h475.447c121.134 0.134 219.298 98.29 219.443 219.409v0.014c-0.146 121.132-98.309 219.289-219.43 219.423h-0.013z" />
<glyph unicode="&#xe95e;" d="M749.711 651.325c111.089 0 201.144-90.055 201.144-201.144s-90.055-201.144-201.144-201.144c-111.089 0-201.144 90.055-201.144 201.144v0c0 111.089 90.055 201.144 201.144 201.144v0z" />
<glyph unicode="&#xe95f;" d="M973.65 150.856h-738.632c-27.797 0.035-50.321 22.562-50.35 50.357v318.959c0.029 27.8 22.552 50.33 50.346 50.371h738.636c27.803-0.035 50.331-22.567 50.36-50.368v-318.959c-0.035-27.799-22.561-50.325-50.357-50.36h-0.003zM235.018 536.904c-9.265-0.012-16.772-7.519-16.783-16.782v-318.957c0.012-9.265 7.519-16.772 16.782-16.783h738.633c9.265 0.012 16.772 7.519 16.783 16.782v318.957c-0.012 9.265-7.519 16.772-16.782 16.783h-0.001z" />
<glyph unicode="&#xe960;" d="M184.658 335.524h-134.298c-27.797 0.035-50.321 22.562-50.35 50.357v318.959c0.029 27.8 22.552 50.33 50.346 50.371h738.636c27.803-0.035 50.331-22.567 50.36-50.368v-134.301h-33.577v134.298c-0.012 9.265-7.519 16.772-16.782 16.783h-738.633c-9.265-0.012-16.772-7.519-16.783-16.782v-318.957c0.012-9.265 7.519-16.772 16.782-16.783h134.299v-33.567z" />
<glyph unicode="&#xe961;" glyph-name="circle" d="M512 960c282.77 0 512-229.23 512-512s-229.23-512-512-512c-282.77 0-512 229.23-512 512v0c0 282.77 229.23 512 512 512v0z" />
<glyph unicode="&#xe962;" glyph-name="cross" d="M846.551-27.802l-334.551 334.561-334.561-334.561c-9.265-9.262-22.063-14.991-36.198-14.991s-26.934 5.729-36.199 14.991l-68.833 68.833c-9.265 9.265-14.996 22.065-14.996 36.204s5.731 26.938 14.996 36.203l334.551 334.561-334.551 334.551c-9.265 9.265-14.996 22.065-14.996 36.204s5.731 26.938 14.996 36.203l68.833 68.823c9.265 9.262 22.063 14.991 36.198 14.991s26.934-5.729 36.199-14.991l334.561-334.541 334.551 334.561c9.265 9.265 22.065 14.996 36.204 14.996s26.938-5.731 36.203-14.996l68.833-68.833c9.265-9.265 14.996-22.065 14.996-36.204s-5.731-26.938-14.996-36.203l-334.551-334.561 334.561-334.551c9.265-9.265 14.996-22.065 14.996-36.204s-5.731-26.938-14.996-36.203l-68.833-68.833c-9.24-9.262-22.016-14.991-36.131-14.991-0.024 0-0.047 0-0.071 0h0.004c-0.027 0-0.058 0-0.089 0-14.112 0-26.887 5.726-36.129 14.981l-0.001 0.001z" />
<glyph unicode="&#xe963;" glyph-name="hashtag" d="M500.572-43.52h151.132l51.743 258.734h165.427l27.228 147.046h-164.065l37.448 183.808h162.703l27.228 145.684h-160.666l49.695 247.808h-151.132l-49.695-247.808h-176.292l49.019 247.808h-149.801l-50.381-247.808h-157.942l-27.904-145.715h156.57l-36.762-183.808h-154.511l-27.935-147.016h153.18l-51.057-258.693h149.77l52.419 258.693h176.323zM392.325 349.286l42.209 208.968h196.065l-42.885-208.998z" />
<glyph unicode="&#xe964;" d="M949.74 134.287h-675.84c-31.088 0.041-56.279 25.232-56.32 56.316v0.004c0.041 31.088 25.232 56.279 56.316 56.32h675.844c31.091-0.035 56.285-25.229 56.32-56.317v-0.003c-0.035-31.091-25.229-56.285-56.317-56.32h-0.003zM949.74 390.287h-675.84c-31.088 0.041-56.279 25.232-56.32 56.316v0.004c0.041 31.088 25.232 56.279 56.316 56.32h675.844c31.091-0.035 56.285-25.229 56.32-56.317v-0.003c-0.035-31.091-25.229-56.285-56.317-56.32h-0.003zM949.74 646.287h-675.84c-31.088 0.041-56.279 25.232-56.32 56.316v0.004c0.041 31.088 25.232 56.279 56.316 56.32h675.844c31.091-0.035 56.285-25.229 56.32-56.317v-0.003c-0.035-31.091-25.229-56.285-56.317-56.32h-0.003z" />
<glyph unicode="&#xe965;" d="M59.085 133.898l-40.458 40.468c-5.182 5.177-8.388 12.331-8.388 20.234s3.206 15.058 8.387 20.234v0c5.176 5.179 12.329 8.382 20.229 8.382s15.053-3.203 20.229-8.382v0l20.234-20.224 60.682 60.692c5.178 5.18 12.332 8.383 20.234 8.383s15.056-3.204 20.234-8.383v0c5.185-5.176 8.392-12.33 8.392-20.234s-3.207-15.059-8.391-20.234v0l-80.916-80.916c-5.166-5.181-12.31-8.387-20.203-8.387-0.011 0-0.022 0-0.032 0h0.002c-0.011 0-0.025 0-0.038 0-7.887 0-15.027 3.197-20.196 8.366v0zM59.085 389.898l-40.458 40.468c-5.182 5.177-8.388 12.331-8.388 20.234s3.206 15.058 8.387 20.234v0c5.176 5.179 12.329 8.382 20.229 8.382s15.053-3.203 20.229-8.382v0l20.234-20.224 60.682 60.692c5.178 5.18 12.332 8.383 20.234 8.383s15.056-3.204 20.234-8.383v0c5.185-5.176 8.392-12.33 8.392-20.234s-3.207-15.059-8.391-20.234v0l-80.916-80.916c-5.159-5.181-12.299-8.387-20.186-8.387-0.017 0-0.034 0-0.050 0h0.003c-0.016 0-0.036 0-0.055 0-7.882 0-15.017 3.197-20.179 8.366v0zM20.48 698.88c0 42.415 34.385 76.8 76.8 76.8v0c42.415 0 76.8-34.385 76.8-76.8v0c0-42.415-34.385-76.8-76.8-76.8v0c-42.415 0-76.8 34.385-76.8 76.8v0z" />
<glyph unicode="&#xe966;" d="M949.74 134.287h-675.84c-31.091 0.035-56.285 25.229-56.32 56.317v0.003c0.035 31.091 25.229 56.285 56.317 56.32h675.843c31.091-0.035 56.285-25.229 56.32-56.317v-0.003c-0.035-31.091-25.229-56.285-56.317-56.32h-0.003zM949.74 390.287h-675.84c-31.091 0.035-56.285 25.229-56.32 56.317v0.003c0.035 31.091 25.229 56.285 56.317 56.32h675.843c31.091-0.035 56.285-25.229 56.32-56.317v-0.003c-0.035-31.091-25.229-56.285-56.317-56.32h-0.003zM949.74 646.287h-675.84c-31.091 0.035-56.285 25.229-56.32 56.317v0.003c0.035 31.091 25.229 56.285 56.317 56.32h675.843c31.091-0.035 56.285-25.229 56.32-56.317v-0.003c-0.035-31.091-25.229-56.285-56.317-56.32h-0.003z" />
</font>
</defs>
</svg>
