<svg xmlns="http://www.w3.org/2000/svg" xmlns:xlink="http://www.w3.org/1999/xlink" width="300" height="254" viewBox="0 0 300 254">
  <defs>
    <clipPath id="clip-logo-white">
      <rect width="300" height="254"/>
    </clipPath>
  </defs>
  <g id="logo-white" clip-path="url(#clip-logo-white)">
    <path id="Pfad_22" data-name="Pfad 22" d="M-3878,281h-289V31h296V281Zm-281-8h280V39h-280Zm152.549-24.5h-5.5l-23.1-15h5.51l23.092,15,0,0Zm-12.32,0h-5.5l-23.1-15h5.508l23.093,15,0,0Zm-12.318,0h-5.5l-23.1-15h5.509l23.094,15,0,0Zm-12.319,0h-5.5l-23.1-15h5.508l23.094,15,0,0Zm-12.318,0h-5.5l-23.1-15h5.509l23.093,15,0,0Zm31.228-16.145v-3.578l24,15.585v3.573h0Zm24,7.581-24-15.58v-3.58l24,15.585v3.576Zm0-8-24-15.581v-3.582l24,15.585v3.579ZM-4054,230h-40V203h19.5V92H-4106v18h-24V65h138v45h-24V92h-31.5V203h19.5v27Zm35-18.077-5.5-3.568v-3.578l5.5,3.572v3.574Zm0-7.995-5.5-3.572V199.5h-1.316L-4042,188.991v-3.58l23,14.936v3.578l0,0Zm-13.625-4.426h-5.507l-3.867-2.51v-3.58l9.375,6.087,0,0Zm13.623-3.577-23-14.932v-3.582l23,14.937v3.578Zm0-8-23-14.934v-3.58l23,14.936v3.578h0Zm0-8-23-14.939v-3.577l23,14.935v3.582Zm0-8-23-14.936v-3.577l23,14.937v3.574h0Zm0-8-23-14.935v-3.572l23,14.933v3.576Zm0-8-23-14.934v-3.577l23,14.937v3.573h0Zm80.5-7.923v-3h42v3Zm-80.5-.077-23-14.934v-3.576l23,14.937v3.573Zm0-8-23-14.934v-3.578l23,14.937v3.576ZM-3903,137h-.448l-9.24-6h.688v-1.043l9,5.845V137h0Zm-2.774,0h-2.292l-9.242-6h2.3l9.238,6,0,0Zm-4.619,0h-2.293l-9.238-6h2.3l9.235,6,0,0Zm-4.62,0h-2.291l-9.238-6h2.294l9.235,6,0,0Zm-4.62,0h-2.291l-9.239-6h2.294l9.236,6,0,0Zm-4.619,0h-2.291l-9.238-6h2.3l9.235,6,0,0Zm-4.619,0h-2.291l-8.436-5.478.34-.522h1.154l9.235,6,0,0Zm-4.62,0h-2.292l-3.816-2.477.682-1.048,5.426,3.523,0,0Zm-4.618,0h-1.149l.342-.526.807.524,0,0Zm35.11-2.71-9-5.844v-1.491l9,5.845v1.491Zm-116-2.368-23-14.935v-3.578l23,14.936v3.578Zm116-.634-9-5.844v-1.49l9,5.845v1.49Zm-35.5-1.29V120h6.5V76h-6.5V66h24V76h-6.5v44h6.5v10Zm-141.864-1.5h-5.5l-21.56-14h4.928v-.379l22.137,14.377,0,0Zm-12.319,0h-5.506l-21.557-14h5.507l21.557,14,0,0Zm189.681-.211-9-5.844v-1.49l9,5.845v1.49Zm-67.263-.291h-5.5l-20.016-12.995h5.509l20.01,12.993,0,0Zm-12.315,0h-5.506l-20.016-12.995h5.508L-3982.58,128v0Zm-5.42-15.943v-3.576l23,14.935v3.578Zm-91.5,12.581-23-14.937v-3.578l23,14.936v-.028l0,.03h0v3.578Zm60.5-.714-23-14.932v-3.581l23,14.936v3.578Zm109-3.179-2-1.3V118h-2.228l-4.772-3.1v-1.49l9,5.845v1.49Zm-55-1.756-23-14.932v-3.576l23,14.938v3.57Zm48.445-.988h-2.291l-.153-.1v-1.49l2.444,1.587,0,0Zm6.554-.256-9-5.843v-1.49l9,5.844v1.49Zm-169.5-1.107-23-14.935v-3.58l23,14.937v3.579Zm60.5-.713-1.42-.919H-4019v.92Zm109-1.179-9-5.844V107.41l9,5.845v1.491Zm-111-.118-21-13.636V97.412l21,13.637v3.579Zm111-2.882-9-5.844v-1.49l9,5.844v1.489h0Zm-78-15.687v-3.58l23,14.94v3.576Zm78,12.686-9-5.843V101.41l9,5.845v1.49Zm-169.5-.108L-4098.19,96.5h5.512l13.177,8.559V101.54l0,7.1v0Zm58.5-2.01L-4035.821,97h5.51l9.312,6.047v3.578Zm111-.882-9-5.844v-1.49l9,5.844v1.489h0Zm-78-17.686V84.48l23,14.938v3.577Zm78,14.686-9-5.843V95.411l9,5.845v1.49Zm-169.5-2.106-6.369-4.138h5.508l.86.559V96.5l0,4.137v0Zm169.5-.893-9-5.844V92.41l9,5.844v1.49h0Zm-111-1.12L-4023.5,97h2.5v1.622h0Zm111-1.881-9-5.843V89.41l9,5.845v1.49Zm-78-16.684V76.481l23,14.936V95Zm78,13.685-9-5.845V86.411l9,5.845v1.49Zm0-3-9-5.843v-1.49l9,5.844v1.49Zm0-3-9-5.844V80.41l9,5.846v1.49Zm-55-.752-23-14.934V68.479l23,14.937v3.579Zm55-2.249-9-5.843V78h.909l8.091,5.253v1.49Zm7-1.743h-.45L-3912,77.447v-1.49l9,5.845V83l0,0Zm-2.777,0h-2.292l-7.7-5h2.3l7.7,5,0,0Zm2.774-2.71-9-5.843v-1.49l9,5.844v1.49Zm0-3-9-5.844v-1.49l9,5.844v1.491Zm0-3-9-5.843V66.958l9,5.844V74.29h0Z" transform="translate(4169 -29)" fill="#fff"/>
  </g>
</svg>
