<svg xmlns="http://www.w3.org/2000/svg" xmlns:xlink="http://www.w3.org/1999/xlink" width="500" height="500" viewBox="0 0 500 500"><defs><clipPath id="a"><rect width="114" height="114" transform="translate(-0.363 -0.363)" fill="#fff"/></clipPath><clipPath id="c"><rect width="500" height="500"/></clipPath></defs><g id="b" clip-path="url(#c)"><g fill="none" stroke="#fff" stroke-width="20"><rect width="500" height="500" stroke="none"/><rect x="10" y="10" width="480" height="480" fill="none"/></g><rect width="10" height="450" transform="translate(405.563 87.365) rotate(45)" fill="#fff"/><g transform="translate(100.363 100.363)" clip-path="url(#a)"><path d="M-1011.515-437.457h0l-.024-.011-.016-.008-.011-.006a.14.14,0,0,1-.025-.014h0a1.439,1.439,0,0,1-.289-.213l-.009-.009-.016-.015-.016-.017-.007-.007a1.407,1.407,0,0,1-.232-.322h0c0-.009-.009-.019-.015-.027s0-.006,0-.009l-.01-.02-.009-.019a.094.094,0,0,1,0-.01c0-.011-.009-.02-.014-.032a1.494,1.494,0,0,1-.113-.66h0v-.019a.186.186,0,0,1,0-.026h0a1.581,1.581,0,0,1,.069-.34l6.683-22.726a1.671,1.671,0,0,1,.488-.771c.019-.021.04-.044.062-.066l3.214-3.215,67-67a1.773,1.773,0,0,1,2.5-.075l15.78,15.779a1.774,1.774,0,0,1-.076,2.5l-60.186,60.141-.046.049-9.893,9.894c-.042.041-.082.077-.12.113s-.071.082-.113.12a1.674,1.674,0,0,1-.71.422l-22.76,6.693a1.573,1.573,0,0,1-.453.066A1.5,1.5,0,0,1-1011.515-437.457Zm5.479-12.1,5.939,5.94,11.683-3.437-1.664-5.822-5.9-.8-.8-5.9-5.822-1.664Zm70.766-75.027L-981.753-478.1a2.594,2.594,0,0,0-.113,3.66,2.594,2.594,0,0,0,3.661-.113l46.482-46.482a2.6,2.6,0,0,0,.113-3.661,2.425,2.425,0,0,0-1.729-.7,2.739,2.739,0,0,0-1.932.811Zm14.3,86.088L-953.281-470.8l10.135-10.134,1.059,1.06a1.125,1.125,0,0,0,.8.331,1.132,1.132,0,0,0,.8-.331L-933-487.36l8.811,8.81-7.487,7.489a1.133,1.133,0,0,0,0,1.6l2.407,2.4a1.125,1.125,0,0,0,.8.331,1.133,1.133,0,0,0,.8-.331l7.489-7.489,8.81,8.81-7.487,7.487a1.124,1.124,0,0,0-.332.8,1.127,1.127,0,0,0,.332.8l2.4,2.4a1.124,1.124,0,0,0,.8.331,1.132,1.132,0,0,0,.8-.331l7.489-7.487,4.807,4.807a3.376,3.376,0,0,1,.995,2.4,3.379,3.379,0,0,1-.995,2.4L-916.169-438.5a3.378,3.378,0,0,1-2.4.995,3.374,3.374,0,0,1-2.4-.99Zm-56.411-56.416-33.294-33.292a3.37,3.37,0,0,1-.993-2.4,3.37,3.37,0,0,1,.995-2.4l13.617-13.617a3.372,3.372,0,0,1,2.4-.995,3.371,3.371,0,0,1,2.4.995l4,4-7.489,7.489a1.133,1.133,0,0,0,0,1.6l2.4,2.4a1.124,1.124,0,0,0,.8.331,1.133,1.133,0,0,0,.8-.331l7.489-7.487,8.811,8.81-7.487,7.489a1.126,1.126,0,0,0-.332.8,1.125,1.125,0,0,0,.332.8l2.4,2.4a1.124,1.124,0,0,0,.8.331,1.133,1.133,0,0,0,.8-.331l7.489-7.487,8.811,8.81-7.487,7.489a1.133,1.133,0,0,0-.332.8,1.133,1.133,0,0,0,.332.8l2.4,2.4a1.133,1.133,0,0,0,.6.313l-10.275,10.275h0Zm64.778-26.349-15.78-15.779a1.772,1.772,0,0,1,.075-2.5l6.442-6.442a8.861,8.861,0,0,1,12.513-.374l6.069,6.07a8.859,8.859,0,0,1-.373,12.512l-6.442,6.443a1.871,1.871,0,0,1-1.32.556,1.661,1.661,0,0,1-1.193-.489Z" transform="translate(1013.09 549.032)" fill="#fff"/></g><path d="M55.534,37.148V-50.881H86.457V-69.239H2.344v18.358H33.193V37.148Zm38.469,0h21.6V-41.886H94Zm10.8-87.735a11.228,11.228,0,0,0,11.541-11.133A11.183,11.183,0,0,0,104.8-72.852,11.183,11.183,0,0,0,93.263-61.719,11.228,11.228,0,0,0,104.8-50.586Z" transform="translate(283.656 362.852)" fill="#fff"/></g></svg>