<?xml version="1.0" encoding="utf-8"?>
<!-- Svg Vector Icons : http://www.onlinewebfonts.com/icon -->
<!DOCTYPE svg PUBLIC "-//W3C//DTD SVG 1.1//EN" "http://www.w3.org/Graphics/SVG/1.1/DTD/svg11.dtd">
<svg version="1.1" xmlns="http://www.w3.org/2000/svg" xmlns:xlink="http://www.w3.org/1999/xlink" x="0px" y="0px" viewBox="0 0 1000 1000" enable-background="new 0 0 1000 1000" xml:space="preserve">
<metadata> Svg Vector Icons : http://www.onlinewebfonts.com/icon </metadata>
<g><g><g><path d="M743.5,165.4c13.4-22.4,4.5-53.7-22.4-67.1l-35.8-17.9c-22.4-13.4-53.7-4.5-67.1,22.4L555.6,228l120.8,62.6L743.5,165.4z"/><polygon points="399.1,456.1 479.6,299.6 461.7,268.3 340.9,330.9 "/><path d="M542.2,268.3L278.3,791.5H54.7c-22.4,0-44.7,17.9-44.7,44.7V881c0,26.8,22.4,44.7,44.7,44.7h268.3c26.8,0,53.7-17.9,62.6-40.3l277.3-554.6L542.2,268.3z"/><path d="M318.6,290.7L439.3,228l-62.6-125.2c-13.4-22.4-40.3-35.8-67.1-22.4l-31.3,17.9c-22.4,13.4-35.8,40.3-22.4,67.1L318.6,290.7z"/><path d="M949.2,791.5H725.6l-120.8-246l-80.5,156.5l89.4,183.4c8.9,22.4,40.3,40.3,62.6,40.3h268.3c22.4,0,44.7-17.9,44.7-44.7v-44.7C993.9,809.4,971.5,791.5,949.2,791.5z"/></g></g><g></g><g></g><g></g><g></g><g></g><g></g><g></g><g></g><g></g><g></g><g></g><g></g><g></g><g></g><g></g></g>
</svg>