<svg xmlns="http://www.w3.org/2000/svg" xmlns:xlink="http://www.w3.org/1999/xlink" width="100" height="100" viewBox="0 0 100 100">
  <defs>
    <clipPath id="clip-add">
      <rect width="100" height="100"/>
    </clipPath>
  </defs>
  <g id="add" clip-path="url(#clip-add)">
    <path id="Differenzmenge_3" data-name="Differenzmenge 3" d="M60.79,65.79H5a5.006,5.006,0,0,1-5-5V5A5.006,5.006,0,0,1,5,0H60.79a5.006,5.006,0,0,1,5,5V60.79A5.006,5.006,0,0,1,60.79,65.79Zm-45-36.842a3.947,3.947,0,1,0,0,7.895H28.948V50a3.947,3.947,0,0,0,7.895,0V36.842H50a3.947,3.947,0,1,0,0-7.895H36.842V15.79a3.947,3.947,0,1,0-7.895,0V28.948Z" transform="translate(0 34.21)" fill="rgba(0,0,0,0.33)"/>
    <path id="Vereinigungsmenge_7" data-name="Vereinigungsmenge 7" d="M52.632,59.211V18.8h0a5.826,5.826,0,0,0-5.787-5.638H6.58A6.579,6.579,0,1,1,6.58,0H59.21a6.581,6.581,0,0,1,6.58,6.58V59.211a6.579,6.579,0,0,1-13.158,0Z" transform="translate(17.105 17.105)" fill="rgba(0,0,0,0.66)"/>
    <path id="Vereinigungsmenge_6" data-name="Vereinigungsmenge 6" d="M52.632,59.211V13.158H6.58A6.579,6.579,0,1,1,6.58,0H59.21a6.581,6.581,0,0,1,6.58,6.58V59.211a6.579,6.579,0,0,1-13.158,0Zm0-40.262a5.982,5.982,0,0,0-5.944-5.791h5.945v5.791Z" transform="translate(34.21)"/>
  </g>
</svg>
