<svg xmlns="http://www.w3.org/2000/svg" xmlns:xlink="http://www.w3.org/1999/xlink" width="100" height="100" viewBox="0 0 100 100">
  <defs>
    <clipPath id="clip-admin">
      <rect width="100" height="100"/>
    </clipPath>
  </defs>
  <g id="admin" clip-path="url(#clip-admin)">
    <path id="Pfad" d="M83.507,50.663l-5.895-3.4a26.653,26.653,0,0,0,0-9.714l5.895-3.4a1.672,1.672,0,0,0,.761-1.937A34.463,34.463,0,0,0,76.7,19.114a1.665,1.665,0,0,0-2.048-.318l-5.895,3.4a26.114,26.114,0,0,0-8.413-4.857V10.548a1.658,1.658,0,0,0-1.3-1.619,34.786,34.786,0,0,0-15.11,0,1.658,1.658,0,0,0-1.3,1.619v6.808a26.939,26.939,0,0,0-8.413,4.857l-5.881-3.4a1.644,1.644,0,0,0-2.048.318,34.256,34.256,0,0,0-7.569,13.09,1.655,1.655,0,0,0,.761,1.937l5.895,3.4a26.654,26.654,0,0,0,0,9.714l-5.895,3.4a1.672,1.672,0,0,0-.761,1.937A34.463,34.463,0,0,0,26.29,65.7a1.665,1.665,0,0,0,2.048.318l5.895-3.4a26.115,26.115,0,0,0,8.413,4.857v6.808a1.658,1.658,0,0,0,1.3,1.619,34.786,34.786,0,0,0,15.11,0,1.658,1.658,0,0,0,1.3-1.619V67.475a26.938,26.938,0,0,0,8.413-4.857l5.895,3.4a1.644,1.644,0,0,0,2.048-.318,34.256,34.256,0,0,0,7.569-13.09A1.709,1.709,0,0,0,83.507,50.663ZM51.487,53.472A11.07,11.07,0,1,1,62.557,42.4,11.085,11.085,0,0,1,51.487,53.472Z" transform="translate(-16.644 17.268)" transform-origin="50% 50%" />
    <path id="Pfad-2" data-name="Pfad" d="M46.676,26.494l-2.548-1.471a11.519,11.519,0,0,0,0-4.2l2.548-1.471a.723.723,0,0,0,.329-.837,14.894,14.894,0,0,0-3.271-5.657.72.72,0,0,0-.885-.138L40.3,14.193a11.286,11.286,0,0,0-3.636-2.1V9.158a.716.716,0,0,0-.562-.7,15.034,15.034,0,0,0-6.53,0,.716.716,0,0,0-.562.7V12.1a11.642,11.642,0,0,0-3.636,2.1l-2.542-1.471a.711.711,0,0,0-.885.138,14.8,14.8,0,0,0-3.271,5.657.715.715,0,0,0,.329.837l2.548,1.471a11.519,11.519,0,0,0,0,4.2L19.006,26.5a.723.723,0,0,0-.329.837,14.894,14.894,0,0,0,3.271,5.657.72.72,0,0,0,.885.138l2.548-1.471a11.286,11.286,0,0,0,3.636,2.1V36.7a.716.716,0,0,0,.562.7,15.034,15.034,0,0,0,6.53,0,.716.716,0,0,0,.562-.7V33.76a11.642,11.642,0,0,0,3.636-2.1l2.548,1.471a.711.711,0,0,0,.885-.138,14.8,14.8,0,0,0,3.271-5.657A.739.739,0,0,0,46.676,26.494ZM32.838,27.708a4.784,4.784,0,1,1,4.784-4.784A4.791,4.791,0,0,1,32.838,27.708Z" transform="translate(34.831 -2.099)" fill="rgba(0,0,0,0.66)" transform-origin="34.831 -2.099" />
    <path id="Pfad-3" data-name="Pfad" d="M46.676,26.494l-2.548-1.471a11.519,11.519,0,0,0,0-4.2l2.548-1.471a.723.723,0,0,0,.329-.837,14.894,14.894,0,0,0-3.271-5.657.72.72,0,0,0-.885-.138L40.3,14.193a11.286,11.286,0,0,0-3.636-2.1V9.158a.716.716,0,0,0-.562-.7,15.034,15.034,0,0,0-6.53,0,.716.716,0,0,0-.562.7V12.1a11.642,11.642,0,0,0-3.636,2.1l-2.542-1.471a.711.711,0,0,0-.885.138,14.8,14.8,0,0,0-3.271,5.657.715.715,0,0,0,.329.837l2.548,1.471a11.519,11.519,0,0,0,0,4.2L19.006,26.5a.723.723,0,0,0-.329.837,14.894,14.894,0,0,0,3.271,5.657.72.72,0,0,0,.885.138l2.548-1.471a11.286,11.286,0,0,0,3.636,2.1V36.7a.716.716,0,0,0,.562.7,15.034,15.034,0,0,0,6.53,0,.716.716,0,0,0,.562-.7V33.76a11.642,11.642,0,0,0,3.636-2.1l2.548,1.471a.711.711,0,0,0,.885-.138,14.8,14.8,0,0,0,3.271-5.657A.739.739,0,0,0,46.676,26.494ZM32.838,27.708a4.784,4.784,0,1,1,4.784-4.784A4.791,4.791,0,0,1,32.838,27.708Z" transform="translate(50.845 26.498)" fill="rgba(0,0,0,0.33)" transform-origin="50.845 26.498" />
	<animateTransform xlink:href="#Pfad"
		attributeName="transform"
		type="rotate"
		values="0;360"
		dur="3s"
		repeatCount="indefinite"
	/>
		<animateTransform xlink:href="#Pfad-2"
		attributeName="transform"
		type="rotate"
		values="0;360"
		dur="3s"
		repeatCount="indefinite"
	/>

	<animateTransform xlink:href="#Pfad-3"
		attributeName="transform"
		type="rotate"
		values="0;360"
		dur="2s"
		repeatCount="indefinite"
	/>

  </g>
</svg>
