<svg xmlns="http://www.w3.org/2000/svg" xmlns:xlink="http://www.w3.org/1999/xlink" width="100" height="100" viewBox="0 0 100 100">
  <defs>
    <radialGradient id="radial-gradient" cx="0.5" cy="0.5" r="0.5" gradientUnits="objectBoundingBox">
      <stop offset="0"/>
      <stop offset="0.524"/>
      <stop offset="0.775" stop-opacity="0.329"/>
      <stop offset="1" stop-opacity="0.329"/>
    </radialGradient>
    <clipPath id="clip-at">
      <rect width="100" height="100"/>
    </clipPath>
  </defs>
  <g id="at" clip-path="url(#clip-at)">
    <path id="Pfad_29" data-name="Pfad 29" d="M49.385,56.882c5.486,0,8.921,4.563,8.921,11.946s-3.435,11.946-8.972,11.946c-5.383,0-8.613-4.512-8.613-11.946C40.72,61.343,43.95,56.882,49.385,56.882ZM51.077,25.71C25.493,25.71,7.7,43.04,7.7,68.469c0,26.506,18.252,42.759,44.194,42.759a54.1,54.1,0,0,0,14.766-1.9v-8.2c-2.922,1.077-8.511,1.794-14,1.794-21.123,0-35.53-12.612-35.53-34.2,0-20.61,13.843-34.863,33.582-34.863,19.431,0,32.3,12.048,32.3,30.71,0,10.92-3.486,17.329-8.511,17.329-3.23,0-4.871-2.256-4.871-5.793V48.679H59.229v6.152h-.718c-2-4.512-6.614-7.28-12.151-7.28-10.254,0-17.278,8.511-17.278,20.969,0,13.022,7.126,21.687,17.791,21.687,5.947,0,10.254-2.769,12.356-7.9h.718c1.128,4.973,6,8.049,12.356,8.049,12.51,0,20.149-10.408,20.149-26.558C92.451,40.989,75.378,25.71,51.077,25.71Z" transform="translate(-0.077 -18.469)" fill="url(#radial-gradient)"/>
  </g>
</svg>
