<svg xmlns="http://www.w3.org/2000/svg" xmlns:xlink="http://www.w3.org/1999/xlink" width="100" height="100" viewBox="0 0 100 100">
  <defs>
    <clipPath id="clip-book">
      <rect width="100" height="100"/>
    </clipPath>
  </defs>
  <g id="book" clip-path="url(#clip-book)">
    <g id="Gruppe_5" data-name="Gruppe 5" transform="translate(15 -6.218)">
      <path id="Pfad_27" data-name="Pfad 27" d="M0,0H50.11a20.159,20.159,0,0,0-1.222,6,12.37,12.37,0,0,0,1.222,5.123H0Z" transform="translate(13.919 76.968)" fill="rgba(0,0,0,0.33)"/>
      <path id="Differenzmenge_9" data-name="Differenzmenge 9" d="M66.6,86.217H10a10.012,10.012,0,0,1-10-10V13.906A13.913,13.913,0,0,1,13.918,0h51.5A4.178,4.178,0,0,1,69.6,4.172V59.8a4.178,4.178,0,0,1-4.176,4.172H17.789a4.036,4.036,0,0,0-3.871,4v3.125a4,4,0,0,0,4,4H69.6v8.125A3,3,0,0,1,66.6,86.217ZM33.743,45.681a11.451,11.451,0,0,1,3.43.512,16.193,16.193,0,0,1,2.02.8c.715.334,1.772.924,3.144,1.752a24.7,24.7,0,0,0,3.745,1.9,6.818,6.818,0,0,0,2.5.414,4.277,4.277,0,0,0,2.74-.965,3.785,3.785,0,0,0,.887-1.1,2.47,2.47,0,0,0,.335-1.132,1.9,1.9,0,0,0-.118-.758,1.209,1.209,0,0,0-1.1-.887A2.8,2.8,0,0,1,50.3,47.493a4.92,4.92,0,0,0,.078-1.024,1.893,1.893,0,0,0-.631-1.2,1.849,1.849,0,0,0-.966-.492,2.237,2.237,0,0,1-.6,1.064,2.2,2.2,0,0,1-1.193.61,2.387,2.387,0,0,0,.059-.571.948.948,0,0,0-.355-.669,2.043,2.043,0,0,0-.808-.473,2.764,2.764,0,0,1-2.444,1.123c-.544-.173-1.127-.378-1.734-.611l-1.262-.453c-.424-.145-.829-.271-1.2-.374A10.582,10.582,0,0,0,44.86,40.01a14.8,14.8,0,0,0,1.656-3.534,22.792,22.792,0,0,0,.906-4.391,3.836,3.836,0,0,1,1.991-3.279,3.623,3.623,0,0,1-2.011-3.17,13.365,13.365,0,0,0-4.1-8.822,12.174,12.174,0,0,0-8.456-3.033,12.109,12.109,0,0,0-8.5,3.269,12.887,12.887,0,0,0-2.759,3.741,14.463,14.463,0,0,0-1.39,4.7,3.863,3.863,0,0,1-2.021,3.317,3.178,3.178,0,0,1,1.37,1.251,6.776,6.776,0,0,1,.68,2.57,17.556,17.556,0,0,0,.827,3.623,12.21,12.21,0,0,0,6.761,7.856c-1.909.589-2.877,1.754-2.877,3.466a2.356,2.356,0,0,0,.769,1.733,2.734,2.734,0,0,0,1.931.808,5.937,5.937,0,0,1,1.311-3.323A3.628,3.628,0,0,1,33.743,45.681Zm1.084-3.23a5.19,5.19,0,0,1-1.715-.275c-1.766-.6-2.661-1.986-2.661-4.116V32.212a3.543,3.543,0,0,1,2.168-3.406,3.261,3.261,0,0,1-2.168-3.17V20.93a5.478,5.478,0,0,1,.335-2.009A3.927,3.927,0,0,1,34.808,16.4a4.217,4.217,0,0,1,2.976,1.122,4.5,4.5,0,0,1,1.281,3.407v4.706a3.307,3.307,0,0,1-2.129,3.17,3.548,3.548,0,0,1,2.129,3.406V38.06a4.381,4.381,0,0,1-1.183,3.289,3.7,3.7,0,0,1-1.35.827A5.1,5.1,0,0,1,34.827,42.451Zm6.13-3.17v0a11.6,11.6,0,0,0,.394-2.263c.052-.488.092-1.022.118-1.585s.04-1.338.04-2.265-.066-2.057-.2-3.337c-.039-.327-.457-.671-1.242-1.024a3.168,3.168,0,0,0,.769-.374,2.419,2.419,0,0,0,.394-.354,7.424,7.424,0,0,0,.2-2.5,20.315,20.315,0,0,0-.552-5.691,1.251,1.251,0,0,1,.67.335,5.2,5.2,0,0,1,.986,2.894c.078.6.138,1.383.177,2.314s.059,2.352.059,4.214-.033,3.568-.1,5.09c-.117,2.7-.694,4.233-1.713,4.548Zm-14.29,0h0a7.93,7.93,0,0,1-.847-1.319c-.733-1.36-1.343-4.1-1.813-8.152-.039-.339-.431-.677-1.163-1,.732-.3,1.123-.624,1.163-.965a28.139,28.139,0,0,1,1.163-5.651,7.868,7.868,0,0,1,1.32-2.3.325.325,0,0,1,.256.335,3.018,3.018,0,0,1-.139.748,24.518,24.518,0,0,0-1.1,7.837c0,4.194.352,7.123,1.045,8.7a3.885,3.885,0,0,1,.414,1.358.421.421,0,0,1-.3.414Z" transform="translate(0.001 13)"/>
    </g>
  </g>
</svg>
