<svg xmlns="http://www.w3.org/2000/svg" xmlns:xlink="http://www.w3.org/1999/xlink" width="100" height="100" viewBox="0 0 100 100">
  <defs>
    <clipPath id="clip-delete">
      <rect width="100" height="100"/>
    </clipPath>
  </defs>
  <g id="delete" clip-path="url(#clip-delete)">
    <path id="base" d="M0,0H50a0,0,0,0,1,0,0V70a5,5,0,0,1-5,5H5a5,5,0,0,1-5-5V0A0,0,0,0,1,0,0Z" transform="translate(25 17)" fill="rgba(0,0,0,0.33)"/>
    <line id="Linie_8" data-name="Linie 8" y1="50" transform="translate(50 27)" fill="none" stroke="#000" stroke-linecap="round" stroke-width="3"/>
    <line id="Linie_9" data-name="Linie 9" y1="50" transform="translate(37 27)" fill="none" stroke="#000" stroke-linecap="round" stroke-width="3"/>
    <line id="Linie_10" data-name="Linie 10" y1="50" transform="translate(63 27)" fill="none" stroke="#000" stroke-linecap="round" stroke-width="3"/>
    <rect id="Rechteck_52" data-name="Rechteck 52" width="57" height="7" rx="2" transform="translate(21.5 10)"/>
    <path id="Pfad_25" data-name="Pfad 25" d="M215,563.214h10s8.75,2.536,5,3.786-16.25,1.25-20,0S215,563.214,215,563.214Z" transform="translate(-170 -555)"/>
  </g>
</svg>
