<svg xmlns="http://www.w3.org/2000/svg" xmlns:xlink="http://www.w3.org/1999/xlink" width="100" height="100" viewBox="0 0 100 100">
  <defs>
    <clipPath id="clip-login">
      <rect width="100" height="100"/>
    </clipPath>
  </defs>
  <g id="login" clip-path="url(#clip-login)">
    <g id="Box" transform="translate(39.258 92) rotate(-90)">
      <path id="Rechteck_13" data-name="Rechteck 13" d="M2,0h8.233a2,2,0,0,1,2,2V48.247a0,0,0,0,1,0,0H0a0,0,0,0,1,0,0V2A2,2,0,0,1,2,0Z" transform="translate(0 0)" fill="rgba(0,0,0,0.5)"/>
      <rect id="Rechteck_14" data-name="Rechteck 14" width="12.233" height="58.975" transform="translate(71.208 48.247) rotate(90)" fill="rgba(0,0,0,0.5)"/>
      <path id="Rechteck_15" data-name="Rechteck 15" d="M2,0h8.233a2,2,0,0,1,2,2V48.247a0,0,0,0,1,0,0H0a0,0,0,0,1,0,0V2A2,2,0,0,1,2,0Z" transform="translate(71.208 0)" fill="rgba(0,0,0,0.5)"/>
      <path id="Rechteck_18" data-name="Rechteck 18" d="M0,0H12.233a0,0,0,0,1,0,0V0A12.233,12.233,0,0,1,0,12.233H0a0,0,0,0,1,0,0V0A0,0,0,0,1,0,0Z" transform="translate(71.208 48.247)" fill="rgba(0,0,0,0.5)"/>
      <path id="Rechteck_19" data-name="Rechteck 19" d="M0,0H12.233a0,0,0,0,1,0,0V0A12.233,12.233,0,0,1,0,12.233H0a0,0,0,0,1,0,0V0A0,0,0,0,1,0,0Z" transform="translate(12.233 48.247) rotate(90)" fill="rgba(0,0,0,0.5)"/>
    </g>
    <path id="Pfad_30" data-name="Pfad 30" d="M205,420.688h59.6L246.72,404l17.88,16.688-17.88,16.688,17.88-16.688Z" transform="translate(-199.714 -370.408)" fill="none" stroke="#000" stroke-linecap="round" stroke-linejoin="round" stroke-width="10"/>
  </g>
</svg>
