<svg xmlns="http://www.w3.org/2000/svg" xmlns:xlink="http://www.w3.org/1999/xlink" width="100" height="100" viewBox="0 0 100 100">
  <defs>
    <clipPath id="clip-logout">
      <rect width="100" height="100"/>
    </clipPath>
  </defs>
  <g id="logout" clip-path="url(#clip-logout)">
    <g id="Box" transform="translate(104 -4) rotate(90)">
      <path id="Rechteck_13" data-name="Rechteck 13" d="M2,0H8.262a2,2,0,0,1,2,2V40.476a0,0,0,0,1,0,0H0a0,0,0,0,1,0,0V2A2,2,0,0,1,2,0Z" transform="translate(19 40.262)" fill="rgba(0,0,0,0.5)"/>
      <rect id="Rechteck_14" data-name="Rechteck 14" width="10.262" height="49.476" transform="translate(78.738 80.738) rotate(90)" fill="rgba(0,0,0,0.5)"/>
      <path id="Rechteck_15" data-name="Rechteck 15" d="M2,0H8.262a2,2,0,0,1,2,2V40.476a0,0,0,0,1,0,0H0a0,0,0,0,1,0,0V2A2,2,0,0,1,2,0Z" transform="translate(78.738 40.262)" fill="rgba(0,0,0,0.5)"/>
      <path id="Rechteck_18" data-name="Rechteck 18" d="M0,0H10.262a0,0,0,0,1,0,0V0A10.262,10.262,0,0,1,0,10.262H0a0,0,0,0,1,0,0V0A0,0,0,0,1,0,0Z" transform="translate(78.738 80.738)" fill="rgba(0,0,0,0.5)"/>
      <path id="Rechteck_19" data-name="Rechteck 19" d="M0,0H10.262a0,0,0,0,1,0,0V0A10.262,10.262,0,0,1,0,10.262H0a0,0,0,0,1,0,0V0A0,0,0,0,1,0,0Z" transform="translate(29.262 80.738) rotate(90)" fill="rgba(0,0,0,0.5)"/>
    </g>
    <g id="Arrow" transform="translate(99.741 -0.3) rotate(90)">
      <rect id="arrow-2" data-name="arrow" width="8.831" height="48.521" rx="4.415" transform="translate(45.899 12)"/>
      <g id="Ar_L" data-name="Ar L" transform="translate(37 12.886)">
        <circle id="Ellipse_6" data-name="Ellipse 6" cx="4.415" cy="4.415" r="4.415" transform="translate(0 7.945)"/>
        <path id="Pfad_1" data-name="Pfad 1" d="M38.791,570.4l8.835-8.843,2.232-.652-2.725,12.22-2.844,2.856Z" transform="translate(-37.034 -560.902)" stroke="#000" stroke-width="1"/>
      </g>
      <g id="Ar_R" data-name="Ar R" transform="translate(50.775 12.883)">
        <circle id="Ellipse_6-2" data-name="Ellipse 6" cx="4.415" cy="4.415" r="4.415" transform="translate(3.994 7.948)"/>
        <path id="Pfad_1-2" data-name="Pfad 1" d="M49.858,570.4l-8.835-8.845-2.232-.652,2.724,12.222,2.844,2.857Z" transform="translate(-38.791 -560.902)" stroke="#000" stroke-width="1"/>
      </g>
    </g>
  </g>
</svg>
