<svg xmlns="http://www.w3.org/2000/svg" xmlns:xlink="http://www.w3.org/1999/xlink" width="100" height="100" viewBox="0 0 100 100">
  <defs>
    <clipPath id="clip-logout">
      <rect width="100" height="100"/>
    </clipPath>
  </defs>
  <g id="logout" clip-path="url(#clip-logout)">
    <g id="Box" transform="translate(62.599 6.636) rotate(90)">
      <path id="Rechteck_13" data-name="Rechteck 13" d="M2,0h8.661a2,2,0,0,1,2,2V49.937a0,0,0,0,1,0,0H0a0,0,0,0,1,0,0V2A2,2,0,0,1,2,0Z" fill="rgba(0,0,0,0.5)"/>
      <rect id="Rechteck_14" data-name="Rechteck 14" width="12.661" height="61.041" transform="translate(73.702 49.937) rotate(90)" fill="rgba(0,0,0,0.5)"/>
      <path id="Rechteck_15" data-name="Rechteck 15" d="M2,0h8.661a2,2,0,0,1,2,2V49.937a0,0,0,0,1,0,0H0a0,0,0,0,1,0,0V2A2,2,0,0,1,2,0Z" transform="translate(73.702)" fill="rgba(0,0,0,0.5)"/>
      <path id="Rechteck_18" data-name="Rechteck 18" d="M0,0H12.661a0,0,0,0,1,0,0V0A12.661,12.661,0,0,1,0,12.661H0a0,0,0,0,1,0,0V0A0,0,0,0,1,0,0Z" transform="translate(73.702 49.937)" fill="rgba(0,0,0,0.5)"/>
      <path id="Rechteck_19" data-name="Rechteck 19" d="M0,0H12.661a0,0,0,0,1,0,0V0A12.661,12.661,0,0,1,0,12.661H0a0,0,0,0,1,0,0V0A0,0,0,0,1,0,0Z" transform="translate(12.661 49.937) rotate(90)" fill="rgba(0,0,0,0.5)"/>
    </g>
    <path id="Pfad_30" data-name="Pfad 30" d="M205,421.273h61.688L248.182,404l18.506,17.273-18.506,17.273,18.506-17.273Z" transform="translate(-171.688 -371.455)" fill="none" stroke="#000" stroke-linecap="round" stroke-linejoin="round" stroke-width="10"/>
  </g>
</svg>
