<svg xmlns="http://www.w3.org/2000/svg" xmlns:xlink="http://www.w3.org/1999/xlink" width="100" height="100" viewBox="0 0 100 100">
  <defs>
    <clipPath id="clip-nav-placeholder">
      <rect width="100" height="100"/>
    </clipPath>
  </defs>
  <g id="nav-placeholder" clip-path="url(#clip-nav-placeholder)">
    <g id="Rechteck_58" data-name="Rechteck 58" transform="translate(5 5)" fill="#fff" stroke="rgba(15,13,13,0.15)" stroke-width="1">
      <rect width="90" height="90" rx="10" stroke="none"/>
      <rect x="0.5" y="0.5" width="89" height="89" rx="9.5" fill="none"/>
    </g>
    <g id="Gruppe_7" data-name="Gruppe 7">
      <rect id="Rechteck_59" data-name="Rechteck 59" width="40" height="23" rx="11.5" transform="translate(8 38.5)" fill="rgba(192,0,0,0.6)"/>
      <rect id="Rechteck_66" data-name="Rechteck 66" width="40" height="23" rx="11.5" transform="translate(28.433 12.17) rotate(45)" fill="rgba(235,28,61,0.6)"/>
      <rect id="Rechteck_62" data-name="Rechteck 62" width="40" height="23" rx="11.5" transform="translate(61.5 8) rotate(90)" fill="rgba(251,119,51,0.6)"/>
      <rect id="Rechteck_64" data-name="Rechteck 64" width="40" height="23" rx="11.5" transform="translate(87.83 28.433) rotate(135)" fill="rgba(251,224,51,0.6)"/>
      <rect id="Rechteck_60" data-name="Rechteck 60" width="40" height="23" rx="11.5" transform="translate(52 38.5)" fill="rgba(60,167,74,0.6)"/>
      <rect id="Rechteck_65" data-name="Rechteck 65" width="40" height="23" rx="11.5" transform="translate(59.546 43.282) rotate(45)" fill="rgba(54,133,21,0.6)"/>
      <path id="Pfad_42" data-name="Pfad 42" d="M11.5,0h17a11.5,11.5,0,0,1,0,23h-17a11.5,11.5,0,0,1,0-23Z" transform="translate(61.5 52) rotate(90)" fill="rgba(51,131,251,0.6)"/>
      <rect id="Rechteck_63" data-name="Rechteck 63" width="40" height="23" rx="11.5" transform="translate(56.718 59.546) rotate(135)" fill="rgba(80,2,157,0.6)"/>
    </g>
  </g>
</svg>
