<svg xmlns="http://www.w3.org/2000/svg" xmlns:xlink="http://www.w3.org/1999/xlink" width="100" height="100" viewBox="0 0 100 100">
  <defs>
    <clipPath id="clip-questionmark">
      <rect width="100" height="100"/>
    </clipPath>
  </defs>
  <g id="questionmark" clip-path="url(#clip-questionmark)">
    <g id="Ellipse_7" data-name="Ellipse 7" fill="rgba(0,0,0,0.33)" stroke="#000" stroke-width="6">
      <circle cx="50" cy="50" r="50" stroke="none"/>
      <circle cx="50" cy="50" r="47" fill="none"/>
    </g>
    <path id="Pfad" d="M43.959,0C35.652,0,30.271,3.4,26.047,9.474a2.5,2.5,0,0,0,.539,3.421l4.49,3.4a2.5,2.5,0,0,0,3.461-.432c2.607-3.266,4.541-5.147,8.613-5.147,3.2,0,7.162,2.061,7.162,5.166,0,2.347-1.938,3.553-5.1,5.325-3.687,2.067-8.566,4.639-8.566,11.074v1.019a2.5,2.5,0,0,0,2.5,2.5h7.543a2.5,2.5,0,0,0,2.5-2.5v-.6c0-4.461,13.038-4.647,13.038-16.718C62.223,6.9,52.793,0,43.959,0ZM42.916,38.869a7.21,7.21,0,1,0,7.21,7.21A7.218,7.218,0,0,0,42.916,38.869Z" transform="translate(6.331 22.712)"/>
  </g>
</svg>
