<svg xmlns="http://www.w3.org/2000/svg" xmlns:xlink="http://www.w3.org/1999/xlink" width="100" height="100" viewBox="0 0 100 100">
  <defs>
    <linearGradient id="linear-gradient" x1="0.5" x2="0.5" y2="1" gradientUnits="objectBoundingBox">
      <stop offset="0"/>
      <stop offset="0.474"/>
      <stop offset="0.937" stop-opacity="0"/>
      <stop offset="1" stop-opacity="0"/>
    </linearGradient>
    <linearGradient id="linear-gradient-2" x1="0.5" x2="0.478" y2="1.016" gradientUnits="objectBoundingBox">
      <stop offset="0"/>
      <stop offset="0.69"/>
      <stop offset="0.711" stop-opacity="0.329"/>
      <stop offset="1" stop-opacity="0.329"/>
    </linearGradient>
    <clipPath id="clip-questionmark">
      <rect width="100" height="100"/>
    </clipPath>
  </defs>
  <g id="questionmark" clip-path="url(#clip-questionmark)">
    <path id="Differenzmenge_10" data-name="Differenzmenge 10" d="M-290-268a49.689,49.689,0,0,1-19.463-3.929,49.834,49.834,0,0,1-15.893-10.715,49.833,49.833,0,0,1-10.715-15.893A49.686,49.686,0,0,1-340-318a49.688,49.688,0,0,1,3.929-19.463,49.833,49.833,0,0,1,10.715-15.893,49.832,49.832,0,0,1,15.893-10.715A49.688,49.688,0,0,1-290-368a49.686,49.686,0,0,1,19.462,3.929,49.832,49.832,0,0,1,15.893,10.715,49.834,49.834,0,0,1,10.715,15.893A49.688,49.688,0,0,1-240-318a49.686,49.686,0,0,1-3.929,19.462,49.834,49.834,0,0,1-10.715,15.893,49.834,49.834,0,0,1-15.893,10.715A49.686,49.686,0,0,1-290-268Zm0-94a44.05,44.05,0,0,0-44,44,44.05,44.05,0,0,0,44,44,44.05,44.05,0,0,0,44-44A44.05,44.05,0,0,0-290-362Z" transform="translate(340 368)" opacity="0" fill="url(#linear-gradient)"/>
    <path id="Pfad" d="M60.055,0C44.465,0,34.368,6.387,26.44,17.779A4.692,4.692,0,0,0,27.452,24.2l8.425,6.388a4.687,4.687,0,0,0,6.495-.81c4.892-6.129,8.521-9.658,16.163-9.658,6.009,0,13.441,3.867,13.441,9.694,0,4.4-3.636,6.667-9.569,9.993-6.919,3.879-16.074,8.706-16.074,20.782V62.5a4.687,4.687,0,0,0,4.688,4.687H65.175A4.687,4.687,0,0,0,69.862,62.5V61.372C69.862,53,94.329,52.653,94.329,30,94.329,12.941,76.633,0,60.055,0ZM58.1,72.941a13.529,13.529,0,1,0,13.53,13.529A13.545,13.545,0,0,0,58.1,72.941Z" transform="translate(-9.669)" fill="url(#linear-gradient-2)"/>
  </g>
</svg>
