<svg xmlns="http://www.w3.org/2000/svg" xmlns:xlink="http://www.w3.org/1999/xlink" width="100" height="100" viewBox="0 0 100 100">
  <defs>
    <linearGradient id="linear-gradient" x1="0.5" x2="0.5" y2="1" gradientUnits="objectBoundingBox">
      <stop offset="0"/>
      <stop offset="0.474"/>
      <stop offset="0.937" stop-opacity="0"/>
      <stop offset="1" stop-opacity="0"/>
    </linearGradient>
    <linearGradient id="linear-gradient-2" x1="0.5" x2="0.478" y2="1.016" gradientUnits="objectBoundingBox">
      <stop offset="0"/>
      <stop offset="0.69"/>
      <stop offset="0.711" stop-opacity="0.329"/>
      <stop offset="1" stop-opacity="0.329"/>
    </linearGradient>
    <clipPath id="clip-questionmark">
      <rect width="100" height="100"/>
    </clipPath>
  </defs>
  <g id="questionmark" clip-path="url(#clip-questionmark)">
    <path id="Differenzmenge_10" data-name="Differenzmenge 10" d="M-290-268a49.689,49.689,0,0,1-19.463-3.929,49.834,49.834,0,0,1-15.893-10.715,49.833,49.833,0,0,1-10.715-15.893A49.686,49.686,0,0,1-340-318a49.688,49.688,0,0,1,3.929-19.463,49.833,49.833,0,0,1,10.715-15.893,49.832,49.832,0,0,1,15.893-10.715A49.688,49.688,0,0,1-290-368a49.686,49.686,0,0,1,19.462,3.929,49.832,49.832,0,0,1,15.893,10.715,49.834,49.834,0,0,1,10.715,15.893A49.688,49.688,0,0,1-240-318a49.686,49.686,0,0,1-3.929,19.462,49.834,49.834,0,0,1-10.715,15.893,49.834,49.834,0,0,1-15.893,10.715A49.686,49.686,0,0,1-290-268Zm0-94a44.05,44.05,0,0,0-44,44,44.05,44.05,0,0,0,44,44,44.05,44.05,0,0,0,44-44A44.05,44.05,0,0,0-290-362Z" transform="translate(340 368)" fill="url(#linear-gradient)"/>
    <path id="Pfad" d="M43.959,0C35.652,0,30.271,3.4,26.047,9.474a2.5,2.5,0,0,0,.539,3.421l4.49,3.4a2.5,2.5,0,0,0,3.461-.432c2.607-3.266,4.541-5.147,8.613-5.147,3.2,0,7.162,2.061,7.162,5.166,0,2.347-1.938,3.553-5.1,5.325-3.687,2.067-8.566,4.639-8.566,11.074v1.019a2.5,2.5,0,0,0,2.5,2.5h7.543a2.5,2.5,0,0,0,2.5-2.5v-.6c0-4.461,13.038-4.647,13.038-16.718C62.223,6.9,52.793,0,43.959,0ZM42.916,38.869a7.21,7.21,0,1,0,7.21,7.21A7.218,7.218,0,0,0,42.916,38.869Z" transform="translate(6.331 22.712)" fill="url(#linear-gradient-2)"/>
  </g>
</svg>
