<svg xmlns="http://www.w3.org/2000/svg" xmlns:xlink="http://www.w3.org/1999/xlink" width="100" height="100" viewBox="0 0 100 100">
  <defs>
    <linearGradient id="linear-gradient" x1="0.335" y1="-0.101" x2="1" y2="1.074" gradientUnits="objectBoundingBox">
      <stop offset="0"/>
      <stop offset="1" stop-opacity="0.502"/>
    </linearGradient>
    <clipPath id="clip-reply">
      <rect width="100" height="100"/>
    </clipPath>
  </defs>
  <g id="reply" clip-path="url(#clip-reply)">
    <path id="Pfad" d="M1.623,62.827,36,33.143s5.814-1.248,7.751,3.548,0,15.635,0,15.635C75.123,52.685,100,58.973,100,88.7c0,12-7.731,23.888-16.276,30.1-2.667,1.94-6.467-.495-5.484-3.639,8.856-28.323-4.2-35.842-34.49-36.278,0,0,1.938,11.991,0,17.171S36,99.61,36,99.61L1.623,69.923a4.689,4.689,0,0,1,0-7.1Z" transform="translate(100 125.75) rotate(180)" fill="url(#linear-gradient)"/>
  </g>
</svg>
