<svg xmlns="http://www.w3.org/2000/svg" xmlns:xlink="http://www.w3.org/1999/xlink" width="100" height="100" viewBox="0 0 100 100">
  <defs>
    <clipPath id="clip-review">
      <rect width="100" height="100"/>
    </clipPath>
  </defs>
  <g id="review" clip-path="url(#clip-review)">
    <g id="Gruppe_1" data-name="Gruppe 1" transform="translate(60.786 -6.5) rotate(45)">
      <path id="Rechteck_22" data-name="Rechteck 22" d="M5,0H8.864a5,5,0,0,1,5,5V81.653a5,5,0,0,1-5,5H0a0,0,0,0,1,0,0V5A5,5,0,0,1,5,0Z" transform="translate(41.593 0)"/>
      <path id="Rechteck_23" data-name="Rechteck 23" d="M0,0H13.864a0,0,0,0,1,0,0V36.593a5,5,0,0,1-5,5H5a5,5,0,0,1-5-5V0A0,0,0,0,1,0,0Z" transform="translate(41.593 72.788) rotate(90)"/>
    </g>
    <g id="Gruppe_2" data-name="Gruppe 2" transform="translate(54.223 -5.489) rotate(45)">
      <path id="Rechteck_22-2" data-name="Rechteck 22" d="M4.87,0h0A4.87,4.87,0,0,1,9.74,4.87V56a4.87,4.87,0,0,1-4.87,4.87H0a0,0,0,0,1,0,0v-56A4.87,4.87,0,0,1,4.87,0Z" transform="translate(29.219 0)" fill="rgba(0,0,0,0.5)"/>
      <path id="Rechteck_23-2" data-name="Rechteck 23" d="M0,0H9.74a0,0,0,0,1,0,0V24.349a4.87,4.87,0,0,1-4.87,4.87h0A4.87,4.87,0,0,1,0,24.349V0A0,0,0,0,1,0,0Z" transform="translate(29.219 51.133) rotate(90)" fill="rgba(0,0,0,0.5)"/>
    </g>
  </g>
</svg>
