<svg xmlns="http://www.w3.org/2000/svg" xmlns:xlink="http://www.w3.org/1999/xlink" width="100" height="100" viewBox="0 0 100 100">
  <defs>
    <clipPath id="clip-save">
      <rect width="100" height="100"/>
    </clipPath>
  </defs>
  <g id="save" clip-path="url(#clip-save)">
    <g id="Gruppe_9" data-name="Gruppe 9" transform="translate(5.25)">
      <g id="Pfad_12" data-name="Pfad 12" transform="translate(-348.25 -177.516)" stroke-linecap="round" stroke-linejoin="round">
        <path d="M 407.9043273925781 275.258544921875 L 404.4758605957031 273.8871765136719 L 380.2022094726562 264.1777038574219 L 355.9285278320312 273.8871765136719 L 352.5000610351562 275.258544921875 L 352.5000610351562 271.5659790039062 L 352.5000610351562 201.0000152587891 L 352.5000610351562 198.5000152587891 L 355.0000610351562 198.5000152587891 L 405.4043273925781 198.5000152587891 L 407.9043273925781 198.5000152587891 L 407.9043273925781 201.0000152587891 L 407.9043273925781 271.5659790039062 L 407.9043273925781 275.258544921875 Z" stroke="none"/>
        <path d="M 355.0000610351562 201 L 355.0000610351562 271.5659790039062 L 380.2022094726562 261.4851379394531 L 405.4043273925781 271.5659790039062 L 405.4043273925781 201 L 355.0000610351562 201 M 355.0000610351562 196 L 405.4043273925781 196 C 408.1657409667969 196 410.4043273925781 198.2385864257812 410.4043273925781 201 L 410.4043273925781 271.5659790039062 C 410.4043273925781 273.22509765625 409.5813293457031 274.7761840820312 408.2074890136719 275.706298828125 C 407.3680114746094 276.274658203125 406.389404296875 276.5659790039062 405.4039306640625 276.5659790039062 C 404.7765808105469 276.5659790039062 404.1465759277344 276.4480590820312 403.5473937988281 276.2083740234375 L 380.2022094726562 266.8703002929688 L 356.8569946289062 276.2083740234375 C 356.2579040527344 276.447998046875 355.6277160644531 276.5659790039062 355.0004577636719 276.5659790039062 C 354.0148620605469 276.5659790039062 353.0364685058594 276.2747192382812 352.1969299316406 275.706298828125 C 350.8230590820312 274.7761840820312 350.0000610351562 273.22509765625 350.0000610351562 271.5659790039062 L 350.0000610351562 201 C 350.0000610351562 198.2385864257812 352.2386474609375 196 355.0000610351562 196 Z" stroke="none"/>
      </g>
      <path id="Differenzmenge_7" data-name="Differenzmenge 7" d="M53.277,85.917H39.808V21.523a6.007,6.007,0,0,0-6-6H0V10A10.011,10.011,0,0,1,10,0H47.278a10.011,10.011,0,0,1,10,10V81.917A4,4,0,0,1,53.277,85.917Z" transform="translate(25.652)" fill="rgba(0,0,0,0.33)"/>
    </g>
  </g>
</svg>
