<svg xmlns="http://www.w3.org/2000/svg" xmlns:xlink="http://www.w3.org/1999/xlink" width="100" height="100" viewBox="0 0 100 100">
  <defs>
    <clipPath id="clip-save">
      <rect width="100" height="100"/>
    </clipPath>
  </defs>
  <g id="save" clip-path="url(#clip-save)">
    <g id="Pfad_12" data-name="Pfad 12" transform="translate(-338.25 -171.55)" stroke-linecap="round" stroke-linejoin="round">
      <path d="M 401.5000610351562 266.2925720214844 L 398.0715942382812 264.9212036132812 L 377.0000610351562 256.4925842285156 L 355.9285278320312 264.9212036132812 L 352.5000610351562 266.2925720214844 L 352.5000610351562 262.6000061035156 L 352.5000610351562 201 L 352.5000610351562 198.5 L 355.0000610351562 198.5 L 399.0000610351562 198.5 L 401.5000610351562 198.5 L 401.5000610351562 201 L 401.5000610351562 262.6000061035156 L 401.5000610351562 266.2925720214844 Z" stroke="none"/>
      <path d="M 355.0000610351562 201 L 355.0000610351562 262.6000061035156 L 377.0000610351562 253.8000030517578 L 399.0000610351562 262.6000061035156 L 399.0000610351562 201 L 355.0000610351562 201 M 355.0000610351562 196 L 399.0000610351562 196 C 401.761474609375 196 404.0000610351562 198.2385864257812 404.0000610351562 201 L 404.0000610351562 262.6000061035156 C 404.0000610351562 264.2591247558594 403.1770629882812 265.8101806640625 401.80322265625 266.7403564453125 C 400.9637451171875 267.3086853027344 399.9851684570312 267.6000366210938 398.9996643066406 267.6000366210938 C 398.372314453125 267.6000366210938 397.7423095703125 267.4820556640625 397.1430969238281 267.2423706054688 L 377.0000610351562 259.1851806640625 L 356.8570251464844 267.2423706054688 C 356.2579040527344 267.4820251464844 355.6277160644531 267.6000366210938 355.0004577636719 267.6000366210938 C 354.0148620605469 267.6000366210938 353.0364685058594 267.3087463378906 352.1968994140625 266.7403564453125 C 350.8230590820312 265.8101806640625 350.0000610351562 264.2591247558594 350.0000610351562 262.6000061035156 L 350.0000610351562 201 C 350.0000610351562 198.2385864257812 352.2386474609375 196 355.0000610351562 196 Z" stroke="none"/>
    </g>
    <path id="Differenzmenge_7" data-name="Differenzmenge 7" d="M-285.75-111H-297v-55.45a6.007,6.007,0,0,0-6-6h-28.75V-176a10.011,10.011,0,0,1,10-10h30a10.011,10.011,0,0,1,10,10v61A4,4,0,0,1-285.75-111Z" transform="translate(365 194.95)" fill="rgba(0,0,0,0.33)"/>
  </g>
</svg>
