<svg xmlns="http://www.w3.org/2000/svg" xmlns:xlink="http://www.w3.org/1999/xlink" width="100" height="100" viewBox="0 0 100 100">
  <defs>
    <clipPath id="clip-save">
      <rect width="100" height="100"/>
    </clipPath>
  </defs>
  <g id="save" clip-path="url(#clip-save)">
    <path id="Pfad_12" data-name="Pfad 12" d="M355,201h50v70l-25-10-25,10Z" transform="translate(-342.5 -174.5)" stroke="#000" stroke-linecap="round" stroke-linejoin="round" stroke-width="5"/>
    <g id="Rechteck_39" data-name="Rechteck 39" transform="translate(37.5 3.5)" fill="rgba(0,0,0,0.33)" stroke="#000" stroke-width="5">
      <path d="M5,0H45a5,5,0,0,1,5,5V73a2,2,0,0,1-2,2H2a2,2,0,0,1-2-2V5A5,5,0,0,1,5,0Z" stroke="none"/>
      <path d="M5,2.5H45A2.5,2.5,0,0,1,47.5,5V72a.5.5,0,0,1-.5.5H3a.5.5,0,0,1-.5-.5V5A2.5,2.5,0,0,1,5,2.5Z" fill="none"/>
    </g>
  </g>
</svg>
