<svg xmlns="http://www.w3.org/2000/svg" xmlns:xlink="http://www.w3.org/1999/xlink" width="100" height="100" viewBox="0 0 100 100">
  <defs>
    <clipPath id="clip-tmp2">
      <rect width="100" height="100"/>
    </clipPath>
  </defs>
  <g id="tmp2" clip-path="url(#clip-tmp2)">
    <g id="user" transform="translate(0.033 -1.125)">
      <circle id="Ellipse_8" data-name="Ellipse 8" cx="16" cy="16" r="16" transform="translate(33.967 17.125)"/>
    </g>
    <path id="Differenzmenge_1" data-name="Differenzmenge 1" stroke="#000" d="M-89.979-916.663h0a24.8,24.8,0,0,0-3.5-7.345c-3.293-4.116-9.649-4.98-14.4-4.98a39.468,39.468,0,0,0-6,.447,48.3,48.3,0,0,1-5.083,2.436,6.886,6.886,0,0,1,1.13-3.376c1.665-2.081,4.879-2.518,7.282-2.518a19.918,19.918,0,0,1,3.033.226c.04.023,4.033,2.292,6.876,2.292s6.837-2.269,6.877-2.292A20,20,0,0,1-90.727-932c2.4,0,5.617.437,7.282,2.518,1.755,2.194,1.376,8.072,1.372,8.131a2.623,2.623,0,0,1-.229,1.311,4.111,4.111,0,0,1-2.679,2.127,36.774,36.774,0,0,1-5,1.249Z" transform="translate(176.036 978.068)" stroke-linecap="round" stroke-linejoin="round" stroke-width="3" opacity="0.33"/>
    <path id="Differenzmenge_4" data-name="Differenzmenge 4" stroke="#000" d="M28.98,0h0a24.8,24.8,0,0,1-3.5,7.345c-3.293,4.116-9.649,4.98-14.4,4.98a39.468,39.468,0,0,1-6-.447A48.3,48.3,0,0,0,0,9.443a6.886,6.886,0,0,0,1.13,3.376C2.8,14.9,6.009,15.337,8.412,15.337a19.918,19.918,0,0,0,3.033-.226c.04-.023,4.033-2.292,6.876-2.292s6.837,2.269,6.877,2.292a20,20,0,0,0,3.033.226c2.4,0,5.617-.437,7.282-2.518,1.755-2.194,1.376-8.072,1.372-8.131a2.623,2.623,0,0,0-.229-1.311A4.111,4.111,0,0,0,33.978,1.25a36.774,36.774,0,0,0-5-1.249Z" transform="translate(43 61.405) rotate(180)" stroke-linecap="round" stroke-linejoin="round" stroke-width="3" opacity="0.33"/>
    <g id="user-2" data-name="user" transform="translate(41.057 10.875)" opacity="0.33">
      <circle id="Ellipse_8-2" data-name="Ellipse 8" cx="7.706" cy="7.706" r="7.706" transform="translate(26.943 17.125)"/>
    </g>
    <g id="user-3" data-name="user" transform="translate(16.666 28)" opacity="0.33">
      <ellipse id="Ellipse_8-3" data-name="Ellipse 8" cx="7.706" cy="7.706" rx="7.706" ry="7.706" transform="translate(0 0)"/>
    </g>
    <path id="Pfad_22" data-name="Pfad 22" d="M190,832c15,5,45,5,60,0,5.7-1.9,5.074-6,5.074-6S253.1,815.875,250,812c-5-6.25-18-4-18-4s-7,4-12,4-12-4-12-4-13-2.25-18,4c-3.065,3.831-4.99,14-4.99,14S184.195,830.065,190,832Z" transform="translate(-170.033 -753.75)" stroke="#000" stroke-linecap="round" stroke-linejoin="round" stroke-width="3"/>
  </g>
</svg>
