<svg xmlns="http://www.w3.org/2000/svg" xmlns:xlink="http://www.w3.org/1999/xlink" width="100" height="100" viewBox="0 0 100 100">
  <defs>
    <clipPath id="clip-user-active">
      <rect width="100" height="100"/>
    </clipPath>
  </defs>
  <g id="user-active" clip-path="url(#clip-user-active)">
    <path id="Pfad_19" data-name="Pfad 19" d="M190,832c15,5,45,5,60,0,5.7-1.9,5.074-6,5.074-6S253.1,815.875,250,812c-5-6.25-18-4-18-4s-7,4-12,4-12-4-12-4-13-2.25-18,4c-3.065,3.831-4.99,14-4.99,14S184.195,830.065,190,832Z" transform="translate(-179.033 -754.875)" stroke="#000" stroke-linecap="round" stroke-linejoin="round" stroke-width="3"/>
    <circle id="Ellipse_10" data-name="Ellipse 10" cx="16" cy="16" r="16" transform="translate(24.967 15.125)"/>
    <path id="Vereinigungsmenge_4" data-name="Vereinigungsmenge 4" d="M-494-710h-13a3,3,0,0,1-3-3,3,3,0,0,1,3-3h10v-23a3,3,0,0,1,3-3,3,3,0,0,1,3,3v26a3,3,0,0,1-3,3Z" transform="translate(-78.953 893.267) rotate(45)" fill="rgba(0,0,0,0.66)"/>
  </g>
</svg>
