<svg xmlns="http://www.w3.org/2000/svg" xmlns:xlink="http://www.w3.org/1999/xlink" width="100" height="100" viewBox="0 0 100 100"><defs><clipPath id="b"><rect width="100" height="100"/></clipPath></defs><g id="a" clip-path="url(#b)"><path d="M-5945,60a5,5,0,0,1-5-5V53a5,5,0,0,1,5-5h90a5,5,0,0,1,5,5v2a5,5,0,0,1-5,5Zm0-20a5,5,0,0,1-5-5V33a5,5,0,0,1,5-5h44a5,5,0,0,1,5,5v2a5,5,0,0,1-5,5Zm0-20a5,5,0,0,1-5-5V13a5,5,0,0,1,5-5h69a5,5,0,0,1,5,5v2a5,5,0,0,1-5,5Zm0-20a5,5,0,0,1-5-5V-7a5,5,0,0,1,5-5h30a5,5,0,0,1,5,5v2a5,5,0,0,1-5,5Z" transform="translate(5950 26)"/></g></svg>