<svg xmlns="http://www.w3.org/2000/svg" xmlns:xlink="http://www.w3.org/1999/xlink" width="100" height="100" viewBox="0 0 100 100"><defs><clipPath id="b"><rect width="100" height="100"/></clipPath></defs><g id="a" clip-path="url(#b)"><path d="M56.336,31.424c-10.871.4-37.835,3.46-37.835,26.228,0,24.442,30.871,25.446,40.96,9.643,1.451,2.277,7.9,8.371,10.112,10.446l12.679-12.5s-7.21-5.647-7.21-11.786V20.621c0-5.647-5.469-18.371-25.067-18.371-19.643,0-30.067,12.277-30.067,23.281l16.406,1.518C39.952,16,48.412,16,48.412,16c9.085-.022,7.924,6.652,7.924,15.424Zm0,19.375c0,17.857-18.795,15.179-18.795,3.839,0-10.536,11.272-12.656,18.795-12.9Zm30.357,36.5c-1.719,2.232-15.625,14.955-38.951,14.955S6.559,86.29,1.09,79.705c-1.518-1.719.223-2.522,1.228-1.853,16.362,9.933,41.92,26.295,83.147,6.763C87.14,83.79,88.434,85.063,86.693,87.295Zm8.884.491a18.6,18.6,0,0,1-4.732,6.92c-1.228,1-2.121.6-1.451-.848S93.7,83.478,92.229,81.58c-1.451-1.853-8.259-.96-10.714-.714-2.411.223-2.9.446-3.125-.067-.513-1.272,4.844-3.46,8.371-3.906,3.5-.4,9.152-.179,10.268,1.272C97.854,79.3,97.028,84.214,95.577,87.786Z" transform="translate(1.506 -2.25)"/></g></svg>