<svg xmlns="http://www.w3.org/2000/svg" xmlns:xlink="http://www.w3.org/1999/xlink" width="100" height="100" viewBox="0 0 100 100"><defs><clipPath id="b"><rect width="100" height="100"/></clipPath></defs><g id="a" clip-path="url(#b)"><path d="M17.125,34.92A15.191,15.191,0,0,1,14.778,36.8a.957.957,0,0,1-.7.235,14.176,14.176,0,0,1-1.643-2.113,7.56,7.56,0,0,1-5.164,2.113q-4.7,0-4.7-4.695a5.426,5.426,0,0,1,3.286-5.164q.7-.231,5.869-.939v-.469a3.212,3.212,0,0,0-.469-2.113c-.157-.623-.7-.939-1.643-.939a2.36,2.36,0,0,0-2.582,1.878.414.414,0,0,1-.469.469L3.51,24.826c-.315,0-.469-.235-.469-.7q.936-4.693,7.042-4.695a6.366,6.366,0,0,1,4.695,1.643q1.173,1.177,1.174,5.164v4.93a5.142,5.142,0,0,0,1.174,2.817.589.589,0,0,1,0,.939Zm-5.4-6.338q-4.7,0-4.695,3.286,0,2.112,1.878,2.113a2.758,2.758,0,0,0,2.347-1.408,8.064,8.064,0,0,0,.469-3.286v-.7ZM65.011,42.2c0-.623-.392-.782-1.174-.469a54.513,54.513,0,0,1-20.188,3.991,50.947,50.947,0,0,1-26.056-6.808l-.7-.235q-.7.235,0,.939a38.682,38.682,0,0,0,26.291,9.859q12.909,0,21.362-6.338a1.349,1.349,0,0,0,.469-.939ZM20.177,37.033h3.052a.623.623,0,0,0,.7-.7V27.878q0-4.225,2.113-4.225,1.876,0,1.878,4.225v8.451c0,.157.155.392.469.7h3.286c.312,0,.469-.235.469-.7V27.878a13.9,13.9,0,0,1,.235-3.052,2.121,2.121,0,0,1,1.878-1.174,1.641,1.641,0,0,1,1.878,1.408V36.328q0,.235.7.7h3.052c.312,0,.469-.235.469-.7V26.235q0-3.751-.7-4.93a4.456,4.456,0,0,0-3.521-1.643,3.986,3.986,0,0,0-4.225,2.817q-1.408-2.817-3.991-2.817A4.23,4.23,0,0,0,23.7,22.479V20.6q0-.7-.469-.7H20.177c-.315,0-.469.235-.469.7V36.329c0,.157.154.392.469.7ZM52.335,25.766a3.212,3.212,0,0,0-.469-2.113c-.157-.623-.7-.939-1.643-.939a2.36,2.36,0,0,0-2.582,1.878c0,.157-.157.392-.469.7l-3.052-.469c-.315,0-.469-.235-.469-.7q.936-4.693,7.042-4.695a6.037,6.037,0,0,1,4.46,1.643q1.408,1.177,1.408,5.164v4.93a5.142,5.142,0,0,0,1.174,2.817.588.588,0,0,1,0,.939q-.235.235-1.056.939a7.155,7.155,0,0,1-1.291.939.956.956,0,0,1-.7.235A4.179,4.179,0,0,1,53.51,35.86a7.392,7.392,0,0,0-.7-.939,6.758,6.758,0,0,1-4.93,2.113q-4.7,0-4.695-4.695a5.425,5.425,0,0,1,3.286-5.164q.7-.231,5.869-.939v-.47Zm0,2.816q-4.7,0-4.695,3.286,0,2.112,1.878,2.113a2.256,2.256,0,0,0,2.113-1.408,5.676,5.676,0,0,0,.7-3.286v-.7Zm13.5,9.038a11.828,11.828,0,0,0-5.751,1.526q-.94.941.235.939,5.866-.7,6.808.235.468.7-1.643,6.573a.462.462,0,0,0,.7.235,9.177,9.177,0,0,0,3.052-4.812q.936-3.169.235-3.873-.238-.937-3.64-.823Zm5.516-5.047A11.6,11.6,0,0,0,65.715,31.4l5.164-7.512a2.834,2.834,0,0,0,.7-1.408V20.6q0-.7-.469-.7H61.021a.622.622,0,0,0-.7.7v2.113a.623.623,0,0,0,.7.7h5.164l-6.1,8.685a4.033,4.033,0,0,0-.235,1.643v2.113a.623.623,0,0,0,.7.7,11.047,11.047,0,0,1,10.8,0,.623.623,0,0,0,.7-.7V33.512a.92.92,0,0,0-.7-.939Zm16.2-3.991a9.58,9.58,0,0,1-2,6.221A6.227,6.227,0,0,1,80.5,37.268a6.029,6.029,0,0,1-5.164-2.582,10.469,10.469,0,0,1-1.878-6.338,9.966,9.966,0,0,1,1.878-6.221A6.133,6.133,0,0,1,80.5,19.662a6.043,6.043,0,0,1,5.164,2.582,10.506,10.506,0,0,1,1.878,6.338Zm-4.695,0a14.272,14.272,0,0,0-.469-4.225,1.641,1.641,0,0,0-1.878-1.408q-2.349,0-2.347,4.93,0,6.108,2.347,6.1t2.347-5.4Zm15.258-8.92q-2.817,0-4.225,3.052V20.367c0-.312-.235-.469-.7-.469H90.364a.414.414,0,0,0-.469.469V36.329c0,.157.155.392.469.7h3.052a.623.623,0,0,0,.7-.7V27.878a7.264,7.264,0,0,1,.469-3.052,1.84,1.84,0,0,1,1.878-1.408q1.876,0,1.878,4.46v8.451c0,.157.155.392.469.7h3.052a.623.623,0,0,0,.7-.7V26.47q0-3.751-.939-4.93a3.569,3.569,0,0,0-3.521-1.878Z" transform="translate(-2.571 15.573)"/></g></svg>