<svg xmlns="http://www.w3.org/2000/svg" xmlns:xlink="http://www.w3.org/1999/xlink" width="100" height="100" viewBox="0 0 100 100"><defs><clipPath id="b"><rect width="100" height="100"/></clipPath></defs><g id="a" clip-path="url(#b)"><path d="M5.918.668a24.481,24.481,0,0,0-1.9,1.675C.131,6.239-.907,11.307.779,18.172a68.259,68.259,0,0,0,2.107,6.5l.421,1.1.586.113c.319.072.987.205,1.49.308a3.012,3.012,0,0,0,1.9-.02c.545-.124,1.018-.237,1.028-.247s-.144-.76-.37-1.665a26.509,26.509,0,0,1-.966-8.675A14.008,14.008,0,0,1,12.948,4.6l.339-.257L10.122,2.19C8.385,1,6.935.021,6.9,0A7.665,7.665,0,0,0,5.918.668Z" transform="translate(41.452 2.079) rotate(-9)" opacity="0.5"/><path d="M-8790.085-85.887c-6.116-1.007-7.822-1.048-12.777-.246-6.014.965-8.767,1.141-11.059.708-2.754-.523-5.049-1.984-7.35-4.686a113.555,113.555,0,0,1-7.3-10.423,85.31,85.31,0,0,1-8.736-18.223c-2.714-8.3-3.373-15.491-2.006-21.893a21.243,21.243,0,0,1,6.29-11.6,26.174,26.174,0,0,1,6.8-4.769,23.078,23.078,0,0,1,7.525-2.209,36.224,36.224,0,0,1,6.342,0,24.781,24.781,0,0,1,9.115,2.888,15.717,15.717,0,0,0,4.278,1.655,16.063,16.063,0,0,0,4.911-.011,36.965,36.965,0,0,0,5.5-1.975c1.161-.491,2.426-1,2.826-1.139,2.416-.822,8.407-1.233,11.717-.8a17.487,17.487,0,0,1,10.66,5.015c3.936,3.969,6.764,10.865,7.286,17.783a46.018,46.018,0,0,1-1.142,12.437,67.714,67.714,0,0,1-6.5,16.465,141.134,141.134,0,0,1-9.8,15.214c-.494.617-1.5,1.736-2.241,2.466-2.673,2.672-4.925,3.782-8.133,4.007-.169.013-.352.019-.551.019A38.882,38.882,0,0,1-8790.085-85.887Zm2.83-77.293a38.566,38.566,0,0,1-4.595-1.416,11.1,11.1,0,0,1,2.088-2.911c3.477-3.808,9.026-7.269,16.036-9.991a4.542,4.542,0,0,0,.729-.324c-.117-.076-5.779,1.289-8.35,2.008a45.438,45.438,0,0,0-12.093,4.923,6.378,6.378,0,0,1-.919.509,27.018,27.018,0,0,1,1.3-3.773c2.133-4.928,5.473-8.62,9.015-9.974,3.817-1.456,10.121-.885,17.479,1.561,2.252.746,5.581,2.042,6.954,2.7.215.112-3.038,4.4-5.093,6.737a38.782,38.782,0,0,1-8.582,7.521,20.258,20.258,0,0,1-6.643,2.332,20.837,20.837,0,0,1-4.05.416A16.443,16.443,0,0,1-8787.255-163.18Z" transform="translate(8848 185.2)"/></g></svg>