<svg xmlns="http://www.w3.org/2000/svg" xmlns:xlink="http://www.w3.org/1999/xlink" width="100" height="100" viewBox="0 0 100 100"><defs><clipPath id="b"><rect width="100" height="100"/></clipPath></defs><g id="a" clip-path="url(#b)"><path d="M-6551.5-121.9v-9.811h-54.064v9.811a3.655,3.655,0,0,1-6.237,2.574l-15.66-15.6a3.631,3.631,0,0,1,0-5.15l15.66-15.6a3.655,3.655,0,0,1,6.237,2.574v9.746h54.064v-9.746a3.657,3.657,0,0,1,6.238-2.574l15.66,15.6a3.634,3.634,0,0,1,0,5.15l-15.66,15.6a3.588,3.588,0,0,1-2.558,1.073A3.644,3.644,0,0,1-6551.5-121.9Z" transform="translate(-87.504 6628.53) rotate(90)"/></g></svg>