<svg xmlns="http://www.w3.org/2000/svg" xmlns:xlink="http://www.w3.org/1999/xlink" width="100" height="100" viewBox="0 0 100 100"><defs><clipPath id="b"><rect width="100" height="100"/></clipPath></defs><g id="a" clip-path="url(#b)"><path d="M-6412.575-89.07l-15.6-15.66a3.586,3.586,0,0,1-1.071-2.557,3.642,3.642,0,0,1,3.648-3.68h9.811v-21.241h-21.243v9.811a3.654,3.654,0,0,1-6.236,2.573l-15.66-15.6a3.629,3.629,0,0,1,0-5.149l15.66-15.6a3.654,3.654,0,0,1,6.236,2.573v9.746h21.243v-21.175h-9.811a3.655,3.655,0,0,1-2.575-6.237l15.6-15.659a3.629,3.629,0,0,1,5.149,0l15.6,15.659a3.655,3.655,0,0,1-2.573,6.237h-9.746v21.175h21.175V-153.6a3.656,3.656,0,0,1,6.237-2.573l15.661,15.6a3.632,3.632,0,0,1,0,5.149l-15.661,15.6a3.587,3.587,0,0,1-2.557,1.073,3.644,3.644,0,0,1-3.679-3.648v-9.811h-21.175v21.241h9.746a3.656,3.656,0,0,1,2.573,6.237l-15.6,15.66A3.622,3.622,0,0,1-6410-88,3.626,3.626,0,0,1-6412.575-89.07Z" transform="translate(6460 188)"/></g></svg>