<svg xmlns="http://www.w3.org/2000/svg" xmlns:xlink="http://www.w3.org/1999/xlink" width="100" height="100" viewBox="0 0 100 100"><defs><clipPath id="b"><rect width="100" height="100"/></clipPath></defs><g id="a" clip-path="url(#b)"><path d="M-7085.53-296.344c-1.521-.267-1.616-1.231-1.717-2.252l-.009-.078-7.264-25.841a8,8,0,0,0,1.474.137,8.062,8.062,0,0,0,7.242-4.563l.047-.1a7.978,7.978,0,0,1,7.062-4.559h.079a8.054,8.054,0,0,0,1.593-.194l12.172,26.961.04.057c.583.848,1.135,1.65.139,2.837-.29.025-.6.038-.915.038-4.21,0-9.594-2.21-9.648-2.233a1.77,1.77,0,0,0-.352-.032,5.244,5.244,0,0,0-3.262,1.347c-.029.059-3.168,6.013-6.678,8.471Zm-39.745-8.471a5.224,5.224,0,0,0-3.259-1.347,1.787,1.787,0,0,0-.354.032c-.053.023-5.484,2.233-9.652,2.233-.315,0-.62-.013-.908-.038-1-1.185-.449-1.985.132-2.831l.043-.063,12.314-27.266a7.955,7.955,0,0,0,2.62.5h.079a7.978,7.978,0,0,1,7.062,4.559l.047.1a7.962,7.962,0,0,0,7.242,4.563c.09,0,.178,0,.269,0l-7.228,25.709,0,.063c-.1,1.027-.191,2-1.719,2.267C-7122.094-298.8-7125.243-304.756-7125.275-304.815Zm5.593-57.567A17.619,17.619,0,0,1-7102.064-380a17.617,17.617,0,0,1,17.616,17.618,17.615,17.615,0,0,1-17.616,17.616A17.617,17.617,0,0,1-7119.682-362.382Z" transform="translate(7152 396.344)" opacity="0.5"/><path d="M-7095.292-308.542a7.234,7.234,0,0,1-3.81-1.088,7.247,7.247,0,0,0-3.819-1.087,7.244,7.244,0,0,0-3.818,1.087,7.24,7.24,0,0,1-3.811,1.088,7.288,7.288,0,0,1-3.816-1.078,7.226,7.226,0,0,1-2.739-3.05l-.043-.088a7.212,7.212,0,0,0-6.39-4.126h-.071a7.268,7.268,0,0,1-5.325-2.5,7.268,7.268,0,0,1-1.721-5.623l.029-.246a7.226,7.226,0,0,0-3.122-6.87l-.189-.128a7.269,7.269,0,0,1-3.1-4.965,7.275,7.275,0,0,1,1.575-5.64l.177-.215a7.234,7.234,0,0,0,1.066-7.452l-.111-.263a7.265,7.265,0,0,1,.074-5.863,7.268,7.268,0,0,1,4.386-3.893l.144-.046a7.229,7.229,0,0,0,4.949-5.735l.026-.177a7.255,7.255,0,0,1,2.5-4.388,7.267,7.267,0,0,1,4.651-1.7,7.272,7.272,0,0,1,1.92.26l.016,0a7.25,7.25,0,0,0,1.915.258,7.263,7.263,0,0,0,5.4-2.416l.02-.021a7.264,7.264,0,0,1,5.405-2.416,7.261,7.261,0,0,1,5.4,2.416l.02.021a7.26,7.26,0,0,0,5.4,2.416,7.261,7.261,0,0,0,1.915-.258l.015,0a7.28,7.28,0,0,1,1.921-.26,7.269,7.269,0,0,1,4.651,1.7,7.246,7.246,0,0,1,2.5,4.388l.029.177a7.222,7.222,0,0,0,4.946,5.736l.144.046a7.268,7.268,0,0,1,4.387,3.894,7.268,7.268,0,0,1,.073,5.863l-.111.263a7.232,7.232,0,0,0,1.067,7.452l.176.215a7.273,7.273,0,0,1,1.576,5.639,7.272,7.272,0,0,1-3.1,4.965l-.188.128a7.227,7.227,0,0,0-3.123,6.87l.03.246a7.268,7.268,0,0,1-1.721,5.623,7.27,7.27,0,0,1-5.326,2.5h-.071a7.218,7.218,0,0,0-6.39,4.126l-.042.088a7.226,7.226,0,0,1-2.74,3.05A7.289,7.289,0,0,1-7095.292-308.542Zm-8.216-57.9A23.515,23.515,0,0,0-7127-342.955a23.516,23.516,0,0,0,23.488,23.491,23.517,23.517,0,0,0,23.489-23.491A23.516,23.516,0,0,0-7103.508-366.444Z" transform="translate(7153.442 376.916)"/></g></svg>