<svg xmlns="http://www.w3.org/2000/svg" xmlns:xlink="http://www.w3.org/1999/xlink" width="100" height="100" viewBox="0 0 100 100"><defs><clipPath id="b"><rect width="100" height="100"/></clipPath></defs><g id="a" clip-path="url(#b)"><path d="M-10841.536-88a15.4,15.4,0,0,1-15.387-15.385v-7.693h-7.693A15.4,15.4,0,0,1-10880-126.463v-46.156a15.4,15.4,0,0,1,15.383-15.38h46.156a15.4,15.4,0,0,1,15.381,15.38v7.693h7.693A15.4,15.4,0,0,1-10780-149.541v46.156A15.4,15.4,0,0,1-10795.386-88Zm-30.771-81.448v39.818a10.872,10.872,0,0,0,10.859,10.859h39.816a10.874,10.874,0,0,0,10.861-10.859v-39.818a10.871,10.871,0,0,0-10.861-10.859h-39.816A10.869,10.869,0,0,0-10872.308-169.447Z" transform="translate(10880 187.999)"/></g></svg>