<svg xmlns="http://www.w3.org/2000/svg" xmlns:xlink="http://www.w3.org/1999/xlink" width="100" height="100" viewBox="0 0 100 100"><defs><clipPath id="b"><rect width="100" height="100"/></clipPath></defs><g id="a" clip-path="url(#b)"><path d="M-4730.878-320.384l-16.3-16.3a7.214,7.214,0,0,1,0-10.19l16.3-16.3a7.212,7.212,0,0,1,10.19,0l16.3,16.3a7.212,7.212,0,0,1,0,10.19l-16.3,16.3a7.186,7.186,0,0,1-5.1,2.107A7.181,7.181,0,0,1-4730.878-320.384Zm2.546-14.776a5.049,5.049,0,0,0,0,7.133,5.048,5.048,0,0,0,7.132,0,5.049,5.049,0,0,0,0-7.133,5.029,5.029,0,0,0-3.567-1.475A5.032,5.032,0,0,0-4728.332-335.16Zm10.19-10.189a5.047,5.047,0,0,0,0,7.132,5.049,5.049,0,0,0,7.132,0,5.051,5.051,0,0,0,0-7.134,5.029,5.029,0,0,0-3.567-1.475A5.027,5.027,0,0,0-4718.142-345.349Zm-20.379,0a5.048,5.048,0,0,0,0,7.133,5.048,5.048,0,0,0,7.132,0,5.049,5.049,0,0,0,0-7.133,5.027,5.027,0,0,0-3.566-1.475A5.031,5.031,0,0,0-4738.521-345.35Zm10.189-10.189a5.047,5.047,0,0,0,0,7.132,5.049,5.049,0,0,0,7.132,0,5.052,5.052,0,0,0,0-7.134,5.029,5.029,0,0,0-3.566-1.475A5.029,5.029,0,0,0-4728.332-355.538Z" transform="translate(4775.783 391.783)" opacity="0.66"/><path d="M-4736.125-270.646l-16.306-16.3a7.214,7.214,0,0,1,0-10.191l21.392-21.391a4.329,4.329,0,0,0,.006,6.108l20.382,20.381a4.307,4.307,0,0,0,6,.108h0l-21.285,21.286a7.185,7.185,0,0,1-5.1,2.108A7.176,7.176,0,0,1-4736.125-270.646Zm58.082-54.006-20.381-20.379a4.326,4.326,0,0,0-6.113,0l21.4-21.4a7.212,7.212,0,0,1,10.188,0l16.3,16.3a7.212,7.212,0,0,1,0,10.189l-21.393,21.393A4.329,4.329,0,0,0-4678.043-324.652Z" transform="translate(4754.537 368.538)"/></g></svg>