<svg xmlns="http://www.w3.org/2000/svg" xmlns:xlink="http://www.w3.org/1999/xlink" width="100" height="100" viewBox="0 0 100 100"><defs><clipPath id="b"><rect width="100" height="100"/></clipPath></defs><g id="a" clip-path="url(#b)"><path d="M-10287.5-151.335a2.5,2.5,0,0,1-2.5-2.5V-185.5a2.5,2.5,0,0,1,2.5-2.5h8.338a2.5,2.5,0,0,1,2.5,2.5v31.663a2.5,2.5,0,0,1-2.5,2.5Zm-26.666,0a2.5,2.5,0,0,1-2.5-2.5V-185.5a2.5,2.5,0,0,1,2.5-2.5h8.338a2.5,2.5,0,0,1,2.5,2.5v31.663a2.5,2.5,0,0,1-2.5,2.5Zm-26.662,0a2.5,2.5,0,0,1-2.5-2.5V-185.5a2.5,2.5,0,0,1,2.5-2.5h8.334a2.5,2.5,0,0,1,2.5,2.5v31.663a2.5,2.5,0,0,1-2.5,2.5Zm-26.666,0a2.5,2.5,0,0,1-2.5-2.5V-185.5a2.5,2.5,0,0,1,2.5-2.5h8.332a2.5,2.5,0,0,1,2.5,2.5v31.663a2.5,2.5,0,0,1-2.5,2.5Z" transform="translate(10373.332 230.334)" opacity="0.5"/><path d="M-10366.664-103a3.331,3.331,0,0,1-3.334-3.331v-5a3.332,3.332,0,0,1,3.334-3.335h93.328a3.337,3.337,0,0,1,3.336,3.335v5a3.336,3.336,0,0,1-3.336,3.331Zm-.084-54.456a3.173,3.173,0,0,1-3.25-3.088v-4.589a4.472,4.472,0,0,1,2.982-4.346l45.109-20.148a5.075,5.075,0,0,1,3.809,0l45.109,20.148a4.467,4.467,0,0,1,2.982,4.272h.006v4.663a3.175,3.175,0,0,1-3.254,3.088Z" transform="translate(10370 197.001)"/></g></svg>