<svg xmlns="http://www.w3.org/2000/svg" xmlns:xlink="http://www.w3.org/1999/xlink" width="100" height="100" viewBox="0 0 100 100"><defs><clipPath id="b"><rect width="100" height="100"/></clipPath></defs><g id="a" clip-path="url(#b)"><path d="M-3083.666-16192a3.335,3.335,0,0,1-3.334-3.334v-5a3.332,3.332,0,0,1,3.334-3.334h93.33a3.338,3.338,0,0,1,3.338,3.334v5a3.341,3.341,0,0,1-3.338,3.334Zm82.495-15a2.5,2.5,0,0,1-2.5-2.5v-31.663a2.5,2.5,0,0,1,2.5-2.5h8.339a2.5,2.5,0,0,1,2.5,2.5v31.663a2.5,2.5,0,0,1-2.5,2.5Zm-26.666,0a2.5,2.5,0,0,1-2.5-2.5v-31.663a2.5,2.5,0,0,1,2.5-2.5h8.339a2.5,2.5,0,0,1,2.5,2.5v31.663a2.5,2.5,0,0,1-2.5,2.5Zm-26.662,0a2.5,2.5,0,0,1-2.5-2.5v-31.663a2.5,2.5,0,0,1,2.5-2.5h8.334a2.5,2.5,0,0,1,2.5,2.5v31.663a2.5,2.5,0,0,1-2.5,2.5Zm-26.666,0a2.5,2.5,0,0,1-2.5-2.5v-31.663a2.5,2.5,0,0,1,2.5-2.5h8.331a2.5,2.5,0,0,1,2.5,2.5v31.663a2.5,2.5,0,0,1-2.5,2.5Zm-2.582-39.458a3.173,3.173,0,0,1-3.252-3.085v-4.592a4.474,4.474,0,0,1,2.982-4.343l45.112-20.149a5.066,5.066,0,0,1,3.808,0l45.108,20.149a4.462,4.462,0,0,1,2.982,4.27h.008v4.665a3.174,3.174,0,0,1-3.256,3.085Z" transform="translate(3087 16285.999)"/></g></svg>