<svg xmlns="http://www.w3.org/2000/svg" xmlns:xlink="http://www.w3.org/1999/xlink" width="100" height="100" viewBox="0 0 100 100"><defs><clipPath id="b"><rect width="100" height="100"/></clipPath></defs><g id="a" clip-path="url(#b)"><path d="M-3165.753-16216.5a3.749,3.749,0,0,1-3.746-3.751v-5.009a3.757,3.757,0,0,0-3.75-3.742h-67.5a3.739,3.739,0,0,0-3.75,3.612v5.139a3.75,3.75,0,0,1-3.75,3.751h-5a3.749,3.749,0,0,1-3.746-3.751v-55a3.75,3.75,0,0,1,3.746-3.751h5a3.751,3.751,0,0,1,3.75,3.751v15h9.372a9.378,9.378,0,0,1,9.38,9.377v9.372H-3244.5v0h87.5v21.248a3.75,3.75,0,0,1-3.75,3.751Zm-47.5-25v-18.749h46.877a9.373,9.373,0,0,1,9.372,9.377v9.372Z" transform="translate(3257 16298.001)"/></g></svg>