<svg xmlns="http://www.w3.org/2000/svg" xmlns:xlink="http://www.w3.org/1999/xlink" width="100" height="100" viewBox="0 0 100 100"><defs><clipPath id="b"><rect width="100" height="100"/></clipPath></defs><g id="a" clip-path="url(#b)"><path d="M-10508.751-169.251V-188h46.876a9.374,9.374,0,0,1,9.374,9.374v9.374Zm-31.249,0V-188h9.373a9.376,9.376,0,0,1,9.378,9.374v9.374Z" transform="translate(10552.5 225.748)" opacity="0.5"/><path d="M-10448.753-125.5a3.75,3.75,0,0,1-3.748-3.75v-5.009a3.754,3.754,0,0,0-3.75-3.743h-67.5a3.74,3.74,0,0,0-3.75,3.614l0-16.112h87.5v21.251a3.751,3.751,0,0,1-3.753,3.75Zm-87.5,0a3.751,3.751,0,0,1-3.75-3.75v-55a3.749,3.749,0,0,1,3.75-3.75h5a3.747,3.747,0,0,1,3.75,3.75v55a3.749,3.749,0,0,1-3.75,3.75Z" transform="translate(10540 206.999)"/></g></svg>