<svg xmlns="http://www.w3.org/2000/svg" xmlns:xlink="http://www.w3.org/1999/xlink" width="100" height="100" viewBox="0 0 100 100"><defs><clipPath id="b"><rect width="100" height="100"/></clipPath></defs><g id="a" clip-path="url(#b)"><path d="M40.278,33.392c5.521-2.639,8.4-6.632,8.4-12.847C48.681,8.288,39.549,5.3,29.01,5.3H0V66.829H29.826c11.181,0,21.684-5.365,21.684-17.865,0-7.726-3.663-13.437-11.233-15.573ZM13.524,15.805H26.215c4.878,0,9.271,1.372,9.271,7.031,0,5.226-3.42,7.326-8.247,7.326H13.524V15.805ZM27.986,56.378H13.524V39.434h14.74c5.955,0,9.722,2.483,9.722,8.785,0,6.215-4.5,8.16-10,8.16ZM90.226,14.59H65.278V8.531H90.226V14.59ZM100,45.2c0-13.177-7.708-24.167-21.684-24.167-13.576,0-22.8,10.208-22.8,23.576,0,13.872,8.733,23.385,22.8,23.385,10.642,0,17.535-4.792,20.851-14.983h-10.8c-1.163,3.8-5.955,5.816-9.67,5.816-7.17,0-10.937-4.2-10.937-11.337H99.9C99.948,46.76,100,45.979,100,45.2ZM67.778,39.781c.4-5.851,4.288-9.514,10.156-9.514,6.146,0,9.236,3.611,9.757,9.514Z" transform="translate(0 13.698)"/></g></svg>