<svg xmlns="http://www.w3.org/2000/svg" xmlns:xlink="http://www.w3.org/1999/xlink" width="100" height="100" viewBox="0 0 100 100"><defs><clipPath id="b"><rect width="100" height="100"/></clipPath></defs><g id="a" clip-path="url(#b)"><path d="M-10160.777-91.411a17.637,17.637,0,0,1-5.823-10.888h34.993a17.623,17.623,0,0,1-5.823,10.888A17.631,17.631,0,0,1-10149.1-87,17.641,17.641,0,0,1-10160.777-91.411Zm51.888,1.595-86.73-86.733c-2.418-2.419-2.8-5.964-.845-7.914s5.5-1.577,7.917.845l86.729,86.73c2.419,2.419,2.8,5.964.845,7.916a4.428,4.428,0,0,1-3.188,1.249A6.83,6.83,0,0,1-10108.89-89.817Z" transform="translate(10199 187)" opacity="0.66"/><path d="M-10126.117-102.917h-56.2a6.977,6.977,0,0,1-4.306-1.425,7.106,7.106,0,0,1-2.405-3.438,7.105,7.105,0,0,1-.095-4.193,6.967,6.967,0,0,1,2.627-3.694l10.887-8V-144.1a29.47,29.47,0,0,1,.933-7.377l48.563,48.563Zm20.7-1.706-60.921-60.919a29.309,29.309,0,0,1,20.148-7.981,29.237,29.237,0,0,1,11.451,2.312,29.326,29.326,0,0,1,9.353,6.3,29.337,29.337,0,0,1,6.3,9.351,29.248,29.248,0,0,1,2.312,11.453v20.437l10.89,8a6.867,6.867,0,0,1,2.885,5.3,7.277,7.277,0,0,1-2.421,5.74h0Z" transform="translate(10196.088 184.088)"/></g></svg>