<svg xmlns="http://www.w3.org/2000/svg" xmlns:xlink="http://www.w3.org/1999/xlink" width="100" height="100" viewBox="0 0 100 100"><defs><clipPath id="b"><rect width="100" height="100"/></clipPath></defs><g id="a" clip-path="url(#b)"><path d="M-9825.778-92.412A17.626,17.626,0,0,1-9831.6-103.3h34.992a17.623,17.623,0,0,1-5.822,10.888A17.63,17.63,0,0,1-9814.1-88,17.638,17.638,0,0,1-9825.778-92.412Z" transform="translate(9864 188)" opacity="0.66"/><path d="M-9950.671-117.392h-72.255a6.972,6.972,0,0,1-4.3-1.425,7.108,7.108,0,0,1-2.406-3.438,7.106,7.106,0,0,1-.095-4.193,6.967,6.967,0,0,1,2.626-3.694l10.888-8v-20.437a29.244,29.244,0,0,1,2.313-11.453,29.308,29.308,0,0,1,6.3-9.352,29.32,29.32,0,0,1,9.352-6.3A29.221,29.221,0,0,1-9986.8-188a29.236,29.236,0,0,1,11.452,2.312,29.326,29.326,0,0,1,9.353,6.3,29.338,29.338,0,0,1,6.3,9.352,29.232,29.232,0,0,1,2.312,11.453v20.437l10.89,8a6.964,6.964,0,0,1,2.624,3.695,7.108,7.108,0,0,1-.1,4.194,7.113,7.113,0,0,1-2.405,3.437A6.971,6.971,0,0,1-9950.671-117.392Zm-36.131-24.818a6.481,6.481,0,0,0-6.474,6.473,6.48,6.48,0,0,0,6.474,6.471,6.478,6.478,0,0,0,6.471-6.471A6.479,6.479,0,0,0-9986.8-142.211Zm0-3.233a9.737,9.737,0,0,1,4.494,1.1,2.572,2.572,0,0,0,.68-1.747l1.3-27.183a2.591,2.591,0,0,0-2.591-2.586h-7.766a2.59,2.59,0,0,0-2.588,2.586l1.294,27.183a2.559,2.559,0,0,0,.683,1.745A9.775,9.775,0,0,1-9986.8-145.444Z" transform="translate(10036.692 198.564)"/></g></svg>