<svg xmlns="http://www.w3.org/2000/svg" xmlns:xlink="http://www.w3.org/1999/xlink" width="100" height="100" viewBox="0 0 100 100"><defs><clipPath id="b"><rect width="100" height="100"/></clipPath></defs><g id="a" clip-path="url(#b)"><path d="M-9825.778-92.412A17.626,17.626,0,0,1-9831.6-103.3h34.992a17.623,17.623,0,0,1-5.822,10.888A17.63,17.63,0,0,1-9814.1-88,17.638,17.638,0,0,1-9825.778-92.412Zm46.979-55.6a35.413,35.413,0,0,0-17.96-30.745l5.214-9.24a46.022,46.022,0,0,1,9.895,7.531,45.742,45.742,0,0,1,9.836,14.589,45.619,45.619,0,0,1,3.605,17.863v0Zm-81.2,0a45.6,45.6,0,0,1,3.607-17.865,45.736,45.736,0,0,1,9.834-14.589,46.09,46.09,0,0,1,9.9-7.531l5.212,9.24a35.414,35.414,0,0,0-17.965,30.743v0Z" transform="translate(9864 188)" opacity="0.66"/><path d="M-9670.638-117.391a7.06,7.06,0,0,1-4.18-12.751l10.887-8v-20.438A29.421,29.421,0,0,1-9634.511-188a29.419,29.419,0,0,1,29.421,29.421v20.436l10.89,8a7.061,7.061,0,0,1-4.182,12.751Z" transform="translate(9684.404 198.563)"/></g></svg>