<svg xmlns="http://www.w3.org/2000/svg" xmlns:xlink="http://www.w3.org/1999/xlink" width="100" height="100" viewBox="0 0 100 100"><defs><clipPath id="b"><rect width="100" height="100"/></clipPath></defs><g id="a" clip-path="url(#b)"><path d="M-5919.462-91.929a49.8,49.8,0,0,1-15.893-10.716,49.849,49.849,0,0,1-10.716-15.893A49.678,49.678,0,0,1-5950-138a49.676,49.676,0,0,1,3.93-19.462,49.849,49.849,0,0,1,10.716-15.893,49.826,49.826,0,0,1,15.893-10.716A49.685,49.685,0,0,1-5900-188a49.691,49.691,0,0,1,19.463,3.93,49.826,49.826,0,0,1,15.893,10.716,49.823,49.823,0,0,1,10.715,15.893A49.681,49.681,0,0,1-5850-138a49.683,49.683,0,0,1-3.929,19.463,49.824,49.824,0,0,1-10.715,15.893,49.826,49.826,0,0,1-15.893,10.716A49.69,49.69,0,0,1-5900-88,49.684,49.684,0,0,1-5919.462-91.929ZM-5900-99a39.044,39.044,0,0,0,39-39,38.8,38.8,0,0,0-2.625-14.071l-66.732,38.529A38.943,38.943,0,0,0-5900-99Zm-39-39a38.809,38.809,0,0,0,2.626,14.073l66.733-38.527A38.949,38.949,0,0,0-5900-177,39.044,39.044,0,0,0-5939-138Z" transform="translate(5950 187.999)"/></g></svg>