<svg xmlns="http://www.w3.org/2000/svg" xmlns:xlink="http://www.w3.org/1999/xlink" width="100" height="100" viewBox="0 0 100 100"><defs><clipPath id="b"><rect width="100" height="100"/></clipPath></defs><g id="a" clip-path="url(#b)"><path d="M64.892,69.438,45.182,52.25,64.87,35.263a3.513,3.513,0,0,0,.246-5.112L39.044,3.054a2.684,2.684,0,0,0-1.92-.8h0a2.459,2.459,0,0,0-2.478,2.411V42.429L15.383,26.067A3.919,3.919,0,0,0,10,26.4h0a3.7,3.7,0,0,0,.357,5.379L34.646,52.25,10.517,72.54a3.685,3.685,0,0,0-.379,5.335l.067.067a3.942,3.942,0,0,0,5.469.335L34.646,61.848v37.9a2.525,2.525,0,0,0,2.567,2.5h0a2.652,2.652,0,0,0,1.875-.781l26.049-26.9A3.539,3.539,0,0,0,64.892,69.438ZM42.771,17.629l14,14.71a.441.441,0,0,1-.045.647l-14,11.83a.462.462,0,0,1-.759-.335V17.942A.47.47,0,0,1,42.771,17.629ZM41.99,86.6V60.2a.462.462,0,0,1,.759-.335l14,11.83a.458.458,0,0,1,.045.647l-14,14.576A.471.471,0,0,1,41.99,86.6Z" transform="translate(11.989 -2.25)"/></g></svg>