<svg xmlns="http://www.w3.org/2000/svg" xmlns:xlink="http://www.w3.org/1999/xlink" width="100" height="100" viewBox="0 0 100 100"><defs><clipPath id="b"><rect width="100" height="100"/></clipPath></defs><g id="a" clip-path="url(#b)"><path d="M53.07,29.541C74.484,29.541,88,18.245,88,.712c0-13.306-10.672-23.354-24.186-23.978v-.554C74.9-25.345,83.354-34.284,83.354-45.511c0-15.454-11.85-24.948-31.532-24.948H5.322v100ZM30.755-52.441H45.1c8.524,0,13.514,4.158,13.514,11.157,0,7.207-5.544,11.573-14.761,11.573h-13.1Zm0,63.964v-25.78H45.724c10.464,0,16.424,4.574,16.424,12.751,0,8.455-5.821,13.028-16.286,13.028Z" transform="translate(3.678 70.459)"/></g></svg>