<svg xmlns="http://www.w3.org/2000/svg" xmlns:xlink="http://www.w3.org/1999/xlink" width="100" height="100" viewBox="0 0 100 100"><defs><clipPath id="b"><rect width="100" height="100"/></clipPath></defs><g id="a" clip-path="url(#b)"><path d="M-4891.653-13205h0l-27.057-21.214a8.9,8.9,0,0,0-5.439-1.9,8.9,8.9,0,0,0-5.439,1.9l-26.259,20.83a1.891,1.891,0,0,1-.8.384.214.214,0,0,1-.12-.03c-.275-.143-.23-.874-.224-.957v-90.247a8.772,8.772,0,0,1,8.762-8.762h48.163a8.772,8.772,0,0,1,8.762,8.762v90.246c.006.084.048.815-.224.958A.223.223,0,0,1-4891.653-13205Zm-32.5-64.646h0l8.19,8.191a2.094,2.094,0,0,0,1.489.617,2.094,2.094,0,0,0,1.489-.617,2.094,2.094,0,0,0,.616-1.489,2.091,2.091,0,0,0-.616-1.489l-8.191-8.191,8.191-8.187a2.09,2.09,0,0,0,.616-1.487,2.09,2.09,0,0,0-.616-1.487,2.087,2.087,0,0,0-1.488-.617,2.1,2.1,0,0,0-1.491.617l-8.187,8.188-8.187-8.187a2.089,2.089,0,0,0-1.489-.617,2.089,2.089,0,0,0-1.489.617,2.113,2.113,0,0,0,0,2.979l8.188,8.188-8.187,8.188a2.113,2.113,0,0,0,0,2.979,2.1,2.1,0,0,0,1.486.612,2.092,2.092,0,0,0,1.489-.616l8.187-8.187Z" transform="translate(4974.149 13305.002)"/></g></svg>