<svg xmlns="http://www.w3.org/2000/svg" xmlns:xlink="http://www.w3.org/1999/xlink" width="100" height="100" viewBox="0 0 100 100"><defs><clipPath id="b"><rect width="100" height="100"/></clipPath></defs><g id="a" clip-path="url(#b)"><path d="M-3702.452-13023.385l-26.259-20.83a8.875,8.875,0,0,0-5.438-1.9,8.875,8.875,0,0,0-5.438,1.9l-26.259,20.83a1.885,1.885,0,0,1-.8.383.238.238,0,0,1-.122-.029c-.289-.152-.224-.959-.224-.959v-90.248a8.773,8.773,0,0,1,8.763-8.762h48.162a8.773,8.773,0,0,1,8.762,8.762v90.248s.065.807-.224.959a.238.238,0,0,1-.122.029A1.877,1.877,0,0,1-3702.452-13023.385Zm-22.176-26.348,15.339,12.176s.728.576,1.075.236a3.818,3.818,0,0,0,.332-1.594l.007-74.221a3.3,3.3,0,0,0-3.289-3.289h-45.969a3.3,3.3,0,0,0-3.289,3.289l.007,74.221a3.812,3.812,0,0,0,.332,1.594c.346.34,1.074-.236,1.074-.236l15.34-12.176a15.344,15.344,0,0,1,9.512-3.324h.015A15.347,15.347,0,0,1-3724.628-13049.732Z" transform="translate(3784.149 13123.002)"/><path d="M-3403.744-13861.2l-2.583-2.582-7.01-7.01a3.63,3.63,0,0,1-1.069-2.582,3.618,3.618,0,0,1,1.069-2.58,3.633,3.633,0,0,1,2.583-1.072,3.625,3.625,0,0,1,2.581,1.072l7.011,7.01,16.6-16.6a3.619,3.619,0,0,1,2.583-1.068,3.614,3.614,0,0,1,2.581,1.068,3.634,3.634,0,0,1,1.071,2.584,3.63,3.63,0,0,1-1.071,2.58l-19.183,19.184a3.615,3.615,0,0,1-2.581,1.069A3.623,3.623,0,0,1-3403.744-13861.2Z" transform="translate(3446.367 13906.078)" opacity="0.5"/></g></svg>