<svg xmlns="http://www.w3.org/2000/svg" xmlns:xlink="http://www.w3.org/1999/xlink" width="100" height="100" viewBox="0 0 100 100"><defs><clipPath id="b"><rect width="100" height="100"/></clipPath></defs><g id="a" clip-path="url(#b)"><path d="M-4381.653-13205h0l-27.057-21.214a8.9,8.9,0,0,0-5.439-1.9,8.9,8.9,0,0,0-5.439,1.9l-26.259,20.83a1.893,1.893,0,0,1-.8.384.226.226,0,0,1-.124-.03c-.274-.143-.23-.874-.224-.957v-90.247a8.772,8.772,0,0,1,8.762-8.762h48.164a8.772,8.772,0,0,1,8.762,8.762v90.246c.006.084.051.815-.224.958A.221.221,0,0,1-4381.653-13205Zm-46.184-69.725a2.107,2.107,0,0,0-2.1,2.1,2.108,2.108,0,0,0,2.1,2.106h11.58v11.58a2.108,2.108,0,0,0,2.107,2.1,2.106,2.106,0,0,0,2.1-2.1v-11.58h11.58a2.109,2.109,0,0,0,2.107-2.106,2.108,2.108,0,0,0-2.107-2.1h-11.58v-11.579a2.108,2.108,0,0,0-2.1-2.107,2.11,2.11,0,0,0-2.107,2.107v11.579Z" transform="translate(4464.149 13305.002)"/></g></svg>