<svg xmlns="http://www.w3.org/2000/svg" xmlns:xlink="http://www.w3.org/1999/xlink" width="100" height="100" viewBox="0 0 100 100"><defs><clipPath id="b"><rect width="100" height="100"/></clipPath></defs><g id="a" clip-path="url(#b)"><path d="M-3733.157-13223.748a7.839,7.839,0,0,0-4.805-1.68,7.854,7.854,0,0,0-4.808,1.68l-23.21,18.409a1.663,1.663,0,0,1-.708.34.193.193,0,0,1-.107-.026c-.257-.134-.2-.848-.2-.848v-79.766a7.751,7.751,0,0,1,7.743-7.743h42.574a7.751,7.751,0,0,1,7.743,7.743v79.766s.06.714-.2.848a.191.191,0,0,1-.107.026Zm35.134,6.792-8.161-6.472v-7.739l2.124,1.686a1.4,1.4,0,0,0,.7.3.359.359,0,0,0,.25-.094,3.361,3.361,0,0,0,.287-1.409l.013-65.6a2.911,2.911,0,0,0-2.912-2.905h-40.63a2.931,2.931,0,0,0-2.795,2.091h-5.92v-.16a7.754,7.754,0,0,1,7.747-7.743h42.574a7.751,7.751,0,0,1,7.743,7.743v79.765c0,.03.043.718-.2.848a.208.208,0,0,1-.107.027A1.666,1.666,0,0,1-3698.023-13216.956Z" transform="translate(3782 13304.999)"/></g></svg>