<svg xmlns="http://www.w3.org/2000/svg" xmlns:xlink="http://www.w3.org/1999/xlink" width="100" height="100" viewBox="0 0 100 100"><defs><clipPath id="b"><rect width="100" height="100"/></clipPath></defs><g id="a" clip-path="url(#b)"><path d="M-4212.454-13023.385l-26.258-20.831a8.878,8.878,0,0,0-5.437-1.9,8.876,8.876,0,0,0-5.437,1.9l-26.259,20.831a1.882,1.882,0,0,1-.8.382.219.219,0,0,1-.122-.029c-.287-.151-.224-.958-.224-.958v-90.247a8.775,8.775,0,0,1,8.764-8.764h48.164a8.771,8.771,0,0,1,8.76,8.764v90.247s.066.807-.224.958a.22.22,0,0,1-.122.029A1.884,1.884,0,0,1-4212.454-13023.385Zm-31.7-29.671h.006a15.353,15.353,0,0,1,9.515,3.323l15.338,12.176s.728.577,1.077.237a3.815,3.815,0,0,0,.33-1.594l.006-74.221a3.3,3.3,0,0,0-3.287-3.29h-45.97a3.3,3.3,0,0,0-3.287,3.29l.007,74.221a3.813,3.813,0,0,0,.329,1.594c.349.34,1.074-.237,1.074-.237l15.341-12.176a15.346,15.346,0,0,1,9.515-3.323Zm8.76-21.674-7.99-4.545a1.551,1.551,0,0,0-1.542,0l-7.99,4.545a1.561,1.561,0,0,1-2.3-1.663l1.828-9.1a1.566,1.566,0,0,0-.471-1.453l-6.791-6.29a1.56,1.56,0,0,1,.879-2.694l9.139-1.061a1.559,1.559,0,0,0,1.242-.905l3.814-8.415a1.56,1.56,0,0,1,2.842,0l3.817,8.415a1.555,1.555,0,0,0,1.242.905l9.139,1.061a1.56,1.56,0,0,1,.879,2.694l-6.791,6.29a1.55,1.55,0,0,0-.471,1.453l1.824,9.1a1.563,1.563,0,0,1-1.528,1.871A1.547,1.547,0,0,1-4235.389-13074.729Z" transform="translate(4294.15 13123.002)"/></g></svg>