<svg xmlns="http://www.w3.org/2000/svg" xmlns:xlink="http://www.w3.org/1999/xlink" width="100" height="100" viewBox="0 0 100 100"><defs><clipPath id="b"><rect width="100" height="100"/></clipPath></defs><g id="a" clip-path="url(#b)"><path d="M-4041.651-13205h0l-27.06-21.214a8.9,8.9,0,0,0-5.44-1.9,8.891,8.891,0,0,0-5.436,1.9l-26.259,20.83a1.891,1.891,0,0,1-.8.384.223.223,0,0,1-.124-.03c-.272-.143-.229-.874-.224-.957v-90.247a8.774,8.774,0,0,1,8.765-8.762h48.16a8.772,8.772,0,0,1,8.762,8.762v90.246c0,.008.063.81-.224.958A.2.2,0,0,1-4041.651-13205Zm-40.095-82.273a7.914,7.914,0,0,0-5.2,1.9,8.753,8.753,0,0,0-3.074,6.307,8.894,8.894,0,0,0,2.46,6.593l12.007,12.4a1.94,1.94,0,0,0,1.406.6,1.939,1.939,0,0,0,1.406-.6l12-12.4a8.882,8.882,0,0,0,2.467-6.587,8.751,8.751,0,0,0-3.075-6.312,7.911,7.911,0,0,0-5.2-1.9,8.943,8.943,0,0,0-6.376,2.746l-1.222,1.259-1.222-1.259a8.933,8.933,0,0,0-6.373-2.746Z" transform="translate(4124.15 13305.002)"/></g></svg>