<svg xmlns="http://www.w3.org/2000/svg" xmlns:xlink="http://www.w3.org/1999/xlink" width="100" height="100" viewBox="0 0 100 100"><defs><clipPath id="b"><rect width="100" height="100"/></clipPath></defs><g id="a" clip-path="url(#b)"><path d="M-3702.452-13023.385l-26.259-20.83a8.875,8.875,0,0,0-5.438-1.9,8.875,8.875,0,0,0-5.438,1.9l-26.259,20.83a1.885,1.885,0,0,1-.8.383.238.238,0,0,1-.122-.029c-.289-.152-.224-.959-.224-.959v-90.248a8.773,8.773,0,0,1,8.763-8.762h48.162a8.773,8.773,0,0,1,8.762,8.762v90.248s.065.807-.224.959a.238.238,0,0,1-.122.029A1.877,1.877,0,0,1-3702.452-13023.385Zm-22.176-26.348,15.339,12.176s.728.576,1.075.236a3.818,3.818,0,0,0,.332-1.594l.007-74.221a3.3,3.3,0,0,0-3.289-3.289h-45.969a3.3,3.3,0,0,0-3.289,3.289l.007,74.221a3.812,3.812,0,0,0,.332,1.594c.346.34,1.074-.236,1.074-.236l15.34-12.176a15.344,15.344,0,0,1,9.512-3.324h.015A15.347,15.347,0,0,1-3724.628-13049.732Z" transform="translate(3784.149 13123.002)"/><path d="M19.4,5.182a1.561,1.561,0,0,1,2.843,0L26.055,13.6A1.561,1.561,0,0,0,27.3,14.5l9.139,1.06a1.561,1.561,0,0,1,.88,2.7l-6.793,6.29A1.561,1.561,0,0,0,30.054,26l1.826,9.1a1.561,1.561,0,0,1-2.3,1.663l-7.987-4.545a1.561,1.561,0,0,0-1.543,0L12.06,36.767a1.561,1.561,0,0,1-2.3-1.663L11.584,26a1.561,1.561,0,0,0-.47-1.452L4.321,18.26a1.561,1.561,0,0,1,.88-2.7l9.139-1.06a1.561,1.561,0,0,0,1.241-.906Z" transform="translate(29.181 11.505)" opacity="0.5"/></g></svg>