<svg xmlns="http://www.w3.org/2000/svg" xmlns:xlink="http://www.w3.org/1999/xlink" width="100" height="100" viewBox="0 0 100 100"><defs><clipPath id="b"><rect width="100" height="100"/></clipPath></defs><g id="a" clip-path="url(#b)"><path d="M-4042.453-13023.385l-26.259-20.831a8.877,8.877,0,0,0-5.437-1.9,8.878,8.878,0,0,0-5.437,1.9l-26.262,20.831a1.884,1.884,0,0,1-.8.382.22.22,0,0,1-.122-.029c-.29-.151-.224-.958-.224-.958v-90.247a8.774,8.774,0,0,1,8.764-8.764h48.163a8.772,8.772,0,0,1,8.76,8.764v90.247s.066.807-.224.958a.22.22,0,0,1-.122.029A1.884,1.884,0,0,1-4042.453-13023.385Zm-31.7-29.671h.007a15.344,15.344,0,0,1,9.511,3.323l15.341,12.176s.728.577,1.074.237a3.831,3.831,0,0,0,.333-1.594l.007-74.221a3.3,3.3,0,0,0-3.287-3.29h-45.97a3.3,3.3,0,0,0-3.29,3.29l.006,74.221a3.833,3.833,0,0,0,.333,1.594c.346.34,1.073-.237,1.073-.237l15.341-12.176a15.344,15.344,0,0,1,9.511-3.323Zm-1.409-25.023-12.008-12.4a8.913,8.913,0,0,1,.616-12.9,8.486,8.486,0,0,1,11.58.844l1.222,1.261,1.222-1.261a8.486,8.486,0,0,1,11.58-.844,8.9,8.9,0,0,1,.606,12.9l-12,12.4a1.949,1.949,0,0,1-1.406.6A1.948,1.948,0,0,1-4075.558-13078.079Z" transform="translate(4124.15 13123.002)"/></g></svg>