<svg xmlns="http://www.w3.org/2000/svg" xmlns:xlink="http://www.w3.org/1999/xlink" width="100" height="100" viewBox="0 0 100 100"><defs><clipPath id="b"><rect width="100" height="100"/></clipPath></defs><g id="a" clip-path="url(#b)"><path d="M-2907-13205a10.013,10.013,0,0,1-10-10v-73.871a16.04,16.04,0,0,1,4.725-11.407,16.021,16.021,0,0,1,11.4-4.721h59.667a4.843,4.843,0,0,1,4.838,4.838v64.515a4.844,4.844,0,0,1-4.838,4.839H-2897a4.035,4.035,0,0,0-3.87,4v4.9a4,4,0,0,0,4,4h50.052a14.582,14.582,0,0,1-1.414-5.94,23.6,23.6,0,0,1,1.416-6.959h4a23.452,23.452,0,0,0-1.416,6.959,14.589,14.589,0,0,0,1.414,5.94h6.453v9.9a3,3,0,0,1-3,3Zm8-51.485c0,1.369,1.422,2.484,3.176,2.484h44.1c1.75,0,3.176-1.115,3.176-2.484s-1.426-2.484-3.176-2.484h-44.1C-2897.577-13258.969-2899-13257.854-2899-13256.484Zm0-11.293c0,1.369,1.422,2.484,3.176,2.484h34.1c1.75,0,3.176-1.115,3.176-2.484s-1.426-2.484-3.176-2.484h-34.1C-2897.577-13270.262-2899-13269.146-2899-13267.777Zm0-11.293c0,1.372,1.422,2.484,3.176,2.484h38.1c1.75,0,3.176-1.112,3.176-2.484s-1.426-2.484-3.176-2.484h-38.1C-2897.577-13281.555-2899-13280.439-2899-13279.07Z" transform="translate(2927 13304.999)"/></g></svg>