<svg xmlns="http://www.w3.org/2000/svg" xmlns:xlink="http://www.w3.org/1999/xlink" width="100" height="100" viewBox="0 0 100 100"><defs><clipPath id="b"><rect width="100" height="100"/></clipPath></defs><g id="a" clip-path="url(#b)"><path d="M-3077-13023a10.01,10.01,0,0,1-10-10v-73.872a16.052,16.052,0,0,1,4.723-11.409,16.033,16.033,0,0,1,11.405-4.719h59.667a4.841,4.841,0,0,1,4.838,4.835v64.515a4.847,4.847,0,0,1-4.838,4.842H-3067a4.031,4.031,0,0,0-3.87,4v4.9a4,4,0,0,0,4,4h50.057a14.536,14.536,0,0,1-1.416-5.941,23.677,23.677,0,0,1,1.413-6.959h4a23.532,23.532,0,0,0-1.416,6.959,14.64,14.64,0,0,0,1.41,5.941h6.455v9.9a3.006,3.006,0,0,1-3,3Zm-2.487-92.486A11.93,11.93,0,0,0-3083-13107v75a5.009,5.009,0,0,0,5,5h67.677a.321.321,0,0,0,.319-.323v-4.356a.323.323,0,0,0-.319-.323h-36.445c-.059,0-.135,0-.227,0h-20a8.011,8.011,0,0,1-8-8v-5a8.011,8.011,0,0,1,8-8l2,0h54a1,1,0,0,0,1-1v-64a1,1,0,0,0-1-1h-60A11.942,11.942,0,0,0-3079.488-13115.489Zm45.878,51.227a28.642,28.642,0,0,1-4.341-2.207c-1.6-.968-2.829-1.653-3.642-2.031a18.119,18.119,0,0,0-2.338-.923,13.3,13.3,0,0,0-3.975-.6,4.2,4.2,0,0,0-3.231,1.284,6.906,6.906,0,0,0-1.518,3.856,3.166,3.166,0,0,1-2.236-.938,2.731,2.731,0,0,1-.893-2.009c0-1.986,1.123-3.34,3.333-4.021-3.741-1.62-6.376-4.684-7.832-9.109a20.379,20.379,0,0,1-.958-4.2,7.856,7.856,0,0,0-.787-2.984,3.721,3.721,0,0,0-1.588-1.449c1.317-.619,2.1-1.913,2.342-3.847a16.7,16.7,0,0,1,1.607-5.447,14.98,14.98,0,0,1,3.2-4.341,14.03,14.03,0,0,1,9.844-3.791,14.094,14.094,0,0,1,9.795,3.518c2.684,2.428,4.281,5.872,4.749,10.232a4.193,4.193,0,0,0,2.332,3.676,4.457,4.457,0,0,0-2.309,3.8,26.093,26.093,0,0,1-1.051,5.092,17.256,17.256,0,0,1-1.917,4.1,12.284,12.284,0,0,1-6.508,5.114c.464.132.932.277,1.393.436l1.462.526c.784.3,1.439.527,2.009.708a3.189,3.189,0,0,0,2.829-1.3,2.4,2.4,0,0,1,.939.55,1.1,1.1,0,0,1,.412.777,2.9,2.9,0,0,1-.069.662,2.577,2.577,0,0,0,1.38-.708,2.647,2.647,0,0,0,.7-1.235,2.139,2.139,0,0,1,1.116.569,2.192,2.192,0,0,1,.731,1.394,5.405,5.405,0,0,1-.092,1.188,3.244,3.244,0,0,0,1.189-1.485,1.4,1.4,0,0,1,1.278,1.028,2.176,2.176,0,0,1,.138.879,2.893,2.893,0,0,1-.389,1.314,4.318,4.318,0,0,1-1.027,1.281,4.953,4.953,0,0,1-3.175,1.116A7.968,7.968,0,0,1-3033.61-13064.263Zm-17.722-36.794a6.394,6.394,0,0,0-.389,2.328v5.46a3.784,3.784,0,0,0,2.513,3.676,4.115,4.115,0,0,0-2.513,3.952v6.781c0,2.47,1.037,4.077,3.083,4.775a6.018,6.018,0,0,0,1.989.319,5.913,5.913,0,0,0,1.976-.319,4.316,4.316,0,0,0,1.561-.962,5.077,5.077,0,0,0,1.37-3.813v-6.781a4.112,4.112,0,0,0-2.464-3.952,3.831,3.831,0,0,0,2.464-3.676v-5.46a5.215,5.215,0,0,0-1.482-3.949,4.873,4.873,0,0,0-3.448-1.3A4.552,4.552,0,0,0-3051.332-13101.057Zm12.334,7.72a8.456,8.456,0,0,1-.231,2.9,2.548,2.548,0,0,1-.454.412,3.758,3.758,0,0,1-.893.435c.909.408,1.393.811,1.439,1.189a38.473,38.473,0,0,1,.227,3.869c0,1.058-.017,1.943-.046,2.629-.03.639-.073,1.258-.135,1.837a13.375,13.375,0,0,1-.458,2.625c1.182-.362,1.851-2.137,1.986-5.272.076-1.766.115-3.751.115-5.905,0-2.174-.023-3.817-.069-4.888s-.115-1.982-.2-2.684a6.024,6.024,0,0,0-1.143-3.356,1.425,1.425,0,0,0-.777-.389A23.441,23.441,0,0,1-3039-13093.337Zm-18.842-3.93a32.885,32.885,0,0,0-1.347,6.555c-.046.395-.5.771-1.347,1.119.85.379,1.3.771,1.347,1.166.547,4.7,1.255,7.881,2.1,9.455a9.207,9.207,0,0,0,.981,1.528.483.483,0,0,0,.343-.478,4.462,4.462,0,0,0-.481-1.577c-.8-1.835-1.208-5.23-1.208-10.095a28.524,28.524,0,0,1,1.278-9.09,3.531,3.531,0,0,0,.161-.866.376.376,0,0,0-.3-.389A9.189,9.189,0,0,0-3057.84-13097.267Z" transform="translate(3097 13123.003)"/></g></svg>