<svg xmlns="http://www.w3.org/2000/svg" xmlns:xlink="http://www.w3.org/1999/xlink" width="100" height="100" viewBox="0 0 100 100"><defs><clipPath id="b"><rect width="100" height="100"/></clipPath></defs><g id="a" clip-path="url(#b)"><path d="M-3349.366-13205H-3417a10.01,10.01,0,0,1-10-10v-73.871a16.043,16.043,0,0,1,4.725-11.41,16.021,16.021,0,0,1,11.4-4.718h59.667a4.842,4.842,0,0,1,4.838,4.835v64.515a4.844,4.844,0,0,1-4.838,4.839H-3407a4.032,4.032,0,0,0-3.87,4v4.905a4,4,0,0,0,4,4h50.053l0,0a14.7,14.7,0,0,1-1.412-5.937,23.321,23.321,0,0,1,1.41-6.943l.005-.016h4l0,.006a23.184,23.184,0,0,0-1.414,6.953,14.538,14.538,0,0,0,1.412,5.932l0,.009h6.451v9.9A3,3,0,0,1-3349.366-13205Zm-52.678-62.976a.2.2,0,0,0-.137.043.06.06,0,0,0-.013.047c.048.247.384,3.336.438,3.913.058.663.112,1.146.258,2.434l0,.028.07.62.007.058.073.647.094.8c.128,1.093.273,2.75.334,3.659.087,1.675.155,2.254.9,2.254a8.84,8.84,0,0,0,2.137-.527,35.647,35.647,0,0,1,11.373-1.867,77.735,77.735,0,0,1,8.542.585,25.893,25.893,0,0,0,2.875.2c1.843,0,3-.354,3.757-1.149,1.241-1.314,1.356-3.951,1.139-7.78l-.08-1.335-1.316.06c-.144.01-.312.014-.581.014h-.013a15.62,15.62,0,0,1-8-2.374c-1.2-.706-1.71-1.145-1.75-1.513a.6.6,0,0,1,.257-.5.521.521,0,0,1,.351-.164,2.757,2.757,0,0,1,1.166.584,14.667,14.667,0,0,0,8.064,2.582,9.973,9.973,0,0,0,9.3-5.66,8.27,8.27,0,0,0-.454-8.231c-2.126-3.367-6.387-5.459-11.123-5.459a16.722,16.722,0,0,0-2.975.271,30.025,30.025,0,0,0-7.887,2.751c-1.308.632-1.73.845-1.71.955.01.074.2.1.514.138,3.084.363,7.132,1.8,7.219,2.57a.7.7,0,0,1-.144.558.608.608,0,0,1-.464.184,1.381,1.381,0,0,1-.628-.173c-2.319-1.166-4.832-1.733-9.6-2.167a64.215,64.215,0,0,1-6.945-.862,24.68,24.68,0,0,0-4.288-.461,6.308,6.308,0,0,0-4.905,1.777,6.091,6.091,0,0,0-1.85,4.928,6.7,6.7,0,0,0,3.022,4.832,9.008,9.008,0,0,0,5.136,1.59c3.115,0,6.527-1.476,10.144-4.385.853-.687,1.26-.932,1.556-.932a.527.527,0,0,1,.407.207.571.571,0,0,1,.2.438c-.02.262-.285.556-1.048,1.165-3.935,3.144-7.888,4.875-11.129,4.875a9.141,9.141,0,0,1-1.105-.066c-.461-.07-.85-.117-.892-.12h-.007l-.01,0-.047-.007-.037,0-.047-.006h-.02c-.023,0-.043-.006-.06-.01A.37.37,0,0,0-3402.044-13267.978Z" transform="translate(3437 13305.002)"/></g></svg>