<svg xmlns="http://www.w3.org/2000/svg" xmlns:xlink="http://www.w3.org/1999/xlink" width="100" height="100" viewBox="0 0 100 100"><defs><clipPath id="b"><rect width="100" height="100"/></clipPath></defs><g id="a" clip-path="url(#b)"><path d="M-4211.652-13205h0l-27.06-21.214a8.89,8.89,0,0,0-5.436-1.9,8.9,8.9,0,0,0-5.439,1.9l-26.259,20.83a1.891,1.891,0,0,1-.8.384.206.206,0,0,1-.121-.03c-.275-.143-.23-.874-.224-.957v-90.247a8.772,8.772,0,0,1,8.762-8.762h48.164a8.772,8.772,0,0,1,8.762,8.762v90.246c.006.084.048.815-.224.958A.221.221,0,0,1-4211.652-13205Zm-32.5-56.477a1.579,1.579,0,0,1,.771.2l7.987,4.545a1.548,1.548,0,0,0,.771.21,1.59,1.59,0,0,0,1.214-.582,1.526,1.526,0,0,0,.315-1.291l-1.827-9.1a1.572,1.572,0,0,1,.471-1.453l6.792-6.291a1.547,1.547,0,0,0,.423-1.632,1.543,1.543,0,0,0-1.3-1.062l-9.139-1.062a1.573,1.573,0,0,1-1.242-.905l-3.817-8.414a1.539,1.539,0,0,0-1.419-.917,1.545,1.545,0,0,0-1.422.917l-3.813,8.414a1.571,1.571,0,0,1-1.242.905l-9.139,1.062a1.545,1.545,0,0,0-1.3,1.063,1.547,1.547,0,0,0,.423,1.631l6.792,6.291a1.565,1.565,0,0,1,.471,1.453l-1.826,9.1a1.525,1.525,0,0,0,.316,1.29,1.591,1.591,0,0,0,1.215.582,1.546,1.546,0,0,0,.773-.209l7.987-4.545A1.582,1.582,0,0,1-4244.149-13261.479Z" transform="translate(4294.15 13305.002)"/></g></svg>