<svg xmlns="http://www.w3.org/2000/svg" xmlns:xlink="http://www.w3.org/1999/xlink" width="100" height="100" viewBox="0 0 100 100"><defs><clipPath id="b"><rect width="100" height="100"/></clipPath></defs><g id="a" clip-path="url(#b)"><path d="M-4552.452-13023.385l-26.259-20.831a8.893,8.893,0,0,0-5.44-1.9,8.876,8.876,0,0,0-5.437,1.9l-26.259,20.831a1.884,1.884,0,0,1-.8.382.221.221,0,0,1-.122-.029c-.29-.151-.224-.958-.224-.958v-90.247a8.774,8.774,0,0,1,8.764-8.764h48.16a8.774,8.774,0,0,1,8.764,8.764v90.247s.066.807-.224.958a.218.218,0,0,1-.122.029A1.862,1.862,0,0,1-4552.452-13023.385Zm-31.7-29.671h.006a15.346,15.346,0,0,1,9.515,3.323l15.341,12.176s.728.577,1.074.237a3.831,3.831,0,0,0,.333-1.594l.007-74.221a3.3,3.3,0,0,0-3.29-3.29h-45.97a3.3,3.3,0,0,0-3.287,3.29l.007,74.221a3.831,3.831,0,0,0,.333,1.594c.346.34,1.074-.237,1.074-.237l15.341-12.176a15.336,15.336,0,0,1,9.511-3.323Zm-13.685-35.46a2.1,2.1,0,0,1-2.1-2.1,2.106,2.106,0,0,1,2.1-2.107h27.372a2.106,2.106,0,0,1,2.1,2.107,2.1,2.1,0,0,1-2.1,2.1Z" transform="translate(4634.149 13123.002)"/></g></svg>