<svg xmlns="http://www.w3.org/2000/svg" xmlns:xlink="http://www.w3.org/1999/xlink" width="100" height="100" viewBox="0 0 100 100"><defs><clipPath id="b"><rect width="100" height="100"/></clipPath></defs><g id="a" clip-path="url(#b)"><path d="M0,0H58.055A23.4,23.4,0,0,0,56.64,6.961,14.36,14.36,0,0,0,58.055,12.9H0Z" transform="translate(26.126 74.194)" opacity="0.33"/><path d="M-8762.365,88H-8830a10.014,10.014,0,0,1-10-10V4.128a16.04,16.04,0,0,1,4.723-11.405A16.027,16.027,0,0,1-8823.871-12h59.668a4.843,4.843,0,0,1,4.834,4.839V57.354a4.843,4.843,0,0,1-4.834,4.839H-8820a4.035,4.035,0,0,0-3.871,4V71.1a4,4,0,0,0,4,4h60.5V85A3,3,0,0,1-8762.365,88Zm-52.678-62.976a.193.193,0,0,0-.139.043.069.069,0,0,0-.014.046c.047.239.383,3.313.439,3.916.076.859.143,1.444.412,3.787l.09.8c.135,1.149.277,2.794.334,3.658.088,1.672.158,2.251.9,2.251a8.9,8.9,0,0,0,2.135-.524,35.6,35.6,0,0,1,11.373-1.869,77.107,77.107,0,0,1,8.543.586,26.32,26.32,0,0,0,2.875.193c1.848,0,3.006-.353,3.754-1.144,1.242-1.317,1.357-3.953,1.141-7.781l-.08-1.336-1.314.062c-.193.008-.389.013-.582.013a15.676,15.676,0,0,1-8.012-2.375c-1.205-.71-1.711-1.148-1.75-1.512a.606.606,0,0,1,.258-.5.509.509,0,0,1,.354-.166,2.743,2.743,0,0,1,1.16.583,14.7,14.7,0,0,0,8.066,2.583,9.97,9.97,0,0,0,9.3-5.66,8.291,8.291,0,0,0-.453-8.235c-2.129-3.364-6.391-5.454-11.123-5.454a16.9,16.9,0,0,0-2.977.268,30.056,30.056,0,0,0-7.889,2.753c-1.285.62-1.729.84-1.709.956.01.071.2.1.514.136,3.086.362,7.133,1.8,7.219,2.571a.694.694,0,0,1-.141.556.6.6,0,0,1-.465.185,1.43,1.43,0,0,1-.629-.172c-2.312-1.165-4.826-1.732-9.6-2.167a63.209,63.209,0,0,1-6.943-.866,25.2,25.2,0,0,0-4.287-.458,6.315,6.315,0,0,0-4.908,1.776,6.093,6.093,0,0,0-1.848,4.928,6.68,6.68,0,0,0,3.02,4.831,9,9,0,0,0,5.139,1.589c3.111,0,6.523-1.474,10.143-4.382.852-.689,1.258-.933,1.555-.933a.535.535,0,0,1,.408.209.581.581,0,0,1,.2.437c-.021.26-.287.553-1.053,1.161-3.932,3.147-7.883,4.88-11.129,4.88a8.294,8.294,0,0,1-1.1-.072c-.332-.048-.668-.09-.893-.118h-.016l-.211-.027A.41.41,0,0,0-8815.043,25.025Z" transform="translate(8850 11.999)"/></g></svg>