<svg xmlns="http://www.w3.org/2000/svg" xmlns:xlink="http://www.w3.org/1999/xlink" width="100" height="100" viewBox="0 0 100 100"><defs><clipPath id="b"><rect width="100" height="100"/></clipPath></defs><g id="a" clip-path="url(#b)"><path d="M-4892.453-13023.385l-26.259-20.831a8.876,8.876,0,0,0-5.437-1.9,8.878,8.878,0,0,0-5.437,1.9l-26.258,20.831a1.9,1.9,0,0,1-.8.382.221.221,0,0,1-.122-.029c-.29-.151-.224-.958-.224-.958v-90.247a8.774,8.774,0,0,1,8.764-8.764h48.163a8.772,8.772,0,0,1,8.761,8.764v90.247s.066.807-.224.958a.218.218,0,0,1-.122.029A1.884,1.884,0,0,1-4892.453-13023.385Zm-31.7-29.671h.007a15.353,15.353,0,0,1,9.515,3.323l15.337,12.176s.728.577,1.074.237a3.775,3.775,0,0,0,.333-1.594l.007-74.221a3.3,3.3,0,0,0-3.287-3.29h-45.97a3.3,3.3,0,0,0-3.29,3.29l.01,74.221a3.815,3.815,0,0,0,.33,1.594c.346.34,1.074-.237,1.074-.237l15.341-12.176a15.344,15.344,0,0,1,9.511-3.323Zm8.185-26.4-8.187-8.187-8.187,8.188a2.1,2.1,0,0,1-2.974,0,2.1,2.1,0,0,1,0-2.977l8.188-8.187-8.191-8.187a2.11,2.11,0,0,1,0-2.978,2.11,2.11,0,0,1,2.98,0l8.188,8.188,8.188-8.187a2.1,2.1,0,0,1,2.978,0,2.1,2.1,0,0,1,0,2.978l-8.187,8.188,8.188,8.188a2.107,2.107,0,0,1,0,2.98,2.1,2.1,0,0,1-1.488.615A2.1,2.1,0,0,1-4915.965-13079.459Z" transform="translate(4974.149 13123.002)"/></g></svg>