<svg xmlns="http://www.w3.org/2000/svg" xmlns:xlink="http://www.w3.org/1999/xlink" width="100" height="100" viewBox="0 0 100 100"><defs><clipPath id="b"><rect width="100" height="100"/></clipPath></defs><g id="a" clip-path="url(#b)"><path d="M-3878.5-13401.212a1.64,1.64,0,0,1-.792-.344l-15.34-12.175a15.355,15.355,0,0,0-9.515-3.327h-.013a15.355,15.355,0,0,0-9.515,3.327l-15.34,12.175a1.64,1.64,0,0,1-.792.344.389.389,0,0,1-.281-.106,3.793,3.793,0,0,1-.332-1.595l-.007-74.222a3.292,3.292,0,0,1,3.287-3.29h45.972a3.292,3.292,0,0,1,3.287,3.29l-.007,74.222a3.784,3.784,0,0,1-.332,1.595A.391.391,0,0,1-3878.5-13401.212Z" transform="translate(3954.15 13487.002)" opacity="0.5"/><path d="M-3702.452-13023.385l-26.259-20.83a8.875,8.875,0,0,0-5.438-1.9,8.875,8.875,0,0,0-5.438,1.9l-26.259,20.83a1.885,1.885,0,0,1-.8.383.238.238,0,0,1-.122-.029c-.289-.152-.224-.959-.224-.959v-90.248a8.773,8.773,0,0,1,8.763-8.762h48.162a8.773,8.773,0,0,1,8.762,8.762v90.248s.065.807-.224.959a.238.238,0,0,1-.122.029A1.877,1.877,0,0,1-3702.452-13023.385Zm-22.176-26.348,15.339,12.176s.728.576,1.075.236a3.818,3.818,0,0,0,.332-1.594l.007-74.221a3.3,3.3,0,0,0-3.289-3.289h-45.969a3.3,3.3,0,0,0-3.289,3.289l.007,74.221a3.812,3.812,0,0,0,.332,1.594c.346.34,1.074-.236,1.074-.236l15.34-12.176a15.344,15.344,0,0,1,9.512-3.324h.015A15.347,15.347,0,0,1-3724.628-13049.732Z" transform="translate(3784.149 13123.002)"/></g></svg>