<svg xmlns="http://www.w3.org/2000/svg" xmlns:xlink="http://www.w3.org/1999/xlink" width="100" height="100" viewBox="0 0 100 100"><defs><clipPath id="b"><rect width="100" height="100"/></clipPath></defs><g id="a" clip-path="url(#b)"><path d="M-2907-13023a10.01,10.01,0,0,1-10-10v-73.872a16.052,16.052,0,0,1,4.723-11.409,16.033,16.033,0,0,1,11.405-4.719h59.667a4.841,4.841,0,0,1,4.838,4.835v64.515a4.847,4.847,0,0,1-4.838,4.842H-2897a4.031,4.031,0,0,0-3.87,4v4.9a4,4,0,0,0,4,4h50.057a14.536,14.536,0,0,1-1.416-5.941,23.685,23.685,0,0,1,1.413-6.959h4a23.532,23.532,0,0,0-1.416,6.959,14.64,14.64,0,0,0,1.41,5.941h6.455v9.9a3.006,3.006,0,0,1-3,3Zm-2.486-92.486A11.929,11.929,0,0,0-2913-13107v75a5.009,5.009,0,0,0,5,5h67.677a.321.321,0,0,0,.32-.323v-4.356a.323.323,0,0,0-.32-.323h-36.445c-.059,0-.135,0-.227,0h-20a8.011,8.011,0,0,1-8-8v-5a8.011,8.011,0,0,1,8-8l2,0h54a1,1,0,0,0,1-1v-64a1,1,0,0,0-1-1h-60A11.941,11.941,0,0,0-2909.487-13115.489Zm13.664,43.487c-1.752,0-3.175-1.117-3.175-2.487s1.423-2.482,3.175-2.482h44.1c1.749,0,3.175,1.112,3.175,2.482s-1.426,2.487-3.175,2.487Zm0-11.294c-1.752,0-3.175-1.116-3.175-2.486s1.423-2.483,3.175-2.483h34.1c1.749,0,3.175,1.113,3.175,2.483s-1.426,2.486-3.175,2.486Zm0-11.293c-1.752,0-3.175-1.113-3.175-2.483s1.423-2.486,3.175-2.486h38.1c1.749,0,3.175,1.116,3.175,2.486s-1.426,2.483-3.175,2.483Z" transform="translate(2926.999 13123.004)"/></g></svg>