<svg xmlns="http://www.w3.org/2000/svg" xmlns:xlink="http://www.w3.org/1999/xlink" width="100" height="100" viewBox="0 0 100 100"><defs><clipPath id="b"><rect width="100" height="100"/></clipPath></defs><g id="a" clip-path="url(#b)"><path d="M-4722.453-13023.385l-26.258-20.831a8.884,8.884,0,0,0-5.437-1.9,8.894,8.894,0,0,0-5.441,1.9l-26.258,20.831a1.884,1.884,0,0,1-.8.382.22.22,0,0,1-.122-.029c-.29-.151-.224-.958-.224-.958v-90.247a8.775,8.775,0,0,1,8.764-8.764h48.163a8.774,8.774,0,0,1,8.761,8.764v90.247s.066.807-.224.958a.22.22,0,0,1-.122.029A1.884,1.884,0,0,1-4722.453-13023.385Zm-31.7-29.671h.006a15.345,15.345,0,0,1,9.512,3.323l15.341,12.176s.728.577,1.074.237a3.831,3.831,0,0,0,.333-1.594l.006-74.221a3.3,3.3,0,0,0-3.287-3.29h-45.97a3.3,3.3,0,0,0-3.29,3.29l.006,74.221a3.831,3.831,0,0,0,.333,1.594c.346.34,1.074-.237,1.074-.237l15.341-12.176a15.345,15.345,0,0,1,9.512-3.323Zm-7.377-25.065-2.582-2.583-7.012-7.008a3.639,3.639,0,0,1-1.067-2.582,3.623,3.623,0,0,1,1.067-2.582,3.638,3.638,0,0,1,2.582-1.07,3.627,3.627,0,0,1,2.582,1.07l7.012,7.012,16.6-16.605a3.63,3.63,0,0,1,2.585-1.067,3.61,3.61,0,0,1,2.579,1.067,3.631,3.631,0,0,1,1.074,2.585,3.622,3.622,0,0,1-1.074,2.579l-19.181,19.185a3.614,3.614,0,0,1-2.582,1.07A3.621,3.621,0,0,1-4761.526-13078.121Z" transform="translate(4804.149 13123.002)"/></g></svg>