<svg xmlns="http://www.w3.org/2000/svg" xmlns:xlink="http://www.w3.org/1999/xlink" width="100" height="100" viewBox="0 0 100 100"><defs><clipPath id="b"><rect width="100" height="100"/></clipPath></defs><g id="a" clip-path="url(#b)"><path d="M-3247-13023a10.01,10.01,0,0,1-10-10v-73.872a16.053,16.053,0,0,1,4.723-11.409,16.034,16.034,0,0,1,11.405-4.719h59.667a4.841,4.841,0,0,1,4.838,4.835v64.515a4.847,4.847,0,0,1-4.838,4.842H-3237a4.031,4.031,0,0,0-3.87,4v4.9a4,4,0,0,0,4,4h50.057a14.536,14.536,0,0,1-1.416-5.941,23.677,23.677,0,0,1,1.413-6.959h4a23.532,23.532,0,0,0-1.416,6.959,14.64,14.64,0,0,0,1.41,5.941h6.455v9.9a3.006,3.006,0,0,1-3,3Zm-2.487-92.486a11.93,11.93,0,0,0-3.517,8.484v75a5.009,5.009,0,0,0,5,5h67.677a.321.321,0,0,0,.319-.323v-4.356a.323.323,0,0,0-.319-.323h-36.445c-.059,0-.135,0-.227,0h-20a8.011,8.011,0,0,1-8-8v-5a8.011,8.011,0,0,1,8-8l2,0h54a1,1,0,0,0,1-1v-64a1,1,0,0,0-1-1h-60A11.942,11.942,0,0,0-3249.488-13115.489Zm17.11,48.486.4-1.749a10.194,10.194,0,0,0,4.683-1.62c1.182-.984,2.157-2.994,2.9-5.971l4.976-19.768a9.987,9.987,0,0,0,.329-1.949,1.284,1.284,0,0,0-.428-.942,1.423,1.423,0,0,0-1.021-.412,4.988,4.988,0,0,0-.659.066l.4-1.482a56.112,56.112,0,0,0,8.191-1.327c-.54,1.541-1.133,3.577-1.762,6.057l-2.493,9.294,3.036.168h.01c.112,0,.221.007.323.007a10.3,10.3,0,0,0,4.271-1.063,11.257,11.257,0,0,0,4.456-4.062,11,11,0,0,0,1.963-6.271,6.485,6.485,0,0,0-2.388-5.279c-1.587-1.291-4.044-1.946-7.3-1.946a23.73,23.73,0,0,0-10.977,2.786,21.929,21.929,0,0,0-8.293,7.131,15.364,15.364,0,0,0-2.918,8.563,8.122,8.122,0,0,0,.761,3.616,8.975,8.975,0,0,0,2.7,3.017c1.074.791,1.617,1.567,1.617,2.313a1.609,1.609,0,0,1-.53,1.222,1.779,1.779,0,0,1-1.258.494c-1.3,0-2.569-.9-3.781-2.675a11.8,11.8,0,0,1-1.821-6.765,19.712,19.712,0,0,1,5.74-13.661c4.993-5.388,11.791-8.121,20.2-8.121a21.236,21.236,0,0,1,7.9,1.255,10.133,10.133,0,0,1,4.621,3.432,8.084,8.084,0,0,1,1.535,4.719,11.117,11.117,0,0,1-2.154,6.354,15.105,15.105,0,0,1-6.346,5.032,22.273,22.273,0,0,1-9.324,1.917c-.53,0-1.337-.033-2.467-.1l-2.655,10.269c-.441,1.752-.942,3.484-1.482,5.145a19.465,19.465,0,0,0,4.482.626,16.418,16.418,0,0,0,5.171-.926l-.4,1.848a17.31,17.31,0,0,1-4.351.7,48.881,48.881,0,0,1-5.013-.366,37.128,37.128,0,0,0-4.285-.329,29.936,29.936,0,0,0-6.557.761Z" transform="translate(3267 13123.003)"/></g></svg>