<svg xmlns="http://www.w3.org/2000/svg" xmlns:xlink="http://www.w3.org/1999/xlink" width="100" height="100" viewBox="0 0 100 100"><defs><clipPath id="b"><rect width="100" height="100"/></clipPath></defs><g id="a" clip-path="url(#b)"><path d="M-6594.872,73.158a5.328,5.328,0,0,1-5.322-5.322V-6.678A5.328,5.328,0,0,1-6594.872-12h10.645a5.322,5.322,0,0,1,5.152,3.983,4.254,4.254,0,0,0-1.753,4.649l1.923,7.179V67.836a5.328,5.328,0,0,1-5.322,5.322Zm-29.805,0A5.323,5.323,0,0,1-6630,67.836V-6.678A5.323,5.323,0,0,1-6624.677-12h10.645a5.324,5.324,0,0,1,5.323,5.322V67.836a5.324,5.324,0,0,1-5.323,5.322Zm73.141-8.335-18.735-69.917c.155.565,2.584.409,5.418-.351s5.018-1.838,4.866-2.405l18.735,69.919c.152.567-2.028,1.645-4.865,2.405a17.984,17.984,0,0,1-4.233.691C-6551.039,65.165-6551.475,65.054-6551.537,64.823Z" transform="translate(6630 20.79)" fill="#0c0c0c" opacity="0.33"/><path d="M-6560.993,74.351-6578.905,7.5v6.542h-21.289V6.591h21.045l.223.829-1.9-7.1a4.257,4.257,0,0,1,3.011-5.216l2.056-.551a4.26,4.26,0,0,1,5.214,3.011l19.837,74.03a4.257,4.257,0,0,1-3.011,5.214l-2.056.553a4.271,4.271,0,0,1-1.1.146A4.262,4.262,0,0,1-6560.993,74.351Zm20.565-5.51-19.837-74.03a4.261,4.261,0,0,1,3.011-5.216l2.056-.551a4.259,4.259,0,0,1,5.215,3.011l19.837,74.03a4.26,4.26,0,0,1-3.011,5.216l-2.057.551a4.258,4.258,0,0,1-1.1.146A4.261,4.261,0,0,1-6540.428,68.84Zm-59.767-6.9V54.492h21.289v7.451Zm-29.806,0V54.492h21.29v7.451Zm0-47.9V6.591h21.29v7.451Z" transform="translate(6630 17.102)"/></g></svg>