<svg xmlns="http://www.w3.org/2000/svg" xmlns:xlink="http://www.w3.org/1999/xlink" width="100" height="100" viewBox="0 0 100 100"><defs><clipPath id="b"><rect width="100" height="100"/></clipPath></defs><g id="a" clip-path="url(#b)"><path d="M-3703.238-13034.616a1.656,1.656,0,0,1-.714-.34l-8.16-6.473v-7.738l2.123,1.684a1.4,1.4,0,0,0,.7.3.352.352,0,0,0,.252-.094,3.367,3.367,0,0,0,.287-1.408l.013-65.6a2.912,2.912,0,0,0-2.913-2.906h-40.628a2.931,2.931,0,0,0-2.8,2.092H-3761v-.16a7.755,7.755,0,0,1,7.746-7.746h42.572a7.754,7.754,0,0,1,7.746,7.746v79.764c0,.031.044.717-.2.848A.219.219,0,0,1-3703.238-13034.616Z" transform="translate(3787.928 13123)" opacity="0.5"/><path d="M-3733.155-13053.366a7.832,7.832,0,0,0-4.807-1.678,7.832,7.832,0,0,0-4.807,1.678l-23.211,18.41a1.663,1.663,0,0,1-.708.34.207.207,0,0,1-.108-.027c-.255-.135-.2-.848-.2-.848v-79.764a7.754,7.754,0,0,1,7.746-7.746h42.572a7.754,7.754,0,0,1,7.746,7.746v79.764s.057.713-.2.848a.205.205,0,0,1-.108.027Z" transform="translate(3781.999 13134.617)"/></g></svg>