<svg xmlns="http://www.w3.org/2000/svg" xmlns:xlink="http://www.w3.org/1999/xlink" width="100" height="100" viewBox="0 0 100 100"><defs><clipPath id="b"><rect width="100" height="100"/></clipPath></defs><g id="a" clip-path="url(#b)"><path d="M-4721.652-13205h0l-27.061-21.214a8.89,8.89,0,0,0-5.436-1.9,8.9,8.9,0,0,0-5.439,1.9l-26.259,20.83a1.891,1.891,0,0,1-.8.384.2.2,0,0,1-.12-.03c-.275-.143-.23-.874-.224-.957v-90.247a8.772,8.772,0,0,1,8.762-8.762h48.164a8.772,8.772,0,0,1,8.762,8.762v90.246c.006.084.048.815-.224.958A.225.225,0,0,1-4721.652-13205Zm-46.885-70.946a3.626,3.626,0,0,0-2.581,1.072,3.621,3.621,0,0,0-1.068,2.581,3.615,3.615,0,0,0,1.068,2.581l7.009,7.012,2.584,2.581a3.6,3.6,0,0,0,2.581,1.068,3.612,3.612,0,0,0,2.581-1.068l19.184-19.183a3.632,3.632,0,0,0,1.072-2.581,3.637,3.637,0,0,0-1.072-2.585,3.614,3.614,0,0,0-2.582-1.068,3.614,3.614,0,0,0-2.581,1.068l-16.6,16.605-7.012-7.012A3.624,3.624,0,0,0-4768.537-13275.948Z" transform="translate(4804.149 13305.002)"/></g></svg>