<svg xmlns="http://www.w3.org/2000/svg" xmlns:xlink="http://www.w3.org/1999/xlink" width="100" height="100" viewBox="0 0 100 100"><defs><clipPath id="b"><rect width="100" height="100"/></clipPath></defs><g id="a" clip-path="url(#b)"><path d="M-4551.651-13205h0l-27.061-21.214a8.9,8.9,0,0,0-5.439-1.9,8.893,8.893,0,0,0-5.437,1.9l-26.259,20.83a1.891,1.891,0,0,1-.8.384.223.223,0,0,1-.124-.03c-.272-.143-.229-.874-.224-.957v-90.247a8.774,8.774,0,0,1,8.765-8.762h48.16a8.772,8.772,0,0,1,8.762,8.762v90.246c.006.084.051.815-.224.958A.218.218,0,0,1-4551.651-13205Zm-46.184-69.725a2.108,2.108,0,0,0-2.107,2.1,2.109,2.109,0,0,0,2.107,2.106h27.371a2.108,2.108,0,0,0,2.1-2.106,2.107,2.107,0,0,0-2.1-2.1Z" transform="translate(4634.149 13305.002)"/></g></svg>