<svg xmlns="http://www.w3.org/2000/svg" xmlns:xlink="http://www.w3.org/1999/xlink" width="100" height="100" viewBox="0 0 100 100"><defs><clipPath id="b"><rect width="100" height="100"/></clipPath></defs><g id="a" clip-path="url(#b)"><path d="M-3417-13023a10.01,10.01,0,0,1-10-10v-73.872a16.053,16.053,0,0,1,4.723-11.409,16.034,16.034,0,0,1,11.405-4.719h59.667a4.841,4.841,0,0,1,4.838,4.835v64.515a4.847,4.847,0,0,1-4.838,4.842H-3407a4.031,4.031,0,0,0-3.87,4v4.9a4,4,0,0,0,4,4h50.057a14.536,14.536,0,0,1-1.416-5.941,23.677,23.677,0,0,1,1.413-6.959h4a23.532,23.532,0,0,0-1.416,6.959,14.64,14.64,0,0,0,1.41,5.941h6.455v9.9a3.006,3.006,0,0,1-3,3Zm-2.487-92.486a11.93,11.93,0,0,0-3.517,8.484v75a5.009,5.009,0,0,0,5,5h67.677a.321.321,0,0,0,.319-.323v-4.356a.323.323,0,0,0-.319-.323h-36.445c-.059,0-.135,0-.227,0h-20a8.011,8.011,0,0,1-8-8v-5a8.011,8.011,0,0,1,8-8l2,0h54a1,1,0,0,0,1-1v-64a1,1,0,0,0-1-1h-60A11.942,11.942,0,0,0-3419.489-13115.489Zm18.569,41.761c-.059-.893-.2-2.546-.333-3.658l-.092-.8-.072-.646-.007-.06c-.2-1.778-.264-2.315-.333-3.079-.053-.58-.392-3.673-.438-3.913a.068.068,0,0,1,.013-.049.2.2,0,0,1,.138-.04.269.269,0,0,1,.056,0,.524.524,0,0,1,.059.006l.02,0a1.112,1.112,0,0,1,.132.016h.017c.043.007.435.053.892.122a9.249,9.249,0,0,0,1.1.066c3.244,0,7.2-1.732,11.128-4.875.767-.612,1.031-.905,1.051-1.165a.568.568,0,0,0-.2-.436.534.534,0,0,0-.408-.21c-.3,0-.7.247-1.554.935-3.619,2.908-7.031,4.384-10.144,4.384a9.024,9.024,0,0,1-5.138-1.591,6.69,6.69,0,0,1-3.02-4.835,6.073,6.073,0,0,1,1.848-4.923,6.316,6.316,0,0,1,4.907-1.779,24.932,24.932,0,0,1,4.288.462,64.44,64.44,0,0,0,6.943.862c4.772.435,7.285,1,9.6,2.167a1.422,1.422,0,0,0,.629.172.608.608,0,0,0,.464-.182.711.711,0,0,0,.142-.557c-.085-.768-4.133-2.21-7.219-2.572-.313-.036-.5-.065-.514-.138-.02-.112.4-.326,1.709-.955a29.784,29.784,0,0,1,7.888-2.75,16.725,16.725,0,0,1,2.977-.273c4.733,0,8.994,2.095,11.122,5.46a8.285,8.285,0,0,1,.455,8.233,9.976,9.976,0,0,1-9.3,5.658,14.688,14.688,0,0,1-8.065-2.582,2.76,2.76,0,0,0-1.163-.583.531.531,0,0,0-.353.162.606.606,0,0,0-.257.5c.04.368.547.807,1.749,1.512a15.635,15.635,0,0,0,8,2.378h.013c.24,0,.418-.007.58-.017l1.317-.057.079,1.334c.218,3.827.1,6.462-1.139,7.782-.754.791-1.91,1.144-3.755,1.144a26.381,26.381,0,0,1-2.875-.194,77.423,77.423,0,0,0-8.543-.587,35.622,35.622,0,0,0-11.372,1.868,8.891,8.891,0,0,1-2.137.53C-3400.762-13071.472-3400.832-13072.052-3400.92-13073.729Z" transform="translate(3437 13123.003)"/></g></svg>