<svg xmlns="http://www.w3.org/2000/svg" xmlns:xlink="http://www.w3.org/1999/xlink" width="100" height="100" viewBox="0 0 100 100"><defs><clipPath id="b"><rect width="100" height="100"/></clipPath></defs><g id="a" clip-path="url(#b)"><path d="M-3709.944-13023.339l-23.212-18.41a7.817,7.817,0,0,0-4.805-1.676,7.819,7.819,0,0,0-4.808,1.676l-23.212,18.41a1.645,1.645,0,0,1-.708.34.215.215,0,0,1-.109-.026c-.254-.136-.194-.847-.194-.847v-79.764a7.752,7.752,0,0,1,7.743-7.746h42.574a7.755,7.755,0,0,1,7.746,7.746v79.764s.056.711-.2.847a.214.214,0,0,1-.109.026A1.645,1.645,0,0,1-3709.944-13023.339Zm-28.017-26.222h0a13.554,13.554,0,0,1,8.411,2.935l13.559,10.759s.642.515.948.215a3.4,3.4,0,0,0,.293-1.41l.006-65.6a2.915,2.915,0,0,0-2.908-2.908h-40.631a2.915,2.915,0,0,0-2.908,2.908l.007,65.6a3.4,3.4,0,0,0,.293,1.41c.306.3.948-.215.948-.215l13.559-10.759a13.552,13.552,0,0,1,8.408-2.935Zm39.936,14.606-8.158-6.476v-7.736l2.121,1.684a1.4,1.4,0,0,0,.7.306.355.355,0,0,0,.253-.095,3.358,3.358,0,0,0,.287-1.406l.013-65.6a2.911,2.911,0,0,0-2.915-2.9h-40.628a2.933,2.933,0,0,0-2.8,2.091h-5.918v-.161a7.755,7.755,0,0,1,7.746-7.746h42.571a7.755,7.755,0,0,1,7.746,7.746v79.764c0,.033.043.718-.2.85a.214.214,0,0,1-.109.026A1.671,1.671,0,0,1-3698.025-13034.954Z" transform="translate(3782 13122.999)"/></g></svg>