<svg xmlns="http://www.w3.org/2000/svg" xmlns:xlink="http://www.w3.org/1999/xlink" width="100" height="100" viewBox="0 0 100 100"><defs><clipPath id="b"><rect width="100" height="100"/></clipPath></defs><g id="a" clip-path="url(#b)"><path d="M-3009.364-13205H-3077a10.01,10.01,0,0,1-10-10v-73.871a16.043,16.043,0,0,1,4.725-11.41,16.022,16.022,0,0,1,11.4-4.718h59.667a4.842,4.842,0,0,1,4.838,4.835v64.515a4.844,4.844,0,0,1-4.838,4.839H-3067a4.032,4.032,0,0,0-3.87,4v4.905a4,4,0,0,0,4,4h50.05a14.557,14.557,0,0,1-1.412-5.94,23.3,23.3,0,0,1,1.411-6.946l0-.013h4l0,.006a23.187,23.187,0,0,0-1.414,6.953,14.577,14.577,0,0,0,1.408,5.932l0,.009h6.455v9.9A3,3,0,0,1-3009.364-13205Zm-38.543-47.019a13.351,13.351,0,0,1,3.977.6,18.493,18.493,0,0,1,2.337.922c.839.393,2.064,1.076,3.643,2.034a28.687,28.687,0,0,0,4.341,2.207,8.029,8.029,0,0,0,2.9.478,4.954,4.954,0,0,0,3.176-1.119,4.456,4.456,0,0,0,1.028-1.278,2.9,2.9,0,0,0,.387-1.316,2.176,2.176,0,0,0-.137-.878,1.4,1.4,0,0,0-1.279-1.028,3.294,3.294,0,0,1-1.189,1.486,5.6,5.6,0,0,0,.09-1.189,2.181,2.181,0,0,0-.731-1.393,2.131,2.131,0,0,0-1.115-.57,2.664,2.664,0,0,1-.7,1.235,2.592,2.592,0,0,1-1.379.708,3.065,3.065,0,0,0,.067-.665,1.08,1.08,0,0,0-.411-.774,2.373,2.373,0,0,0-.938-.551,3.2,3.2,0,0,1-2.828,1.306c-.556-.176-1.195-.4-2.01-.708l-1.463-.527c-.437-.152-.893-.294-1.392-.435a12.294,12.294,0,0,0,6.508-5.115,17.262,17.262,0,0,0,1.917-4.1,26.35,26.35,0,0,0,1.052-5.092,4.454,4.454,0,0,1,2.307-3.8,4.191,4.191,0,0,1-2.331-3.676c-.468-4.364-2.066-7.807-4.751-10.231a14.076,14.076,0,0,0-9.794-3.52,14.037,14.037,0,0,0-9.844,3.79,15.034,15.034,0,0,0-3.2,4.341,16.78,16.78,0,0,0-1.606,5.449c-.237,1.936-1.025,3.229-2.341,3.847a3.723,3.723,0,0,1,1.586,1.449,7.918,7.918,0,0,1,.788,2.982,20.305,20.305,0,0,0,.958,4.2c1.456,4.426,4.091,7.49,7.83,9.109-2.211.682-3.333,2.033-3.333,4.021a2.743,2.743,0,0,0,.892,2.01,3.164,3.164,0,0,0,2.237.938,6.9,6.9,0,0,1,1.519-3.856A4.2,4.2,0,0,1-3047.908-13252.021Zm1.259-3.743a6.1,6.1,0,0,1-1.987-.316c-2.047-.7-3.085-2.309-3.085-4.778v-6.778a4.113,4.113,0,0,1,2.514-3.954,3.788,3.788,0,0,1-2.514-3.676v-5.46a6.35,6.35,0,0,1,.391-2.331,4.55,4.55,0,0,1,4.658-2.921,4.881,4.881,0,0,1,3.449,1.3,5.216,5.216,0,0,1,1.483,3.95v5.46a3.835,3.835,0,0,1-2.464,3.676,4.114,4.114,0,0,1,2.464,3.954v6.778a5.07,5.07,0,0,1-1.369,3.813,4.319,4.319,0,0,1-1.563.966A6.012,6.012,0,0,1-3046.649-13255.764Zm-9.453-3.68h0a8.823,8.823,0,0,1-.981-1.525c-.848-1.574-1.556-4.756-2.1-9.457-.047-.4-.5-.788-1.346-1.165.849-.348,1.3-.725,1.346-1.122a32.624,32.624,0,0,1,1.349-6.551,9.183,9.183,0,0,1,1.529-2.672.375.375,0,0,1,.3.388,3.613,3.613,0,0,1-.16.865,28.519,28.519,0,0,0-1.279,9.092c0,4.862.407,8.259,1.209,10.095a4.443,4.443,0,0,1,.481,1.575.48.48,0,0,1-.34.478Zm16.555,0v0a13.735,13.735,0,0,0,.457-2.622c.063-.611.108-1.229.134-1.837.031-.711.047-1.6.047-2.628,0-1.093-.076-2.4-.227-3.87-.047-.382-.531-.781-1.439-1.188a3.876,3.876,0,0,0,.892-.434,2.532,2.532,0,0,0,.454-.414,8.53,8.53,0,0,0,.23-2.9,23.5,23.5,0,0,0-.641-6.6,1.435,1.435,0,0,1,.778.388,6,6,0,0,1,1.142,3.355c.092.716.161,1.619.2,2.685s.07,2.708.07,4.889c0,2.133-.039,4.119-.117,5.9-.133,3.137-.8,4.91-1.982,5.271Z" transform="translate(3097 13305.002)"/></g></svg>