<svg xmlns="http://www.w3.org/2000/svg" xmlns:xlink="http://www.w3.org/1999/xlink" width="100" height="100" viewBox="0 0 100 100"><defs><clipPath id="b"><rect width="100" height="100"/></clipPath></defs><g id="a" clip-path="url(#b)"><path d="M-3179.365-13205H-3247a10.01,10.01,0,0,1-10-10v-73.871a16.043,16.043,0,0,1,4.725-11.41,16.022,16.022,0,0,1,11.4-4.718h59.667a4.842,4.842,0,0,1,4.838,4.835v64.515a4.844,4.844,0,0,1-4.838,4.839H-3237a4.032,4.032,0,0,0-3.87,4v4.905a4,4,0,0,0,4,4h50.05a14.557,14.557,0,0,1-1.412-5.94,23.3,23.3,0,0,1,1.411-6.946l0-.013h4l0,.006a23.187,23.187,0,0,0-1.414,6.953,14.577,14.577,0,0,0,1.408,5.932l0,.009h6.455v9.9A3,3,0,0,1-3179.365-13205Zm-41.175-76.409a1.411,1.411,0,0,1,1.018.411,1.292,1.292,0,0,1,.431.941,10.259,10.259,0,0,1-.331,1.95l-4.975,19.768c-.744,2.975-1.72,4.983-2.9,5.97a10.2,10.2,0,0,1-4.685,1.62l-.394,1.749a29.979,29.979,0,0,1,6.562-.761,36.733,36.733,0,0,1,4.284.33,49.514,49.514,0,0,0,5.012.364,17.3,17.3,0,0,0,4.351-.694l.394-1.847a16.462,16.462,0,0,1-5.169.925,19.291,19.291,0,0,1-4.485-.628c.534-1.639,1.033-3.368,1.483-5.142l2.655-10.269c1.2.067,1.959.1,2.468.1a22.239,22.239,0,0,0,9.323-1.917,15.087,15.087,0,0,0,6.348-5.032,11.109,11.109,0,0,0,2.154-6.354,8.061,8.061,0,0,0-1.536-4.718,10.156,10.156,0,0,0-4.621-3.433,21.292,21.292,0,0,0-7.9-1.252c-8.407,0-15.2,2.731-20.2,8.12a19.7,19.7,0,0,0-5.74,13.66,11.808,11.808,0,0,0,1.82,6.766c1.213,1.775,2.486,2.675,3.783,2.675a1.8,1.8,0,0,0,1.259-.494,1.611,1.611,0,0,0,.528-1.223c0-.744-.544-1.521-1.616-2.311a9.045,9.045,0,0,1-2.7-3.019,8.111,8.111,0,0,1-.761-3.616,15.353,15.353,0,0,1,2.918-8.562,21.965,21.965,0,0,1,8.294-7.132,23.736,23.736,0,0,1,10.976-2.785c3.26,0,5.718.655,7.306,1.946a6.485,6.485,0,0,1,2.387,5.279,11.014,11.014,0,0,1-1.963,6.271,11.276,11.276,0,0,1-4.454,4.061,10.3,10.3,0,0,1-4.274,1.063c-.1,0-.21,0-.324,0h-.007l-3.039-.17,2.494-9.293c.624-2.466,1.217-4.5,1.763-6.057a56.3,56.3,0,0,1-8.191,1.328l-.4,1.479A5.005,5.005,0,0,1-3220.54-13281.411Z" transform="translate(3267 13305.002)"/></g></svg>