<svg xmlns="http://www.w3.org/2000/svg" xmlns:xlink="http://www.w3.org/1999/xlink" width="100" height="100" viewBox="0 0 100 100"><defs><clipPath id="b"><rect width="100" height="100"/></clipPath></defs><g id="a" clip-path="url(#b)"><path d="M-4382.454-13023.385l-26.259-20.831a8.877,8.877,0,0,0-5.437-1.9,8.877,8.877,0,0,0-5.437,1.9l-26.258,20.831a1.884,1.884,0,0,1-.8.382.22.22,0,0,1-.122-.029c-.29-.151-.224-.958-.224-.958v-90.247a8.772,8.772,0,0,1,8.761-8.764h48.163a8.772,8.772,0,0,1,8.761,8.764v90.247s.066.807-.221.958a.224.224,0,0,1-.125.029A1.884,1.884,0,0,1-4382.454-13023.385Zm-31.7-29.671h.007a15.347,15.347,0,0,1,9.515,3.323l15.337,12.176s.728.577,1.077.237a3.813,3.813,0,0,0,.329-1.594l.01-74.221a3.3,3.3,0,0,0-3.29-3.29h-45.97a3.3,3.3,0,0,0-3.287,3.29l.006,74.221a3.783,3.783,0,0,0,.333,1.594c.346.34,1.074-.237,1.074-.237l15.341-12.176a15.338,15.338,0,0,1,9.512-3.323Zm-2.1-23.88v-11.58h-11.58a2.1,2.1,0,0,1-2.1-2.1,2.106,2.106,0,0,1,2.1-2.107h11.58v-11.58a2.1,2.1,0,0,1,2.1-2.1,2.1,2.1,0,0,1,2.1,2.1v11.58h11.58a2.107,2.107,0,0,1,2.108,2.107,2.105,2.105,0,0,1-2.108,2.1h-11.58v11.58a2.1,2.1,0,0,1-2.1,2.1A2.1,2.1,0,0,1-4416.255-13076.936Z" transform="translate(4464.149 13123.002)"/></g></svg>