<svg xmlns="http://www.w3.org/2000/svg" xmlns:xlink="http://www.w3.org/1999/xlink" width="100" height="100" viewBox="0 0 100 100"><defs><clipPath id="b"><rect width="100" height="100"/></clipPath></defs><g id="a" clip-path="url(#b)"><path d="M-3728.711-13044.215a8.875,8.875,0,0,0-5.438-1.9,8.875,8.875,0,0,0-5.438,1.9l-26.259,20.83a1.885,1.885,0,0,1-.8.383.238.238,0,0,1-.122-.029c-.289-.152-.224-.959-.224-.959v-90.248a8.773,8.773,0,0,1,8.763-8.762h48.162a8.773,8.773,0,0,1,8.762,8.762v90.248s.065.807-.224.959a.238.238,0,0,1-.122.029Z" transform="translate(3784.149 13123.002)"/></g></svg>