<svg xmlns="http://www.w3.org/2000/svg" xmlns:xlink="http://www.w3.org/1999/xlink" width="100" height="100" viewBox="0 0 100 100"><defs><clipPath id="b"><rect width="100" height="100"/></clipPath></defs><g id="a" clip-path="url(#b)"><path d="M-1506.689,84.753q-8.5-3.248-9.5-8.15-1.82-9.034-2.992-15.453l-3.217-13.7a5.029,5.029,0,0,1-.3-1.045Q-1530,5-1530,2.4q0-6,12.7-10.2t30.6-4.2q18,0,30.655,4.2t12.648,10.2q0,1.2-7.2,44a5.055,5.055,0,0,1-.233.814l-3.161,12.887a.892.892,0,0,1-.1.4q-2.2,12.1-3,16.1-1.1,4.9-9.6,8.15a55.92,55.92,0,0,1-20,3.247A55.924,55.924,0,0,1-1506.689,84.753ZM-1506.3-3.3q-8.1,1.7-8.1,4.2,0,2.4,8.151,4.15A94.265,94.265,0,0,0-1486.7,6.8a97.718,97.718,0,0,0,19.654-1.7q8.147-1.7,8.148-4.1,0-2.5-8.148-4.251A94.952,94.952,0,0,0-1486.7-5,97.1,97.1,0,0,0-1506.3-3.3Z" transform="translate(1537 12)"/></g></svg>