<svg xmlns="http://www.w3.org/2000/svg" xmlns:xlink="http://www.w3.org/1999/xlink" width="100" height="100" viewBox="0 0 100 100"><defs><clipPath id="b"><rect width="100" height="100"/></clipPath></defs><g id="a" clip-path="url(#b)"><path d="M-10339.074-310.8h0a28.08,28.08,0,0,1-10.146-3.228,34.715,34.715,0,0,1-10.812-9.279c-6.427-8.173-9.965-19.043-9.965-30.608a51.023,51.023,0,0,1,6.868-26.09c7.428,7.852,17.07,12.176,27.148,12.176s19.719-4.324,27.143-12.176a50.967,50.967,0,0,1,6.869,26.09c0,11.562-3.537,22.432-9.958,30.608a34.781,34.781,0,0,1-10.816,9.279,28.072,28.072,0,0,1-10.145,3.228V-358.55a3.1,3.1,0,0,0-3.093-3.094,3.1,3.1,0,0,0-3.091,3.094V-310.8Z" transform="translate(10385.988 403.461)" opacity="0.66"/><path d="M-10290.115-298.951l-6.687-6.687c.632-.688,1.255-1.428,1.863-2.2a43.023,43.023,0,0,0,3.625-5.424l7.757,7.758a4.637,4.637,0,0,1,0,6.559,4.6,4.6,0,0,1-3.278,1.36A4.63,4.63,0,0,1-10290.115-298.951Zm-64.326,0a4.6,4.6,0,0,1-1.361-3.279,4.614,4.614,0,0,1,1.361-3.279l7.769-7.766a42.849,42.849,0,0,0,3.632,5.432c.6.769,1.228,1.509,1.854,2.2l-6.694,6.7a4.607,4.607,0,0,1-3.281,1.36A4.612,4.612,0,0,1-10354.441-298.951Zm68.017-26.939a54.042,54.042,0,0,0,1.352-9.279h11.438a4.643,4.643,0,0,1,4.636,4.639,4.64,4.64,0,0,1-4.636,4.639Zm-77.936,0a4.645,4.645,0,0,1-4.64-4.639,4.648,4.648,0,0,1,4.64-4.639h11.448a54.024,54.024,0,0,0,1.351,9.279Zm13.2-26.725-10.354-5.979a4.648,4.648,0,0,1-1.7-6.337,4.666,4.666,0,0,1,4.023-2.318,4.624,4.624,0,0,1,2.313.62l9.038,5.219a48.98,48.98,0,0,0-3.32,8.8Zm64.323,0v0a48.734,48.734,0,0,0-3.316-8.792l9.03-5.215a4.63,4.63,0,0,1,2.31-.62,4.648,4.648,0,0,1,4.019,2.318,4.62,4.62,0,0,1,.466,3.525,4.6,4.6,0,0,1-2.162,2.813l-10.342,5.975Zm-55.685-15.354c6.109-7.448,14.4-12.027,23.525-12.027s17.415,4.579,23.523,12.027c-6.108,6.917-14.4,11.166-23.523,11.166S-10336.41-361.057-10342.52-367.973Z" transform="translate(10369 388)"/></g></svg>