<svg xmlns="http://www.w3.org/2000/svg" xmlns:xlink="http://www.w3.org/1999/xlink" width="100" height="100" viewBox="0 0 100 100"><defs><clipPath id="b"><rect width="100" height="100"/></clipPath></defs><g id="a" clip-path="url(#b)"><path d="M-2159.5,88h-1a49.716,49.716,0,0,1-18.961-3.929,49.819,49.819,0,0,1-15.893-10.715,49.866,49.866,0,0,1-10.716-15.893A49.7,49.7,0,0,1-2210,38a49.7,49.7,0,0,1,3.927-19.462,49.866,49.866,0,0,1,10.716-15.893,49.835,49.835,0,0,1,15.893-10.715A49.662,49.662,0,0,1-2160.5-12l1,0a49.733,49.733,0,0,1,18.961,3.929,49.838,49.838,0,0,1,15.894,10.715,49.866,49.866,0,0,1,10.716,15.893A49.719,49.719,0,0,1-2110,38a49.725,49.725,0,0,1-3.928,19.463,49.865,49.865,0,0,1-10.716,15.893,49.821,49.821,0,0,1-15.894,10.715A49.7,49.7,0,0,1-2159.5,88h0Zm33.894-29.565h0a40.184,40.184,0,0,1-6.11,7.849,39.889,39.889,0,0,1-12.713,8.573A39.75,39.75,0,0,1-2159.5,78v9a49.345,49.345,0,0,0,41.674-24.071l-7.78-4.491Zm-68.792,0h0l-7.778,4.49A49.341,49.341,0,0,0-2160.5,87V78a39.721,39.721,0,0,1-15.07-3.14,39.856,39.856,0,0,1-12.713-8.573,40.073,40.073,0,0,1-6.113-7.848Zm60.13-5h0a30.112,30.112,0,0,1-4.52,5.779,29.917,29.917,0,0,1-9.535,6.43A29.8,29.8,0,0,1-2159.5,68v9a38.778,38.778,0,0,0,33.013-19.07l-7.781-4.493Zm-51.469,0h0l-7.78,4.493A38.783,38.783,0,0,0-2160.5,77V68a29.822,29.822,0,0,1-11.178-2.354,29.9,29.9,0,0,1-9.534-6.43,30.114,30.114,0,0,1-4.523-5.779Zm50.559-.526h0l-14.719,2.719-9.6,11.274V67a28.872,28.872,0,0,0,24.354-14.069l-.031-.018Zm-49.481.339h0a28.966,28.966,0,0,0,23.746,13.737l-23.746-13.739Zm67.335-39.309h0l-7.78,4.491a41.05,41.05,0,0,1,1.96,4A39.738,39.738,0,0,1-2120,38a39.745,39.745,0,0,1-3.145,15.57,40.6,40.6,0,0,1-1.963,4l7.78,4.491A48.92,48.92,0,0,0-2111,38a48.945,48.945,0,0,0-6.325-24.061Zm-85.353,0h0A48.948,48.948,0,0,0-2209,38a48.948,48.948,0,0,0,6.323,24.062l7.778-4.491a40.1,40.1,0,0,1-1.958-4A39.747,39.747,0,0,1-2200,38a39.74,39.74,0,0,1,3.143-15.57,39.954,39.954,0,0,1,1.958-4l-7.778-4.491Zm42.687-5.45h0l-18.621,5.287-6.975,9.494,17.4,19.531,8.16,14.732,16.9-9.85,8.719-24.453-25.583-14.741Zm34.057,10.54h0l-4.167,16.5c.067.833.1,1.664.1,2.47a29.838,29.838,0,0,1-2.359,11.678,30.743,30.743,0,0,1-1.409,2.891l7.783,4.494A38.947,38.947,0,0,0-2121,38a38.972,38.972,0,0,0-4.934-18.972Zm-68.114-.04h0A38.969,38.969,0,0,0-2199,38a38.962,38.962,0,0,0,4.982,19.062l7.783-4.494a29.223,29.223,0,0,1-1.407-2.891A29.821,29.821,0,0,1-2190,38c0-.853.035-1.705.1-2.534l-4.151-16.479Zm5.069,20.124h0a28.7,28.7,0,0,0,2.93,11.629Zm57.951.089-2.9,11.48a28.69,28.69,0,0,0,2.9-11.48Zm-37.424-39.28a39.223,39.223,0,0,0-25.038,18.1l14.857-4.229,10.181-13.875ZM-2159.365-11h0l13.15,11.434c.594.218,1.195.455,1.786.7a39.889,39.889,0,0,1,12.713,8.572,40.176,40.176,0,0,1,6.11,7.848l7.78-4.491A48.715,48.715,0,0,0-2159.365-11Zm-1.137,0a49.337,49.337,0,0,0-41.674,24.07l7.778,4.49a40.033,40.033,0,0,1,6.113-7.848,39.856,39.856,0,0,1,12.713-8.572,39.74,39.74,0,0,1,8.007-2.433l7.062-9.624V-11Zm16.672,13.509h0l16.7,14.522A39.11,39.11,0,0,0-2143.83,2.512Z" transform="translate(2210.002 12.001)" opacity="0.5"/><path d="M2251.813,66.8l8.16,14.732,16.9-9.851,8.719-24.453-25.583-14.741-18.62,5.287-6.975,9.494Z" transform="translate(-2210 -12)"/></g></svg>