<svg xmlns="http://www.w3.org/2000/svg" xmlns:xlink="http://www.w3.org/1999/xlink" width="100" height="100" viewBox="0 0 100 100"><defs><clipPath id="b"><rect width="100" height="100"/></clipPath></defs><g id="a" clip-path="url(#b)"><path d="M-10181.388-302.345a3.122,3.122,0,0,1-1.587-.379c-2.386-1.374-2.533-7.732-.376-16.2a38.966,38.966,0,0,1-12.157-11.557A26.278,26.278,0,0,1-10200-345a26.085,26.085,0,0,1,3.929-13.624,37.267,37.267,0,0,1,10.716-11.125,54.679,54.679,0,0,1,15.894-7.5A68.527,68.527,0,0,1-10150-380a68.525,68.525,0,0,1,19.462,2.75,54.681,54.681,0,0,1,15.894,7.5,37.25,37.25,0,0,1,10.715,11.125A26.074,26.074,0,0,1-10100-345a26.072,26.072,0,0,1-3.93,13.623,37.253,37.253,0,0,1-10.715,11.125,54.692,54.692,0,0,1-15.894,7.5A68.516,68.516,0,0,1-10150-310a69.463,69.463,0,0,1-16.887-2.045C-10172.455-306.063-10178.013-302.345-10181.388-302.345Zm55.091-49.139a7.494,7.494,0,0,0-7.485,7.485,7.494,7.494,0,0,0,7.485,7.485,7.494,7.494,0,0,0,7.485-7.485A7.494,7.494,0,0,0-10126.3-351.484Zm-23.7,0a7.492,7.492,0,0,0-7.482,7.485,7.492,7.492,0,0,0,7.482,7.485,7.494,7.494,0,0,0,7.487-7.485A7.494,7.494,0,0,0-10150-351.484Zm-23.7,0a7.493,7.493,0,0,0-7.484,7.485,7.493,7.493,0,0,0,7.484,7.485,7.494,7.494,0,0,0,7.485-7.485A7.494,7.494,0,0,0-10173.7-351.484Z" transform="translate(10200 391)"/></g></svg>