<svg xmlns="http://www.w3.org/2000/svg" xmlns:xlink="http://www.w3.org/1999/xlink" width="100" height="100" viewBox="0 0 100 100"><defs><clipPath id="b"><rect width="100" height="100"/></clipPath></defs><g id="a" clip-path="url(#b)"><path d="M-5457-19092a10.008,10.008,0,0,1-10-10v-80a10.013,10.013,0,0,1,10-10h80a10.017,10.017,0,0,1,10,10v80a10.013,10.013,0,0,1-10,10Zm1-85v70a4,4,0,0,0,4,4h70a4.005,4.005,0,0,0,4-4v-70a4.008,4.008,0,0,0-4-4h-70A4,4,0,0,0-5456-19177Zm27.122,57.057-17.677-17.682a5,5,0,0,1,0-7.07,5,5,0,0,1,7.071,0l14.141,14.141,31.823-31.818a5,5,0,0,1,7.071,0,5,5,0,0,1,0,7.07l-35.358,35.359a4.985,4.985,0,0,1-3.534,1.463A5,5,0,0,1-5428.876-19119.945Z" transform="translate(5467 19192)"/></g></svg>