<svg xmlns="http://www.w3.org/2000/svg" xmlns:xlink="http://www.w3.org/1999/xlink" width="100" height="100" viewBox="0 0 100 100"><defs><clipPath id="b"><rect width="100" height="100"/></clipPath></defs><g id="a" clip-path="url(#b)"><path d="M-6070-88a49.686,49.686,0,0,1-19.462-3.929,49.83,49.83,0,0,1-15.893-10.715,49.842,49.842,0,0,1-10.716-15.893A49.681,49.681,0,0,1-6120-138a49.679,49.679,0,0,1,3.929-19.462,49.839,49.839,0,0,1,10.716-15.893,49.83,49.83,0,0,1,15.893-10.715A49.689,49.689,0,0,1-6070-188a49.689,49.689,0,0,1,19.462,3.929,49.837,49.837,0,0,1,15.893,10.715,49.827,49.827,0,0,1,10.716,15.893A49.679,49.679,0,0,1-6020-138a49.681,49.681,0,0,1-3.929,19.462,49.829,49.829,0,0,1-10.716,15.893,49.837,49.837,0,0,1-15.893,10.715A49.686,49.686,0,0,1-6070-88Zm-25.875-56.86a6.531,6.531,0,0,0-4.646,1.924,6.579,6.579,0,0,0,0,9.289l12.607,12.605,4.645,4.645a6.526,6.526,0,0,0,4.645,1.923,6.519,6.519,0,0,0,4.643-1.923l34.5-34.5a6.525,6.525,0,0,0,1.92-4.645,6.525,6.525,0,0,0-1.92-4.645,6.524,6.524,0,0,0-4.644-1.923,6.528,6.528,0,0,0-4.646,1.923l-29.854,29.855-12.607-12.605A6.521,6.521,0,0,0-6095.875-144.861Z" transform="translate(6120 188)"/></g></svg>