<svg xmlns="http://www.w3.org/2000/svg" xmlns:xlink="http://www.w3.org/1999/xlink" width="100" height="100" viewBox="0 0 100 100"><defs><clipPath id="b"><rect width="100" height="100"/></clipPath></defs><g id="a" clip-path="url(#b)"><path d="M-1827.027-94.265l-7.158-7.158-19.428-19.428a10.124,10.124,0,0,1,0-14.316,10.124,10.124,0,0,1,14.316,0l19.428,19.428,46.012-46.012a10.123,10.123,0,0,1,14.316,0,10.124,10.124,0,0,1,0,14.316l-53.17,53.17a10.091,10.091,0,0,1-7.158,2.964A10.09,10.09,0,0,1-1827.027-94.265Z" transform="translate(1856.578 184.033)"/><path d="M-1838.042-120.525l-4.49-4.49-12.186-12.186a6.351,6.351,0,0,1,0-8.98,6.351,6.351,0,0,1,8.98,0l12.186,12.186,28.861-28.861a6.349,6.349,0,0,1,8.979,0,6.35,6.35,0,0,1,0,8.98l-33.351,33.351a6.33,6.33,0,0,1-4.49,1.859A6.329,6.329,0,0,1-1838.042-120.525Z" transform="translate(1870.215 171.715)" opacity="0.33"/></g></svg>