<svg xmlns="http://www.w3.org/2000/svg" xmlns:xlink="http://www.w3.org/1999/xlink" width="100" height="100" viewBox="0 0 100 100"><defs><clipPath id="b"><rect width="100" height="100"/></clipPath></defs><g id="a" clip-path="url(#b)"><path d="M-2867-8532a49.715,49.715,0,0,1-19.462-3.93,49.861,49.861,0,0,1-15.895-10.715,49.882,49.882,0,0,1-10.715-15.895A49.7,49.7,0,0,1-2917-8582a49.693,49.693,0,0,1,3.93-19.46,49.882,49.882,0,0,1,10.715-15.895,49.815,49.815,0,0,1,15.895-10.715A49.666,49.666,0,0,1-2867-8632a49.661,49.661,0,0,1,19.46,3.93,49.812,49.812,0,0,1,15.895,10.715,49.837,49.837,0,0,1,10.715,15.895A49.647,49.647,0,0,1-2817-8582a49.654,49.654,0,0,1-3.93,19.463,49.849,49.849,0,0,1-10.715,15.895,49.861,49.861,0,0,1-15.895,10.715A49.71,49.71,0,0,1-2867-8532Zm-21.3-54.96a5.288,5.288,0,0,0-3.761,1.557,5.324,5.324,0,0,0,0,7.52l10.206,10.206,3.761,3.759a5.276,5.276,0,0,0,3.759,1.558,5.279,5.279,0,0,0,3.761-1.558l27.928-27.929a5.281,5.281,0,0,0,1.557-3.76,5.281,5.281,0,0,0-1.557-3.76,5.282,5.282,0,0,0-3.76-1.558,5.282,5.282,0,0,0-3.76,1.558l-24.17,24.17-10.2-10.206A5.283,5.283,0,0,0-2888.3-8586.959Z" transform="translate(2917 8632)"/></g></svg>