<svg xmlns="http://www.w3.org/2000/svg" xmlns:xlink="http://www.w3.org/1999/xlink" width="100" height="100" viewBox="0 0 100 100"><defs><clipPath id="b"><rect width="100" height="100"/></clipPath></defs><g id="a" clip-path="url(#b)"><path d="M-5376-19274h-80a10.014,10.014,0,0,1-10-10v-80a10.014,10.014,0,0,1,10-10h80a10.014,10.014,0,0,1,10,10v80A10.014,10.014,0,0,1-5376-19274Zm-66.017-54.158a4.956,4.956,0,0,0-3.533,1.461,4.972,4.972,0,0,0-1.467,3.537,4.959,4.959,0,0,0,1.462,3.533l17.679,17.68a4.974,4.974,0,0,0,3.535,1.463,4.971,4.971,0,0,0,3.535-1.463l35.358-35.354a5.011,5.011,0,0,0,0-7.074,4.966,4.966,0,0,0-3.535-1.465,4.963,4.963,0,0,0-3.535,1.465l-31.823,31.822-14.14-14.145A4.969,4.969,0,0,0-5442.018-19328.158Z" transform="translate(5466 19374)"/></g></svg>