<svg xmlns="http://www.w3.org/2000/svg" xmlns:xlink="http://www.w3.org/1999/xlink" width="100" height="100" viewBox="0 0 100 100"><defs><clipPath id="b"><rect width="100" height="100"/></clipPath></defs><g id="a" clip-path="url(#b)"><path d="M-1827.027-94.265l-7.158-7.158-19.428-19.428a10.124,10.124,0,0,1,0-14.316,10.124,10.124,0,0,1,14.316,0l19.428,19.428,46.012-46.012a10.123,10.123,0,0,1,14.316,0,10.124,10.124,0,0,1,0,14.316l-53.17,53.17a10.091,10.091,0,0,1-7.158,2.964A10.09,10.09,0,0,1-1827.027-94.265Z" transform="translate(1856.578 177.715)"/></g></svg>