<svg xmlns="http://www.w3.org/2000/svg" xmlns:xlink="http://www.w3.org/1999/xlink" width="100" height="100" viewBox="0 0 100 100"><defs><clipPath id="b"><rect width="100" height="100"/></clipPath></defs><g id="a" clip-path="url(#b)"><path d="M30.538,96.071A50.162,50.162,0,1,1,50,100,49.827,49.827,0,0,1,30.538,96.071ZM6,50A44,44,0,1,0,50,6,44.05,44.05,0,0,0,6,50Z"/><path d="M38.9,68.082l-3.76-3.76-10.205-10.2a5.317,5.317,0,0,1,7.519-7.52L42.662,56.8,66.83,32.634a5.317,5.317,0,0,1,7.52,7.519L46.422,68.082a5.318,5.318,0,0,1-7.52,0Z" opacity="0.5"/></g></svg>