<svg xmlns="http://www.w3.org/2000/svg" xmlns:xlink="http://www.w3.org/1999/xlink" width="100" height="100" viewBox="0 0 100 100"><defs><clipPath id="b"><rect width="100" height="100"/></clipPath></defs><g id="a" clip-path="url(#b)"><path d="M101.086,35.527,54.42,4.416a3.333,3.333,0,0,0-3.7,0L4.055,35.527A3.333,3.333,0,0,0,2.571,38.3V69.411a3.333,3.333,0,0,0,1.484,2.773L50.722,103.3a3.332,3.332,0,0,0,3.7,0l46.667-31.111a3.333,3.333,0,0,0,1.484-2.773V38.3a3.333,3.333,0,0,0-1.484-2.773ZM52.571,65.406,35.247,53.856,52.571,42.307,69.895,53.856,52.571,65.406ZM55.9,36.517v-23.1L93.228,38.3,75.9,49.85l-20-13.333Zm-6.667,0-20,13.333L11.913,38.3,49.237,13.418ZM23.228,53.856,9.237,63.183V44.529Zm6.009,4.006,20,13.333v23.1L11.913,69.412l17.324-11.55ZM55.9,71.2l20-13.333,17.324,11.55L55.9,94.294V71.2ZM81.913,53.856,95.9,44.529V63.184Z" transform="translate(-2.571 -3.856)"/></g></svg>