<svg xmlns="http://www.w3.org/2000/svg" xmlns:xlink="http://www.w3.org/1999/xlink" width="100" height="100" viewBox="0 0 100 100"><defs><clipPath id="b"><rect width="100" height="100"/></clipPath></defs><g id="a" clip-path="url(#b)"><path d="M-6965.337-87.735a4.663,4.663,0,0,1-4.656-4.658v-70.8H-6970v-3.727a4.665,4.665,0,0,1,4.66-4.658h9.032v65.5a4.663,4.663,0,0,0,4.656,4.658h42.211v9.025a4.664,4.664,0,0,1-4.659,4.658Zm56.2-82.476a1.677,1.677,0,0,1-1.675-1.676v-14.435a1.678,1.678,0,0,1,2.865-1.185l14.43,14.433a1.677,1.677,0,0,1-1.185,2.863Z" transform="translate(6982 188)" opacity="0.5"/><path d="M2.665,83.844a4.662,4.662,0,0,1-4.658-4.658V8.384H-2V4.658A4.658,4.658,0,0,1,2.661,0h34a2.329,2.329,0,0,1,2.329,2.329V5.59h0V16.769a2.8,2.8,0,0,0,2.794,2.794H56.227a2.329,2.329,0,0,1,2.329,2.329v8.852h0v-9.8l0,58.246A4.663,4.663,0,0,1,53.9,83.844Z" transform="translate(30.422 0.001)"/></g></svg>