<svg xmlns="http://www.w3.org/2000/svg" xmlns:xlink="http://www.w3.org/1999/xlink" width="100" height="100" viewBox="0 0 100 100"><defs><clipPath id="b"><rect width="100" height="100"/></clipPath></defs><g id="a" clip-path="url(#b)"><path d="M52.9,29.248a49.909,49.909,0,0,0,49.968-50.032A49.854,49.854,0,0,0,52.9-70.752,49.9,49.9,0,0,0,2.93-20.784,49.949,49.949,0,0,0,52.9,29.248Zm0-11.189A38.7,38.7,0,0,1,14.118-20.784,38.649,38.649,0,0,1,52.9-59.563,38.609,38.609,0,0,1,91.677-20.784,38.663,38.663,0,0,1,52.9,18.059ZM75.848-26.7c-.954-11.125-9.409-18.627-22.123-18.627-14.622,0-23.713,9.409-23.713,24.476,0,15.321,9.091,24.6,23.84,24.6,12.778,0,21.043-6.993,22-18.182h-13.6c-.7,4.323-3.751,6.8-8.264,6.8-5.785,0-9.154-4.7-9.154-13.223,0-8.264,3.433-13.1,9.154-13.1A7.982,7.982,0,0,1,62.243-26.7Z" transform="translate(-2.93 70.752)"/></g></svg>