<svg xmlns="http://www.w3.org/2000/svg" xmlns:xlink="http://www.w3.org/1999/xlink" width="100" height="100" viewBox="0 0 100 100"><defs><clipPath id="b"><rect width="100" height="100"/></clipPath></defs><g id="a" clip-path="url(#b)"><path d="M-3720-5554a49.681,49.681,0,0,1-19.462-3.929,49.824,49.824,0,0,1-15.893-10.716,49.829,49.829,0,0,1-10.716-15.893A49.69,49.69,0,0,1-3770-5604a49.69,49.69,0,0,1,3.929-19.462,49.826,49.826,0,0,1,10.716-15.893,49.825,49.825,0,0,1,15.893-10.715A49.681,49.681,0,0,1-3720-5654a49.678,49.678,0,0,1,19.462,3.929,49.831,49.831,0,0,1,15.893,10.715,49.831,49.831,0,0,1,10.715,15.893A49.69,49.69,0,0,1-3670-5604a49.69,49.69,0,0,1-3.929,19.462,49.833,49.833,0,0,1-10.715,15.893,49.83,49.83,0,0,1-15.893,10.716A49.679,49.679,0,0,1-3720-5554Zm.795-74.571c-14.627,0-23.714,9.378-23.714,24.476,0,15.175,9.135,24.6,23.84,24.6,12.612,0,21.041-6.967,22-18.181h-13.6a7.986,7.986,0,0,1-2.7,5.022,8.638,8.638,0,0,1-5.562,1.78,7.783,7.783,0,0,1-6.747-3.417c-1.6-2.288-2.408-5.587-2.408-9.806,0-4.045.841-7.381,2.432-9.647a7.89,7.89,0,0,1,6.723-3.449,7.976,7.976,0,0,1,8.264,7.247h13.6C-3698.052-5621.259-3706.735-5628.571-3719.2-5628.571Z" transform="translate(3770 5654)"/></g></svg>