<svg xmlns="http://www.w3.org/2000/svg" xmlns:xlink="http://www.w3.org/1999/xlink" width="100" height="100" viewBox="0 0 100 100"><defs><clipPath id="b"><rect width="100" height="100"/></clipPath></defs><g id="a" clip-path="url(#b)"><path d="M-8943.331-93.555v-16.668h-33.336a11.113,11.113,0,0,1-11.112-11.11v-33.333h-16.666a5.555,5.555,0,0,1-5.555-5.555,5.555,5.555,0,0,1,5.555-5.555h16.666v-16.668a5.556,5.556,0,0,1,5.56-5.555,5.555,5.555,0,0,1,5.553,5.555v16.668h33.336a11.113,11.113,0,0,1,11.11,11.11v33.333h16.668a5.556,5.556,0,0,1,5.556,5.555,5.556,5.556,0,0,1-5.556,5.555h-16.668v16.668A5.554,5.554,0,0,1-8937.778-88,5.554,5.554,0,0,1-8943.331-93.555Zm-33.336-33.178a5.6,5.6,0,0,0,5.558,5.4h27.778v-27.934a5.6,5.6,0,0,0-5.558-5.4h-27.778Z" transform="translate(9010 187.999)"/></g></svg>