<svg xmlns="http://www.w3.org/2000/svg" xmlns:xlink="http://www.w3.org/1999/xlink" width="100" height="100" viewBox="0 0 100 100"><defs><clipPath id="b"><rect width="100" height="100"/></clipPath></defs><g id="a" clip-path="url(#b)"><path d="M-139.462,96.071a49.837,49.837,0,0,1-15.893-10.715,49.827,49.827,0,0,1-10.715-15.893A49.682,49.682,0,0,1-170,50a49.687,49.687,0,0,1,3.929-19.462,49.827,49.827,0,0,1,10.715-15.893A49.827,49.827,0,0,1-139.462,3.929,49.687,49.687,0,0,1-120,0a49.69,49.69,0,0,1,19.463,3.929A49.833,49.833,0,0,1-84.645,14.645,49.827,49.827,0,0,1-73.93,30.538,49.687,49.687,0,0,1-70,50,49.682,49.682,0,0,1-73.93,69.462,49.827,49.827,0,0,1-84.645,85.355a49.833,49.833,0,0,1-15.892,10.715A49.69,49.69,0,0,1-120,100,49.687,49.687,0,0,1-139.462,96.071ZM-164,50a44.05,44.05,0,0,0,44,44A44.049,44.049,0,0,0-76,50,44.05,44.05,0,0,0-120,6,44.05,44.05,0,0,0-164,50Zm57.388,19.04L-120,55.652-133.388,69.04a2.05,2.05,0,0,1-2.9,0l-2.754-2.755a2.048,2.048,0,0,1,0-2.9L-125.652,50l-13.387-13.388a2.048,2.048,0,0,1,0-2.9l2.754-2.754a2.047,2.047,0,0,1,2.9,0L-120,44.348l13.387-13.388a2.048,2.048,0,0,1,2.9,0l2.755,2.755a2.048,2.048,0,0,1,0,2.9L-114.348,50l13.387,13.388a2.048,2.048,0,0,1,0,2.9l-2.755,2.755a2.042,2.042,0,0,1-1.448.6A2.043,2.043,0,0,1-106.612,69.04Z" transform="translate(170 0)"/></g></svg>