<svg xmlns="http://www.w3.org/2000/svg" xmlns:xlink="http://www.w3.org/1999/xlink" width="100" height="100" viewBox="0 0 100 100"><defs><clipPath id="b"><rect width="100" height="100"/></clipPath></defs><g id="a" clip-path="url(#b)"><path d="M-3037-8532a49.715,49.715,0,0,1-19.463-3.93,49.849,49.849,0,0,1-15.894-10.715,49.85,49.85,0,0,1-10.715-15.895A49.658,49.658,0,0,1-3087-8582a49.651,49.651,0,0,1,3.93-19.46,49.85,49.85,0,0,1,10.715-15.895,49.81,49.81,0,0,1,15.894-10.715A49.666,49.666,0,0,1-3037-8632a49.682,49.682,0,0,1,19.462,3.93,49.818,49.818,0,0,1,15.892,10.715,49.882,49.882,0,0,1,10.715,15.895A49.693,49.693,0,0,1-2987-8582a49.7,49.7,0,0,1-3.93,19.463,49.882,49.882,0,0,1-10.715,15.895,49.875,49.875,0,0,1-15.892,10.715A49.731,49.731,0,0,1-3037-8532Zm0-44.35h0l13.385,13.388a2.031,2.031,0,0,0,1.449.6,2.031,2.031,0,0,0,1.449-.6l2.753-2.753a2.036,2.036,0,0,0,.6-1.449,2.04,2.04,0,0,0-.6-1.45L-3031.347-8582l13.386-13.386a2.037,2.037,0,0,0,.6-1.452,2.034,2.034,0,0,0-.6-1.446l-2.753-2.756a2.039,2.039,0,0,0-1.449-.6,2.039,2.039,0,0,0-1.449.6L-3037-8587.65l-13.39-13.389a2.025,2.025,0,0,0-1.447-.6,2.03,2.03,0,0,0-1.449.6l-2.753,2.754a2.052,2.052,0,0,0,0,2.9l13.388,13.386-13.388,13.388a2.054,2.054,0,0,0,0,2.9l2.753,2.753a2.035,2.035,0,0,0,1.449.6,2.029,2.029,0,0,0,1.447-.6l13.39-13.388Z" transform="translate(3087 8632)"/></g></svg>