<svg xmlns="http://www.w3.org/2000/svg" xmlns:xlink="http://www.w3.org/1999/xlink" width="100" height="100" viewBox="0 0 100 100"><defs><clipPath id="b"><rect width="100" height="100"/></clipPath></defs><g id="a" clip-path="url(#b)"><path d="M-8482-344a17.882,17.882,0,0,1-12.728-5.271A17.879,17.879,0,0,1-8500-362a17.879,17.879,0,0,1,5.272-12.728A17.881,17.881,0,0,1-8482-380a17.881,17.881,0,0,1,12.728,5.272A17.879,17.879,0,0,1-8464-362a17.879,17.879,0,0,1-5.272,12.729A17.882,17.882,0,0,1-8482-344Zm-11.374-20.624A2.628,2.628,0,0,0-8496-362a2.629,2.629,0,0,0,2.626,2.626h8.748v8.748A2.629,2.629,0,0,0-8482-348a2.628,2.628,0,0,0,2.624-2.626v-8.748h8.75A2.628,2.628,0,0,0-8468-362a2.627,2.627,0,0,0-2.624-2.624h-8.75v-8.75A2.627,2.627,0,0,0-8482-376a2.628,2.628,0,0,0-2.626,2.624v8.75Z" transform="translate(8564 380)" opacity="0.5"/><path d="M-8458.694-278c-22.776,0-41.306-3.252-41.306-7.249v-26.087c0,1.74,4.3,3.377,12.11,4.61a197.828,197.828,0,0,0,27.472,1.923c.569,0,1.149,0,1.724-.008,22.772,0,41.3-2.927,41.3-6.526v26.087C-8417.4-281.251-8435.922-278-8458.694-278Zm0-33.336c-22.776,0-41.306-3.25-41.306-7.244v-26.087c0,1.74,4.3,3.377,12.11,4.61a197.508,197.508,0,0,0,27.429,1.919c.587,0,1.182,0,1.767-.008a195.041,195.041,0,0,0,29.55-1.97A20.312,20.312,0,0,0-8427-340a20.021,20.021,0,0,0,9.6-2.452v23.874C-8417.4-314.585-8435.922-311.335-8458.694-311.335Zm-.007-33.332c-22.772,0-41.3-3.252-41.3-7.249v-18.841c0-3.995,18.526-7.244,41.3-7.244a207.59,207.59,0,0,1,21.13,1.019A19.9,19.9,0,0,0-8447-360a20.071,20.071,0,0,0,6.34,14.607C-8446.314-344.91-8452.384-344.666-8458.7-344.666Z" transform="translate(8509 378)"/></g></svg>