<svg xmlns="http://www.w3.org/2000/svg" xmlns:xlink="http://www.w3.org/1999/xlink" width="100" height="100" viewBox="0 0 100 100"><defs><clipPath id="b"><rect width="100" height="100"/></clipPath></defs><g id="a" clip-path="url(#b)"><path d="M-8992-344a17.881,17.881,0,0,1-12.728-5.272A17.882,17.882,0,0,1-9010-362a17.882,17.882,0,0,1,5.271-12.728A17.883,17.883,0,0,1-8992-380a17.886,17.886,0,0,1,12.729,5.271A17.877,17.877,0,0,1-8974-362a17.877,17.877,0,0,1-5.272,12.727A17.884,17.884,0,0,1-8992-344Zm-2.684-23.119v16.586a2.535,2.535,0,0,0,2.532,2.533,2.534,2.534,0,0,0,2.53-2.533V-367.09c.045-.014.088-.03.134-.046l.015-.005,2.908,2.907a2.578,2.578,0,0,0,1.835.76,2.578,2.578,0,0,0,1.835-.76,2.573,2.573,0,0,0,.76-1.834,2.573,2.573,0,0,0-.76-1.834l-7.337-7.34a2.578,2.578,0,0,0-1.835-.76,2.578,2.578,0,0,0-1.835.76l-7.338,7.34a2.573,2.573,0,0,0-.76,1.834,2.573,2.573,0,0,0,.76,1.834,2.578,2.578,0,0,0,1.834.76,2.582,2.582,0,0,0,1.836-.76l2.884-2.884Z" transform="translate(9074 380)" opacity="0.5"/><path d="M-8458.694-278c-22.776,0-41.306-3.252-41.306-7.249v-26.087c0,1.74,4.3,3.377,12.11,4.61a197.828,197.828,0,0,0,27.472,1.923c.569,0,1.149,0,1.724-.008,22.772,0,41.3-2.927,41.3-6.526v26.087C-8417.4-281.251-8435.922-278-8458.694-278Zm0-33.336c-22.776,0-41.306-3.25-41.306-7.244v-26.087c0,1.74,4.3,3.377,12.11,4.61a197.508,197.508,0,0,0,27.429,1.919c.587,0,1.182,0,1.767-.008a195.041,195.041,0,0,0,29.55-1.97A20.312,20.312,0,0,0-8427-340a20.021,20.021,0,0,0,9.6-2.452v23.874C-8417.4-314.585-8435.922-311.335-8458.694-311.335Zm-.007-33.332c-22.772,0-41.3-3.252-41.3-7.249v-18.841c0-3.995,18.526-7.244,41.3-7.244a207.59,207.59,0,0,1,21.13,1.019A19.9,19.9,0,0,0-8447-360a20.071,20.071,0,0,0,6.34,14.607C-8446.314-344.91-8452.384-344.666-8458.7-344.666Z" transform="translate(8509 378)"/></g></svg>