<svg xmlns="http://www.w3.org/2000/svg" xmlns:xlink="http://www.w3.org/1999/xlink" width="100" height="100" viewBox="0 0 100 100"><defs><clipPath id="b"><rect width="100" height="100"/></clipPath></defs><g id="a" clip-path="url(#b)"><path d="M16.492,96.088H31.352V81.248H16.492ZM4.071,68.829v12.42H16.492V68.829Zm94-34.215A48.389,48.389,0,0,0,66.5,3.041C32.2-7.665.563,17.839.563,50.542H19.879c0-20.525,20.365-36.392,41.96-28.569a28.925,28.925,0,0,1,17.3,17.279c7.884,21.573-8,41.9-28.511,41.937v.06h-.06v19.315c32.786,0,58.232-31.614,47.505-65.949ZM50.629,81.188V61.974H31.352V81.248H50.568v-.06Z" transform="translate(-0.563 -0.563)"/></g></svg>