<svg xmlns="http://www.w3.org/2000/svg" xmlns:xlink="http://www.w3.org/1999/xlink" width="100" height="100" viewBox="0 0 100 100"><defs><clipPath id="b"><rect width="100" height="100"/></clipPath></defs><g id="a" clip-path="url(#b)"><path d="M58.05,47.5a5.118,5.118,0,1,1-5.1-5.55A5.327,5.327,0,0,1,58.05,47.5ZM34.7,41.95a5.57,5.57,0,0,0,0,11.1,5.327,5.327,0,0,0,5.1-5.55A5.3,5.3,0,0,0,34.7,41.95ZM87.5,10.3V100c-12.6-11.132-8.568-7.447-23.2-21.05l2.65,9.25H10.25A10.275,10.275,0,0,1,0,77.9V10.3A10.275,10.275,0,0,1,10.25,0h67A10.275,10.275,0,0,1,87.5,10.3ZM73.25,57.7a66.958,66.958,0,0,0-7.2-29.15C58.85,23.15,52,23.3,52,23.3l-.7.8c8.5,2.6,12.45,6.35,12.45,6.35A42.485,42.485,0,0,0,26.4,29c-1.85.85-2.95,1.45-2.95,1.45S27.6,26.5,36.6,23.9l-.5-.6s-6.85-.15-14.05,5.25a66.958,66.958,0,0,0-7.2,29.15s4.2,7.25,15.25,7.6c0,0,1.85-2.25,3.35-4.15-6.35-1.9-8.75-5.9-8.75-5.9.736.515,1.948,1.182,2.05,1.25a36.447,36.447,0,0,0,31.2,1.75A28.612,28.612,0,0,0,63.7,55.3s-2.5,4.1-9.05,5.95c1.5,1.9,3.3,4.05,3.3,4.05C69,64.95,73.25,57.7,73.25,57.7Z" transform="translate(6)"/></g></svg>