<svg xmlns="http://www.w3.org/2000/svg" xmlns:xlink="http://www.w3.org/1999/xlink" width="100" height="100" viewBox="0 0 100 100"><defs><clipPath id="b"><rect width="100" height="100"/></clipPath></defs><g id="a" clip-path="url(#b)"><path d="M-3414-18728a11.9,11.9,0,0,1-8.486-3.516A11.914,11.914,0,0,1-3426-18740v-56a11.924,11.924,0,0,1,3.516-8.486A11.926,11.926,0,0,1-3414-18808h18.632v23.082a9.032,9.032,0,0,0-4.843-1.4,8.978,8.978,0,0,0-6.389,2.646,8.979,8.979,0,0,0-2.651,6.393,8.982,8.982,0,0,0,2.651,6.4l14.2,14.2a8.995,8.995,0,0,0,6.4,2.646,8.988,8.988,0,0,0,6.388-2.641l14.209-14.209a9.058,9.058,0,0,0,0-12.791,8.965,8.965,0,0,0-6.393-2.646,9.092,9.092,0,0,0-5.491,1.852V-18808H-3358a11.91,11.91,0,0,1,8.486,3.516A11.923,11.923,0,0,1-3346-18796v56a11.913,11.913,0,0,1-3.516,8.486A11.9,11.9,0,0,1-3358-18728Zm24.467-31.861-14.152-14.139a5,5,0,0,1,0-7.072,5.006,5.006,0,0,1,7.078-.006l5.278,5.283,0-47.209a4.969,4.969,0,0,1,1.465-3.535,4.982,4.982,0,0,1,3.534-1.465,5.009,5.009,0,0,1,5,5v47.857l5.93-5.932a5,5,0,0,1,7.074.006,5,5,0,0,1,0,7.072l-14.147,14.139a4.986,4.986,0,0,1-3.539,1.465A4.964,4.964,0,0,1-3389.531-18759.859Z" transform="translate(3435.999 18828)"/></g></svg>