<svg xmlns="http://www.w3.org/2000/svg" xmlns:xlink="http://www.w3.org/1999/xlink" width="100" height="100" viewBox="0 0 100 100"><defs><clipPath id="b"><rect width="100" height="100"/></clipPath></defs><g id="a" clip-path="url(#b)"><path d="M-3413.651-18546a12.29,12.29,0,0,1-8.732-3.617,12.3,12.3,0,0,1-3.617-8.742V-18616a12.277,12.277,0,0,1,3.617-8.732,12.262,12.262,0,0,1,8.732-3.621h19.766v10.295h-17.7a4.125,4.125,0,0,0-4.118,4.123v53.52a4.126,4.126,0,0,0,4.118,4.123h53.525a4.127,4.127,0,0,0,4.123-4.123v-53.52a4.126,4.126,0,0,0-4.123-4.123h-17.782v-10.295h19.836a12.249,12.249,0,0,1,8.737,3.621,12.262,12.262,0,0,1,3.622,8.732v57.643a12.281,12.281,0,0,1-3.622,8.742,12.277,12.277,0,0,1-8.737,3.617Zm25.293-31.859-14.151-14.141a5,5,0,0,1,0-7.07,5,5,0,0,1,7.075-.006l5.283,5.283,0-47.211a4.977,4.977,0,0,1,1.46-3.533,4.981,4.981,0,0,1,3.538-1.465,5.006,5.006,0,0,1,5,5v47.857l5.929-5.93a5,5,0,0,1,7.075.006,5,5,0,0,1,0,7.07l-14.151,14.141a4.969,4.969,0,0,1-3.533,1.465A4.961,4.961,0,0,1-3388.358-18577.857Z" transform="translate(3434.826 18646)"/></g></svg>