<svg xmlns="http://www.w3.org/2000/svg" xmlns:xlink="http://www.w3.org/1999/xlink" width="100" height="100" viewBox="0 0 100 100"><defs><clipPath id="b"><rect width="100" height="100"/></clipPath></defs><g id="a" clip-path="url(#b)"><path d="M-3356.006-18543.646h-57.643a12.269,12.269,0,0,1-8.732-3.619,12.273,12.273,0,0,1-3.619-8.74v-57.645a12.264,12.264,0,0,1,3.619-8.73,12.24,12.24,0,0,1,8.732-3.619h19.766v10.295h-17.706a4.122,4.122,0,0,0-4.115,4.121v53.521a4.12,4.12,0,0,0,4.115,4.119h53.528a4.123,4.123,0,0,0,4.12-4.119v-53.521a4.125,4.125,0,0,0-4.12-4.121h-17.783V-18626h19.838a12.245,12.245,0,0,1,8.737,3.619,12.262,12.262,0,0,1,3.619,8.73v57.645a12.271,12.271,0,0,1-3.619,8.74A12.274,12.274,0,0,1-3356.006-18543.646Z" transform="translate(3434.825 18643.648)" opacity="0.5"/><path d="M-3392.49-18573.838l-14.151-14.141a5,5,0,0,1,0-7.07,5,5,0,0,1,7.078-.006l5.28,5.283,0-47.211a4.976,4.976,0,0,1,1.461-3.533,4.984,4.984,0,0,1,3.539-1.465,5.007,5.007,0,0,1,5,5v47.857l5.926-5.93a5.005,5.005,0,0,1,7.078.006,5,5,0,0,1,0,7.07l-14.151,14.141a4.984,4.984,0,0,1-3.536,1.465A4.973,4.973,0,0,1-3392.49-18573.838Z" transform="translate(3438.957 18641.98)"/></g></svg>