<svg xmlns="http://www.w3.org/2000/svg" xmlns:xlink="http://www.w3.org/1999/xlink" width="100" height="100" viewBox="0 0 100 100"><defs><clipPath id="b"><rect width="100" height="100"/></clipPath></defs><g id="a" clip-path="url(#b)"><path d="M-3377-8532a49.687,49.687,0,0,1-19.462-3.93,49.838,49.838,0,0,1-15.893-10.716,49.839,49.839,0,0,1-10.715-15.895A49.686,49.686,0,0,1-3427-8582a49.686,49.686,0,0,1,3.929-19.462,49.843,49.843,0,0,1,10.715-15.894,49.843,49.843,0,0,1,15.893-10.715A49.709,49.709,0,0,1-3377-8632a49.712,49.712,0,0,1,19.463,3.929,49.839,49.839,0,0,1,15.894,10.715,49.837,49.837,0,0,1,10.716,15.894A49.682,49.682,0,0,1-3327-8582a49.682,49.682,0,0,1-3.929,19.462,49.833,49.833,0,0,1-10.716,15.895,49.853,49.853,0,0,1-15.894,10.716A49.689,49.689,0,0,1-3377-8532Zm-.11-37.506a7.82,7.82,0,0,0-7.812,7.812,7.819,7.819,0,0,0,7.812,7.81,7.818,7.818,0,0,0,7.81-7.81A7.819,7.819,0,0,0-3377.111-8569.5Zm-4.688-40.61a3.127,3.127,0,0,0-3.124,3.123l1.564,32.8a3.113,3.113,0,0,0,.821,2.11,11.729,11.729,0,0,1,5.425-1.33,11.718,11.718,0,0,1,5.427,1.33,3.1,3.1,0,0,0,.823-2.11l1.562-32.8a3.127,3.127,0,0,0-3.124-3.123Z" transform="translate(3427 8632)"/></g></svg>