<svg xmlns="http://www.w3.org/2000/svg" xmlns:xlink="http://www.w3.org/1999/xlink" width="100" height="100" viewBox="0 0 100 100"><defs><clipPath id="b"><rect width="100" height="100"/></clipPath></defs><g id="a" clip-path="url(#b)"><path d="M-3673.582-8543.308h-86.836a6.508,6.508,0,0,1-5.687-3.282,6.509,6.509,0,0,1-.011-6.568l43.416-75.545a6.506,6.506,0,0,1,5.7-3.3,6.506,6.506,0,0,1,5.7,3.3l43.416,75.545a6.513,6.513,0,0,1-.009,6.568A6.51,6.51,0,0,1-3673.582-8543.308Zm-43.608-28.13a5.911,5.911,0,0,0-5.9,5.905,5.91,5.91,0,0,0,5.9,5.9,5.911,5.911,0,0,0,5.905-5.9A5.912,5.912,0,0,0-3717.19-8571.437Zm-3.542-30.7a2.364,2.364,0,0,0-2.361,2.361l1.181,24.8a2.359,2.359,0,0,0,.622,1.6,8.866,8.866,0,0,1,4.1-1.008,8.855,8.855,0,0,1,4.1,1.008,2.369,2.369,0,0,0,.62-1.6l1.183-24.8a2.365,2.365,0,0,0-2.363-2.361Z" transform="translate(3767 8638)"/></g></svg>