<svg xmlns="http://www.w3.org/2000/svg" xmlns:xlink="http://www.w3.org/1999/xlink" width="100" height="100" viewBox="0 0 100 100"><defs><clipPath id="b"><rect width="100" height="100"/></clipPath></defs><g id="a" clip-path="url(#b)"><path d="M-4887.922-115.694a7.812,7.812,0,0,1,7.811-7.811,7.81,7.81,0,0,1,7.81,7.811,7.81,7.81,0,0,1-7.81,7.811A7.812,7.812,0,0,1-4887.922-115.694Zm13.236-10.384a11.726,11.726,0,0,0-5.427-1.33,11.736,11.736,0,0,0-5.425,1.33,3.119,3.119,0,0,1-.822-2.111l-1.562-32.8a3.127,3.127,0,0,1,3.124-3.124h9.372a3.127,3.127,0,0,1,3.125,3.124l-1.563,32.8a3.12,3.12,0,0,1-.82,2.111Z" transform="translate(4930 186)" opacity="0.5"/><path d="M-139.462,96.071a49.837,49.837,0,0,1-15.893-10.715,49.827,49.827,0,0,1-10.715-15.893A49.682,49.682,0,0,1-170,50a49.687,49.687,0,0,1,3.929-19.462,49.827,49.827,0,0,1,10.715-15.893A49.827,49.827,0,0,1-139.462,3.929,49.687,49.687,0,0,1-120,0a49.69,49.69,0,0,1,19.463,3.929A49.833,49.833,0,0,1-84.645,14.645,49.827,49.827,0,0,1-73.93,30.538,49.687,49.687,0,0,1-70,50,49.682,49.682,0,0,1-73.93,69.462,49.827,49.827,0,0,1-84.645,85.355a49.833,49.833,0,0,1-15.892,10.715A49.69,49.69,0,0,1-120,100,49.687,49.687,0,0,1-139.462,96.071ZM-164,50a44.05,44.05,0,0,0,44,44A44.049,44.049,0,0,0-76,50,44.05,44.05,0,0,0-120,6,44.05,44.05,0,0,0-164,50Z" transform="translate(170)"/></g></svg>