<svg xmlns="http://www.w3.org/2000/svg" xmlns:xlink="http://www.w3.org/1999/xlink" width="100" height="100" viewBox="0 0 100 100"><defs><clipPath id="b"><rect width="100" height="100"/></clipPath></defs><g id="a" clip-path="url(#b)"><path d="M-7425-485.144a61.554,61.554,0,0,1-35.741-11.428c-8.662-6.242-14.259-14.093-14.259-20,0-6.128,5.188-13.979,13.217-20a55.186,55.186,0,0,1,15.715-8.125A66.514,66.514,0,0,1-7425-548a66.27,66.27,0,0,1,21.069,3.318,55.234,55.234,0,0,1,15.713,8.15c8.029,6.033,13.218,13.868,13.218,19.96,0,5.87-5.6,13.7-14.26,19.96A61.505,61.505,0,0,1-7425-485.144Zm0-57.142a25.744,25.744,0,0,0-25.715,25.714A25.744,25.744,0,0,0-7425-490.857a25.743,25.743,0,0,0,25.714-25.714A25.743,25.743,0,0,0-7425-542.286Z" transform="translate(7475 566.999)"/><path d="M-7460.857-511.715a17.026,17.026,0,0,1-12.12-5.021A17.024,17.024,0,0,1-7478-528.856a17.179,17.179,0,0,1,.609-4.544,8.5,8.5,0,0,0,5.1,1.685,8.582,8.582,0,0,0,8.574-8.571,8.5,8.5,0,0,0-1.688-5.106,17.194,17.194,0,0,1,4.544-.609,17.027,17.027,0,0,1,12.12,5.021,17.027,17.027,0,0,1,5.021,12.123,17.023,17.023,0,0,1-5.021,12.121A17.027,17.027,0,0,1-7460.857-511.715Z" transform="translate(7510.858 579.284)" opacity="0.5"/></g></svg>