<svg xmlns="http://www.w3.org/2000/svg" xmlns:xlink="http://www.w3.org/1999/xlink" width="100" height="100" viewBox="0 0 100 100"><defs><clipPath id="b"><rect width="100" height="100"/></clipPath></defs><g id="a" clip-path="url(#b)"><path d="M-3520.529-16187.236v-17.646h-23.528v17.646h-23.528v-47.057c0-1.605,4.13-9.434,5.879-11.767,1.8-2.395,8.96-10.079,11.766-11.762,2.933-1.761,12.473-5.884,17.645-5.884,2.913,0,6.835,1.214,9.613,2.231a52.876,52.876,0,0,1,8.036,3.652c3.244,1.944,10.087,8.972,11.762,11.762a41.456,41.456,0,0,1,5.883,17.649c.833,8.306.09,37.8,0,41.133v.041Zm-20.472-35h18v-18h-18Zm-56,35V-16266a12.916,12.916,0,0,1,3.808-9.192A12.916,12.916,0,0,1-3584-16279h3.411a12.916,12.916,0,0,1,9.192,3.808,12.916,12.916,0,0,1,3.808,9.192c.012.2.985,19.709,0,22.115-.8,1.961-2.3,4.764-3.191,6.438l0,.012c-.208.393-.392.731-.515.969-.629,1.214-.008,48.748,0,49.23Z" transform="translate(3597 16283.001)"/></g></svg>