<svg xmlns="http://www.w3.org/2000/svg" xmlns:xlink="http://www.w3.org/1999/xlink" width="100" height="100" viewBox="0 0 100 100"><defs><clipPath id="b"><rect width="100" height="100"/></clipPath></defs><g id="a" clip-path="url(#b)"><path d="M-9510-1176a10.014,10.014,0,0,1-10-10v-80a10.013,10.013,0,0,1,10-10h33.332a7.415,7.415,0,0,1,5.287,2.191l15.857,15.859a7.428,7.428,0,0,1,2.19,5.28V-1186a10.012,10.012,0,0,1-10,10Zm-4-89v78a5.007,5.007,0,0,0,5,5h45a5.005,5.005,0,0,0,5-5v-65.66h-15.647a2.024,2.024,0,0,1-2.023-2.021V-1270H-9509A5.007,5.007,0,0,0-9514-1265Zm30.878,76.3h0Zm-7.053,0v-23.4h-5.9a2.215,2.215,0,0,1-1.558-3.777l9.447-9.48a2.194,2.194,0,0,1,1.558-.645,2.2,2.2,0,0,1,1.558.645l9.444,9.48a2.172,2.172,0,0,1,.649,1.548,2.207,2.207,0,0,1-2.207,2.229h-5.937v23.4Zm0,0Z" transform="translate(9537 1276)"/></g></svg>