<svg xmlns="http://www.w3.org/2000/svg" xmlns:xlink="http://www.w3.org/1999/xlink" width="100" height="100" viewBox="0 0 100 100"><defs><clipPath id="b"><rect width="100" height="100"/></clipPath></defs><g id="a" clip-path="url(#b)"><path d="M-7470-1548a10.012,10.012,0,0,1-10-10v-80a10.012,10.012,0,0,1,10-10h33.334a7.424,7.424,0,0,1,5.288,2.191l15.855,15.859a7.425,7.425,0,0,1,2.19,5.281V-1558a10.011,10.011,0,0,1-10,10Zm-4-89v78a5.007,5.007,0,0,0,5,5h45a5.007,5.007,0,0,0,5-5v-65.66h-15.651a2.023,2.023,0,0,1-2.021-2.02V-1642H-7469A5.007,5.007,0,0,0-7474-1637Z" transform="translate(7497 1648)"/><path d="M-4218.66-1914.16v0a10.133,10.133,0,0,0,5.2-7.23,10.005,10.005,0,0,1-2.1,4.682A10.02,10.02,0,0,1-4218.66-1914.16Zm-33.483-45.559h-9.121a2.738,2.738,0,0,1-2.734-2.736v-15.5h7.3v-3.647l-7.3,0v-3.646h7.294v-3.648h-7.3v-3.649h7.3v-3.646l-7.3,0v-3.647h7.294v-3.646h-7.3v-3.5l7.3,0v3.506h7.294v3.646l-7.294,0v3.647h7.294v3.648h-7.294v3.649h7.294v3.648l-7.294,0v3.646h7.294v3.649h-7.294v3.648h4.56a2.739,2.739,0,0,1,2.735,2.737v9.118A2.739,2.739,0,0,1-4252.144-1959.719Zm-8.208-7.295v3.647h7.294v-3.647Z" transform="translate(4296.999 2012.999)" opacity="0.5"/></g></svg>