<svg xmlns="http://www.w3.org/2000/svg" xmlns:xlink="http://www.w3.org/1999/xlink" width="100" height="100" viewBox="0 0 100 100"><defs><clipPath id="b"><rect width="100" height="100"/></clipPath></defs><g id="a" clip-path="url(#b)"><path d="M-9000-1176a10.013,10.013,0,0,1-10-10v-80a10.012,10.012,0,0,1,10-10h33.333a7.413,7.413,0,0,1,5.286,2.191l15.855,15.858a7.426,7.426,0,0,1,2.191,5.282V-1186a10.011,10.011,0,0,1-10,10Zm-4-89v78a5.009,5.009,0,0,0,5,5h45a5.006,5.006,0,0,0,5-5v-65.659h-15.647a2.022,2.022,0,0,1-2.021-2.021V-1270H-8999A5.008,5.008,0,0,0-9004-1265Zm9,70.667v-27.89l21.239-3.779v35.343Zm16.036-6.6-3.937-7.451,3.821-7.306-3.209.2-2.317,5.522h-.041l-2.051-5.282-3.106.163,3.308,6.75-3.613,6.752,3.046.206,2.279-5.425h.036c.12.274.527,1.23,1.2,2.874s1.059,2.576,1.138,2.795v0Zm7.231,6.035v-2.46h3.555v-3.369h-3.555v-1.341h3.555v-3.351h-3.555v-1.339h3.555v-3.344h-3.555v-1.156h3.555v-3.536h-3.555v-1.124h3.555v-3.532h-3.555v-2.232h12.062a1.675,1.675,0,0,1,.477.061c.127.041.192.156.192.348v24.747a3.287,3.287,0,0,1-.192.954c-.129.391-.287.615-.477.674Zm4.71-2.463h5.786v-3.367h-5.786Zm0-4.708h5.786v-3.351h-5.786Zm0-4.692h5.786v-3.328h-5.786Zm0-4.5h5.786v-3.53h-5.786Zm0-4.678h5.786v-3.51h-5.786Zm-27.978-6.3v.011Z" transform="translate(9027 1276)"/></g></svg>