<svg xmlns="http://www.w3.org/2000/svg" xmlns:xlink="http://www.w3.org/1999/xlink" width="100" height="100" viewBox="0 0 100 100"><defs><clipPath id="b"><rect width="100" height="100"/></clipPath></defs><g id="a" clip-path="url(#b)"><path d="M-10143.33-1358H-10190a10.01,10.01,0,0,1-10-10v-80a10.011,10.011,0,0,1,10-10h33.332a7.423,7.423,0,0,1,5.286,2.189l15.858,15.861a7.426,7.426,0,0,1,2.188,5.281V-1368A10.008,10.008,0,0,1-10143.33-1358Zm-36.9-25.481c-3.314,0-7.746.6-10.042,3.471-1.888,2.363-3.233,7.8-3.725,10.024v.986a5.008,5.008,0,0,0,5,5h45a5.007,5.007,0,0,0,5-5v-.719c-.5-2.275-1.882-7.832-3.848-10.291-2.3-2.869-6.729-3.471-10.043-3.471a27.371,27.371,0,0,0-4.183.31c-.226.129-5.589,3.161-9.486,3.161-3.938,0-9.434-3.13-9.487-3.161A28.111,28.111,0,0,0-10180.233-1383.483Zm13.673-29.728a12.575,12.575,0,0,0-8.944,3.7,12.573,12.573,0,0,0-3.7,8.944,12.561,12.561,0,0,0,3.7,8.942,12.573,12.573,0,0,0,8.944,3.7,12.563,12.563,0,0,0,8.941-3.7,12.561,12.561,0,0,0,3.7-8.942,12.573,12.573,0,0,0-3.7-8.944A12.565,12.565,0,0,0-10166.561-1413.211Zm11.473-38.124a1.568,1.568,0,0,0-1.584,1.574v13.529a1.572,1.572,0,0,0,1.569,1.572h13.528a1.555,1.555,0,0,0,1.454-.97,1.55,1.55,0,0,0-.343-1.715l-13.526-13.526A1.538,1.538,0,0,0-10155.088-1451.335Z" transform="translate(10217 1458)"/></g></svg>