<svg xmlns="http://www.w3.org/2000/svg" xmlns:xlink="http://www.w3.org/1999/xlink" width="100" height="100" viewBox="0 0 100 100"><defs><clipPath id="b"><rect width="100" height="100"/></clipPath></defs><g id="a" clip-path="url(#b)"><path d="M-9463.331-1358H-9510a10.011,10.011,0,0,1-10-10v-80a10.011,10.011,0,0,1,10-10h33.332a7.429,7.429,0,0,1,5.287,2.189l15.857,15.862a7.435,7.435,0,0,1,2.19,5.28V-1368A10.01,10.01,0,0,1-9463.331-1358Zm-28.519-12.7h0Zm5.22-37.305a2.189,2.189,0,0,0-1.558.647l-9.447,9.48a2.184,2.184,0,0,0-.474,2.417,2.168,2.168,0,0,0,2.031,1.36h5.9v23.4h7.053v-23.4l5.938,0a2.2,2.2,0,0,0,2.207-2.227,2.186,2.186,0,0,0-.649-1.548l-9.444-9.48A2.192,2.192,0,0,0-9486.63-1408Zm11.542-43.333a1.568,1.568,0,0,0-1.584,1.574v13.53a1.571,1.571,0,0,0,1.569,1.57h13.53a1.554,1.554,0,0,0,1.453-.968,1.555,1.555,0,0,0-.342-1.715l-13.528-13.528A1.536,1.536,0,0,0-9475.088-1451.335Z" transform="translate(9537 1458)"/></g></svg>