<svg xmlns="http://www.w3.org/2000/svg" xmlns:xlink="http://www.w3.org/1999/xlink" width="100" height="100" viewBox="0 0 100 100"><defs><clipPath id="b"><rect width="100" height="100"/></clipPath></defs><g id="a" clip-path="url(#b)"><path d="M-7470-1548a10.012,10.012,0,0,1-10-10v-80a10.012,10.012,0,0,1,10-10h33.334a7.424,7.424,0,0,1,5.288,2.191l15.855,15.859a7.425,7.425,0,0,1,2.19,5.281V-1558a10.011,10.011,0,0,1-10,10Zm-4-89v78a5.007,5.007,0,0,0,5,5h45a5.007,5.007,0,0,0,5-5v-65.66h-15.651a2.023,2.023,0,0,1-2.021-2.02V-1642H-7469A5.007,5.007,0,0,0-7474-1637Z" transform="translate(7497 1648)"/><path d="M-9483.123-1188.7h0Zm-7.053,0v-23.4h-5.9a2.215,2.215,0,0,1-1.558-3.777l9.447-9.48a2.194,2.194,0,0,1,1.558-.645,2.2,2.2,0,0,1,1.558.645l9.444,9.48a2.172,2.172,0,0,1,.649,1.548,2.207,2.207,0,0,1-2.207,2.229h-5.937v23.4Zm0,0Z" transform="translate(9537 1276)" opacity="0.5"/></g></svg>