<svg xmlns="http://www.w3.org/2000/svg" xmlns:xlink="http://www.w3.org/1999/xlink" width="100" height="100" viewBox="0 0 100 100"><defs><clipPath id="b"><rect width="100" height="100"/></clipPath></defs><g id="a" clip-path="url(#b)"><path d="M-8093.327-1358h-61.111a5.561,5.561,0,0,1-5.556-5.554V-1448H-8160v-4.446a5.562,5.562,0,0,1,5.558-5.554h40.555a2.78,2.78,0,0,1,2.777,2.777v3.889h.006V-1438a3.336,3.336,0,0,0,3.332,3.332h17.219a2.78,2.78,0,0,1,2.777,2.777v10.559l0-11.693,0,69.471A5.56,5.56,0,0,1-8093.327-1358Zm-35.713-44.265v19.387a4.491,4.491,0,0,0,4.485,4.487,4.492,4.492,0,0,0,4.487-4.487v-19.334l.039-.014c.072-.026.146-.054.223-.08l5.152,5.155a4.568,4.568,0,0,0,3.251,1.347,4.568,4.568,0,0,0,3.251-1.347,4.566,4.566,0,0,0,1.346-3.25,4.566,4.566,0,0,0-1.346-3.25l-13-13a4.563,4.563,0,0,0-3.25-1.347,4.563,4.563,0,0,0-3.25,1.347l-13,13A4.564,4.564,0,0,0-8142-1400.4a4.568,4.568,0,0,0,1.348,3.252,4.562,4.562,0,0,0,3.249,1.347,4.562,4.562,0,0,0,3.249-1.347l5.114-5.112Z" transform="translate(8174 1458)"/><path d="M-7472.561-1265.565a2,2,0,0,1-2-2v-17.214a2,2,0,0,1,3.415-1.414l17.212,17.212a2,2,0,0,1-1.414,3.415Z" transform="translate(7539.561 1286.782)" opacity="0.5"/></g></svg>