<svg xmlns="http://www.w3.org/2000/svg" xmlns:xlink="http://www.w3.org/1999/xlink" width="100" height="100" viewBox="0 0 100 100"><defs><clipPath id="b"><rect width="100" height="100"/></clipPath></defs><g id="a" clip-path="url(#b)"><path d="M-10190-1176a10.015,10.015,0,0,1-10-10v-80a10.011,10.011,0,0,1,10-10h33.332a7.4,7.4,0,0,1,5.286,2.191l15.858,15.858a7.413,7.413,0,0,1,2.188,5.281V-1186a10.011,10.011,0,0,1-10,10Zm46-6a5,5,0,0,0,5-4.937A5.007,5.007,0,0,1-10144-1182Zm-45,0a5.01,5.01,0,0,1-5-4.937A5.008,5.008,0,0,0-10189-1182Zm-5-83v77.011c.491-2.224,1.835-7.659,3.725-10.022,2.3-2.87,6.728-3.474,10.042-3.474a27.8,27.8,0,0,1,4.186.312c.057.031,5.6,3.161,9.487,3.161s9.259-3.033,9.486-3.161a27.58,27.58,0,0,1,4.183-.312c3.315,0,7.746.6,10.043,3.474,1.963,2.452,3.346,8.015,3.848,10.291v-64.941h-15.648a2.023,2.023,0,0,1-2.022-2.02V-1270H-10189A5.007,5.007,0,0,0-10194-1265Zm18.5,55.38a12.564,12.564,0,0,1-3.7-8.942,12.566,12.566,0,0,1,3.7-8.944,12.571,12.571,0,0,1,8.944-3.7,12.561,12.561,0,0,1,8.941,3.7,12.566,12.566,0,0,1,3.7,8.944,12.564,12.564,0,0,1-3.7,8.942,12.561,12.561,0,0,1-8.941,3.7A12.571,12.571,0,0,1-10175.5-1209.62Z" transform="translate(10217 1276)"/></g></svg>