<svg xmlns="http://www.w3.org/2000/svg" xmlns:xlink="http://www.w3.org/1999/xlink" width="100" height="100" viewBox="0 0 100 100"><defs><clipPath id="b"><rect width="100" height="100"/></clipPath></defs><g id="a" clip-path="url(#b)"><path d="M-7753.326-1176h-61.11a5.563,5.563,0,0,1-5.556-5.556V-1266H-7820v-4.445a5.563,5.563,0,0,1,5.558-5.556h40.554a2.781,2.781,0,0,1,2.779,2.777v3.892l0,13.332a3.336,3.336,0,0,0,3.332,3.332h17.218a2.78,2.78,0,0,1,2.777,2.777v10.559l0-11.693,0,69.469A5.561,5.561,0,0,1-7753.326-1176Zm-50.063-49.335a2.613,2.613,0,0,0-2.61,2.61v15.669a2.614,2.614,0,0,0,2.61,2.612h11.491l7.438,7.083a2.043,2.043,0,0,0,1.427.581,2.08,2.08,0,0,0,2.106-2.094v-32.033a2.079,2.079,0,0,0-2.1-2.093,2.04,2.04,0,0,0-1.428.58l-7.438,7.085Zm31.653-3.751a2.152,2.152,0,0,0-1.83,1.011,2.2,2.2,0,0,0,.669,3.01,12.317,12.317,0,0,1,5.727,10.413,12.312,12.312,0,0,1-5.727,10.413,2.2,2.2,0,0,0-.669,3.01,2.193,2.193,0,0,0,1.841,1.015,2.133,2.133,0,0,0,1.148-.341,16.661,16.661,0,0,0,7.738-14.1,16.654,16.654,0,0,0-7.738-14.1A2.147,2.147,0,0,0-7771.736-1229.086Zm-4.933,7.234a2.172,2.172,0,0,0-1.9,1.12,2.17,2.17,0,0,0,.852,2.942,3.6,3.6,0,0,1,1.888,3.14,3.592,3.592,0,0,1-1.888,3.14,2.169,2.169,0,0,0-.852,2.942,2.163,2.163,0,0,0,1.9,1.123,2.159,2.159,0,0,0,1.042-.269,7.936,7.936,0,0,0,4.129-6.936,7.933,7.933,0,0,0-4.131-6.936A2.167,2.167,0,0,0-7776.669-1221.853Z" transform="translate(7834 1276)"/><path d="M-7472.561-1265.565a2,2,0,0,1-2-2v-17.214a2,2,0,0,1,3.415-1.414l17.212,17.212a2,2,0,0,1-1.414,3.415Z" transform="translate(7539.561 1286.782)" opacity="0.5"/></g></svg>