<svg xmlns="http://www.w3.org/2000/svg" xmlns:xlink="http://www.w3.org/1999/xlink" width="100" height="100" viewBox="0 0 100 100"><defs><clipPath id="b"><rect width="100" height="100"/></clipPath></defs><g id="a" clip-path="url(#b)"><path d="M-8613.334-1358H-8660a10.012,10.012,0,0,1-10-10v-80a10.012,10.012,0,0,1,10-10h33.335a7.433,7.433,0,0,1,5.287,2.191l15.854,15.86a7.426,7.426,0,0,1,2.193,5.281V-1368A10.013,10.013,0,0,1-8613.334-1358ZM-8655-1378a3,3,0,0,0-3,3,3.006,3.006,0,0,0,3,3h37a3,3,0,0,0,3-3,3,3,0,0,0-3-3Zm0-10a3,3,0,0,0-3,3,3,3,0,0,0,3,3h37a3,3,0,0,0,3-3,3,3,0,0,0-3-3Zm16-12.535V-1395a2,2,0,0,0,2,2,2,2,0,0,0,2-2v-5.533l4.791,2.766a2,2,0,0,0,1,.268,2.01,2.01,0,0,0,1.734-1,1.984,1.984,0,0,0,.2-1.518,1.985,1.985,0,0,0-.932-1.215L-8633-1404l4.793-2.768a1.989,1.989,0,0,0,.933-1.214,1.985,1.985,0,0,0-.2-1.516,2.011,2.011,0,0,0-1.735-1,2,2,0,0,0-1,.268l-4.791,2.766V-1413a2,2,0,0,0-2-2,2,2,0,0,0-2,2v5.535l-4.794-2.768a2,2,0,0,0-1-.268,2.009,2.009,0,0,0-1.734,1,1.98,1.98,0,0,0-.2,1.516,1.989,1.989,0,0,0,.933,1.214L-8641-1404l-4.792,2.768a2,2,0,0,0-.732,2.733,2.01,2.01,0,0,0,1.734,1,2,2,0,0,0,1-.268l4.792-2.767Zm13.912-50.8a1.564,1.564,0,0,0-1.584,1.573v13.527a1.573,1.573,0,0,0,1.571,1.571h13.529a1.545,1.545,0,0,0,1.449-.97,1.549,1.549,0,0,0-.342-1.715l-13.525-13.525A1.541,1.541,0,0,0-8625.088-1451.332Z" transform="translate(8687 1458)"/></g></svg>