<svg xmlns="http://www.w3.org/2000/svg" xmlns:xlink="http://www.w3.org/1999/xlink" width="100" height="100" viewBox="0 0 100 100"><defs><clipPath id="b"><rect width="100" height="100"/></clipPath></defs><g id="a" clip-path="url(#b)"><path d="M-7470-1548a10.012,10.012,0,0,1-10-10v-80a10.012,10.012,0,0,1,10-10h33.334a7.424,7.424,0,0,1,5.288,2.191l15.855,15.859a7.425,7.425,0,0,1,2.19,5.281V-1558a10.011,10.011,0,0,1-10,10Zm-4-89v78a5.007,5.007,0,0,0,5,5h45a5.007,5.007,0,0,0,5-5v-65.66h-15.651a2.023,2.023,0,0,1-2.021-2.02V-1642H-7469A5.007,5.007,0,0,0-7474-1637Z" transform="translate(7497 1648)"/><path d="M-8995-1194.331v-27.89l21.239-3.779v35.343Zm16.036-6.6-3.937-7.451,3.821-7.306-3.209.2-2.317,5.522h-.041l-2.051-5.282-3.106.163,3.308,6.75-3.613,6.752,3.046.206,2.279-5.425h.036c.12.274.527,1.23,1.2,2.874s1.059,2.576,1.138,2.795v0Zm7.231,6.035v-2.46h3.555v-3.369h-3.555v-1.341h3.555v-3.351h-3.555v-1.339h3.555v-3.344h-3.555v-1.156h3.555v-3.536h-3.555v-1.124h3.555v-3.532h-3.555v-2.232h12.062a1.675,1.675,0,0,1,.477.061c.127.041.192.156.192.348v24.747a3.287,3.287,0,0,1-.192.954c-.129.391-.287.615-.477.674Zm4.71-2.463h5.786v-3.367h-5.786Zm0-4.708h5.786v-3.351h-5.786Zm0-4.692h5.786v-3.328h-5.786Zm0-4.5h5.786v-3.53h-5.786Zm0-4.678h5.786v-3.51h-5.786Zm-27.978-6.3v.011Z" transform="translate(9027 1276)" opacity="0.5"/></g></svg>