<svg xmlns="http://www.w3.org/2000/svg" xmlns:xlink="http://www.w3.org/1999/xlink" width="100" height="100" viewBox="0 0 100 100"><defs><clipPath id="b"><rect width="100" height="100"/></clipPath></defs><g id="a" clip-path="url(#b)"><path d="M-7763.332-1358H-7810a10.012,10.012,0,0,1-10-10v-80a10.012,10.012,0,0,1,10-10h33.334a7.443,7.443,0,0,1,5.287,2.19l15.854,15.859a7.426,7.426,0,0,1,2.192,5.281V-1368A10.011,10.011,0,0,1-7763.332-1358Zm-27.641-30.07c-5.233,0-9.491,3.311-9.491,7.381s4.257,7.383,9.491,7.383,9.493-3.312,9.493-7.383v-22.779l5.75-2.479a5.889,5.889,0,0,0,1.936-2.869,7.387,7.387,0,0,0,.63-3.962,1.358,1.358,0,0,0-1.425-1.187,4.6,4.6,0,0,0-1.917.557l-10.028,3.8c-1.16.3-2.33,1.132-2.33,2.333v19.388A12.154,12.154,0,0,0-7790.972-1388.071Zm15.883-63.261a1.564,1.564,0,0,0-1.583,1.574v13.528a1.572,1.572,0,0,0,1.57,1.57h13.53a1.551,1.551,0,0,0,1.453-.97,1.552,1.552,0,0,0-.342-1.715l-13.528-13.526A1.527,1.527,0,0,0-7775.089-1451.332Z" transform="translate(7837 1458)"/></g></svg>