<svg xmlns="http://www.w3.org/2000/svg" xmlns:xlink="http://www.w3.org/1999/xlink" width="100" height="100" viewBox="0 0 100 100"><defs><clipPath id="b"><rect width="100" height="100"/></clipPath></defs><g id="a" clip-path="url(#b)"><path d="M-8320-1176a10.012,10.012,0,0,1-10-10v-80a10.012,10.012,0,0,1,10-10h33.333a7.415,7.415,0,0,1,5.287,2.191l15.855,15.857a7.416,7.416,0,0,1,2.19,5.283V-1186a10.011,10.011,0,0,1-10,10Zm-4-89v60.105c9.251-5.148,12.186-10.176,12.885-10.58.8.464,5.289,6.811,13.676,7.812,11.848-3.472,13.516-14.042,15.13-14.475,1.363.365,5.945,6.443,13.311,11.318v-41.843h-15.65a2.023,2.023,0,0,1-2.021-2.02V-1270H-8319A5.006,5.006,0,0,0-8324-1265Zm9,33.5a5.5,5.5,0,0,1,5.5-5.5,5.5,5.5,0,0,1,5.5,5.5,5.5,5.5,0,0,1-5.5,5.5A5.5,5.5,0,0,1-8315-1231.5Z" transform="translate(8347 1276)"/></g></svg>