<svg xmlns="http://www.w3.org/2000/svg" xmlns:xlink="http://www.w3.org/1999/xlink" width="100" height="100" viewBox="0 0 100 100"><defs><clipPath id="b"><rect width="100" height="100"/></clipPath></defs><g id="a" clip-path="url(#b)"><path d="M-7470-1548a10.012,10.012,0,0,1-10-10v-80a10.012,10.012,0,0,1,10-10h33.334a7.424,7.424,0,0,1,5.288,2.191l15.855,15.859a7.425,7.425,0,0,1,2.19,5.281V-1558a10.011,10.011,0,0,1-10,10Zm-4-89v78a5.007,5.007,0,0,0,5,5h45a5.007,5.007,0,0,0,5-5v-65.66h-15.651a2.023,2.023,0,0,1-2.021-2.02V-1642H-7469A5.007,5.007,0,0,0-7474-1637Z" transform="translate(7497 1648)"/><path d="M-3714-1919h-45a5.007,5.007,0,0,1-5-5v-17.893a40.56,40.56,0,0,0,12.1-9.738l.005-.006a5.085,5.085,0,0,1,.784-.836,5.868,5.868,0,0,1,.792.755c1.8,1.867,6.005,6.236,12.884,7.057,8.636-2.531,11.868-8.841,13.6-12.231.656-1.28,1.089-2.126,1.526-2.243.531.142,1.527,1.128,3.034,2.619a67.494,67.494,0,0,0,10.277,8.7V-1924A5.007,5.007,0,0,1-3714-1919Zm-35.5-44a5.506,5.506,0,0,1-5.5-5.5,5.506,5.506,0,0,1,5.5-5.5,5.507,5.507,0,0,1,5.5,5.5A5.506,5.506,0,0,1-3749.5-1963Z" transform="translate(3786.999 2013)" opacity="0.5"/></g></svg>