<svg xmlns="http://www.w3.org/2000/svg" xmlns:xlink="http://www.w3.org/1999/xlink" width="100" height="100" viewBox="0 0 100 100"><defs><clipPath id="b"><rect width="100" height="100"/></clipPath></defs><g id="a" clip-path="url(#b)"><path d="M-8150-1176a10.013,10.013,0,0,1-10-10v-80a10.011,10.011,0,0,1,10-10h33.333a7.419,7.419,0,0,1,5.288,2.189l15.857,15.859a7.424,7.424,0,0,1,2.189,5.281V-1186a10.01,10.01,0,0,1-10,10Zm-4-89v78a5.008,5.008,0,0,0,5,5h45a5.008,5.008,0,0,0,5-5v-65.659h-15.65a2.023,2.023,0,0,1-2.021-2.021V-1270H-8149A5.008,5.008,0,0,0-8154-1265Zm29.756,67.627a2.572,2.572,0,0,1,0-3.639l9.1-9.1-9.1-9.095a2.572,2.572,0,0,1,0-3.639,2.567,2.567,0,0,1,1.818-.754,2.572,2.572,0,0,1,1.821.754l10.915,10.915a2.575,2.575,0,0,1,0,3.639l-10.915,10.915a2.567,2.567,0,0,1-1.818.754A2.572,2.572,0,0,1-8124.246-1197.373Zm-9.084,0-10.915-10.915a2.571,2.571,0,0,1,0-3.639l10.915-10.915a2.558,2.558,0,0,1,1.818-.754,2.563,2.563,0,0,1,1.821.754,2.576,2.576,0,0,1,0,3.639l-9.1,9.095,9.1,9.1a2.576,2.576,0,0,1,0,3.639,2.567,2.567,0,0,1-1.818.754A2.572,2.572,0,0,1-8133.33-1197.373Z" transform="translate(8177 1276)"/></g></svg>