<svg xmlns="http://www.w3.org/2000/svg" xmlns:xlink="http://www.w3.org/1999/xlink" width="100" height="100" viewBox="0 0 100 100"><defs><clipPath id="b"><rect width="100" height="100"/></clipPath></defs><g id="a" clip-path="url(#b)"><path d="M-9803.331-1358H-9850a10.011,10.011,0,0,1-10-10v-80a10.012,10.012,0,0,1,10-10h33.332a7.417,7.417,0,0,1,5.285,2.19l15.857,15.859a7.43,7.43,0,0,1,2.189,5.283V-1368A10.008,10.008,0,0,1-9803.331-1358Zm-25.98-49.5a3.324,3.324,0,0,0-3.338,2.193c-.731,2.679-.058,6.423,1.181,11.219a136.872,136.872,0,0,1-5.944,12.5h0a.013.013,0,0,0-.011.005l0,0-.01,0c-1.825.936-7.836,4.25-8.532,7.572a2.694,2.694,0,0,0,.587,2.339,4.526,4.526,0,0,0,3.135,1.455c2.619,0,5.2-2.609,8.9-9,.568-.188,1.159-.387,1.729-.58l.124-.042.3-.1.013,0,.014,0a62.514,62.514,0,0,1,9.327-2.646,22.211,22.211,0,0,0,9.319,2.838,3.5,3.5,0,0,0,3.521-2.135,4.083,4.083,0,0,0-.651-4.187c-.96-.938-2.894-1.413-5.748-1.413a39.2,39.2,0,0,0-4.972.366,14.548,14.548,0,0,1-6.223-7.842l.042-.166.012-.048c.646-2.648,1.619-6.645.852-9.14A3.537,3.537,0,0,0-9829.312-1407.505Zm14.222-43.829a1.566,1.566,0,0,0-1.581,1.574v13.528a1.571,1.571,0,0,0,1.568,1.571h13.528a1.554,1.554,0,0,0,1.455-.968,1.551,1.551,0,0,0-.344-1.715l-13.526-13.528A1.534,1.534,0,0,0-9815.09-1451.334Zm-27.686,78.247c-.007,0-.015-.005-.015-.01.719-1.95,3.188-4.155,4.514-5.34.271-.241.458-.414.569-.517C-9840.693-1374.168-9842.557-1373.087-9842.775-1373.087Zm9.56-9.059v0a65.172,65.172,0,0,0,4.134-9.134,18.891,18.891,0,0,0,5.023,5.946,37.96,37.96,0,0,0-7.133,2.373l-.012,0-.015.006c-.693.286-1.349.557-2,.8Zm21.112-.619a14.936,14.936,0,0,1-5.335-1.524c.754-.055,1.456-.082,2.086-.082,2.93,0,4.143.565,4.291,1.049a.3.3,0,0,1-.141.346C-9811.238-1382.94-9811.447-1382.765-9812.1-1382.765Zm-16.728-15.392v0c-.708-2.268-.7-6.323-.36-6.786a.09.09,0,0,1,.071-.045.56.56,0,0,1,.466.337c.71,1.208.493,5.291-.175,6.494Z" transform="translate(9877 1458)"/></g></svg>