<svg xmlns="http://www.w3.org/2000/svg" xmlns:xlink="http://www.w3.org/1999/xlink" width="100" height="100" viewBox="0 0 100 100"><defs><clipPath id="b"><rect width="100" height="100"/></clipPath></defs><g id="a" clip-path="url(#b)"><path d="M3.563,100a5.56,5.56,0,0,1-5.555-5.555V10H-2V5.555A5.556,5.556,0,0,1,3.558,0H44.114a2.778,2.778,0,0,1,2.777,2.777v3.89h0V20a3.336,3.336,0,0,0,3.332,3.332H67.446a2.778,2.778,0,0,1,2.777,2.777V36.667h0V24.975l0,69.47A5.562,5.562,0,0,1,64.674,100Z" transform="translate(15.999 0)"/><path d="M-7472.561-1265.565a2,2,0,0,1-2-2v-17.214a2,2,0,0,1,3.415-1.414l17.212,17.212a2,2,0,0,1-1.414,3.415Z" transform="translate(7539.561 1286.782)" opacity="0.5"/></g></svg>