<svg xmlns="http://www.w3.org/2000/svg" xmlns:xlink="http://www.w3.org/1999/xlink" width="100" height="100" viewBox="0 0 100 100"><defs><clipPath id="b"><rect width="100" height="100"/></clipPath></defs><g id="a" clip-path="url(#b)"><path d="M-7583.326-1358h-61.11a5.562,5.562,0,0,1-5.556-5.554V-1448H-7650v-4.445a5.563,5.563,0,0,1,5.558-5.556h40.556a2.781,2.781,0,0,1,2.778,2.778v3.89l0,13.332a3.337,3.337,0,0,0,3.333,3.333h17.217a2.78,2.78,0,0,1,2.776,2.778v10.557l0-11.692,0,69.469A5.561,5.561,0,0,1-7583.326-1358Zm-26.714-62-25.96,4.618v34.088l25.96,4.491V-1420Zm2.48,35.014v3h14.739c.231-.068.428-.345.583-.822a4.038,4.038,0,0,0,.236-1.165v-30.248c0-.233-.08-.376-.236-.426a2.012,2.012,0,0,0-.583-.073h-14.739v2.728h4.345v4.316h-4.345v1.375h4.345v4.322h-4.345v1.413h4.345v4.086h-4.345v1.638h4.345v4.1h-4.345v1.638h4.345v4.12Zm12.829,0h-7.073v-4.116h7.073v4.115Zm-21.668-4.366h0l-4.212-.248c-.095-.25-.523-1.3-1.39-3.412s-1.336-3.22-1.465-3.511h-.046l-2.784,6.627-3.723-.251,4.416-8.25-4.043-8.25,3.8-.2,2.507,6.455h.05l2.832-6.748,3.922-.248-4.669,8.927,4.811,9.106Zm21.668-1.388h-7.073v-4.1h7.073v4.1Zm0-5.735h-7.073v-4.068h7.073v4.067Zm0-5.5h-7.073v-4.316h7.073v4.315Zm0-5.719h-7.073v-4.289h7.073v4.288Z" transform="translate(7664 1458)"/><path d="M-7472.561-1265.565a2,2,0,0,1-2-2v-17.214a2,2,0,0,1,3.415-1.414l17.212,17.212a2,2,0,0,1-1.414,3.415Z" transform="translate(7539.561 1286.782)" opacity="0.5"/></g></svg>