<svg xmlns="http://www.w3.org/2000/svg" xmlns:xlink="http://www.w3.org/1999/xlink" width="100" height="100" viewBox="0 0 100 100"><defs><clipPath id="b"><rect width="100" height="100"/></clipPath></defs><g id="a" clip-path="url(#b)"><path d="M-7413.327-1358h-61.111a5.562,5.562,0,0,1-5.555-5.557V-1448H-7480v-4.445a5.563,5.563,0,0,1,5.559-5.555h40.554a2.781,2.781,0,0,1,2.778,2.776v3.892h.006V-1438a3.336,3.336,0,0,0,3.332,3.332h17.218a2.781,2.781,0,0,1,2.776,2.778v10.557l0-11.693,0,69.469A5.562,5.562,0,0,1-7413.327-1358Zm-62.666-86v76.445a5.561,5.561,0,0,0,5.555,5.555h53.111a5.561,5.561,0,0,0,5.555-5.555l0-61.47v7.693l0-6.559a2.78,2.78,0,0,0-2.776-2.776h-17.218A3.336,3.336,0,0,1-7435.1-1434v-13.334h-.006v-3.89a2.78,2.78,0,0,0-2.776-2.776h-32.555a5.563,5.563,0,0,0-5.559,5.555V-1444Z" transform="translate(7494 1458)"/><path d="M-7472.561-1265.565a2,2,0,0,1-2-2v-17.214a2,2,0,0,1,3.415-1.414l17.212,17.212a2,2,0,0,1-1.414,3.415Z" transform="translate(7539.561 1286.782)" opacity="0.5"/></g></svg>