<svg xmlns="http://www.w3.org/2000/svg" xmlns:xlink="http://www.w3.org/1999/xlink" width="100" height="100" viewBox="0 0 100 100"><defs><clipPath id="b"><rect width="100" height="100"/></clipPath></defs><g id="a" clip-path="url(#b)"><path d="M-7923.327-1358h-61.111a5.561,5.561,0,0,1-5.555-5.554V-1448H-7990v-4.446a5.563,5.563,0,0,1,5.559-5.554h40.556a2.78,2.78,0,0,1,2.777,2.777v3.89h0V-1438a3.336,3.336,0,0,0,3.333,3.333h17.217a2.781,2.781,0,0,1,2.779,2.777v10.557l0-11.692,0,69.469A5.561,5.561,0,0,1-7923.327-1358Zm-27.578-61-25.1,4.454v32.9l25.1,4.337V-1419Zm2.308,31.276v4.289h15.661c.63,0,.937-.322.937-.985v-27.468a.822.822,0,0,0-.937-.934h-15.671v5.841a5.494,5.494,0,0,1,3.4-1.079v5.681h5.637a5.658,5.658,0,0,1-1.652,4.02,5.62,5.62,0,0,1-4.012,1.678,5.891,5.891,0,0,1-3.353-1.127v3.9h12.318v1.917h-12.322v2.37h12.312v1.893Zm-16.22-2.16h0l-3.3-.383V-1407.5l5.242-.273c.188-.011.36-.016.523-.016a8.047,8.047,0,0,1,2.348.347,3.944,3.944,0,0,1,2.242,1.691,6.05,6.05,0,0,1,.937,2.942,7.245,7.245,0,0,1-.449,3.092,5.074,5.074,0,0,1-3.086,3.054,11.859,11.859,0,0,1-3.6.537c-.279,0-.566-.009-.854-.026v6.271Zm.048-9.292c.25.015.5.022.736.022s.5-.007.776-.022a3.525,3.525,0,0,0,1.484-.413,2.431,2.431,0,0,0,1.029-1.674,4.636,4.636,0,0,0-.119-2.037v.082a1.763,1.763,0,0,0-.483-.864,2,2,0,0,0-.887-.451,4.8,4.8,0,0,0-1.265-.167l-1.319.026v5.5Zm26.122-4.139h-5.672v-5.727a5.67,5.67,0,0,1,4.01,1.668,5.688,5.688,0,0,1,1.662,4.058Z" transform="translate(8004 1458)"/><path d="M-7472.561-1265.565a2,2,0,0,1-2-2v-17.214a2,2,0,0,1,3.415-1.414l17.212,17.212a2,2,0,0,1-1.414,3.415Z" transform="translate(7539.561 1286.782)" opacity="0.5"/></g></svg>