<svg xmlns="http://www.w3.org/2000/svg" xmlns:xlink="http://www.w3.org/1999/xlink" width="100" height="100" viewBox="0 0 100 100"><defs><clipPath id="b"><rect width="100" height="100"/></clipPath></defs><g id="a" clip-path="url(#b)"><path d="M-7470-1548a10.012,10.012,0,0,1-10-10v-80a10.012,10.012,0,0,1,10-10h33.334a7.424,7.424,0,0,1,5.288,2.191l15.855,15.859a7.425,7.425,0,0,1,2.19,5.281V-1558a10.011,10.011,0,0,1-10,10Zm-4-89v78a5.007,5.007,0,0,0,5,5h45a5.007,5.007,0,0,0,5-5v-65.66h-15.651a2.023,2.023,0,0,1-2.021-2.02V-1642H-7469A5.007,5.007,0,0,0-7474-1637Z" transform="translate(7497 1648)"/><path d="M-9658.188-1189.342l-9.445-9.482a2.214,2.214,0,0,1,1.559-3.777h5.9V-1226h7.053v23.4l5.937,0a2.2,2.2,0,0,1,2.208,2.228,2.162,2.162,0,0,1-.649,1.547l-9.445,9.482a2.189,2.189,0,0,1-1.557.647A2.2,2.2,0,0,1-9658.188-1189.342Zm5.065-36.658h0Zm-7.053,0Z" transform="translate(9707 1276)" opacity="0.5"/></g></svg>