<svg xmlns="http://www.w3.org/2000/svg" xmlns:xlink="http://www.w3.org/1999/xlink" width="100" height="100" viewBox="0 0 100 100"><defs><clipPath id="b"><rect width="100" height="100"/></clipPath></defs><g id="a" clip-path="url(#b)"><path d="M-7593.333-1358H-7640a10.011,10.011,0,0,1-10-10v-80a10.012,10.012,0,0,1,10-10h33.333a7.429,7.429,0,0,1,5.287,2.191l15.856,15.86a7.424,7.424,0,0,1,2.191,5.28V-1368A10.011,10.011,0,0,1-7593.333-1358ZM-7635-1388a3,3,0,0,0-3,3,3,3,0,0,0,3,3h20a3,3,0,0,0,3-3,3,3,0,0,0-3-3Zm0-10a3,3,0,0,0-3,3,3,3,0,0,0,3,3h37a3,3,0,0,0,3-3,3,3,0,0,0-3-3Zm0-10a3,3,0,0,0-3,3,3,3,0,0,0,3,3h37a3,3,0,0,0,3-3,3,3,0,0,0-3-3Zm29.912-43.332a1.564,1.564,0,0,0-1.584,1.574v13.528a1.572,1.572,0,0,0,1.57,1.571h13.53a1.546,1.546,0,0,0,1.451-.97,1.548,1.548,0,0,0-.342-1.714l-13.525-13.526A1.542,1.542,0,0,0-7605.088-1451.333Z" transform="translate(7667 1458)"/></g></svg>