<svg xmlns="http://www.w3.org/2000/svg" xmlns:xlink="http://www.w3.org/1999/xlink" width="100" height="100" viewBox="0 0 100 100"><defs><clipPath id="b"><rect width="100" height="100"/></clipPath></defs><g id="a" clip-path="url(#b)"><path d="M-7470-1548a10.012,10.012,0,0,1-10-10v-80a10.012,10.012,0,0,1,10-10h33.334a7.424,7.424,0,0,1,5.288,2.191l15.855,15.859a7.425,7.425,0,0,1,2.19,5.281V-1558a10.011,10.011,0,0,1-10,10Zm-4-89v78a5.007,5.007,0,0,0,5,5h45a5.007,5.007,0,0,0,5-5v-65.66h-15.651a2.023,2.023,0,0,1-2.021-2.02V-1642H-7469A5.007,5.007,0,0,0-7474-1637Z" transform="translate(7497 1648)"/><path d="M-5584-1919h-45a4.938,4.938,0,0,1-2.274-.548l-.034-.017-.016-.008-.016-.008-.034-.018-.021-.012-.007,0-.018-.01-.04-.022-.007,0a5.036,5.036,0,0,1-2.524-4.06c-.007-.1-.01-.194-.01-.289v-.99c.494-2.23,1.847-7.67,3.726-10.019,2.3-2.872,6.729-3.475,10.042-3.475a27.725,27.725,0,0,1,4.185.313l.011.006c.581.323,5.78,3.156,9.478,3.156,3.847,0,9.258-3.033,9.486-3.162a27.454,27.454,0,0,1,4.183-.313c3.313,0,7.745.6,10.042,3.475,1.965,2.455,3.346,8.014,3.849,10.29v.719a4.937,4.937,0,0,1-1.058,3.074,4.966,4.966,0,0,0,1.049-2.813,5.013,5.013,0,0,1-2.318,3.963l-.039.025-.007,0-.015.009-.033.02-.024.015-.016.009-.008,0-.041.024-.007,0A4.989,4.989,0,0,1-5584-1919Zm-22.561-23.916a12.577,12.577,0,0,1-8.944-3.7,12.561,12.561,0,0,1-3.7-8.941,12.564,12.564,0,0,1,3.7-8.944,12.575,12.575,0,0,1,8.944-3.7,12.564,12.564,0,0,1,8.941,3.7,12.562,12.562,0,0,1,3.7,8.944,12.558,12.558,0,0,1-3.7,8.941A12.564,12.564,0,0,1-5606.56-1942.915Z" transform="translate(5657 2013)" opacity="0.5"/></g></svg>