<svg xmlns="http://www.w3.org/2000/svg" xmlns:xlink="http://www.w3.org/1999/xlink" width="100" height="100" viewBox="0 0 100 100"><defs><clipPath id="b"><rect width="100" height="100"/></clipPath></defs><g id="a" clip-path="url(#b)"><path d="M-9340-1176a10.012,10.012,0,0,1-10-10v-80a10.012,10.012,0,0,1,10-10h33.335a7.416,7.416,0,0,1,5.284,2.189l15.858,15.86a7.426,7.426,0,0,1,2.189,5.282V-1186a10.011,10.011,0,0,1-10,10Zm-4-89v78a5.007,5.007,0,0,0,5,5h45a5.005,5.005,0,0,0,5-5v-65.661h-15.649a2.022,2.022,0,0,1-2.022-2.02V-1270H-9339A5.009,5.009,0,0,0-9344-1265Zm9,69.561v-26.919l20.532-3.642v34.109Zm10.737-21.379-4.289.223v14.105l2.7.312v-5.132a9.9,9.9,0,0,0,3.645-.42,4.128,4.128,0,0,0,2.524-2.5,5.861,5.861,0,0,0,.366-2.53,4.917,4.917,0,0,0-.765-2.408,3.207,3.207,0,0,0-1.835-1.385,6.6,6.6,0,0,0-1.919-.283Q-9324.048-1216.831-9324.262-1216.818Zm11.684,19.915v-3.51h10.078v-1.546h-10.073v-1.941h10.08v-1.568h-10.078v-3.194a4.8,4.8,0,0,0,2.743.922,4.587,4.587,0,0,0,3.283-1.373,4.6,4.6,0,0,0,1.352-3.29h-4.611v-4.646a4.472,4.472,0,0,0-2.783.882v-4.78h12.824a.671.671,0,0,1,.765.765v22.473c0,.533-.246.8-.765.8Zm3.5-16.264h4.639a4.631,4.631,0,0,0-1.356-3.32,4.617,4.617,0,0,0-3.282-1.366Zm-16.731,3.386h-.04v-4.5l1.082-.021a3.925,3.925,0,0,1,1.032.134,1.647,1.647,0,0,1,.726.371,1.409,1.409,0,0,1,.394.706h0v-.066a3.79,3.79,0,0,1,.1,1.666,2,2,0,0,1-.842,1.37,2.9,2.9,0,0,1-1.214.338q-.325.018-.635.018T-9325.811-1209.78Z" transform="translate(9367 1276)"/></g></svg>