<svg xmlns="http://www.w3.org/2000/svg" xmlns:xlink="http://www.w3.org/1999/xlink" width="100" height="100" viewBox="0 0 100 100"><defs><clipPath id="b"><rect width="100" height="100"/></clipPath></defs><g id="a" clip-path="url(#b)"><path d="M-8093.327-1176h-61.111a5.561,5.561,0,0,1-5.556-5.554V-1266H-8160v-4.446a5.562,5.562,0,0,1,5.558-5.554h40.555a2.78,2.78,0,0,1,2.777,2.777v3.889h.006V-1256a3.336,3.336,0,0,0,3.332,3.332h17.219a2.78,2.78,0,0,1,2.777,2.777v10.559l0-11.693,0,69.471A5.56,5.56,0,0,1-8093.327-1176Zm-29.272-49-7.53,25.724h5.713l7.528-25.724h-5.711Zm8.54,3.164h0v5.787l8.878,3.5v.162l-8.878,3.5v5.787l15.044-7.1v-4.528l-15.044-7.1Zm-18.9,0h0l-15.044,7.1v4.528l15.044,7.1v-5.787l-8.878-3.5v-.162l8.878-3.5v-5.787Z" transform="translate(8174 1276)"/><path d="M-7472.561-1265.565a2,2,0,0,1-2-2v-17.214a2,2,0,0,1,3.415-1.414l17.212,17.212a2,2,0,0,1-1.414,3.415Z" transform="translate(7539.561 1286.782)" opacity="0.5"/></g></svg>