<svg xmlns="http://www.w3.org/2000/svg" xmlns:xlink="http://www.w3.org/1999/xlink" width="100" height="100" viewBox="0 0 100 100"><defs><clipPath id="b"><rect width="100" height="100"/></clipPath></defs><g id="a" clip-path="url(#b)"><path d="M-8273.332-1358H-8320a10.012,10.012,0,0,1-10-10v-11.973c11.694-4.984,16.394-9.275,18.163-10.89l.015-.015a6.426,6.426,0,0,1,.709-.6c.1.059.254.176.486.353l0,0,.063.048.019.017a25.721,25.721,0,0,0,13.1,5.391,25.353,25.353,0,0,0,14.419-10.584l.006-.009c.763-1.062,1.267-1.764,1.708-1.884a11.819,11.819,0,0,1,2.85,2.194l.015.013.015.013a58.209,58.209,0,0,0,15.094,10.254l0,17.665A10.009,10.009,0,0,1-8273.332-1358Zm-56.67-25.973h0V-1448a10.013,10.013,0,0,1,10-10h33.331a7.427,7.427,0,0,1,5.287,2.191l15.859,15.859a7.417,7.417,0,0,1,2.187,5.281v45.008c-7.314-3.315-12.709-8.653-15.932-11.842l-.007-.007-.008-.01-.032-.029,0-.006c-1.483-1.468-2.463-2.438-2.99-2.58-.443.121-.873.965-1.524,2.241l-.006.01c-1.737,3.389-4.972,9.7-13.6,12.225-6.884-.82-11.087-5.191-12.882-7.058l-.013-.01-.018-.018a5.833,5.833,0,0,0-.76-.726,5.044,5.044,0,0,0-.782.834l-.013.01c-1.788,2.115-6.537,7.732-18.092,12.656Zm20.5-35.028a5.507,5.507,0,0,0-5.5,5.5,5.507,5.507,0,0,0,5.5,5.5,5.507,5.507,0,0,0,5.5-5.5A5.507,5.507,0,0,0-8309.5-1419Zm24.414-32.333a1.564,1.564,0,0,0-1.585,1.574v13.528a1.572,1.572,0,0,0,1.57,1.57h13.53a1.537,1.537,0,0,0,1.448-.97,1.542,1.542,0,0,0-.341-1.714l-13.523-13.526A1.544,1.544,0,0,0-8285.087-1451.332Z" transform="translate(8347.001 1457.999)"/></g></svg>