<svg xmlns="http://www.w3.org/2000/svg" xmlns:xlink="http://www.w3.org/1999/xlink" width="100" height="100" viewBox="0 0 100 100"><defs><clipPath id="b"><rect width="100" height="100"/></clipPath></defs><g id="a" clip-path="url(#b)"><path d="M-8830-1176a10.012,10.012,0,0,1-10-10v-80a10.013,10.013,0,0,1,10-10h33.333a7.424,7.424,0,0,1,5.287,2.192l15.854,15.856a7.431,7.431,0,0,1,2.194,5.285V-1186a10.01,10.01,0,0,1-10,10Zm-4-89v78a5.006,5.006,0,0,0,5,5h45a5,5,0,0,0,5-5v-65.658h-15.652a2.022,2.022,0,0,1-2.019-2.021V-1270H-8829A5.006,5.006,0,0,0-8834-1265Zm12.737,42.279a2.739,2.739,0,0,1-2.735-2.735v-15.5h7.3v-3.647h0l-7.294,0v-3.645h7.3v-3.65h-7.3v-3.649h7.3v-3.645h0l-7.294,0v-3.647h7.3v-3.647h-7.3V-1270h7.3v3.505h7.295v3.647h-7.295v3.647h7.295v3.647h-7.295v3.649h7.295v3.65h-7.295v3.645h7.295v3.65h-7.295v3.647h4.56a2.739,2.739,0,0,1,2.735,2.738v9.118a2.738,2.738,0,0,1-2.735,2.735Zm.911-3.647h7.295v-3.647h-7.295Z" transform="translate(8857 1275.999)"/></g></svg>