<svg xmlns="http://www.w3.org/2000/svg" xmlns:xlink="http://www.w3.org/1999/xlink" width="100" height="100" viewBox="0 0 100 100"><defs><clipPath id="b"><rect width="100" height="100"/></clipPath></defs><g id="a" clip-path="url(#b)"><path d="M-9633.33-1358H-9680a10.01,10.01,0,0,1-10-10v-80a10.011,10.011,0,0,1,10-10h33.334a7.432,7.432,0,0,1,5.286,2.189l15.856,15.861a7.44,7.44,0,0,1,2.19,5.282V-1368A10.008,10.008,0,0,1-9633.33-1358Zm-32.745-26.6a2.17,2.17,0,0,0-2.033,1.36,2.184,2.184,0,0,0,.475,2.417l9.445,9.479a2.192,2.192,0,0,0,1.559.647,2.181,2.181,0,0,0,1.557-.647l9.445-9.479a2.159,2.159,0,0,0,.649-1.549,2.2,2.2,0,0,0-2.208-2.228h-5.937V-1408h-7.053v23.4Zm20.987-66.735a1.568,1.568,0,0,0-1.583,1.576v13.528a1.571,1.571,0,0,0,1.568,1.571h13.528a1.553,1.553,0,0,0,1.454-.97,1.546,1.546,0,0,0-.343-1.714l-13.526-13.526A1.526,1.526,0,0,0-9645.088-1451.335Z" transform="translate(9707 1458)"/></g></svg>