<svg xmlns="http://www.w3.org/2000/svg" xmlns:xlink="http://www.w3.org/1999/xlink" width="100" height="100" viewBox="0 0 100 100"><defs><clipPath id="b"><rect width="100" height="100"/></clipPath></defs><g id="a" clip-path="url(#b)"><path d="M-7640-1176a10.012,10.012,0,0,1-10-10v-80a10.013,10.013,0,0,1,10-10h33.333a7.429,7.429,0,0,1,5.289,2.191l15.854,15.858a7.434,7.434,0,0,1,2.191,5.282V-1186a10.011,10.011,0,0,1-10,10Zm-4-89v78a5.007,5.007,0,0,0,5,5h45a5.005,5.005,0,0,0,5-5v-65.659h-15.651a2.023,2.023,0,0,1-2.02-2.02V-1270H-7639A5.007,5.007,0,0,0-7644-1265Zm9,65a3,3,0,0,1-3-3,3,3,0,0,1,3-3h20a3,3,0,0,1,3,3,3,3,0,0,1-3,3Zm0-10a3,3,0,0,1-3-3,3,3,0,0,1,3-3h37a3,3,0,0,1,3,3,3,3,0,0,1-3,3Zm0-10a3,3,0,0,1-3-3,3,3,0,0,1,3-3h37a3,3,0,0,1,3,3,3,3,0,0,1-3,3Z" transform="translate(7667 1276)"/></g></svg>