<svg xmlns="http://www.w3.org/2000/svg" xmlns:xlink="http://www.w3.org/1999/xlink" width="100" height="100" viewBox="0 0 100 100"><defs><clipPath id="b"><rect width="100" height="100"/></clipPath></defs><g id="a" clip-path="url(#b)"><path d="M-8263.326-1358h-61.111a5.562,5.562,0,0,1-5.555-5.557V-1448H-8330v-4.444a5.565,5.565,0,0,1,5.56-5.557h40.555a2.781,2.781,0,0,1,2.778,2.778v3.891l0,13.331a3.336,3.336,0,0,0,3.332,3.332h17.218a2.78,2.78,0,0,1,2.776,2.778v10.557l0-11.693,0,69.469A5.561,5.561,0,0,1-8263.326-1358Zm-44.078-42.587a4.559,4.559,0,0,0-3.248,1.347,4.56,4.56,0,0,0-1.349,3.251,4.565,4.565,0,0,0,1.347,3.249l13,13a4.565,4.565,0,0,0,3.251,1.346,4.562,4.562,0,0,0,3.248-1.346l13-13a4.57,4.57,0,0,0,1.344-3.251,4.567,4.567,0,0,0-1.344-3.249,4.57,4.57,0,0,0-3.252-1.347,4.565,4.565,0,0,0-3.25,1.347l-5.153,5.153-.264-.094v-19.333a4.492,4.492,0,0,0-4.486-4.486,4.492,4.492,0,0,0-4.486,4.486v19.386l-5.113-5.111A4.56,4.56,0,0,0-8307.4-1400.586Z" transform="translate(8344 1458)"/><path d="M-7472.561-1265.565a2,2,0,0,1-2-2v-17.214a2,2,0,0,1,3.415-1.414l17.212,17.212a2,2,0,0,1-1.414,3.415Z" transform="translate(7539.561 1286.782)" opacity="0.5"/></g></svg>