<svg xmlns="http://www.w3.org/2000/svg" xmlns:xlink="http://www.w3.org/1999/xlink" width="100" height="100" viewBox="0 0 100 100"><defs><clipPath id="b"><rect width="100" height="100"/></clipPath></defs><g id="a" clip-path="url(#b)"><path d="M-8603.327-1358h-61.109a5.561,5.561,0,0,1-5.555-5.555V-1448H-8670v-4.445a5.562,5.562,0,0,1,5.557-5.555h40.557a2.78,2.78,0,0,1,2.776,2.779v3.89h.007V-1438a3.336,3.336,0,0,0,3.331,3.333h17.218a2.779,2.779,0,0,1,2.776,2.776v10.557l0-11.693,0,69.472A5.562,5.562,0,0,1-8603.327-1358Zm-53.6-70.459v15.5a2.739,2.739,0,0,0,2.735,2.735h9.121a2.739,2.739,0,0,0,2.735-2.735v-9.119a2.74,2.74,0,0,0-2.735-2.737h-4.561v-3.647Zm7.3-3.649v3.649h7.3v-3.649Zm0-3.647h-7.3v3.647h7.3v-3.647Zm0-3.649v3.649h7.3v-3.649Zm0-3.649h-7.3v3.649h7.3v-3.649Zm0-3.647v3.647h7.3v-3.647Zm0-3.649h-7.3v3.649h7.3v-3.649Zm0-3.647v3.647h7.3v-3.647Zm0-3.649h-7.3v3.649h7.3Zm3.646,43.776h-7.3v-3.649h7.3v3.648Z" transform="translate(8684 1458)"/><path d="M-7472.561-1265.565a2,2,0,0,1-2-2v-17.214a2,2,0,0,1,3.415-1.414l17.212,17.212a2,2,0,0,1-1.414,3.415Z" transform="translate(7539.561 1286.782)" opacity="0.5"/></g></svg>