<svg xmlns="http://www.w3.org/2000/svg" xmlns:xlink="http://www.w3.org/1999/xlink" width="100" height="100" viewBox="0 0 100 100"><defs><clipPath id="b"><rect width="100" height="100"/></clipPath></defs><g id="a" clip-path="url(#b)"><path d="M-7753.326-1358h-61.11a5.562,5.562,0,0,1-5.556-5.554V-1448H-7820v-4.445a5.563,5.563,0,0,1,5.558-5.556h40.554a2.782,2.782,0,0,1,2.779,2.779v3.89l0,13.332a3.336,3.336,0,0,0,3.332,3.332h17.218a2.78,2.78,0,0,1,2.777,2.777v10.559l0-11.693,0,69.471A5.56,5.56,0,0,1-7753.326-1358Zm-27.649-61-25.024,4.455v32.879l25.024,4.331V-1419Zm2.35,32.692v4.208h15.69a.922.922,0,0,0,.66-.253.816.816,0,0,0,.272-.634v-30.337a.852.852,0,0,0-.272-.652.824.824,0,0,0-.656-.273h-15.7v4.753h12.8v1.821h-12.8v2.394h12.8v1.911h-12.8v2.345h12.8v1.913h-12.8v2.371h12.8v1.892h-12.8v2.365h12.79v1.913h-12.8v2.345h12.812v1.915Zm-9.691-4.165h0l-3.245-.192-1.126-5.792c-.437-2.232-.745-3.862-.929-4.836l-.007-.039c-.094-.5-.156-.824-.192-1.009h-.083c-.078.493-.43,2.256-1.013,5.176l-.025.125-.088.442-1.128,5.625-3-.192-2.889-14.452,2.7-.143,1.786,11.457h.027c.1-.553.479-2.507,1.174-5.933l1.176-5.835,2.942-.147,1.169,5.982c.662,3.525,1.027,5.58,1.128,6.174h.045l2.009-12.441,3.134-.192.063,0-3.629,16.226Z" transform="translate(7834 1458)"/><path d="M-7472.561-1265.565a2,2,0,0,1-2-2v-17.214a2,2,0,0,1,3.415-1.414l17.212,17.212a2,2,0,0,1-1.414,3.415Z" transform="translate(7539.561 1286.782)" opacity="0.5"/></g></svg>