<svg xmlns="http://www.w3.org/2000/svg" xmlns:xlink="http://www.w3.org/1999/xlink" width="100" height="100" viewBox="0 0 100 100"><defs><clipPath id="b"><rect width="100" height="100"/></clipPath></defs><g id="a" clip-path="url(#b)"><path d="M-8103.333-1358H-8150a10.01,10.01,0,0,1-10-10v-80a10.011,10.011,0,0,1,10-10h33.333a7.427,7.427,0,0,1,5.288,2.189l15.855,15.861a7.42,7.42,0,0,1,2.191,5.279V-1368A10.01,10.01,0,0,1-8103.333-1358Zm-19.095-47.595a2.556,2.556,0,0,0-1.818.754,2.553,2.553,0,0,0-.754,1.819,2.558,2.558,0,0,0,.754,1.82l9.1,9.095-9.1,9.1a2.555,2.555,0,0,0-.752,1.819,2.555,2.555,0,0,0,.752,1.82,2.556,2.556,0,0,0,1.818.754,2.564,2.564,0,0,0,1.821-.754l10.915-10.915a2.579,2.579,0,0,0,0-3.639l-10.915-10.915A2.564,2.564,0,0,0-8122.427-1405.6Zm-9.084,0a2.547,2.547,0,0,0-1.818.754l-10.915,10.915a2.557,2.557,0,0,0-.754,1.82,2.557,2.557,0,0,0,.754,1.82l10.915,10.915a2.556,2.556,0,0,0,1.818.754,2.564,2.564,0,0,0,1.821-.754,2.579,2.579,0,0,0,0-3.639l-9.1-9.1,9.1-9.095a2.578,2.578,0,0,0,0-3.639A2.557,2.557,0,0,0-8131.512-1405.6Zm16.422-45.736a1.563,1.563,0,0,0-1.583,1.573v13.528a1.572,1.572,0,0,0,1.571,1.571h13.528a1.547,1.547,0,0,0,1.452-.971,1.548,1.548,0,0,0-.342-1.714l-13.526-13.526A1.535,1.535,0,0,0-8115.089-1451.331Z" transform="translate(8177 1458)"/></g></svg>