<svg xmlns="http://www.w3.org/2000/svg" xmlns:xlink="http://www.w3.org/1999/xlink" width="100" height="100" viewBox="0 0 100 100"><defs><clipPath id="b"><rect width="100" height="100"/></clipPath></defs><g id="a" clip-path="url(#b)"><path d="M-8783.334-1358H-8830a10.013,10.013,0,0,1-10-10v-80a10.013,10.013,0,0,1,10-10h33.333a7.43,7.43,0,0,1,5.287,2.192l15.854,15.86a7.414,7.414,0,0,1,2.194,5.28V-1368A10.013,10.013,0,0,1-8783.334-1358ZM-8824-1422.957v15.5a2.738,2.738,0,0,0,2.735,2.733h9.12a2.738,2.738,0,0,0,2.735-2.733v-9.12a2.74,2.74,0,0,0-2.735-2.738h-4.56v-3.644h7.295v-3.649h-7.295v-3.646h7.295v-3.65h-7.295v-3.646h7.295v-3.647h-7.295v-3.649h7.295v-3.647h-7.295V-1452h-7.3v3.505l7.294,0,0,3.645h-7.3v3.65h7.294l0,3.647h-7.3v3.647l7.294,0,0,3.647h-7.3v3.647h7.294l0,3.649Zm28.912-28.375a1.564,1.564,0,0,0-1.585,1.573v13.529a1.573,1.573,0,0,0,1.571,1.571h13.531a1.547,1.547,0,0,0,1.448-.97,1.546,1.546,0,0,0-.342-1.715l-13.526-13.526A1.532,1.532,0,0,0-8795.088-1451.332Zm-17.971,42.967h-7.295v-3.65h7.295v3.649Z" transform="translate(8857 1457.999)"/></g></svg>