<svg xmlns="http://www.w3.org/2000/svg" xmlns:xlink="http://www.w3.org/1999/xlink" width="100" height="100" viewBox="0 0 100 100"><defs><clipPath id="b"><rect width="100" height="100"/></clipPath></defs><g id="a" clip-path="url(#b)"><path d="M-7287.125-1176a8.579,8.579,0,0,1-8.568-8.569v-5.737h-5.737a8.577,8.577,0,0,1-8.568-8.569v-68.554a8.579,8.579,0,0,1,8.568-8.572h28.564a6.356,6.356,0,0,1,4.532,1.879c13.709,13.711,14.2,14.2,27.893,27.9a6.36,6.36,0,0,1,1.877,4.525v57.132a8.578,8.578,0,0,1-8.568,8.569Zm-17.733-90.573v66.843a4.29,4.29,0,0,0,4.286,4.283h38.561a4.29,4.29,0,0,0,4.286-4.283V-1256h-2.122l-.083,0h-11.595a1.347,1.347,0,0,1-1.346-1.346v-4.351h0v-9.162h-27.7A4.29,4.29,0,0,0-7304.859-1266.574Zm51.988,24.88h7.243a1.331,1.331,0,0,0,1.247-.829,1.329,1.329,0,0,0-.294-1.47l-8.2-8.194Z" transform="translate(7324 1276.001)"/></g></svg>