<svg xmlns="http://www.w3.org/2000/svg" xmlns:xlink="http://www.w3.org/1999/xlink" width="100" height="100" viewBox="0 0 100 100"><defs><clipPath id="b"><rect width="100" height="100"/></clipPath></defs><g id="a" clip-path="url(#b)"><path d="M-8953.332-1358H-9000a10.011,10.011,0,0,1-10-10v-80a10.011,10.011,0,0,1,10-10h33.333a7.433,7.433,0,0,1,5.286,2.189l15.855,15.86a7.43,7.43,0,0,1,2.191,5.282V-1368A10.01,10.01,0,0,1-8953.332-1358Zm-20.428-50-21.239,3.78v27.887l21.239,3.675Zm2.028,28.646v2.46h12.062c.188-.058.349-.285.477-.674a3.266,3.266,0,0,0,.192-.952v-24.749c0-.19-.064-.307-.192-.348a1.678,1.678,0,0,0-.477-.061h-12.062v2.232h3.555v3.532h-3.555v1.124h3.555v3.536h-3.555v1.156h3.555v3.344h-3.555v1.339h3.555v3.351h-3.555v1.341h3.555v3.369Zm6.644-71.981a1.566,1.566,0,0,0-1.583,1.574v13.529a1.572,1.572,0,0,0,1.569,1.572h13.529a1.549,1.549,0,0,0,1.451-.97,1.544,1.544,0,0,0-.342-1.714l-13.526-13.527A1.536,1.536,0,0,0-8965.088-1451.334Zm3.853,71.979h-5.786v-3.367h5.786v3.366Zm-17.728-3.57h0l-3.446-.2c-.079-.214-.461-1.145-1.138-2.79-.679-1.665-1.081-2.608-1.2-2.874h-.036l-2.279,5.422-3.046-.206,3.613-6.75-3.308-6.752,3.106-.163,2.051,5.282h.041l2.317-5.522,3.209-.2-3.821,7.306,3.936,7.451Zm17.728-1.137h-5.786v-3.351h5.786v3.35Zm0-4.692h-5.786v-3.328h5.786v3.328Zm0-4.5h-5.786v-3.53h5.786v3.529Zm0-4.678h-5.786v-3.509h5.786v3.508Z" transform="translate(9027 1458)"/></g></svg>