<svg xmlns="http://www.w3.org/2000/svg" xmlns:xlink="http://www.w3.org/1999/xlink" width="100" height="100" viewBox="0 0 100 100"><defs><clipPath id="b"><rect width="100" height="100"/></clipPath></defs><g id="a" clip-path="url(#b)"><path d="M-9170-1176a10.012,10.012,0,0,1-10-10v-80a10.011,10.011,0,0,1,10-10h33.333a7.416,7.416,0,0,1,5.287,2.191l15.855,15.858a7.427,7.427,0,0,1,2.19,5.283V-1186a10.01,10.01,0,0,1-10,10Zm-4-89v78a5.008,5.008,0,0,0,5,5h45a5.007,5.007,0,0,0,5-5v-65.66h-15.65a2.021,2.021,0,0,1-2.021-2.018V-1270H-9169A5.008,5.008,0,0,0-9174-1265Zm9,69.545v-26.9l20.475-3.645v34.09Zm9.967-16.915c.093.456.385,2.06.922,4.815l.924,4.737,2.656.157,2.97-13.275h-.053v0l-2.564.159-1.643,10.176h-.039c-.081-.481-.383-2.168-.922-5.05l-.958-4.893-2.408.12-.963,4.774c-.562,2.781-.875,4.4-.958,4.854h-.021l-1.463-9.374-2.205.117,2.361,11.823,2.451.157.924-4.6c.539-2.7.853-4.269.922-4.7Zm12.43,16.56v-3.444h10.474v-1.567h-10.482v-1.919h10.473v-1.567h-10.466v-1.933h10.471v-1.548h-10.471v-1.94h10.471v-1.567h-10.471v-1.919h10.471v-1.564h-10.471v-1.956h10.471v-1.493h-10.471v-3.889h12.844a.677.677,0,0,1,.537.224.7.7,0,0,1,.224.535v24.82a.675.675,0,0,1-.224.521.766.766,0,0,1-.539.207Z" transform="translate(9197 1276)"/></g></svg>