<svg xmlns="http://www.w3.org/2000/svg" xmlns:xlink="http://www.w3.org/1999/xlink" width="100" height="100" viewBox="0 0 100 100"><defs><clipPath id="b"><rect width="100" height="100"/></clipPath></defs><g id="a" clip-path="url(#b)"><path d="M-7470-1548a10.012,10.012,0,0,1-10-10v-80a10.012,10.012,0,0,1,10-10h33.334a7.424,7.424,0,0,1,5.288,2.191l15.855,15.859a7.425,7.425,0,0,1,2.19,5.281V-1558a10.011,10.011,0,0,1-10,10Zm-4-89v78a5.007,5.007,0,0,0,5,5h45a5.007,5.007,0,0,0,5-5v-65.66h-15.651a2.023,2.023,0,0,1-2.021-2.02V-1642H-7469A5.007,5.007,0,0,0-7474-1637Z" transform="translate(7497 1648)"/><path d="M-8484.018-1188.256a6.787,6.787,0,0,1-2.684-2.041,10.123,10.123,0,0,1-1.76-3.565,18.6,18.6,0,0,1-.632-5.194,18.264,18.264,0,0,1,.605-4.921,10.66,10.66,0,0,1,1.752-3.667,7.543,7.543,0,0,1,2.82-2.28,8.8,8.8,0,0,1,3.792-.787,8.746,8.746,0,0,1,3.4.651,6.745,6.745,0,0,1,2.673,2.033,10.036,10.036,0,0,1,1.751,3.554,18.75,18.75,0,0,1,.634,5.214,18.553,18.553,0,0,1-.6,4.921,10.442,10.442,0,0,1-1.751,3.665,7.653,7.653,0,0,1-2.812,2.283,8.77,8.77,0,0,1-3.793.785A8.727,8.727,0,0,1-8484.018-1188.256Zm-.205-6.016a5.128,5.128,0,0,0,1.538,2.462,3.552,3.552,0,0,0,2.306.8,3.418,3.418,0,0,0,1.786-.495,4.279,4.279,0,0,0,1.436-1.5,8.427,8.427,0,0,0,.949-2.53,16.618,16.618,0,0,0,.341-3.6c0-.194,0-.39-.017-.591s-.018-.39-.018-.572Zm2.067-12.552a4.179,4.179,0,0,0-1.428,1.5,8.713,8.713,0,0,0-.958,2.528,16.327,16.327,0,0,0-.35,3.607v.64a5.366,5.366,0,0,0,.034.608l8.373-6.05a5.558,5.558,0,0,0-1.578-2.5,3.528,3.528,0,0,0-2.317-.813A3.4,3.4,0,0,0-8482.155-1206.824Zm14,18.823v-3.708h5.691v-14.357l-4.956,2.735-1.367-3.4,7.091-3.744h3.5v18.766h4.9V-1188Z" transform="translate(8517 1276)" opacity="0.5"/></g></svg>