<svg xmlns="http://www.w3.org/2000/svg" xmlns:xlink="http://www.w3.org/1999/xlink" width="100" height="100" viewBox="0 0 100 100"><defs><clipPath id="b"><rect width="100" height="100"/></clipPath></defs><g id="a" clip-path="url(#b)"><path d="M-10360-1176a10.014,10.014,0,0,1-10-10v-80a10.013,10.013,0,0,1,10-10h33.333a7.419,7.419,0,0,1,5.285,2.191l15.857,15.86a7.42,7.42,0,0,1,2.191,5.281V-1186a10.013,10.013,0,0,1-10,10Zm-4-89v78a5.008,5.008,0,0,0,5,5h45a5,5,0,0,0,5-5v-65.662h-15.649a2.022,2.022,0,0,1-2.022-2.02V-1270H-10359A5.01,5.01,0,0,0-10364-1265Zm24,61v-9h-9a3,3,0,0,1-3-3,3,3,0,0,1,3-3h9v-9a3,3,0,0,1,3-3,3,3,0,0,1,3,3v9h9a3,3,0,0,1,3,3,3,3,0,0,1-3,3h-9v9a3,3,0,0,1-3,3A3,3,0,0,1-10340-1204Z" transform="translate(10387 1276)"/></g></svg>