<svg xmlns="http://www.w3.org/2000/svg" xmlns:xlink="http://www.w3.org/1999/xlink" width="100" height="100" viewBox="0 0 100 100"><defs><clipPath id="b"><rect width="100" height="100"/></clipPath></defs><g id="a" clip-path="url(#b)"><path d="M-8433.326-1176h-61.11a5.561,5.561,0,0,1-5.555-5.555V-1266H-8500v-4.446a5.562,5.562,0,0,1,5.557-5.555h40.558a2.781,2.781,0,0,1,2.777,2.777v3.889l0,13.333a3.337,3.337,0,0,0,3.332,3.334h17.217a2.781,2.781,0,0,1,2.778,2.777v10.557l0-11.692v69.468A5.56,5.56,0,0,1-8433.326-1176ZM-8454-1211.167a8.828,8.828,0,0,0-3.771.783,7.57,7.57,0,0,0-2.8,2.268,10.725,10.725,0,0,0-1.739,3.646,18.163,18.163,0,0,0-.6,4.894,18.78,18.78,0,0,0,.627,5.162,10.019,10.019,0,0,0,1.75,3.543,6.735,6.735,0,0,0,2.664,2.029,8.714,8.714,0,0,0,3.381.646,8.772,8.772,0,0,0,3.77-.779,7.663,7.663,0,0,0,2.792-2.27,10.506,10.506,0,0,0,1.743-3.643,18.587,18.587,0,0,0,.593-4.894,18.83,18.83,0,0,0-.629-5.182,9.977,9.977,0,0,0-1.738-3.533,6.762,6.762,0,0,0-2.658-2.024A8.708,8.708,0,0,0-8454-1211.167Zm-26.32,18.894v3.686h14.775v-3.686h-4.877v-18.653h-3.479l-7.046,3.718,1.359,3.381,4.92-2.718v14.271Zm7.236-46.728a8.784,8.784,0,0,0-3.771.783,7.513,7.513,0,0,0-2.8,2.266,10.653,10.653,0,0,0-1.743,3.646,18.257,18.257,0,0,0-.6,4.894,18.727,18.727,0,0,0,.63,5.167,10.036,10.036,0,0,0,1.747,3.539,6.751,6.751,0,0,0,2.666,2.031,8.708,8.708,0,0,0,3.379.646,8.741,8.741,0,0,0,3.77-.781,7.649,7.649,0,0,0,2.795-2.27,10.432,10.432,0,0,0,1.74-3.644,18.5,18.5,0,0,0,.593-4.891,18.861,18.861,0,0,0-.629-5.184,10.014,10.014,0,0,0-1.738-3.533,6.747,6.747,0,0,0-2.656-2.022A8.722,8.722,0,0,0-8473.083-1239Zm11.85,18.894v3.686h14.772v-3.686h-4.874v-18.655h-3.481l-7.046,3.72,1.358,3.379,4.923-2.716v14.271Zm6.98,28.532a3.546,3.546,0,0,1-2.293-.8,5.083,5.083,0,0,1-1.527-2.447l8.268-5.979c0,.188,0,.379.018.567s.017.386.017.587a16.524,16.524,0,0,1-.341,3.577,8.413,8.413,0,0,1-.941,2.515,4.245,4.245,0,0,1-1.425,1.487A3.407,3.407,0,0,1-8454.253-1191.575Zm-4.45-6.9v0a5.66,5.66,0,0,1-.036-.6v-.636a16.166,16.166,0,0,1,.35-3.586,8.7,8.7,0,0,1,.951-2.513,4.213,4.213,0,0,1,1.417-1.487,3.407,3.407,0,0,1,1.769-.484,3.533,3.533,0,0,1,2.3.806,5.594,5.594,0,0,1,1.567,2.49l-8.317,6.013Zm-14.636-20.938a3.544,3.544,0,0,1-2.293-.8,5.153,5.153,0,0,1-1.527-2.447l8.268-5.979c0,.192.006.378.02.57s.015.374.015.587a16.653,16.653,0,0,1-.339,3.573,8.426,8.426,0,0,1-.94,2.515,4.3,4.3,0,0,1-1.428,1.487A3.417,3.417,0,0,1-8473.339-1219.412Zm-4.45-6.9v0a5.75,5.75,0,0,1-.036-.6v-.638a16.155,16.155,0,0,1,.35-3.584,8.675,8.675,0,0,1,.952-2.515,4.205,4.205,0,0,1,1.418-1.487,3.423,3.423,0,0,1,1.767-.484,3.5,3.5,0,0,1,2.3.808,5.48,5.48,0,0,1,1.575,2.49l-8.32,6.01Z" transform="translate(8514 1276)"/><path d="M-7472.561-1265.565a2,2,0,0,1-2-2v-17.214a2,2,0,0,1,3.415-1.414l17.212,17.212a2,2,0,0,1-1.414,3.415Z" transform="translate(7539.561 1286.782)" opacity="0.5"/></g></svg>