<svg xmlns="http://www.w3.org/2000/svg" xmlns:xlink="http://www.w3.org/1999/xlink" width="100" height="100" viewBox="0 0 100 100"><defs><clipPath id="b"><rect width="100" height="100"/></clipPath></defs><g id="a" clip-path="url(#b)"><path d="M-7583.326-1176h-61.11a5.562,5.562,0,0,1-5.556-5.554V-1266H-7650v-4.447a5.562,5.562,0,0,1,5.558-5.554h40.556a2.781,2.781,0,0,1,2.778,2.778v3.89l0,13.332a3.337,3.337,0,0,0,3.333,3.333h17.217a2.78,2.78,0,0,1,2.776,2.778v10.557l0-11.692,0,69.469A5.561,5.561,0,0,1-7583.326-1176Zm-47.861-30.43a2.816,2.816,0,0,0-2.812,2.813,2.816,2.816,0,0,0,2.813,2.813h33.754a2.816,2.816,0,0,0,2.813-2.813,2.816,2.816,0,0,0-2.812-2.813Zm0-12.785A2.816,2.816,0,0,0-7634-1216.4a2.816,2.816,0,0,0,2.813,2.813h33.754a2.816,2.816,0,0,0,2.813-2.813,2.816,2.816,0,0,0-2.812-2.813Zm0-12.785a2.816,2.816,0,0,0-2.812,2.813,2.816,2.816,0,0,0,2.813,2.813h33.754a2.816,2.816,0,0,0,2.813-2.813,2.816,2.816,0,0,0-2.812-2.813Z" transform="translate(7664 1276)"/><path d="M-7472.561-1265.565a2,2,0,0,1-2-2v-17.214a2,2,0,0,1,3.415-1.414l17.212,17.212a2,2,0,0,1-1.414,3.415Z" transform="translate(7539.561 1286.782)" opacity="0.5"/></g></svg>