<svg xmlns="http://www.w3.org/2000/svg" xmlns:xlink="http://www.w3.org/1999/xlink" width="100" height="100" viewBox="0 0 100 100"><defs><clipPath id="b"><rect width="100" height="100"/></clipPath></defs><g id="a" clip-path="url(#b)"><path d="M-10530-1176a10.014,10.014,0,0,1-10-10v-80a10.012,10.012,0,0,1,10-10h33.332a7.428,7.428,0,0,1,5.288,2.19l15.855,15.861a7.415,7.415,0,0,1,2.19,5.28V-1186a10.012,10.012,0,0,1-10,10Zm-4-89v78a5.008,5.008,0,0,0,5,5h45a5.006,5.006,0,0,0,5-5v-65.659h-15.646a2.025,2.025,0,0,1-2.023-2.021V-1270H-10529A5.007,5.007,0,0,0-10534-1265Zm15,52a3,3,0,0,1-3-3,3,3,0,0,1,3-3h24a3,3,0,0,1,3,3,3,3,0,0,1-3,3Z" transform="translate(10557 1276)"/></g></svg>