<svg xmlns="http://www.w3.org/2000/svg" xmlns:xlink="http://www.w3.org/1999/xlink" width="100" height="100" viewBox="0 0 100 100"><defs><clipPath id="b"><rect width="100" height="100"/></clipPath></defs><g id="a" clip-path="url(#b)"><path d="M-10483.332-1358H-10530a10.011,10.011,0,0,1-10-10v-80a10.011,10.011,0,0,1,10-10h33.332a7.428,7.428,0,0,1,5.288,2.19l15.855,15.858a7.437,7.437,0,0,1,2.19,5.282V-1368A10.01,10.01,0,0,1-10483.332-1358Zm-35.668-43a3,3,0,0,0-3,3,3,3,0,0,0,3,3h24a3,3,0,0,0,3-3,3,3,0,0,0-3-3Zm23.91-50.334a1.567,1.567,0,0,0-1.582,1.574v13.53a1.57,1.57,0,0,0,1.568,1.569h13.53a1.548,1.548,0,0,0,1.452-.968,1.55,1.55,0,0,0-.341-1.714l-13.525-13.528A1.551,1.551,0,0,0-10495.09-1451.334Z" transform="translate(10557 1458)"/></g></svg>