<svg xmlns="http://www.w3.org/2000/svg" xmlns:xlink="http://www.w3.org/1999/xlink" width="100" height="100" viewBox="0 0 100 100"><defs><clipPath id="b"><rect width="100" height="100"/></clipPath></defs><g id="a" clip-path="url(#b)"><path d="M-7470-1548a10.012,10.012,0,0,1-10-10v-80a10.012,10.012,0,0,1,10-10h33.334a7.424,7.424,0,0,1,5.288,2.191l15.855,15.859a7.425,7.425,0,0,1,2.19,5.281V-1558a10.011,10.011,0,0,1-10,10Zm-4-89v78a5.007,5.007,0,0,0,5,5h45a5.007,5.007,0,0,0,5-5v-65.66h-15.651a2.023,2.023,0,0,1-2.021-2.02V-1642H-7469A5.007,5.007,0,0,0-7474-1637Z" transform="translate(7497 1648)"/><path d="M-8655-1190a3,3,0,0,1-3-3,3,3,0,0,1,3-3h37a3,3,0,0,1,3,3,3,3,0,0,1-3,3Zm0-10a3,3,0,0,1-3-3,3,3,0,0,1,3-3h37a3,3,0,0,1,3,3,3,3,0,0,1-3,3Zm16-13v-5.535l-4.794,2.768a2,2,0,0,1-2.732-.731,2,2,0,0,1,.732-2.733L-8641-1222l-4.792-2.768a2,2,0,0,1-.732-2.731,2,2,0,0,1,2.732-.733l4.794,2.768V-1231a2,2,0,0,1,2-2,2,2,0,0,1,2,2v5.533l4.791-2.766a2,2,0,0,1,2.733.733,2,2,0,0,1-.731,2.731L-8633-1222l4.793,2.768a2,2,0,0,1,.731,2.733,2,2,0,0,1-2.733.731l-4.791-2.766V-1213a2,2,0,0,1-2,2A2,2,0,0,1-8639-1213Z" transform="translate(8687 1276)" opacity="0.5"/></g></svg>