<svg xmlns="http://www.w3.org/2000/svg" xmlns:xlink="http://www.w3.org/1999/xlink" width="100" height="100" viewBox="0 0 100 100"><defs><clipPath id="b"><rect width="100" height="100"/></clipPath></defs><g id="a" clip-path="url(#b)"><path d="M-8433.326-1358h-61.11a5.561,5.561,0,0,1-5.555-5.555V-1448H-8500v-4.446a5.562,5.562,0,0,1,5.557-5.555h40.558a2.781,2.781,0,0,1,2.777,2.777v3.889l0,13.333a3.336,3.336,0,0,0,3.332,3.332h17.217a2.782,2.782,0,0,1,2.778,2.78v10.557l0-11.694v69.47A5.56,5.56,0,0,1-8433.326-1358Zm-33.579-61a3.179,3.179,0,0,0-2.649,1.57c-1.556,2.8-.816,8.88,1.8,14.792-1.023,3.094-2.083,5.965-3.334,9.034-1.136,2.7-2.44,5.479-3.773,8.034a44.149,44.149,0,0,0-9.236,4.89c-2.286,1.674-3.614,3.3-3.843,4.693a3.146,3.146,0,0,0,.9,2.844l.019.015a4.4,4.4,0,0,0,2.885,1.054c2.237,0,4.747-1.625,7.462-4.831a51.919,51.919,0,0,0,5.693-8.626c2-.675,4.019-1.3,5.974-1.9l.292-.09c2.224-.615,4.533-1.134,6.679-1.5,5.405,4.95,10.136,5.689,12.474,5.689,2.93,0,3.967-1.2,4.321-2.2a3.387,3.387,0,0,0-.5-3.413l.035.066c-1.417-1.513-4.359-2.346-8.286-2.346a40.038,40.038,0,0,0-7.377.727,39.984,39.984,0,0,1-4.526-5.337,45.514,45.514,0,0,1-2.786-4.493,42.256,42.256,0,0,0,2.368-11.967,9.47,9.47,0,0,0-1.018-4.58A3.9,3.9,0,0,0-8466.905-1419Zm-18.1,45.209a1.694,1.694,0,0,1-1.039-.358,1.519,1.519,0,0,1-.486-1.491c.421-2.166,4.472-5.165,10.572-7.827C-8479.565-1377.407-8482.947-1373.791-8485.01-1373.791Zm37.866-11.246a5.819,5.819,0,0,1-.992-.109l-.191-.032a18.222,18.222,0,0,1-7.656-4.13,34.7,34.7,0,0,1,5.846-.491,15.1,15.1,0,0,1,3.552.282c.951.207,2.5.834,2.147,2.707h.013C-8444.632-1385.732-8445.7-1385.037-8447.144-1385.037Zm-22.759-2.255v0c.784-1.528,1.536-3.15,2.369-5.1.617-1.47,1.152-2.972,1.671-4.425l.02-.055c.181-.507.356-1,.536-1.495.714,1.243,1.48,2.45,2.217,3.492a54.008,54.008,0,0,0,3.867,4.729c-2.1.431-3.973.872-5.736,1.35-1.848.5-3.464,1-4.942,1.51Zm2.784-17.375v0c-2.2-5.838-2.154-10.285-1.182-11.945l0,0a1.517,1.517,0,0,1,1.329-.855c1.438,0,1.74,1.665,1.74,3.061a38.14,38.14,0,0,1-1.882,9.742Z" transform="translate(8514 1458)"/><path d="M-7472.561-1265.565a2,2,0,0,1-2-2v-17.214a2,2,0,0,1,3.415-1.414l17.212,17.212a2,2,0,0,1-1.414,3.415Z" transform="translate(7539.561 1286.782)" opacity="0.5"/></g></svg>