<svg xmlns="http://www.w3.org/2000/svg" xmlns:xlink="http://www.w3.org/1999/xlink" width="100" height="100" viewBox="0 0 100 100"><defs><clipPath id="b"><rect width="100" height="100"/></clipPath></defs><g id="a" clip-path="url(#b)"><path d="M-9850-1176a10.012,10.012,0,0,1-10-10v-80a10.013,10.013,0,0,1,10-10h33.332a7.41,7.41,0,0,1,5.285,2.193l15.857,15.857a7.42,7.42,0,0,1,2.189,5.283V-1186a10.008,10.008,0,0,1-10,10Zm-4-89v78a5.008,5.008,0,0,0,5,5h45a5.005,5.005,0,0,0,5-5v-65.662h-15.648a2.022,2.022,0,0,1-2.021-2.019V-1270H-9849A5.009,5.009,0,0,0-9854-1265Zm8.616,75.33a2.7,2.7,0,0,1-.587-2.338c.7-3.318,6.7-6.634,8.532-7.572a.027.027,0,0,0,.013,0,.017.017,0,0,1,.015-.007,136.759,136.759,0,0,0,5.944-12.5c-1.237-4.8-1.913-8.54-1.181-11.217a3.322,3.322,0,0,1,3.338-2.193,3.536,3.536,0,0,1,3.628,3.182c.772,2.509-.215,6.528-.863,9.186l-.042.166a14.543,14.543,0,0,0,6.223,7.842,39.154,39.154,0,0,1,4.972-.364c2.855,0,4.788.475,5.748,1.413a4.078,4.078,0,0,1,.651,4.184,3.491,3.491,0,0,1-3.521,2.135,22.209,22.209,0,0,1-9.319-2.838,62.59,62.59,0,0,0-9.341,2.65l-.013,0c-.7.235-1.447.488-2.158.723-3.7,6.4-6.287,9-8.9,9A4.519,4.519,0,0,1-9845.386-1189.669Zm7.109-6.768c-1.329,1.188-3.8,3.393-4.514,5.34,0,0,.008.01.015.01.218,0,2.084-1.081,5.068-5.867C-9837.846-1196.826-9838.026-1196.66-9838.276-1196.437Zm.569-.517h0Zm4.491-3.19c.655-.25,1.313-.525,2.014-.812a37.8,37.8,0,0,1,7.145-2.38,18.877,18.877,0,0,1-5.023-5.946A65.5,65.5,0,0,1-9833.216-1200.144Zm15.777-2.146a14.97,14.97,0,0,0,5.335,1.527c.705,0,.894-.205.9-.213a.3.3,0,0,0,.141-.346c-.148-.482-1.358-1.047-4.291-1.047C-9815.991-1202.369-9816.691-1202.341-9817.438-1202.289Zm-11.754-20.652c-.339.46-.349,4.519.361,6.788.668-1.2.891-5.283.176-6.5a.559.559,0,0,0-.466-.339A.088.088,0,0,0-9829.192-1222.942Z" transform="translate(9877 1276)"/></g></svg>