<svg xmlns="http://www.w3.org/2000/svg" xmlns:xlink="http://www.w3.org/1999/xlink" width="100" height="100" viewBox="0 0 100 100"><defs><clipPath id="b"><rect width="100" height="100"/></clipPath></defs><g id="a" clip-path="url(#b)"><path d="M-9123.332-1358H-9170a10.011,10.011,0,0,1-10-10v-80a10.01,10.01,0,0,1,10-10h33.333a7.431,7.431,0,0,1,5.287,2.186l15.855,15.862a7.428,7.428,0,0,1,2.19,5.281V-1368A10.01,10.01,0,0,1-9123.332-1358Zm-21.193-50-20.475,3.645v26.9l20.475,3.543V-1408Zm1.922,26.748v3.442h12.84a.759.759,0,0,0,.539-.207.665.665,0,0,0,.224-.518v-24.82a.7.7,0,0,0-.224-.534.674.674,0,0,0-.537-.224h-12.844v3.889h10.471v1.491h-10.471v1.958h10.471v1.564h-10.471v1.919h10.471v1.564h-10.471v1.94h10.471v1.548h-10.471v1.935h10.466v1.567h-10.473v1.917h10.482v1.569Zm7.516-70.082a1.567,1.567,0,0,0-1.583,1.573v13.531a1.57,1.57,0,0,0,1.568,1.569h13.528a1.555,1.555,0,0,0,1.454-.968,1.559,1.559,0,0,0-.341-1.716l-13.528-13.526A1.529,1.529,0,0,0-9135.088-1451.334Zm-15.443,66.674h0l-2.655-.159-.924-4.737c-.312-1.6-.536-2.782-.732-3.823-.09-.479-.153-.813-.189-.992h-.066c-.067.416-.37,1.936-.9,4.585l-.022.113-.924,4.6-2.451-.157-2.361-11.826,2.205-.118,1.463,9.377h.021c.079-.433.383-2.007.958-4.854l.963-4.776,2.408-.12.958,4.9c.577,3.087.855,4.653.922,5.05h.039l1.643-10.178,2.564-.157.053,0-2.97,13.274Z" transform="translate(9197 1458)"/></g></svg>