<svg xmlns="http://www.w3.org/2000/svg" xmlns:xlink="http://www.w3.org/1999/xlink" width="100" height="100" viewBox="0 0 100 100"><defs><clipPath id="b"><rect width="100" height="100"/></clipPath></defs><g id="a" clip-path="url(#b)"><path d="M-8664.857-1183.573a5.139,5.139,0,0,1-5.135-5.134v-78.051H-8670v-4.109a5.134,5.134,0,0,1,5.136-5.133h37.485a2.565,2.565,0,0,1,2.564,2.566v3.6h.008v12.322a3.082,3.082,0,0,0,3.077,3.081h15.915a2.565,2.565,0,0,1,2.567,2.566v9.758h0v-10.806l0,64.208a5.142,5.142,0,0,1-5.135,5.134Zm43.844-72.818a1.847,1.847,0,0,1-1.85-1.846v-15.912a1.849,1.849,0,0,1,3.155-1.307l15.911,15.91a1.848,1.848,0,0,1-1.307,3.156Z" transform="translate(8682 1283.573)"/><path d="M-8664.821-1183.217a5.17,5.17,0,0,1-5.173-5.152v-78.351H-8670v-4.125a5.169,5.169,0,0,1,5.174-5.152h37.757a2.582,2.582,0,0,1,2.586,2.575v3.609h.006v12.371a3.1,3.1,0,0,0,3.1,3.091h16.029a2.585,2.585,0,0,1,2.587,2.577v9.8l0-10.848,0,64.457a5.169,5.169,0,0,1-5.173,5.152Zm-1.456-83.917v4.123h.009v70.929a5.169,5.169,0,0,0,5.171,5.155h49.446a5.17,5.17,0,0,0,5.172-5.155l0-57.035v7.138l0-6.083a2.583,2.583,0,0,0-2.586-2.577H-8625.1a3.1,3.1,0,0,1-3.1-3.091V-1266.1h0v-3.609a2.583,2.583,0,0,0-2.586-2.577h-30.31A5.172,5.172,0,0,0-8666.277-1267.134Zm45.619,10.819a1.858,1.858,0,0,1-1.861-1.855v-15.971a1.864,1.864,0,0,1,3.181-1.312l16.025,15.971a1.855,1.855,0,0,1-1.317,3.167Z" transform="translate(8690.018 1276.001)" opacity="0.66"/></g></svg>