<svg xmlns="http://www.w3.org/2000/svg" xmlns:xlink="http://www.w3.org/1999/xlink" width="100" height="100" viewBox="0 0 100 100"><defs><clipPath id="b"><rect width="100" height="100"/></clipPath></defs><g id="a" clip-path="url(#b)"><path d="M-8443.331-1358H-8490a10.011,10.011,0,0,1-10-10v-80a10.011,10.011,0,0,1,10-10h33.333a7.428,7.428,0,0,1,5.286,2.189l15.856,15.86a7.43,7.43,0,0,1,2.19,5.282V-1368A10.01,10.01,0,0,1-8443.331-1358Zm-36.792-34.712a8.845,8.845,0,0,0-3.792.787,7.58,7.58,0,0,0-2.82,2.281,10.724,10.724,0,0,0-1.752,3.665,18.417,18.417,0,0,0-.605,4.923,18.7,18.7,0,0,0,.632,5.194,10.151,10.151,0,0,0,1.76,3.562,6.8,6.8,0,0,0,2.684,2.044,8.771,8.771,0,0,0,3.4.648,8.813,8.813,0,0,0,3.793-.785,7.694,7.694,0,0,0,2.812-2.282,10.483,10.483,0,0,0,1.751-3.665,18.668,18.668,0,0,0,.6-4.921,18.81,18.81,0,0,0-.634-5.214,10.065,10.065,0,0,0-1.751-3.554,6.8,6.8,0,0,0-2.673-2.035A8.786,8.786,0,0,0-8480.123-1392.712Zm11.964,19V-1370h14.868v-3.708h-4.9v-18.766h-3.5l-7.091,3.744,1.367,3.4,4.955-2.735v14.357Zm13.07-77.626a1.567,1.567,0,0,0-1.583,1.574v13.529a1.572,1.572,0,0,0,1.569,1.57h13.529a1.552,1.552,0,0,0,1.453-.969,1.552,1.552,0,0,0-.342-1.715l-13.526-13.527A1.538,1.538,0,0,0-8455.089-1451.333Zm-25.29,78.325a3.564,3.564,0,0,1-2.306-.8,5.141,5.141,0,0,1-1.538-2.46l8.321-6.016c0,.157,0,.339.018.572.012.173.017.36.017.591a16.653,16.653,0,0,1-.341,3.6,8.459,8.459,0,0,1-.949,2.53,4.29,4.29,0,0,1-1.436,1.5A3.436,3.436,0,0,1-8480.379-1373.008Zm-4.478-6.939v0a5.42,5.42,0,0,1-.034-.6v-.64a16.36,16.36,0,0,1,.35-3.607,8.75,8.75,0,0,1,.958-2.528,4.189,4.189,0,0,1,1.428-1.5,3.416,3.416,0,0,1,1.776-.489,3.539,3.539,0,0,1,2.317.813,5.568,5.568,0,0,1,1.578,2.5l-8.371,6.049Z" transform="translate(8517 1458)"/></g></svg>