<svg xmlns="http://www.w3.org/2000/svg" xmlns:xlink="http://www.w3.org/1999/xlink" width="100" height="100" viewBox="0 0 100 100"><defs><clipPath id="b"><rect width="100" height="100"/></clipPath></defs><g id="a" clip-path="url(#b)"><path d="M-8263.326-1176h-61.111a5.561,5.561,0,0,1-5.555-5.555V-1266H-8330v-4.444a5.564,5.564,0,0,1,5.56-5.555h40.555a2.78,2.78,0,0,1,2.778,2.776v3.891l0,13.331a3.337,3.337,0,0,0,3.332,3.334h17.218a2.779,2.779,0,0,1,2.776,2.776v10.557l0-11.693,0,69.471A5.56,5.56,0,0,1-8263.326-1176Zm-47.056-48.932h0c-.125.452-3.158,11.134-11.619,17.034v6.748a1.138,1.138,0,0,0,1.125,1.148h54.08a1.139,1.139,0,0,0,1.127-1.148v-6.5a26.933,26.933,0,0,1-11.051-3.295,33,33,0,0,1-8.262-6.042,18.561,18.561,0,0,1-2.51-3.055l0,.005a41.423,41.423,0,0,1-3.456,4.7c-1.844,2.145-4.55,4.7-6.966,4.7a3.19,3.19,0,0,1-1.378-.307c-2.483-1.184-5.337-4.825-7.294-7.67a48.811,48.811,0,0,1-3.792-6.316Zm34.013-6.069a3.985,3.985,0,0,0-3.943,4.018,3.987,3.987,0,0,0,3.943,4.02,3.986,3.986,0,0,0,3.942-4.02A3.985,3.985,0,0,0-8276.369-1231Z" transform="translate(8344 1276)"/><path d="M-7472.561-1265.565a2,2,0,0,1-2-2v-17.214a2,2,0,0,1,3.415-1.414l17.212,17.212a2,2,0,0,1-1.414,3.415Z" transform="translate(7539.561 1286.782)" opacity="0.5"/></g></svg>