<svg xmlns="http://www.w3.org/2000/svg" xmlns:xlink="http://www.w3.org/1999/xlink" width="100" height="100" viewBox="0 0 100 100"><defs><clipPath id="b"><rect width="100" height="100"/></clipPath></defs><g id="a" clip-path="url(#b)"><path d="M-10313.331-1358H-10360a10.012,10.012,0,0,1-10-10v-80a10.012,10.012,0,0,1,10-10h33.333a7.421,7.421,0,0,1,5.285,2.189l15.857,15.862a7.426,7.426,0,0,1,2.191,5.281V-1368A10.01,10.01,0,0,1-10313.331-1358Zm-35.67-43a3,3,0,0,0-3,3,3,3,0,0,0,3,3h9v9a3,3,0,0,0,3,3,3,3,0,0,0,3-3v-9h9a3,3,0,0,0,3-3,3,3,0,0,0-3-3h-9v-9a3,3,0,0,0-3-3,3,3,0,0,0-3,3v9Zm23.912-50.331a1.568,1.568,0,0,0-1.583,1.575v13.528a1.571,1.571,0,0,0,1.569,1.569h13.528a1.554,1.554,0,0,0,1.455-.968,1.552,1.552,0,0,0-.344-1.715l-13.525-13.525A1.531,1.531,0,0,0-10325.089-1451.333Z" transform="translate(10387 1458)"/></g></svg>