<svg xmlns="http://www.w3.org/2000/svg" xmlns:xlink="http://www.w3.org/1999/xlink" width="100" height="100" viewBox="0 0 100 100"><defs><clipPath id="b"><rect width="100" height="100"/></clipPath></defs><g id="a" clip-path="url(#b)"><path d="M-7470-1548a10.012,10.012,0,0,1-10-10v-80a10.012,10.012,0,0,1,10-10h33.334a7.424,7.424,0,0,1,5.288,2.191l15.855,15.859a7.425,7.425,0,0,1,2.19,5.281V-1558a10.011,10.011,0,0,1-10,10Zm-4-89v78a5.007,5.007,0,0,0,5,5h45a5.007,5.007,0,0,0,5-5v-65.66h-15.651a2.023,2.023,0,0,1-2.021-2.02V-1642H-7469A5.007,5.007,0,0,0-7474-1637Z" transform="translate(7497 1648)"/><path d="M-7963.895-1199.773h4.5c.134.92,1.257,1.528,2.539,1.528,1.426,0,2.3-.573,2.3-1.359,0-.752-.6-1.079-2.336-1.394l-2.146-.381c-2.976-.517-4.592-2.224-4.592-4.762,0-3.278,2.808-5.346,6.669-5.346,4.313,0,6.728,1.977,6.75,5.121h-4.345c-.034-1.011-1.033-1.606-2.314-1.606-1.245,0-2.031.517-2.031,1.325,0,.776.662,1.179,2.2,1.45l2.224.381c3.145.551,4.616,2.045,4.616,4.672,0,3.313-2.773,5.424-7.086,5.424C-7961.288-1194.719-7963.882-1196.538-7963.895-1199.773Zm-16.934-3.337c0-5.344,3.088-8.378,8.041-8.378,4.277,0,7.511,2.785,7.523,6.806h-4.56a2.984,2.984,0,0,0-2.963-3.066c-1.955,0-3.19,1.73-3.19,4.628,0,2.932,1.223,4.66,3.2,4.66a3.008,3.008,0,0,0,2.976-3.076h4.56c-.022,4.042-3.178,6.816-7.545,6.816C-7977.752-1194.719-7980.829-1197.763-7980.829-1203.109Zm36.565,8.109-4.919-16.206h5.48l2.6,11.693h.09l2.593-11.693h5.256l-4.919,16.206Z" transform="translate(8007 1276)" opacity="0.5"/></g></svg>