<svg xmlns="http://www.w3.org/2000/svg" xmlns:xlink="http://www.w3.org/1999/xlink" width="100" height="100" viewBox="0 0 100 100"><defs><clipPath id="b"><rect width="100" height="100"/></clipPath></defs><g id="a" clip-path="url(#b)"><path d="M-7423.333-1548H-7470a10.011,10.011,0,0,1-10-10v-80a10.011,10.011,0,0,1,10-10h33.334a7.43,7.43,0,0,1,5.287,2.19l15.855,15.86a7.421,7.421,0,0,1,2.19,5.281V-1558A10.01,10.01,0,0,1-7423.333-1548Zm-11.757-93.332a1.564,1.564,0,0,0-1.584,1.573v13.528a1.573,1.573,0,0,0,1.57,1.571h13.529a1.548,1.548,0,0,0,1.452-.97,1.549,1.549,0,0,0-.342-1.715l-13.526-13.526A1.531,1.531,0,0,0-7435.09-1641.332Z" transform="translate(7497.001 1648)"/></g></svg>