<svg xmlns="http://www.w3.org/2000/svg" xmlns:xlink="http://www.w3.org/1999/xlink" width="100" height="100" viewBox="0 0 100 100"><defs><clipPath id="b"><rect width="100" height="100"/></clipPath></defs><g id="a" clip-path="url(#b)"><path d="M-9293.332-1358H-9340a10.011,10.011,0,0,1-10-10v-80a10.011,10.011,0,0,1,10-10h33.335a7.417,7.417,0,0,1,5.284,2.189l15.858,15.86a7.427,7.427,0,0,1,2.189,5.282V-1368A10.01,10.01,0,0,1-9293.332-1358Zm-21.135-50-20.532,3.642v26.92l20.532,3.548V-1408Zm1.889,25.587v3.51h12.814c.515,0,.765-.263.765-.8v-22.473a.672.672,0,0,0-.765-.765h-12.824v4.78a4.5,4.5,0,0,1,2.783-.882v4.646h4.611a4.623,4.623,0,0,1-1.352,3.29,4.592,4.592,0,0,1-3.283,1.373,4.8,4.8,0,0,1-2.743-.922v3.194h10.078v1.568h-10.08v1.941h10.073v1.546Zm7.49-68.92a1.568,1.568,0,0,0-1.584,1.574v13.528a1.571,1.571,0,0,0,1.569,1.57h13.528a1.558,1.558,0,0,0,1.455-.969,1.551,1.551,0,0,0-.343-1.713l-13.525-13.528A1.544,1.544,0,0,0-9305.088-1451.333Zm-20.763,67.156h0l-2.7-.314v-14.1l4.289-.223c.143-.009.286-.014.427-.014a6.642,6.642,0,0,1,1.92.284,3.217,3.217,0,0,1,1.835,1.384,4.942,4.942,0,0,1,.765,2.405,5.889,5.889,0,0,1-.366,2.532,4.143,4.143,0,0,1-2.524,2.5,9.69,9.69,0,0,1-2.951.441c-.226,0-.459-.007-.693-.021v5.131Zm.04-7.6c.21.013.406.019.6.019s.4-.006.636-.019a2.919,2.919,0,0,0,1.214-.338,2,2,0,0,0,.842-1.37,3.784,3.784,0,0,0-.1-1.668v.068a1.445,1.445,0,0,0-.4-.706,1.63,1.63,0,0,0-.726-.371,3.914,3.914,0,0,0-1.032-.134l-1.082.021v4.5Zm21.37-3.386h-4.639v-4.686a4.635,4.635,0,0,1,3.282,1.366,4.647,4.647,0,0,1,1.356,3.319Z" transform="translate(9367 1458)"/></g></svg>