<svg xmlns="http://www.w3.org/2000/svg" xmlns:xlink="http://www.w3.org/1999/xlink" width="100" height="100" viewBox="0 0 100 100"><defs><clipPath id="b"><rect width="100" height="100"/></clipPath></defs><g id="a" clip-path="url(#b)"><path d="M-7933.333-1358H-7980a10.011,10.011,0,0,1-10-10v-80a10.011,10.011,0,0,1,10-10h33.335a7.427,7.427,0,0,1,5.286,2.19l15.857,15.859a7.433,7.433,0,0,1,2.189,5.282V-1368A10.011,10.011,0,0,1-7933.333-1358Zm-30.562-23.774a4.378,4.378,0,0,0,1.851,3.739,8.769,8.769,0,0,0,5.1,1.314c4.3,0,7.086-2.129,7.086-5.424,0-2.635-1.467-4.12-4.616-4.672l-2.224-.381c-1.564-.273-2.2-.693-2.2-1.45,0-.8.8-1.323,2.033-1.323,1.352,0,2.282.645,2.314,1.6h4.345c-.022-3.205-2.545-5.119-6.75-5.119-3.99,0-6.671,2.148-6.671,5.344,0,2.558,1.632,4.249,4.594,4.762l2.146.383c1.769.318,2.336.656,2.336,1.392,0,.813-.925,1.36-2.3,1.36-1.342,0-2.41-.643-2.539-1.528Zm-8.9-11.713c-5.035,0-8.041,3.132-8.041,8.378s3.006,8.388,8.041,8.388c4.422,0,7.525-2.8,7.547-6.816h-4.56a3,3,0,0,1-2.976,3.076c-2,0-3.2-1.742-3.2-4.66a5.976,5.976,0,0,1,.862-3.4,2.734,2.734,0,0,1,2.327-1.226,2.983,2.983,0,0,1,2.965,3.066h4.56C-7965.276-1390.623-7968.44-1393.485-7972.79-1393.485Zm23.607.281,4.919,16.2h6.176l4.919-16.2h-5.256l-2.595,11.691h-.088l-2.6-11.691h-5.48Zm4.093-58.127a1.564,1.564,0,0,0-1.584,1.574v13.527a1.574,1.574,0,0,0,1.572,1.572h13.529a1.549,1.549,0,0,0,1.452-.971,1.553,1.553,0,0,0-.343-1.714l-13.525-13.525A1.535,1.535,0,0,0-7945.089-1451.332Z" transform="translate(8007 1458)"/></g></svg>