<svg xmlns="http://www.w3.org/2000/svg" xmlns:xlink="http://www.w3.org/1999/xlink" width="100" height="100" viewBox="0 0 100 100"><defs><clipPath id="b"><rect width="100" height="100"/></clipPath></defs><g id="a" clip-path="url(#b)"><path d="M-8660-1176a10.012,10.012,0,0,1-10-10v-80a10.013,10.013,0,0,1,10-10h33.335a7.43,7.43,0,0,1,5.287,2.191l15.854,15.858a7.431,7.431,0,0,1,2.193,5.283V-1186a10.011,10.011,0,0,1-10,10Zm-4-89v78a5.006,5.006,0,0,0,5,5h45a5,5,0,0,0,5-5v-65.659h-15.651a2.022,2.022,0,0,1-2.02-2.019V-1270H-8659A5.006,5.006,0,0,0-8664-1265Zm9,75a3,3,0,0,1-3-3,3,3,0,0,1,3-3h37a3,3,0,0,1,3,3,3,3,0,0,1-3,3Zm0-10a3,3,0,0,1-3-3,3,3,0,0,1,3-3h37a3,3,0,0,1,3,3,3,3,0,0,1-3,3Zm16-13v-5.535l-4.794,2.768a2,2,0,0,1-2.732-.731,2,2,0,0,1,.732-2.733L-8641-1222l-4.792-2.768a2,2,0,0,1-.732-2.731,2,2,0,0,1,2.732-.733l4.794,2.768V-1231a2,2,0,0,1,2-2,2,2,0,0,1,2,2v5.533l4.791-2.766a2,2,0,0,1,2.733.733,2,2,0,0,1-.731,2.731L-8633-1222l4.793,2.768a2,2,0,0,1,.731,2.733,2,2,0,0,1-2.733.731l-4.791-2.766V-1213a2,2,0,0,1-2,2A2,2,0,0,1-8639-1213Z" transform="translate(8687 1276)"/></g></svg>