<svg xmlns="http://www.w3.org/2000/svg" xmlns:xlink="http://www.w3.org/1999/xlink" width="100" height="100" viewBox="0 0 100 100"><defs><clipPath id="b"><rect width="100" height="100"/></clipPath></defs><g id="a" clip-path="url(#b)"><path d="M-10020-1176a10.013,10.013,0,0,1-10-10v-80a10.011,10.011,0,0,1,10-10h33.332a7.41,7.41,0,0,1,5.286,2.193l15.858,15.858a7.424,7.424,0,0,1,2.19,5.281V-1186a10.011,10.011,0,0,1-10,10Zm-4-89v78a5.007,5.007,0,0,0,5,5h45a5,5,0,0,0,5-5v-65.661h-15.649a2.022,2.022,0,0,1-2.021-2.019V-1270H-10019A5.01,5.01,0,0,0-10024-1265Zm19.131,67.677-2.937-2.937-7.975-7.974a4.157,4.157,0,0,1,0-5.875,4.152,4.152,0,0,1,5.875,0l7.975,7.972,18.887-18.884a4.152,4.152,0,0,1,5.875,0,4.157,4.157,0,0,1,0,5.875L-9999-1197.32a4.143,4.143,0,0,1-2.937,1.216A4.143,4.143,0,0,1-10004.871-1197.32Z" transform="translate(10047 1276)"/></g></svg>