<svg xmlns="http://www.w3.org/2000/svg" xmlns:xlink="http://www.w3.org/1999/xlink" width="100" height="100" viewBox="0 0 100 100"><defs><clipPath id="b"><rect width="100" height="100"/></clipPath></defs><g id="a" clip-path="url(#b)"><path d="M-9973.33-1358H-10020a10.011,10.011,0,0,1-10-10v-80a10.011,10.011,0,0,1,10-10h33.332a7.426,7.426,0,0,1,5.286,2.187l15.858,15.861a7.436,7.436,0,0,1,2.19,5.281V-1368A10.01,10.01,0,0,1-9973.33-1358Zm-39.515-39.326a4.126,4.126,0,0,0-2.938,1.218,4.159,4.159,0,0,0,0,5.875l7.975,7.974,2.938,2.938a4.127,4.127,0,0,0,2.938,1.216,4.127,4.127,0,0,0,2.938-1.216l21.824-21.824a4.16,4.16,0,0,0,0-5.875,4.13,4.13,0,0,0-2.938-1.216,4.126,4.126,0,0,0-2.937,1.216l-18.887,18.886-7.975-7.974A4.12,4.12,0,0,0-10012.845-1397.326Zm27.757-54.007a1.567,1.567,0,0,0-1.584,1.573v13.53a1.571,1.571,0,0,0,1.568,1.571h13.53a1.552,1.552,0,0,0,1.452-.969,1.551,1.551,0,0,0-.34-1.717l-13.527-13.525A1.53,1.53,0,0,0-9985.088-1451.333Z" transform="translate(10047 1458)"/></g></svg>