<svg xmlns="http://www.w3.org/2000/svg" xmlns:xlink="http://www.w3.org/1999/xlink" width="100" height="100" viewBox="0 0 100 100"><defs><clipPath id="b"><rect width="100" height="100"/></clipPath></defs><g id="a" clip-path="url(#b)"><path d="M-7923.327-1176h-61.111a5.561,5.561,0,0,1-5.555-5.554V-1266H-7990v-4.446a5.563,5.563,0,0,1,5.559-5.555h40.556a2.78,2.78,0,0,1,2.777,2.777v3.89h0V-1256a3.337,3.337,0,0,0,3.333,3.333h17.217a2.781,2.781,0,0,1,2.779,2.777v10.557l0-11.693,0,69.469A5.561,5.561,0,0,1-7923.327-1176Zm-38.462-25.516c.129,3.939,3.368,6.387,8.452,6.387,5.285,0,8.568-2.565,8.568-6.693,0-3.211-1.875-5.046-6.078-5.948l-2.564-.541c-2.456-.563-3.457-1.314-3.457-2.593,0-1.56,1.466-2.609,3.647-2.609a4.657,4.657,0,0,1,2.738.766,2.807,2.807,0,0,1,1.188,2.106h4.145c-.072-3.861-3.246-6.357-8.085-6.357-4.76,0-8.085,2.663-8.085,6.475,0,3.089,1.957,5.076,5.815,5.9l2.753.6c2.562.574,3.559,1.334,3.559,2.711,0,1.577-1.633,2.679-3.97,2.679a5.525,5.525,0,0,1-2.983-.789,2.881,2.881,0,0,1-1.38-2.1ZM-7972.994-1217c-6.172,0-10.006,4.187-10.006,10.927s3.834,10.943,10.006,10.943c5.156,0,8.807-3.024,9.3-7.7H-7968a4.892,4.892,0,0,1-1.684,2.96,5.148,5.148,0,0,1-3.3,1.082c-3.4,0-5.509-2.8-5.509-7.3a8.692,8.692,0,0,1,1.494-5.3,4.85,4.85,0,0,1,4-1.955,4.984,4.984,0,0,1,3.3,1.173,5.07,5.07,0,0,1,1.677,3.118h4.307C-7964.042-1213.729-7967.86-1217-7972.994-1217Zm29.338.365h0l7.1,21.139h5.332l7.1-21.139h-4.819l-4.834,16.583h-.1l-4.835-16.583Z" transform="translate(8004 1276)"/><path d="M-7472.561-1265.565a2,2,0,0,1-2-2v-17.214a2,2,0,0,1,3.415-1.414l17.212,17.212a2,2,0,0,1-1.414,3.415Z" transform="translate(7539.561 1286.782)" opacity="0.5"/></g></svg>