<svg xmlns="http://www.w3.org/2000/svg" xmlns:xlink="http://www.w3.org/1999/xlink" width="100" height="100" viewBox="0 0 100 100"><defs><clipPath id="b"><rect width="100" height="100"/></clipPath></defs><g id="a" clip-path="url(#b)"><path d="M-7470-1548a10.012,10.012,0,0,1-10-10v-80a10.012,10.012,0,0,1,10-10h33.334a7.424,7.424,0,0,1,5.288,2.191l15.855,15.859a7.425,7.425,0,0,1,2.19,5.281V-1558a10.011,10.011,0,0,1-10,10Zm-4-89v78a5.007,5.007,0,0,0,5,5h45a5.007,5.007,0,0,0,5-5v-65.66h-15.651a2.023,2.023,0,0,1-2.021-2.02V-1642H-7469A5.007,5.007,0,0,0-7474-1637Z" transform="translate(7497 1648)"/><path d="M-8150-1176Zm25.754-21.374a2.572,2.572,0,0,1,0-3.639l9.1-9.1-9.1-9.095a2.572,2.572,0,0,1,0-3.639,2.567,2.567,0,0,1,1.818-.754,2.572,2.572,0,0,1,1.821.754l10.915,10.915a2.575,2.575,0,0,1,0,3.639l-10.915,10.915a2.567,2.567,0,0,1-1.818.754A2.572,2.572,0,0,1-8124.246-1197.373Zm-9.084,0-10.915-10.915a2.571,2.571,0,0,1,0-3.639l10.915-10.915a2.558,2.558,0,0,1,1.818-.754,2.563,2.563,0,0,1,1.821.754,2.576,2.576,0,0,1,0,3.639l-9.1,9.095,9.1,9.1a2.576,2.576,0,0,1,0,3.639,2.567,2.567,0,0,1-1.818.754A2.572,2.572,0,0,1-8133.33-1197.373Z" transform="translate(8177 1276)" opacity="0.5"/></g></svg>