<svg xmlns="http://www.w3.org/2000/svg" xmlns:xlink="http://www.w3.org/1999/xlink" width="100" height="100" viewBox="0 0 100 100"><defs><clipPath id="b"><rect width="100" height="100"/></clipPath></defs><g id="a" clip-path="url(#b)"><path d="M-9814.1-324.088c-5.379,0-9.73-1.45-13.937-2.852-3.709-1.236-7.213-2.4-11.033-2.4A43.648,43.648,0,0,0-9854-326.928V-368.82a8.561,8.561,0,0,0,4.18-6.225,29.917,29.917,0,0,1,6.811-.772c5.377,0,9.729,1.45,13.936,2.852,3.709,1.236,7.213,2.4,11.031,2.4,6.566,0,13.232-2.746,17.674-4.812a4.844,4.844,0,0,1,2.043-.457,4.843,4.843,0,0,1,4.834,4.843v36.74a4.827,4.827,0,0,1-2.092,3.986C-9801.734-326.05-9807.615-324.088-9814.1-324.088Z" transform="translate(9879.766 384.701)" opacity="0.5"/><path d="M-9852.55-280a3.193,3.193,0,0,1-3.2-3.191v-80.928a8.507,8.507,0,0,1-4.254-7.373,8.509,8.509,0,0,1,8.514-8.508,8.509,8.509,0,0,1,8.508,8.508,8.513,8.513,0,0,1-4.256,7.374v80.927a3.191,3.191,0,0,1-3.189,3.191Z" transform="translate(9872.998 379.999)"/></g></svg>