<svg xmlns="http://www.w3.org/2000/svg" xmlns:xlink="http://www.w3.org/1999/xlink" width="100" height="100" viewBox="0 0 100 100"><defs><clipPath id="b"><rect width="100" height="100"/></clipPath></defs><g id="a" clip-path="url(#b)"><path d="M-7568.972-1022.405h-15.412v0H-7649.1a.891.891,0,0,1-.737-.3.96.96,0,0,1-.123-.806l17.294-51.884a1.141,1.141,0,0,1,.564-.574,2.862,2.862,0,0,1,1.073-.136h15.412l0,0h64.715a.9.9,0,0,1,.737.3.969.969,0,0,1,.123.81l-17.294,51.88a1.149,1.149,0,0,1-.564.578,2.525,2.525,0,0,1-.893.138C-7568.9-1022.4-7568.972-1022.405-7568.972-1022.405Zm-81.025-17v-44.442c0-.025,0-.05,0-.075v-6.714c0-1.853,1.868-3.358,4.165-3.358h19.4c.117,0,.234,0,.359.013.121-.011.244-.015.357-.015a3.95,3.95,0,0,1,1.993.516l9.264,5.614,0,0a4.022,4.022,0,0,0,1.073.445,5.659,5.659,0,0,0,1.219.132h48.3a3.364,3.364,0,0,1,3.36,3.36v3.828h-59.111l-15.411,0s-.073-.006-.18-.006a2.5,2.5,0,0,0-.9.14,1.156,1.156,0,0,0-.564.574l-13.328,39.98Z" transform="translate(7650 1108)"/></g></svg>