<svg xmlns="http://www.w3.org/2000/svg" xmlns:xlink="http://www.w3.org/1999/xlink" width="100" height="100" viewBox="0 0 100 100"><defs><clipPath id="b"><rect width="100" height="100"/></clipPath></defs><g id="a" clip-path="url(#b)"><path d="M-7723.75-1014h-92.5c-2.068,0-3.75-2.019-3.75-4.5v-51c0-2.481,1.683-4.5,3.75-4.5h92.5c2.068,0,3.75,2.019,3.75,4.5v51C-7720-1016.017-7721.683-1014-7723.75-1014Zm-65.746-33a3,3,0,0,0-3,3,3,3,0,0,0,3,3h16.5v16.5a3,3,0,0,0,3,3,3,3,0,0,0,3-3V-1041h16.5a3,3,0,0,0,3-3,3,3,0,0,0-3-3H-7767v-16.5a3,3,0,0,0-3-3,3,3,0,0,0-3,3v16.5Zm-30.459-29.5h0l-.04,0v-6.076c0-.015,0-.03,0-.044s0-.027,0-.038c0-.03,0-.057,0-.086v-7.5c0-2.07,2.089-3.754,4.657-3.754h21.674c.124,0,.252,0,.4.016.129-.011.268-.018.4-.018a4.4,4.4,0,0,1,2.224.579l10.351,6.274.007,0,.009.005a4.684,4.684,0,0,0,1.191.489,6.316,6.316,0,0,0,1.36.147h53.971a3.759,3.759,0,0,1,3.754,3.754v6.247l-.04,0a1.875,1.875,0,0,0-1.839-1.5h-96.24a1.879,1.879,0,0,0-1.837,1.5v0Z" transform="translate(7820 1104)"/></g></svg>