<svg xmlns="http://www.w3.org/2000/svg" xmlns:xlink="http://www.w3.org/1999/xlink" width="100" height="100" viewBox="0 0 100 100"><defs><clipPath id="b"><rect width="100" height="100"/></clipPath></defs><g id="a" clip-path="url(#b)"><path d="M-7893.75-1014h-92.5c-2.068,0-3.751-2.02-3.751-4.5v-51c0-2.481,1.683-4.5,3.751-4.5h92.5c2.067,0,3.75,2.019,3.75,4.5v51C-7890-1016.018-7891.682-1014-7893.75-1014Zm-65.748-33a3,3,0,0,0-3,3,3,3,0,0,0,3,3h39a3,3,0,0,0,3-3,3,3,0,0,0-3-3h-39Zm-30.458-29.5h0l-.04,0v-6.076c0-.014,0-.029,0-.043s0-.027,0-.039c0-.028,0-.056,0-.084v-7.5c0-2.071,2.089-3.756,4.656-3.756h21.676c.123,0,.254.005.4.016.119-.011.25-.016.4-.016a4.426,4.426,0,0,1,2.224.578l10.351,6.274.01.006a4.616,4.616,0,0,0,1.2.493,6.466,6.466,0,0,0,1.361.148h53.971a3.757,3.757,0,0,1,3.754,3.752v6.246l-.038,0a1.881,1.881,0,0,0-1.841-1.5h-96.241a1.879,1.879,0,0,0-1.835,1.5v0Z" transform="translate(7990 1104)"/></g></svg>