<svg xmlns="http://www.w3.org/2000/svg" xmlns:xlink="http://www.w3.org/1999/xlink" width="100" height="100" viewBox="0 0 100 100"><defs><clipPath id="b"><rect width="100" height="100"/></clipPath></defs><g id="a" clip-path="url(#b)"><path d="M-8114.156-1014h-42.094c-2.067,0-3.75-2.019-3.75-4.5v-51c0-2.481,1.682-4.5,3.75-4.5h92.5c2.069,0,3.752,2.018,3.752,4.5v51c0,2.482-1.683,4.5-3.752,4.5h-41.773v-27.911l.252-.092,4.958,4.96a4.393,4.393,0,0,0,3.127,1.295,4.4,4.4,0,0,0,3.129-1.295,4.4,4.4,0,0,0,1.294-3.127,4.4,4.4,0,0,0-1.294-3.127l-12.508-12.508a4.394,4.394,0,0,0-3.127-1.295,4.393,4.393,0,0,0-3.127,1.295l-12.509,12.508a4.391,4.391,0,0,0-1.294,3.125,4.4,4.4,0,0,0,1.3,3.129,4.388,4.388,0,0,0,3.125,1.295,4.392,4.392,0,0,0,3.126-1.295l4.919-4.919V-1014Zm-45.8-62.5h0l-.039,0v-6.078c0-.013,0-.027,0-.041s0-.028,0-.041c0-.029,0-.055,0-.084v-7.5c0-2.071,2.088-3.756,4.655-3.756h21.677c.124,0,.251.005.4.016.117-.011.248-.016.4-.016a4.419,4.419,0,0,1,2.226.578l10.35,6.273a4.447,4.447,0,0,0,1.206.5,6.414,6.414,0,0,0,1.36.15h53.97a3.758,3.758,0,0,1,3.756,3.752v6.248l-.039,0a1.88,1.88,0,0,0-1.841-1.5h-96.241a1.878,1.878,0,0,0-1.835,1.5v0Z" transform="translate(8160 1104)"/></g></svg>