<svg xmlns="http://www.w3.org/2000/svg" xmlns:xlink="http://www.w3.org/1999/xlink" width="100" height="100" viewBox="0 0 100 100"><defs><clipPath id="b"><rect width="100" height="100"/></clipPath></defs><g id="a" clip-path="url(#b)"><path d="M-8403.751-1014h-92.5c-2.067,0-3.75-2.019-3.75-4.5v-51c0-2.482,1.683-4.5,3.75-4.5h92.5c2.069,0,3.752,2.019,3.752,4.5v51C-8400-1016.017-8401.682-1014-8403.751-1014Zm-40.353-36.792a9.906,9.906,0,0,0-9.9,9.894,9.884,9.884,0,0,0,9.373,9.881v.015h27.083v-.017a7.827,7.827,0,0,0,7.29-7.795,7.821,7.821,0,0,0-7.812-7.812,7.73,7.73,0,0,0-4.744,1.606,10.484,10.484,0,0,0,.058-1.086,9.906,9.906,0,0,0-9.894-9.9,9.839,9.839,0,0,0-8.892,5.544A9.911,9.911,0,0,0-8444.1-1050.789Zm-55.852-25.707h0l-.039,0v-6.075a.184.184,0,0,0,0-.023v-.021c0-.013,0-.026,0-.038,0-.028,0-.055,0-.085v-7.5c0-2.07,2.088-3.755,4.654-3.755h21.678c.139,0,.274.007.4.015.141-.011.274-.017.4-.017a4.424,4.424,0,0,1,2.225.578l10.353,6.274,0,0a4.6,4.6,0,0,0,1.2.5,6.464,6.464,0,0,0,1.363.149h53.968a3.759,3.759,0,0,1,3.757,3.752v6.246l-.04,0a1.878,1.878,0,0,0-1.839-1.5h-96.24a1.876,1.876,0,0,0-1.837,1.5h0Z" transform="translate(8500 1104)"/></g></svg>