<svg xmlns="http://www.w3.org/2000/svg" xmlns:xlink="http://www.w3.org/1999/xlink" width="100" height="100" viewBox="0 0 100 100"><defs><clipPath id="b"><rect width="100" height="100"/></clipPath></defs><g id="a" clip-path="url(#b)"><path d="M-7476.25-1014c-2.073,0-3.751-2.016-3.751-4.5v-51c0-2.485,1.678-4.5,3.751-4.5h92.5c2.073,0,3.751,2.014,3.751,4.5v51c0,2.485-1.678,4.5-3.751,4.5Zm-3.708-62.5-.04,0v-6.077c0-.028,0-.056,0-.083s0-.056,0-.084v-7.5c0-2.071,2.087-3.755,4.656-3.755h21.676c.133,0,.265.006.4.015.131-.011.269-.017.4-.017a4.419,4.419,0,0,1,2.224.578l10.351,6.274a4.548,4.548,0,0,0,1.206.5,6.34,6.34,0,0,0,1.361.148h53.97a3.758,3.758,0,0,1,3.755,3.753v6.247l-.04,0a1.875,1.875,0,0,0-1.84-1.5h-96.24a1.879,1.879,0,0,0-1.836,1.5v0Z" transform="translate(7480 1104)"/></g></svg>