<svg xmlns="http://www.w3.org/2000/svg" xmlns:xlink="http://www.w3.org/1999/xlink" width="100" height="100" viewBox="0 0 100 100"><defs><clipPath id="b"><rect width="100" height="100"/></clipPath></defs><g id="a" clip-path="url(#b)"><path d="M-8233.752-1014h-92.5c-2.068,0-3.751-2.019-3.751-4.5v-51c0-2.481,1.683-4.5,3.751-4.5h92.5c2.069,0,3.753,2.018,3.753,4.5v51C-8230-1016.018-8231.683-1014-8233.752-1014Zm-26.545-27.786c-1.585,0-3.705.288-4.8,1.661-1.144,1.431-1.879,5.255-1.886,5.293,0,.016-.27,1.549,1.886,2.268a38.713,38.713,0,0,0,11.342,1.417,38.7,38.7,0,0,0,11.339-1.417c2.1-.7,1.927-2.2,1.919-2.268-.032-.161-.787-3.879-1.919-5.294-1.1-1.373-3.217-1.661-4.8-1.661a13.258,13.258,0,0,0-2,.149,11.991,11.991,0,0,1-4.537,1.512,11.865,11.865,0,0,1-4.537-1.511A13.14,13.14,0,0,0-8260.3-1041.785Zm6.539-14.215a6.055,6.055,0,0,0-6.048,6.048,6.055,6.055,0,0,0,6.048,6.048,6.055,6.055,0,0,0,6.048-6.048A6.055,6.055,0,0,0-8253.758-1056Zm-76.2-20.5H-8330v-6.077c0-.015,0-.029,0-.043a.141.141,0,0,0,0-.02v-.02c0-.027,0-.057,0-.084v-7.5c0-2.07,2.089-3.755,4.656-3.755h21.677c.142,0,.269,0,.4.015.141-.011.274-.017.4-.017a4.441,4.441,0,0,1,2.225.577l10.352,6.274a4.468,4.468,0,0,0,1.205.5,6.285,6.285,0,0,0,1.36.148h53.97a3.759,3.759,0,0,1,3.757,3.753v6.249l-.039,0a1.88,1.88,0,0,0-1.84-1.5h-96.241a1.878,1.878,0,0,0-1.836,1.5Z" transform="translate(8330 1104)"/></g></svg>