<svg xmlns="http://www.w3.org/2000/svg" xmlns:xlink="http://www.w3.org/1999/xlink" width="100" height="100" viewBox="0 0 100 100"><defs><clipPath id="b"><rect width="100" height="100"/></clipPath></defs><g id="a" clip-path="url(#b)"><path d="M5.455,0H94.545A5.455,5.455,0,0,1,100,5.455a40,40,0,0,1-40,40H40a40,40,0,0,1-40-40A5.455,5.455,0,0,1,5.455,0Z" transform="translate(0 41.437)"/><path d="M-8424.616-159.563h-17.647l10.3-20.867a3.611,3.611,0,0,1,3.263-2.027,3.6,3.6,0,0,1,2.133.7l2.594,1.885.727-6.9A1.362,1.362,0,0,1-8421.9-188a1.4,1.4,0,0,1,.147.008,1.354,1.354,0,0,1,.916.5,1.351,1.351,0,0,1,.293,1l-.651,6.241,3.4-4.681a1.372,1.372,0,0,1,1.107-.562,1.352,1.352,0,0,1,.8.26,1.351,1.351,0,0,1,.545.892,1.361,1.361,0,0,1-.243,1.017l-3.4,4.678,5.725-2.552a1.364,1.364,0,0,1,.551-.116,1.373,1.373,0,0,1,1.253.81,1.364,1.364,0,0,1-.694,1.8l-6.342,2.827,2.6,1.885a3.63,3.63,0,0,1,1.485,2.677,3.628,3.628,0,0,1-1.086,2.866l-9.127,8.9Zm-31.024,0H-8492a18.2,18.2,0,0,1,18.182-18.187,18.286,18.286,0,0,1,3.766.392,6.364,6.364,0,0,0,2.94,4.142,8.706,8.706,0,0,1,.252-2.727c.607-2.341,1.172-4.2,2.433-5.081a1.687,1.687,0,0,1,.966-.309,1.778,1.778,0,0,1,1.373.667,1.383,1.383,0,0,1,.268,1.205c-.163.65-.857,1.105-1.663,1.632a6.673,6.673,0,0,0-2.259,2.041,4.406,4.406,0,0,0-.534,3,6.3,6.3,0,0,0,2.459.5,6.306,6.306,0,0,0,2.477-.5,18.025,18.025,0,0,1,5.7,13.226l0,0Z" transform="translate(8506.547 201.001)" opacity="0.5"/></g></svg>