<svg xmlns="http://www.w3.org/2000/svg" xmlns:xlink="http://www.w3.org/1999/xlink" width="100" height="100" viewBox="0 0 100 100"><defs><clipPath id="b"><rect width="100" height="100"/></clipPath></defs><g id="a" clip-path="url(#b)"><path d="M-3565.3-16952.17a19.2,19.2,0,0,1-9.353-4.646,19.21,19.21,0,0,1-4.647-9.354,45.148,45.148,0,0,1-.721-13.785l28.5,28.5c-1.642.145-3.253.217-4.816.217A40.045,40.045,0,0,1-3565.3-16952.17Zm13.779.715h.005Zm-26.3-40.5a80.807,80.807,0,0,1,7.659-18.441,81.479,81.479,0,0,1,13.273-17.48,81.532,81.532,0,0,1,17.485-13.277,80.762,80.762,0,0,1,18.437-7.654l38.309,38.309a80.824,80.824,0,0,1-7.653,18.438,81.507,81.507,0,0,1-13.279,17.484,81.516,81.516,0,0,1-17.484,13.271,80.346,80.346,0,0,1-18.437,7.656Zm23.6-1.279a2.509,2.509,0,0,0,0,3.555l6.212,6.217,6.223,6.219a2.513,2.513,0,0,0,3.55,0,2.511,2.511,0,0,0,0-3.557l-4.437-4.443,4.437-4.436,4.442,4.436a2.509,2.509,0,0,0,3.555,0,2.51,2.51,0,0,0,0-3.547l-4.442-4.443,4.442-4.441,4.442,4.441a2.513,2.513,0,0,0,3.549,0,2.516,2.516,0,0,0,0-3.557l-4.437-4.436,4.437-4.443,4.443,4.443a2.52,2.52,0,0,0,3.555,0,2.519,2.519,0,0,0,0-3.555l-4.443-4.445,4.443-4.439,4.442,4.439a2.51,2.51,0,0,0,3.55,0,2.511,2.511,0,0,0,0-3.553l-12.435-12.434a2.513,2.513,0,0,0-3.555,0,2.514,2.514,0,0,0,0,3.551l4.443,4.436-4.443,4.443-4.437-4.437a2.509,2.509,0,0,0-3.555,0,2.514,2.514,0,0,0,0,3.551l4.437,4.439-4.437,4.445-4.442-4.445a2.523,2.523,0,0,0-3.555,0,2.521,2.521,0,0,0,0,3.557l4.442,4.443-4.442,4.436-4.437-4.436a2.514,2.514,0,0,0-3.555,0,2.514,2.514,0,0,0,0,3.551l4.437,4.441-4.437,4.443-4.442-4.443a2.487,2.487,0,0,0-1.772-.736A2.5,2.5,0,0,0-3554.211-16993.238Zm73.757-29.285-28.494-28.494a44.889,44.889,0,0,1,13.779.717,19.013,19.013,0,0,1,9.353,4.652c4.324,4.328,6.281,12.756,5.367,23.125v0Z" transform="translate(3580.228 17051.234)"/></g></svg>