<svg xmlns="http://www.w3.org/2000/svg" xmlns:xlink="http://www.w3.org/1999/xlink" width="100" height="100" viewBox="0 0 100 100"><defs><clipPath id="b"><rect width="100" height="100"/></clipPath></defs><g id="a" clip-path="url(#b)"><path d="M-10978-305v-24a4.006,4.006,0,0,1,4-4h24v7h-19a1.793,1.793,0,0,0-2,2v19Zm-51,0v-19a1.794,1.794,0,0,0-2-2h-19v-7h24a4,4,0,0,1,4,4v24Zm-21-47v-7h19a1.794,1.794,0,0,0,2-2v-19h7v24a4,4,0,0,1-4,4Zm76,0a4,4,0,0,1-4-4v-24h7v19a1.8,1.8,0,0,0,2,2h19v7Z" transform="translate(11050 392.5)"/></g></svg>