<svg xmlns="http://www.w3.org/2000/svg" xmlns:xlink="http://www.w3.org/1999/xlink" width="100" height="100" viewBox="0 0 100 100"><defs><clipPath id="b"><rect width="100" height="100"/></clipPath></defs><g id="a" clip-path="url(#b)"><path d="M85.672-419.814c-5.24.946-10.347,2.729-17.1,5.968-4.33,2.087-4.4,2.147-2.584,2.366,6.635.776,15.453,3.918,15.636,5.567.17,1.48-1.055,2.05-2.669,1.24-5.046-2.547-10.444-3.76-20.815-4.7a137.811,137.811,0,0,1-15.041-1.88c-10.7-1.893-15.939-1.14-19.929,2.863-6.291,6.319-5.139,15.915,2.547,21.142,9.049,6.138,20.548,4.039,33.1-6.053,2.644-2.135,3.469-2.438,4.258-1.565.861.946.546,1.552-1.844,3.456-9.534,7.63-19.153,11.414-26.5,10.419-1.063-.145-2.159-.279-2.426-.315s-.473.049-.449.182c.089.51.813,7.108.946,8.491.182,2.087.354,3.554,1.092,9.946.279,2.4.595,5.968.716,7.921.315,5.6.424,5.665,6.575,3.748,14.277-4.439,23.2-5.01,43.158-2.778,15.186,1.7,17.831-1.273,16.835-18.923l-.17-2.9-2.85.134c-6.187.266-12.421-1.443-18.631-5.119-3.721-2.2-4.488-3.226-3.226-4.367.691-.62,1.152-.5,3.278.909,14.459,9.558,31.355,6.562,37.627-6.671C125.082-407.356,107.373-423.707,85.672-419.814Z" transform="translate(-19.109 435.394)"/></g></svg>