<svg xmlns="http://www.w3.org/2000/svg" xmlns:xlink="http://www.w3.org/1999/xlink" width="100" height="100" viewBox="0 0 100 100"><defs><clipPath id="b"><rect width="100" height="100"/></clipPath></defs><g id="a" clip-path="url(#b)"><path d="M98.109,45.543,54.446,1.884a6.456,6.456,0,0,0-9.117,0l-9.046,9.063,11.5,11.5a7.659,7.659,0,0,1,9.7,9.754L68.555,43.284a7.655,7.655,0,1,1-4.6,4.346L53.584,37.314V64.5a7.668,7.668,0,1,1-8.838,1.458,7.849,7.849,0,0,1,2.521-1.692V36.814a7.671,7.671,0,0,1-4.15-10.042l-11.3-11.354L1.875,45.339a6.484,6.484,0,0,0,0,9.121L45.542,98.114a6.438,6.438,0,0,0,9.108,0L98.109,54.655a6.435,6.435,0,0,0,0-9.113" transform="translate(0 0)"/></g></svg>