<svg xmlns="http://www.w3.org/2000/svg" xmlns:xlink="http://www.w3.org/1999/xlink" width="100" height="100" viewBox="0 0 100 100"><defs><clipPath id="b"><rect width="100" height="100"/></clipPath></defs><g id="a" clip-path="url(#b)"><path d="M-8293.792,94.883-8320.8,67.87a2.73,2.73,0,0,1,0-3.859l3.857-3.857a2.729,2.729,0,0,1,3.861,0l27.013,27.013a2.727,2.727,0,0,1,0,3.859l-3.856,3.857a2.723,2.723,0,0,1-1.932.8A2.719,2.719,0,0,1-8293.792,94.883Zm9.648-9.646-27.013-27.013a2.725,2.725,0,0,1,0-3.857l3.859-3.859a2.729,2.729,0,0,1,3.857,0l27.013,27.013a2.73,2.73,0,0,1,0,3.857l-3.859,3.859a2.725,2.725,0,0,1-1.932.8A2.714,2.714,0,0,1-8284.144,85.237Zm0-19.3-7.716-7.716a2.724,2.724,0,0,1,0-3.854l28.939-28.943a2.73,2.73,0,0,1,3.862,0l7.716,7.716a2.729,2.729,0,0,1,0,3.864l-28.94,28.94a2.707,2.707,0,0,1-1.924.8A2.728,2.728,0,0,1-8284.144,65.937Zm44.377-25.078-27.015-27.013a2.728,2.728,0,0,1,0-3.857l3.859-3.859a2.723,2.723,0,0,1,3.854,0l27.014,27.013a2.723,2.723,0,0,1,0,3.854l-3.861,3.859a2.718,2.718,0,0,1-1.929.8A2.718,2.718,0,0,1-8239.767,40.859Zm9.649-9.651L-8257.13,4.2a2.722,2.722,0,0,1,0-3.854l3.859-3.862a2.727,2.727,0,0,1,3.856,0l27.013,27.013a2.727,2.727,0,0,1,0,3.854l-3.858,3.862a2.727,2.727,0,0,1-1.929.8A2.716,2.716,0,0,1-8230.117,31.208Z" transform="translate(8321.604 4.318)"/></g></svg>