<svg xmlns="http://www.w3.org/2000/svg" xmlns:xlink="http://www.w3.org/1999/xlink" width="100" height="100" viewBox="0 0 100 100"><defs><clipPath id="b"><rect width="100" height="100"/></clipPath></defs><g id="a" clip-path="url(#b)"><path d="M-5397-10494a5,5,0,0,1-5-5v-30a5,5,0,0,1,5-5h5a9.938,9.938,0,0,1,7.072,2.927A9.938,9.938,0,0,1-5382-10524v20a10.013,10.013,0,0,1-10,10Zm0-32.5v25a2.5,2.5,0,0,0,2.5,2.5h2.5a5.007,5.007,0,0,0,5-5v-20a5,5,0,0,0-5-5h-2.5A2.5,2.5,0,0,0-5397-10526.5Zm-45,32.5a10.011,10.011,0,0,1-10-10v-20a9.933,9.933,0,0,1,2.93-7.072A9.94,9.94,0,0,1-5442-10534h5a5,5,0,0,1,5,5v30a5,5,0,0,1-5,5Zm-5-30v20a5.01,5.01,0,0,0,5,5h2.5a2.5,2.5,0,0,0,2.5-2.5v-25a2.5,2.5,0,0,0-2.5-2.5h-2.5A5.005,5.005,0,0,0-5447-10524Zm71,4v-4c0-24.448-16.828-41-41-41s-41,18.944-41,41v4c0,2.763.762,5-2,5s-7-2.237-7-5v-4a49.67,49.67,0,0,1,3.93-19.463,49.825,49.825,0,0,1,10.716-15.891,49.875,49.875,0,0,1,15.893-10.718A49.7,49.7,0,0,1-5417-10574a49.7,49.7,0,0,1,19.462,3.928,49.872,49.872,0,0,1,15.894,10.718,49.865,49.865,0,0,1,10.716,15.891A49.711,49.711,0,0,1-5367-10524v4c0,2.763-4.238,5-7,5S-5376-10517.239-5376-10520Z" transform="translate(5467.001 10584.001)"/></g></svg>