<svg xmlns="http://www.w3.org/2000/svg" xmlns:xlink="http://www.w3.org/1999/xlink" width="100" height="100" viewBox="0 0 100 100"><defs><clipPath id="b"><rect width="100" height="100"/></clipPath></defs><g id="a" clip-path="url(#b)"><path d="M-3202-16999.875v-30.234h.02a105.183,105.183,0,0,0,20.795-2.008,73.33,73.33,0,0,0,17-5.473c1.385-.656,2.725-1.369,3.985-2.121l-.05-.045a2.539,2.539,0,0,0,1.031-1.979c0-1.6-1.718-2.9-3.835-2.9a4.748,4.748,0,0,0-2.082.463c-.11.059-.234.129-.378.213a1.172,1.172,0,0,0-.16.105l-.01-.021c-1.046.58-2.172,1.123-3.437,1.67-8.776,3.824-20.451,5.932-32.884,5.932v-25.223c12.173,0,24.705,1.938,34.378,5.324a39.678,39.678,0,0,1,11.321,5.734c2.849,2.242,4.293,4.58,4.293,6.963h0v27.906c0,3.219-5.608,7.148-14.644,10.266a97.109,97.109,0,0,1-15.889,3.887,122.265,122.265,0,0,1-19.465,1.549Zm-19.465-1.543a97.171,97.171,0,0,1-15.894-3.887c-9.03-3.117-14.644-7.047-14.644-10.266v-27.906c0-2.383,1.454-4.721,4.3-6.963a39.706,39.706,0,0,1,11.326-5.734c9.673-3.387,22.2-5.324,34.373-5.324v25.223c-12.437,0-24.117-2.107-32.888-5.932-.986-.43-1.913-.867-2.75-1.307l-.159.121a3.661,3.661,0,0,0-.707-.584c-.1-.055-.224-.123-.364-.2a4.707,4.707,0,0,0-2.087-.463c-2.112,0-3.835,1.3-3.835,2.9a2.78,2.78,0,0,0,1.654,2.391l-.01.01c1.011.584,2.1,1.156,3.322,1.744a73.418,73.418,0,0,0,17,5.473,105.287,105.287,0,0,0,20.82,2.008v30.24A122.2,122.2,0,0,1-3221.464-17001.418Z" transform="translate(3252.001 17080.498)"/></g></svg>