<svg xmlns="http://www.w3.org/2000/svg" xmlns:xlink="http://www.w3.org/1999/xlink" width="100" height="100" viewBox="0 0 100 100"><defs><clipPath id="b"><rect width="100" height="100"/></clipPath></defs><g id="a" clip-path="url(#b)"><path d="M-8280-147.648a215.242,215.242,0,0,1-35.354-2.571c-9.445-1.658-14.646-3.861-14.646-6.2v-22.806c0-2.343,5.2-4.546,14.646-6.2A215.377,215.377,0,0,1-8280-188a215.386,215.386,0,0,1,35.354,2.568c9.444,1.656,14.646,3.859,14.646,6.2v22.806c0,2.344-5.2,4.547-14.646,6.2A215.25,215.25,0,0,1-8280-147.648Zm-.2-39.315c-26.315,0-47.724,3.491-47.724,7.782s21.408,7.78,47.724,7.78,47.722-3.49,47.722-7.78S-8253.888-186.963-8280.2-186.963Z" transform="translate(8330 217.999)"/><path d="M47.723,0C74.08,0,95.446,3.484,95.446,7.781S74.08,15.562,47.723,15.562,0,12.078,0,7.781,21.366,0,47.723,0Z" transform="translate(2.076 31.037)" opacity="0.5"/></g></svg>