<svg xmlns="http://www.w3.org/2000/svg" xmlns:xlink="http://www.w3.org/1999/xlink" width="100" height="100" viewBox="0 0 100 100"><defs><clipPath id="b"><rect width="100" height="100"/></clipPath></defs><g id="a" clip-path="url(#b)"><path d="M-3705.978-16200.635a2.733,2.733,0,0,1-1.957-.83,2.87,2.87,0,0,1-.8-2.006v-16.837a2.789,2.789,0,0,0-2.758-2.819h-11.027a2.789,2.789,0,0,0-2.758,2.819v16.857a2.789,2.789,0,0,1-2.746,2.819l-19.313.049a2.785,2.785,0,0,1-2.758-2.814v-28.878l31.778-26.753a2.066,2.066,0,0,1,2.635,0l31.762,26.741v28.89a2.785,2.785,0,0,1-2.758,2.814Zm31.145-30.981-40.84-34.136a2.092,2.092,0,0,0-2.656,0l-40.836,34.136a2.063,2.063,0,0,1-2.934-.29l-4.425-5.459a2.14,2.14,0,0,1,.278-2.979l43.941-36.718a8.238,8.238,0,0,1,10.59,0l15.542,12.964v-12.788a2.1,2.1,0,0,1,2.084-2.116h9.72a2.1,2.1,0,0,1,2.084,2.116v24.4l14.512,12.139a2.1,2.1,0,0,1,.76,1.426,2.122,2.122,0,0,1-.462,1.557l-4.425,5.459a2.075,2.075,0,0,1-1.41.764,1.944,1.944,0,0,1-.2.01A2.054,2.054,0,0,1-3674.833-16231.616Z" transform="translate(3767 16290)"/></g></svg>