<svg xmlns="http://www.w3.org/2000/svg" xmlns:xlink="http://www.w3.org/1999/xlink" width="100" height="100" viewBox="0 0 100 100"><defs><clipPath id="b"><rect width="100" height="100"/></clipPath></defs><g id="a" clip-path="url(#b)"><path d="M-3207-8532a49.687,49.687,0,0,1-19.462-3.93,49.838,49.838,0,0,1-15.893-10.716,49.839,49.839,0,0,1-10.715-15.895A49.69,49.69,0,0,1-3257-8582a49.69,49.69,0,0,1,3.929-19.462,49.843,49.843,0,0,1,10.715-15.894,49.83,49.83,0,0,1,15.893-10.715A49.709,49.709,0,0,1-3207-8632a49.712,49.712,0,0,1,19.463,3.929,49.839,49.839,0,0,1,15.894,10.715,49.837,49.837,0,0,1,10.716,15.894A49.682,49.682,0,0,1-3157-8582a49.682,49.682,0,0,1-3.929,19.462,49.833,49.833,0,0,1-10.716,15.895,49.853,49.853,0,0,1-15.894,10.716A49.689,49.689,0,0,1-3207-8532Zm-12-29a2,2,0,0,0-2,2v4a2,2,0,0,0,2,2h24a2,2,0,0,0,2-2v-4a2,2,0,0,0-2-2h-6v-23a2,2,0,0,0-2-2h-8a2.067,2.067,0,0,0-.5.063,2.065,2.065,0,0,0-.5-.062h-7a2,2,0,0,0-2,2v6a2,2,0,0,0,2,2h6v15Zm12-49a9.01,9.01,0,0,0-9,9,9.009,9.009,0,0,0,9,9,9.01,9.01,0,0,0,9-9A9.011,9.011,0,0,0-3207-8610Z" transform="translate(3257 8632)"/></g></svg>