<svg xmlns="http://www.w3.org/2000/svg" xmlns:xlink="http://www.w3.org/1999/xlink" width="100" height="100" viewBox="0 0 100 100"><defs><clipPath id="b"><rect width="100" height="100"/></clipPath></defs><g id="a" clip-path="url(#b)"><path d="M-302,79a2,2,0,0,1-2-2V73a2,2,0,0,1,2-2h6V56h-6a2,2,0,0,1-2-2V48a2,2,0,0,1,2-2h7a2.006,2.006,0,0,1,.5.063A2,2,0,0,1-294,46h8a2,2,0,0,1,2,2V71h6a2,2,0,0,1,2,2v4a2,2,0,0,1-2,2Zm3-48a9,9,0,0,1,9-9,9,9,0,0,1,9,9,9,9,0,0,1-9,9A9,9,0,0,1-299,31Z" transform="translate(340)" opacity="0.5"/><path d="M-139.462,96.071a49.837,49.837,0,0,1-15.893-10.715,49.827,49.827,0,0,1-10.715-15.893A49.682,49.682,0,0,1-170,50a49.687,49.687,0,0,1,3.929-19.462,49.827,49.827,0,0,1,10.715-15.893A49.827,49.827,0,0,1-139.462,3.929,49.687,49.687,0,0,1-120,0a49.69,49.69,0,0,1,19.463,3.929A49.833,49.833,0,0,1-84.645,14.645,49.827,49.827,0,0,1-73.93,30.538,49.687,49.687,0,0,1-70,50,49.682,49.682,0,0,1-73.93,69.462,49.827,49.827,0,0,1-84.645,85.355a49.833,49.833,0,0,1-15.892,10.715A49.69,49.69,0,0,1-120,100,49.687,49.687,0,0,1-139.462,96.071ZM-164,50a44.05,44.05,0,0,0,44,44A44.049,44.049,0,0,0-76,50,44.05,44.05,0,0,0-120,6,44.05,44.05,0,0,0-164,50Z" transform="translate(170)"/></g></svg>