<svg xmlns="http://www.w3.org/2000/svg" xmlns:xlink="http://www.w3.org/1999/xlink" width="100" height="100" viewBox="0 0 100 100"><defs><clipPath id="b"><rect width="100" height="100"/></clipPath></defs><g id="a" clip-path="url(#b)"><path d="M50.017,26.6A25.639,25.639,0,1,0,75.656,52.238,25.6,25.6,0,0,0,50.017,26.6Zm0,42.307A16.669,16.669,0,1,1,66.686,52.238,16.7,16.7,0,0,1,50.017,68.906ZM82.685,25.55a5.98,5.98,0,1,1-5.98-5.98A5.966,5.966,0,0,1,82.685,25.55ZM99.666,31.62c-.379-8.011-2.209-15.107-8.078-20.953C85.742,4.821,78.646,2.991,70.635,2.589c-8.256-.469-33-.469-41.259,0C21.388,2.968,14.292,4.8,8.424,10.644S.748,23.587.346,31.6c-.469,8.256-.469,33,0,41.259.379,8.011,2.209,15.107,8.078,20.953s12.942,7.676,20.953,8.078c8.256.469,33,.469,41.259,0,8.011-.379,15.107-2.209,20.953-8.078,5.846-5.846,7.676-12.942,8.078-20.953.469-8.256.469-32.98,0-41.236ZM89,81.714a16.875,16.875,0,0,1-9.506,9.506c-6.583,2.611-22.2,2.008-29.477,2.008S27.1,93.809,20.54,91.22a16.876,16.876,0,0,1-9.506-9.506c-2.611-6.583-2.008-22.2-2.008-29.477s-.58-22.916,2.008-29.477a16.876,16.876,0,0,1,9.506-9.506c6.583-2.611,22.2-2.008,29.477-2.008s22.916-.58,29.477,2.008A16.875,16.875,0,0,1,89,22.761c2.611,6.583,2.008,22.2,2.008,29.477S91.61,75.154,89,81.714Z" transform="translate(0.005 -2.238)"/></g></svg>