<svg xmlns="http://www.w3.org/2000/svg" xmlns:xlink="http://www.w3.org/1999/xlink" width="100" height="100" viewBox="0 0 100 100"><defs><clipPath id="b"><rect width="100" height="100"/></clipPath></defs><g id="a" clip-path="url(#b)"><path d="M47.464,34.045H-1.955l1.378-7.72,11.785-3.859a6.309,6.309,0,0,0,2.068-1.1,3.9,3.9,0,0,0,1.172-2.205l16.471-70.5a2.482,2.482,0,0,0-.172-1.964A3.879,3.879,0,0,0,29.2-54.375l-11.785-4,1.241-7.582H68.07L66.83-58.372,58.9-55.684q-1.034.345-2.171.62a12.288,12.288,0,0,0-2.136.724A6.707,6.707,0,0,0,52.8-53.169a3.59,3.59,0,0,0-1.068,1.826l-16.471,70.5a3.308,3.308,0,0,0,.1,2.136,3,3,0,0,0,1.62,1.172l11.854,3.859Z" transform="translate(16.955 65.955)"/></g></svg>