<svg xmlns="http://www.w3.org/2000/svg" xmlns:xlink="http://www.w3.org/1999/xlink" width="100" height="100" viewBox="0 0 100 100"><defs><clipPath id="b"><rect width="100" height="100"/></clipPath></defs><g id="a" clip-path="url(#b)"><path d="M0,0H100V100H0ZM91.808,76.15c-.729-4.562-3.7-8.4-12.512-11.971-3.067-1.437-6.475-2.438-7.488-4.75a4.92,4.92,0,0,1-.192-2.937c.625-2.692,3.813-3.5,6.313-2.75A6.778,6.778,0,0,1,82,57.492C86.3,54.675,86.3,54.675,89.308,52.8a17.2,17.2,0,0,0-2.442-3.25c-2.625-2.937-6.121-4.437-11.808-4.308l-2.937.371A13.431,13.431,0,0,0,65,49.8c-4.75,5.379-3.379,14.754,2.371,18.629,5.688,4.25,14,5.183,15.067,9.187,1,4.875-3.625,6.438-8.192,5.875-3.379-.75-5.25-2.442-7.312-5.567L59.3,82.308c.875,2,1.875,2.871,3.375,4.621,7.25,7.317,25.375,6.942,28.629-4.183a14.1,14.1,0,0,0,.308-6.875l.192.279ZM54.379,45.962H45.012c0,8.075-.037,16.1-.037,24.187,0,5.133.262,9.846-.575,11.3-1.375,2.871-4.917,2.5-6.525,2a8.039,8.039,0,0,1-3.458-3.562,3.575,3.575,0,0,0-.529-.817l-7.6,4.688A14.738,14.738,0,0,0,31.8,90.075a18.337,18.337,0,0,0,13.362,1.688,11.7,11.7,0,0,0,7.546-5.879c2.125-3.875,1.675-8.625,1.654-13.942.05-8.558,0-17.121,0-25.746l.017-.233Z"/></g></svg>