<svg xmlns="http://www.w3.org/2000/svg" xmlns:xlink="http://www.w3.org/1999/xlink" width="100" height="100" viewBox="0 0 100 100"><defs><clipPath id="b"><rect width="100" height="100"/></clipPath></defs><g id="a" clip-path="url(#b)"><path d="M-7290.026-95.393a1.815,1.815,0,0,1-1.816-1.816,1.816,1.816,0,0,1,1.816-1.816h17.12a1.818,1.818,0,0,1,1.817,1.816,1.816,1.816,0,0,1-1.817,1.816Zm14.269-5.19a1.816,1.816,0,0,1-1.818-1.815,1.816,1.816,0,0,1,1.818-1.815h17.12a1.814,1.814,0,0,1,1.814,1.815,1.814,1.814,0,0,1-1.814,1.815Zm-17.122-5.186a1.816,1.816,0,0,1-1.814-1.816,1.815,1.815,0,0,1,1.814-1.816h17.122a1.816,1.816,0,0,1,1.814,1.816,1.817,1.817,0,0,1-1.814,1.816Zm16.948-5.19H-7288.6v-2.518a14.342,14.342,0,0,0-6.292-11.893,34.182,34.182,0,0,1-15.1-29.346A34.371,34.371,0,0,1-7276.3-188a34.244,34.244,0,0,1,34.783,34.238c0,.139,0,.276,0,.416a34.09,34.09,0,0,1-8.2,21.807l-.022.026c-.006.007-.011.015-.017.02a34.424,34.424,0,0,1-6.865,6.117,14.239,14.239,0,0,0-4.084,4.219l0,0-.015.026a14.393,14.393,0,0,0-2.195,7.646v2.518Z" transform="translate(7326 188)" opacity="0.33"/><path d="M-7291.086-162.319c-.03,0-.06,0-.087,0a14.961,14.961,0,0,1-7.5-2.056,15.071,15.071,0,0,1-5.337-5.333l15.771,0a1.818,1.818,0,0,0,1.816-1.815,1.819,1.819,0,0,0-1.816-1.818h-17.121c-.06,0-.121,0-.181.009a15.045,15.045,0,0,1-.53-3.963v-2.787h-1.779l16.759,0a1.817,1.817,0,0,0,1.814-1.816,1.817,1.817,0,0,0-1.814-1.816h-14.98V-188h29.958v9.467h-14.978a1.819,1.819,0,0,0-1.818,1.815,1.82,1.82,0,0,0,1.818,1.816h14.787a14.98,14.98,0,0,1-5.027,8.966A14.977,14.977,0,0,1-7291.086-162.319Z" transform="translate(7341.329 262.319)"/></g></svg>