<svg xmlns="http://www.w3.org/2000/svg" xmlns:xlink="http://www.w3.org/1999/xlink" width="100" height="100" viewBox="0 0 100 100"><defs><clipPath id="b"><rect width="100" height="100"/></clipPath></defs><g id="a" clip-path="url(#b)"><path d="M-10655-88a9.882,9.882,0,0,1-7.048-2.9l-45-45A9.967,9.967,0,0,1-10710-143v-35a9.917,9.917,0,0,1,2.938-7.061A9.928,9.928,0,0,1-10700-188h35a9.9,9.9,0,0,1,7.051,2.9l45,45A10.111,10.111,0,0,1-10610-133a9.739,9.739,0,0,1-2.948,7.05l-35,35A9.754,9.754,0,0,1-10655-88Zm-7.086-41.795a7.583,7.583,0,0,0-4.985,1.821,8.387,8.387,0,0,0-2.945,6.043,8.521,8.521,0,0,0,2.356,6.316l11.5,11.88a1.868,1.868,0,0,0,1.347.575,1.874,1.874,0,0,0,1.347-.575l11.5-11.88a8.516,8.516,0,0,0,2.363-6.315,8.38,8.38,0,0,0-2.944-6.044,7.579,7.579,0,0,0-4.983-1.821,8.577,8.577,0,0,0-6.109,2.63l-1.172,1.207-1.172-1.207A8.56,8.56,0,0,0-10662.087-129.8ZM-10692.5-178a7.51,7.51,0,0,0-7.5,7.5,7.509,7.509,0,0,0,7.5,7.5,7.508,7.508,0,0,0,7.5-7.5A7.509,7.509,0,0,0-10692.5-178Z" transform="translate(10710 188)"/></g></svg>