<svg xmlns="http://www.w3.org/2000/svg" xmlns:xlink="http://www.w3.org/1999/xlink" width="100" height="100" viewBox="0 0 100 100"><defs><clipPath id="b"><rect width="100" height="100"/></clipPath></defs><g id="a" clip-path="url(#b)"><path d="M-9163.329,79.668V34.088a21.742,21.742,0,0,0,5,.581,21.769,21.769,0,0,0,5-.581v45.58c0,1.774-3.126,8.333-5,8.333S-9163.329,81.442-9163.329,79.668Zm-10.326-54.68A21.525,21.525,0,0,1-9180,9.667a21.533,21.533,0,0,1,6.345-15.321A21.537,21.537,0,0,1-9158.332-12a21.523,21.523,0,0,1,15.318,6.347,21.529,21.529,0,0,1,6.345,15.321,21.525,21.525,0,0,1-6.345,15.321,21.513,21.513,0,0,1-15.318,6.347A21.528,21.528,0,0,1-9173.655,24.988ZM-9158.332.5c0,2.3,2.99,4.165,6.665,4.165S-9145,2.8-9145,.5s-2.99-4.165-6.667-4.165S-9158.332-1.795-9158.332.5Z" transform="translate(9208 12.001)"/></g></svg>