<svg xmlns="http://www.w3.org/2000/svg" xmlns:xlink="http://www.w3.org/1999/xlink" width="100" height="100" viewBox="0 0 100 100"><defs><clipPath id="b"><rect width="100" height="100"/></clipPath></defs><g id="a" clip-path="url(#b)"><path d="M-5953.954-10656a2.635,2.635,0,0,1-2.395-1.55s0,0,0-.011-.005,0-.005-.008a2.611,2.611,0,0,1-.229-1.074v-2.648a2.643,2.643,0,0,1,2.632-2.646h11.181v-7.218a32.327,32.327,0,0,1-8.854-2.365c-.046-.019-.1-.04-.146-.062a32.855,32.855,0,0,1-5.28-2.873l4.794-4.791c.324.194.672.392,1.031.586a26.3,26.3,0,0,0,12.2,3.129h.416a26.249,26.249,0,0,0,12.193-3.129,26.4,26.4,0,0,0,12.388-14.444,26.476,26.476,0,0,0,1.525-8.876v-7.934a3.3,3.3,0,0,1,3.288-3.307h.005a3.3,3.3,0,0,1,3.288,3.307v7.934a32.906,32.906,0,0,1-2.586,12.868c-.143.343-.3.7-.467,1.061a33.008,33.008,0,0,1-6.581,9.448,32.692,32.692,0,0,1-10.161,6.956.107.107,0,0,1-.032.014l-.054.024-.035.017-.019.008c-.051.024-.1.043-.157.064a32.473,32.473,0,0,1-8.856,2.365v7.218h11.184a2.644,2.644,0,0,1,2.634,2.646v2.646a2.642,2.642,0,0,1-2.634,2.646Zm-20.219-14.647a4,4,0,0,1,0-5.655l65.056-65.053a4,4,0,0,1,5.655,0,4,4,0,0,1,0,5.655l-65.053,65.053a3.99,3.99,0,0,1-2.829,1.173A3.991,3.991,0,0,1-5974.172-10670.646Zm26.425-15.111,5.04-5.037a13.114,13.114,0,0,0,3.89.586,13.173,13.173,0,0,0,13.157-13.162v-4.473l6.581-6.579v11.052a19.592,19.592,0,0,1-5.785,13.956,19.6,19.6,0,0,1-13.953,5.782A19.538,19.538,0,0,1-5947.748-10685.757Zm-20.06-2.566c-.483-.9-.928-1.839-1.328-2.786a33.023,33.023,0,0,1-2.581-12.868v-7.934a3.42,3.42,0,0,1,.068-.664,3.3,3.3,0,0,1,3.217-2.643,3.3,3.3,0,0,1,3.293,3.307v7.934a26.437,26.437,0,0,0,1.522,8.873c.221.618.467,1.241.74,1.852l-4.932,4.93v0Zm9.92-9.921a19.9,19.9,0,0,1-.669-5.126v-32.893a19.6,19.6,0,0,1,5.777-13.955,19.614,19.614,0,0,1,13.961-5.782,19.586,19.586,0,0,1,13.953,5.782,19.638,19.638,0,0,1,5.771,13.184l-6.567,6.567v-5.8a13.172,13.172,0,0,0-13.157-13.159,13.174,13.174,0,0,0-13.157,13.159v32.107l-5.912,5.911v0Z" transform="translate(5988.816 10756)"/><path d="M-5935.992-10696.789a13.142,13.142,0,0,1-3.889-.584l17.045-17.046v4.471a13.076,13.076,0,0,1-3.854,9.3A13.07,13.07,0,0,1-5935.992-10696.789Zm-13.157-13.942v-32.109a13.075,13.075,0,0,1,3.854-9.306,13.068,13.068,0,0,1,9.3-3.854,13.067,13.067,0,0,1,9.3,3.854,13.075,13.075,0,0,1,3.854,9.306v5.8l-26.312,26.313Z" transform="translate(5985.988 10762.579)" opacity="0.5"/></g></svg>