<svg xmlns="http://www.w3.org/2000/svg" xmlns:xlink="http://www.w3.org/1999/xlink" width="100" height="100" viewBox="0 0 100 100"><defs><clipPath id="b"><rect width="100" height="100"/></clipPath></defs><g id="a" clip-path="url(#b)"><path d="M-5758.98-10838h-30.26a2.639,2.639,0,0,1-2.4-1.548.015.015,0,0,0,0-.01s0-.008,0-.011a2.587,2.587,0,0,1-.228-1.072v-2.648a2.638,2.638,0,0,1,2.63-2.644h11.186v-7.224a32.341,32.341,0,0,1-8.856-2.359c-.051-.021-.1-.043-.148-.063a32.707,32.707,0,0,1-10.309-7.022,32.948,32.948,0,0,1-7.05-10.507,32.944,32.944,0,0,1-2.582-12.866v-7.935a3.354,3.354,0,0,1,.065-.668,3.3,3.3,0,0,1,3.222-2.641,3.3,3.3,0,0,1,3.29,3.309v7.935a26.478,26.478,0,0,0,1.525,8.871v0a26.531,26.531,0,0,0,12.389,14.444,26.232,26.232,0,0,0,12.193,3.123h.011c.065,0,.13,0,.2,0s.13,0,.2,0h.011a26.212,26.212,0,0,0,12.193-3.123,26.55,26.55,0,0,0,12.393-14.444l0,0a26.4,26.4,0,0,0,1.524-8.871v-7.935a3.3,3.3,0,0,1,3.291-3.309h0a3.3,3.3,0,0,1,3.287,3.309v7.935a33.015,33.015,0,0,1-2.582,12.866c-.152.357-.307.712-.47,1.059a32.917,32.917,0,0,1-6.581,9.448,32.683,32.683,0,0,1-10.161,6.956.224.224,0,0,0-.029.015l-.112.048c-.055.021-.1.046-.155.067a32.418,32.418,0,0,1-8.856,2.359v7.224h11.183a2.641,2.641,0,0,1,2.633,2.644v2.648a2.64,2.64,0,0,1-2.633,2.641Zm-34.862-47.367v-32.894a19.74,19.74,0,0,1,19.735-19.739,19.741,19.741,0,0,1,19.739,19.739v32.894a19.737,19.737,0,0,1-19.739,19.735A19.736,19.736,0,0,1-5793.842-10885.367Zm49.577,13.317v0Z" transform="translate(5824.099 10938.001)"/></g></svg>