<svg xmlns="http://www.w3.org/2000/svg" xmlns:xlink="http://www.w3.org/1999/xlink" width="100" height="100" viewBox="0 0 100 100"><defs><clipPath id="b"><rect width="100" height="100"/></clipPath></defs><g id="a" clip-path="url(#b)"><path d="M-5923.7-10838h-30.259a2.642,2.642,0,0,1-2.4-1.549.012.012,0,0,0,0-.008s0-.006,0-.009a2.613,2.613,0,0,1-.228-1.073v-2.651a2.64,2.64,0,0,1,2.63-2.644h11.186v-7.223a32.208,32.208,0,0,1-8.855-2.36,1.089,1.089,0,0,1-.115-.047l-.036-.017a32.668,32.668,0,0,1-5.276-2.868l4.793-4.793c.346.2.692.4,1.035.585a26.245,26.245,0,0,0,12.191,3.126h.11c.033,0,.065,0,.1,0h.1c.033,0,.066,0,.1,0h.011a26.24,26.24,0,0,0,12.194-3.126,26.418,26.418,0,0,0,12.391-14.442l0,0a26.433,26.433,0,0,0,1.524-8.872v-7.934a3.3,3.3,0,0,1,3.291-3.308,3.3,3.3,0,0,1,3.292,3.308v7.934a33.077,33.077,0,0,1-2.583,12.868c-.148.344-.308.709-.47,1.06a32.874,32.874,0,0,1-6.583,9.446,32.652,32.652,0,0,1-10.16,6.956l-.016.008a.01.01,0,0,1-.008,0l0,0c-.022.011-.044.02-.063.027l-.022.011a.1.1,0,0,0-.027.014c-.025.009-.05.02-.074.03l-.083.033a32.258,32.258,0,0,1-8.855,2.36v7.223h11.184a2.64,2.64,0,0,1,2.632,2.644v2.646a2.639,2.639,0,0,1-2.632,2.644Zm-50.476-14.643a4,4,0,0,1,0-5.657l65.055-65.053a4,4,0,0,1,5.655,0,4,4,0,0,1,0,5.654l-65.053,65.056a3.986,3.986,0,0,1-2.829,1.172A3.986,3.986,0,0,1-5974.172-10852.643Zm26.429-15.114,28.659-28.658v11.049a19.6,19.6,0,0,1-5.781,13.956,19.607,19.607,0,0,1-13.956,5.778A19.529,19.529,0,0,1-5947.743-10867.757Zm-21.39-5.351a32.93,32.93,0,0,1-2.583-12.868v-7.934a3.309,3.309,0,0,1,.066-.667,3.3,3.3,0,0,1,3.223-2.641,3.3,3.3,0,0,1,3.289,3.308v7.934a26.421,26.421,0,0,0,1.526,8.872c.214.609.461,1.232.736,1.853l-4.93,4.928C-5968.29-10871.224-5968.734-10872.16-5969.133-10873.107Zm11.244-7.137a19.809,19.809,0,0,1-.67-5.122v-32.895a19.609,19.609,0,0,1,5.781-13.956,19.6,19.6,0,0,1,13.956-5.784,19.649,19.649,0,0,1,13.7,5.531,19.645,19.645,0,0,1,6.02,13.443l-38.785,38.782v0Z" transform="translate(5988.816 10937.999)"/></g></svg>