<svg xmlns="http://www.w3.org/2000/svg" xmlns:xlink="http://www.w3.org/1999/xlink" width="100" height="100" viewBox="0 0 100 100"><defs><clipPath id="b"><rect width="100" height="100"/></clipPath></defs><g id="a" clip-path="url(#b)"><path d="M-5789.239-10656a2.629,2.629,0,0,1-2.394-1.548.014.014,0,0,1,0-.011s0-.008-.007-.011a2.623,2.623,0,0,1-.228-1.072v-2.649a2.638,2.638,0,0,1,2.631-2.644h11.182v-7.22a32.378,32.378,0,0,1-8.855-2.363l-.146-.063a32.683,32.683,0,0,1-10.308-7.021,32.886,32.886,0,0,1-7.054-10.507,33.007,33.007,0,0,1-2.582-12.868v-7.935a3.4,3.4,0,0,1,.067-.664,3.3,3.3,0,0,1,3.218-2.644h0a3.3,3.3,0,0,1,3.29,3.308v7.935a26.467,26.467,0,0,0,1.523,8.873v0a26.554,26.554,0,0,0,12.389,14.445,26.248,26.248,0,0,0,12.2,3.127h.415a26.231,26.231,0,0,0,12.194-3.127,26.525,26.525,0,0,0,12.389-14.445v0a26.467,26.467,0,0,0,1.524-8.873v-7.935a3.3,3.3,0,0,1,3.289-3.308h0a3.307,3.307,0,0,1,3.289,3.308v7.935a32.949,32.949,0,0,1-2.586,12.868c-.149.355-.305.71-.468,1.059a32.911,32.911,0,0,1-6.582,9.448,32.759,32.759,0,0,1-10.159,6.958l-.032.014-.11.047c-.053.024-.1.046-.156.066a32.4,32.4,0,0,1-8.854,2.363v7.22h11.181a2.641,2.641,0,0,1,2.635,2.644v2.649a2.642,2.642,0,0,1-2.635,2.642Zm1.176-33.415a19.613,19.613,0,0,1-5.778-13.956v-32.893a19.609,19.609,0,0,1,5.778-13.955A19.61,19.61,0,0,1-5774.1-10756a19.6,19.6,0,0,1,13.956,5.782,19.6,19.6,0,0,1,5.782,13.955v32.893a19.6,19.6,0,0,1-5.782,13.956,19.6,19.6,0,0,1-13.956,5.782A19.618,19.618,0,0,1-5788.063-10689.414Zm.8-46.849v32.893a13.171,13.171,0,0,0,13.156,13.161,13.174,13.174,0,0,0,13.159-13.161v-32.893a13.173,13.173,0,0,0-13.159-13.159A13.17,13.17,0,0,0-5787.26-10736.263Zm43,46.213v0Z" transform="translate(5824.102 10756)"/><path d="M13.158,0A13.158,13.158,0,0,1,26.316,13.158V46.052A13.158,13.158,0,0,1,0,46.052V13.158A13.158,13.158,0,0,1,13.158,0Z" transform="translate(36.838 6.579)" opacity="0.5"/></g></svg>