<svg xmlns="http://www.w3.org/2000/svg" xmlns:xlink="http://www.w3.org/1999/xlink" width="100" height="100" viewBox="0 0 100 100"><defs><clipPath id="b"><rect width="100" height="100"/></clipPath></defs><g id="a" clip-path="url(#b)"><path d="M-5789.24-10474a2.637,2.637,0,0,1-2.4-1.547.014.014,0,0,0,0-.011s0-.007,0-.01a2.631,2.631,0,0,1-.227-1.075v-2.647a2.635,2.635,0,0,1,2.629-2.643h11.184v-7.222a32.358,32.358,0,0,1-8.855-2.363l-.146-.062a32.671,32.671,0,0,1-10.307-7.022,32.9,32.9,0,0,1-7.054-10.507,32.953,32.953,0,0,1-2.58-12.866v-7.937a3.209,3.209,0,0,1,.066-.663,3.3,3.3,0,0,1,3.216-2.641h0a3.3,3.3,0,0,1,3.29,3.3v7.937a26.46,26.46,0,0,0,1.526,8.872l0,0a26.568,26.568,0,0,0,12.392,14.445,26.245,26.245,0,0,0,12.193,3.125h.416a26.257,26.257,0,0,0,12.2-3.125,26.542,26.542,0,0,0,12.389-14.445v0a26.457,26.457,0,0,0,1.522-8.872v-7.937a3.3,3.3,0,0,1,3.289-3.3h0a3.3,3.3,0,0,1,3.289,3.3v7.937a32.89,32.89,0,0,1-2.587,12.866q-.224.535-.464,1.062a33,33,0,0,1-6.582,9.445,32.727,32.727,0,0,1-10.161,6.959.1.1,0,0,0-.031.011c-.035.017-.074.034-.112.049s-.1.045-.153.066a32.4,32.4,0,0,1-8.859,2.363v7.222h11.184a2.641,2.641,0,0,1,2.636,2.643v2.647a2.644,2.644,0,0,1-2.636,2.643Zm1.18-33.412a19.613,19.613,0,0,1-5.782-13.959v-32.889a19.613,19.613,0,0,1,5.782-13.96A19.6,19.6,0,0,1-5774.1-10574a19.611,19.611,0,0,1,13.956,5.782,19.626,19.626,0,0,1,5.783,13.96v32.889a19.626,19.626,0,0,1-5.783,13.959,19.62,19.62,0,0,1-13.956,5.778A19.611,19.611,0,0,1-5788.06-10507.411Zm.8-46.848v32.889a13.176,13.176,0,0,0,13.16,13.163,13.173,13.173,0,0,0,13.153-13.163v-32.889a13.173,13.173,0,0,0-13.153-13.163A13.176,13.176,0,0,0-5787.264-10554.259Z" transform="translate(5824.104 10574)"/></g></svg>