<svg xmlns="http://www.w3.org/2000/svg" xmlns:xlink="http://www.w3.org/1999/xlink" width="100" height="100" viewBox="0 0 100 100"><defs><clipPath id="b"><rect width="100" height="100"/></clipPath></defs><g id="a" clip-path="url(#b)"><path d="M-4569.831-117.815a3,3,0,0,1-2.989-3v-4.16a3,3,0,0,1,2.989-3h11.54v-9.356a29.421,29.421,0,0,1-8.9-2.683,37.216,37.216,0,0,1-11.872-8.044,37.448,37.448,0,0,1-8.006-11.931c-1.946-4.628-2.933-14.175-2.933-19.243v-9.01c0-2.072,3.988-3.753,6.051-3.753s6.051,1.681,6.051,3.753v11.325c0,16.557,8.772,27.714,25.249,27.714s25.249-11.156,25.249-27.714v-11.325c0-2.072,3.99-3.753,6.051-3.753s6.048,1.681,6.048,3.753v9.01c0,5.068-.985,14.615-2.934,19.243a37.412,37.412,0,0,1-8,11.931,37.182,37.182,0,0,1-11.872,8.044,29.441,29.441,0,0,1-8.9,2.683v9.355h11.541a3,3,0,0,1,2.988,3v4.16a3,3,0,0,1-2.988,3Z" transform="translate(4603 217.815)"/><path d="M17.624,0A17.693,17.693,0,0,1,35.248,17.762V45.515A17.624,17.624,0,1,1,0,45.515V17.762A17.693,17.693,0,0,1,17.624,0Z" transform="translate(32.726)" opacity="0.5"/></g></svg>