<svg xmlns="http://www.w3.org/2000/svg" xmlns:xlink="http://www.w3.org/1999/xlink" width="100" height="100" viewBox="0 0 100 100"><defs><clipPath id="b"><rect width="100" height="100"/></clipPath></defs><g id="a" clip-path="url(#b)"><path d="M-5953.955-10474a2.645,2.645,0,0,1-2.394-1.547.017.017,0,0,0,0-.011l0,0v-.006h0a2.646,2.646,0,0,1-.226-1.072v-2.648a2.638,2.638,0,0,1,2.627-2.643h11.186v-7.224a32.172,32.172,0,0,1-8.855-2.362c-.05-.021-.1-.042-.146-.063a32.691,32.691,0,0,1-5.281-2.871l4.792-4.79c.337.2.674.393,1.035.589a26.31,26.31,0,0,0,12.194,3.124h.417a26.294,26.294,0,0,0,12.194-3.124,26.431,26.431,0,0,0,12.39-14.446,26.542,26.542,0,0,0,1.523-8.877v-7.935a3.3,3.3,0,0,1,3.288-3.3,3.3,3.3,0,0,1,3.293,3.3v7.935a32.924,32.924,0,0,1-2.587,12.868c-.165.385-.315.732-.464,1.062a33.006,33.006,0,0,1-6.581,9.444,32.663,32.663,0,0,1-10.161,6.958.031.031,0,0,0-.019.008.022.022,0,0,1-.013,0,.432.432,0,0,1-.077.037l-.034.016a1.463,1.463,0,0,1-.154.063,32.237,32.237,0,0,1-8.858,2.362v7.224h11.183a2.641,2.641,0,0,1,2.635,2.643v2.644a2.642,2.642,0,0,1-2.635,2.646Zm-20.216-14.646a4,4,0,0,1,0-5.655l65.053-65.054a4,4,0,0,1,5.655,0,4,4,0,0,1,0,5.655l-65.053,65.054a3.984,3.984,0,0,1-2.828,1.172A3.983,3.983,0,0,1-5974.17-10488.644Zm26.426-15.11,5.04-5.04a13.067,13.067,0,0,0,3.888.587,13.171,13.171,0,0,0,13.154-13.16v-4.472l6.584-6.581v11.053a19.62,19.62,0,0,1-5.783,13.956,19.607,19.607,0,0,1-13.956,5.78A19.522,19.522,0,0,1-5947.745-10503.754Zm-20.06-2.569c-.485-.907-.932-1.844-1.327-2.783a32.957,32.957,0,0,1-2.58-12.868v-7.935a3.212,3.212,0,0,1,.063-.661,3.3,3.3,0,0,1,3.216-2.643,3.3,3.3,0,0,1,3.293,3.3v7.935a26.515,26.515,0,0,0,1.526,8.874c.215.61.462,1.234.735,1.85l-4.928,4.928v0Zm9.917-9.919a19.894,19.894,0,0,1-.669-5.125v-32.888a19.62,19.62,0,0,1,5.783-13.964,19.6,19.6,0,0,1,13.956-5.782,19.609,19.609,0,0,1,13.956,5.782,19.674,19.674,0,0,1,5.77,13.184l-6.571,6.571v-5.791a13.174,13.174,0,0,0-13.154-13.165,13.179,13.179,0,0,0-13.16,13.165v32.105l-5.907,5.909Z" transform="translate(5988.816 10573.999)"/></g></svg>