<svg xmlns="http://www.w3.org/2000/svg" xmlns:xlink="http://www.w3.org/1999/xlink" width="100" height="100" viewBox="0 0 100 100"><defs><clipPath id="b"><rect width="100" height="100"/></clipPath></defs><g id="a" clip-path="url(#b)"><path d="M-3514.148-609.891a49.454,49.454,0,0,1-23.485-30.306,49.27,49.27,0,0,1,5.129-37.945,50.435,50.435,0,0,1,30.74-23.357,51.017,51.017,0,0,1,16.878-1.611A50.654,50.654,0,0,1-3469-699.324c-1.055.187-2.128.424-3.194.708-20.562,5.489-32.683,27.094-27.016,48.162s27,33.74,47.566,28.251c1.05-.281,2.1-.609,3.119-.978a50.438,50.438,0,0,1-11.859,11.192,50.909,50.909,0,0,1-15.423,7.011,51.425,51.425,0,0,1-13.274,1.753A50.517,50.517,0,0,1-3514.148-609.891Z" transform="translate(3544.349 703.242)"/></g></svg>