<svg xmlns="http://www.w3.org/2000/svg" xmlns:xlink="http://www.w3.org/1999/xlink" width="100" height="100" viewBox="0 0 100 100"><defs><clipPath id="b"><rect width="100" height="100"/></clipPath></defs><g id="a" clip-path="url(#b)"><path d="M44.218,12.957A36.872,36.872,0,0,1,69.731,25.512a37.97,37.97,0,0,1,7.146,12.346,36.041,36.041,0,0,1,1.933,14.592,34.266,34.266,0,0,1-1.275,7.7,38.226,38.226,0,0,1-2.808,7.1A83.164,83.164,0,0,1,68.6,77.3a73.377,73.377,0,0,1-7.342,8.825,77.542,77.542,0,0,1-8.467,7.509A83.367,83.367,0,0,1,43.4,99.794l-.154.108a.816.816,0,0,1-.454.1,1.222,1.222,0,0,1-.663-.4,1.11,1.11,0,0,1-.258-.721,1.234,1.234,0,0,1,.05-.354.775.775,0,0,1,.154-.258,27.181,27.181,0,0,0,2.858-5.146,22.586,22.586,0,0,0,1.533-5.663.492.492,0,0,0-.158-.354.462.462,0,0,0-.354-.158c-1.1.133-2.2.221-3.313.258a20.523,20.523,0,0,1-3.317-.154A36.806,36.806,0,0,1,13.812,74.489,37.87,37.87,0,0,1,6.666,62.143,36.093,36.093,0,0,1,4.728,47.55,34.266,34.266,0,0,1,6,39.85a35.824,35.824,0,0,1,2.813-7A81.261,81.261,0,0,1,14.937,22.7a75.145,75.145,0,0,1,7.338-8.825,78.337,78.337,0,0,1,8.471-7.5A81.994,81.994,0,0,1,40.134.211l.158-.1a.78.78,0,0,1,.454-.1,1.23,1.23,0,0,1,.658.408,1.062,1.062,0,0,1,.258.725,1.018,1.018,0,0,1-.05.35.685.685,0,0,1-.15.254A26.864,26.864,0,0,0,38.6,6.894a22.717,22.717,0,0,0-1.525,5.659.52.52,0,0,0,.5.513q1.638-.206,3.313-.254a21.437,21.437,0,0,1,3.325.146ZM40.855,64.489a13.836,13.836,0,0,0,10.5-3.563,14.188,14.188,0,0,0,4.9-10,13.988,13.988,0,0,0-3.567-10.563,13.723,13.723,0,0,0-10-4.842,14,14,0,0,0-10.559,3.563,13.746,13.746,0,0,0-4.85,10,14.089,14.089,0,0,0,3.525,10.563,13.633,13.633,0,0,0,10.046,4.842Z" transform="translate(8.368 -0.001)"/></g></svg>