<svg xmlns="http://www.w3.org/2000/svg" xmlns:xlink="http://www.w3.org/1999/xlink" width="100" height="100" viewBox="0 0 100 100"><defs><clipPath id="b"><rect width="100" height="100"/></clipPath></defs><g id="a" clip-path="url(#b)"><path d="M-3425-16565.893a3,3,0,0,1-3-3v-54a3.007,3.007,0,0,1,3-3h14.137l26.315-12.271a1.5,1.5,0,0,1,1.992.727,1.5,1.5,0,0,1-.727,1.992l-20.481,9.553h51.6l-20.484-9.553a1.5,1.5,0,0,1-.727-1.992,1.5,1.5,0,0,1,2-.727l26.311,12.271H-3331a3.007,3.007,0,0,1,3,3v54a3,3,0,0,1-3,3Zm2.995-5h0a1.014,1.014,0,0,1-.422-.092A1,1,0,0,0-3422-16570.893Zm88.2-.02a1,1,0,0,0,.8-.979v0A1,1,0,0,1-3333.8-16570.912Zm-89.073-.488-.008-.016Zm-.129-48.49v48a1,1,0,0,0,.118.471,1,1,0,0,1-.118-.475v-48Zm40.891-19A4.112,4.112,0,0,1-3378-16643a4.108,4.108,0,0,1,4.106,4.109,4.105,4.105,0,0,1-4.106,4.105A4.109,4.109,0,0,1-3382.111-16638.891Z" transform="translate(3428 16654)"/></g></svg>