<svg xmlns="http://www.w3.org/2000/svg" xmlns:xlink="http://www.w3.org/1999/xlink" width="100" height="100" viewBox="0 0 100 100"><defs><clipPath id="b"><rect width="100" height="100"/></clipPath></defs><g id="a" clip-path="url(#b)"><path d="M-3424-16201.892a3,3,0,0,1-3-3v-54a3,3,0,0,1,3-3h14.137l26.317-12.273a1.5,1.5,0,0,1,1.994.724,1.5,1.5,0,0,1-.727,2l-20.489,9.552h51.617l-20.489-9.552a1.5,1.5,0,0,1-.727-2,1.5,1.5,0,0,1,1.994-.724l26.317,12.273H-3330a3,3,0,0,1,3,3v54a3,3,0,0,1-3,3Zm2-54v48a1,1,0,0,0,1,1h88a1,1,0,0,0,1-1v-48a1,1,0,0,0-1-1h-88A1,1,0,0,0-3422-16255.89Zm40.888-19a4.111,4.111,0,0,1,4.11-4.11,4.111,4.111,0,0,1,4.11,4.11,4.109,4.109,0,0,1-4.11,4.105A4.109,4.109,0,0,1-3381.111-16274.891Z" transform="translate(3427 16290)"/></g></svg>