<svg xmlns="http://www.w3.org/2000/svg" xmlns:xlink="http://www.w3.org/1999/xlink" width="100" height="100" viewBox="0 0 100 100"><defs><clipPath id="b"><rect width="100" height="100"/></clipPath></defs><g id="a" clip-path="url(#b)"><path d="M-7626.719-275.356a17.011,17.011,0,0,1-12.108-5.015l-4.324-5.157a12.787,12.787,0,0,1-2.017-6.9,9.177,9.177,0,0,1,2.615-6.566l10.243-8.379a10.462,10.462,0,0,1,7.449-3.086,10.462,10.462,0,0,1,7.448,3.084,16.008,16.008,0,0,0,2.491,2.741,10.067,10.067,0,0,0,6.388,2.741,7.886,7.886,0,0,0,3.514-.856,111.285,111.285,0,0,0,10.913-8.069l13.975,13.975a107.691,107.691,0,0,1-15.952,11.146,84.984,84.984,0,0,1-24.253,9.485c-1.284.275-2.553.509-3.771.7l-.007-.038A17.248,17.248,0,0,1-7626.719-275.356Zm59.785-34.668h0L-7580.909-324a111.291,111.291,0,0,0,8.16-11.021,8.307,8.307,0,0,0-1.02-8.81,15.843,15.843,0,0,0-3.6-3.583,10.46,10.46,0,0,1-3.085-7.448,10.462,10.462,0,0,1,3.085-7.449l8.381-10.243a9.19,9.19,0,0,1,6.668-2.616,12.816,12.816,0,0,1,6.795,2.017l5.157,4.324a17.161,17.161,0,0,1,4.21,6.908,17.257,17.257,0,0,1,.6,7.8l.041.008c-.188,1.223-.423,2.491-.7,3.771a84.982,84.982,0,0,1-9.485,24.253,107.766,107.766,0,0,1-11.236,16.059Z" transform="translate(7645.3 375.2)"/><path d="M6.195,0H128.851c3.421,0,6.195,2.239,6.195,5s-2.773,5-6.195,5H6.195C2.773,10,0,7.761,0,5S2.773,0,6.195,0Z" transform="translate(6.071 -1) rotate(45)" opacity="0.5"/></g></svg>