<svg xmlns="http://www.w3.org/2000/svg" xmlns:xlink="http://www.w3.org/1999/xlink" width="100" height="100" viewBox="0 0 100 100"><defs><clipPath id="b"><rect width="100" height="100"/></clipPath></defs><g id="a" clip-path="url(#b)"><path d="M-5547.453-1243.665a112.745,112.745,0,0,0,22.818-2.453c7.366-2.49,5.493-12.032,5.493-12.032a10.536,10.536,0,0,1,10.535-10.534l13.168-1.316c5.09,0,8.908,4.414,9.944,9.1l.59,6.7a17.1,17.1,0,0,1-7,13.808l.022.034c-1.018.745-2.082,1.476-3.159,2.175a85.01,85.01,0,0,1-23.856,10.441,110.168,110.168,0,0,1-28.558,3.828Zm-28.558,15.923a85,85,0,0,1-23.856-10.441c-1.077-.7-2.141-1.429-3.159-2.175l.022-.034a17.1,17.1,0,0,1-7-13.808l.589-6.7c1.037-4.683,4.854-9.1,9.945-9.1l13.168,1.316a10.536,10.536,0,0,1,10.535,10.534s-1.874,9.542,5.492,12.032a112.751,112.751,0,0,0,22.819,2.453v19.752A110.163,110.163,0,0,1-5576.011-1227.742Z" transform="translate(4860.195 -2985.188) rotate(-45)"/><path d="M82.64,42.335A31.607,31.607,0,0,0,67.958,15.589a4.091,4.091,0,0,0-5.67,1.277,4.157,4.157,0,0,0,1.268,5.711,23.4,23.4,0,0,1,0,39.516A4.157,4.157,0,0,0,62.288,67.8a4.1,4.1,0,0,0,5.67,1.277A31.6,31.6,0,0,0,82.64,42.335ZM58.371,29.176a4.11,4.11,0,0,0-3.965,7.2,6.748,6.748,0,0,1,0,11.918,4.11,4.11,0,0,0,3.965,7.2,14.967,14.967,0,0,0,0-26.318Z" transform="translate(47.157 108.095) rotate(-135)" opacity="0.5"/></g></svg>