<svg xmlns="http://www.w3.org/2000/svg" xmlns:xlink="http://www.w3.org/1999/xlink" width="100" height="100" viewBox="0 0 100 100"><defs><clipPath id="b"><rect width="100" height="100"/></clipPath></defs><g id="a" clip-path="url(#b)"><path d="M-9315.519,88c-3.483,0-11.71-10.534-20-25.617-7-12.727-14.479-29.893-14.479-39.9A34.52,34.52,0,0,1-9315.519-12a34.52,34.52,0,0,1,34.482,34.48c0,10.013-7.479,27.178-14.479,39.9C-9303.811,77.466-9312.037,88-9315.519,88Zm-18.294-67.923a4.6,4.6,0,0,0-3.275,1.357,4.635,4.635,0,0,0,0,6.547l8.889,8.886,3.273,3.276a4.6,4.6,0,0,0,3.273,1.356,4.6,4.6,0,0,0,3.273-1.356l24.322-24.322a4.641,4.641,0,0,0,0-6.549,4.606,4.606,0,0,0-3.274-1.355,4.608,4.608,0,0,0-3.275,1.355l-21.046,21.048-8.887-8.886A4.6,4.6,0,0,0-9333.812,20.077Z" transform="translate(9366 12)"/></g></svg>