<svg xmlns="http://www.w3.org/2000/svg" xmlns:xlink="http://www.w3.org/1999/xlink" width="100" height="100" viewBox="0 0 100 100"><defs><clipPath id="b"><rect width="100" height="100"/></clipPath></defs><g id="a" clip-path="url(#b)"><path d="M96.587,5.641a3.318,3.318,0,0,1,3.3,4.312L84.641,76.54a5.715,5.715,0,0,1-5.271,4.312H3.413a3.318,3.318,0,0,1-3.3-4.312L15.359,9.954a5.715,5.715,0,0,1,5.271-4.312H96.587Zm-34.9,38.937a4.226,4.226,0,0,0-.375-5.179L38.008,14.6a4.445,4.445,0,0,0-6.475,6.071L50.958,41.341V41.8L20.042,64.186a4.446,4.446,0,0,0,5.221,7.179L59.55,46.745a6.354,6.354,0,0,0,2.142-2.167ZM50.041,62.907a3.846,3.846,0,1,0,0,7.692H68.512a3.846,3.846,0,1,0,0-7.692Z" transform="translate(0 6.359)"/></g></svg>