<svg xmlns="http://www.w3.org/2000/svg" xmlns:xlink="http://www.w3.org/1999/xlink" width="100" height="100" viewBox="0 0 100 100"><defs><clipPath id="b"><rect width="100" height="100"/></clipPath></defs><g id="a" clip-path="url(#b)"><path d="M-7069.427-89.1v-19.258H-7040v14.979a4.284,4.284,0,0,1-4.28,4.279Zm-4.282,0h-26.211a4.285,4.285,0,0,1-4.281-4.279v-14.979h30.5V-89.1Zm-59.713-.217A6.587,6.587,0,0,1-7140-95.9v-73.683a6.587,6.587,0,0,1,6.577-6.581h3.949v-1.316a1.317,1.317,0,0,1,1.316-1.316h4.171l-2.95-2.95a1.318,1.318,0,0,1,0-1.863l1.86-1.86a1.308,1.308,0,0,1,.932-.387,1.3,1.3,0,0,1,.932.387l2.949,2.95v-4.171a1.316,1.316,0,0,1,1.315-1.316h2.632a1.316,1.316,0,0,1,1.315,1.316v4.173l2.951-2.952a1.3,1.3,0,0,1,.93-.387,1.3,1.3,0,0,1,.932.387l1.859,1.86a1.318,1.318,0,0,1,0,1.863l-2.949,2.95h4.173a1.317,1.317,0,0,1,1.316,1.316v1.316h3.946a6.588,6.588,0,0,1,6.578,6.581v33.273h-8.985a4.6,4.6,0,0,0-4.591,4.591v38.028a4.582,4.582,0,0,0,3.179,4.369v0Zm64-23.321v-16.858a6.721,6.721,0,0,0,1.188.1,16.669,16.669,0,0,0,7.8-2.5h16.16a4.286,4.286,0,0,1,4.28,4.282v14.981Zm-4.282,0H-7104.2v-14.981a4.287,4.287,0,0,1,4.281-4.282h17.417a16.651,16.651,0,0,0,7.8,2.506,6.774,6.774,0,0,0,1-.071v16.827Z" transform="translate(7140 189)"/><path d="M-6112.646-1071.447a9.2,9.2,0,0,1-2.719-5.412,5.9,5.9,0,0,1,1.568-4.936c2.537-2.536,7.179-2.02,10.348,1.151a16.927,16.927,0,0,1,3.38,5.24,16.926,16.926,0,0,1,3.38-5.24c3.169-3.17,7.812-3.686,10.347-1.151a5.885,5.885,0,0,1,1.567,4.936,9.187,9.187,0,0,1-2.717,5.412c-3.15,3.149-9.983,5.936-12.577,3.517a4.018,4.018,0,0,1-2.81.917C-6106.027-1067.013-6110.331-1069.132-6112.646-1071.447Zm.893-8.3c-1.677,1.677-.754,5.106,1.192,7.052a13.068,13.068,0,0,0,4.41,2.694c1.112.408,3.124.945,4.107-.037s.444-2.994.037-4.106a13.106,13.106,0,0,0-2.694-4.411,7.249,7.249,0,0,0-3.678-1.96,5.46,5.46,0,0,0-1.016-.1A3.244,3.244,0,0,0-6111.753-1079.751Zm19.993-.768a7.237,7.237,0,0,0-3.678,1.962,13.09,13.09,0,0,0-2.694,4.41c-.407,1.112-.945,3.124.037,4.106s2.995.444,4.107.037a13.072,13.072,0,0,0,4.411-2.694c1.945-1.946,2.868-5.375,1.191-7.052a3.241,3.241,0,0,0-2.357-.868A5.465,5.465,0,0,0-6091.76-1080.519Z" transform="translate(6168.598 1125.377)" opacity="0.55"/></g></svg>