<svg xmlns="http://www.w3.org/2000/svg" xmlns:xlink="http://www.w3.org/1999/xlink" width="100" height="100" viewBox="0 0 100 100"><defs><clipPath id="b"><rect width="100" height="100"/></clipPath></defs><g id="a" clip-path="url(#b)"><path d="M-6026.667-1006.033h-39.168v-30H-6020v23.333A6.673,6.673,0,0,1-6026.667-1006.033Zm-45.834,0h-40.831A6.675,6.675,0,0,1-6120-1012.7v-23.333h47.5v30Zm52.5-36.664h-45.834v-26.256a10.509,10.509,0,0,0,1.852.155c3.445,0,7.985-1.458,12.146-3.9h25.17a6.675,6.675,0,0,1,6.666,6.668v23.331Zm-52.5,0H-6120v-23.333a6.676,6.676,0,0,1,6.669-6.668h27.129c4.161,2.443,8.7,3.9,12.144,3.9a10.844,10.844,0,0,0,1.559-.107v26.206Z" transform="translate(6120.001 1102.201)"/><path d="M-6110.989-1064.276a14.728,14.728,0,0,1-4.349-8.658,9.428,9.428,0,0,1,2.508-7.9c4.058-4.056,11.483-3.23,16.553,1.841a27.057,27.057,0,0,1,5.407,8.382,27.065,27.065,0,0,1,5.407-8.382c5.07-5.071,12.5-5.9,16.553-1.841a9.422,9.422,0,0,1,2.506,7.9,14.7,14.7,0,0,1-4.348,8.658c-5.038,5.038-15.969,9.5-20.119,5.625a6.424,6.424,0,0,1-4.494,1.467C-6100.4-1057.183-6107.286-1060.573-6110.989-1064.276Zm1.429-13.284c-2.682,2.683-1.205,8.168,1.907,11.28a20.909,20.909,0,0,0,7.055,4.31c1.779.653,5,1.512,6.569-.059s.711-4.789.059-6.568a20.954,20.954,0,0,0-4.309-7.056,11.6,11.6,0,0,0-5.883-3.136,8.736,8.736,0,0,0-1.626-.16A5.191,5.191,0,0,0-6109.56-1077.56Zm31.983-1.229a11.577,11.577,0,0,0-5.883,3.138,20.939,20.939,0,0,0-4.31,7.054c-.652,1.779-1.512,5,.058,6.568s4.79.71,6.57.059a20.926,20.926,0,0,0,7.055-4.31c3.112-3.112,4.588-8.6,1.905-11.28a5.186,5.186,0,0,0-3.771-1.389A8.73,8.73,0,0,0-6077.577-1078.789Z" transform="translate(6141.851 1088.995)" opacity="0.55"/></g></svg>