<svg xmlns="http://www.w3.org/2000/svg" xmlns:xlink="http://www.w3.org/1999/xlink" width="100" height="100" viewBox="0 0 100 100"><defs><clipPath id="b"><rect width="100" height="100"/></clipPath></defs><g id="a" clip-path="url(#b)"><path d="M-7069.427-89.1v-19.258H-7040v14.979a4.284,4.284,0,0,1-4.28,4.279Zm-4.282,0h-26.211a4.285,4.285,0,0,1-4.281-4.279v-14.979h30.5V-89.1Zm-59.713-.217A6.587,6.587,0,0,1-7140-95.9v-73.683a6.587,6.587,0,0,1,6.577-6.581h3.949v-1.316a1.317,1.317,0,0,1,1.316-1.316h4.171l-2.95-2.95a1.318,1.318,0,0,1,0-1.863l1.86-1.86a1.308,1.308,0,0,1,.932-.387,1.3,1.3,0,0,1,.932.387l2.949,2.95v-4.171a1.316,1.316,0,0,1,1.315-1.316h2.632a1.316,1.316,0,0,1,1.315,1.316v4.173l2.951-2.952a1.3,1.3,0,0,1,.93-.387,1.3,1.3,0,0,1,.932.387l1.859,1.86a1.318,1.318,0,0,1,0,1.863l-2.949,2.95h4.173a1.317,1.317,0,0,1,1.316,1.316v1.316h3.946a6.588,6.588,0,0,1,6.578,6.581v33.273h-8.985a4.6,4.6,0,0,0-4.591,4.591v38.028a4.582,4.582,0,0,0,3.179,4.369v0Zm64-23.321v-16.858a6.721,6.721,0,0,0,1.188.1,16.669,16.669,0,0,0,7.8-2.5h16.16a4.286,4.286,0,0,1,4.28,4.282v14.981Zm-4.282,0H-7104.2v-14.981a4.287,4.287,0,0,1,4.281-4.282h17.417a16.651,16.651,0,0,0,7.8,2.506,6.774,6.774,0,0,0,1-.071v16.827Z" transform="translate(7140 188.999)"/><path d="M-6112.227-1069.634a10.6,10.6,0,0,1-3.132-6.233,6.789,6.789,0,0,1,1.806-5.684c2.921-2.92,8.267-2.326,11.917,1.325a19.49,19.49,0,0,1,3.893,6.034,19.489,19.489,0,0,1,3.893-6.034c3.65-3.651,9-4.245,11.916-1.325a6.78,6.78,0,0,1,1.8,5.684,10.58,10.58,0,0,1-3.129,6.233c-3.627,3.627-11.5,6.836-14.484,4.05a4.627,4.627,0,0,1-3.236,1.056C-6104.6-1064.528-6109.561-1066.968-6112.227-1069.634Zm1.028-9.563c-1.931,1.931-.868,5.88,1.373,8.121a15.051,15.051,0,0,0,5.078,3.1c1.281.47,3.6,1.089,4.73-.043s.511-3.448.042-4.728a15.094,15.094,0,0,0-3.1-5.08,8.349,8.349,0,0,0-4.235-2.258,6.284,6.284,0,0,0-1.17-.115A3.735,3.735,0,0,0-6111.2-1079.2Zm23.024-.885a8.336,8.336,0,0,0-4.235,2.259,15.076,15.076,0,0,0-3.1,5.078c-.469,1.281-1.088,3.6.042,4.728s3.449.511,4.73.043a15.055,15.055,0,0,0,5.079-3.1c2.24-2.24,3.3-6.189,1.372-8.121a3.732,3.732,0,0,0-2.715-1A6.289,6.289,0,0,0-6088.174-1080.082Z" transform="translate(6166.271 1124.134)" opacity="0.55"/></g></svg>