<svg xmlns="http://www.w3.org/2000/svg" xmlns:xlink="http://www.w3.org/1999/xlink" width="100" height="100" viewBox="0 0 100 100"><defs><clipPath id="b"><rect width="100" height="100"/></clipPath></defs><g id="a" clip-path="url(#b)"><path d="M-4392.833-16188.419v-30H-4347v23.335a6.672,6.672,0,0,1-6.664,6.668Zm-47.5,0a6.676,6.676,0,0,1-6.668-6.668v-23.335h47.5v30Zm47.5-36.667v-26.255a10.552,10.552,0,0,0,1.851.155c3.444,0,7.983-1.459,12.147-3.9h25.169a6.671,6.671,0,0,1,6.664,6.664v23.334Zm-54.167,0v-23.334a6.675,6.675,0,0,1,6.668-6.664h27.13c4.16,2.439,8.7,3.9,12.143,3.9a10.558,10.558,0,0,0,1.557-.106v26.206Zm30.861-34.786a14.714,14.714,0,0,1-4.348-8.654,9.424,9.424,0,0,1,2.509-7.9c4.057-4.057,11.481-3.231,16.552,1.839a27.083,27.083,0,0,1,5.406,8.385,27.171,27.171,0,0,1,5.41-8.385c5.071-5.07,12.495-5.9,16.552-1.839a9.409,9.409,0,0,1,2.5,7.9,14.664,14.664,0,0,1-4.348,8.654c-5.038,5.037-15.967,9.5-20.119,5.626a6.423,6.423,0,0,1-4.49,1.471C-4405.548-16252.775-4412.437-16256.167-4416.139-16259.872Zm1.43-13.283c-2.684,2.684-1.205,8.167,1.908,11.28a20.846,20.846,0,0,0,7.052,4.311c1.782.654,5,1.512,6.57-.061s.711-4.789.057-6.566a20.938,20.938,0,0,0-4.307-7.057,11.62,11.62,0,0,0-5.884-3.138,8.77,8.77,0,0,0-1.626-.159A5.184,5.184,0,0,0-4414.709-16273.155Zm31.984-1.23a11.6,11.6,0,0,0-5.884,3.138,20.945,20.945,0,0,0-4.311,7.057c-.654,1.777-1.512,5,.057,6.566s4.793.711,6.57.061a20.9,20.9,0,0,0,7.056-4.311c3.113-3.113,4.588-8.6,1.9-11.28a5.177,5.177,0,0,0-3.771-1.39A8.769,8.769,0,0,0-4382.725-16274.386Z" transform="translate(4447 16284.589)"/></g></svg>