<svg xmlns="http://www.w3.org/2000/svg" xmlns:xlink="http://www.w3.org/1999/xlink" width="100" height="100" viewBox="0 0 100 100"><defs><clipPath id="b"><rect width="100" height="100"/></clipPath></defs><g id="a" clip-path="url(#b)"><path d="M-4546.428-16180.1v-19.259H-4517v14.981a4.285,4.285,0,0,1-4.282,4.277Zm-4.282,0h-26.212a4.287,4.287,0,0,1-4.282-4.277v-14.981h30.5v19.259Zm-59.713-.216a6.588,6.588,0,0,1-6.578-6.582v-73.682a6.59,6.59,0,0,1,6.578-6.582h3.951v-1.315a1.317,1.317,0,0,1,1.315-1.315h4.171l-2.95-2.95a1.315,1.315,0,0,1,0-1.862l1.859-1.859a1.307,1.307,0,0,1,.931-.384,1.307,1.307,0,0,1,.932.384l2.95,2.95v-4.172a1.315,1.315,0,0,1,1.315-1.315h2.631a1.315,1.315,0,0,1,1.315,1.315v4.176l2.95-2.954a1.307,1.307,0,0,1,.932-.384,1.3,1.3,0,0,1,.931.384l1.859,1.859a1.315,1.315,0,0,1,0,1.862l-2.95,2.95h4.175a1.317,1.317,0,0,1,1.316,1.315v1.315h3.946a6.59,6.59,0,0,1,6.578,6.582v33.271h-8.984a4.6,4.6,0,0,0-4.592,4.593v38.027a4.577,4.577,0,0,0,3.179,4.367v0Zm64-23.32v-16.861a6.3,6.3,0,0,0,1.189.1,16.667,16.667,0,0,0,7.8-2.5h16.158a4.286,4.286,0,0,1,4.282,4.281v14.981Zm-4.282,0H-4581.2v-14.981a4.288,4.288,0,0,1,4.282-4.281h17.417a16.68,16.68,0,0,0,7.8,2.5,7.129,7.129,0,0,0,1-.069v16.828Zm-10.34-22.434a9.208,9.208,0,0,1-2.717-5.413,5.891,5.891,0,0,1,1.564-4.936c2.537-2.537,7.183-2.022,10.349,1.148a16.951,16.951,0,0,1,3.383,5.241,16.873,16.873,0,0,1,3.379-5.241c3.17-3.171,7.812-3.686,10.349-1.148a5.879,5.879,0,0,1,1.564,4.936,9.208,9.208,0,0,1-2.717,5.413c-3.15,3.146-9.981,5.937-12.575,3.514a4.006,4.006,0,0,1-2.811.919C-4554.431-16221.637-4558.733-16223.757-4561.05-16226.069Zm20.889-9.074a7.23,7.23,0,0,0-3.681,1.962,13.109,13.109,0,0,0-2.692,4.408c-.409,1.115-.944,3.125.037,4.105s3,.445,4.106.041a13.111,13.111,0,0,0,4.413-2.7c1.945-1.945,2.868-5.377,1.189-7.052a3.239,3.239,0,0,0-2.357-.866A5.218,5.218,0,0,0-4540.161-16235.144Zm-19.995.769c-1.679,1.675-.756,5.106,1.193,7.052a13.092,13.092,0,0,0,4.409,2.7c1.111.4,3.125.943,4.105-.041s.445-2.99.037-4.105a13.047,13.047,0,0,0-2.692-4.408,7.234,7.234,0,0,0-3.677-1.962,5.286,5.286,0,0,0-1.017-.1A3.239,3.239,0,0,0-4560.155-16234.375Z" transform="translate(4617 16280.001)"/></g></svg>