<svg xmlns="http://www.w3.org/2000/svg" xmlns:xlink="http://www.w3.org/1999/xlink" width="100" height="100" viewBox="0 0 100 100"><defs><clipPath id="b"><rect width="100" height="100"/></clipPath></defs><g id="a" clip-path="url(#b)"><path d="M-5916.667,88H-5950V54.666h33.333V88h0Zm-28.571-4.761h23.81V59.429h-23.81ZM-5864.286,88V83.238h4.762V88Zm-9.524,0V83.238h4.763V88Zm-4.762,0V83.238h4.762V88Zm-4.761,0V83.238h4.761V88Zm-4.762,0V83.238h4.762V88Zm-4.762,0V83.238h4.762V88Zm-9.523,0h-9.524V83.238h4.763V78.476h-4.763V73.714h4.763v4.762h4.762V73.714h4.761V88Zm47.618-4.761V78.476H-5850v4.762Zm-14.285,0H-5888.1V78.476h-4.762V68.952h4.762V59.429h4.762V73.714h4.761v4.762h14.286v4.762Zm-14.286-4.762v0Zm-4.762,0v0Zm19.048,0V73.714h4.762v4.762Zm-28.572,0V73.714h4.762v4.762Zm-42.857,0V64.19h14.286V78.476Zm80.952-4.762h-9.523V64.19h4.762v0h9.523v4.762h0v4.762Zm-19.048,0V68.952h4.762v4.762Zm-33.333,0V68.952h4.763v4.762Zm4.763-4.762V64.19h4.762v4.762Zm47.618-4.762V59.429h4.762V64.19Zm-4.762,0v0h-4.762V54.666h4.762v4.762h4.762V64.19Zm-9.524,0V59.429h4.763V64.19Zm-23.809,0V59.429h4.762V64.19Zm-9.523,0V59.429h4.762V64.19Zm-4.763,0V59.429h4.763V64.19Zm38.095-4.761V54.666h4.763v4.762Zm-23.809,0V54.666h4.762v4.762Zm-9.523,0h-4.763V54.666h9.524v4.762Zm52.38-4.762V49.9H-5850v4.762Zm-4.762,0h-4.762V49.9h9.523v4.762Zm-14.286,0V49.9h-4.762V45.142h4.762V49.9h4.763v4.762Zm-9.523,0V45.142h4.761v9.524Zm-4.762,0h-4.762V49.9h9.524v4.762Zm-9.524,0V49.9h4.762v4.762Zm-14.286,0V49.9h4.763v4.762Zm52.381-4.762V45.142h4.762V49.9Zm-38.1,0V45.142h4.762V49.9Zm-9.523,0V45.142h4.762V49.9Zm-14.286,0V45.142h4.762V49.9Zm-4.762,0V45.142h4.762V49.9Zm-9.524,0V45.142h4.762V49.9Zm-4.762,0V45.142h4.762V49.9Zm80.952-4.762V40.381h4.762v4.761Zm-9.523,0V40.381h4.762v4.761Zm-4.763,0V40.381h4.763v4.761Zm-19.047,0V40.381h-4.762V35.619h4.762v4.762h4.762v4.761Zm-19.048,0V40.381h4.763v4.761Zm-28.571,0V40.381h4.762v4.761Zm-9.523,0V40.381h4.762v4.761Zm95.237-4.761h-4.762V35.619H-5850v4.762Zm-23.81,0V30.857h4.762v9.524Zm-4.761,0V35.619h4.761v4.762Zm-33.333,0V30.857h4.762v9.524Zm-4.762,0V35.619h4.762v4.762Zm-4.762,0h-9.524V35.619h14.286v4.762Zm-19.048,0V35.619h4.762v4.762Zm90.476-4.762V30.857H-5850v4.762Zm-33.333,0V30.857h4.762v4.762Zm-4.762,0V30.857h4.762v4.762Zm-19.048,0V30.857h4.763v4.762Zm-14.285,0V30.857h4.762v4.762Zm-4.762,0V30.857h-4.762V26.1h4.762v4.762h4.762v4.762Zm-14.286,0V30.857H-5950V26.1h4.762v4.762h4.762v4.762Zm90.476-4.762V26.1H-5850v4.762Zm-4.762,0V26.1h4.762v4.762Zm-9.523,0V26.1h4.762v4.762Zm-14.286,0V26.1h4.761v4.762Zm-9.524,0v0h-4.762v0h-4.761V16.572h4.761v4.761h4.762V16.572h4.762V30.857Zm-14.285,0V26.1h4.762v4.762Zm-9.524,0h-9.523V26.1h14.285v4.762Zm-23.81,0V26.1h4.762v4.762Zm28.571-4.762V21.333h4.763V26.1ZM-5850,21.333h-33.334V-12H-5850V21.333h0Zm-28.572-4.761h23.81V-7.238h-23.81Zm-38.095,4.761H-5950V-12h33.333V21.333h0Zm-28.571-4.761h23.81V-7.238h-23.81Zm33.333,4.761V16.572h4.763v4.761Zm19.048-4.761V11.81h4.762v4.762Zm-4.762,0V7.048h4.762v9.524Zm-9.523,0V11.81h4.762v4.762Zm33.332-4.762V-2.476h14.286V11.81Zm-33.332,0V7.048h4.762V11.81Zm-33.334,0V-2.476h14.286V11.81Zm28.571-4.762V2.286h4.763V7.048Zm19.048-4.762h-9.523V-2.476h-9.524V-7.238h14.286v4.761h9.524V2.286Zm0-4.762V-7.238h4.762v4.761Zm0-4.761V-12h4.762v4.762Zm-4.762,0V-12h4.762v4.762Zm-4.761,0V-12h4.761v4.762Zm-4.762,0V-12h4.762v4.762Zm-4.763,0V-12h4.763v4.762Z" transform="translate(5950 12)"/></g></svg>