<svg xmlns="http://www.w3.org/2000/svg" xmlns:xlink="http://www.w3.org/1999/xlink" width="100" height="100" viewBox="0 0 100 100"><defs><clipPath id="b"><rect width="100" height="100"/></clipPath></defs><g id="a" clip-path="url(#b)"><path d="M-3843.584-8543.308h-86.834a6.509,6.509,0,0,1-5.689-3.282,6.519,6.519,0,0,1-.011-6.568l43.418-75.545a6.5,6.5,0,0,1,5.7-3.3,6.514,6.514,0,0,1,5.7,3.3l43.416,75.545a6.509,6.509,0,0,1-.011,6.568A6.5,6.5,0,0,1-3843.584-8543.308Zm-44.219-23.672a5.918,5.918,0,0,0-5.91,5.912,5.917,5.917,0,0,0,5.91,5.91,5.918,5.918,0,0,0,5.912-5.91A5.919,5.919,0,0,0-3887.8-8566.979Zm.193-23.073a7.491,7.491,0,0,1,3.92,1.162,3.751,3.751,0,0,1,1.951,3.072c0,1.924-1.588,2.912-4.179,4.365l-.218.122c-3.032,1.7-6.806,3.807-6.806,8.957v.837a2.049,2.049,0,0,0,2.049,2.045h6.183a2.048,2.048,0,0,0,2.047-2.045v-.494c0-1.383,1.513-2.257,3.429-3.362,3.065-1.768,7.262-4.188,7.262-10.345,0-7.5-7.905-13.105-14.974-13.105-6.419,0-10.948,2.4-14.686,7.769a2.04,2.04,0,0,0,.442,2.8l3.678,2.792a2.036,2.036,0,0,0,1.236.415,2.038,2.038,0,0,0,1.6-.77C-3892.639-8588.383-3891.048-8590.053-3887.61-8590.053Z" transform="translate(3937 8638)"/></g></svg>