<svg xmlns="http://www.w3.org/2000/svg" xmlns:xlink="http://www.w3.org/1999/xlink" width="100" height="100" viewBox="0 0 100 100"><defs><clipPath id="b"><rect width="100" height="100"/></clipPath></defs><g id="a" clip-path="url(#b)"><path d="M-5227.588-117.325a6.936,6.936,0,0,1,6.926-6.929,6.937,6.937,0,0,1,6.929,6.928,6.937,6.937,0,0,1-6.929,6.929A6.935,6.935,0,0,1-5227.588-117.325Zm3.3-9.874a2.4,2.4,0,0,1-2.4-2.4v-.979c0-6.183,4.688-8.655,8.23-10.642,3.038-1.7,4.9-2.861,4.9-5.116,0-2.984-3.805-4.964-6.881-4.964-3.914,0-5.772,1.807-8.277,4.945a2.4,2.4,0,0,1-3.325.415l-4.314-3.272a2.4,2.4,0,0,1-.519-3.288c4.059-5.833,9.23-9.1,17.212-9.1,8.488,0,17.549,6.626,17.549,15.362,0,11.6-12.528,11.778-12.528,16.064v.577a2.4,2.4,0,0,1-2.4,2.4Z" transform="translate(5270 186)" opacity="0.5"/><path d="M-139.462,96.071a49.837,49.837,0,0,1-15.893-10.715,49.827,49.827,0,0,1-10.715-15.893A49.682,49.682,0,0,1-170,50a49.687,49.687,0,0,1,3.929-19.462,49.827,49.827,0,0,1,10.715-15.893A49.827,49.827,0,0,1-139.462,3.929,49.687,49.687,0,0,1-120,0a49.69,49.69,0,0,1,19.463,3.929A49.833,49.833,0,0,1-84.645,14.645,49.827,49.827,0,0,1-73.93,30.538,49.687,49.687,0,0,1-70,50,49.682,49.682,0,0,1-73.93,69.462,49.827,49.827,0,0,1-84.645,85.355a49.833,49.833,0,0,1-15.892,10.715A49.69,49.69,0,0,1-120,100,49.687,49.687,0,0,1-139.462,96.071ZM-164,50a44.05,44.05,0,0,0,44,44A44.049,44.049,0,0,0-76,50,44.05,44.05,0,0,0-120,6,44.05,44.05,0,0,0-164,50Z" transform="translate(170)"/></g></svg>