<svg xmlns="http://www.w3.org/2000/svg" xmlns:xlink="http://www.w3.org/1999/xlink" width="100" height="100" viewBox="0 0 100 100"><defs><clipPath id="b"><rect width="100" height="100"/></clipPath></defs><g id="a" clip-path="url(#b)"><path d="M-3547-8532a49.687,49.687,0,0,1-19.462-3.93,49.85,49.85,0,0,1-15.893-10.716,49.831,49.831,0,0,1-10.715-15.895A49.686,49.686,0,0,1-3597-8582a49.686,49.686,0,0,1,3.929-19.462,49.835,49.835,0,0,1,10.715-15.894,49.836,49.836,0,0,1,15.893-10.715A49.708,49.708,0,0,1-3547-8632a49.709,49.709,0,0,1,19.462,3.929,49.832,49.832,0,0,1,15.893,10.715,49.843,49.843,0,0,1,10.715,15.894A49.686,49.686,0,0,1-3497-8582a49.686,49.686,0,0,1-3.929,19.462,49.839,49.839,0,0,1-10.715,15.895,49.838,49.838,0,0,1-15.893,10.716A49.687,49.687,0,0,1-3547-8532Zm-.663-38.256a6.935,6.935,0,0,0-6.926,6.93,6.935,6.935,0,0,0,6.926,6.929,6.938,6.938,0,0,0,6.93-6.931A6.937,6.937,0,0,0-3547.663-8570.255Zm.225-27.045a8.778,8.778,0,0,1,4.595,1.363,4.4,4.4,0,0,1,2.288,3.6c0,2.254-1.862,3.413-4.9,5.117l-.257.145c-3.552,1.988-7.973,4.462-7.973,10.5v.979a2.4,2.4,0,0,0,2.4,2.4h7.249a2.4,2.4,0,0,0,2.4-2.4v-.578c0-1.62,1.773-2.644,4.018-3.938,3.593-2.074,8.51-4.912,8.51-12.125,0-8.792-9.265-15.361-17.55-15.361-7.521,0-12.829,2.808-17.211,9.1a2.4,2.4,0,0,0,.518,3.289l4.315,3.271a2.374,2.374,0,0,0,1.448.488,2.391,2.391,0,0,0,1.877-.9C-3553.331-8595.341-3551.467-8597.3-3547.438-8597.3Z" transform="translate(3597 8632)"/></g></svg>