<svg xmlns="http://www.w3.org/2000/svg" xmlns:xlink="http://www.w3.org/1999/xlink" width="100" height="100" viewBox="0 0 100 100"><defs><clipPath id="b"><rect width="100" height="100"/></clipPath></defs><g id="a" clip-path="url(#b)"><path d="M-5396.713-115.066a5.919,5.919,0,0,1,5.911-5.912,5.918,5.918,0,0,1,5.912,5.911,5.917,5.917,0,0,1-5.912,5.911A5.917,5.917,0,0,1-5396.713-115.066Zm2.819-8.425a2.048,2.048,0,0,1-2.048-2.047v-.836c0-5.276,4-7.385,7.022-9.079,2.591-1.453,4.181-2.441,4.181-4.365,0-2.546-3.247-4.235-5.873-4.235-3.337,0-4.923,1.541-7.062,4.219a2.048,2.048,0,0,1-2.837.355l-3.68-2.792a2.049,2.049,0,0,1-.442-2.8c3.462-4.977,7.875-7.767,14.686-7.767,7.243,0,14.974,5.654,14.974,13.106,0,9.9-10.689,10.049-10.689,13.707v.493a2.048,2.048,0,0,1-2.048,2.047Z" transform="translate(5440 192)" opacity="0.5"/><path d="M-5093.417-97.309a6.506,6.506,0,0,1-5.688-3.281,6.505,6.505,0,0,1-.01-6.568L-5055.7-182.7a6.5,6.5,0,0,1,5.7-3.3,6.506,6.506,0,0,1,5.7,3.3l43.417,75.545a6.507,6.507,0,0,1-.01,6.568,6.505,6.505,0,0,1-5.688,3.281Zm41.513-81.012-41.147,72.259a2.173,2.173,0,0,0,.009,2.185,2.171,2.171,0,0,0,1.895,1.091h82.294a2.167,2.167,0,0,0,1.893-1.091,2.164,2.164,0,0,0,.01-2.185L-5048.1-178.32a2.167,2.167,0,0,0-1.9-1.106A2.166,2.166,0,0,0-5051.9-178.32Z" transform="translate(5100 192)"/></g></svg>