<svg xmlns="http://www.w3.org/2000/svg" xmlns:xlink="http://www.w3.org/1999/xlink" width="100" height="100" viewBox="0 0 100 100"><defs><clipPath id="b"><rect width="100" height="100"/></clipPath></defs><g id="a" clip-path="url(#b)"><path d="M-1671.3,111.688a5.016,5.016,0,0,1-5.016-5.015v-30.4a5.016,5.016,0,0,1,8.562-3.546l9.493,9.493,52.476-52.475-9.494-9.493a5.016,5.016,0,0,1,3.547-8.562h30.4a5.016,5.016,0,0,1,5.016,5.015V47.1a5.016,5.016,0,0,1-8.562,3.546l-9.558-9.558-52.475,52.476,9.557,9.557a5.015,5.015,0,0,1-3.546,8.562Z" transform="translate(1676.312 -11.688)"/></g></svg>