<svg xmlns="http://www.w3.org/2000/svg" xmlns:xlink="http://www.w3.org/1999/xlink" width="100" height="100" viewBox="0 0 100 100"><defs><clipPath id="b"><rect width="100" height="100"/></clipPath></defs><g id="a" clip-path="url(#b)"><path d="M-4385-14599a2,2,0,0,1-2-2v-96a2,2,0,0,1,2-2h14a4,4,0,0,1,4,4v92a4,4,0,0,1-4,4Zm1-96v92a1,1,0,0,0,1,1h11a2,2,0,0,0,2-2v-90a2,2,0,0,0-2-2h-11A1,1,0,0,0-4384-14695Zm-31,96a2,2,0,0,1-2-2v-96a2,2,0,0,1,2-2h16a2,2,0,0,1,2,2v96a2,2,0,0,1-2,2Zm1-96v92a1,1,0,0,0,1,1h12a1,1,0,0,0,1-1v-92a1,1,0,0,0-1-1h-12A1,1,0,0,0-4414-14695Zm-29,96a4,4,0,0,1-4-4v-92a4,4,0,0,1,4-4h14a2,2,0,0,1,2,2v96a2,2,0,0,1-2,2Zm-1-95v90a2,2,0,0,0,2,2h11a1,1,0,0,0,1-1v-92a1,1,0,0,0-1-1h-11A2,2,0,0,0-4444-14694Zm64,85a3,3,0,0,1,3-3,3,3,0,0,1,3,3,3,3,0,0,1-3,3A3,3,0,0,1-4380-14609Zm-30,0a3,3,0,0,1,3-3,3,3,0,0,1,3,3,3,3,0,0,1-3,3A3,3,0,0,1-4410-14609Zm-30,0a3,3,0,0,1,3-3,3,3,0,0,1,3,3,3,3,0,0,1-3,3A3,3,0,0,1-4440-14609Zm60-11a3,3,0,0,1,3-3,3,3,0,0,1,3,3,3,3,0,0,1-3,3A3,3,0,0,1-4380-14620Zm-30,0a3,3,0,0,1,3-3,3,3,0,0,1,3,3,3,3,0,0,1-3,3A3,3,0,0,1-4410-14620Zm-30,0a3,3,0,0,1,3-3,3,3,0,0,1,3,3,3,3,0,0,1-3,3A3,3,0,0,1-4440-14620Z" transform="translate(4457 14699)"/></g></svg>