<svg xmlns="http://www.w3.org/2000/svg" xmlns:xlink="http://www.w3.org/1999/xlink" width="100" height="100" viewBox="0 0 100 100"><defs><clipPath id="b"><rect width="100" height="100"/></clipPath></defs><g id="a" clip-path="url(#b)"><path d="M-4371-14783h-14a2,2,0,0,1-2-2v-96a2,2,0,0,1,2-2h14a4,4,0,0,1,4,4v92A4.005,4.005,0,0,1-4371-14783Zm-6-13a3,3,0,0,0-3,3,3,3,0,0,0,3,3,3,3,0,0,0,3-3A3,3,0,0,0-4377-14796Zm0-11a3,3,0,0,0-3,3,3,3,0,0,0,3,3,3,3,0,0,0,3-3A3,3,0,0,0-4377-14807Zm-22,24h-16a2,2,0,0,1-2-2v-96a2,2,0,0,1,2-2h16a2,2,0,0,1,2,2v96A2,2,0,0,1-4399-14783Zm-8-13a3,3,0,0,0-3,3,3,3,0,0,0,3,3,3,3,0,0,0,3-3A3,3,0,0,0-4407-14796Zm0-11a3,3,0,0,0-3,3,3,3,0,0,0,3,3,3,3,0,0,0,3-3A3,3,0,0,0-4407-14807Zm-22,24h-14a4.005,4.005,0,0,1-4-4v-92a4,4,0,0,1,4-4h14a2,2,0,0,1,2,2v96A2,2,0,0,1-4429-14783Zm-8-13a3,3,0,0,0-3,3,3,3,0,0,0,3,3,3,3,0,0,0,3-3A3,3,0,0,0-4437-14796Zm0-11a3,3,0,0,0-3,3,3,3,0,0,0,3,3,3,3,0,0,0,3-3A3,3,0,0,0-4437-14807Z" transform="translate(4457.001 14883)"/></g></svg>