<svg xmlns="http://www.w3.org/2000/svg" xmlns:xlink="http://www.w3.org/1999/xlink" width="100" height="100" viewBox="0 0 100 100"><defs><clipPath id="b"><rect width="100" height="100"/></clipPath></defs><g id="a" clip-path="url(#b)"><path d="M-3585.5-18727.994a10.513,10.513,0,0,1-10.5-10.5v-49a10.451,10.451,0,0,1,3.076-7.428,10.444,10.444,0,0,1,7.423-3.072h16.5v26a8.013,8.013,0,0,0,8,8,8.009,8.009,0,0,0,8-8v-26h16.5a10.428,10.428,0,0,1,7.424,3.072,10.432,10.432,0,0,1,3.076,7.428v49a10.513,10.513,0,0,1-10.5,10.5Zm20.248-44.461v-40.523l-5.165,5.178a4.428,4.428,0,0,1-6.285,0,4.438,4.438,0,0,1-1.295-3.146,4.445,4.445,0,0,1,1.295-3.146l12.565-12.6a4.422,4.422,0,0,1,6.28,0l12.555,12.6a4.448,4.448,0,0,1,0,6.293,4.417,4.417,0,0,1-6.275,0l-4.792-4.8v40.146a4.449,4.449,0,0,1-4.442,4.455A4.449,4.449,0,0,1-3565.254-18772.455Z" transform="translate(3611 18827.998)"/></g></svg>