<svg xmlns="http://www.w3.org/2000/svg" xmlns:xlink="http://www.w3.org/1999/xlink" width="100" height="100" viewBox="0 0 100 100"><defs><clipPath id="b"><rect width="100" height="100"/></clipPath></defs><g id="a" clip-path="url(#b)"><path d="M-3585.5-18545.992a10.429,10.429,0,0,1-7.422-3.08,10.421,10.421,0,0,1-3.074-7.426v-49a10.419,10.419,0,0,1,3.074-7.422,10.407,10.407,0,0,1,7.422-3.074h16.8v8.752h-15.054a3.5,3.5,0,0,0-3.5,3.5v45.494a3.5,3.5,0,0,0,3.5,3.506h45.5a3.509,3.509,0,0,0,3.505-3.506v-45.494a3.5,3.5,0,0,0-3.505-3.5h-15.115V-18616h16.865a10.418,10.418,0,0,1,7.427,3.074,10.419,10.419,0,0,1,3.075,7.422v49a10.421,10.421,0,0,1-3.075,7.426,10.44,10.44,0,0,1-7.427,3.08Zm20.249-44.463v-40.525l-5.166,5.182a4.436,4.436,0,0,1-6.285,0,4.462,4.462,0,0,1-1.3-3.15,4.455,4.455,0,0,1,1.3-3.145l12.565-12.6a4.419,4.419,0,0,1,6.28,0l12.555,12.6a4.455,4.455,0,0,1,0,6.295,4.43,4.43,0,0,1-6.28,0l-4.787-4.807v40.15a4.447,4.447,0,0,1-4.441,4.455A4.447,4.447,0,0,1-3565.253-18590.455Z" transform="translate(3611 18645.998)"/></g></svg>