<svg xmlns="http://www.w3.org/2000/svg" xmlns:xlink="http://www.w3.org/1999/xlink" width="100" height="100" viewBox="0 0 100 100"><defs><clipPath id="b"><rect width="100" height="100"/></clipPath></defs><g id="a" clip-path="url(#b)"><path d="M-3366.5-18556h-49a10.428,10.428,0,0,1-7.423-3.076,10.434,10.434,0,0,1-3.076-7.43v-49a10.426,10.426,0,0,1,3.076-7.422,10.41,10.41,0,0,1,7.423-3.076h16.8v8.752h-15.051a3.5,3.5,0,0,0-3.5,3.5v45.5a3.5,3.5,0,0,0,3.5,3.5h45.5a3.506,3.506,0,0,0,3.5-3.5v-45.5a3.506,3.506,0,0,0-3.5-3.5h-15.116V-18626h16.863a10.414,10.414,0,0,1,7.427,3.076,10.426,10.426,0,0,1,3.076,7.422v49a10.434,10.434,0,0,1-3.076,7.43A10.432,10.432,0,0,1-3366.5-18556Z" transform="translate(3441 18656)" opacity="0.5"/><path d="M-3570.253-18581.455v-40.525l-5.165,5.18a4.431,4.431,0,0,1-6.284,0,4.452,4.452,0,0,1-1.3-3.148,4.462,4.462,0,0,1,1.3-3.148l12.563-12.6a4.425,4.425,0,0,1,6.279,0l12.558,12.6a4.458,4.458,0,0,1,0,6.3,4.425,4.425,0,0,1-6.279,0l-4.791-4.8v40.15a4.447,4.447,0,0,1-4.441,4.455A4.45,4.45,0,0,1-3570.253-18581.455Z" transform="translate(3615.999 18637)"/></g></svg>