<svg xmlns="http://www.w3.org/2000/svg" xmlns:xlink="http://www.w3.org/1999/xlink" width="100" height="100" viewBox="0 0 100 100"><defs><clipPath id="b"><rect width="100" height="100"/></clipPath></defs><g id="a" clip-path="url(#b)"><path d="M-7947.143-88a11.655,11.655,0,0,1-3.021-.786c-1.559-.553-3.429-1.335-5.408-2.262a99.642,99.642,0,0,1-14.54-8.422,62.38,62.38,0,0,1-13.77-12.713c-4.06-5.306-6.118-10.664-6.118-15.923V-185.86a2.155,2.155,0,0,1,2.057-2.14c.03,0,.058,0,.086,0l22.615,1.175a41.618,41.618,0,0,1,5.859.541,27.4,27.4,0,0,1,7.516,2.166l.026.012.463.216a11.235,11.235,0,0,0,4.235,1.408,11.262,11.262,0,0,0,4.237-1.408l.485-.229a27.409,27.409,0,0,1,7.518-2.166,41.648,41.648,0,0,1,5.859-.541l22.615-1.175c.026,0,.056,0,.082,0a2.157,2.157,0,0,1,2.062,2.14v57.755c0,5.255-2.059,10.613-6.12,15.923a62.367,62.367,0,0,1-13.768,12.713,99.751,99.751,0,0,1-14.54,8.422c-2.008.938-3.878,1.721-5.408,2.262A11.662,11.662,0,0,1-7947.143-88Zm-24.107-58.449a6.115,6.115,0,0,0-4.353,1.8,6.113,6.113,0,0,0-1.8,4.352,6.113,6.113,0,0,0,1.8,4.352l11.815,11.815,4.353,4.353a6.116,6.116,0,0,0,4.354,1.8,6.112,6.112,0,0,0,4.351-1.8l32.334-32.334a6.117,6.117,0,0,0,1.8-4.353,6.117,6.117,0,0,0-1.8-4.353,6.113,6.113,0,0,0-4.351-1.8,6.118,6.118,0,0,0-4.354,1.8l-27.981,27.983-11.817-11.815A6.11,6.11,0,0,0-7971.25-146.448Z" transform="translate(7997 188)"/></g></svg>