<svg xmlns="http://www.w3.org/2000/svg" xmlns:xlink="http://www.w3.org/1999/xlink" width="100" height="100" viewBox="0 0 100 100"><defs><clipPath id="b"><rect width="100" height="100"/></clipPath></defs><g id="a" clip-path="url(#b)"><path d="M-7777.142-88a11.714,11.714,0,0,1-3.022-.785c-1.547-.549-3.418-1.332-5.409-2.263a99.474,99.474,0,0,1-14.541-8.423,62.424,62.424,0,0,1-13.77-12.712c-4.059-5.307-6.117-10.664-6.117-15.924V-185.86a2.154,2.154,0,0,1,2.057-2.139c.03,0,.059,0,.086,0l22.615,1.176a41.587,41.587,0,0,1,5.86.542,27.323,27.323,0,0,1,7.515,2.165c.167.077.33.153.488.228a11.213,11.213,0,0,0,4.237,1.407,11.216,11.216,0,0,0,4.235-1.407l.129-.06.116-.054.241-.113a27.348,27.348,0,0,1,7.519-2.165,41.533,41.533,0,0,1,5.858-.542l22.613-1.176c.027,0,.057,0,.084,0a2.156,2.156,0,0,1,2.061,2.139v57.754c0,5.256-2.059,10.613-6.119,15.924a62.321,62.321,0,0,1-13.77,12.712,99.414,99.414,0,0,1-14.539,8.423c-1.989.93-3.859,1.712-5.409,2.263A11.677,11.677,0,0,1-7777.142-88ZM-7797-152a4.005,4.005,0,0,0-4,4,4,4,0,0,0,4,4h16v32a4,4,0,0,0,4,4,4.005,4.005,0,0,0,4-4v-32h16a4,4,0,0,0,4-4,4.005,4.005,0,0,0-4-4h-16v-12a4.005,4.005,0,0,0-4-4,4,4,0,0,0-4,4v12Z" transform="translate(7827.001 188)"/></g></svg>