<svg xmlns="http://www.w3.org/2000/svg" xmlns:xlink="http://www.w3.org/1999/xlink" width="100" height="100" viewBox="0 0 100 100"><defs><clipPath id="b"><rect width="100" height="100"/></clipPath></defs><g id="a" clip-path="url(#b)"><path d="M-3557.164-13812.783c-1.571-.559-3.439-1.341-5.408-2.266a99.693,99.693,0,0,1-14.542-8.418,62.378,62.378,0,0,1-13.77-12.716c-4.057-5.3-6.117-10.66-6.117-15.921v-57.753a2.158,2.158,0,0,1,2.056-2.144.179.179,0,0,1,.045,0h.038l22.618,1.177a41.9,41.9,0,0,1,5.862.541,27.433,27.433,0,0,1,7.513,2.164l.262.123.087.038c.035.021.073.038.112.056l.024.011.021.011a11.189,11.189,0,0,0,4.218,1.4,11.19,11.19,0,0,0,4.218-1.4l.021-.011,0,0c.052-.024.108-.049.161-.076l.094-.042.223-.105a27.476,27.476,0,0,1,7.521-2.164,41.773,41.773,0,0,1,5.859-.541l22.614-1.177h.042a.152.152,0,0,1,.042,0,2.16,2.16,0,0,1,2.063,2.144v57.753c0,5.254-2.06,10.61-6.12,15.921a62.471,62.471,0,0,1-13.77,12.716,99.445,99.445,0,0,1-14.542,8.418c-2,.938-3.865,1.721-5.408,2.266a11.758,11.758,0,0,1-3.02.785A11.756,11.756,0,0,1-3557.164-13812.783Zm-33-89.447v48.548c0,4.424,1.728,8.928,5.143,13.387a52.288,52.288,0,0,0,11.574,10.684,83.508,83.508,0,0,0,12.224,7.084c1.69.789,3.264,1.446,4.546,1.9a9.871,9.871,0,0,0,2.538.656,9.839,9.839,0,0,0,2.538-.656c1.3-.465,2.877-1.121,4.55-1.9a83.137,83.137,0,0,0,12.22-7.084,52.228,52.228,0,0,0,11.574-10.684c3.415-4.462,5.146-8.966,5.146-13.387v-48.548a1.814,1.814,0,0,0-1.732-1.8h-.07l-19.011.992a34.77,34.77,0,0,0-4.926.454,23.026,23.026,0,0,0-6.316,1.818l-.021.011-.171.08c-.073.031-.146.066-.216.1l-.014.008a9.534,9.534,0,0,1-3.551,1.184,9.538,9.538,0,0,1-3.561-1.187c-.136-.062-.269-.126-.409-.192a23.082,23.082,0,0,0-6.319-1.818,34.7,34.7,0,0,0-4.923-.454l-19.014-.992h-.07A1.811,1.811,0,0,0-3590.169-13902.23Zm52.745,65.831-16.193-11.874a.651.651,0,0,0-.384-.126.639.639,0,0,0-.384.126l-16.193,11.874a.632.632,0,0,1-.381.129.647.647,0,0,1-.531-.275.618.618,0,0,1-.087-.573l6.236-19.168a.663.663,0,0,0-.234-.723l-16.256-11.822a.636.636,0,0,1-.234-.723.634.634,0,0,1,.615-.446l20.058.035a.649.649,0,0,0,.618-.451l6.159-19.175a.636.636,0,0,1,.615-.45.637.637,0,0,1,.618.45l6.159,19.175a.637.637,0,0,0,.611.451h.007l20.059-.035a.64.64,0,0,1,.614.446.639.639,0,0,1-.237.723l-16.253,11.822a.65.65,0,0,0-.238.723l6.239,19.168a.622.622,0,0,1-.087.573.658.658,0,0,1-.534.275A.648.648,0,0,1-3537.424-13836.4Z" transform="translate(3604 13911.999)"/></g></svg>