<svg xmlns="http://www.w3.org/2000/svg" xmlns:xlink="http://www.w3.org/1999/xlink" width="100" height="100" viewBox="0 0 100 100"><defs><clipPath id="b"><rect width="100" height="100"/></clipPath></defs><g id="a" clip-path="url(#b)"><path d="M-10497.143-280a11.766,11.766,0,0,1-3.021-.786c-1.577-.56-3.447-1.343-5.41-2.264a99.686,99.686,0,0,1-14.54-8.42,62.364,62.364,0,0,1-13.769-12.715c-4.06-5.305-6.118-10.662-6.118-15.921V-377.86a2.155,2.155,0,0,1,2.058-2.14c.029,0,.059,0,.085,0l22.616,1.174a41.782,41.782,0,0,1,5.859.542,27.535,27.535,0,0,1,7.515,2.164l.241.113.248.117.006,0a11.212,11.212,0,0,0,4.229,1.4,11.209,11.209,0,0,0,4.226-1.4l.012-.006.146-.07.032-.015.017-.008c.1-.044.192-.09.289-.137a27.558,27.558,0,0,1,7.518-2.164,41.782,41.782,0,0,1,5.859-.542l22.613-1.174c.029,0,.059,0,.085,0a2.156,2.156,0,0,1,2.061,2.14v57.755c0,5.255-2.059,10.612-6.118,15.921a62.443,62.443,0,0,1-13.771,12.715,99.706,99.706,0,0,1-14.538,8.42c-1.989.932-3.859,1.715-5.409,2.264A11.766,11.766,0,0,1-10497.143-280Zm-27.31-58h0a.635.635,0,0,0-.613.447.636.636,0,0,0,.235.723l16.255,11.824a.65.65,0,0,1,.232.722l-6.234,19.167a.627.627,0,0,0,.088.575.66.66,0,0,0,.531.275.644.644,0,0,0,.381-.128l16.193-11.877a.646.646,0,0,1,.384-.125.646.646,0,0,1,.384.125l16.193,11.877a.655.655,0,0,0,.381.127.662.662,0,0,0,.533-.275.625.625,0,0,0,.086-.574l-6.237-19.167a.649.649,0,0,1,.235-.722l16.255-11.824a.636.636,0,0,0,.235-.723.635.635,0,0,0-.613-.447l-20.059.037h-.006a.645.645,0,0,1-.613-.45l-6.158-19.178a.638.638,0,0,0-.616-.45.638.638,0,0,0-.616.45l-6.158,19.178a.645.645,0,0,1-.613.45h-.006l-20.056-.037Z" transform="translate(10547 380)"/></g></svg>