<svg xmlns="http://www.w3.org/2000/svg" xmlns:xlink="http://www.w3.org/1999/xlink" width="100" height="100" viewBox="0 0 100 100"><defs><clipPath id="b"><rect width="100" height="100"/></clipPath></defs><g id="a" clip-path="url(#b)"><path d="M-2874.143-13994a11.763,11.763,0,0,1-3.021-.785c-1.57-.557-3.44-1.339-5.408-2.264a99.635,99.635,0,0,1-14.541-8.418,62.45,62.45,0,0,1-13.77-12.716c-4.058-5.3-6.116-10.66-6.116-15.921v-57.755a2.155,2.155,0,0,1,2.055-2.143l.045,0h.04l22.616,1.178a41.683,41.683,0,0,1,5.861.541,27.4,27.4,0,0,1,7.513,2.165l.264.121.085.04.113.054.026.012.021.01a11.189,11.189,0,0,0,4.217,1.4,11.189,11.189,0,0,0,4.217-1.4l.021-.01,0,0,.163-.075.092-.043.226-.1a27.451,27.451,0,0,1,7.52-2.165,41.6,41.6,0,0,1,5.857-.541l22.613-1.178h.042l.042,0a2.158,2.158,0,0,1,2.062,2.143v57.755c0,5.253-2.059,10.609-6.119,15.921a62.475,62.475,0,0,1-13.77,12.716,99.549,99.549,0,0,1-14.541,8.418c-2,.938-3.867,1.72-5.408,2.264A11.763,11.763,0,0,1-2874.143-13994Zm-34.3-92.028a1.81,1.81,0,0,0-1.729,1.8v48.55c0,4.423,1.73,8.927,5.143,13.385a52.383,52.383,0,0,0,11.573,10.686,83.745,83.745,0,0,0,12.224,7.082c1.692.79,3.264,1.447,4.545,1.9a9.814,9.814,0,0,0,2.54.658,9.81,9.81,0,0,0,2.54-.658c1.3-.462,2.875-1.119,4.549-1.9a83.677,83.677,0,0,0,12.221-7.082,52.319,52.319,0,0,0,11.573-10.686c3.415-4.463,5.146-8.966,5.146-13.385v-48.55a1.812,1.812,0,0,0-1.733-1.8h-.071l-19.009.99a35.282,35.282,0,0,0-4.927.452,23.072,23.072,0,0,0-6.317,1.822l-.021.01-.169.078-.216.1-.015.008a9.466,9.466,0,0,1-3.551,1.181,9.51,9.51,0,0,1-3.562-1.186c-.134-.063-.269-.127-.407-.19a23.137,23.137,0,0,0-6.321-1.822,35.207,35.207,0,0,0-4.924-.452l-19.012-.99Z" transform="translate(2923.999 14094)"/><path d="M-2874.143-14183.967a9.747,9.747,0,0,1-2.54-.659c-1.29-.457-2.862-1.115-4.547-1.9a83.865,83.865,0,0,1-12.224-7.083,52.472,52.472,0,0,1-11.573-10.685c-3.412-4.458-5.141-8.961-5.141-13.385v-48.551a1.808,1.808,0,0,1,1.727-1.795h.072l19.014.989a35.311,35.311,0,0,1,4.923.451,23.321,23.321,0,0,1,6.32,1.823l.408.19a9.491,9.491,0,0,0,3.561,1.186,9.5,9.5,0,0,0,3.551-1.183l.014-.007.005,0c.085-.037.149-.067.209-.1l.172-.075.021-.011a23.255,23.255,0,0,1,6.316-1.823,35.4,35.4,0,0,1,4.926-.451l19.007-.989h.072a1.812,1.812,0,0,1,1.734,1.795v48.551c0,4.418-1.731,8.921-5.145,13.385a52.417,52.417,0,0,1-11.576,10.685,83.445,83.445,0,0,1-12.221,7.083c-1.661.778-3.233,1.436-4.546,1.9A9.747,9.747,0,0,1-2874.143-14183.967Zm-30.829-9.8c-1.322-1.224-2.552-2.47-3.656-3.7,1.106,1.232,2.336,2.479,3.658,3.7Zm61.729-.064v0a54.793,54.793,0,0,0,4.1-4.225A54.181,54.181,0,0,1-2843.243-14193.828Zm4.105-4.228h0c.61-.7,1.193-1.418,1.734-2.126C-2837.945-14199.474-2838.528-14198.759-2839.138-14198.056Zm-42.494-75.146a34.514,34.514,0,0,0-4.75-1.077,34,34,0,0,1,4.75,1.075Z" transform="translate(2924 14275.999)" opacity="0.5"/></g></svg>