<svg xmlns="http://www.w3.org/2000/svg" xmlns:xlink="http://www.w3.org/1999/xlink" width="100" height="100" viewBox="0 0 100 100"><defs><clipPath id="b"><rect width="100" height="100"/></clipPath></defs><g id="a" clip-path="url(#b)"><path d="M-3217.163-13812.783c-1.571-.559-3.442-1.341-5.408-2.266a99.511,99.511,0,0,1-14.542-8.418,62.372,62.372,0,0,1-13.77-12.716c-4.057-5.3-6.117-10.66-6.117-15.921v-57.753a2.156,2.156,0,0,1,2.057-2.144.19.19,0,0,1,.045,0h.039l22.618,1.177a41.818,41.818,0,0,1,5.859.541,27.36,27.36,0,0,1,7.513,2.164c.091.042.178.081.265.123l.084.038c.039.021.077.038.115.056l.024.011.021.011a11.192,11.192,0,0,0,4.218,1.4,11.2,11.2,0,0,0,4.214-1.4l.021-.011,0,0c.056-.024.108-.049.164-.076l.091-.042c.077-.035.154-.07.227-.105a27.441,27.441,0,0,1,7.521-2.164,41.732,41.732,0,0,1,5.859-.541l22.611-1.177h.042a.179.179,0,0,1,.045,0,2.159,2.159,0,0,1,2.06,2.144v57.753c0,5.254-2.056,10.61-6.117,15.921a62.466,62.466,0,0,1-13.77,12.716,99.433,99.433,0,0,1-14.542,8.418c-2,.938-3.868,1.721-5.408,2.266a11.755,11.755,0,0,1-3.02.785A11.759,11.759,0,0,1-3217.163-13812.783Zm-33.008-89.447v48.548c0,4.424,1.732,8.928,5.143,13.387a52.446,52.446,0,0,0,11.574,10.684,83.543,83.543,0,0,0,12.227,7.084c1.69.789,3.261,1.446,4.542,1.9a9.885,9.885,0,0,0,2.542.656,9.873,9.873,0,0,0,2.538-.656c1.3-.465,2.877-1.121,4.549-1.9a83.493,83.493,0,0,0,12.22-7.084,52.222,52.222,0,0,0,11.574-10.684c3.415-4.462,5.146-8.966,5.146-13.387v-48.548a1.814,1.814,0,0,0-1.732-1.8h-.073l-19.007.992a34.729,34.729,0,0,0-4.927.454,23.047,23.047,0,0,0-6.32,1.818l-.021.011-.167.08c-.073.031-.147.066-.217.1l-.014.008a9.554,9.554,0,0,1-3.551,1.184,9.539,9.539,0,0,1-3.561-1.187c-.136-.062-.269-.126-.408-.192a23.083,23.083,0,0,0-6.32-1.818,34.729,34.729,0,0,0-4.927-.454l-19.011-.992h-.07A1.814,1.814,0,0,0-3250.171-13902.23ZM-3218-13836v-32h-16a4,4,0,0,1-4-4,4.007,4.007,0,0,1,4-4h16v-12a4,4,0,0,1,4-4,4,4,0,0,1,4,4v12h16a4.007,4.007,0,0,1,4,4,4,4,0,0,1-4,4h-16v32a4,4,0,0,1-4,4A4,4,0,0,1-3218-13836Z" transform="translate(3264 13911.999)"/></g></svg>