<svg xmlns="http://www.w3.org/2000/svg" xmlns:xlink="http://www.w3.org/1999/xlink" width="100" height="100" viewBox="0 0 100 100"><defs><clipPath id="b"><rect width="100" height="100"/></clipPath></defs><g id="a" clip-path="url(#b)"><path d="M-2874.143-13994a11.763,11.763,0,0,1-3.021-.785c-1.57-.557-3.44-1.339-5.408-2.264a99.635,99.635,0,0,1-14.541-8.418,62.45,62.45,0,0,1-13.77-12.716c-4.058-5.3-6.116-10.66-6.116-15.921v-57.755a2.155,2.155,0,0,1,2.055-2.143l.045,0h.04l22.616,1.178a41.683,41.683,0,0,1,5.861.541,27.4,27.4,0,0,1,7.513,2.165l.264.121.085.04.113.054.026.012.021.01a11.189,11.189,0,0,0,4.217,1.4,11.189,11.189,0,0,0,4.217-1.4l.021-.01,0,0,.163-.075.092-.043.226-.1a27.451,27.451,0,0,1,7.52-2.165,41.6,41.6,0,0,1,5.857-.541l22.613-1.178h.042l.042,0a2.158,2.158,0,0,1,2.062,2.143v57.755c0,5.253-2.059,10.609-6.119,15.921a62.475,62.475,0,0,1-13.77,12.716,99.549,99.549,0,0,1-14.541,8.418c-2,.938-3.867,1.72-5.408,2.264A11.763,11.763,0,0,1-2874.143-13994Zm-34.3-92.028a1.81,1.81,0,0,0-1.729,1.8v48.55c0,4.423,1.73,8.927,5.143,13.385a52.383,52.383,0,0,0,11.573,10.686,83.745,83.745,0,0,0,12.224,7.082c1.692.79,3.264,1.447,4.545,1.9a9.814,9.814,0,0,0,2.54.658,9.81,9.81,0,0,0,2.54-.658c1.3-.462,2.875-1.119,4.549-1.9a83.677,83.677,0,0,0,12.221-7.082,52.319,52.319,0,0,0,11.573-10.686c3.415-4.463,5.146-8.966,5.146-13.385v-48.55a1.812,1.812,0,0,0-1.733-1.8h-.071l-19.009.99a35.282,35.282,0,0,0-4.927.452,23.072,23.072,0,0,0-6.317,1.822l-.021.01-.169.078-.216.1-.015.008a9.466,9.466,0,0,1-3.551,1.181,9.51,9.51,0,0,1-3.562-1.186c-.134-.063-.269-.127-.407-.19a23.137,23.137,0,0,0-6.321-1.822,35.207,35.207,0,0,0-4.924-.452l-19.012-.99Z" transform="translate(2923.999 14094.001)"/></g></svg>