<svg xmlns="http://www.w3.org/2000/svg" xmlns:xlink="http://www.w3.org/1999/xlink" width="100" height="100" viewBox="0 0 100 100"><defs><clipPath id="b"><rect width="100" height="100"/></clipPath></defs><g id="a" clip-path="url(#b)"><path d="M-3387.166-13812.783c-1.568-.559-3.439-1.341-5.408-2.266a99.693,99.693,0,0,1-14.542-8.418,62.537,62.537,0,0,1-13.77-12.716c-4.057-5.3-6.114-10.66-6.114-15.921v-57.753a2.156,2.156,0,0,1,2.053-2.144.165.165,0,0,1,.045,0h.042l22.614,1.177a41.812,41.812,0,0,1,5.862.541,27.4,27.4,0,0,1,7.513,2.164c.087.042.178.081.265.123l.084.038c.039.021.077.038.112.056l.028.011.021.011a11.2,11.2,0,0,0,4.214,1.4,11.19,11.19,0,0,0,4.218-1.4l.021-.011,0,0c.052-.024.108-.049.164-.076l.091-.042.227-.105a27.441,27.441,0,0,1,7.521-2.164,41.738,41.738,0,0,1,5.855-.541l22.614-1.177h.042a.152.152,0,0,1,.042,0,2.16,2.16,0,0,1,2.063,2.144v57.753c0,5.254-2.06,10.61-6.12,15.921a62.471,62.471,0,0,1-13.77,12.716,99.589,99.589,0,0,1-14.539,8.418c-2,.938-3.868,1.721-5.408,2.266a11.772,11.772,0,0,1-3.023.785A11.79,11.79,0,0,1-3387.166-13812.783Zm-33-89.447v48.548c0,4.424,1.732,8.928,5.143,13.387a52.288,52.288,0,0,0,11.574,10.684,83.687,83.687,0,0,0,12.224,7.084c1.693.789,3.264,1.446,4.546,1.9a9.871,9.871,0,0,0,2.538.656,9.854,9.854,0,0,0,2.542-.656c1.3-.465,2.873-1.121,4.549-1.9a83.493,83.493,0,0,0,12.22-7.084,52.3,52.3,0,0,0,11.574-10.684c3.415-4.462,5.146-8.966,5.146-13.387v-48.548a1.814,1.814,0,0,0-1.735-1.8h-.07l-19.007.992a34.8,34.8,0,0,0-4.93.454,23.026,23.026,0,0,0-6.316,1.818l-.021.011-.171.08c-.073.031-.143.066-.213.1l-.017.008a9.515,9.515,0,0,1-3.551,1.184,9.578,9.578,0,0,1-3.561-1.187c-.133-.062-.269-.126-.405-.192a23.107,23.107,0,0,0-6.323-1.818,34.653,34.653,0,0,0-4.923-.454l-19.011-.992h-.073A1.813,1.813,0,0,0-3420.17-13902.23Zm23.735,58.457-4.354-4.351-11.815-11.814a6.129,6.129,0,0,1-1.8-4.354,6.106,6.106,0,0,1,1.8-4.35,6.124,6.124,0,0,1,4.354-1.806,6.111,6.111,0,0,1,4.35,1.806l11.818,11.814,27.98-27.983a6.1,6.1,0,0,1,4.354-1.8,6.1,6.1,0,0,1,4.35,1.8,6.125,6.125,0,0,1,1.8,4.354,6.12,6.12,0,0,1-1.8,4.351l-32.334,32.334a6.1,6.1,0,0,1-4.35,1.8A6.109,6.109,0,0,1-3396.435-13843.773Z" transform="translate(3434 13911.999)"/></g></svg>