<svg xmlns="http://www.w3.org/2000/svg" xmlns:xlink="http://www.w3.org/1999/xlink" width="100" height="100" viewBox="0 0 100 100"><defs><clipPath id="b"><rect width="100" height="100"/></clipPath></defs><g id="a" clip-path="url(#b)"><path d="M-9470.143-88a11.72,11.72,0,0,1-3.022-.786c-1.576-.56-3.445-1.343-5.406-2.263a99.524,99.524,0,0,1-14.541-8.422,62.267,62.267,0,0,1-13.771-12.713c-4.059-5.306-6.116-10.663-6.116-15.922V-138h43v-44.487a11.742,11.742,0,0,0,4.074-1.391l.019-.009,0,0,.229-.108.047-.022.206-.1a27.485,27.485,0,0,1,7.517-2.165,41.825,41.825,0,0,1,5.858-.54l22.613-1.175c.029,0,.057,0,.084,0a2.157,2.157,0,0,1,2.062,2.141V-138H-9470v50C-9470.058-88-9470.1-88-9470.143-88Z" transform="translate(9520 188)" opacity="0.5"/><path d="M-9470-138h-43v-47.858a2.155,2.155,0,0,1,2.058-2.141c.028,0,.057,0,.086,0l22.613,1.175a41.865,41.865,0,0,1,5.861.54,27.437,27.437,0,0,1,7.514,2.165l.49.229a11.255,11.255,0,0,0,4.235,1.407l.144-.007V-138h42.714v9.9c0,5.256-2.062,10.615-6.118,15.922a62.28,62.28,0,0,1-13.771,12.713,99.634,99.634,0,0,1-14.538,8.422c-1.985.929-3.856,1.713-5.407,2.263a13.439,13.439,0,0,1-2.879.78Z" transform="translate(9520 188)"/></g></svg>