<svg xmlns="http://www.w3.org/2000/svg" xmlns:xlink="http://www.w3.org/1999/xlink" width="100" height="100" viewBox="0 0 100 100"><defs><clipPath id="b"><rect width="100" height="100"/></clipPath></defs><g id="a" clip-path="url(#b)"><path d="M-11298.146-622a11.7,11.7,0,0,1-3.021-.784c-1.555-.552-3.426-1.334-5.408-2.263a99.579,99.579,0,0,1-14.541-8.422,62.353,62.353,0,0,1-13.77-12.713c-4.061-5.307-6.117-10.664-6.117-15.922v-57.754a2.156,2.156,0,0,1,2.057-2.141l.086,0,22.615,1.176a41.622,41.622,0,0,1,5.859.541,27.393,27.393,0,0,1,7.516,2.165l.488.228a11.235,11.235,0,0,0,4.236,1.408,11.236,11.236,0,0,0,4.236-1.408l0,0,.482-.226a27.405,27.405,0,0,1,7.518-2.165,41.622,41.622,0,0,1,5.859-.541l22.613-1.176.084,0a2.157,2.157,0,0,1,2.061,2.141v57.754c0,5.258-2.061,10.615-6.119,15.922a62.341,62.341,0,0,1-13.77,12.713,99.584,99.584,0,0,1-14.539,8.422c-1.986.93-3.855,1.712-5.408,2.263A11.717,11.717,0,0,1-11298.146-622Z" transform="translate(11348.004 722.001)"/></g></svg>