<svg xmlns="http://www.w3.org/2000/svg" xmlns:xlink="http://www.w3.org/1999/xlink" width="100" height="100" viewBox="0 0 100 100"><defs><clipPath id="b"><rect width="100" height="100"/></clipPath></defs><g id="a" clip-path="url(#b)"><path d="M-8327.608-832.985h7.276a5.851,5.851,0,0,0,5.86,3.931c4.857,0,7.813-4.615,7.616-12.7H-8307c-1.269,3.442-4.736,5.762-9.374,5.762a11.381,11.381,0,0,1-11.7-11.623c0-7.25,5.715-12.425,13.575-12.425a13.053,13.053,0,0,1,11.742,6.446c1.954,3,2.955,6.958,2.955,11.669,0,11.671-5.518,18.7-14.795,18.7C-8321.334-823.218-8326.632-827.223-8327.608-832.985Zm6.739-14.844a6.207,6.207,0,0,0,6.42,6.3,6.218,6.218,0,0,0,6.446-6.249,6.305,6.305,0,0,0-6.4-6.373A6.343,6.343,0,0,0-8320.869-847.829ZM-8314.7-864v-28.467h-.146l-8.985,6.2v-6.64l9.106-6.325h7.323V-864Z" transform="translate(8332 912)"/><path d="M32.815.871a2,2,0,0,1,2.37,0l27.9,20.518A2,2,0,0,1,61.9,25H6.1a2,2,0,0,1-1.185-3.611Z" transform="translate(36 38)" opacity="0.5"/></g></svg>