<svg xmlns="http://www.w3.org/2000/svg" xmlns:xlink="http://www.w3.org/1999/xlink" width="100" height="100" viewBox="0 0 100 100"><defs><clipPath id="b"><rect width="100" height="100"/></clipPath></defs><g id="a" clip-path="url(#b)"><path d="M-8127.185-677.872l-27.9-20.518A2,2,0,0,1-8153.9-702h55.807a2,2,0,0,1,1.185,3.611l-27.905,20.518a1.991,1.991,0,0,1-1.184.39A1.993,1.993,0,0,1-8127.185-677.872ZM-8113.9-705a2,2,0,0,1-1.185-3.611l27.9-20.518a2,2,0,0,1,2.371,0l27.9,20.518A2,2,0,0,1-8058.1-705Z" transform="translate(8156 754)" opacity="0.5"/><path d="M-8096.511-654.77v-4.81l17.9-24.145v-.2H-8096.1V-690h26.293v4.784l-17.821,24.171v.17h18.31v6.1Zm-38.17-40-2.687-8.544h-12.377l-2.685,8.544H-8160L-8147.768-730h8.667l12.255,35.228Zm-13.477-14.061h9.2l-4.516-14.429h-.172Z" transform="translate(8162.684 742.771)"/></g></svg>