<svg xmlns="http://www.w3.org/2000/svg" xmlns:xlink="http://www.w3.org/1999/xlink" width="100" height="100" viewBox="0 0 100 100"><defs><clipPath id="b"><rect width="100" height="100"/></clipPath></defs><g id="a" clip-path="url(#b)"><path d="M-8497.828-642v-4.81l17.9-24.144v-.2h-17.48v-6.079h26.294v4.784l-17.821,24.172v.171h18.311v6.1ZM-8474-682l-2.685-8.545h-12.379l-2.686,8.545h-7.567l12.23-35.229h8.669L-8466.163-682Zm-13.477-14.063h9.2l-4.516-14.428h-.17Z" transform="translate(8502 730)"/><path d="M32.815.871a2,2,0,0,1,2.37,0l27.9,20.518A2,2,0,0,1,61.9,25H6.1a2,2,0,0,1-1.185-3.611Z" transform="translate(104 63) rotate(180)" opacity="0.5"/></g></svg>