<svg xmlns="http://www.w3.org/2000/svg" xmlns:xlink="http://www.w3.org/1999/xlink" width="100" height="100" viewBox="0 0 100 100"><defs><clipPath id="b"><rect width="100" height="100"/></clipPath></defs><g id="a" clip-path="url(#b)"><path d="M-8327.826-642v-4.81l17.894-24.144v-.2h-17.479v-6.079h26.295v4.785l-17.823,24.171v.169h18.31v6.1ZM-8304-682l-2.687-8.546h-12.379l-2.684,8.546h-7.569l12.23-35.229h8.669L-8296.161-682Zm-13.477-14.062h9.2l-4.518-14.43h-.172Z" transform="translate(8332 730)"/><path d="M32.815.871a2,2,0,0,1,2.37,0l27.9,20.518A2,2,0,0,1,61.9,25H6.1a2,2,0,0,1-1.185-3.611Z" transform="translate(36 38)" opacity="0.5"/></g></svg>