<svg xmlns="http://www.w3.org/2000/svg" xmlns:xlink="http://www.w3.org/1999/xlink" width="100" height="100" viewBox="0 0 100 100"><defs><clipPath id="b"><rect width="100" height="100"/></clipPath></defs><g id="a" clip-path="url(#b)"><path d="M-8127.185-859.871l-27.9-20.518A2,2,0,0,1-8153.9-884h55.807a2,2,0,0,1,1.185,3.611l-27.905,20.518a2,2,0,0,1-1.184.388A2,2,0,0,1-8127.185-859.871ZM-8113.9-887a2,2,0,0,1-1.185-3.611l27.9-20.518a2,2,0,0,1,2.371,0l27.9,20.518A2,2,0,0,1-8058.1-887Z" transform="translate(8156 936)" opacity="0.5"/><path d="M-8095.606-832.985h7.274a5.849,5.849,0,0,0,5.859,3.931c4.858,0,7.813-4.615,7.618-12.7H-8075c-1.27,3.444-4.735,5.761-9.375,5.761a11.378,11.378,0,0,1-11.694-11.621c0-7.25,5.712-12.425,13.574-12.425a13.06,13.06,0,0,1,11.743,6.445c1.954,3,2.955,6.957,2.955,11.67,0,11.67-5.518,18.7-14.8,18.7C-8089.333-823.219-8094.632-827.224-8095.606-832.985Zm6.738-14.843a6.207,6.207,0,0,0,6.42,6.3,6.217,6.217,0,0,0,6.445-6.25,6.306,6.306,0,0,0-6.4-6.373A6.343,6.343,0,0,0-8088.869-847.828ZM-8148.7-864v-28.466h-.147l-8.983,6.2v-6.642l9.106-6.322h7.323V-864Z" transform="translate(8162 912)"/></g></svg>