<svg xmlns="http://www.w3.org/2000/svg" xmlns:xlink="http://www.w3.org/1999/xlink" width="100" height="100" viewBox="0 0 100 100"><defs><clipPath id="b"><rect width="100" height="100"/></clipPath></defs><g id="a" clip-path="url(#b)"><path d="M-8497.607-832.984h7.275a5.851,5.851,0,0,0,5.858,3.931c4.858,0,7.814-4.615,7.618-12.7H-8477c-1.269,3.442-4.734,5.763-9.373,5.763a11.38,11.38,0,0,1-11.7-11.621c0-7.251,5.714-12.427,13.575-12.427a13.061,13.061,0,0,1,11.743,6.445c1.953,3.005,2.953,6.959,2.953,11.67,0,11.67-5.517,18.7-14.795,18.7C-8491.333-823.219-8496.63-827.222-8497.607-832.984Zm6.737-14.844a6.207,6.207,0,0,0,6.422,6.3,6.216,6.216,0,0,0,6.445-6.249,6.3,6.3,0,0,0-6.4-6.373A6.344,6.344,0,0,0-8490.87-847.828ZM-8484.7-864v-28.466h-.147l-8.985,6.2v-6.639l9.107-6.324h7.323V-864Z" transform="translate(8502 912)"/><path d="M32.815.871a2,2,0,0,1,2.37,0l27.9,20.518A2,2,0,0,1,61.9,25H6.1a2,2,0,0,1-1.185-3.611Z" transform="translate(104 63) rotate(180)" opacity="0.5"/></g></svg>