<svg xmlns="http://www.w3.org/2000/svg" xmlns:xlink="http://www.w3.org/1999/xlink" width="100" height="100" viewBox="0 0 100 100"><defs><clipPath id="b"><rect width="100" height="100"/></clipPath></defs><g id="a" clip-path="url(#b)"><path d="M-6241-88a4,4,0,0,1-4-4v-22a4,4,0,0,1,4-4h2a4,4,0,0,1,4,4v22a4,4,0,0,1-4,4Zm29.991-13.937-15.557-15.557a4,4,0,0,1,0-5.658l1.414-1.413a4,4,0,0,1,5.656,0l15.557,15.555a4,4,0,0,1,0,5.658l-1.414,1.414a3.988,3.988,0,0,1-2.828,1.171A3.987,3.987,0,0,1-6211.008-101.937Zm-63.641,0-1.414-1.414a4,4,0,0,1,0-5.658l15.557-15.555a4,4,0,0,1,5.658,0l1.413,1.413a4,4,0,0,1,0,5.658l-15.556,15.557a3.99,3.99,0,0,1-2.829,1.171A3.991,3.991,0,0,1-6274.649-101.937ZM-6216-133a4,4,0,0,1-4-4v-2a4,4,0,0,1,4-4h22a4,4,0,0,1,4,4v2a4,4,0,0,1-4,4Zm-70,0a4,4,0,0,1-4-4v-2a4,4,0,0,1,4-4h22a4,4,0,0,1,4,4v2a4,4,0,0,1-4,4Zm60.85-18.435-1.414-1.414a4,4,0,0,1,0-5.656l15.557-15.557a4,4,0,0,1,5.656,0l1.414,1.414a4,4,0,0,1,0,5.656l-15.555,15.557a3.989,3.989,0,0,1-2.83,1.172A3.985,3.985,0,0,1-6225.151-151.435Zm-35.355,0-15.557-15.557a4,4,0,0,1,0-5.656l1.416-1.414a4,4,0,0,1,5.656,0l15.556,15.557a4,4,0,0,1,0,5.656l-1.413,1.414a3.988,3.988,0,0,1-2.829,1.172A3.988,3.988,0,0,1-6260.506-151.435ZM-6241-158a4,4,0,0,1-4-4v-22a4,4,0,0,1,4-4h2a4,4,0,0,1,4,4v22a4,4,0,0,1-4,4Z" transform="translate(6290 188)"/></g></svg>