<svg xmlns="http://www.w3.org/2000/svg" xmlns:xlink="http://www.w3.org/1999/xlink" width="100" height="100" viewBox="0 0 100 100"><defs><clipPath id="b"><rect width="100" height="100"/></clipPath></defs><g id="a" clip-path="url(#b)"><path d="M-10640-338.335h-65a5,5,0,0,1-5-5v-3.333a5,5,0,0,1,5-5h8.664a16.73,16.73,0,0,1-.334-3.333v-8.332A16.67,16.67,0,0,1-10680-380h40a16.667,16.667,0,0,1,16.664,16.669V-355a16.729,16.729,0,0,1-.332,3.333h8.666a5,5,0,0,1,5,5v3.333a5,5,0,0,1-5,5Z" transform="translate(10710 391.001)"/><path d="M-10666.576-363.332h-13.516A15,15,0,0,1-10695-350a15,15,0,0,1-15-15,15,15,0,0,1,15-15,14.963,14.963,0,0,1,11.182,5h20.973a14.963,14.963,0,0,1,11.182-5,15,15,0,0,1,15,15,15,15,0,0,1-15,15A15,15,0,0,1-10666.576-363.332Z" transform="translate(10723.332 439.333)" opacity="0.66"/></g></svg>