<svg xmlns="http://www.w3.org/2000/svg" xmlns:xlink="http://www.w3.org/1999/xlink" width="100" height="100" viewBox="0 0 100 100"><defs><clipPath id="b"><rect width="100" height="100"/></clipPath></defs><g id="a" clip-path="url(#b)"><path d="M100,50.563A50.091,50.091,0,0,1,1.734,64.192l19.194,7.923a14.169,14.169,0,0,0,28.044-3.448L66.008,56.53A18.853,18.853,0,1,0,47.54,37.679v.242L35.6,55.2a14.116,14.116,0,0,0-8.77,2.44L0,46.55a50.084,50.084,0,0,1,100,4.012ZM31.391,76.429l-6.149-2.54a10.631,10.631,0,0,0,19.4-.524A10.617,10.617,0,0,0,31.069,59.353l6.351,2.621a7.831,7.831,0,0,1-6.028,14.456Zm35.04-26.19a12.56,12.56,0,1,1,12.581-12.56A12.593,12.593,0,0,1,66.431,50.24Zm.02-3.145A9.436,9.436,0,1,0,57,37.659,9.452,9.452,0,0,0,66.452,47.095Z" transform="translate(0 -0.563)"/></g></svg>