<svg xmlns="http://www.w3.org/2000/svg" xmlns:xlink="http://www.w3.org/1999/xlink" width="100" height="100" viewBox="0 0 100 100"><defs><clipPath id="b"><rect width="100" height="100"/></clipPath></defs><g id="a" clip-path="url(#b)"><path d="M-9495.116-994.048a16.665,16.665,0,0,1-8.456-5.06c-1.247-1.732-1.247-2.217-.484-6.931,1.662-9.913,9.563-31.537,16.774-45.956,3.811-7.555,9.287-17.468,11.714-21.07,1.108-1.665,2.01-3.051,2.01-3.12s-6.308-.139-14.07-.208c-15.319,0-23.013-1.178-26.549-3.883-1.94-1.524-5.822-9.01-5.822-11.158,0-.9.347-1.18,1.247-.9,8.942,2.843,25.648,5.545,40.411,6.656,10.12.693,11.991.554,13.726-.9a43.835,43.835,0,0,1,10.4-5.753,44.849,44.849,0,0,1,4.3-1.663c.9,0,6.862,5.684,8.248,7.97,1.111,1.873,1.318,2.7.765,3.744-1.111,2.009-7.834,4.229-15.182,5.06l-6.445.762-1.94,2.843c-2.566,3.672-9.5,17.606-13.587,27.17-6.446,15.112-12.615,35.074-14.486,47.342-.659,4.318-.852,5.108-1.97,5.108A4.945,4.945,0,0,1-9495.116-994.048Zm39.579-1.94c-6.03,0-12.546-4.021-15.456-9.566-1.249-2.356-1.457-3.949-1.457-9.425a42.107,42.107,0,0,1,4.783-20.034c4.645-9.356,11.3-16.359,17.052-17.953,3.675-1.109,4.922-.97,8.734.9,4.368,2.22,8.872,6.933,9.842,10.328.9,3.467-.555,8.319-3.741,12.061-4.3,4.922-13.727,8.527-16.983,6.377-.9-.624-.831-.831.347-1.732,6.169-4.645,11.576-12.13,11.715-16.151.069-3.464-1.524-3.6-5.823-.485-7.485,5.476-14.973,17.537-16.705,26.757-2.147,11.714,2.774,14.486,15.112,8.594,6.445-3.049,10.259-5.684,17.4-11.991,3.118-2.771,5.685-4.783,5.685-4.437,0,.9-4.714,8.458-7.766,12.476-6.75,8.75-15.485,14.281-22.6,14.281Z" transform="translate(9522.999 1094)"/></g></svg>