<svg xmlns="http://www.w3.org/2000/svg" xmlns:xlink="http://www.w3.org/1999/xlink" width="100" height="100" viewBox="0 0 100 100"><defs><clipPath id="b"><rect width="100" height="100"/></clipPath></defs><g id="a" clip-path="url(#b)"><path d="M22.565-155.078c-9.364,2.265-17.519,9.263-20.439,17.62-3.826,10.924-1.51,21.295,6.595,29.4a26.646,26.646,0,0,0,13.643,7.8c8.206,1.913,15.4.1,25.02-6.393,4.581-3.071,6.9-4.078,8.558-3.675a20.926,20.926,0,0,1,4.229,2.316c7.5,5.085,12.535,5.94,18.576,3.121a17.236,17.236,0,0,0,8.407-7.954,14.439,14.439,0,0,0,1.359-6.8,13.705,13.705,0,0,0-1.51-7c-4.631-8.306-11.126-11.075-20.64-8.659-6.7,1.712-8.256,1.007-12.988-6.142-3.826-5.739-6.9-8.608-11.679-10.974C35.05-155.682,28.707-156.538,22.565-155.078Z" transform="translate(-0.327 177.927)" opacity="0.6"/><path d="M-9283.152-961.442a19.683,19.683,0,0,1-11.76-7.048c-2.471-2.872-3.68-5.6-4.586-10.41-1.109-5.984-1.936-6.876-6.785-7.617-6.887-1.06-10.361-4.67-11.084-11.382a9.735,9.735,0,0,1,.953-4.992,10.252,10.252,0,0,1,2.773-4.062,12.237,12.237,0,0,1,7.7-2.867c4.729-.167,7.781,1.79,11.271,7.193a14.8,14.8,0,0,0,2.123,2.685c.973.723,2.766.708,6.609-.027,8.082-1.576,13.291-.766,18.121,2.763a18.884,18.884,0,0,1,6.75,8.881c3.049,7.545,1.684,14.962-3.846,21.038a20.287,20.287,0,0,1-14.826,6.122A20.924,20.924,0,0,1-9283.152-961.442Z" transform="translate(9359.477 1031.829)" opacity="0.4"/></g></svg>