<svg xmlns="http://www.w3.org/2000/svg" xmlns:xlink="http://www.w3.org/1999/xlink" width="100" height="100" viewBox="0 0 100 100"><defs><clipPath id="b"><rect width="100" height="100"/></clipPath></defs><g id="a" clip-path="url(#b)"><path d="M-3664.253-16957.48a49.906,49.906,0,0,1-15.642-2.5,49.88,49.88,0,0,1-13.617-6.955c.226-.354.459-.727.692-1.107.906-1.5,1.768-3.08,2.562-4.687.774-1.566,1.524-3.258,2.228-5.027.684-1.744,1.314-3.547,1.872-5.355.583-1.893,1.1-3.848,1.542-5.812.446-1.986.819-4,1.109-5.984.293-2.01.518-4.076.668-6.146.148-2.1.223-4.211.223-6.262s-.075-4.176-.223-6.275c-.15-2.064-.375-4.133-.668-6.148-.29-2-.663-4.018-1.109-6.01-.438-1.965-.957-3.928-1.542-5.834-.556-1.82-1.186-3.635-1.872-5.393-.7-1.775-1.448-3.479-2.228-5.066-.811-1.652-1.674-3.24-2.566-4.717-.249-.416-.5-.816-.755-1.227a49.744,49.744,0,0,1,13.644-6.99,49.9,49.9,0,0,1,15.682-2.51,49.9,49.9,0,0,1,15.791,2.547,49.817,49.817,0,0,1,13.717,7.088c-.263.418-.521.834-.765,1.242-.917,1.529-1.774,3.111-2.549,4.7-.808,1.641-1.553,3.336-2.215,5.037-.688,1.752-1.316,3.555-1.868,5.357-.59,1.93-1.105,3.885-1.533,5.809-.439,1.955-.811,3.967-1.105,5.977s-.515,4.074-.664,6.117c-.145,2.121-.219,4.221-.219,6.24s.073,4.123.219,6.232c.148,2.033.371,4.092.664,6.113.295,2.006.667,4.01,1.105,5.957.429,1.926.946,3.869,1.533,5.779.546,1.773,1.173,3.566,1.863,5.328.684,1.73,1.431,3.414,2.219,5s1.631,3.145,2.549,4.656c.217.359.455.74.747,1.2a49.709,49.709,0,0,1-13.709,7.078A49.861,49.861,0,0,1-3664.253-16957.48Zm-35.505-14.8v0a49.849,49.849,0,0,1-10.607-15.842,49.68,49.68,0,0,1-3.887-19.361,49.7,49.7,0,0,1,3.882-19.35,49.857,49.857,0,0,1,10.594-15.836,56.148,56.148,0,0,1,7.027,15.035,69.316,69.316,0,0,1,2.947,20.258,68.827,68.827,0,0,1-2.947,20.205,55.134,55.134,0,0,1-7.007,14.891Zm71.181-.176v0a54.888,54.888,0,0,1-7.005-14.873,68.489,68.489,0,0,1-2.934-20.1,69.13,69.13,0,0,1,2.934-20.154,55.9,55.9,0,0,1,6.985-14.953,49.869,49.869,0,0,1,10.5,15.791,49.7,49.7,0,0,1,3.845,19.26,49.687,49.687,0,0,1-3.839,19.246,49.84,49.84,0,0,1-10.482,15.781Z" transform="matrix(0.914, 0.407, -0.407, 0.914, -3520.104, 17077.496)"/></g></svg>