<svg xmlns="http://www.w3.org/2000/svg" xmlns:xlink="http://www.w3.org/1999/xlink" width="100" height="100" viewBox="0 0 100 100"><defs><clipPath id="b"><rect width="100" height="100"/></clipPath></defs><g id="a" clip-path="url(#b)"><path d="M-4022-14783h-70a14.9,14.9,0,0,1-10.608-4.393A14.907,14.907,0,0,1-4107-14798v-70a14.9,14.9,0,0,1,4.4-10.607A14.9,14.9,0,0,1-4092-14883h70a14.9,14.9,0,0,1,10.608,4.393A14.915,14.915,0,0,1-4007-14868v70a14.916,14.916,0,0,1-4.393,10.608A14.9,14.9,0,0,1-4022-14783Zm-46.133-57.9a2.868,2.868,0,0,0-2.865,2.864,2.866,2.866,0,0,0,2.865,2.861h17.185a2.866,2.866,0,0,0,2.865-2.861,2.868,2.868,0,0,0-2.865-2.864Zm-18.021-24.1a2.828,2.828,0,0,0-2.011.832,2.822,2.822,0,0,0-.835,2.012,2.822,2.822,0,0,0,.835,2.012l10.055,10.059-10.055,10.055a2.832,2.832,0,0,0-.835,2.014,2.828,2.828,0,0,0,.835,2.013,2.824,2.824,0,0,0,2.01.833,2.823,2.823,0,0,0,2.009-.833l12.072-12.071a2.848,2.848,0,0,0,0-4.023l-12.068-12.068A2.818,2.818,0,0,0-4086.153-14865Z" transform="translate(4106.998 14883)"/></g></svg>