<svg xmlns="http://www.w3.org/2000/svg" xmlns:xlink="http://www.w3.org/1999/xlink" width="100" height="100" viewBox="0 0 100 100"><defs><clipPath id="b"><rect width="100" height="100"/></clipPath></defs><g id="a" clip-path="url(#b)"><path d="M-9335-88a14.9,14.9,0,0,1-10.608-4.393A14.9,14.9,0,0,1-9350-103v-70a14.9,14.9,0,0,1,4.4-10.606A14.9,14.9,0,0,1-9335-188h70a14.9,14.9,0,0,1,10.606,4.393A14.909,14.909,0,0,1-9250-173v70a14.909,14.909,0,0,1-4.393,10.606A14.9,14.9,0,0,1-9265-88Zm-8-82v64a11.013,11.013,0,0,0,11,11h64a11.011,11.011,0,0,0,11-11v-64a11.011,11.011,0,0,0-11-11h-64A11.013,11.013,0,0,0-9343-170Zm31.866,29.829a2.862,2.862,0,0,1-2.863-2.863,2.863,2.863,0,0,1,2.863-2.865h17.186a2.864,2.864,0,0,1,2.865,2.865,2.864,2.864,0,0,1-2.865,2.863Zm-20.03-.835a2.844,2.844,0,0,1,0-4.024l10.055-10.057-10.055-10.057a2.841,2.841,0,0,1,0-4.022,2.842,2.842,0,0,1,4.02,0l12.068,12.068a2.843,2.843,0,0,1,0,4.022l-12.07,12.071a2.834,2.834,0,0,1-2.009.833A2.839,2.839,0,0,1-9331.165-141.006Zm17.167-1.577a.682.682,0,0,1,0-.1v.2A.715.715,0,0,1-9314-142.583Z" transform="translate(9349.999 188)"/></g></svg>