<svg xmlns="http://www.w3.org/2000/svg" xmlns:xlink="http://www.w3.org/1999/xlink" width="100" height="100" viewBox="0 0 100 100"><defs><clipPath id="b"><rect width="100" height="100"/></clipPath></defs><g id="a" clip-path="url(#b)"><path d="M-3512.907-19092a2.273,2.273,0,0,1-2.272-2.271v-13.637a2.273,2.273,0,0,1,2.272-2.271h13.635a2.275,2.275,0,0,1,2.273,2.271v13.637a2.275,2.275,0,0,1-2.273,2.271Zm.456-14.541v10.906a.91.91,0,0,0,.906.912h10.912a.914.914,0,0,0,.911-.912v-10.906a.912.912,0,0,0-.911-.91h-10.912A.908.908,0,0,0-3512.452-19106.543Zm-27.73,14.541a2.275,2.275,0,0,1-2.272-2.271v-13.637a2.275,2.275,0,0,1,2.272-2.271h13.64a2.275,2.275,0,0,1,2.272,2.271v13.637a2.275,2.275,0,0,1-2.272,2.271Zm.455-14.541v10.906a.911.911,0,0,0,.911.912h10.907a.914.914,0,0,0,.911-.912v-10.906a.912.912,0,0,0-.911-.91h-10.907A.909.909,0,0,0-3539.727-19106.543Zm-27.726,14.541a2.273,2.273,0,0,1-2.273-2.271v-13.637a2.273,2.273,0,0,1,2.273-2.271h13.635a2.275,2.275,0,0,1,2.272,2.271v13.637a2.275,2.275,0,0,1-2.272,2.271Zm.455-14.541v10.906a.91.91,0,0,0,.906.912h10.911a.914.914,0,0,0,.911-.912v-10.906a.912.912,0,0,0-.911-.91h-10.911A.908.908,0,0,0-3567-19106.543Zm-27.73,14.541a2.275,2.275,0,0,1-2.273-2.271v-13.637a2.275,2.275,0,0,1,2.273-2.271h13.639a2.275,2.275,0,0,1,2.273,2.271v13.637a2.275,2.275,0,0,1-2.273,2.271Zm.455-14.541v10.906a.911.911,0,0,0,.911.912h10.907a.914.914,0,0,0,.911-.912v-10.906a.912.912,0,0,0-.911-.91h-10.907A.909.909,0,0,0-3594.272-19106.543Zm81.365-12.729a2.274,2.274,0,0,1-2.272-2.273v-13.641a2.273,2.273,0,0,1,2.272-2.271h13.635a2.275,2.275,0,0,1,2.273,2.271v13.641a2.277,2.277,0,0,1-2.273,2.273Zm.456-14.547v10.908a.91.91,0,0,0,.906.91h10.912a.913.913,0,0,0,.911-.91v-10.908a.909.909,0,0,0-.911-.906h-10.912A.905.905,0,0,0-3512.452-19133.818Zm-27.73,14.547a2.277,2.277,0,0,1-2.272-2.273v-13.641a2.275,2.275,0,0,1,2.272-2.271h13.64a2.275,2.275,0,0,1,2.272,2.271v13.641a2.277,2.277,0,0,1-2.272,2.273Zm.455-14.547v10.908a.91.91,0,0,0,.911.91h10.907a.914.914,0,0,0,.911-.91v-10.908a.909.909,0,0,0-.911-.906h-10.907A.906.906,0,0,0-3539.727-19133.818Zm-27.726,14.547a2.274,2.274,0,0,1-2.273-2.273v-13.641a2.273,2.273,0,0,1,2.273-2.271h13.635a2.275,2.275,0,0,1,2.272,2.271v13.641a2.277,2.277,0,0,1-2.272,2.273Zm.455-14.547v10.908a.91.91,0,0,0,.906.91h10.911a.913.913,0,0,0,.911-.91v-10.908a.909.909,0,0,0-.911-.906h-10.911A.905.905,0,0,0-3567-19133.818Zm-27.73,14.547a2.277,2.277,0,0,1-2.273-2.273v-13.641a2.275,2.275,0,0,1,2.273-2.271h13.639a2.275,2.275,0,0,1,2.273,2.271v13.641a2.277,2.277,0,0,1-2.273,2.273Zm.455-14.547v10.908a.911.911,0,0,0,.911.91h10.907a.913.913,0,0,0,.911-.91v-10.908a.909.909,0,0,0-.911-.906h-10.907A.906.906,0,0,0-3594.272-19133.818Zm81.365-12.729a2.274,2.274,0,0,1-2.272-2.273v-13.635a2.273,2.273,0,0,1,2.272-2.271h13.635a2.275,2.275,0,0,1,2.273,2.271v13.635a2.277,2.277,0,0,1-2.273,2.273Zm.456-14.541v10.906a.91.91,0,0,0,.906.912h10.912a.914.914,0,0,0,.911-.912v-10.906a.912.912,0,0,0-.911-.912h-10.912A.909.909,0,0,0-3512.452-19161.088Zm-27.73,14.541a2.277,2.277,0,0,1-2.272-2.273v-13.635a2.275,2.275,0,0,1,2.272-2.271h13.64a2.275,2.275,0,0,1,2.272,2.271v13.635a2.277,2.277,0,0,1-2.272,2.273Zm.455-14.541v10.906a.911.911,0,0,0,.911.912h10.907a.914.914,0,0,0,.911-.912v-10.906a.913.913,0,0,0-.911-.912h-10.907A.91.91,0,0,0-3539.727-19161.088Zm-27.726,14.541a2.274,2.274,0,0,1-2.273-2.273v-13.635a2.273,2.273,0,0,1,2.273-2.271h13.635a2.275,2.275,0,0,1,2.272,2.271v13.635a2.277,2.277,0,0,1-2.272,2.273Zm.455-14.541v10.906a.91.91,0,0,0,.906.912h10.911a.914.914,0,0,0,.911-.912v-10.906a.913.913,0,0,0-.911-.912h-10.911A.909.909,0,0,0-3567-19161.088Zm-27.73,14.541a2.277,2.277,0,0,1-2.273-2.273v-13.635a2.275,2.275,0,0,1,2.273-2.271h13.639a2.275,2.275,0,0,1,2.273,2.271v13.635a2.277,2.277,0,0,1-2.273,2.273Zm.455-14.541v10.906a.911.911,0,0,0,.911.912h10.907a.914.914,0,0,0,.911-.912v-10.906a.912.912,0,0,0-.911-.912h-10.907A.91.91,0,0,0-3594.272-19161.088Zm81.365-12.73a2.273,2.273,0,0,1-2.272-2.271v-13.641a2.274,2.274,0,0,1,2.272-2.273h13.635a2.277,2.277,0,0,1,2.273,2.273v13.641a2.275,2.275,0,0,1-2.273,2.271Zm.456-14.545v10.908a.91.91,0,0,0,.906.91h10.912a.913.913,0,0,0,.911-.91v-10.908a.912.912,0,0,0-.911-.91h-10.912A.908.908,0,0,0-3512.452-19188.363Zm-27.73,14.545a2.275,2.275,0,0,1-2.272-2.271v-13.641a2.277,2.277,0,0,1,2.272-2.273h13.64a2.277,2.277,0,0,1,2.272,2.273v13.641a2.275,2.275,0,0,1-2.272,2.271Zm.455-14.545v10.908a.91.91,0,0,0,.911.91h10.907a.914.914,0,0,0,.911-.91v-10.908a.912.912,0,0,0-.911-.91h-10.907A.909.909,0,0,0-3539.727-19188.363Zm-27.726,14.545a2.273,2.273,0,0,1-2.273-2.271v-13.641a2.274,2.274,0,0,1,2.273-2.273h13.635a2.277,2.277,0,0,1,2.272,2.273v13.641a2.275,2.275,0,0,1-2.272,2.271Zm.455-14.545v10.908a.91.91,0,0,0,.906.91h10.911a.913.913,0,0,0,.911-.91v-10.908a.912.912,0,0,0-.911-.91h-10.911A.908.908,0,0,0-3567-19188.363Zm-27.73,14.545a2.275,2.275,0,0,1-2.273-2.271v-13.641a2.277,2.277,0,0,1,2.273-2.273h13.639a2.277,2.277,0,0,1,2.273,2.273v13.641a2.275,2.275,0,0,1-2.273,2.271Zm.455-14.545v10.908a.911.911,0,0,0,.911.91h10.907a.913.913,0,0,0,.911-.91v-10.908a.912.912,0,0,0-.911-.91h-10.907A.909.909,0,0,0-3594.272-19188.363Z" transform="translate(3596.999 19191.998)"/></g></svg>