<svg xmlns="http://www.w3.org/2000/svg" xmlns:xlink="http://www.w3.org/1999/xlink" width="100" height="100" viewBox="0 0 100 100"><defs><clipPath id="b"><rect width="100" height="100"/></clipPath></defs><g id="a" clip-path="url(#b)"><path d="M-3499.634-19458.723h-10.91a.912.912,0,0,1-.908-.912v-10.9a.91.91,0,0,1,.908-.908h10.91a.912.912,0,0,1,.913.908v10.9A.914.914,0,0,1-3499.634-19458.723Zm-27.273,0h-10.91a.912.912,0,0,1-.908-.912v-10.9a.91.91,0,0,1,.908-.908h10.91a.91.91,0,0,1,.908.908v10.9A.912.912,0,0,1-3526.907-19458.723Zm-27.273,0h-10.91a.912.912,0,0,1-.908-.912v-10.9a.91.91,0,0,1,.908-.908h10.91a.912.912,0,0,1,.913.908v10.9A.914.914,0,0,1-3554.18-19458.723Zm-27.273,0h-10.905a.914.914,0,0,1-.913-.912v-10.9a.912.912,0,0,1,.913-.908h10.905a.91.91,0,0,1,.908.908v10.9A.912.912,0,0,1-3581.454-19458.723Zm81.82-27.271h-10.91a.912.912,0,0,1-.908-.914v-10.9a.91.91,0,0,1,.908-.908h10.91a.912.912,0,0,1,.913.908v10.9A.915.915,0,0,1-3499.634-19485.994Zm-27.273,0h-10.91a.912.912,0,0,1-.908-.914v-10.9a.91.91,0,0,1,.908-.908h10.91a.91.91,0,0,1,.908.908v10.9A.912.912,0,0,1-3526.907-19485.994Zm-27.273,0h-10.91a.912.912,0,0,1-.908-.914v-10.9a.91.91,0,0,1,.908-.908h10.91a.912.912,0,0,1,.913.908v10.9A.915.915,0,0,1-3554.18-19485.994Zm-27.273,0h-10.905a.915.915,0,0,1-.913-.914v-10.9a.912.912,0,0,1,.913-.908h10.905a.91.91,0,0,1,.908.908v10.9A.912.912,0,0,1-3581.454-19485.994Zm81.82-27.27h-10.91a.912.912,0,0,1-.908-.912v-10.906a.912.912,0,0,1,.908-.912h10.91a.914.914,0,0,1,.913.912v10.906A.914.914,0,0,1-3499.634-19513.264Zm-27.273,0h-10.91a.912.912,0,0,1-.908-.912v-10.906a.912.912,0,0,1,.908-.912h10.91a.912.912,0,0,1,.908.912v10.906A.912.912,0,0,1-3526.907-19513.264Zm-27.273,0h-10.91a.912.912,0,0,1-.908-.912v-10.906a.912.912,0,0,1,.908-.912h10.91a.914.914,0,0,1,.913.912v10.906A.914.914,0,0,1-3554.18-19513.264Zm-27.273,0h-10.905a.914.914,0,0,1-.913-.912v-10.906a.9.9,0,0,1,.913-.912h10.905a.912.912,0,0,1,.908.912v10.906A.912.912,0,0,1-3581.454-19513.264Zm58.183-13.2h0c0-1.248-.033-1.295,0-.051Zm23.636-14.082h-10.91a.91.91,0,0,1-.908-.908v-10.91a.91.91,0,0,1,.908-.908h10.91a.912.912,0,0,1,.913.908v10.91A.912.912,0,0,1-3499.634-19540.541Zm-27.273,0h-10.91a.91.91,0,0,1-.908-.908v-10.91a.91.91,0,0,1,.908-.908h10.91a.91.91,0,0,1,.908.908v10.91A.91.91,0,0,1-3526.907-19540.541Zm-27.273,0h-10.91a.91.91,0,0,1-.908-.908v-10.91a.91.91,0,0,1,.908-.908h10.91a.912.912,0,0,1,.913.908v10.91A.912.912,0,0,1-3554.18-19540.541Zm-27.273,0h-10.905a.912.912,0,0,1-.913-.908v-10.91a.912.912,0,0,1,.913-.908h10.905a.91.91,0,0,1,.908.908v10.91A.91.91,0,0,1-3581.454-19540.541Z" transform="translate(3595.999 19555.996)" opacity="0.5"/><path d="M-3512.907-19092a2.273,2.273,0,0,1-2.272-2.271v-13.637a2.273,2.273,0,0,1,2.272-2.271h13.635a2.275,2.275,0,0,1,2.273,2.271v13.637a2.275,2.275,0,0,1-2.273,2.271Zm.456-14.541v10.906a.91.91,0,0,0,.906.912h10.912a.914.914,0,0,0,.911-.912v-10.906a.912.912,0,0,0-.911-.91h-10.912A.908.908,0,0,0-3512.452-19106.543Zm-27.73,14.541a2.275,2.275,0,0,1-2.272-2.271v-13.637a2.275,2.275,0,0,1,2.272-2.271h13.64a2.275,2.275,0,0,1,2.272,2.271v13.637a2.275,2.275,0,0,1-2.272,2.271Zm.455-14.541v10.906a.911.911,0,0,0,.911.912h10.907a.914.914,0,0,0,.911-.912v-10.906a.912.912,0,0,0-.911-.91h-10.907A.909.909,0,0,0-3539.727-19106.543Zm-27.726,14.541a2.273,2.273,0,0,1-2.273-2.271v-13.637a2.273,2.273,0,0,1,2.273-2.271h13.635a2.275,2.275,0,0,1,2.272,2.271v13.637a2.275,2.275,0,0,1-2.272,2.271Zm.455-14.541v10.906a.91.91,0,0,0,.906.912h10.911a.914.914,0,0,0,.911-.912v-10.906a.912.912,0,0,0-.911-.91h-10.911A.908.908,0,0,0-3567-19106.543Zm-27.73,14.541a2.275,2.275,0,0,1-2.273-2.271v-13.637a2.275,2.275,0,0,1,2.273-2.271h13.639a2.275,2.275,0,0,1,2.273,2.271v13.637a2.275,2.275,0,0,1-2.273,2.271Zm.455-14.541v10.906a.911.911,0,0,0,.911.912h10.907a.914.914,0,0,0,.911-.912v-10.906a.912.912,0,0,0-.911-.91h-10.907A.909.909,0,0,0-3594.272-19106.543Zm81.365-12.729a2.274,2.274,0,0,1-2.272-2.273v-13.641a2.273,2.273,0,0,1,2.272-2.271h13.635a2.275,2.275,0,0,1,2.273,2.271v13.641a2.277,2.277,0,0,1-2.273,2.273Zm.456-14.547v10.908a.91.91,0,0,0,.906.91h10.912a.913.913,0,0,0,.911-.91v-10.908a.909.909,0,0,0-.911-.906h-10.912A.905.905,0,0,0-3512.452-19133.818Zm-27.73,14.547a2.277,2.277,0,0,1-2.272-2.273v-13.641a2.275,2.275,0,0,1,2.272-2.271h13.64a2.275,2.275,0,0,1,2.272,2.271v13.641a2.277,2.277,0,0,1-2.272,2.273Zm.455-14.547v10.908a.91.91,0,0,0,.911.91h10.907a.914.914,0,0,0,.911-.91v-10.908a.909.909,0,0,0-.911-.906h-10.907A.906.906,0,0,0-3539.727-19133.818Zm-27.726,14.547a2.274,2.274,0,0,1-2.273-2.273v-13.641a2.273,2.273,0,0,1,2.273-2.271h13.635a2.275,2.275,0,0,1,2.272,2.271v13.641a2.277,2.277,0,0,1-2.272,2.273Zm.455-14.547v10.908a.91.91,0,0,0,.906.91h10.911a.913.913,0,0,0,.911-.91v-10.908a.909.909,0,0,0-.911-.906h-10.911A.905.905,0,0,0-3567-19133.818Zm-27.73,14.547a2.277,2.277,0,0,1-2.273-2.273v-13.641a2.275,2.275,0,0,1,2.273-2.271h13.639a2.275,2.275,0,0,1,2.273,2.271v13.641a2.277,2.277,0,0,1-2.273,2.273Zm.455-14.547v10.908a.911.911,0,0,0,.911.91h10.907a.913.913,0,0,0,.911-.91v-10.908a.909.909,0,0,0-.911-.906h-10.907A.906.906,0,0,0-3594.272-19133.818Zm81.365-12.729a2.274,2.274,0,0,1-2.272-2.273v-13.635a2.273,2.273,0,0,1,2.272-2.271h13.635a2.275,2.275,0,0,1,2.273,2.271v13.635a2.277,2.277,0,0,1-2.273,2.273Zm.456-14.541v10.906a.91.91,0,0,0,.906.912h10.912a.914.914,0,0,0,.911-.912v-10.906a.912.912,0,0,0-.911-.912h-10.912A.909.909,0,0,0-3512.452-19161.088Zm-27.73,14.541a2.277,2.277,0,0,1-2.272-2.273v-13.635a2.275,2.275,0,0,1,2.272-2.271h13.64a2.275,2.275,0,0,1,2.272,2.271v13.635a2.277,2.277,0,0,1-2.272,2.273Zm.455-14.541v10.906a.911.911,0,0,0,.911.912h10.907a.914.914,0,0,0,.911-.912v-10.906a.913.913,0,0,0-.911-.912h-10.907A.91.91,0,0,0-3539.727-19161.088Zm-27.726,14.541a2.274,2.274,0,0,1-2.273-2.273v-13.635a2.273,2.273,0,0,1,2.273-2.271h13.635a2.275,2.275,0,0,1,2.272,2.271v13.635a2.277,2.277,0,0,1-2.272,2.273Zm.455-14.541v10.906a.91.91,0,0,0,.906.912h10.911a.914.914,0,0,0,.911-.912v-10.906a.913.913,0,0,0-.911-.912h-10.911A.909.909,0,0,0-3567-19161.088Zm-27.73,14.541a2.277,2.277,0,0,1-2.273-2.273v-13.635a2.275,2.275,0,0,1,2.273-2.271h13.639a2.275,2.275,0,0,1,2.273,2.271v13.635a2.277,2.277,0,0,1-2.273,2.273Zm.455-14.541v10.906a.911.911,0,0,0,.911.912h10.907a.914.914,0,0,0,.911-.912v-10.906a.912.912,0,0,0-.911-.912h-10.907A.91.91,0,0,0-3594.272-19161.088Zm81.365-12.73a2.273,2.273,0,0,1-2.272-2.271v-13.641a2.274,2.274,0,0,1,2.272-2.273h13.635a2.277,2.277,0,0,1,2.273,2.273v13.641a2.275,2.275,0,0,1-2.273,2.271Zm.456-14.545v10.908a.91.91,0,0,0,.906.91h10.912a.913.913,0,0,0,.911-.91v-10.908a.912.912,0,0,0-.911-.91h-10.912A.908.908,0,0,0-3512.452-19188.363Zm-27.73,14.545a2.275,2.275,0,0,1-2.272-2.271v-13.641a2.277,2.277,0,0,1,2.272-2.273h13.64a2.277,2.277,0,0,1,2.272,2.273v13.641a2.275,2.275,0,0,1-2.272,2.271Zm.455-14.545v10.908a.91.91,0,0,0,.911.91h10.907a.914.914,0,0,0,.911-.91v-10.908a.912.912,0,0,0-.911-.91h-10.907A.909.909,0,0,0-3539.727-19188.363Zm-27.726,14.545a2.273,2.273,0,0,1-2.273-2.271v-13.641a2.274,2.274,0,0,1,2.273-2.273h13.635a2.277,2.277,0,0,1,2.272,2.273v13.641a2.275,2.275,0,0,1-2.272,2.271Zm.455-14.545v10.908a.91.91,0,0,0,.906.91h10.911a.913.913,0,0,0,.911-.91v-10.908a.912.912,0,0,0-.911-.91h-10.911A.908.908,0,0,0-3567-19188.363Zm-27.73,14.545a2.275,2.275,0,0,1-2.273-2.271v-13.641a2.277,2.277,0,0,1,2.273-2.273h13.639a2.277,2.277,0,0,1,2.273,2.273v13.641a2.275,2.275,0,0,1-2.273,2.271Zm.455-14.545v10.908a.911.911,0,0,0,.911.91h10.907a.913.913,0,0,0,.911-.91v-10.908a.912.912,0,0,0-.911-.91h-10.907A.909.909,0,0,0-3594.272-19188.363Z" transform="translate(3596.999 19192)"/></g></svg>