<svg xmlns="http://www.w3.org/2000/svg" xmlns:xlink="http://www.w3.org/1999/xlink" width="100" height="100" viewBox="0 0 100 100"><defs><clipPath id="b"><rect width="100" height="100"/></clipPath></defs><g id="a" clip-path="url(#b)"><path d="M-7741.876-448a3.127,3.127,0,0,1-3.125-3.128v-18.748a3.124,3.124,0,0,1,3.125-3.125h18.751a3.125,3.125,0,0,1,3.125,3.125v18.748a3.128,3.128,0,0,1-3.125,3.128Zm-37.5,0a3.126,3.126,0,0,1-3.125-3.128v-18.748a3.123,3.123,0,0,1,3.125-3.125h18.751a3.127,3.127,0,0,1,3.125,3.125v18.748a3.129,3.129,0,0,1-3.125,3.128Zm-37.5,0a3.128,3.128,0,0,1-3.124-3.128v-18.748a3.126,3.126,0,0,1,3.124-3.125h18.752a3.125,3.125,0,0,1,3.126,3.125v18.748a3.127,3.127,0,0,1-3.126,3.128Zm75-37.5a3.126,3.126,0,0,1-3.125-3.125v-18.751a3.124,3.124,0,0,1,3.125-3.125h18.751a3.125,3.125,0,0,1,3.125,3.125v18.751a3.127,3.127,0,0,1-3.125,3.125Zm-37.5,0a3.125,3.125,0,0,1-3.125-3.125v-18.751a3.123,3.123,0,0,1,3.125-3.125h18.751a3.126,3.126,0,0,1,3.125,3.125v18.751a3.128,3.128,0,0,1-3.125,3.125Zm-37.5,0a3.128,3.128,0,0,1-3.124-3.125v-18.751a3.126,3.126,0,0,1,3.124-3.125h18.752a3.125,3.125,0,0,1,3.126,3.125v18.751a3.127,3.127,0,0,1-3.126,3.125Zm75-37.5a3.126,3.126,0,0,1-3.125-3.125v-18.751a3.124,3.124,0,0,1,3.125-3.125h18.751a3.125,3.125,0,0,1,3.125,3.125v18.751a3.127,3.127,0,0,1-3.125,3.125Zm-37.5,0a3.125,3.125,0,0,1-3.125-3.125v-18.751a3.123,3.123,0,0,1,3.125-3.125h18.751a3.127,3.127,0,0,1,3.125,3.125v18.751a3.128,3.128,0,0,1-3.125,3.125Zm-37.5,0a3.128,3.128,0,0,1-3.124-3.125v-18.751a3.126,3.126,0,0,1,3.124-3.125h18.752a3.125,3.125,0,0,1,3.126,3.125v18.751a3.127,3.127,0,0,1-3.126,3.125Z" transform="translate(7820 548)"/></g></svg>