<svg xmlns="http://www.w3.org/2000/svg" xmlns:xlink="http://www.w3.org/1999/xlink" width="100" height="100" viewBox="0 0 100 100"><defs><clipPath id="b"><rect width="100" height="100"/></clipPath></defs><g id="a" clip-path="url(#b)"><path d="M-3842-19092h-30a5.006,5.006,0,0,1-5-5v-30a5.006,5.006,0,0,1,5-5h30a5.006,5.006,0,0,1,5,5v30A5.006,5.006,0,0,1-3842-19092Zm-27-34a2,2,0,0,0-2,2v24a2,2,0,0,0,2,2h24a2.006,2.006,0,0,0,2-2v-24a2,2,0,0,0-2-2Zm-33,34h-30a5.006,5.006,0,0,1-5-5v-30a5.006,5.006,0,0,1,5-5h30a5.006,5.006,0,0,1,5,5v30A5.006,5.006,0,0,1-3902-19092Zm-27-34a2,2,0,0,0-2,2v24a2,2,0,0,0,2,2h24a2,2,0,0,0,2-2v-24a2,2,0,0,0-2-2Zm87-26h-30a5.006,5.006,0,0,1-5-5v-30a5.006,5.006,0,0,1,5-5h30a5.006,5.006,0,0,1,5,5v30A5.006,5.006,0,0,1-3842-19152Zm-27-34a2,2,0,0,0-2,2v24a2,2,0,0,0,2,2h24a2.006,2.006,0,0,0,2-2v-24a2,2,0,0,0-2-2Zm-33,34h-30a5.006,5.006,0,0,1-5-5v-30a5.006,5.006,0,0,1,5-5h30a5.006,5.006,0,0,1,5,5v30A5.006,5.006,0,0,1-3902-19152Zm-27-34a2,2,0,0,0-2,2v24a2,2,0,0,0,2,2h24a2,2,0,0,0,2-2v-24a2,2,0,0,0-2-2Z" transform="translate(3937 19192)"/></g></svg>