<svg xmlns="http://www.w3.org/2000/svg" xmlns:xlink="http://www.w3.org/1999/xlink" width="100" height="100" viewBox="0 0 100 100"><defs><clipPath id="b"><rect width="100" height="100"/></clipPath></defs><g id="a" clip-path="url(#b)"><path d="M-7735.908-448a2.273,2.273,0,0,1-2.273-2.273v-13.635a2.273,2.273,0,0,1,2.273-2.273h13.635a2.274,2.274,0,0,1,2.275,2.273v13.635a2.274,2.274,0,0,1-2.275,2.273Zm-27.273,0a2.272,2.272,0,0,1-2.272-2.273v-13.635a2.272,2.272,0,0,1,2.272-2.273h13.638a2.273,2.273,0,0,1,2.272,2.273v13.635a2.273,2.273,0,0,1-2.272,2.273Zm-27.273,0a2.272,2.272,0,0,1-2.272-2.273v-13.635a2.272,2.272,0,0,1,2.272-2.273h13.638a2.274,2.274,0,0,1,2.272,2.273v13.635a2.274,2.274,0,0,1-2.272,2.273Zm-27.273,0a2.274,2.274,0,0,1-2.272-2.273v-13.635a2.274,2.274,0,0,1,2.272-2.273h13.638a2.273,2.273,0,0,1,2.273,2.273v13.635a2.273,2.273,0,0,1-2.273,2.273Zm81.82-27.271a2.274,2.274,0,0,1-2.273-2.275v-13.635a2.273,2.273,0,0,1,2.273-2.273h13.635a2.274,2.274,0,0,1,2.275,2.273v13.635a2.276,2.276,0,0,1-2.275,2.275Zm-27.273,0a2.274,2.274,0,0,1-2.272-2.275v-13.635a2.272,2.272,0,0,1,2.272-2.273h13.638a2.273,2.273,0,0,1,2.272,2.273v13.635a2.275,2.275,0,0,1-2.272,2.275Zm-27.273,0a2.274,2.274,0,0,1-2.272-2.275v-13.635a2.272,2.272,0,0,1,2.272-2.273h13.638a2.274,2.274,0,0,1,2.272,2.273v13.635a2.275,2.275,0,0,1-2.272,2.275Zm-27.273,0a2.275,2.275,0,0,1-2.272-2.275v-13.635a2.274,2.274,0,0,1,2.272-2.273h13.638a2.273,2.273,0,0,1,2.273,2.273v13.635a2.274,2.274,0,0,1-2.273,2.275Zm81.82-27.273a2.274,2.274,0,0,1-2.273-2.273v-13.638a2.272,2.272,0,0,1,2.273-2.273h13.635a2.274,2.274,0,0,1,2.275,2.273v13.638a2.276,2.276,0,0,1-2.275,2.273Zm-27.273,0a2.273,2.273,0,0,1-2.272-2.273v-13.638a2.272,2.272,0,0,1,2.272-2.273h13.638a2.273,2.273,0,0,1,2.272,2.273v13.638a2.274,2.274,0,0,1-2.272,2.273Zm-27.273,0a2.273,2.273,0,0,1-2.272-2.273v-13.638a2.272,2.272,0,0,1,2.272-2.273h13.638a2.274,2.274,0,0,1,2.272,2.273v13.638a2.275,2.275,0,0,1-2.272,2.273Zm-27.273,0a2.275,2.275,0,0,1-2.272-2.273v-13.638a2.274,2.274,0,0,1,2.272-2.273h13.638a2.272,2.272,0,0,1,2.273,2.273v13.638a2.274,2.274,0,0,1-2.273,2.273Zm81.82-27.273a2.274,2.274,0,0,1-2.273-2.273v-13.638a2.273,2.273,0,0,1,2.273-2.273h13.635a2.274,2.274,0,0,1,2.275,2.273v13.638a2.276,2.276,0,0,1-2.275,2.273Zm-27.273,0a2.273,2.273,0,0,1-2.272-2.273v-13.638a2.272,2.272,0,0,1,2.272-2.273h13.638a2.273,2.273,0,0,1,2.272,2.273v13.638a2.274,2.274,0,0,1-2.272,2.273Zm-27.273,0a2.273,2.273,0,0,1-2.272-2.273v-13.638a2.272,2.272,0,0,1,2.272-2.273h13.638a2.274,2.274,0,0,1,2.272,2.273v13.638a2.275,2.275,0,0,1-2.272,2.273Zm-27.273,0A2.275,2.275,0,0,1-7820-532.09v-13.638a2.274,2.274,0,0,1,2.272-2.273h13.638a2.273,2.273,0,0,1,2.273,2.273v13.638a2.274,2.274,0,0,1-2.273,2.273Z" transform="translate(7820 548)"/></g></svg>