<svg xmlns="http://www.w3.org/2000/svg" xmlns:xlink="http://www.w3.org/1999/xlink" width="100" height="100" viewBox="0 0 100 100"><defs><clipPath id="b"><rect width="100" height="100"/></clipPath></defs><g id="a" clip-path="url(#b)"><path d="M-3507.273-19465.262h-24a2.006,2.006,0,0,1-2-2.008v-24a2.007,2.007,0,0,1,2-2h24a2.014,2.014,0,0,1,2.009,2v24A2.012,2.012,0,0,1-3507.273-19465.262Zm-60,0h-23.992a2.011,2.011,0,0,1-2.008-2.008v-24a1.984,1.984,0,0,1,2.008-2h23.992a2.007,2.007,0,0,1,2,2v24A2.005,2.005,0,0,1-3567.272-19465.262Zm60-60.008h-24a2,2,0,0,1-2-2v-24a2,2,0,0,1,2-2h24a2.008,2.008,0,0,1,2.009,2v24A2.01,2.01,0,0,1-3507.273-19525.27Zm-60,0h-23.992a2.01,2.01,0,0,1-2.008-2v-24a2.007,2.007,0,0,1,2.008-2h23.992a2,2,0,0,1,2,2v24A2,2,0,0,1-3567.272-19525.27Z" transform="translate(3599.273 19559.277)" opacity="0.5"/><path d="M-3532-19092a5,5,0,0,1-5-5V-19127a5,5,0,0,1,5-5h30a5.006,5.006,0,0,1,5,5V-19097a5.009,5.009,0,0,1-5,5Zm1-31.992v24a2,2,0,0,0,1.995,2h24a2.007,2.007,0,0,0,2-2v-24a2,2,0,0,0-2-2h-24A2,2,0,0,0-3531-19123.992ZM-3592-19092a5.009,5.009,0,0,1-5-5V-19127a5.006,5.006,0,0,1,5-5h30.007a5.006,5.006,0,0,1,5,5V-19097a5.01,5.01,0,0,1-5,5Zm1-31.992v24a2,2,0,0,0,2,2h24a2.008,2.008,0,0,0,2-2v-24a2.005,2.005,0,0,0-2-2h-24A2,2,0,0,0-3591-19123.992Zm59-28a5,5,0,0,1-5-5V-19187a5,5,0,0,1,5-5h30a5.008,5.008,0,0,1,5,5V-19157a5.008,5.008,0,0,1-5,5Zm1-32v24a2,2,0,0,0,1.995,2h24a2.01,2.01,0,0,0,2-2v-24a2.007,2.007,0,0,0-2-2h-24A2,2,0,0,0-3531-19184Zm-61.005,32a5.009,5.009,0,0,1-5-5V-19187a5.009,5.009,0,0,1,5-5h30.007a5.009,5.009,0,0,1,5,5V-19157a5.009,5.009,0,0,1-5,5Zm1-32v24a2,2,0,0,0,2,2h24a2.01,2.01,0,0,0,2-2v-24a2.008,2.008,0,0,0-2-2h-24A2,2,0,0,0-3591-19184Z" transform="translate(3596.999 19192)"/></g></svg>