<svg xmlns="http://www.w3.org/2000/svg" xmlns:xlink="http://www.w3.org/1999/xlink" width="100" height="100" viewBox="0 0 100 100"><defs><clipPath id="b"><rect width="100" height="100"/></clipPath></defs><g id="a" clip-path="url(#b)"><path d="M-4041-19456a5,5,0,0,1-5-5v-29.994a5,5,0,0,1,5-5h30a5,5,0,0,1,5,5V-19461a5,5,0,0,1-5,5Zm1-31.99v24a2,2,0,0,0,1.993,2h24a2,2,0,0,0,2-2v-24a2,2,0,0,0-2-2h-24A1.993,1.993,0,0,0-4039.995-19487.988ZM-4101-19456a5.005,5.005,0,0,1-5-5v-29.994a5.005,5.005,0,0,1,5-5h30.007a5,5,0,0,1,5,5V-19461a5,5,0,0,1-5,5Zm1-31.99v24a2,2,0,0,0,2,2H-4074a2.008,2.008,0,0,0,2.007-2v-24a2.006,2.006,0,0,0-2.007-2H-4098A2,2,0,0,0-4100-19487.988Zm59-28a5,5,0,0,1-5-5V-19551a5,5,0,0,1,5-5h30a5.009,5.009,0,0,1,5,5v30.006a5.009,5.009,0,0,1-5,5Zm1-32v24a2,2,0,0,0,1.993,2h24a2.008,2.008,0,0,0,2-2v-24a2,2,0,0,0-2-2h-24A2,2,0,0,0-4039.995-19547.992Zm-51,26.994v-10h-10a5,5,0,0,1-5-5v0a5,5,0,0,1,5-5h10v-10a5,5,0,0,1,5-5,5,5,0,0,1,5,5v10h10a5,5,0,0,1,5,5v0a5,5,0,0,1-5,5h-10v10a5,5,0,0,1-5,5.006A5,5,0,0,1-4091-19521Z" transform="translate(4105.999 19555.996)"/><path d="M-3507.273-19465.262h-24a2.006,2.006,0,0,1-2-2.008v-24a2.007,2.007,0,0,1,2-2h24a2.014,2.014,0,0,1,2.009,2v24A2.012,2.012,0,0,1-3507.273-19465.262Zm-60,0h-23.992a2.011,2.011,0,0,1-2.008-2.008v-24a1.984,1.984,0,0,1,2.008-2h23.992a2.007,2.007,0,0,1,2,2v24A2.005,2.005,0,0,1-3567.272-19465.262Zm60-60.008h-24a2,2,0,0,1-2-2v-24a2,2,0,0,1,2-2h24a2.008,2.008,0,0,1,2.009,2v24A2.01,2.01,0,0,1-3507.273-19525.27Z" transform="translate(3599.273 19559.277)" opacity="0.5"/></g></svg>