<svg xmlns="http://www.w3.org/2000/svg" xmlns:xlink="http://www.w3.org/1999/xlink" width="100" height="100" viewBox="0 0 100 100"><defs><clipPath id="b"><rect width="100" height="100"/></clipPath></defs><g id="a" clip-path="url(#b)"><path d="M-3511.912-19274a2.275,2.275,0,0,1-2.272-2.277v-13.635a2.272,2.272,0,0,1,2.272-2.273h13.636a2.276,2.276,0,0,1,2.276,2.273v13.635a2.279,2.279,0,0,1-2.276,2.277Zm-27.272,0a2.278,2.278,0,0,1-2.272-2.277v-13.635a2.275,2.275,0,0,1,2.272-2.273h13.636a2.273,2.273,0,0,1,2.277,2.273v13.635a2.277,2.277,0,0,1-2.277,2.277Zm-27.272,0a2.275,2.275,0,0,1-2.272-2.277v-13.635a2.272,2.272,0,0,1,2.272-2.273h13.636a2.276,2.276,0,0,1,2.276,2.273v13.635a2.279,2.279,0,0,1-2.276,2.277Zm-27.272,0a2.278,2.278,0,0,1-2.272-2.277v-13.635a2.275,2.275,0,0,1,2.272-2.273h13.636a2.273,2.273,0,0,1,2.276,2.273v13.635a2.276,2.276,0,0,1-2.276,2.277Zm81.817-27.273a2.274,2.274,0,0,1-2.272-2.275v-13.637a2.27,2.27,0,0,1,2.272-2.271h13.636a2.274,2.274,0,0,1,2.276,2.271v13.637a2.278,2.278,0,0,1-2.276,2.275Zm-27.272,0a2.274,2.274,0,0,1-2.271-2.217q0-.029,0-.059v-13.637a2.27,2.27,0,0,1,2.272-2.271h13.636a2.272,2.272,0,0,1,2.276,2.213q0,.029,0,.059v13.637a2.275,2.275,0,0,1-2.277,2.275Zm-27.272,0a2.274,2.274,0,0,1-2.272-2.275v-13.637q0-.029,0-.059a2.271,2.271,0,0,1,2.271-2.213h13.636a2.271,2.271,0,0,1,2.276,2.271v13.637c0,.02,0,.039,0,.059a2.275,2.275,0,0,1-2.276,2.217Zm-27.272,0a2.276,2.276,0,0,1-2.272-2.275v-13.637a2.273,2.273,0,0,1,2.272-2.271h13.636a2.271,2.271,0,0,1,2.276,2.271v13.637a2.275,2.275,0,0,1-2.276,2.275Zm81.817-27.271a2.275,2.275,0,0,1-2.272-2.277v-13.635a2.272,2.272,0,0,1,2.272-2.273h13.636a2.276,2.276,0,0,1,2.276,2.273v13.635a2.279,2.279,0,0,1-2.276,2.277Zm-27.272,0a2.274,2.274,0,0,1-2.271-2.219q0-.029,0-.059v-13.635a2.272,2.272,0,0,1,2.272-2.273h13.636a2.273,2.273,0,0,1,2.276,2.215q0,.029,0,.059v13.635a2.277,2.277,0,0,1-2.277,2.277Zm-27.272,0a2.275,2.275,0,0,1-2.272-2.277v-13.635a2.272,2.272,0,0,1,2.272-2.273h13.636a2.274,2.274,0,0,1,2.276,2.215c0,.02,0,.039,0,.059v13.635c0,.02,0,.039,0,.059a2.276,2.276,0,0,1-2.276,2.219Zm-27.272,0a2.278,2.278,0,0,1-2.272-2.277v-13.635a2.275,2.275,0,0,1,2.272-2.273h13.636a2.273,2.273,0,0,1,2.276,2.273v13.635a2.276,2.276,0,0,1-2.276,2.277Zm81.817-27.273a2.274,2.274,0,0,1-2.272-2.275v-13.637a2.272,2.272,0,0,1,2.272-2.271h13.636a2.276,2.276,0,0,1,2.276,2.271v13.637a2.278,2.278,0,0,1-2.276,2.275Zm-27.272,0a2.274,2.274,0,0,1-2.271-2.217q0-.029,0-.059v-13.637a2.272,2.272,0,0,1,2.272-2.271h13.636a2.272,2.272,0,0,1,2.276,2.213q0,.029,0,.059v13.637a2.275,2.275,0,0,1-2.277,2.275Zm-27.272,0a2.274,2.274,0,0,1-2.271-2.217q0-.029,0-.059v-13.637a2.272,2.272,0,0,1,2.272-2.271h13.636a2.272,2.272,0,0,1,2.276,2.213c0,.02,0,.039,0,.059v13.637a2.275,2.275,0,0,1-2.276,2.275Zm-27.272,0a2.276,2.276,0,0,1-2.272-2.275v-13.637a2.274,2.274,0,0,1,2.272-2.271h13.636a2.272,2.272,0,0,1,2.276,2.271v13.637a2.275,2.275,0,0,1-2.276,2.275Z" transform="translate(3596 19374)"/></g></svg>