<svg xmlns="http://www.w3.org/2000/svg" xmlns:xlink="http://www.w3.org/1999/xlink" width="100" height="100" viewBox="0 0 100 100"><defs><clipPath id="b"><rect width="100" height="100"/></clipPath></defs><g id="a" clip-path="url(#b)"><path d="M-4212-19092a5.007,5.007,0,0,1-5-5v-30a5.009,5.009,0,0,1,5-5h30a5.005,5.005,0,0,1,5,5v30a5,5,0,0,1-5,5Zm1-32v24a2,2,0,0,0,2,2h24a2,2,0,0,0,2-2v-24a2,2,0,0,0-2-2h-24A2,2,0,0,0-4211-19124Zm-61,32a5.007,5.007,0,0,1-5-5v-30a5.008,5.008,0,0,1,5-5h30a5.006,5.006,0,0,1,5,5v30a5,5,0,0,1-5,5Zm1-32v24a2,2,0,0,0,2,2h24a2,2,0,0,0,2-2v-24a2,2,0,0,0-2-2h-24A2,2,0,0,0-4271-19124Zm59-28a5.007,5.007,0,0,1-5-5v-30a5.009,5.009,0,0,1,5-5h30a5.005,5.005,0,0,1,5,5v30a5,5,0,0,1-5,5Zm1-32v24a2,2,0,0,0,2,2h24a2,2,0,0,0,2-2v-24a2,2,0,0,0-2-2h-24A2,2,0,0,0-4211-19184Zm-61,17a5,5,0,0,1-5-5,5,5,0,0,1,5-5h30a5,5,0,0,1,5,5,5,5,0,0,1-5,5Z" transform="translate(4276.999 19191.998)"/></g></svg>