<svg xmlns="http://www.w3.org/2000/svg" xmlns:xlink="http://www.w3.org/1999/xlink" width="100" height="100" viewBox="0 0 100 100"><defs><clipPath id="b"><rect width="100" height="100"/></clipPath></defs><g id="a" clip-path="url(#b)"><path d="M-3518.878-19092a3.131,3.131,0,0,1-3.125-3.125v-18.756a3.128,3.128,0,0,1,3.125-3.123h18.754a3.128,3.128,0,0,1,3.125,3.123v18.756a3.131,3.131,0,0,1-3.125,3.125Zm.626-20v15a1.251,1.251,0,0,0,1.252,1.252h15a1.256,1.256,0,0,0,1.252-1.252v-15a1.251,1.251,0,0,0-1.252-1.246h-15A1.246,1.246,0,0,0-3518.251-19112Zm-38.122,20a3.127,3.127,0,0,1-3.125-3.125v-18.756a3.124,3.124,0,0,1,3.125-3.123h18.748a3.128,3.128,0,0,1,3.125,3.123v18.756a3.131,3.131,0,0,1-3.125,3.125Zm.626-20v15a1.251,1.251,0,0,0,1.247,1.252h15a1.256,1.256,0,0,0,1.252-1.252v-15a1.251,1.251,0,0,0-1.252-1.246h-15A1.246,1.246,0,0,0-3555.748-19112Zm-38.128,20a3.131,3.131,0,0,1-3.125-3.125v-18.756a3.128,3.128,0,0,1,3.125-3.123h18.754a3.128,3.128,0,0,1,3.125,3.123v18.756a3.131,3.131,0,0,1-3.125,3.125Zm.626-20v15a1.251,1.251,0,0,0,1.252,1.252h15a1.256,1.256,0,0,0,1.252-1.252v-15a1.251,1.251,0,0,0-1.252-1.246h-15A1.246,1.246,0,0,0-3593.249-19112Zm74.371-17.5a3.131,3.131,0,0,1-3.125-3.127v-18.746a3.128,3.128,0,0,1,3.125-3.123h18.754a3.128,3.128,0,0,1,3.125,3.123v18.746a3.131,3.131,0,0,1-3.125,3.127Zm.626-19.994v15a1.252,1.252,0,0,0,1.252,1.254h15a1.256,1.256,0,0,0,1.252-1.254v-15a1.255,1.255,0,0,0-1.252-1.254h-15A1.251,1.251,0,0,0-3518.251-19149.5Zm-38.122,19.994a3.127,3.127,0,0,1-3.125-3.127v-18.746a3.124,3.124,0,0,1,3.125-3.123h18.748a3.128,3.128,0,0,1,3.125,3.123v18.746a3.131,3.131,0,0,1-3.125,3.127Zm.626-19.994v15a1.251,1.251,0,0,0,1.247,1.254h15a1.256,1.256,0,0,0,1.252-1.254v-15a1.255,1.255,0,0,0-1.252-1.254h-15A1.25,1.25,0,0,0-3555.748-19149.5Zm-38.128,19.994a3.131,3.131,0,0,1-3.125-3.127v-18.746a3.128,3.128,0,0,1,3.125-3.123h18.754a3.128,3.128,0,0,1,3.125,3.123v18.746a3.131,3.131,0,0,1-3.125,3.127Zm.626-19.994v15a1.252,1.252,0,0,0,1.252,1.254h15a1.256,1.256,0,0,0,1.252-1.254v-15a1.255,1.255,0,0,0-1.252-1.254h-15A1.251,1.251,0,0,0-3593.249-19149.5Zm74.371-17.5a3.129,3.129,0,0,1-3.125-3.123v-18.756a3.131,3.131,0,0,1,3.125-3.125h18.754a3.131,3.131,0,0,1,3.125,3.125v18.756a3.129,3.129,0,0,1-3.125,3.123Zm.626-20v15a1.253,1.253,0,0,0,1.252,1.252h15a1.257,1.257,0,0,0,1.252-1.252v-15a1.254,1.254,0,0,0-1.252-1.252h-15A1.25,1.25,0,0,0-3518.251-19187Zm-38.122,20a3.125,3.125,0,0,1-3.125-3.123v-18.756a3.127,3.127,0,0,1,3.125-3.125h18.748a3.131,3.131,0,0,1,3.125,3.125v18.756a3.129,3.129,0,0,1-3.125,3.123Zm.626-20v15a1.252,1.252,0,0,0,1.247,1.252h15a1.257,1.257,0,0,0,1.252-1.252v-15a1.254,1.254,0,0,0-1.252-1.252h-15A1.249,1.249,0,0,0-3555.748-19187Zm-38.128,20a3.129,3.129,0,0,1-3.125-3.123v-18.756a3.131,3.131,0,0,1,3.125-3.125h18.754a3.131,3.131,0,0,1,3.125,3.125v18.756a3.129,3.129,0,0,1-3.125,3.123Zm.626-20v15a1.253,1.253,0,0,0,1.252,1.252h15a1.257,1.257,0,0,0,1.252-1.252v-15a1.254,1.254,0,0,0-1.252-1.252h-15A1.25,1.25,0,0,0-3593.249-19187Z" transform="translate(3596.999 19192)"/></g></svg>