<svg xmlns="http://www.w3.org/2000/svg" xmlns:xlink="http://www.w3.org/1999/xlink" width="100" height="100" viewBox="0 0 100 100"><defs><clipPath id="b"><rect width="100" height="100"/></clipPath></defs><g id="a" clip-path="url(#b)"><path d="M-4041-19274a5,5,0,0,1-5-5v-30a5,5,0,0,1,5-5h30a5,5,0,0,1,5,5v30a5,5,0,0,1-5,5Zm-60,0a5,5,0,0,1-5-5v-30a5,5,0,0,1,5-5h30a5,5,0,0,1,5,5v30a5,5,0,0,1-5,5Zm10-65v-10h-10a5,5,0,0,1-5-5,5,5,0,0,1,5-5h10v-10a5,5,0,0,1,5-5,5,5,0,0,1,5,5v10h10a5,5,0,0,1,5,5,5,5,0,0,1-5,5h-10v10a5,5,0,0,1-5,5A5.006,5.006,0,0,1-4091-19339Zm50,5a5,5,0,0,1-5-5v-30a5,5,0,0,1,5-5h30a5,5,0,0,1,5,5v30a5,5,0,0,1-5,5Z" transform="translate(4105.999 19374)"/></g></svg>