<svg xmlns="http://www.w3.org/2000/svg" xmlns:xlink="http://www.w3.org/1999/xlink" width="100" height="100" viewBox="0 0 100 100"><defs><clipPath id="b"><rect width="100" height="100"/></clipPath></defs><g id="a" clip-path="url(#b)"><path d="M-4042-19092a5.007,5.007,0,0,1-5-5v-30a5.009,5.009,0,0,1,5-5h30a5.005,5.005,0,0,1,5,5v30a5,5,0,0,1-5,5Zm1-32v24a2,2,0,0,0,2,2h24a2,2,0,0,0,2-2v-24a2,2,0,0,0-2-2h-24A2,2,0,0,0-4041-19124Zm-61,32a5.007,5.007,0,0,1-5-5v-30a5.009,5.009,0,0,1,5-5h30a5.006,5.006,0,0,1,5,5v30a5,5,0,0,1-5,5Zm1-32v24a2,2,0,0,0,2,2h24a2,2,0,0,0,2-2v-24a2,2,0,0,0-2-2h-24A2,2,0,0,0-4101-19124Zm14-28a5,5,0,0,1-5-5.006v-10h-10a5,5,0,0,1-5-5,5,5,0,0,1,5-5h10v-10a5,5,0,0,1,5-4.994h0A5,5,0,0,1-4082-19187v10h10a5,5,0,0,1,5,5,5,5,0,0,1-5,5h-10v10a5,5,0,0,1-4.995,5.006Zm45-.006a5.007,5.007,0,0,1-5-5v-30a5.009,5.009,0,0,1,5-5h30a5.005,5.005,0,0,1,5,5v30a5,5,0,0,1-5,5Zm1-32v24a2,2,0,0,0,2,2h24a2,2,0,0,0,2-2v-24a2,2,0,0,0-2-2h-24A2,2,0,0,0-4041-19184Z" transform="translate(4106.999 19191.998)"/></g></svg>