<svg xmlns="http://www.w3.org/2000/svg" xmlns:xlink="http://www.w3.org/1999/xlink" width="100" height="100" viewBox="0 0 100 100"><defs><clipPath id="b"><rect width="100" height="100"/></clipPath></defs><g id="a" clip-path="url(#b)"><path d="M-3517.878-19274a3.127,3.127,0,0,1-3.123-3.049c0-.027,0-.055,0-.08v-18.752a3.122,3.122,0,0,1,3.124-3.123h18.75a3.124,3.124,0,0,1,3.129,3.043c0,.027,0,.055,0,.08v18.752a3.129,3.129,0,0,1-3.13,3.129Zm-37.5,0a3.127,3.127,0,0,1-3.124-3.129v-18.752c0-.025,0-.053,0-.08a3.122,3.122,0,0,1,3.123-3.043h18.75a3.123,3.123,0,0,1,3.13,3.123v18.752c0,.025,0,.053,0,.08a3.129,3.129,0,0,1-3.129,3.049Zm-37.5,0a3.131,3.131,0,0,1-3.124-3.129v-18.752a3.126,3.126,0,0,1,3.124-3.123h18.75a3.123,3.123,0,0,1,3.13,3.123v18.752a3.128,3.128,0,0,1-3.13,3.129Zm75-37.5a3.126,3.126,0,0,1-3.123-3.051c0-.025,0-.053,0-.08v-18.748a3.124,3.124,0,0,1,3.124-3.125h18.75a3.126,3.126,0,0,1,3.129,3.045c0,.027,0,.053,0,.08v18.748a3.13,3.13,0,0,1-3.13,3.131Zm-37.5,0a3.129,3.129,0,0,1-3.124-3.131v-18.748a3.124,3.124,0,0,1,3.124-3.125h18.75a3.125,3.125,0,0,1,3.129,3.045c0,.027,0,.053,0,.08v18.748c0,.027,0,.055,0,.08a3.128,3.128,0,0,1-3.129,3.051Zm-37.5,0a3.132,3.132,0,0,1-3.124-3.131v-18.748a3.127,3.127,0,0,1,3.124-3.125h18.75a3.125,3.125,0,0,1,3.13,3.125v18.748a3.13,3.13,0,0,1-3.13,3.131Zm75-37.5a3.127,3.127,0,0,1-3.123-3.049c0-.027,0-.053,0-.08v-18.75a3.123,3.123,0,0,1,3.124-3.123h18.75a3.124,3.124,0,0,1,3.129,3.041c0,.027,0,.055,0,.082v18.75a3.129,3.129,0,0,1-3.13,3.129Zm-37.5,0a3.127,3.127,0,0,1-3.123-3.049c0-.027,0-.053,0-.08v-18.75a3.123,3.123,0,0,1,3.124-3.123h18.75a3.123,3.123,0,0,1,3.129,3.041c0,.027,0,.055,0,.082v18.75a3.128,3.128,0,0,1-3.13,3.129Zm-37.5,0a3.131,3.131,0,0,1-3.124-3.129v-18.75a3.127,3.127,0,0,1,3.124-3.123h18.75a3.124,3.124,0,0,1,3.13,3.123v18.75a3.128,3.128,0,0,1-3.13,3.129Z" transform="translate(3596 19374)"/></g></svg>