<svg xmlns="http://www.w3.org/2000/svg" xmlns:xlink="http://www.w3.org/1999/xlink" width="100" height="100" viewBox="0 0 100 100"><defs><filter id="a" x="-27" y="-27" width="134.575" height="160" filterUnits="userSpaceOnUse"><feOffset dx="3" dy="3" input="SourceAlpha"/><feGaussianBlur stdDeviation="10" result="b"/><feFlood flood-opacity="0.161"/><feComposite operator="in" in2="b"/><feComposite in="SourceGraphic"/></filter><clipPath id="d"><rect width="100" height="100"/></clipPath></defs><g id="c" clip-path="url(#d)"><path d="M-6985.942-2276.753h-35.544l15.119-18.749-5.385-13h3.424V-2322h4.638v-4.114h-14.453v2.187L-7032.255-2358h46.313a4.967,4.967,0,0,1,3.536,1.465,4.966,4.966,0,0,1,1.464,3.535v71.25a4.965,4.965,0,0,1-1.464,3.536A4.965,4.965,0,0,1-6985.942-2276.753Zm-16.465-36.937a4.76,4.76,0,0,0,2.011,4.065,9.527,9.527,0,0,0,5.544,1.428c4.68,0,7.7-2.314,7.7-5.9,0-2.865-1.594-4.479-5.017-5.079l-2.417-.415a5.05,5.05,0,0,1-1.824-.581,1.11,1.11,0,0,1-.569-.993,1.217,1.217,0,0,1,.6-1.049,2.965,2.965,0,0,1,1.612-.391,3.233,3.233,0,0,1,1.766.461,1.568,1.568,0,0,1,.749,1.285h4.724c-.024-3.486-2.767-5.566-7.336-5.566-4.337,0-7.25,2.335-7.25,5.811,0,2.779,1.773,4.617,4.993,5.175l2.332.416a6.42,6.42,0,0,1,1.979.578,1,1,0,0,1,.56.935,1.229,1.229,0,0,1-.67,1.059,3.566,3.566,0,0,1-1.833.418,3.728,3.728,0,0,1-1.847-.454,1.728,1.728,0,0,1-.912-1.206Zm-11.1.958-3.84-9.271h3.84v9.271Z" transform="translate(7080.941 2376.745)" opacity="0.33"/><g transform="matrix(1, 0, 0, 1, 0, 0)" filter="url(#a)"><path d="M-7797.22,205.251H-7843a4.963,4.963,0,0,1-3.536-1.465A4.963,4.963,0,0,1-7848,200.25V129a4.963,4.963,0,0,1,1.465-3.535A4.963,4.963,0,0,1-7843,124h35.919l33.651,81.244h0l0,0,0,.005h-.006L-7788.551,224Zm-18.179-29.759,1.832,7.008h11.034l-11.5-35.23h-12.987l-11.5,35.23h10.547l1.832-7.008Zm-1.881-7.3h-6.982l3.394-12.792h.2l3.394,12.792Z" transform="translate(7848 -124)"/></g></g></svg>