<svg xmlns="http://www.w3.org/2000/svg" xmlns:xlink="http://www.w3.org/1999/xlink" width="100" height="100" viewBox="0 0 100 100"><defs><clipPath id="b"><rect width="100" height="100"/></clipPath></defs><g id="a" clip-path="url(#b)"><path d="M-9080-994h-100v-100h100v100h0Zm-93.42-6.58h86.84v-86.841h-86.84Zm10.893-12.308,63.641-63.64,1.414,1.414-63.64,63.64Zm58.059-1.112v-15.807h4.32V-1014Zm-12.161,0v-17.607h-6.171v-3.671h16.824v3.671h-6.186V-1014Zm12.014-19.774a2.237,2.237,0,0,1,2.308-2.227,2.237,2.237,0,0,1,2.309,2.227,2.246,2.246,0,0,1-2.309,2.227A2.246,2.246,0,0,1-9104.616-1033.774Zm-55-17.838,0,0h-.006l0,0a.367.367,0,0,1-.059-.042v0l-.006,0,0,0h0a.246.246,0,0,1-.045-.064.011.011,0,0,0,0-.006v-.006l0,0s0,0,0,0,0,0,0-.006a.276.276,0,0,1-.023-.132v-.009a.282.282,0,0,1,.014-.068l1.338-4.546a.322.322,0,0,1,.1-.153.162.162,0,0,0,.013-.014l.645-.643,13.4-13.4a.355.355,0,0,1,.5-.015l3.154,3.156a.355.355,0,0,1-.015.5l-12.036,12.029-.011.009-1.978,1.98a.178.178,0,0,0-.024.023l-.023.024a.323.323,0,0,1-.143.083l-4.552,1.34a.359.359,0,0,1-.089.012A.3.3,0,0,1-9159.612-1051.612Zm1.1-2.419,1.188,1.187,2.336-.687-.332-1.164-1.182-.161-.16-1.181-1.164-.332Zm14.151-15.007h0l-9.3,9.3a.519.519,0,0,0-.023.732.519.519,0,0,0,.732-.023l9.3-9.3a.52.52,0,0,0,.022-.734.483.483,0,0,0-.34-.139h-.006A.55.55,0,0,0-9144.364-1069.038Zm3.335,17.416a.671.671,0,0,1-.477-.2l-6.459-6.46,2.027-2.026.211.212a.227.227,0,0,0,.16.067.229.229,0,0,0,.161-.067l1.5-1.5,1.762,1.761-1.5,1.5a.227.227,0,0,0,0,.32l.482.481a.226.226,0,0,0,.16.067.231.231,0,0,0,.16-.067l1.5-1.5,1.763,1.761-1.5,1.5a.228.228,0,0,0-.066.161.229.229,0,0,0,.066.161l.48.48a.22.22,0,0,0,.161.065.219.219,0,0,0,.159-.065l1.5-1.5.961.961a.68.68,0,0,1,.2.48.68.68,0,0,1-.2.48l-2.724,2.724a.68.68,0,0,1-.48.2Zm-.477-.2h0Zm-17.939-17.94a.677.677,0,0,1-.2-.48.677.677,0,0,1,.2-.48l2.724-2.724a.672.672,0,0,1,.48-.2.672.672,0,0,1,.48.2l.8.8-1.5,1.5a.229.229,0,0,0,0,.321l.479.48a.223.223,0,0,0,.161.065.229.229,0,0,0,.161-.065l1.5-1.5,1.762,1.761-1.5,1.5a.217.217,0,0,0-.066.159.224.224,0,0,0,.066.161l.48.48a.225.225,0,0,0,.16.067.229.229,0,0,0,.16-.067l1.5-1.5,1.762,1.761-1.5,1.5a.218.218,0,0,0-.068.159.219.219,0,0,0,.068.161l.479.48a.218.218,0,0,0,.119.062l-2.055,2.055Zm19.845,1.485a.33.33,0,0,1-.231-.1l-3.154-3.154a.354.354,0,0,1,.015-.5l1.287-1.288a1.776,1.776,0,0,1,2.5-.076l1.213,1.214a1.77,1.77,0,0,1-.076,2.5l-1.285,1.29a.39.39,0,0,1-.266.111Zm-.231-.1,0,0Z" transform="translate(9180 1094)"/></g></svg>