<svg xmlns="http://www.w3.org/2000/svg" xmlns:xlink="http://www.w3.org/1999/xlink" width="100" height="100" viewBox="0 0 100 100"><defs><clipPath id="b"><rect width="100" height="100"/></clipPath></defs><g id="a" clip-path="url(#b)"><path d="M-11298.146-622a11.7,11.7,0,0,1-3.021-.784c-1.555-.552-3.426-1.334-5.408-2.263a99.579,99.579,0,0,1-14.541-8.422,62.353,62.353,0,0,1-13.77-12.713c-4.061-5.307-6.117-10.664-6.117-15.922v-57.754a2.156,2.156,0,0,1,2.057-2.141l.086,0,22.615,1.176a41.622,41.622,0,0,1,5.859.541,27.393,27.393,0,0,1,7.516,2.165l.488.228a11.235,11.235,0,0,0,4.236,1.408,11.236,11.236,0,0,0,4.236-1.408l0,0,.482-.226a27.405,27.405,0,0,1,7.518-2.165,41.622,41.622,0,0,1,5.859-.541l22.613-1.176.084,0a2.157,2.157,0,0,1,2.061,2.141v57.754c0,5.258-2.061,10.615-6.119,15.922a62.341,62.341,0,0,1-13.77,12.713,99.584,99.584,0,0,1-14.539,8.422c-1.986.93-3.855,1.712-5.408,2.263A11.717,11.717,0,0,1-11298.146-622Zm-34.041-91.716a1.8,1.8,0,0,0-1.717,1.786v48.186c0,10.113,9.023,18.575,16.592,23.892a83.081,83.081,0,0,0,12.133,7.027c3.73,1.747,6.26,2.543,7.031,2.543s3.3-.8,7.033-2.543a82.962,82.962,0,0,0,12.131-7.027c7.57-5.317,16.594-13.779,16.594-23.892v-48.186a1.8,1.8,0,0,0-1.715-1.786l-.072,0-18.869.98c-1.41,0-7.441.383-11.158,2.258l-.342.159-.061.028a9.4,9.4,0,0,1-3.541,1.178,9.443,9.443,0,0,1-3.541-1.178l-.4-.187c-3.719-1.875-9.75-2.258-11.16-2.258l-18.869-.98Z" transform="translate(11348.004 722.001)"/><path d="M-11274.836-605.31c-.771,0-3.3-.8-7.033-2.544a82.954,82.954,0,0,1-12.129-7.026c-1.627-1.143-3.166-2.323-4.578-3.508-.256-5.039-.373-10.8-.295-11.165a7.7,7.7,0,0,1,3.619-4.578,20.415,20.415,0,0,1,4.285-2.036,23.988,23.988,0,0,1,4.252-.873h0c.854-.124,1.662-.241,2.332-.391a6.628,6.628,0,0,0,3.051-1.4c.5-.6.205-6.179.2-6.235a18.739,18.739,0,0,1-1.441-2.743,35.467,35.467,0,0,1-1.062-4.792v0a1.057,1.057,0,0,1-.568-.228,2.455,2.455,0,0,1-.836-1.593,15.5,15.5,0,0,0-.521-1.926,5.912,5.912,0,0,1-.412-2.31c.07-1.377.785-1.417.867-1.417h0l0,0a23.545,23.545,0,0,1-.846-6.486,9.746,9.746,0,0,1,.662-3.773,9.645,9.645,0,0,1,2.115-3.285,10.315,10.315,0,0,1,3.588-2.365,13.4,13.4,0,0,1,4.979-.9,13.208,13.208,0,0,1,4.947.9,10.389,10.389,0,0,1,3.6,2.378,9.775,9.775,0,0,1,2.121,3.277,9.718,9.718,0,0,1,.668,3.761,22.665,22.665,0,0,1-.859,6.488h0c.082,0,.8.04.867,1.417a5.876,5.876,0,0,1-.414,2.311l0,.006a15.947,15.947,0,0,0-.518,1.919,2.492,2.492,0,0,1-.84,1.593,1.053,1.053,0,0,1-.564.228l0,.014a34.539,34.539,0,0,1-1.061,4.78,18.613,18.613,0,0,1-1.441,2.743c0,.056-.3,5.636.2,6.235a6.6,6.6,0,0,0,3.047,1.4c.672.151,1.48.268,2.336.392a24.017,24.017,0,0,1,4.254.873,20.358,20.358,0,0,1,4.283,2.037,7.7,7.7,0,0,1,3.621,4.578c.074.343-.033,5.795-.275,10.77-1.543,1.323-3.238,2.637-5.041,3.9a83.152,83.152,0,0,1-12.131,7.026C-11271.535-606.106-11274.064-605.31-11274.836-605.31Z" transform="translate(11324.693 697.028)" opacity="0.5"/></g></svg>