<svg xmlns="http://www.w3.org/2000/svg" xmlns:xlink="http://www.w3.org/1999/xlink" width="100" height="100" viewBox="0 0 100 100"><defs><clipPath id="b"><rect width="100" height="100"/></clipPath></defs><g id="a" clip-path="url(#b)"><path d="M-5610.215-19138.426a26.611,26.611,0,0,1-18.938-7.848,26.6,26.6,0,0,1-7.846-18.943,26.593,26.593,0,0,1,7.846-18.937,26.6,26.6,0,0,1,18.938-7.848h46.427a26.607,26.607,0,0,1,18.943,7.848,26.613,26.613,0,0,1,7.846,18.938,26.616,26.616,0,0,1-7.846,18.943,26.623,26.623,0,0,1-18.943,7.848Zm-21.429-26.791a21.452,21.452,0,0,0,21.429,21.43h46.427a21.453,21.453,0,0,0,21.434-21.43,21.451,21.451,0,0,0-21.434-21.424h-46.427A21.45,21.45,0,0,0-5631.644-19165.217Zm48.214.006a19.644,19.644,0,0,1,19.646-19.643,19.643,19.643,0,0,1,19.642,19.643,19.643,19.643,0,0,1-19.642,19.641A19.644,19.644,0,0,1-5583.43-19165.211Z" transform="translate(5637 19215)"/></g></svg>