<svg xmlns="http://www.w3.org/2000/svg" xmlns:xlink="http://www.w3.org/1999/xlink" width="100" height="100" viewBox="0 0 100 100"><defs><clipPath id="b"><rect width="100" height="100"/></clipPath></defs><g id="a" clip-path="url(#b)"><path d="M-5562.789-19320.43h-46.425a26.627,26.627,0,0,1-18.943-7.842,26.634,26.634,0,0,1-7.843-18.943,26.612,26.612,0,0,1,7.843-18.939,26.615,26.615,0,0,1,18.943-7.848h46.425a26.617,26.617,0,0,1,18.943,7.848,26.612,26.612,0,0,1,7.843,18.939,26.634,26.634,0,0,1-7.843,18.943A26.629,26.629,0,0,1-5562.789-19320.43Zm0-46.424a19.663,19.663,0,0,0-19.644,19.639,19.665,19.665,0,0,0,19.644,19.643,19.662,19.662,0,0,0,19.638-19.643A19.66,19.66,0,0,0-5562.784-19366.854Z" transform="translate(5636 19397)"/></g></svg>