<svg xmlns="http://www.w3.org/2000/svg" xmlns:xlink="http://www.w3.org/1999/xlink" width="100" height="100" viewBox="0 0 100 100"><defs><clipPath id="b"><rect width="100" height="100"/></clipPath></defs><g id="a" clip-path="url(#b)"><path d="M-4097.825-16179a4.942,4.942,0,0,1-5-4.87v-82.348h59.673v82.348a4.942,4.942,0,0,1-5,4.87Zm37.823-78.5v67a1.5,1.5,0,0,0,1.5,1.5,1.5,1.5,0,0,0,1.5-1.5v-67a1.5,1.5,0,0,0-1.5-1.5A1.5,1.5,0,0,0-4060-16257.5Zm-14.5,0v67a1.5,1.5,0,0,0,1.5,1.5,1.5,1.5,0,0,0,1.5-1.5v-67a1.5,1.5,0,0,0-1.5-1.5A1.5,1.5,0,0,0-4074.5-16257.5Zm-14.5,0v67a1.5,1.5,0,0,0,1.5,1.5,1.5,1.5,0,0,0,1.5-1.5v-67a1.5,1.5,0,0,0-1.5-1.5A1.5,1.5,0,0,0-4089-16257.5Zm-16-11.015a2,2,0,0,1-2-2v-4.354a2,2,0,0,1,2-2h20.518a34.513,34.513,0,0,1,5.528-2.133h11.938a34.521,34.521,0,0,1,5.528,2.133h20.517a2,2,0,0,1,2,2v4.354a2,2,0,0,1-2,2Z" transform="translate(4123 16279)"/></g></svg>