<svg xmlns="http://www.w3.org/2000/svg" xmlns:xlink="http://www.w3.org/1999/xlink" width="100" height="100" viewBox="0 0 100 100"><defs><clipPath id="b"><rect width="100" height="100"/></clipPath></defs><g id="a" clip-path="url(#b)"><path d="M89.721,23.622c.063.888.063,1.777.063,2.665,0,27.094-20.622,58.312-58.312,58.312A57.917,57.917,0,0,1,0,75.4a42.4,42.4,0,0,0,4.949.254A41.045,41.045,0,0,0,30.393,66.9,20.531,20.531,0,0,1,11.231,52.683,25.845,25.845,0,0,0,15.1,53a21.676,21.676,0,0,0,5.393-.7A20.5,20.5,0,0,1,4.061,32.188v-.254a20.641,20.641,0,0,0,9.264,2.6A20.526,20.526,0,0,1,6.98,7.124,58.256,58.256,0,0,0,49.238,28.571a23.136,23.136,0,0,1-.508-4.7A20.515,20.515,0,0,1,84.2,9.853,40.351,40.351,0,0,0,97.208,4.9,20.44,20.44,0,0,1,88.2,16.2,41.086,41.086,0,0,0,100,13.026a44.056,44.056,0,0,1-10.279,10.6Z" transform="translate(0 5.619)"/></g></svg>