<svg xmlns="http://www.w3.org/2000/svg" xmlns:xlink="http://www.w3.org/1999/xlink" width="100" height="100" viewBox="0 0 100 100"><defs><clipPath id="b"><rect width="100" height="100"/></clipPath></defs><g id="a" clip-path="url(#b)"><path d="M0,50v50H100V0H0Zm80.587-3.983a12.433,12.433,0,0,1,6.254,3.6,16.166,16.166,0,0,1,2.4,3.208c.033.125-4.317,3.042-6.95,4.679-.1.062-.479-.35-.9-.983a5.672,5.672,0,0,0-4.7-2.825c-3.033-.208-4.983,1.379-4.967,4.029a3.667,3.667,0,0,0,.425,1.875c.667,1.379,1.908,2.208,5.792,3.888,7.163,3.083,10.225,5.112,12.129,8a14.515,14.515,0,0,1,1.158,12.192C89.637,87.842,85.7,90.667,80.158,91.6a30.513,30.513,0,0,1-7.617-.075,18.388,18.388,0,0,1-10.175-5.3,17.613,17.613,0,0,1-2.6-3.854,6.587,6.587,0,0,1,.917-.588c.45-.254,2.129-1.225,3.717-2.146l2.875-1.667.6.892a13.434,13.434,0,0,0,3.792,3.633c3.192,1.683,7.571,1.446,9.729-.492a4.338,4.338,0,0,0,.554-5.542c-.775-1.108-2.363-2.042-6.871-4-5.158-2.221-7.379-3.6-9.412-5.792a13.187,13.187,0,0,1-2.746-5,20.112,20.112,0,0,1-.175-6.379C63.808,50.3,67.571,46.829,73,45.8a25.31,25.31,0,0,1,7.588.221ZM57.112,50.192l.033,4.1H44.125V91.271H34.917V54.288H21.908V50.271a39.964,39.964,0,0,1,.108-4.125c.05-.067,7.971-.1,17.571-.083l17.479.05Z"/></g></svg>