<svg xmlns="http://www.w3.org/2000/svg" xmlns:xlink="http://www.w3.org/1999/xlink" width="100" height="100" viewBox="0 0 100 100"><defs><clipPath id="b"><rect width="100" height="100"/></clipPath></defs><g id="a" clip-path="url(#b)"><path d="M-9686.568-280a3.43,3.43,0,0,1-3.432-3.429v-6.863a3.43,3.43,0,0,1,3.432-3.428h67.462a3.428,3.428,0,0,1,3.428,3.428v6.863a3.428,3.428,0,0,1-3.428,3.429Zm-1.146-47.791V-380h20.6v50.024c0,9.421,5.105,15.029,14.307,15.029,9.146,0,14.253-5.609,14.253-15.029V-380h20.594v52.209c0,18.171-13.8,30.114-34.847,30.114C-9673.908-297.676-9687.714-309.618-9687.714-327.79Z" transform="translate(9702.84 379.999)"/></g></svg>