<svg xmlns="http://www.w3.org/2000/svg" xmlns:xlink="http://www.w3.org/1999/xlink" width="100" height="100" viewBox="0 0 100 100"><defs><clipPath id="b"><rect width="100" height="100"/></clipPath></defs><g id="a" clip-path="url(#b)"><path d="M-3212.195-7146.229h-.109c-16.191-.014-31.041-1.881-40.742-5.119a12.619,12.619,0,0,1-4.366-2.374,7.691,7.691,0,0,1-2.018-2.695,6.3,6.3,0,0,1-.547-3.124l0-.005c.029-.142.7-3.547,1.876-7.567,1.1-3.757,2.864-8.81,5.052-11.542,3.966-4.959,11.622-6,17.346-6a47.575,47.575,0,0,1,7.219.538h.011c.091.053,9.49,5.4,16.275,5.461,6.763-.058,16.184-5.408,16.275-5.461h.011a47.6,47.6,0,0,1,7.219-.538c5.724,0,13.38,1.041,17.346,6,2.187,2.729,3.955,7.783,5.052,11.542,1.075,3.679,1.752,6.95,1.878,7.567v.005a6.355,6.355,0,0,1-.547,3.124,7.7,7.7,0,0,1-2.016,2.695,12.644,12.644,0,0,1-4.367,2.374c-9.7,3.238-24.551,5.1-40.742,5.119Zm-38.283-29.617c-3.24,4.049-5.708,15.608-5.731,15.725a4.327,4.327,0,0,0,.372,2.19c.489,1.1,1.678,2.6,4.565,3.521,7.262,2.42,26.149,4.747,38.862,4.787l.029.007.416.007.043-.015c12.707-.047,31.562-2.374,38.8-4.787,2.887-.917,4.077-2.421,4.565-3.521a4.185,4.185,0,0,0,.372-2.19c-.024-.116-2.493-11.677-5.731-15.725-2.949-3.688-8.284-5.559-15.857-5.559h-.316a16.375,16.375,0,0,0-4.32.418c-7.684,3.8-12.6,5.319-17.553,5.4l-.005-.009-.3.011h-.04c-4.989-.053-9.945-1.565-17.679-5.4a16.384,16.384,0,0,0-4.32-.418h-.316C-3242.191-7181.4-3247.527-7179.534-3250.478-7175.845Zm22.727-22.86a21.709,21.709,0,0,1-6.4-15.449,21.7,21.7,0,0,1,6.4-15.447,21.711,21.711,0,0,1,15.447-6.4,21.7,21.7,0,0,1,15.447,6.4,21.7,21.7,0,0,1,6.4,15.447,21.707,21.707,0,0,1-6.4,15.449,21.7,21.7,0,0,1-15.447,6.4A21.709,21.709,0,0,1-3227.751-7198.705Zm-3.659-15.512a19.172,19.172,0,0,0,19.152,19.149,19.17,19.17,0,0,0,19.148-19.149,19.169,19.169,0,0,0-19.148-19.148A19.171,19.171,0,0,0-3231.41-7214.217Zm51.395,20.737a2.247,2.247,0,0,1-1.593-.659c-.053-.055-.1-.111-.151-.169l-7.335-7.333a2.25,2.25,0,0,1,0-3.186,2.251,2.251,0,0,1,3.183,0l5.9,5.9,15.9-15.9a2.248,2.248,0,0,1,3.183,0,2.252,2.252,0,0,1,0,3.183l-17.33,17.33c-.049.058-.1.116-.156.171a2.247,2.247,0,0,1-1.551.661Z" transform="translate(3260.137 7241)"/></g></svg>