<svg xmlns="http://www.w3.org/2000/svg" xmlns:xlink="http://www.w3.org/1999/xlink" width="100" height="100" viewBox="0 0 100 100"><defs><clipPath id="b"><rect width="100" height="100"/></clipPath></defs><g id="a" clip-path="url(#b)"><path d="M-3042.194-7146.229h-.111c-16.19-.014-31.041-1.881-40.742-5.119a12.653,12.653,0,0,1-4.366-2.374,7.739,7.739,0,0,1-2.018-2.695,6.306,6.306,0,0,1-.545-3.124l0-.005c.027-.142.7-3.547,1.876-7.567,1.1-3.757,2.864-8.81,5.05-11.542,3.966-4.959,11.622-6,17.348-6a47.633,47.633,0,0,1,7.219.538h.011c.089.053,9.49,5.4,16.275,5.461,6.761-.058,16.184-5.408,16.273-5.461h.011a47.628,47.628,0,0,1,7.219-.538c5.726,0,13.382,1.041,17.348,6,2.186,2.729,3.953,7.783,5.05,11.542,1.075,3.679,1.754,6.95,1.878,7.567v.005a6.364,6.364,0,0,1-.545,3.124,7.706,7.706,0,0,1-2.018,2.695,12.652,12.652,0,0,1-4.365,2.374c-9.7,3.238-24.552,5.1-40.742,5.119Zm-38.283-29.617c-3.24,4.049-5.708,15.608-5.731,15.725a4.3,4.3,0,0,0,.372,2.19c.487,1.1,1.676,2.6,4.565,3.521,7.26,2.42,26.147,4.747,38.862,4.787l.027.007.417.007.044-.015c12.7-.047,31.562-2.374,38.8-4.787,2.889-.917,4.079-2.421,4.567-3.521a4.148,4.148,0,0,0,.371-2.19c-.024-.116-2.492-11.677-5.729-15.725-2.949-3.688-8.285-5.559-15.857-5.559h-.318a16.383,16.383,0,0,0-4.32.418c-7.682,3.8-12.6,5.319-17.552,5.4l-.007-.009-.3.011h-.042c-4.987-.053-9.943-1.565-17.677-5.4a16.389,16.389,0,0,0-4.32-.418h-.318C-3072.192-7181.4-3077.528-7179.534-3080.477-7175.845Zm22.726-22.86a21.707,21.707,0,0,1-6.4-15.449,21.7,21.7,0,0,1,6.4-15.447,21.713,21.713,0,0,1,15.447-6.4,21.7,21.7,0,0,1,15.447,6.4,21.7,21.7,0,0,1,6.4,15.447,21.709,21.709,0,0,1-6.4,15.449,21.7,21.7,0,0,1-15.447,6.4A21.714,21.714,0,0,1-3057.751-7198.705Zm-3.657-15.512a19.17,19.17,0,0,0,19.15,19.149,19.17,19.17,0,0,0,19.148-19.149,19.169,19.169,0,0,0-19.148-19.148A19.17,19.17,0,0,0-3061.409-7214.217Zm67.3,20.078-7.16-7.161-7.161,7.161a2.249,2.249,0,0,1-3.182,0,2.251,2.251,0,0,1,0-3.182l7.162-7.161-7.162-7.162a2.252,2.252,0,0,1,0-3.182,2.253,2.253,0,0,1,3.183,0l7.161,7.16,7.16-7.16a2.251,2.251,0,0,1,3.183,0,2.249,2.249,0,0,1,0,3.183l-7.159,7.159,7.16,7.163a2.249,2.249,0,0,1,0,3.182,2.239,2.239,0,0,1-1.59.659A2.244,2.244,0,0,1-2994.1-7194.14Z" transform="translate(3090.137 7241)"/></g></svg>