<svg xmlns="http://www.w3.org/2000/svg" xmlns:xlink="http://www.w3.org/1999/xlink" width="100" height="100" viewBox="0 0 100 100"><defs><clipPath id="b"><rect width="100" height="100"/></clipPath></defs><g id="a" clip-path="url(#b)"><path d="M-3549.2-7328.227h-.11c-16.189-.017-31.04-1.882-40.741-5.122a12.642,12.642,0,0,1-4.365-2.372,7.74,7.74,0,0,1-2.018-2.7,6.279,6.279,0,0,1-.545-3.124l0-.005c.028-.142.7-3.547,1.877-7.568,1.1-3.757,2.863-8.81,5.051-11.542,3.966-4.959,11.623-6,17.347-6a47.767,47.767,0,0,1,7.218.538l.011,0c.091.054,9.491,5.4,16.275,5.46,6.761-.058,16.185-5.406,16.275-5.46l.011,0a47.8,47.8,0,0,1,7.219-.538c5.723,0,13.38,1.041,17.347,6,2.186,2.731,3.952,7.784,5.051,11.542,1.074,3.681,1.752,6.95,1.876,7.568v.005a6.35,6.35,0,0,1-.545,3.124,7.725,7.725,0,0,1-2.016,2.7,12.674,12.674,0,0,1-4.365,2.372c-9.7,3.239-24.552,5.1-40.743,5.122Zm35.186-45.879v-10.127h-10.127a2.249,2.249,0,0,1-2.249-2.249,2.25,2.25,0,0,1,2.249-2.251h10.127v-10.127a2.251,2.251,0,0,1,2.249-2.251,2.254,2.254,0,0,1,2.252,2.251v10.127h10.124a2.251,2.251,0,0,1,2.253,2.251,2.25,2.25,0,0,1-2.253,2.249h-10.124v10.127a2.252,2.252,0,0,1-2.252,2.249A2.249,2.249,0,0,1-3514.01-7374.106Zm-50.742-6.6a21.71,21.71,0,0,1-6.4-15.448,21.707,21.707,0,0,1,6.4-15.448,21.713,21.713,0,0,1,15.446-6.4,21.7,21.7,0,0,1,15.448,6.4,21.707,21.707,0,0,1,6.4,15.448,21.709,21.709,0,0,1-6.4,15.448,21.705,21.705,0,0,1-15.448,6.4A21.716,21.716,0,0,1-3564.751-7380.706Z" transform="translate(3597.137 7423)"/></g></svg>