<svg xmlns="http://www.w3.org/2000/svg" xmlns:xlink="http://www.w3.org/1999/xlink" width="100" height="100" viewBox="0 0 100 100"><defs><clipPath id="b"><rect width="100" height="100"/></clipPath></defs><g id="a" clip-path="url(#b)"><path d="M-3552.2-7142.227h-.109c-16.191-.017-31.04-1.882-40.743-5.12a12.642,12.642,0,0,1-4.365-2.374,7.7,7.7,0,0,1-2.017-2.7,6.291,6.291,0,0,1-.546-3.122l0-.005c.027-.143.7-3.546,1.877-7.568,1.1-3.757,2.862-8.808,5.049-11.543,3.968-4.958,11.623-6,17.348-6a47.854,47.854,0,0,1,7.218.538h.011c.091.055,9.49,5.405,16.275,5.461,6.763-.056,16.184-5.407,16.275-5.461h.011a47.878,47.878,0,0,1,7.218-.538c5.725,0,13.38,1.042,17.348,6,2.187,2.731,3.953,7.785,5.051,11.543,1.074,3.679,1.753,6.95,1.877,7.568v.005a6.363,6.363,0,0,1-.545,3.122,7.694,7.694,0,0,1-2.018,2.7,12.646,12.646,0,0,1-4.365,2.374c-9.7,3.238-24.551,5.1-40.743,5.12Zm-38.284-29.617c-3.238,4.049-5.706,15.607-5.73,15.723a4.329,4.329,0,0,0,.372,2.191c.488,1.1,1.677,2.6,4.565,3.521,7.262,2.421,26.148,4.746,38.863,4.788l.029.007.417.007.042-.014c12.707-.047,31.563-2.374,38.8-4.788,2.888-.917,4.076-2.421,4.566-3.521a4.153,4.153,0,0,0,.37-2.191c-.024-.116-2.492-11.678-5.73-15.723-2.949-3.688-8.284-5.56-15.858-5.56h-.316a16.342,16.342,0,0,0-4.322.417c-7.683,3.8-12.6,5.318-17.553,5.395l-.006-.007-.3.011h-.04c-4.988-.054-9.944-1.566-17.678-5.4a16.345,16.345,0,0,0-4.32-.417h-.318C-3582.191-7177.4-3587.528-7175.532-3590.479-7171.844Zm73.469-16.261v-10.127h-10.128a2.249,2.249,0,0,1-2.249-2.249,2.25,2.25,0,0,1,2.249-2.252h10.128v-10.126a2.25,2.25,0,0,1,2.249-2.25,2.252,2.252,0,0,1,2.252,2.25v10.126h10.124a2.251,2.251,0,0,1,2.252,2.252,2.25,2.25,0,0,1-2.252,2.249h-10.124v10.127a2.252,2.252,0,0,1-2.252,2.249A2.249,2.249,0,0,1-3517.01-7188.1Zm-50.742-6.6a21.7,21.7,0,0,1-6.4-15.447,21.7,21.7,0,0,1,6.4-15.447,21.715,21.715,0,0,1,15.447-6.4,21.7,21.7,0,0,1,15.448,6.4,21.7,21.7,0,0,1,6.4,15.447,21.7,21.7,0,0,1-6.4,15.447,21.7,21.7,0,0,1-15.448,6.4A21.708,21.708,0,0,1-3567.751-7194.706Zm-3.657-15.511a19.171,19.171,0,0,0,19.15,19.148,19.17,19.17,0,0,0,19.148-19.148,19.17,19.17,0,0,0-19.148-19.148A19.17,19.17,0,0,0-3571.408-7210.217Z" transform="translate(3600.137 7237)"/></g></svg>