<svg xmlns="http://www.w3.org/2000/svg" xmlns:xlink="http://www.w3.org/1999/xlink" width="100" height="100" viewBox="0 0 100 100"><defs><clipPath id="b"><rect width="100" height="100"/></clipPath></defs><g id="a" clip-path="url(#b)"><path d="M-3719.194-7328.227h-.11c-16.191-.017-31.042-1.882-40.743-5.122a12.676,12.676,0,0,1-4.365-2.372,7.731,7.731,0,0,1-2.016-2.7,6.3,6.3,0,0,1-.547-3.124l0-.005c.028-.142.7-3.547,1.877-7.568,1.1-3.757,2.863-8.81,5.051-11.542,3.967-4.959,11.623-6,17.347-6a47.8,47.8,0,0,1,7.219.538l.011,0c.089.054,9.489,5.4,16.275,5.46,6.762-.058,16.184-5.406,16.273-5.46l.011,0a47.8,47.8,0,0,1,7.219-.538c5.725,0,13.38,1.041,17.347,6,2.186,2.731,3.954,7.784,5.051,11.542,1.076,3.681,1.754,6.95,1.878,7.568v.005a6.393,6.393,0,0,1-.547,3.124,7.725,7.725,0,0,1-2.016,2.7,12.674,12.674,0,0,1-4.365,2.372c-9.7,3.239-24.552,5.1-40.743,5.122Zm-15.558-52.479a21.71,21.71,0,0,1-6.4-15.448,21.707,21.707,0,0,1,6.4-15.448,21.717,21.717,0,0,1,15.448-6.4,21.7,21.7,0,0,1,15.446,6.4,21.707,21.707,0,0,1,6.4,15.448,21.709,21.709,0,0,1-6.4,15.448,21.7,21.7,0,0,1-15.446,6.4A21.717,21.717,0,0,1-3734.752-7380.706Zm40.614-3.528a2.249,2.249,0,0,1-2.249-2.249,2.25,2.25,0,0,1,2.249-2.251h24.753a2.251,2.251,0,0,1,2.253,2.251,2.25,2.25,0,0,1-2.253,2.249Z" transform="translate(3767.137 7423)"/></g></svg>