<svg xmlns="http://www.w3.org/2000/svg" xmlns:xlink="http://www.w3.org/1999/xlink" width="100" height="100" viewBox="0 0 100 100"><defs><clipPath id="b"><rect width="100" height="100"/></clipPath></defs><g id="a" clip-path="url(#b)"><path d="M-3380.06-7161.65h-.085c-12.688-.013-24.325-1.475-31.928-4.013a9.914,9.914,0,0,1-3.421-1.858,6.057,6.057,0,0,1-1.58-2.113,4.915,4.915,0,0,1-.427-2.448v0c.023-.111.55-2.779,1.471-5.932.86-2.944,2.244-6.9,3.958-9.044,3.108-3.886,9.108-4.7,13.594-4.7a37.424,37.424,0,0,1,5.658.422h.008c.072.042,7.438,4.235,12.754,4.28,5.3-.045,12.682-4.238,12.754-4.28h.008a37.421,37.421,0,0,1,5.658-.422c4.486,0,10.486.817,13.594,4.7,1.715,2.14,3.1,6.1,3.958,9.044.843,2.884,1.374,5.447,1.471,5.932v0a4.973,4.973,0,0,1-.427,2.448,6.029,6.029,0,0,1-1.58,2.113,9.914,9.914,0,0,1-3.421,1.858c-7.6,2.539-19.24,4-31.928,4.013Zm-30-23.21c-2.539,3.174-4.473,12.231-4.492,12.321a3.384,3.384,0,0,0,.291,1.717,5.362,5.362,0,0,0,3.578,2.76c5.69,1.9,20.489,3.72,30.453,3.752l.023,0,.327.008.034-.011c9.957-.038,24.733-1.86,30.406-3.752a5.37,5.37,0,0,0,3.578-2.76,3.275,3.275,0,0,0,.291-1.717c-.019-.09-1.952-9.149-4.49-12.321-2.312-2.892-6.493-4.355-12.427-4.355h-.25a12.826,12.826,0,0,0-3.385.325c-6.021,2.983-9.877,4.168-13.754,4.229l-.006-.005-.232.007h-.032c-3.909-.041-7.792-1.229-13.854-4.23a12.829,12.829,0,0,0-3.386-.325h-.248C-3403.566-7189.215-3407.75-7187.752-3410.06-7184.86Zm-17.212-2.873a4.974,4.974,0,0,1-1.713-.93,3.065,3.065,0,0,1-.792-1.059,2.456,2.456,0,0,1-.214-1.225h0c.01-.057.274-1.391.735-2.97a14.767,14.767,0,0,1,1.981-4.527c1.556-1.945,4.56-2.355,6.805-2.355a18.656,18.656,0,0,1,2.833.211h0c.034.023,3.722,2.121,6.384,2.144,2.654-.023,6.35-2.121,6.385-2.144h0a18.656,18.656,0,0,1,2.832-.211c2.246,0,5.251.41,6.807,2.355a12.494,12.494,0,0,1,1.7,3.631c-.488-.095-1.017-.186-1.577-.267a8.678,8.678,0,0,0-1.134-2.263c-1.159-1.446-3.251-2.182-6.221-2.182h-.125a6.432,6.432,0,0,0-1.7.164c-3.013,1.492-4.945,2.085-6.886,2.118l0,0-.117,0h-.015c-1.956-.021-3.9-.614-6.936-2.118a6.431,6.431,0,0,0-1.7-.164h-.125c-2.97,0-5.062.735-6.221,2.182-1.27,1.59-2.238,6.123-2.248,6.168a1.684,1.684,0,0,0,.146.86,2.683,2.683,0,0,0,1.792,1.382,48.406,48.406,0,0,0,8.646,1.494c-.28.449-.552.92-.785,1.355A40.839,40.839,0,0,1-3427.271-7187.733Zm85.466.265a47.387,47.387,0,0,0,8.384-1.465,2.683,2.683,0,0,0,1.788-1.382,1.6,1.6,0,0,0,.146-.86c-.009-.046-.977-4.581-2.248-6.168-1.157-1.446-3.248-2.182-6.221-2.182h-.125a6.409,6.409,0,0,0-1.694.164c-3.015,1.492-4.947,2.085-6.887,2.118l0,0-.117,0h-.017c-1.957-.021-3.9-.614-6.936-2.118a6.425,6.425,0,0,0-1.694-.164h-.125c-2.972,0-5.064.735-6.223,2.182a8.732,8.732,0,0,0-1.149,2.308c-.565.087-1.094.181-1.582.284a12.7,12.7,0,0,1,1.726-3.694c1.556-1.945,4.559-2.355,6.805-2.355a18.714,18.714,0,0,1,2.833.211h0c.038.023,3.724,2.121,6.385,2.144,2.531-.023,6.015-1.934,6.357-2.129l.034-.017a18.744,18.744,0,0,1,2.83-.21c2.246,0,5.25.41,6.805,2.355a14.7,14.7,0,0,1,1.981,4.527c.422,1.444.69,2.726.737,2.97h0a2.477,2.477,0,0,1-.214,1.225,3.06,3.06,0,0,1-.792,1.059,4.95,4.95,0,0,1-1.712.93,40.43,40.43,0,0,1-8.289,1.622C-3341.251-7186.55-3341.526-7187.019-3341.805-7187.468Zm-50.446-15.306a17.008,17.008,0,0,1-5.015-12.108,17,17,0,0,1,5.015-12.1,17.01,17.01,0,0,1,12.105-5.015,17,17,0,0,1,12.1,5.015,17,17,0,0,1,5.015,12.1,17.009,17.009,0,0,1-5.015,12.108,17.011,17.011,0,0,1-12.1,5.013A17.021,17.021,0,0,1-3392.251-7202.774Zm-2.868-12.157a15.023,15.023,0,0,0,15.007,15.005,15.021,15.021,0,0,0,15.006-15.005,15.022,15.022,0,0,0-15.006-15.005A15.024,15.024,0,0,0-3395.118-7214.931Zm40.26,8.618a8.517,8.517,0,0,1-2.51-6.061,8.52,8.52,0,0,1,2.51-6.061,8.522,8.522,0,0,1,6.06-2.51,8.513,8.513,0,0,1,6.061,2.51,8.519,8.519,0,0,1,2.51,6.061,8.517,8.517,0,0,1-2.51,6.061,8.513,8.513,0,0,1-6.061,2.51A8.519,8.519,0,0,1-3354.858-7206.313Zm-1.433-6.085a7.518,7.518,0,0,0,7.51,7.512,7.521,7.521,0,0,0,7.514-7.512,7.522,7.522,0,0,0-7.514-7.512A7.519,7.519,0,0,0-3356.291-7212.4Zm-61.056,6.085a8.517,8.517,0,0,1-2.51-6.061,8.52,8.52,0,0,1,2.51-6.061,8.518,8.518,0,0,1,6.06-2.51,8.511,8.511,0,0,1,6.059,2.51,8.513,8.513,0,0,1,2.512,6.061,8.511,8.511,0,0,1-2.512,6.061,8.509,8.509,0,0,1-6.059,2.51A8.516,8.516,0,0,1-3417.347-7206.313Zm-1.435-6.085a7.519,7.519,0,0,0,7.512,7.512,7.519,7.519,0,0,0,7.512-7.512,7.52,7.52,0,0,0-7.512-7.512A7.52,7.52,0,0,0-3418.782-7212.4Z" transform="translate(3430 7247.001)"/></g></svg>