<svg xmlns="http://www.w3.org/2000/svg" xmlns:xlink="http://www.w3.org/1999/xlink" width="100" height="100" viewBox="0 0 100 100"><defs><clipPath id="b"><rect width="100" height="100"/></clipPath></defs><g id="a" clip-path="url(#b)"><path d="M-3039.2-7328.227h-.108c-16.191-.017-31.042-1.882-40.743-5.122a12.662,12.662,0,0,1-4.366-2.372,7.764,7.764,0,0,1-2.018-2.7,6.312,6.312,0,0,1-.545-3.124l0-.005c.028-.142.7-3.547,1.876-7.568,1.1-3.757,2.863-8.81,5.051-11.542,3.967-4.959,11.622-6,17.347-6a47.8,47.8,0,0,1,7.219.538l.011,0c.089.054,9.489,5.4,16.273,5.46,6.763-.058,16.186-5.406,16.275-5.46l.011,0a47.805,47.805,0,0,1,7.22-.538c5.723,0,13.38,1.041,17.347,6,2.186,2.731,3.954,7.784,5.051,11.542,1.076,3.681,1.754,6.95,1.878,7.568v.005a6.387,6.387,0,0,1-.547,3.124,7.724,7.724,0,0,1-2.016,2.7,12.675,12.675,0,0,1-4.366,2.372c-9.7,3.239-24.552,5.1-40.743,5.122Zm-15.556-52.479a21.71,21.71,0,0,1-6.4-15.448,21.708,21.708,0,0,1,6.4-15.448,21.718,21.718,0,0,1,15.448-6.4,21.7,21.7,0,0,1,15.446,6.4,21.707,21.707,0,0,1,6.4,15.448,21.71,21.71,0,0,1-6.4,15.448,21.7,21.7,0,0,1-15.446,6.4A21.718,21.718,0,0,1-3054.752-7380.706Zm63.647,4.567-7.16-7.162-7.16,7.162a2.25,2.25,0,0,1-3.182,0,2.25,2.25,0,0,1,0-3.184l7.16-7.16-7.16-7.162a2.25,2.25,0,0,1,0-3.182,2.254,2.254,0,0,1,3.183,0l7.16,7.162,7.16-7.16a2.252,2.252,0,0,1,3.183,0,2.25,2.25,0,0,1,0,3.184l-7.158,7.158,7.16,7.162a2.252,2.252,0,0,1,0,3.184,2.239,2.239,0,0,1-1.59.659A2.244,2.244,0,0,1-2991.1-7376.139Z" transform="translate(3087.137 7423)"/></g></svg>