<svg xmlns="http://www.w3.org/2000/svg" xmlns:xlink="http://www.w3.org/1999/xlink" width="100" height="100" viewBox="0 0 100 100"><defs><clipPath id="b"><rect width="100" height="100"/></clipPath></defs><g id="a" clip-path="url(#b)"><path d="M-3903.249-7166.68c-12.472-.016-23.906-1.458-31.38-3.953a9.777,9.777,0,0,1-3.372-1.833,5.976,5.976,0,0,1-1.558-2.081,4.888,4.888,0,0,1-.421-2.412l0,0c.022-.111.541-2.738,1.449-5.846.846-2.9,2.212-6.8,3.9-8.911a9.386,9.386,0,0,1,.657-.735,12.891,12.891,0,0,1,1.048-.906c3.245-2.428,7.99-2.993,11.69-2.993a36.579,36.579,0,0,1,5.573.416h.009c.069.042,7.329,4.173,12.567,4.218,5.221-.045,12.5-4.177,12.567-4.218h.009a36.17,36.17,0,0,1,4.929-.411v2.508h-.43a12.66,12.66,0,0,0-3.338.321c-5.933,2.938-9.732,4.108-13.553,4.166l-.005-.005-.231.007h-.031c-3.852-.04-7.678-1.209-13.651-4.167a12.667,12.667,0,0,0-3.336-.321h-.245c-5.847,0-9.968,1.443-12.245,4.291-2.5,3.127-4.407,12.053-4.426,12.142a3.327,3.327,0,0,0,.287,1.693,5.283,5.283,0,0,0,3.525,2.718c5.608,1.871,20.19,3.667,30.01,3.7l.022.006.323.005.033-.011c9.81-.036,24.373-1.832,29.962-3.7a5.384,5.384,0,0,0,3.47-2.6c.289.144.579.283.866.417.356.167,1.395.576,1.894.781a5.994,5.994,0,0,1-1.489,1.931,9.767,9.767,0,0,1-3.37,1.833c-7.4,2.47-18.668,3.906-30.985,3.953Zm40.315-9.394c-.77-.272-1.689-.657-2.653-1.109a49.062,49.062,0,0,1-7.137-4.132,30.607,30.607,0,0,1-6.756-6.24,12.9,12.9,0,0,1-3-7.812v-28.339a1.059,1.059,0,0,1,1.01-1.051h.042l11.1.578a20.5,20.5,0,0,1,2.875.265,13.424,13.424,0,0,1,3.687,1.063l.131.06.042.02a.548.548,0,0,0,.055.025l.013.007.011,0a5.456,5.456,0,0,0,2.069.687,5.457,5.457,0,0,0,2.068-.687l.011,0h0l.08-.038.045-.022.111-.051a13.444,13.444,0,0,1,3.69-1.062,20.458,20.458,0,0,1,2.875-.265l11.1-.578h.042a1.061,1.061,0,0,1,1.011,1.051v28.339a12.918,12.918,0,0,1-3,7.812,30.645,30.645,0,0,1-6.756,6.24,48.959,48.959,0,0,1-7.135,4.132c-.981.459-1.9.842-2.655,1.109a5.773,5.773,0,0,1-1.482.387A5.789,5.789,0,0,1-3862.934-7176.074Zm-16.2-43.889v23.822a10.841,10.841,0,0,0,2.524,6.568,25.683,25.683,0,0,0,5.679,5.243,40.98,40.98,0,0,0,6,3.474c.83.389,1.6.71,2.23.936a4.868,4.868,0,0,0,1.246.323,4.87,4.87,0,0,0,1.246-.323c.639-.227,1.411-.55,2.232-.936a41.055,41.055,0,0,0,6-3.474,25.728,25.728,0,0,0,5.678-5.243,10.861,10.861,0,0,0,2.524-6.568v-23.822a.89.89,0,0,0-.85-.882h-.034l-9.327.486a17.087,17.087,0,0,0-2.419.222,11.372,11.372,0,0,0-3.1.894l-.009.005-.083.038-.107.049-.006.005a4.671,4.671,0,0,1-1.743.578,4.641,4.641,0,0,1-1.747-.582l-.2-.094a11.4,11.4,0,0,0-3.1-.894,17.067,17.067,0,0,0-2.417-.222l-9.329-.486h-.034A.888.888,0,0,0-3879.129-7219.963ZM-3915.1-7207.2a16.765,16.765,0,0,1-4.939-11.929,16.764,16.764,0,0,1,4.939-11.93,16.77,16.77,0,0,1,11.929-4.939,16.759,16.759,0,0,1,11.927,4.939,16.766,16.766,0,0,1,4.941,11.93,16.767,16.767,0,0,1-4.941,11.929,16.756,16.756,0,0,1-11.927,4.939A16.766,16.766,0,0,1-3915.1-7207.2Zm-2.824-11.979a14.8,14.8,0,0,0,14.788,14.786,14.8,14.8,0,0,0,14.786-14.786,14.8,14.8,0,0,0-14.786-14.786A14.8,14.8,0,0,0-3917.922-7219.181Z" transform="translate(3940.137 7251.221)"/></g></svg>