<svg xmlns="http://www.w3.org/2000/svg" xmlns:xlink="http://www.w3.org/1999/xlink" width="100" height="100" viewBox="0 0 100 100"><defs><clipPath id="b"><rect width="100" height="100"/></clipPath></defs><g id="a" clip-path="url(#b)"><path d="M-3722.195-7142.227h-.109c-16.191-.017-31.042-1.882-40.743-5.12a12.644,12.644,0,0,1-4.365-2.374,7.726,7.726,0,0,1-2.018-2.7,6.274,6.274,0,0,1-.544-3.122l0-.005c.027-.143.7-3.546,1.875-7.568,1.1-3.757,2.864-8.808,5.051-11.543,3.968-4.958,11.623-6,17.348-6a47.85,47.85,0,0,1,7.218.538h.011c.091.055,9.49,5.405,16.275,5.461,6.761-.056,16.184-5.407,16.273-5.461h.013a47.882,47.882,0,0,1,7.218-.538c5.725,0,13.38,1.042,17.348,6,2.185,2.731,3.953,7.785,5.051,11.543,1.074,3.679,1.751,6.95,1.877,7.568v.005a6.353,6.353,0,0,1-.546,3.122,7.686,7.686,0,0,1-2.016,2.7,12.646,12.646,0,0,1-4.365,2.374c-9.7,3.238-24.551,5.1-40.743,5.12Zm-38.284-29.617c-3.24,4.049-5.706,15.607-5.73,15.723a4.307,4.307,0,0,0,.372,2.191c.488,1.1,1.677,2.6,4.565,3.521,7.262,2.421,26.147,4.746,38.863,4.788l.027.007.417.007.044-.014c12.7-.047,31.563-2.374,38.8-4.788,2.888-.917,4.076-2.421,4.565-3.521a4.169,4.169,0,0,0,.372-2.191c-.024-.116-2.492-11.678-5.73-15.723-2.949-3.688-8.285-5.56-15.858-5.56h-.318a16.336,16.336,0,0,0-4.32.417c-7.683,3.8-12.605,5.318-17.553,5.395l-.007-.007-.3.011h-.04c-4.988-.054-9.944-1.566-17.678-5.4a16.356,16.356,0,0,0-4.322-.417h-.316C-3752.193-7177.4-3757.527-7175.532-3760.478-7171.844Zm22.728-22.862a21.7,21.7,0,0,1-6.4-15.447,21.694,21.694,0,0,1,6.4-15.447,21.712,21.712,0,0,1,15.447-6.4,21.7,21.7,0,0,1,15.446,6.4,21.694,21.694,0,0,1,6.4,15.447,21.7,21.7,0,0,1-6.4,15.447,21.691,21.691,0,0,1-15.446,6.4A21.7,21.7,0,0,1-3737.751-7194.706Zm-3.659-15.511a19.171,19.171,0,0,0,19.15,19.148,19.171,19.171,0,0,0,19.15-19.148,19.17,19.17,0,0,0-19.15-19.148A19.17,19.17,0,0,0-3741.41-7210.217Zm44.273,11.984a2.251,2.251,0,0,1-2.25-2.249,2.252,2.252,0,0,1,2.25-2.252h24.753a2.251,2.251,0,0,1,2.252,2.252,2.25,2.25,0,0,1-2.252,2.249Z" transform="translate(3770.137 7237)"/></g></svg>