<svg xmlns="http://www.w3.org/2000/svg" xmlns:xlink="http://www.w3.org/1999/xlink" width="100" height="100" viewBox="0 0 100 100"><defs><clipPath id="b"><rect width="100" height="100"/></clipPath></defs><g id="a" clip-path="url(#b)"><path d="M12.376,27V2.251a2.251,2.251,0,1,1,4.5,0V27a2.251,2.251,0,0,1-4.5,0Z" transform="translate(100.004 21.89) rotate(90)"/><path d="M-2872.085-7146.229h-.219c-16.19-.016-31.041-1.882-40.742-5.121a12.639,12.639,0,0,1-4.365-2.373,7.725,7.725,0,0,1-2.017-2.7,6.291,6.291,0,0,1-.546-3.123l0-.005c.028-.143.7-3.546,1.876-7.568,1.1-3.756,2.864-8.809,5.051-11.542,3.967-4.959,11.623-6,17.348-6a47.843,47.843,0,0,1,7.219.537l.011,0c.09.054,9.49,5.4,16.275,5.461,6.762-.058,16.185-5.407,16.274-5.461l.011,0a47.863,47.863,0,0,1,7.219-.537c5.724,0,13.38,1.041,17.347,6,2.187,2.73,3.954,7.784,5.051,11.542,1.075,3.68,1.753,6.95,1.878,7.568v.005a6.362,6.362,0,0,1-.546,3.123,7.7,7.7,0,0,1-2.017,2.7,12.64,12.64,0,0,1-4.366,2.373C-2841.045-7148.11-2855.895-7146.244-2872.085-7146.229Zm-.219-46.082a21.712,21.712,0,0,1-15.447-6.4,21.707,21.707,0,0,1-6.4-15.449,21.7,21.7,0,0,1,6.4-15.447,21.711,21.711,0,0,1,15.447-6.4,21.7,21.7,0,0,1,15.447,6.4,21.7,21.7,0,0,1,6.4,15.447,21.707,21.707,0,0,1-6.4,15.449A21.7,21.7,0,0,1-2872.3-7192.31Z" transform="translate(2920.137 7241.001)" opacity="0.5"/></g></svg>