<svg xmlns="http://www.w3.org/2000/svg" xmlns:xlink="http://www.w3.org/1999/xlink" width="100" height="100" viewBox="0 0 100 100"><defs><clipPath id="b"><rect width="100" height="100"/></clipPath></defs><g id="a" clip-path="url(#b)"><path d="M-139.462,96.071a49.837,49.837,0,0,1-15.893-10.715,49.827,49.827,0,0,1-10.715-15.893A49.682,49.682,0,0,1-170,50a49.687,49.687,0,0,1,3.929-19.462,49.827,49.827,0,0,1,10.715-15.893A49.827,49.827,0,0,1-139.462,3.929,49.687,49.687,0,0,1-120,0a49.69,49.69,0,0,1,19.463,3.929A49.833,49.833,0,0,1-84.645,14.645,49.827,49.827,0,0,1-73.93,30.538,49.687,49.687,0,0,1-70,50,49.682,49.682,0,0,1-73.93,69.462,49.827,49.827,0,0,1-84.645,85.355a49.833,49.833,0,0,1-15.892,10.715A49.69,49.69,0,0,1-120,100,49.687,49.687,0,0,1-139.462,96.071ZM-164,50a44.05,44.05,0,0,0,44,44A44.049,44.049,0,0,0-76,50,44.05,44.05,0,0,0-120,6,44.05,44.05,0,0,0-164,50Z" transform="translate(170)"/><path d="M-4057-7324a43.824,43.824,0,0,1-23.32-6.7,44.264,44.264,0,0,1-15.935-17.433c.142-.2.285-.395.424-.569,3.757-4.7,11.009-5.681,16.431-5.681a45.229,45.229,0,0,1,6.84.509c.092.052,9.1,5.172,15.519,5.172,6.388,0,15.423-5.12,15.513-5.172a45.131,45.131,0,0,1,6.842-.509c5.422,0,12.674.985,16.431,5.681.157.2.316.41.473.638a44.271,44.271,0,0,1-15.932,17.384A43.824,43.824,0,0,1-4057-7324Zm-.041-37.632a20.553,20.553,0,0,1-14.629-6.058,20.548,20.548,0,0,1-6.058-14.626,20.547,20.547,0,0,1,6.058-14.625,20.553,20.553,0,0,1,14.629-6.058,20.55,20.55,0,0,1,14.626,6.058,20.547,20.547,0,0,1,6.059,14.625,20.548,20.548,0,0,1-6.059,14.626A20.549,20.549,0,0,1-4057.041-7361.633Z" transform="translate(4107 7418)" opacity="0.5"/></g></svg>