<svg xmlns="http://www.w3.org/2000/svg" xmlns:xlink="http://www.w3.org/1999/xlink" width="100" height="100" viewBox="0 0 100 100"><defs><clipPath id="b"><rect width="100" height="100"/></clipPath></defs><g id="a" clip-path="url(#b)"><path d="M-7613.484-119.459c-12.423,0-23.822-1.425-31.274-3.909-3.126-1.042-4.374-2.687-4.869-3.883a4.476,4.476,0,0,1-.331-2.371c.02-.106,2.06-10.67,5.2-14.6,3.029-3.785,8.876-4.58,13.247-4.58a36.133,36.133,0,0,1,5.518.411c.073.042,7.353,4.169,12.51,4.169,5.129,0,12.437-4.128,12.509-4.169a36.5,36.5,0,0,1,5.519-.411h.013v2.535a13,13,0,0,0,3.02,7.866,30.79,30.79,0,0,0,6.8,6.28,49.136,49.136,0,0,0,7.183,4.161c.4.189.8.367,1.179.529-.5,1.266-1.766,3-4.952,4.059C-7589.662-120.884-7601.061-119.459-7613.484-119.459Zm0-35.182a16.569,16.569,0,0,1-11.794-4.886,16.571,16.571,0,0,1-4.885-11.795,16.568,16.568,0,0,1,4.885-11.794A16.569,16.569,0,0,1-7613.484-188a16.568,16.568,0,0,1,11.793,4.885,16.569,16.569,0,0,1,4.885,11.794,16.572,16.572,0,0,1-4.885,11.795A16.568,16.568,0,0,1-7613.484-154.641Z" transform="translate(7649.999 204)"/><path d="M-11319.833-672.6a5.776,5.776,0,0,1-1.493-.387c-.768-.273-1.692-.659-2.671-1.118a49.19,49.19,0,0,1-7.184-4.16,30.85,30.85,0,0,1-6.8-6.28,13,13,0,0,1-3.021-7.866v-28.53a1.065,1.065,0,0,1,1.016-1.057h.042l11.172.581a20.529,20.529,0,0,1,2.894.267,13.533,13.533,0,0,1,3.714,1.069l.24.113a5.56,5.56,0,0,0,2.094.7,5.552,5.552,0,0,0,2.093-.7h0l.238-.112a13.537,13.537,0,0,1,3.713-1.069,20.561,20.561,0,0,1,2.9-.267l11.169-.581h.043a1.065,1.065,0,0,1,1.018,1.057v28.53a13,13,0,0,1-3.023,7.866,30.793,30.793,0,0,1-6.8,6.28,49.132,49.132,0,0,1-7.182,4.16c-.981.459-1.905.846-2.672,1.118A5.791,5.791,0,0,1-11319.833-672.6Z" transform="translate(11398.66 748.084)" opacity="0.5"/></g></svg>