<svg xmlns="http://www.w3.org/2000/svg" xmlns:xlink="http://www.w3.org/1999/xlink" width="100" height="100" viewBox="0 0 100 100"><defs><clipPath id="b"><rect width="100" height="100"/></clipPath></defs><g id="a" clip-path="url(#b)"><path d="M-3209.194-7328.227h-.11c-16.191-.017-31.042-1.882-40.743-5.122a12.677,12.677,0,0,1-4.366-2.372,7.734,7.734,0,0,1-2.016-2.7,6.282,6.282,0,0,1-.545-3.124v-.005c.028-.142.7-3.547,1.876-7.568,1.1-3.757,2.865-8.81,5.051-11.542,3.967-4.959,11.622-6,17.347-6a47.8,47.8,0,0,1,7.219.538l.011,0c.089.054,9.491,5.4,16.275,5.46,6.761-.058,16.184-5.406,16.273-5.46l.011,0a47.83,47.83,0,0,1,7.22-.538c5.725,0,13.38,1.041,17.347,6,2.188,2.731,3.954,7.784,5.051,11.542,1.076,3.681,1.754,6.95,1.878,7.568v.005a6.374,6.374,0,0,1-.545,3.124,7.73,7.73,0,0,1-2.018,2.7,12.641,12.641,0,0,1-4.366,2.372c-9.7,3.239-24.552,5.1-40.743,5.122Zm-15.558-52.479a21.708,21.708,0,0,1-6.4-15.448,21.7,21.7,0,0,1,6.4-15.448,21.718,21.718,0,0,1,15.448-6.4,21.7,21.7,0,0,1,15.446,6.4,21.7,21.7,0,0,1,6.4,15.448,21.7,21.7,0,0,1-6.4,15.448,21.7,21.7,0,0,1-15.446,6.4A21.718,21.718,0,0,1-3224.752-7380.706Zm46.145,4.567c-.054-.056-.106-.112-.153-.169l-7.335-7.335a2.251,2.251,0,0,1,0-3.186,2.252,2.252,0,0,1,3.184,0l5.9,5.9,15.9-15.9a2.251,2.251,0,0,1,3.185,0,2.253,2.253,0,0,1,0,3.184l-17.33,17.328a1.818,1.818,0,0,1-.156.171,2.228,2.228,0,0,1-1.551.661l-.056,0A2.242,2.242,0,0,1-3178.607-7376.139Z" transform="translate(3257.137 7423)"/></g></svg>