<svg xmlns="http://www.w3.org/2000/svg" xmlns:xlink="http://www.w3.org/1999/xlink" width="100" height="100" viewBox="0 0 100 100"><defs><clipPath id="b"><rect width="100" height="100"/></clipPath></defs><g id="a" clip-path="url(#b)"><path d="M-3377.06-7347.648h-.085c-12.689-.014-24.327-1.476-31.929-4.014a9.889,9.889,0,0,1-3.42-1.859,6.041,6.041,0,0,1-1.58-2.113,4.944,4.944,0,0,1-.428-2.447l0,0c.021-.11.549-2.779,1.47-5.932.859-2.943,2.246-6.9,3.958-9.043,3.11-3.885,9.109-4.7,13.6-4.7a37.623,37.623,0,0,1,5.656.42h.01c.07.045,7.436,4.235,12.753,4.281,5.3-.046,12.683-4.236,12.752-4.281h.01a37.611,37.611,0,0,1,5.656-.42c4.487,0,10.486.816,13.594,4.7,1.714,2.139,3.1,6.1,3.959,9.043.842,2.885,1.373,5.447,1.472,5.932v0a4.986,4.986,0,0,1-.428,2.447,6.029,6.029,0,0,1-1.58,2.113,9.886,9.886,0,0,1-3.422,1.859c-7.6,2.538-19.239,4-31.927,4.014Zm-47.212-26.085a4.919,4.919,0,0,1-1.712-.929,3.011,3.011,0,0,1-.791-1.059,2.5,2.5,0,0,1-.215-1.225l0,0c.01-.056.273-1.39.735-2.968a14.868,14.868,0,0,1,1.982-4.53c1.557-1.945,4.56-2.354,6.806-2.354a18.834,18.834,0,0,1,2.833.211h0c.035.021,3.723,2.121,6.385,2.143,2.652-.021,6.35-2.121,6.385-2.143h0a18.838,18.838,0,0,1,2.833-.211c2.245,0,5.249.409,6.806,2.354a12.611,12.611,0,0,1,1.7,3.634,36.3,36.3,0,0,0-6.806-.64c-5.195,0-12.264,1.1-16.433,6.306a22.9,22.9,0,0,0-1.96,3.065A40.905,40.905,0,0,1-3424.272-7373.734Zm84.311-1.413c-4.171-5.21-11.24-6.306-16.435-6.306a36.129,36.129,0,0,0-7.11.7,12.764,12.764,0,0,1,1.726-3.694c1.557-1.945,4.561-2.354,6.806-2.354a18.826,18.826,0,0,1,2.833.211h0c.035.021,3.723,2.121,6.385,2.143,2.517-.021,5.972-1.91,6.352-2.123.013-.008.027-.013.039-.02a18.7,18.7,0,0,1,2.829-.211c2.247,0,5.251.409,6.806,2.354a14.752,14.752,0,0,1,1.981,4.53c.423,1.444.688,2.726.737,2.968v0a2.486,2.486,0,0,1-.213,1.225,3.062,3.062,0,0,1-.791,1.059,4.949,4.949,0,0,1-1.714.929,40.329,40.329,0,0,1-8.289,1.623A22.942,22.942,0,0,0-3339.962-7375.147Zm-49.289-13.627a17.007,17.007,0,0,1-5.014-12.107,17.006,17.006,0,0,1,5.014-12.1,17.014,17.014,0,0,1,12.105-5.015,17.008,17.008,0,0,1,12.1,5.015,17.013,17.013,0,0,1,5.014,12.1,17.014,17.014,0,0,1-5.014,12.107,17.005,17.005,0,0,1-12.1,5.012A17.012,17.012,0,0,1-3389.25-7388.774Zm37.393-3.539a8.512,8.512,0,0,1-2.511-6.061,8.517,8.517,0,0,1,2.511-6.06,8.516,8.516,0,0,1,6.061-2.509,8.51,8.51,0,0,1,6.06,2.509,8.518,8.518,0,0,1,2.511,6.06,8.513,8.513,0,0,1-2.511,6.061,8.508,8.508,0,0,1-6.06,2.511A8.515,8.515,0,0,1-3351.857-7392.313Zm-62.491,0a8.518,8.518,0,0,1-2.509-6.061,8.523,8.523,0,0,1,2.509-6.06,8.52,8.52,0,0,1,6.061-2.509,8.506,8.506,0,0,1,6.059,2.509,8.518,8.518,0,0,1,2.511,6.06,8.513,8.513,0,0,1-2.511,6.061,8.508,8.508,0,0,1-6.059,2.511A8.515,8.515,0,0,1-3414.349-7392.313Z" transform="translate(3427 7433.001)"/></g></svg>