<svg xmlns="http://www.w3.org/2000/svg" xmlns:xlink="http://www.w3.org/1999/xlink" width="100" height="100" viewBox="0 0 100 100"><defs><clipPath id="b"><rect width="100" height="100"/></clipPath></defs><g id="a" clip-path="url(#b)"><path d="M-7613.484-119.459c-12.423,0-23.822-1.425-31.274-3.909-3.126-1.042-4.374-2.687-4.869-3.883a4.476,4.476,0,0,1-.331-2.371c.02-.106,2.06-10.67,5.2-14.6,3.029-3.785,8.876-4.58,13.247-4.58a36.133,36.133,0,0,1,5.518.411c.073.042,7.353,4.169,12.51,4.169,5.129,0,12.437-4.128,12.509-4.169a36.5,36.5,0,0,1,5.519-.411h.013v2.535a13,13,0,0,0,3.02,7.866,30.79,30.79,0,0,0,6.8,6.28,49.136,49.136,0,0,0,7.183,4.161c.4.189.8.367,1.179.529-.5,1.266-1.766,3-4.952,4.059C-7589.662-120.884-7601.061-119.459-7613.484-119.459Zm0-35.182a16.569,16.569,0,0,1-11.794-4.886,16.571,16.571,0,0,1-4.885-11.795,16.568,16.568,0,0,1,4.885-11.794A16.569,16.569,0,0,1-7613.484-188a16.568,16.568,0,0,1,11.793,4.885,16.569,16.569,0,0,1,4.885,11.794,16.572,16.572,0,0,1-4.885,11.795A16.568,16.568,0,0,1-7613.484-154.641Z" transform="translate(7649.999 204)"/><path d="M-11319.976-672.933a5.735,5.735,0,0,1-1.482-.385c-.763-.271-1.681-.655-2.653-1.111a48.882,48.882,0,0,1-7.136-4.132A30.608,30.608,0,0,1-11338-684.8a12.915,12.915,0,0,1-3-7.813v-28.339A1.058,1.058,0,0,1-11340-722h.042l11.1.577a20.427,20.427,0,0,1,2.876.266,13.438,13.438,0,0,1,3.688,1.062l.239.112a5.51,5.51,0,0,0,2.079.691,5.5,5.5,0,0,0,2.078-.691h0l.237-.111a13.453,13.453,0,0,1,3.688-1.062,20.429,20.429,0,0,1,2.875-.266l11.1-.577h.041a1.058,1.058,0,0,1,1.011,1.05v28.339a12.917,12.917,0,0,1-3,7.813,30.624,30.624,0,0,1-6.757,6.238,48.787,48.787,0,0,1-7.135,4.132c-.974.456-1.891.84-2.653,1.111A5.763,5.763,0,0,1-11319.976-672.933Z" transform="translate(11398.66 748.468)" opacity="0.44"/></g></svg>