<svg xmlns="http://www.w3.org/2000/svg" xmlns:xlink="http://www.w3.org/1999/xlink" width="100" height="100" viewBox="0 0 100 100"><defs><clipPath id="b"><rect width="100" height="100"/></clipPath></defs><g id="a" clip-path="url(#b)"><path d="M-4076.462-7321.931a49.818,49.818,0,0,1-15.893-10.714,49.81,49.81,0,0,1-10.716-15.893A49.671,49.671,0,0,1-4107-7368a49.671,49.671,0,0,1,3.93-19.462,49.767,49.767,0,0,1,10.716-15.893,49.8,49.8,0,0,1,15.893-10.716A49.662,49.662,0,0,1-4057-7418a49.664,49.664,0,0,1,19.462,3.93,49.846,49.846,0,0,1,15.893,10.716,49.831,49.831,0,0,1,10.716,15.893A49.7,49.7,0,0,1-4007-7368a49.7,49.7,0,0,1-3.928,19.462,49.874,49.874,0,0,1-10.716,15.893,49.84,49.84,0,0,1-15.893,10.714A49.664,49.664,0,0,1-4057-7318,49.662,49.662,0,0,1-4076.462-7321.931Zm19.712-2.071h0Zm-.5,0h0Zm.773,0h0Zm-1.049,0h0Zm1.327,0,.121,0Zm-1.6,0-.121,0Zm24.09-6.674a43.812,43.812,0,0,1-22.257,6.669,43.762,43.762,0,0,0,24.74-8.344Q-4032.44-7331.479-4033.712-7330.682Zm-24.32,6.669a43.851,43.851,0,0,1-18.877-4.755A43.715,43.715,0,0,0-4058.032-7324.013Zm-18.949-4.792-.078-.04Zm-.256-.132-.018-.009Zm46.012-3.422c.13-.095.259-.189.388-.285Q-4031.031-7332.5-4031.226-7332.359Zm.493-.363.072-.053Zm.458-.346.011-.008Zm10.89-12.125.011-.018Zm.125-.206.024-.041Zm.135-.227.055-.094Zm.108-.183.07-.12Zm.072-.123c.061-.1.122-.21.181-.315Q-4018.854-7346.089-4018.945-7345.933Zm.69-2.771c.156.2.316.41.473.638q-.468.917-.976,1.808A43.729,43.729,0,0,0-4013-7368a44.05,44.05,0,0,0-44-44,44.051,44.051,0,0,0-44,44,43.73,43.73,0,0,0,4.746,19.866c.142-.2.285-.395.424-.569,3.757-4.7,11.01-5.682,16.431-5.682a45.211,45.211,0,0,1,6.84.51c.093.052,9.1,5.172,15.519,5.172,6.389,0,15.422-5.12,15.513-5.172a45.122,45.122,0,0,1,6.842-.51C-4029.263-7354.385-4022.011-7353.4-4018.255-7348.7Zm-53.415-18.987a20.552,20.552,0,0,1-6.058-14.627,20.548,20.548,0,0,1,6.058-14.625,20.561,20.561,0,0,1,14.629-6.058,20.549,20.549,0,0,1,14.625,6.058,20.549,20.549,0,0,1,6.06,14.625,20.549,20.549,0,0,1-6.06,14.627,20.548,20.548,0,0,1-14.625,6.058A20.561,20.561,0,0,1-4071.67-7367.69Z" transform="translate(4107 7418)"/></g></svg>