<svg xmlns="http://www.w3.org/2000/svg" xmlns:xlink="http://www.w3.org/1999/xlink" width="100" height="100" viewBox="0 0 100 100"><defs><clipPath id="b"><rect width="100" height="100"/></clipPath></defs><g id="a" clip-path="url(#b)"><path d="M-4079.461-7135.929a49.835,49.835,0,0,1-15.894-10.716,49.806,49.806,0,0,1-10.716-15.894A49.657,49.657,0,0,1-4110-7182a49.667,49.667,0,0,1,3.93-19.462,49.8,49.8,0,0,1,10.716-15.894,49.835,49.835,0,0,1,15.894-10.716A49.7,49.7,0,0,1-4060-7232a49.706,49.706,0,0,1,19.462,3.93,49.841,49.841,0,0,1,15.892,10.716,49.837,49.837,0,0,1,10.716,15.894A49.7,49.7,0,0,1-4010-7182a49.692,49.692,0,0,1-3.929,19.46,49.842,49.842,0,0,1-10.716,15.894,49.841,49.841,0,0,1-15.892,10.716A49.706,49.706,0,0,1-4060-7132,49.7,49.7,0,0,1-4079.461-7135.929ZM-4060-7138a43.966,43.966,0,0,0,35.541-18.089,12.661,12.661,0,0,0-1.446-2.422c-2.623-3.282-7.367-4.944-14.1-4.944h-.283a14.5,14.5,0,0,0-3.841.372c-6.83,3.383-11.2,4.728-15.605,4.8l-.006-.007-.265.009h-.036c-4.434-.047-8.841-1.392-15.716-4.8a14.507,14.507,0,0,0-3.84-.372h-.281c-6.734,0-11.478,1.663-14.1,4.944a12.99,12.99,0,0,0-1.492,2.521h0A43.967,43.967,0,0,0-4060-7138Zm36.008-18.74.031-.044Zm-72.018,0-.119-.169C-4096.089-7156.855-4096.05-7156.8-4096.01-7156.742Zm72.141-.173.07-.1ZM-4104-7182a43.746,43.746,0,0,0,7.859,25.069c-.483-.695-.949-1.407-1.39-2.126a13.641,13.641,0,0,1,1.272-1.955c3.529-4.41,10.335-5.336,15.424-5.336a42.6,42.6,0,0,1,6.416.479h.011c.078.049,8.452,4.806,14.467,4.857,5.973-.051,14.391-4.808,14.469-4.857h.011a42.448,42.448,0,0,1,6.418-.479c5.089,0,11.894.926,15.422,5.336a13.381,13.381,0,0,1,1.216,1.852c-.432.708-.887,1.409-1.36,2.1A43.751,43.751,0,0,0-4016-7182a44.051,44.051,0,0,0-44-44A44.052,44.052,0,0,0-4104-7182Zm30.23,3.16a19.3,19.3,0,0,1-5.69-13.738,19.294,19.294,0,0,1,5.69-13.732,19.29,19.29,0,0,1,13.732-5.69,19.282,19.282,0,0,1,13.732,5.69,19.293,19.293,0,0,1,5.688,13.732,19.3,19.3,0,0,1-5.688,13.738,19.288,19.288,0,0,1-13.732,5.688A19.294,19.294,0,0,1-4073.77-7178.839Zm-3.252-13.792A17.044,17.044,0,0,0-4060-7175.6a17.044,17.044,0,0,0,17.025-17.026A17.044,17.044,0,0,0-4060-7209.658,17.044,17.044,0,0,0-4077.022-7192.631Z" transform="translate(4110 7232)"/></g></svg>