<svg xmlns="http://www.w3.org/2000/svg" xmlns:xlink="http://www.w3.org/1999/xlink" width="100" height="100" viewBox="0 0 100 100"><defs><clipPath id="b"><rect width="100" height="100"/></clipPath></defs><g id="a" clip-path="url(#b)"><path d="M-7741.764-816.735a4.239,4.239,0,0,1-3.51-1.888,4.148,4.148,0,0,1-.6-3.142,4.147,4.147,0,0,1,1.8-2.644,40.314,40.314,0,0,0,18.278-33.785,40.192,40.192,0,0,0-6.708-22.291l6.012-6.012a48.478,48.478,0,0,1,6.71,13.332,48.72,48.72,0,0,1,2.347,14.97,48.653,48.653,0,0,1-22.052,40.774A4.143,4.143,0,0,1-7741.764-816.735Zm-30.918-7.246a3.908,3.908,0,0,1-2.733-1.111l-6.392-6.088,13.153-13.154v16.346a3.928,3.928,0,0,1-1.242,2.9A4.121,4.121,0,0,1-7772.682-823.981Zm21.649-6.573a4.188,4.188,0,0,1-3.522-1.942,4.2,4.2,0,0,1,1.279-5.763A23.571,23.571,0,0,0-7742.31-858.2a23.406,23.406,0,0,0-2.3-10.182l6.135-6.135a31.974,31.974,0,0,1,4.458,16.316,31.893,31.893,0,0,1-14.816,26.988A4.027,4.027,0,0,1-7751.033-830.554Zm-46.822-8.1v0h-13.8a5.006,5.006,0,0,1-5-5v-30a5.005,5.005,0,0,1,5-5h22l14.241-13.564a3.907,3.907,0,0,1,2.734-1.112,4.12,4.12,0,0,1,2.786,1.1,3.933,3.933,0,0,1,1.241,2.906v21.467l-29.2,29.2Zm37.353-5.751a4.154,4.154,0,0,1-3.638-2.147,4.1,4.1,0,0,1-.508-1.789l13.579-13.579a15.01,15.01,0,0,1,.47,3.721,15.19,15.19,0,0,1-7.907,13.279A4.136,4.136,0,0,1-7760.5-844.4Zm5.316-36.919v0a4.162,4.162,0,0,1,.631-2.572,4.116,4.116,0,0,1,3.5-1.939c.12,0,.242.005.362.016l-4.5,4.5Zm10.846-10.846h0a4.168,4.168,0,0,1-1.56-2.606,4.164,4.164,0,0,1,.626-2.993,4.169,4.169,0,0,1,3.5-1.887,4.167,4.167,0,0,1,2.291.686c.389.255.779.52,1.161.786l-6.014,6.014Z" transform="translate(7816.655 908.655)"/><path d="M6.195,0H128.851c3.421,0,6.195,2.239,6.195,5s-2.773,5-6.195,5H6.195C2.773,10,0,7.761,0,5S2.773,0,6.195,0Z" transform="translate(-1 94.491) rotate(-45)" opacity="0.5"/></g></svg>