<svg xmlns="http://www.w3.org/2000/svg" xmlns:xlink="http://www.w3.org/1999/xlink" width="100" height="100" viewBox="0 0 100 100"><defs><clipPath id="b"><rect width="100" height="100"/></clipPath></defs><g id="a" clip-path="url(#b)"><path d="M-5255.759-10869.763l-14.24-13.562h-22a5,5,0,0,1-5-5v-30a5,5,0,0,1,5-5h22l14.24-13.562a4,4,0,0,1,6.759,2.9v61.332a4,4,0,0,1-4.027,4.009A3.921,3.921,0,0,1-5255.759-10869.763Zm16.758-30.564a3,3,0,0,1-3-3,3,3,0,0,1,3-3h39a3,3,0,0,1,3,3,3,3,0,0,1-3,3Z" transform="translate(5297 10953.326)"/></g></svg>