<svg xmlns="http://www.w3.org/2000/svg" xmlns:xlink="http://www.w3.org/1999/xlink" width="100" height="100" viewBox="0 0 100 100"><defs><clipPath id="b"><rect width="100" height="100"/></clipPath></defs><g id="a" clip-path="url(#b)"><path d="M-4405.759-10869.763l-14.241-13.562h-22a5,5,0,0,1-5-5v-30a5,5,0,0,1,5-5h22l14.241-13.562a4,4,0,0,1,6.759,2.9v61.332a4,4,0,0,1-4.027,4.009A3.92,3.92,0,0,1-4405.759-10869.763Zm20.859-7.4a4.2,4.2,0,0,1,1.279-5.763,23.571,23.571,0,0,0,10.965-19.937,23.578,23.578,0,0,0-10.965-19.939,4.2,4.2,0,0,1-1.279-5.763,4.13,4.13,0,0,1,5.721-1.287,31.9,31.9,0,0,1,14.817,26.989,31.9,31.9,0,0,1-14.817,26.99,4.046,4.046,0,0,1-2.2.653A4.208,4.208,0,0,1-4384.9-10877.167Zm-9.584-14.054a4.149,4.149,0,0,1,1.633-5.634,6.9,6.9,0,0,0,3.613-6.013,6.9,6.9,0,0,0-3.616-6.015,4.143,4.143,0,0,1-1.63-5.631,4.157,4.157,0,0,1,5.63-1.634,15.183,15.183,0,0,1,7.91,13.277,15.191,15.191,0,0,1-7.907,13.279,4.134,4.134,0,0,1-2,.514A4.15,4.15,0,0,1-4394.483-10891.221Z" transform="translate(4447 10953.326)"/></g></svg>