<svg xmlns="http://www.w3.org/2000/svg" xmlns:xlink="http://www.w3.org/1999/xlink" width="100" height="100" viewBox="0 0 100 100"><defs><clipPath id="b"><rect width="100" height="100"/></clipPath></defs><g id="a" clip-path="url(#b)"><path d="M-4405.758-10505.763l-14.243-13.563h-22a5,5,0,0,1-5-5v-30a5,5,0,0,1,5-5h22l14.243-13.565a3.9,3.9,0,0,1,2.733-1.112,4.125,4.125,0,0,1,2.784,1.1,3.936,3.936,0,0,1,1.242,2.905v61.336a3.939,3.939,0,0,1-1.242,2.906,4.122,4.122,0,0,1-2.787,1.1A3.906,3.906,0,0,1-4405.758-10505.763Zm-36.242-46.063v25a2.5,2.5,0,0,0,2.5,2.5h21.02l12.786,12.361a.985.985,0,0,0,.69.284,1,1,0,0,0,1-1v-53.289a.994.994,0,0,0-1.006-1,.98.98,0,0,0-.687.281l-12.788,12.363H-4439.5A2.5,2.5,0,0,0-4442-10551.826Zm57.1,38.659a4.2,4.2,0,0,1,1.279-5.764,23.565,23.565,0,0,0,10.968-19.937,23.571,23.571,0,0,0-10.968-19.937,4.2,4.2,0,0,1-1.279-5.764,4.128,4.128,0,0,1,5.721-1.287,31.9,31.9,0,0,1,14.816,26.988,31.9,31.9,0,0,1-14.816,26.991,4.058,4.058,0,0,1-2.2.652A4.2,4.2,0,0,1-4384.9-10513.167Zm-9.583-14.054a4.149,4.149,0,0,1,1.632-5.634,6.893,6.893,0,0,0,3.612-6.014,6.9,6.9,0,0,0-3.614-6.014,4.146,4.146,0,0,1-1.632-5.631,4.164,4.164,0,0,1,5.634-1.635,15.188,15.188,0,0,1,7.908,13.279,15.188,15.188,0,0,1-7.908,13.279,4.133,4.133,0,0,1-2,.514A4.143,4.143,0,0,1-4394.482-10527.221Z" transform="translate(4447 10589.326)"/></g></svg>