<svg xmlns="http://www.w3.org/2000/svg" xmlns:xlink="http://www.w3.org/1999/xlink" width="100" height="100" viewBox="0 0 100 100"><defs><clipPath id="b"><rect width="100" height="100"/></clipPath></defs><g id="a" clip-path="url(#b)"><path d="M-5085.758-10869.763l-14.243-13.562h-22a5,5,0,0,1-5-5v-30a5,5,0,0,1,5-5h22l14.243-13.562a4,4,0,0,1,6.759,2.9v61.332a4,4,0,0,1-4.027,4.009A3.917,3.917,0,0,1-5085.758-10869.763Zm33.258-14.064v-16.5H-5069a3,3,0,0,1-3-3,3,3,0,0,1,3-3h16.5v-16.5a3,3,0,0,1,3-3,3,3,0,0,1,3,3v16.5h16.5a3,3,0,0,1,3,3,3,3,0,0,1-3,3h-16.5v16.5a3,3,0,0,1-3,3A3,3,0,0,1-5052.5-10883.827Z" transform="translate(5127 10953.326)"/></g></svg>