<svg xmlns="http://www.w3.org/2000/svg" xmlns:xlink="http://www.w3.org/1999/xlink" width="100" height="100" viewBox="0 0 100 100"><defs><clipPath id="b"><rect width="100" height="100"/></clipPath></defs><g id="a" clip-path="url(#b)"><path d="M-5255.759-10505.763l-14.24-13.563h-22a5.007,5.007,0,0,1-5-5v-30a5.006,5.006,0,0,1,5-5h22l14.24-13.565a3.9,3.9,0,0,1,2.733-1.112,4.132,4.132,0,0,1,2.787,1.1,3.936,3.936,0,0,1,1.242,2.905v61.336a3.942,3.942,0,0,1-1.245,2.906,4.121,4.121,0,0,1-2.784,1.1A3.912,3.912,0,0,1-5255.759-10505.763Zm-36.239-46.063v25a2.5,2.5,0,0,0,2.5,2.5h21.02l12.783,12.361a.985.985,0,0,0,.69.284,1,1,0,0,0,1-1v-53.289a.992.992,0,0,0-1.005-1,.979.979,0,0,0-.687.281l-12.786,12.363H-5289.5A2.5,2.5,0,0,0-5292-10551.826Zm53,15.5a3,3,0,0,1-3-3,3,3,0,0,1,3-3h39a3,3,0,0,1,3,3,3,3,0,0,1-3,3Z" transform="translate(5297 10589.326)"/></g></svg>