<svg xmlns="http://www.w3.org/2000/svg" xmlns:xlink="http://www.w3.org/1999/xlink" width="100" height="100" viewBox="0 0 100 100"><defs><clipPath id="b"><rect width="100" height="100"/></clipPath></defs><g id="a" clip-path="url(#b)"><path d="M-4942.354-10682.461a4,4,0,0,1,0-5.657l65.053-65.054a4,4,0,0,1,5.657,0,4,4,0,0,1,0,5.657l-65.053,65.054a3.99,3.99,0,0,1-2.83,1.172A3.983,3.983,0,0,1-4942.354-10682.461Zm26.594-1.792-6.907-6.58L-4909-10704.5v17.353a3.928,3.928,0,0,1-1.242,2.9,4.114,4.114,0,0,1-2.785,1.1A3.91,3.91,0,0,1-4915.761-10684.253Zm-36.238-13.561a5.008,5.008,0,0,1-5-5v-30a5.006,5.006,0,0,1,5-5h22l14.237-13.562a3.909,3.909,0,0,1,2.734-1.112,4.118,4.118,0,0,1,2.785,1.1,3.922,3.922,0,0,1,1.242,2.9v21.353l-29.317,29.317Z" transform="translate(4957 10767.816)"/><path d="M-4888.267-10670.24a4.243,4.243,0,0,1-3.511-1.889,4.141,4.141,0,0,1-.6-3.138,4.151,4.151,0,0,1,1.8-2.648,40.308,40.308,0,0,0,18.279-33.784,40.139,40.139,0,0,0-7.115-22.893l4.438-4.438a8.012,8.012,0,0,0,1.363-1.817,48.443,48.443,0,0,1,7.165,13.68,48.681,48.681,0,0,1,2.511,15.467,48.654,48.654,0,0,1-22.052,40.773A4.13,4.13,0,0,1-4888.267-10670.24Zm-9.271-13.818a4.191,4.191,0,0,1-3.522-1.942,4.2,4.2,0,0,1,1.279-5.762,23.573,23.573,0,0,0,10.968-19.938,23.674,23.674,0,0,0-2.637-10.854l6.088-6.089a31.925,31.925,0,0,1,4.84,16.942,31.888,31.888,0,0,1-14.816,26.988A4.088,4.088,0,0,1-4897.538-10684.059Zm-9.47-13.851a4.152,4.152,0,0,1-3.635-2.146,4.146,4.146,0,0,1-.417-2.89l13.264-13.264a14.962,14.962,0,0,1,.693,4.5,15.192,15.192,0,0,1-7.908,13.281A4.164,4.164,0,0,1-4907.008-10697.909Zm5.31-37.026v0a4.172,4.172,0,0,1,.638-2.465,4.115,4.115,0,0,1,3.5-1.937c.08,0,.166,0,.256.008l-4.4,4.4Zm10.791-10.79h0a4.173,4.173,0,0,1-1.5-2.594,4.164,4.164,0,0,1,.633-2.955,4.163,4.163,0,0,1,3.5-1.887,4.166,4.166,0,0,1,2.294.688c.421.275.86.573,1.3.886a8.051,8.051,0,0,0-1.6,1.243l-4.618,4.618Z" transform="translate(4963.159 10762.16)" opacity="0.5"/></g></svg>