<svg xmlns="http://www.w3.org/2000/svg" xmlns:xlink="http://www.w3.org/1999/xlink" width="100" height="100" viewBox="0 0 100 100"><defs><clipPath id="b"><rect width="100" height="100"/></clipPath></defs><g id="a" clip-path="url(#b)"><path d="M-7438.759-656.436-7453-670h-22a5,5,0,0,1-5-5v-30a5,5,0,0,1,5-5h22l14.241-13.563a4,4,0,0,1,6.76,2.9v61.333a4,4,0,0,1-4.028,4.008A3.921,3.921,0,0,1-7438.759-656.436Z" transform="translate(7480 740)"/><path d="M58.427,29.305a4.147,4.147,0,0,0-4,7.266,6.809,6.809,0,0,1,0,12.026,4.147,4.147,0,0,0,4,7.266,15.1,15.1,0,0,0,0-26.558Z" transform="translate(-0.279 7.875)" opacity="0.5"/></g></svg>