<svg xmlns="http://www.w3.org/2000/svg" xmlns:xlink="http://www.w3.org/1999/xlink" width="100" height="100" viewBox="0 0 100 100"><defs><clipPath id="b"><rect width="100" height="100"/></clipPath></defs><g id="a" clip-path="url(#b)"><path d="M-4065.005-10693.682a.975.975,0,0,1-.688-.284l-12.786-12.358h-21.02a2.5,2.5,0,0,1-2.5-2.5v-25a2.5,2.5,0,0,1,2.5-2.5h21.017l12.789-12.361a.972.972,0,0,1,.686-.284,1,1,0,0,1,1.007,1v53.29A1,1,0,0,1-4065.005-10693.682Zm4.434-61.494a4.136,4.136,0,0,0-1.814-.771,4.06,4.06,0,0,1,1.815.77Z" transform="translate(4107 10771.326)" opacity="0.5"/><path d="M-4063.028-10504.65a3.906,3.906,0,0,1-2.731-1.112l-14.242-13.562h-22a5.006,5.006,0,0,1-5-5v-30a5,5,0,0,1,5-5h22l14.242-13.564a3.906,3.906,0,0,1,2.733-1.111,4.119,4.119,0,0,1,2.786,1.1,3.932,3.932,0,0,1,1.241,2.905v61.335a3.935,3.935,0,0,1-1.242,2.905A4.126,4.126,0,0,1-4063.028-10504.65Zm-1.98-62.321a.975.975,0,0,0-.687.282l-12.787,12.363H-4099.5a2.5,2.5,0,0,0-2.5,2.5v25a2.5,2.5,0,0,0,2.5,2.5h21.02l12.784,12.36a.985.985,0,0,0,.69.284,1,1,0,0,0,1-1v-53.288A.994.994,0,0,0-4065.008-10566.972Z" transform="translate(4107 10589.326)"/></g></svg>