<svg xmlns="http://www.w3.org/2000/svg" xmlns:xlink="http://www.w3.org/1999/xlink" width="100" height="100" viewBox="0 0 100 100"><defs><clipPath id="b"><rect width="100" height="100"/></clipPath></defs><g id="a" clip-path="url(#b)"><path d="M-4885.618-10856.966a4.144,4.144,0,0,1-.6-3.141,4.166,4.166,0,0,1,1.8-2.649,40.3,40.3,0,0,0,18.276-33.783,40.13,40.13,0,0,0-7.115-22.892l4.439-4.436a8.054,8.054,0,0,0,1.364-1.82,48.453,48.453,0,0,1,7.165,13.682,48.724,48.724,0,0,1,2.509,15.466,48.669,48.669,0,0,1-22.049,40.775,4.166,4.166,0,0,1-2.278.684A4.248,4.248,0,0,1-4885.618-10856.966Zm-56.735-4.678a4,4,0,0,1,0-5.655l65.053-65.056a4,4,0,0,1,5.657,0,4,4,0,0,1,0,5.658l-65.055,65.053a3.986,3.986,0,0,1-2.828,1.172A3.986,3.986,0,0,1-4942.354-10861.644Zm26.594-1.793-6.906-6.579,13.667-13.668v17.352a3.935,3.935,0,0,1-1.241,2.9,4.127,4.127,0,0,1-2.786,1.1A3.917,3.917,0,0,1-4915.759-10863.437Zm20.86-7.4a4.2,4.2,0,0,1,1.282-5.768,23.568,23.568,0,0,0,10.964-19.935,23.684,23.684,0,0,0-2.635-10.854l6.088-6.089a31.9,31.9,0,0,1,4.84,16.942,31.894,31.894,0,0,1-14.815,26.989,4.111,4.111,0,0,1-2.2.653A4.2,4.2,0,0,1-4894.9-10870.837ZM-4952-10877a5.007,5.007,0,0,1-5-5v-30a5.01,5.01,0,0,1,5-5h22l14.238-13.563a3.905,3.905,0,0,1,2.734-1.111,4.116,4.116,0,0,1,2.784,1.1,3.93,3.93,0,0,1,1.243,2.9v21.351l-29.314,29.314Zm47.512-7.895a4.142,4.142,0,0,1-.415-2.888l13.264-13.265a14.952,14.952,0,0,1,.692,4.5,15.2,15.2,0,0,1-7.906,13.281,4.107,4.107,0,0,1-2,.513A4.163,4.163,0,0,1-4904.485-10884.895Zm8.946-34.882a4.169,4.169,0,0,1,.639-2.462,4.126,4.126,0,0,1,3.508-1.941c.077,0,.162,0,.25.009l-4.4,4.395,0,0Zm9.92-16.333a4.173,4.173,0,0,1,3.5-1.892,4.172,4.172,0,0,1,2.292.689c.442.288.878.587,1.3.884a7.894,7.894,0,0,0-1.606,1.246l-4.62,4.617A4.161,4.161,0,0,1-4885.618-10936.109Z" transform="translate(4956.999 10946.999)"/></g></svg>