<svg xmlns="http://www.w3.org/2000/svg" xmlns:xlink="http://www.w3.org/1999/xlink" width="100" height="100" viewBox="0 0 100 100"><defs><clipPath id="b"><rect width="100" height="100"/></clipPath></defs><g id="a" clip-path="url(#b)"><path d="M-4545.62-10492.969a4.178,4.178,0,0,1,1.2-5.785,40.312,40.312,0,0,0,18.28-33.784,40.31,40.31,0,0,0-18.28-33.786,4.182,4.182,0,0,1-1.2-5.788,4.182,4.182,0,0,1,5.791-1.2,48.658,48.658,0,0,1,22.051,40.773,48.66,48.66,0,0,1-22.051,40.774,4.132,4.132,0,0,1-2.278.687A4.222,4.222,0,0,1-4545.62-10492.969Zm-30.14-6.468L-4590-10513h-22a5.007,5.007,0,0,1-5-5v-30a5,5,0,0,1,5-5h22l14.241-13.566a3.915,3.915,0,0,1,2.733-1.109,4.123,4.123,0,0,1,2.787,1.1,3.925,3.925,0,0,1,1.242,2.9v61.336a3.945,3.945,0,0,1-1.242,2.906,4.137,4.137,0,0,1-2.787,1.1A3.913,3.913,0,0,1-4575.76-10499.437ZM-4612-10545.5v25a2.5,2.5,0,0,0,2.5,2.5h21.019l12.784,12.361a.991.991,0,0,0,.693.284,1,1,0,0,0,1-1v-53.289a.993.993,0,0,0-1.006-1,.984.984,0,0,0-.687.281l-12.786,12.365H-4609.5A2.5,2.5,0,0,0-4612-10545.5Zm57.1,38.659a4.2,4.2,0,0,1,1.279-5.762,23.57,23.57,0,0,0,10.966-19.938,23.57,23.57,0,0,0-10.966-19.938,4.2,4.2,0,0,1-1.279-5.764,4.128,4.128,0,0,1,5.722-1.287,31.9,31.9,0,0,1,14.816,26.989,31.9,31.9,0,0,1-14.816,26.99,4.053,4.053,0,0,1-2.2.651A4.208,4.208,0,0,1-4554.9-10506.841Zm-9.583-14.055a4.147,4.147,0,0,1,1.632-5.632,6.891,6.891,0,0,0,3.615-6.014,6.888,6.888,0,0,0-3.617-6.014,4.151,4.151,0,0,1-1.632-5.634,4.163,4.163,0,0,1,5.634-1.632,15.185,15.185,0,0,1,7.908,13.277,15.191,15.191,0,0,1-7.906,13.279,4.132,4.132,0,0,1-2,.515A4.144,4.144,0,0,1-4564.484-10520.9Z" transform="translate(4617 10583)"/></g></svg>