<svg xmlns="http://www.w3.org/2000/svg" xmlns:xlink="http://www.w3.org/1999/xlink" width="100" height="100" viewBox="0 0 100 100"><defs><clipPath id="b"><rect width="100" height="100"/></clipPath></defs><g id="a" clip-path="url(#b)"><path d="M-4885.621-10492.967a4.154,4.154,0,0,1-.595-3.142,4.141,4.141,0,0,1,1.8-2.644,40.311,40.311,0,0,0,18.281-33.784,40.139,40.139,0,0,0-7.114-22.894l4.437-4.437a8.094,8.094,0,0,0,1.364-1.817,48.448,48.448,0,0,1,7.163,13.68,48.643,48.643,0,0,1,2.51,15.463,48.662,48.662,0,0,1-22.05,40.777,4.14,4.14,0,0,1-2.279.685A4.246,4.246,0,0,1-4885.621-10492.967Zm-56.734-4.676a4,4,0,0,1,0-5.658l65.053-65.053a4,4,0,0,1,5.658,0,4,4,0,0,1,0,5.657l-65.053,65.054a3.991,3.991,0,0,1-2.829,1.17A3.99,3.99,0,0,1-4942.354-10497.643Zm26.6-1.791-6.908-6.581,3.235-3.235,3.736,3.611a.986.986,0,0,0,.692.284,1,1,0,0,0,1-1v-8.325l5-5.008v17.355a3.936,3.936,0,0,1-1.242,2.906,4.135,4.135,0,0,1-2.787,1.1A3.916,3.916,0,0,1-4915.759-10499.434Zm20.858-7.407a4.2,4.2,0,0,1,1.279-5.761,23.578,23.578,0,0,0,10.965-19.94,23.66,23.66,0,0,0-2.635-10.851l6.09-6.088a31.914,31.914,0,0,1,4.837,16.938,31.888,31.888,0,0,1-14.813,26.991,4.074,4.074,0,0,1-2.2.653A4.2,4.2,0,0,1-4894.9-10506.841Zm-43.415-6.156H-4952a5.009,5.009,0,0,1-5-5v-30a5.008,5.008,0,0,1,5-5h22l14.24-13.565a3.919,3.919,0,0,1,2.733-1.109,4.113,4.113,0,0,1,2.787,1.1,3.922,3.922,0,0,1,1.242,2.9v21.352l-5,5.008v-22.337a.994.994,0,0,0-1.005-1,.984.984,0,0,0-.687.281l-12.786,12.366H-4949.5a2.5,2.5,0,0,0-2.5,2.5v25a2.5,2.5,0,0,0,2.5,2.5h16.182l-5,5Zm33.832-7.895a4.14,4.14,0,0,1-.417-2.891l13.263-13.266a14.936,14.936,0,0,1,.7,4.506,15.2,15.2,0,0,1-7.905,13.279,4.174,4.174,0,0,1-2,.515A4.161,4.161,0,0,1-4904.483-10520.892Zm8.946-34.884a4.191,4.191,0,0,1,.637-2.468,4.118,4.118,0,0,1,3.5-1.935c.08,0,.167,0,.257.008l-4.395,4.395Zm9.285-13.383a4.188,4.188,0,0,1,.632-2.953,4.183,4.183,0,0,1,3.5-1.89,4.187,4.187,0,0,1,2.293.688c.457.3.895.6,1.3.889a8,8,0,0,0-1.605,1.242l-4.618,4.617A4.174,4.174,0,0,1-4886.252-10569.158Z" transform="translate(4956.999 10582.999)"/></g></svg>