<svg xmlns="http://www.w3.org/2000/svg" xmlns:xlink="http://www.w3.org/1999/xlink" width="100" height="100" viewBox="0 0 100 100"><defs><clipPath id="b"><rect width="100" height="100"/></clipPath></defs><g id="a" clip-path="url(#b)"><path d="M-4235.758-10505.763l-14.242-13.563h-22a5,5,0,0,1-5-5v-30a5,5,0,0,1,5-5h22l14.242-13.565a3.9,3.9,0,0,1,2.733-1.112,4.124,4.124,0,0,1,2.784,1.1,3.934,3.934,0,0,1,1.242,2.905v61.336a3.938,3.938,0,0,1-1.242,2.906,4.12,4.12,0,0,1-2.786,1.1A3.908,3.908,0,0,1-4235.758-10505.763Zm-36.242-46.063v25a2.5,2.5,0,0,0,2.5,2.5h21.02l12.786,12.361a.985.985,0,0,0,.69.284,1,1,0,0,0,1-1v-53.289a.994.994,0,0,0-1.005-1,.979.979,0,0,0-.687.281l-12.789,12.363H-4269.5A2.5,2.5,0,0,0-4272-10551.826Zm47.515,24.605a4.15,4.15,0,0,1,1.634-5.634,6.893,6.893,0,0,0,3.612-6.014,6.9,6.9,0,0,0-3.614-6.014,4.145,4.145,0,0,1-1.632-5.631,4.161,4.161,0,0,1,5.631-1.635,15.186,15.186,0,0,1,7.911,13.279,15.189,15.189,0,0,1-7.908,13.279,4.134,4.134,0,0,1-2,.514A4.149,4.149,0,0,1-4224.485-10527.221Z" transform="translate(4277 10589.326)"/></g></svg>