<svg xmlns="http://www.w3.org/2000/svg" xmlns:xlink="http://www.w3.org/1999/xlink" width="100" height="100" viewBox="0 0 100 100"><defs><clipPath id="b"><rect width="100" height="100"/></clipPath></defs><g id="a" clip-path="url(#b)"><path d="M-4235.758-10869.763l-14.241-13.562h-22a5,5,0,0,1-5-5v-30a5,5,0,0,1,5-5h22l14.241-13.562a4,4,0,0,1,6.759,2.9v61.332a4,4,0,0,1-4.027,4.009A3.915,3.915,0,0,1-4235.758-10869.763Zm11.275-21.458a4.15,4.15,0,0,1,1.63-5.634,6.892,6.892,0,0,0,3.616-6.013,6.9,6.9,0,0,0-3.616-6.015,4.146,4.146,0,0,1-1.633-5.631,4.161,4.161,0,0,1,5.634-1.634,15.181,15.181,0,0,1,7.907,13.277,15.188,15.188,0,0,1-7.9,13.279,4.141,4.141,0,0,1-2,.514A4.144,4.144,0,0,1-4224.482-10891.221Z" transform="translate(4277 10953.326)"/></g></svg>