<svg xmlns="http://www.w3.org/2000/svg" xmlns:xlink="http://www.w3.org/1999/xlink" width="100" height="100" viewBox="0 0 100 100"><defs><clipPath id="b"><rect width="100" height="100"/></clipPath></defs><g id="a" clip-path="url(#b)"><path d="M-4745.758-10869.763l-14.24-13.562h-22a5,5,0,0,1-5-5v-30a5,5,0,0,1,5-5h22l14.24-13.562a4,4,0,0,1,6.759,2.9v61.332a4,4,0,0,1-4.028,4.009A3.915,3.915,0,0,1-4745.758-10869.763Zm47.926-17.653-11.668-11.668-11.665,11.668a3,3,0,0,1-4.244,0,3,3,0,0,1,0-4.241l11.668-11.671-11.668-11.665a3,3,0,0,1,0-4.244,3,3,0,0,1,4.244,0l11.665,11.67,11.668-11.67a3,3,0,0,1,4.245,0,3.006,3.006,0,0,1,0,4.244l-11.671,11.665,11.671,11.671a3,3,0,0,1,0,4.241,3,3,0,0,1-2.122.879A2.994,2.994,0,0,1-4697.832-10887.416Z" transform="translate(4787 10953.326)"/></g></svg>