<svg xmlns="http://www.w3.org/2000/svg" xmlns:xlink="http://www.w3.org/1999/xlink" width="100" height="100" viewBox="0 0 100 100"><defs><clipPath id="b"><rect width="100" height="100"/></clipPath></defs><g id="a" clip-path="url(#b)"><path d="M-5085.759-10505.763l-14.243-13.563h-22a5.007,5.007,0,0,1-5-5v-30a5.006,5.006,0,0,1,5-5h22l14.243-13.565a3.9,3.9,0,0,1,2.733-1.112,4.133,4.133,0,0,1,2.787,1.1,3.944,3.944,0,0,1,1.239,2.905v61.336a3.939,3.939,0,0,1-1.242,2.906,4.121,4.121,0,0,1-2.786,1.1A3.907,3.907,0,0,1-5085.759-10505.763Zm-36.242-46.063v25a2.5,2.5,0,0,0,2.5,2.5h21.02l12.783,12.361a.983.983,0,0,0,.69.284,1,1,0,0,0,1-1v-53.289a.992.992,0,0,0-1.006-1,.978.978,0,0,0-.687.281l-12.786,12.363H-5119.5A2.5,2.5,0,0,0-5122-10551.826Zm69.5,32v-16.5H-5069a3,3,0,0,1-3-3,3,3,0,0,1,3-3h16.5v-16.5a3,3,0,0,1,3-3,3,3,0,0,1,3,3v16.5h16.5a3,3,0,0,1,3,3,3,3,0,0,1-3,3h-16.5v16.5a3,3,0,0,1-3,3A3,3,0,0,1-5052.5-10519.825Z" transform="translate(5127 10589.326)"/></g></svg>