<svg xmlns="http://www.w3.org/2000/svg" xmlns:xlink="http://www.w3.org/1999/xlink" width="100" height="100" viewBox="0 0 100 100"><defs><clipPath id="b"><rect width="100" height="100"/></clipPath></defs><g id="a" clip-path="url(#b)"><path d="M-4737.832-10523.089l-11.668-11.669-11.666,11.669a3,3,0,0,1-4.243,0,3,3,0,0,1,0-4.243l11.668-11.669-11.668-11.666a3,3,0,0,1,0-4.243,3,3,0,0,1,4.243,0l11.666,11.669,11.668-11.669a3,3,0,0,1,4.243,0,3,3,0,0,1,0,4.243l-11.668,11.666,11.668,11.669a3,3,0,0,1,0,4.243,3,3,0,0,1-2.123.877A2.989,2.989,0,0,1-4737.832-10523.089Z" transform="translate(4827 10589)" opacity="0.5"/><path d="M-7438.759-656.436-7453-670h-22a5,5,0,0,1-5-5v-30a5,5,0,0,1,5-5h22l14.241-13.563a4,4,0,0,1,6.76,2.9v61.333a4,4,0,0,1-4.028,4.008A3.921,3.921,0,0,1-7438.759-656.436Z" transform="translate(7480 740)"/></g></svg>