<svg xmlns="http://www.w3.org/2000/svg" xmlns:xlink="http://www.w3.org/1999/xlink" width="100" height="100" viewBox="0 0 100 100"><defs><clipPath id="b"><rect width="100" height="100"/></clipPath></defs><g id="a" clip-path="url(#b)"><path d="M-4745.759-10505.763l-14.243-13.563h-22a5,5,0,0,1-5-5v-30a5,5,0,0,1,5-5h22l14.243-13.565a3.9,3.9,0,0,1,2.733-1.112,4.131,4.131,0,0,1,2.786,1.1,3.943,3.943,0,0,1,1.24,2.905v61.336a3.939,3.939,0,0,1-1.242,2.906,4.122,4.122,0,0,1-2.787,1.1A3.906,3.906,0,0,1-4745.759-10505.763Zm-36.242-46.063v25a2.5,2.5,0,0,0,2.5,2.5h21.017l12.786,12.361a.985.985,0,0,0,.69.284,1,1,0,0,0,1-1v-53.289a.994.994,0,0,0-1.006-1,.98.98,0,0,0-.687.281l-12.788,12.363H-4779.5A2.5,2.5,0,0,0-4782-10551.826Zm84.168,28.41-11.668-11.668-11.666,11.668a3,3,0,0,1-4.244,0,3,3,0,0,1,0-4.243l11.668-11.668-11.668-11.666a3,3,0,0,1,0-4.243,3,3,0,0,1,4.244,0l11.666,11.668,11.668-11.668a3,3,0,0,1,4.243,0,3,3,0,0,1,0,4.243l-11.668,11.666,11.668,11.668a3,3,0,0,1,0,4.243,2.987,2.987,0,0,1-2.123.879A2.986,2.986,0,0,1-4697.833-10523.416Z" transform="translate(4787 10589.326)"/></g></svg>