<svg xmlns="http://www.w3.org/2000/svg" xmlns:xlink="http://www.w3.org/1999/xlink" width="100" height="100" viewBox="0 0 100 100"><defs><clipPath id="b"><rect width="100" height="100"/></clipPath></defs><g id="a" clip-path="url(#b)"><path d="M-4545.618-10856.968a4.178,4.178,0,0,1,1.2-5.787,40.31,40.31,0,0,0,18.281-33.785,40.309,40.309,0,0,0-18.281-33.783,4.18,4.18,0,0,1-1.2-5.789,4.178,4.178,0,0,1,5.79-1.2,48.655,48.655,0,0,1,22.049,40.772,48.668,48.668,0,0,1-22.049,40.774,4.135,4.135,0,0,1-2.277.686A4.222,4.222,0,0,1-4545.618-10856.968Zm-30.14-6.468L-4590-10877h-22a5,5,0,0,1-5-5v-30a5,5,0,0,1,5-5h22l14.242-13.563a4,4,0,0,1,6.759,2.9v61.334a4,4,0,0,1-4.027,4.008A3.928,3.928,0,0,1-4575.758-10863.436Zm20.858-7.4a4.2,4.2,0,0,1,1.279-5.765,23.565,23.565,0,0,0,10.967-19.936,23.568,23.568,0,0,0-10.967-19.938,4.2,4.2,0,0,1-1.279-5.763,4.128,4.128,0,0,1,5.721-1.29,31.9,31.9,0,0,1,14.816,26.991,31.889,31.889,0,0,1-14.816,26.988,4.052,4.052,0,0,1-2.2.653A4.2,4.2,0,0,1-4554.9-10870.84Zm-9.583-14.056a4.15,4.15,0,0,1,1.63-5.633,6.893,6.893,0,0,0,3.616-6.012,6.9,6.9,0,0,0-3.616-6.015,4.149,4.149,0,0,1-1.633-5.634,4.161,4.161,0,0,1,5.633-1.631,15.18,15.18,0,0,1,7.909,13.276,15.2,15.2,0,0,1-7.906,13.281,4.146,4.146,0,0,1-2,.513A4.145,4.145,0,0,1-4564.483-10884.9Z" transform="translate(4617 10947)"/></g></svg>