<svg xmlns="http://www.w3.org/2000/svg" xmlns:xlink="http://www.w3.org/1999/xlink" width="100" height="100" viewBox="0 0 100 100"><defs><clipPath id="b"><rect width="100" height="100"/></clipPath></defs><g id="a" clip-path="url(#b)"><path d="M-2827.458-16216.889a1.475,1.475,0,0,1-1.414-1.524v-33.423a1.471,1.471,0,0,0-1.414-1.521h-73.428a1.474,1.474,0,0,0-1.414,1.521v33.492a1.463,1.463,0,0,1-1.409,1.455h-9.041a1.475,1.475,0,0,1-1.414-1.524v-39.286a2.958,2.958,0,0,1,1.875-3.076l47.171-18.05a2.69,2.69,0,0,1,.948-.176,2.707,2.707,0,0,1,.948.176l47.171,18.05a2.962,2.962,0,0,1,1.867,3.117v19.5l0,19.749a1.474,1.474,0,0,1-1.409,1.524Zm-72.362,0a1.451,1.451,0,0,1-1.369-1.52v-6.079a1.451,1.451,0,0,1,1.369-1.52h65.633a1.451,1.451,0,0,1,1.369,1.52v6.079a1.451,1.451,0,0,1-1.369,1.52Zm0-12.154a1.451,1.451,0,0,1-1.369-1.52v-6.079a1.447,1.447,0,0,1,1.369-1.516h65.633a1.447,1.447,0,0,1,1.369,1.516v6.079a1.451,1.451,0,0,1-1.369,1.52Zm0-12.158a1.445,1.445,0,0,1-1.369-1.516v-6.075a1.448,1.448,0,0,1,1.369-1.52h65.633a1.448,1.448,0,0,1,1.369,1.52v6.075a1.445,1.445,0,0,1-1.369,1.516Z" transform="translate(2917 16298)"/></g></svg>