<svg xmlns="http://www.w3.org/2000/svg" xmlns:xlink="http://www.w3.org/1999/xlink" width="100" height="100" viewBox="0 0 100 100"><defs><clipPath id="b"><rect width="100" height="100"/></clipPath></defs><g id="a" clip-path="url(#b)"><path d="M-8571.419,51.108h-9.041a1.474,1.474,0,0,1-1.414-1.524V16.162a1.47,1.47,0,0,0-1.411-1.521h-73.429a1.474,1.474,0,0,0-1.416,1.521V49.587c0,.023,0,.045,0,.068a1.46,1.46,0,0,1-1.411,1.453h-9.04a1.474,1.474,0,0,1-1.414-1.524V10.3a2.965,2.965,0,0,1,1.874-3.078l47.171-18.046A2.653,2.653,0,0,1-8620-11a2.642,2.642,0,0,1,.946.176l47.171,18.046a2.965,2.965,0,0,1,1.868,3.117v19.5l0,19.749A1.471,1.471,0,0,1-8571.419,51.108Z" transform="translate(8670.002 30.001)"/><path d="M-8668.632,21.425A1.451,1.451,0,0,1-8670,19.9V13.828a1.451,1.451,0,0,1,1.368-1.521H-8603a1.448,1.448,0,0,1,1.365,1.521V19.9A1.448,1.448,0,0,1-8603,21.425Zm0-12.155A1.45,1.45,0,0,1-8670,7.752V1.673a1.448,1.448,0,0,1,1.368-1.517H-8603a1.445,1.445,0,0,1,1.365,1.517V7.752A1.447,1.447,0,0,1-8603,9.269Zm0-12.155A1.448,1.448,0,0,1-8670-4.4v-6.076A1.451,1.451,0,0,1-8668.632-12H-8603a1.448,1.448,0,0,1,1.365,1.521V-4.4A1.445,1.445,0,0,1-8603-2.886Z" transform="translate(8685.813 59.681)" opacity="0.5"/></g></svg>