<svg xmlns="http://www.w3.org/2000/svg" xmlns:xlink="http://www.w3.org/1999/xlink" width="100" height="100" viewBox="0 0 100 100"><defs><clipPath id="b"><rect width="100" height="100"/></clipPath></defs><g id="a" clip-path="url(#b)"><path d="M-8491.482,88a6.257,6.257,0,0,1-6.25-6.248L-8500,63.63a31.384,31.384,0,0,0,4.834,2.775l1.73,13.783c0,1.79,1.855,3.127,3.516,3.127h15.626c1.659,0,3.516-1.338,3.516-3.127l1.721-13.783a31.232,31.232,0,0,0,4.841-2.777l-2.27,18.124A6.256,6.256,0,0,1-8472.731,88Zm15.739-39.392-8.486-8.486a2.987,2.987,0,0,1-.582-.821h0c-.009-.02-.019-.04-.028-.061l-.006-.014-.021-.047-.012-.029-.015-.034c0-.014-.011-.029-.017-.043l-.007-.019c-.008-.019-.015-.039-.021-.058,0,0,0,0,0,0a2.98,2.98,0,0,1-.169-.992V22a3,3,0,0,1,3-3,3,3,0,0,1,3,3V36.757l7.607,7.607a3,3,0,0,1,0,4.243,2.992,2.992,0,0,1-2.122.878A2.991,2.991,0,0,1-8475.743,48.608ZM-8500,12.373l2.268-18.124a6.257,6.257,0,0,1,6.25-6.248h18.751a6.256,6.256,0,0,1,6.249,6.248l2.27,18.124a31.694,31.694,0,0,0-4.838-2.773l-1.724-13.787c0-1.79-1.856-3.127-3.516-3.127h-15.626c-1.66,0-3.516,1.338-3.516,3.127l-1.73,13.789A31.187,31.187,0,0,0-8500,12.375l0,0Z" transform="translate(8532.107 12)" opacity="0.66"/><path d="M-8468.747,50.5a31.051,31.051,0,0,1-22.1-9.153,31.056,31.056,0,0,1-9.153-22.1,31.05,31.05,0,0,1,9.153-22.1,31.052,31.052,0,0,1,22.1-9.153,31.047,31.047,0,0,1,22.1,9.153,31.048,31.048,0,0,1,9.152,22.1,31.055,31.055,0,0,1-9.152,22.1A31.04,31.04,0,0,1-8468.747,50.5Zm0-56.253a25.031,25.031,0,0,0-25,25,25.033,25.033,0,0,0,25,25,25.03,25.03,0,0,0,25-25A25.027,25.027,0,0,0-8468.747-5.751Z" transform="translate(8518.75 30.75)"/></g></svg>