<svg xmlns="http://www.w3.org/2000/svg" xmlns:xlink="http://www.w3.org/1999/xlink" width="100" height="100" viewBox="0 0 100 100"><defs><clipPath id="b"><rect width="100" height="100"/></clipPath></defs><g id="a" clip-path="url(#b)"><path d="M85.022,16.781A49.57,49.57,0,0,0,7.031,76.58L0,102.25l26.272-6.9a49.4,49.4,0,0,0,23.683,6.027h.022c27.3,0,50.022-22.232,50.022-49.554A49.749,49.749,0,0,0,85.022,16.781ZM49.978,93.031A41.114,41.114,0,0,1,29,87.295L27.5,86.4,11.92,90.487l4.152-15.2-.982-1.562A41.191,41.191,0,0,1,79.107,22.7c7.768,7.79,12.545,18.125,12.522,29.129C91.629,74.549,72.679,93.031,49.978,93.031ZM72.567,62.183c-1.228-.625-7.321-3.616-8.46-4.018-1.138-.424-1.964-.625-2.79.625s-3.192,4.018-3.929,4.866c-.714.826-1.451.937-2.679.313-7.277-3.638-12.054-6.5-16.853-14.732-1.272-2.187,1.272-2.031,3.638-6.763a2.3,2.3,0,0,0-.112-2.165c-.312-.625-2.79-6.719-3.817-9.2-1-2.411-2.031-2.076-2.79-2.121-.714-.045-1.54-.045-2.366-.045a4.587,4.587,0,0,0-3.3,1.54,13.914,13.914,0,0,0-4.33,10.335c0,6.094,4.442,11.987,5.045,12.813.625.826,8.728,13.326,21.161,18.705,7.857,3.393,10.938,3.683,14.866,3.1,2.388-.357,7.321-2.991,8.348-5.893s1.027-5.379.714-5.893C74.621,63.1,73.795,62.786,72.567,62.183Z" transform="translate(0 -2.25)"/></g></svg>