<svg xmlns="http://www.w3.org/2000/svg" xmlns:xlink="http://www.w3.org/1999/xlink" width="100" height="100" viewBox="0 0 100 100"><defs><clipPath id="b"><rect width="100" height="100"/></clipPath></defs><g id="a" clip-path="url(#b)"><path d="M98.96,15.5a12.565,12.565,0,0,0-8.841-8.9C82.321,4.5,51.05,4.5,51.05,4.5s-31.271,0-39.069,2.1A12.565,12.565,0,0,0,3.14,15.5C1.05,23.351,1.05,39.727,1.05,39.727s0,16.377,2.09,24.226a12.378,12.378,0,0,0,8.841,8.756c7.8,2.1,39.069,2.1,39.069,2.1s31.271,0,39.069-2.1a12.378,12.378,0,0,0,8.841-8.756c2.09-7.849,2.09-24.226,2.09-24.226s0-16.377-2.09-24.226ZM40.823,54.6V24.859L66.959,39.728,40.823,54.6Z" transform="translate(-1.05 10.5)"/></g></svg>